<svg width="1077" height="379" viewBox="0 0 1077 379" fill="none" xmlns="http://www.w3.org/2000/svg">
<g clip-path="url(#clip0_176_6954)">
<rect x="2" y="2" width="1072.47" height="375.149" rx="8.54554" fill="white"/>
<rect x="250.676" y="-51.8369" width="574.261" height="442.022" fill="url(#paint0_radial_176_6954)" fill-opacity="0.38"/>
<mask id="mask0_176_6954" style="mask-type:luminance" maskUnits="userSpaceOnUse" x="421" y="-113" width="222" height="267">
<path d="M421.582 -112.8H642.672V153.49H421.582V-112.8Z" fill="white"/>
</mask>
<g mask="url(#mask0_176_6954)">
<mask id="mask1_176_6954" style="mask-type:luminance" maskUnits="userSpaceOnUse" x="421" y="-113" width="223" height="267">
<path d="M503.772 -112.8H560.816C606.209 -112.8 643.006 -76.0026 643.006 -30.6099V71.3052C643.006 116.694 606.209 153.491 560.816 153.491H503.772C458.379 153.491 421.582 116.694 421.582 71.3052V-30.6099C421.582 -76.0026 458.379 -112.8 503.772 -112.8Z" fill="white"/>
</mask>
<g mask="url(#mask1_176_6954)">
<path d="M503.772 -112.8H560.816C606.209 -112.8 643.006 -76.0026 643.006 -30.6099V71.3052C643.006 116.694 606.209 153.491 560.816 153.491H503.772C458.379 153.491 421.582 116.694 421.582 71.3052V-30.6099C421.582 -76.0026 458.379 -112.8 503.772 -112.8Z" stroke="black" stroke-opacity="0.81" stroke-width="14.7941"/>
</g>
</g>
<mask id="mask2_176_6954" style="mask-type:luminance" maskUnits="userSpaceOnUse" x="451" y="-80" width="166" height="242">
<path d="M451.402 -79.4753H616.604V161.841H451.402V-79.4753Z" fill="white"/>
</mask>
<g mask="url(#mask2_176_6954)">
<mask id="mask3_176_6954" style="mask-type:luminance" maskUnits="userSpaceOnUse" x="451" y="-80" width="166" height="242">
<path d="M533.588 -79.4753H534.572C579.961 -79.4753 616.758 -42.6784 616.758 2.71001V79.6387C616.758 125.027 579.961 161.824 534.572 161.824H533.588C488.195 161.824 451.402 125.027 451.402 79.6387V2.71001C451.402 -42.6784 488.195 -79.4753 533.588 -79.4753Z" fill="white"/>
</mask>
<g mask="url(#mask3_176_6954)">
<path d="M533.588 -79.4753H534.572C579.961 -79.4753 616.758 -42.6784 616.758 2.71001V79.6386C616.758 125.027 579.961 161.824 534.572 161.824H533.588C488.195 161.824 451.402 125.027 451.402 79.6386V2.71001C451.402 -42.6784 488.195 -79.4753 533.588 -79.4753Z" stroke="black" stroke-opacity="0.81" stroke-width="14.7941"/>
</g>
</g>
<mask id="mask4_176_6954" style="mask-type:luminance" maskUnits="userSpaceOnUse" x="375" y="21" width="325" height="326">
<path d="M375.042 21.7295H699.546V346.229H375.042V21.7295Z" fill="white"/>
</mask>
<g mask="url(#mask4_176_6954)">
<mask id="mask5_176_6954" style="mask-type:luminance" maskUnits="userSpaceOnUse" x="375" y="21" width="325" height="326">
<path d="M537.294 21.7295C447.686 21.7295 375.042 94.3689 375.042 183.977C375.042 273.585 447.686 346.229 537.294 346.229C626.902 346.229 699.546 273.585 699.546 183.977C699.546 94.3689 626.902 21.7295 537.294 21.7295Z" fill="white"/>
</mask>
<g mask="url(#mask5_176_6954)">
<mask id="mask6_176_6954" style="mask-type:luminance" maskUnits="userSpaceOnUse" x="374" y="20" width="327" height="327">
<path d="M700.578 20.9292H374.011V346.4H700.578V20.9292Z" fill="white"/>
</mask>
<g mask="url(#mask6_176_6954)">
<mask id="mask7_176_6954" style="mask-type:luminance" maskUnits="userSpaceOnUse" x="375" y="21" width="325" height="326">
<path d="M375.042 21.7297H699.546V346.229H375.042V21.7297Z" fill="white"/>
</mask>
<g mask="url(#mask7_176_6954)">
<mask id="mask8_176_6954" style="mask-type:luminance" maskUnits="userSpaceOnUse" x="375" y="21" width="325" height="326">
<path d="M537.294 21.7297C447.686 21.7297 375.042 94.3691 375.042 183.977C375.042 273.585 447.686 346.229 537.294 346.229C626.902 346.229 699.546 273.585 699.546 183.977C699.546 94.3691 626.902 21.7297 537.294 21.7297Z" fill="white"/>
</mask>
<g mask="url(#mask8_176_6954)">
<path d="M375.042 21.7297H699.546V346.229H375.042V21.7297Z" fill="white"/>
</g>
</g>
</g>
</g>
</g>
<mask id="mask9_176_6954" style="mask-type:luminance" maskUnits="userSpaceOnUse" x="375" y="21" width="325" height="326">
<path d="M375.042 21.7295H699.537V346.224H375.042V21.7295Z" fill="white"/>
</mask>
<g mask="url(#mask9_176_6954)">
<mask id="mask10_176_6954" style="mask-type:luminance" maskUnits="userSpaceOnUse" x="375" y="21" width="325" height="326">
<path d="M537.289 21.7295C447.686 21.7295 375.042 94.3689 375.042 183.977C375.042 273.581 447.686 346.224 537.289 346.224C626.898 346.224 699.537 273.581 699.537 183.977C699.537 94.3689 626.898 21.7295 537.289 21.7295Z" fill="white"/>
</mask>
<g mask="url(#mask10_176_6954)">
<path d="M537.289 21.7295C447.686 21.7295 375.042 94.3689 375.042 183.977C375.042 273.581 447.686 346.224 537.289 346.224C626.898 346.224 699.537 273.581 699.537 183.977C699.537 94.3689 626.898 21.7295 537.289 21.7295Z" stroke="black" stroke-opacity="0.81" stroke-width="13.1503"/>
</g>
</g>
<mask id="mask11_176_6954" style="mask-type:luminance" maskUnits="userSpaceOnUse" x="391" y="35" width="302" height="302">
<path d="M391.317 35.6499H692.123V336.46H391.317V35.6499Z" fill="white"/>
</mask>
<g mask="url(#mask11_176_6954)">
<mask id="mask12_176_6954" style="mask-type:luminance" maskUnits="userSpaceOnUse" x="391" y="35" width="302" height="302">
<path d="M541.72 35.6497C458.653 35.6497 391.317 102.99 391.317 186.052C391.317 269.12 458.653 336.459 541.72 336.459C624.787 336.459 692.123 269.12 692.123 186.052C692.123 102.99 624.787 35.6497 541.72 35.6497Z" fill="white"/>
</mask>
<g mask="url(#mask12_176_6954)">
<mask id="mask13_176_6954" style="mask-type:luminance" maskUnits="userSpaceOnUse" x="390" y="35" width="303" height="302">
<path d="M692.906 35.1748H390.448V336.537H692.906V35.1748Z" fill="white"/>
</mask>
<g mask="url(#mask13_176_6954)">
<mask id="mask14_176_6954" style="mask-type:luminance" maskUnits="userSpaceOnUse" x="391" y="35" width="302" height="302">
<path d="M391.317 35.6492H692.123V336.459H391.317V35.6492Z" fill="white"/>
</mask>
<g mask="url(#mask14_176_6954)">
<mask id="mask15_176_6954" style="mask-type:luminance" maskUnits="userSpaceOnUse" x="391" y="35" width="302" height="302">
<path d="M541.72 35.6489C458.653 35.6489 391.317 102.989 391.317 186.052C391.317 269.119 458.653 336.459 541.72 336.459C624.787 336.459 692.123 269.119 692.123 186.052C692.123 102.989 624.787 35.6489 541.72 35.6489Z" fill="white"/>
</mask>
<g mask="url(#mask15_176_6954)">
<path d="M391.317 35.6489H692.123V336.459H391.317V35.6489Z" fill="#ABC7E9" fill-opacity="0.84"/>
</g>
</g>
</g>
</g>
</g>
<mask id="mask16_176_6954" style="mask-type:luminance" maskUnits="userSpaceOnUse" x="414" y="60" width="245" height="245">
<path d="M414.745 60.6072H658.198V304.06H414.745V60.6072Z" fill="white"/>
</mask>
<g mask="url(#mask16_176_6954)">
<mask id="mask17_176_6954" style="mask-type:luminance" maskUnits="userSpaceOnUse" x="414" y="60" width="245" height="245">
<path d="M536.471 60.6072C469.243 60.6072 414.745 115.105 414.745 182.333C414.745 249.562 469.243 304.06 536.471 304.06C603.7 304.06 658.198 249.562 658.198 182.333C658.198 115.105 603.7 60.6072 536.471 60.6072Z" fill="white"/>
</mask>
<g mask="url(#mask17_176_6954)">
<mask id="mask18_176_6954" style="mask-type:luminance" maskUnits="userSpaceOnUse" x="414" y="60" width="245" height="245">
<path d="M658.934 60.3796H414.557V304.757H658.934V60.3796Z" fill="white"/>
</mask>
<g mask="url(#mask18_176_6954)">
<mask id="mask19_176_6954" style="mask-type:luminance" maskUnits="userSpaceOnUse" x="414" y="60" width="245" height="245">
<path d="M414.745 60.6064H658.198V304.059H414.745V60.6064Z" fill="white"/>
</mask>
<g mask="url(#mask19_176_6954)">
<mask id="mask20_176_6954" style="mask-type:luminance" maskUnits="userSpaceOnUse" x="414" y="60" width="245" height="245">
<path d="M536.471 60.6064C469.243 60.6064 414.745 115.104 414.745 182.333C414.745 249.561 469.243 304.059 536.471 304.059C603.7 304.059 658.198 249.561 658.198 182.333C658.198 115.104 603.7 60.6064 536.471 60.6064Z" fill="white"/>
</mask>
<g mask="url(#mask20_176_6954)">
<path d="M414.745 60.6064H658.198V304.059H414.745V60.6064Z" fill="white"/>
</g>
</g>
</g>
</g>
</g>
<mask id="mask21_176_6954" style="mask-type:luminance" maskUnits="userSpaceOnUse" x="414" y="60" width="245" height="244">
<path d="M414.745 60.6072H658.026V303.888H414.745V60.6072Z" fill="white"/>
</mask>
<g mask="url(#mask21_176_6954)">
<mask id="mask22_176_6954" style="mask-type:luminance" maskUnits="userSpaceOnUse" x="414" y="60" width="245" height="245">
<path d="M536.471 60.6072C469.243 60.6072 414.745 115.105 414.745 182.333C414.745 249.558 469.243 304.055 536.471 304.055C603.696 304.055 658.193 249.558 658.193 182.333C658.193 115.105 603.696 60.6072 536.471 60.6072Z" fill="white"/>
</mask>
<g mask="url(#mask22_176_6954)">
<path d="M536.471 60.6072C469.243 60.6072 414.745 115.105 414.745 182.333C414.745 249.558 469.243 304.055 536.471 304.055C603.696 304.055 658.193 249.558 658.193 182.333C658.193 115.105 603.696 60.6072 536.471 60.6072Z" stroke="black" stroke-opacity="0.81" stroke-width="13.1503"/>
</g>
</g>
<mask id="mask23_176_6954" style="mask-type:luminance" maskUnits="userSpaceOnUse" x="432" y="75" width="212" height="213">
<path d="M432.092 75.7219H643.593V287.223H432.092V75.7219Z" fill="white"/>
</mask>
<g mask="url(#mask23_176_6954)">
<mask id="mask24_176_6954" style="mask-type:luminance" maskUnits="userSpaceOnUse" x="426" y="69" width="225" height="225">
<path d="M440.404 69.4558L650.326 83.6763L636.11 293.598L426.184 279.382L440.404 69.4558Z" fill="white"/>
</mask>
<g mask="url(#mask24_176_6954)">
<mask id="mask25_176_6954" style="mask-type:luminance" maskUnits="userSpaceOnUse" x="426" y="69" width="225" height="225">
<path d="M440.404 69.4561L650.005 83.6552L635.81 293.256L426.205 279.061L440.404 69.4561Z" fill="white"/>
</mask>
<g mask="url(#mask25_176_6954)">
<mask id="mask26_176_6954" style="mask-type:luminance" maskUnits="userSpaceOnUse" x="433" y="76" width="211" height="211">
<path d="M545.205 76.5527C487.326 72.6358 437.225 116.376 433.303 174.26C429.387 232.139 473.127 282.236 531.011 286.158C588.89 290.079 638.987 246.334 642.908 188.455C646.829 130.575 603.085 80.4738 545.205 76.5527Z" fill="white"/>
</mask>
<g mask="url(#mask26_176_6954)">
<path d="M538.587 79.6007C537.529 79.5922 536.472 79.605 535.419 79.6307L535.252 73.0598C536.374 73.0298 537.499 73.017 538.625 73.0256L538.587 79.6007ZM532.226 79.7591C531.164 79.8233 530.102 79.8961 529.045 79.9903L528.467 73.4408C529.593 73.3423 530.723 73.261 531.857 73.1968L532.226 79.7591ZM525.886 80.3199C524.833 80.444 523.78 80.5896 522.731 80.748L521.742 74.2456C522.859 74.0786 523.981 73.9245 525.103 73.7918L525.886 80.3199ZM519.585 81.2788C518.54 81.4671 517.5 81.6769 516.464 81.9037L515.073 75.4784C516.173 75.2387 517.282 75.0161 518.39 74.8106L519.585 81.2788ZM513.369 82.6272C512.337 82.884 511.31 83.158 510.287 83.4491L508.489 77.1265C509.576 76.814 510.672 76.5229 511.772 76.2489L513.369 82.6272ZM507.239 84.3694C506.229 84.6905 505.223 85.0287 504.226 85.3797L502.034 79.1812C503.1 78.8045 504.17 78.4449 505.244 78.1025L507.239 84.3694ZM501.233 86.4927C500.244 86.8779 499.264 87.276 498.284 87.6913L495.707 81.6426C496.747 81.2017 497.796 80.7736 498.849 80.3627L501.233 86.4927ZM495.382 88.984C494.414 89.4335 493.46 89.8958 492.509 90.371L489.556 84.4979C490.57 83.9885 491.589 83.4962 492.616 83.021L495.382 88.984ZM489.684 91.8478C488.751 92.353 487.826 92.8709 486.91 93.406L483.597 87.7255C484.573 87.1562 485.557 86.604 486.55 86.0646L489.684 91.8478ZM484.183 95.0584C483.284 95.6191 482.39 96.197 481.508 96.7878L477.848 91.3256C478.785 90.6963 479.736 90.0842 480.694 89.4849L484.183 95.0584ZM478.892 98.6028C478.028 99.2192 477.176 99.8528 476.332 100.499L472.339 95.2767C473.233 94.5875 474.145 93.9154 475.061 93.2562L478.892 98.6028ZM473.828 102.473C473.006 103.145 472.193 103.83 471.392 104.523L467.082 99.5574C467.934 98.8168 468.798 98.0891 469.676 97.3785L473.828 102.473ZM469.021 106.651C468.242 107.37 467.471 108.106 466.714 108.851L462.103 104.163C462.908 103.367 463.726 102.588 464.556 101.822L469.021 106.651ZM464.479 111.12C463.743 111.886 463.024 112.665 462.313 113.457L457.42 109.065C458.174 108.226 458.94 107.395 459.723 106.578L464.479 111.12ZM460.224 115.858C459.539 116.672 458.867 117.498 458.208 118.328L453.05 114.253C453.752 113.367 454.467 112.489 455.194 111.625L460.224 115.858ZM456.273 120.858C455.644 121.71 455.023 122.575 454.419 123.444L449.017 119.698C449.659 118.769 450.319 117.853 450.991 116.946L456.273 120.858ZM452.643 126.094C452.065 126.984 451.504 127.883 450.956 128.79L445.327 125.391C445.909 124.424 446.509 123.465 447.125 122.519L452.643 126.094ZM449.351 131.543C448.829 132.467 448.324 133.405 447.831 134.347L442.001 131.307C442.528 130.301 443.067 129.304 443.619 128.319L449.351 131.543ZM446.406 137.189C445.944 138.144 445.498 139.107 445.07 140.074L439.06 137.407C439.518 136.376 439.993 135.353 440.481 134.334L446.406 137.189ZM443.82 143.011C443.422 143.995 443.037 144.984 442.669 145.982L436.505 143.696C436.894 142.638 437.305 141.585 437.733 140.537L443.82 143.011ZM441.616 148.978C441.278 149.984 440.957 150.999 440.648 152.017L434.351 150.125C434.677 149.042 435.019 147.964 435.379 146.889L441.616 148.978ZM439.779 155.087C439.51 156.11 439.253 157.133 439.013 158.165L432.609 156.675C432.866 155.575 433.136 154.483 433.427 153.396L439.779 155.087ZM438.341 161.281C438.131 162.325 437.939 163.374 437.763 164.427L431.278 163.344C431.466 162.223 431.672 161.105 431.89 159.992L438.341 161.281ZM437.288 167.556C437.143 168.61 437.018 169.663 436.907 170.72L430.366 170.039C430.486 168.913 430.619 167.792 430.773 166.675L437.288 167.556ZM436.625 173.909L436.582 174.491C436.526 175.364 436.475 176.246 436.44 177.128L429.87 176.85C429.908 175.912 429.959 174.971 430.024 174.029L430.066 173.447L436.625 173.909ZM436.355 180.317C436.342 181.375 436.346 182.432 436.368 183.489L429.793 183.622C429.771 182.496 429.767 181.37 429.78 180.244L436.355 180.317ZM436.479 186.674C436.535 187.74 436.607 188.802 436.693 189.863L430.139 190.403C430.045 189.273 429.972 188.142 429.912 187.008L436.479 186.674ZM437.006 193.027C437.125 194.08 437.262 195.129 437.416 196.177L430.91 197.128C430.747 196.01 430.602 194.893 430.473 193.772L437.006 193.027ZM437.926 199.328C438.114 200.372 438.315 201.417 438.534 202.453L432.1 203.81C431.869 202.705 431.65 201.597 431.453 200.488L437.926 199.328ZM439.24 205.548C439.493 206.584 439.762 207.611 440.049 208.638L433.714 210.402C433.41 209.306 433.123 208.21 432.853 207.11L439.24 205.548ZM440.948 211.691C441.265 212.701 441.594 213.707 441.945 214.708L435.734 216.866C435.362 215.8 435.011 214.73 434.673 213.651L440.948 211.691ZM443.037 217.705C443.418 218.698 443.812 219.683 444.223 220.663L438.161 223.206C437.725 222.165 437.305 221.117 436.899 220.059L443.037 217.705ZM445.498 223.574C445.944 224.541 446.397 225.5 446.873 226.455L440.982 229.374C440.477 228.36 439.989 227.337 439.518 226.305L445.498 223.574ZM448.332 229.289C448.833 230.222 449.347 231.146 449.878 232.067L444.18 235.35C443.615 234.37 443.067 233.385 442.532 232.388L448.332 229.289ZM451.509 234.806C452.069 235.71 452.643 236.604 453.229 237.49L447.746 241.12C447.121 240.179 446.513 239.224 445.918 238.265L451.509 234.806ZM455.027 240.115C455.639 240.984 456.269 241.84 456.911 242.687L451.663 246.651C450.982 245.752 450.314 244.836 449.659 243.916L455.027 240.115ZM458.871 245.2C459.535 246.026 460.216 246.84 460.909 247.649L455.918 251.929C455.181 251.073 454.462 250.204 453.752 249.327L458.871 245.2ZM463.019 250.033C463.739 250.816 464.466 251.587 465.207 252.349L460.494 256.933C459.706 256.124 458.931 255.302 458.169 254.468L463.019 250.033ZM467.463 254.596C468.229 255.337 469.004 256.06 469.791 256.775L465.374 261.642C464.535 260.885 463.709 260.114 462.9 259.326L467.463 254.596ZM472.18 258.877C472.989 259.566 473.811 260.242 474.642 260.906L470.536 266.043C469.65 265.336 468.781 264.617 467.917 263.881L472.18 258.877ZM477.159 262.854C478.006 263.491 478.867 264.116 479.736 264.724L475.96 270.105C475.035 269.459 474.119 268.795 473.216 268.115L477.159 262.854ZM482.372 266.514C483.263 267.096 484.158 267.665 485.065 268.217L481.632 273.825C480.669 273.239 479.714 272.631 478.768 272.014L482.372 266.514ZM487.805 269.835C488.725 270.362 489.658 270.871 490.6 271.368L487.526 277.181C486.525 276.655 485.532 276.111 484.551 275.55L487.805 269.835ZM493.438 272.815C494.388 273.281 495.347 273.731 496.315 274.163L493.614 280.161C492.586 279.698 491.563 279.219 490.549 278.722L493.438 272.815ZM499.243 275.426C500.223 275.833 501.212 276.222 502.209 276.599L499.893 282.75C498.832 282.352 497.779 281.937 496.734 281.505L499.243 275.426ZM505.197 277.669C506.203 278.012 507.213 278.341 508.228 278.649L506.306 284.938C505.223 284.608 504.144 284.257 503.074 283.893L505.197 277.669ZM511.297 279.54C512.32 279.814 513.343 280.075 514.371 280.323L512.843 286.719C511.751 286.457 510.659 286.179 509.572 285.884L511.297 279.54ZM517.479 281.012C518.523 281.226 519.576 281.423 520.629 281.607L519.508 288.088C518.386 287.892 517.269 287.682 516.156 287.451L517.479 281.012ZM523.754 282.1C524.803 282.25 525.856 282.378 526.913 282.498L526.194 289.03C525.073 288.906 523.951 288.769 522.834 288.611L523.754 282.1ZM530.085 282.793L531.25 282.879C531.93 282.926 532.619 282.964 533.313 282.999L533 289.565C532.264 289.531 531.519 289.488 530.766 289.437L529.606 289.351L530.085 282.793ZM536.506 283.101C537.568 283.119 538.625 283.119 539.683 283.106L539.777 289.681C538.651 289.694 537.525 289.694 536.399 289.677L536.506 283.101ZM542.863 283.012C543.925 282.96 544.991 282.896 546.052 282.815L546.557 289.368C545.427 289.458 544.293 289.527 543.159 289.578L542.863 283.012ZM549.22 282.519C550.273 282.408 551.322 282.275 552.371 282.13L553.282 288.641C552.169 288.795 551.052 288.936 549.931 289.056L549.22 282.519ZM555.526 281.633C556.574 281.453 557.615 281.256 558.655 281.042L559.977 287.485C558.873 287.712 557.76 287.921 556.647 288.114L555.526 281.633ZM561.75 280.353C562.786 280.109 563.822 279.844 564.849 279.566L566.574 285.91C565.478 286.205 564.382 286.487 563.278 286.753L561.75 280.353ZM567.91 278.679C568.92 278.371 569.926 278.042 570.928 277.699L573.051 283.923C571.985 284.287 570.91 284.634 569.836 284.968L567.91 278.679ZM573.933 276.625C574.926 276.248 575.915 275.858 576.895 275.452L579.408 281.53C578.359 281.963 577.31 282.378 576.248 282.776L573.933 276.625ZM579.814 274.193C580.786 273.757 581.745 273.307 582.699 272.841L585.589 278.748C584.57 279.244 583.547 279.724 582.515 280.191L579.814 274.193ZM585.542 271.394C586.479 270.901 587.408 270.388 588.333 269.865L591.582 275.58C590.602 276.141 589.613 276.68 588.611 277.211L585.542 271.394ZM591.077 268.247C591.984 267.691 592.883 267.126 593.769 266.544L597.374 272.044C596.428 272.665 595.469 273.269 594.506 273.859L591.077 268.247ZM596.406 264.759C597.28 264.151 598.14 263.526 598.988 262.892L602.926 268.157C602.018 268.834 601.102 269.497 600.178 270.144L596.406 264.759ZM601.513 260.944C602.344 260.281 603.161 259.605 603.97 258.92L608.23 263.932C607.365 264.66 606.492 265.379 605.61 266.086L601.513 260.944ZM606.368 256.818C607.155 256.107 607.93 255.384 608.696 254.648L613.255 259.382C612.442 260.165 611.616 260.936 610.777 261.698L606.368 256.818ZM610.956 252.4C611.701 251.638 612.429 250.868 613.148 250.089L617.994 254.532C617.228 255.362 616.453 256.184 615.661 256.993L610.956 252.4ZM615.263 247.704C615.956 246.899 616.637 246.086 617.305 245.26L622.416 249.391C621.705 250.273 620.982 251.142 620.246 251.998L615.263 247.704ZM619.27 242.751C619.907 241.904 620.537 241.048 621.149 240.183L626.513 243.989C625.858 244.913 625.19 245.821 624.509 246.724L619.27 242.751ZM622.955 237.559C623.542 236.673 624.115 235.778 624.676 234.875L630.267 238.338C629.667 239.297 629.06 240.251 628.435 241.193L622.955 237.559ZM626.307 232.144C626.838 231.223 627.356 230.295 627.857 229.361L633.653 232.465C633.118 233.462 632.57 234.451 632.005 235.431L626.307 232.144ZM629.316 226.528C629.787 225.577 630.241 224.618 630.682 223.659L636.662 226.391C636.196 227.418 635.708 228.437 635.207 229.447L629.316 226.528ZM631.962 220.74C632.373 219.755 632.771 218.771 633.152 217.773L639.29 220.128C638.884 221.185 638.464 222.238 638.023 223.283L631.962 220.74ZM634.239 214.794C634.586 213.792 634.92 212.782 635.237 211.772L641.512 213.728C641.174 214.807 640.819 215.881 640.451 216.952L634.239 214.794ZM636.14 208.703C636.422 207.684 636.688 206.661 636.94 205.638L643.327 207.196C643.062 208.287 642.775 209.379 642.475 210.462L636.14 208.703ZM637.647 202.534C637.869 201.49 638.07 200.441 638.259 199.392L644.731 200.548C644.53 201.665 644.316 202.782 644.081 203.891L637.647 202.534ZM638.768 196.259C638.922 195.21 639.059 194.161 639.183 193.108L645.716 193.861C645.583 194.983 645.438 196.1 645.275 197.213L638.768 196.259ZM639.496 189.949L639.629 188.207L639.723 186.691L646.285 187.085L646.187 188.703L646.054 190.45L639.496 189.949ZM639.838 183.515C639.864 182.453 639.868 181.396 639.86 180.334L646.435 180.279C646.448 181.405 646.439 182.53 646.414 183.66L639.838 183.515ZM639.783 177.167C639.74 176.096 639.68 175.031 639.607 173.969L646.165 173.498C646.247 174.632 646.307 175.767 646.354 176.901L639.783 177.167ZM639.329 170.797C639.222 169.748 639.094 168.699 638.957 167.651L645.472 166.773C645.622 167.886 645.754 169.003 645.87 170.125L639.329 170.797ZM638.477 164.487C638.302 163.438 638.109 162.394 637.904 161.354L644.35 160.065C644.573 161.174 644.774 162.287 644.962 163.404L638.477 164.487ZM637.231 158.254C636.992 157.219 636.735 156.187 636.461 155.155L642.813 153.464C643.105 154.56 643.379 155.66 643.635 156.765L637.231 158.254ZM635.592 152.09C635.288 151.076 634.967 150.065 634.629 149.064L640.861 146.975C641.221 148.045 641.564 149.119 641.889 150.198L635.592 152.09ZM633.567 146.054C633.199 145.061 632.814 144.068 632.416 143.084L638.507 140.609C638.931 141.658 639.342 142.711 639.736 143.773L633.567 146.054ZM631.17 140.156C630.738 139.188 630.292 138.225 629.834 137.266L635.755 134.411C636.247 135.43 636.722 136.457 637.18 137.489L631.17 140.156ZM628.405 134.415C627.912 133.473 627.407 132.54 626.889 131.616L632.621 128.397C633.173 129.381 633.713 130.374 634.235 131.376L628.405 134.415ZM625.288 128.863C624.736 127.956 624.175 127.052 623.597 126.162L629.119 122.592C629.732 123.542 630.331 124.501 630.917 125.469L625.288 128.863ZM621.825 123.517C621.222 122.643 620.605 121.779 619.972 120.922L625.263 117.014C625.935 117.926 626.59 118.846 627.232 119.775L621.825 123.517ZM618.041 118.393C617.382 117.558 616.714 116.732 616.029 115.918L621.063 111.689C621.791 112.558 622.506 113.431 623.204 114.322L618.041 118.393ZM613.944 113.513C613.234 112.721 612.515 111.941 611.783 111.171L616.543 106.638C617.322 107.455 618.088 108.286 618.842 109.129L613.944 113.513ZM609.548 108.898C608.795 108.153 608.024 107.417 607.245 106.698L611.718 101.873C612.545 102.644 613.362 103.423 614.167 104.219L609.548 108.898ZM604.878 104.566C604.077 103.868 603.264 103.183 602.442 102.511L606.603 97.4213C607.48 98.1362 608.345 98.8639 609.197 99.6088L604.878 104.566ZM599.942 100.533C599.103 99.887 598.251 99.2577 597.391 98.637L601.226 93.2947C602.142 93.9539 603.05 94.6303 603.945 95.3152L599.942 100.533ZM594.771 96.8177C593.889 96.227 592.999 95.6491 592.096 95.0841L595.589 89.5148C596.548 90.1141 597.498 90.7306 598.44 91.3598L594.771 96.8177ZM589.377 93.436C588.461 92.9009 587.537 92.3786 586.603 91.8735L589.737 86.0946C590.734 86.6339 591.719 87.1904 592.695 87.7598L589.377 93.436ZM583.774 90.3967C582.828 89.9215 581.873 89.4592 580.914 89.014L583.68 83.051C584.703 83.5219 585.717 84.0141 586.728 84.5193L583.774 90.3967ZM578.004 87.7212C577.023 87.3017 576.039 86.8993 575.046 86.5141L577.43 80.3841C578.487 80.7993 579.536 81.2274 580.581 81.6683L578.004 87.7212ZM572.07 85.4096C571.069 85.0543 570.063 84.7205 569.053 84.3951L571.047 78.1324C572.126 78.4749 573.196 78.8345 574.262 79.2112L572.07 85.4096ZM565.992 83.4748C564.973 83.188 563.954 82.914 562.927 82.6572L564.524 76.2789C565.615 76.5529 566.702 76.8439 567.79 77.1522L565.992 83.4748ZM559.828 81.9337C558.787 81.7068 557.743 81.4971 556.694 81.3044L557.888 74.8406C559.006 75.046 560.114 75.2686 561.223 75.5084L559.828 81.9337ZM553.556 80.7779C552.512 80.6153 551.463 80.474 550.414 80.3456L551.202 73.8175C552.319 73.9545 553.437 74.1086 554.55 74.2755L553.556 80.7779ZM547.234 80.0117C546.485 79.9432 545.736 79.8875 544.982 79.8362C543.912 79.7634 542.842 79.7077 541.776 79.6692L542.016 73.0983C543.154 73.1369 544.289 73.1968 545.427 73.2738C546.228 73.3295 547.024 73.3937 547.82 73.4622L547.234 80.0117Z" fill="black" fill-opacity="0.81"/>
</g>
</g>
</g>
</g>
<mask id="mask27_176_6954" style="mask-type:luminance" maskUnits="userSpaceOnUse" x="526" y="34" width="23" height="21">
<path d="M526.079 34.8159H548.463V54.3745H526.079V34.8159Z" fill="white"/>
</mask>
<g mask="url(#mask27_176_6954)">
<mask id="mask28_176_6954" style="mask-type:luminance" maskUnits="userSpaceOnUse" x="526" y="34" width="23" height="21">
<path d="M537.29 54.3745L526.113 34.8159H548.463L537.29 54.3745Z" fill="white"/>
</mask>
<g mask="url(#mask28_176_6954)">
<mask id="mask29_176_6954" style="mask-type:luminance" maskUnits="userSpaceOnUse" x="525" y="34" width="25" height="21">
<path d="M549.349 34.0791H525.24V54.9005H549.349V34.0791Z" fill="white"/>
</mask>
<g mask="url(#mask29_176_6954)">
<mask id="mask30_176_6954" style="mask-type:luminance" maskUnits="userSpaceOnUse" x="526" y="34" width="23" height="21">
<path d="M526.079 34.8159H548.463V54.3745H526.079V34.8159Z" fill="white"/>
</mask>
<g mask="url(#mask30_176_6954)">
<mask id="mask31_176_6954" style="mask-type:luminance" maskUnits="userSpaceOnUse" x="526" y="34" width="23" height="21">
<path d="M537.29 54.3745L526.113 34.8159H548.463L537.29 54.3745Z" fill="white"/>
</mask>
<g mask="url(#mask31_176_6954)">
<path d="M548.463 54.3745H526.079V34.8159H548.463V54.3745Z" fill="black" fill-opacity="0.81"/>
</g>
</g>
</g>
</g>
</g>
<path d="M536.604 90.1397L537.006 76.313" stroke="black" stroke-opacity="0.81" stroke-width="2.46569"/>
<path d="M537.704 286.813L538.107 272.99" stroke="black" stroke-opacity="0.81" stroke-width="2.46569"/>
<path d="M475.579 267.408L484.025 256.454" stroke="black" stroke-opacity="0.81" stroke-width="2.46569"/>
<path d="M438.033 214.113L451.401 210.56" stroke="black" stroke-opacity="0.81" stroke-width="2.46569"/>
<path d="M436.894 149.141L449.903 153.841" stroke="black" stroke-opacity="0.81" stroke-width="2.46569"/>
<path d="M600.456 267.853L592.837 256.313" stroke="black" stroke-opacity="0.81" stroke-width="2.46569"/>
<path d="M638.108 214.481L625.082 209.841" stroke="black" stroke-opacity="0.81" stroke-width="2.46569"/>
<path d="M638.589 149.102L625.473 153.494" stroke="black" stroke-opacity="0.81" stroke-width="2.46569"/>
<path d="M600.31 97.5837L592.561 109.043" stroke="black" stroke-opacity="0.81" stroke-width="2.46569"/>
<path d="M474.954 97.956L483.519 108.82" stroke="white" stroke-width="2.46569"/>
<mask id="mask32_176_6954" style="mask-type:luminance" maskUnits="userSpaceOnUse" x="480" y="128" width="113" height="113">
<path d="M480.31 128.324H592.087V240.102H480.31V128.324Z" fill="white"/>
</mask>
<g mask="url(#mask32_176_6954)">
<mask id="mask33_176_6954" style="mask-type:luminance" maskUnits="userSpaceOnUse" x="480" y="127" width="113" height="114">
<path d="M480.197 130.138L590.301 127.702L592.741 237.811L482.633 240.247L480.197 130.138Z" fill="white"/>
</mask>
<g mask="url(#mask33_176_6954)">
<mask id="mask34_176_6954" style="mask-type:luminance" maskUnits="userSpaceOnUse" x="480" y="127" width="113" height="114">
<path d="M480.197 130.138L590.301 127.702L592.741 237.81L482.633 240.246L480.197 130.138Z" fill="white"/>
</mask>
<g mask="url(#mask34_176_6954)">
<mask id="mask35_176_6954" style="mask-type:luminance" maskUnits="userSpaceOnUse" x="481" y="128" width="111" height="112">
<path d="M535.253 128.922C504.847 129.594 480.742 154.786 481.414 185.192C482.09 215.598 507.282 239.703 537.688 239.026C568.094 238.354 592.195 213.162 591.523 182.756C590.85 152.35 565.654 128.246 535.253 128.922Z" fill="white"/>
</mask>
<g mask="url(#mask35_176_6954)">
<path d="M519.645 142C517.141 143.006 514.74 144.23 512.445 145.672L501.944 128.973C505.241 126.901 508.695 125.138 512.304 123.691L519.645 142ZM506.003 150.578C503.999 152.406 502.176 154.396 500.532 156.554L484.856 144.577C487.215 141.486 489.83 138.635 492.702 136.011L506.003 150.578ZM496.208 163.395C494.975 165.805 493.97 168.3 493.186 170.882L474.304 165.175C475.43 161.455 476.881 157.864 478.657 154.396L496.208 163.395ZM491.555 178.792C491.324 180.838 491.23 182.897 491.277 184.974C491.29 185.646 491.32 186.313 491.363 186.977L471.68 188.27C471.62 187.319 471.577 186.365 471.556 185.41C471.492 182.444 471.624 179.494 471.958 176.562L491.555 178.792ZM492.608 194.961C493.263 197.585 494.145 200.127 495.262 202.589L477.288 210.722C475.682 207.173 474.411 203.509 473.469 199.733L492.608 194.961ZM499.248 209.635C500.789 211.865 502.518 213.941 504.432 215.863L490.455 229.784C487.707 227.027 485.228 224.048 483.019 220.85L499.248 209.635ZM510.639 221.077C512.86 222.627 515.202 223.967 517.659 225.092L509.44 243.024C505.908 241.406 502.544 239.48 499.35 237.254L510.639 221.077ZM525.27 227.785C527.881 228.449 530.54 228.877 533.241 229.065L531.862 248.743C527.98 248.469 524.157 247.857 520.399 246.898L525.27 227.785ZM541.451 228.907C544.144 228.611 546.781 228.08 549.366 227.314L554.974 246.226C551.258 247.326 547.466 248.093 543.596 248.516L541.451 228.907ZM556.866 224.33C559.276 223.11 561.562 221.681 563.724 220.041L575.633 235.769C572.529 238.119 569.246 240.173 565.778 241.928L556.866 224.33ZM569.725 214.592C571.562 212.597 573.21 210.452 574.661 208.166L591.313 218.74C589.232 222.023 586.869 225.092 584.233 227.956L569.725 214.592ZM578.372 200.971C579.391 198.466 580.174 195.894 580.727 193.248L600.037 197.272C599.241 201.082 598.111 204.793 596.647 208.398L578.372 200.971ZM581.66 185.222C581.677 184.473 581.681 183.724 581.664 182.975C581.617 180.98 581.446 179.002 581.146 177.046L600.645 174.054C601.073 176.857 601.321 179.687 601.385 182.538C601.407 183.608 601.407 184.678 601.377 185.748L581.66 185.222ZM579.211 169.208C578.329 166.656 577.225 164.199 575.898 161.841L593.089 152.171C594.999 155.561 596.587 159.097 597.854 162.77L579.211 169.208ZM571.313 155.176C569.584 153.087 567.688 151.169 565.611 149.418L578.338 134.346C581.309 136.85 584.031 139.602 586.51 142.595L571.313 155.176ZM558.985 144.765C556.635 143.412 554.191 142.286 551.644 141.379L558.266 122.796C561.93 124.102 565.449 125.729 568.826 127.672L558.985 144.765ZM543.814 139.358C541.143 138.926 538.446 138.729 535.715 138.776L535.385 119.055C539.289 118.986 543.159 119.269 546.99 119.894L543.814 139.358ZM535.471 138.78C532.736 138.84 530.043 139.14 527.393 139.679L523.459 120.352C527.265 119.577 531.122 119.145 535.034 119.059L535.471 138.78Z" fill="black" fill-opacity="0.81"/>
</g>
</g>
</g>
</g>
<mask id="mask36_176_6954" style="mask-type:luminance" maskUnits="userSpaceOnUse" x="495" y="141" width="83" height="84">
<path d="M495.262 141.657H577.944V224.339H495.262V141.657Z" fill="white"/>
</mask>
<g mask="url(#mask36_176_6954)">
<mask id="mask37_176_6954" style="mask-type:luminance" maskUnits="userSpaceOnUse" x="495" y="141" width="83" height="84">
<path d="M536.605 141.657C513.772 141.657 495.262 160.167 495.262 183C495.262 205.829 513.772 224.339 536.605 224.339C559.434 224.339 577.944 205.829 577.944 183C577.944 160.167 559.434 141.657 536.605 141.657Z" fill="white"/>
</mask>
<g mask="url(#mask37_176_6954)">
<mask id="mask38_176_6954" style="mask-type:luminance" maskUnits="userSpaceOnUse" x="494" y="141" width="85" height="84">
<path d="M578.936 141.473H494.555V224.758H578.936V141.473Z" fill="white"/>
</mask>
<g mask="url(#mask38_176_6954)">
<mask id="mask39_176_6954" style="mask-type:luminance" maskUnits="userSpaceOnUse" x="495" y="141" width="83" height="84">
<path d="M495.262 141.656H577.944V224.338H495.262V141.656Z" fill="white"/>
</mask>
<g mask="url(#mask39_176_6954)">
<mask id="mask40_176_6954" style="mask-type:luminance" maskUnits="userSpaceOnUse" x="495" y="141" width="83" height="84">
<path d="M536.605 141.656C513.772 141.656 495.262 160.166 495.262 182.999C495.262 205.828 513.772 224.338 536.605 224.338C559.434 224.338 577.944 205.828 577.944 182.999C577.944 160.166 559.434 141.656 536.605 141.656Z" fill="white"/>
</mask>
<g mask="url(#mask40_176_6954)">
<path d="M495.262 141.656H577.944V224.338H495.262V141.656Z" fill="#ABC7E9" fill-opacity="0.84"/>
</g>
</g>
</g>
</g>
</g>
<mask id="mask41_176_6954" style="mask-type:luminance" maskUnits="userSpaceOnUse" x="531" y="88" width="12" height="25">
<path d="M542.773 88.8723H531.814V112.981H542.773V88.8723Z" fill="white"/>
</mask>
<g mask="url(#mask41_176_6954)">
<mask id="mask42_176_6954" style="mask-type:luminance" maskUnits="userSpaceOnUse" x="532" y="94" width="10" height="13">
<path d="M532.165 94.3525H541.677V106.407H532.165V94.3525Z" fill="white"/>
</mask>
<g mask="url(#mask42_176_6954)">
<path d="M537.141 94.9014C538.066 94.9014 538.854 95.1368 539.504 95.6034C540.164 96.0614 540.673 96.695 541.028 97.504C541.379 98.3174 541.559 99.2591 541.559 100.329C541.559 101.404 541.379 102.35 541.028 103.172C540.686 103.994 540.181 104.64 539.521 105.107C538.858 105.577 538.066 105.809 537.141 105.809C536.217 105.809 535.42 105.577 534.761 105.107C534.098 104.64 533.588 103.994 533.237 103.172C532.895 102.35 532.724 101.404 532.724 100.329C532.724 99.2591 532.899 98.3174 533.254 97.504C533.605 96.695 534.115 96.0614 534.778 95.6034C535.438 95.1368 536.225 94.9014 537.141 94.9014ZM537.141 96.0315C536.444 96.0315 535.861 96.2198 535.395 96.5965C534.924 96.9647 534.573 97.4698 534.333 98.1205C534.093 98.7711 533.974 99.5074 533.974 100.329C533.974 101.151 534.085 101.896 534.316 102.555C534.556 103.206 534.907 103.728 535.378 104.113C535.844 104.49 536.431 104.679 537.141 104.679C537.835 104.679 538.417 104.49 538.888 104.113C539.354 103.728 539.701 103.206 539.932 102.555C540.172 101.896 540.292 101.151 540.292 100.329C540.292 99.5074 540.172 98.7711 539.932 98.1205C539.693 97.4698 539.337 96.9647 538.871 96.5965C538.4 96.2198 537.826 96.0315 537.141 96.0315Z" fill="black" fill-opacity="0.81"/>
</g>
</g>
<mask id="mask43_176_6954" style="mask-type:luminance" maskUnits="userSpaceOnUse" x="571" y="103" width="29" height="29">
<path d="M599.758 103.118H571.266V131.611H599.758V103.118Z" fill="white"/>
</mask>
<g mask="url(#mask43_176_6954)">
<path d="M576.445 116.366L577.182 115.459L579.373 117.24L584.459 110.939C584.048 110.814 583.611 110.677 583.157 110.528C582.712 110.382 582.276 110.232 581.856 110.082L582.181 109.004L585.623 110.237L586.188 110.699L580.315 117.993L581.959 119.312L581.223 120.219L576.445 116.366Z" fill="black" fill-opacity="0.81"/>
<path d="M591.957 115.125C592.676 115.698 593.143 116.37 593.361 117.145C593.588 117.924 593.584 118.738 593.344 119.594C593.113 120.437 592.663 121.276 591.991 122.111C591.315 122.954 590.587 123.583 589.8 123.994C589.021 124.414 588.224 124.598 587.402 124.542C586.589 124.495 585.827 124.187 585.108 123.618C584.389 123.035 583.918 122.35 583.704 121.563C583.486 120.784 583.498 119.97 583.738 119.114C583.978 118.258 584.432 117.411 585.108 116.563C585.78 115.733 586.512 115.116 587.3 114.714C588.087 114.303 588.879 114.127 589.68 114.183C590.489 114.23 591.247 114.542 591.957 115.125ZM591.238 115.998C590.699 115.553 590.134 115.33 589.543 115.33C588.948 115.33 588.348 115.51 587.745 115.861C587.15 116.216 586.598 116.713 586.084 117.351C585.57 118.001 585.198 118.652 584.971 119.303C584.74 119.953 584.688 120.574 584.817 121.169C584.941 121.76 585.279 122.282 585.827 122.727C586.375 123.16 586.949 123.369 587.557 123.361C588.16 123.361 588.759 123.177 589.354 122.813C589.945 122.458 590.502 121.957 591.015 121.306C591.529 120.664 591.893 120.022 592.111 119.371C592.338 118.72 592.385 118.104 592.248 117.522C592.111 116.931 591.773 116.422 591.238 115.998Z" fill="black" fill-opacity="0.81"/>
</g>
<mask id="mask44_176_6954" style="mask-type:luminance" maskUnits="userSpaceOnUse" x="600" y="143" width="31" height="29">
<path d="M630.442 143.667H600.854V171.063H630.442V143.667Z" fill="white"/>
</mask>
<g mask="url(#mask44_176_6954)">
<path d="M618.232 152.024C617.933 151.19 617.427 150.62 616.708 150.312C615.998 150.004 615.005 150.034 613.729 150.398L613.421 149.199C614.893 148.814 616.13 148.818 617.136 149.216C618.138 149.606 618.857 150.411 619.294 151.631C619.692 152.701 619.748 153.638 619.465 154.439C619.191 155.235 618.592 155.8 617.667 156.134C617.038 156.361 616.46 156.399 615.938 156.254C615.424 156.117 614.919 155.826 614.431 155.38C613.939 154.935 613.455 154.37 612.976 153.685C612.449 153.035 611.991 152.538 611.606 152.196C611.229 151.853 610.844 151.652 610.458 151.596C610.082 151.549 609.641 151.613 609.14 151.785C609.286 152.17 609.457 152.615 609.654 153.12C609.846 153.634 610.022 154.105 610.185 154.541L611.623 158.514L610.544 158.908L607.685 151.048C607.787 150.98 607.899 150.92 608.027 150.877C608.164 150.83 608.292 150.783 608.421 150.74C609.196 150.458 609.868 150.355 610.441 150.432C611.011 150.5 611.554 150.732 612.068 151.134C612.582 151.545 613.113 152.114 613.66 152.846C614.367 153.814 614.987 154.456 615.527 154.764C616.062 155.081 616.631 155.132 617.239 154.918C617.753 154.721 618.117 154.379 618.335 153.891C618.549 153.411 618.515 152.786 618.232 152.024Z" fill="black" fill-opacity="0.81"/>
<path d="M622.375 160.051C622.692 160.915 622.744 161.737 622.53 162.516C622.324 163.291 621.9 163.98 621.262 164.588C620.633 165.205 619.811 165.693 618.797 166.061C617.791 166.425 616.845 166.583 615.954 166.54C615.064 166.506 614.281 166.253 613.609 165.787C612.945 165.329 612.453 164.665 612.136 163.8C611.815 162.931 611.759 162.105 611.965 161.318C612.179 160.539 612.615 159.845 613.266 159.229C613.925 158.612 614.76 158.124 615.766 157.756C616.781 157.392 617.727 157.238 618.608 157.294C619.486 157.354 620.256 157.615 620.92 158.081C621.579 158.539 622.067 159.194 622.375 160.051ZM621.314 160.444C621.074 159.794 620.697 159.314 620.184 159.006C619.679 158.689 619.079 158.527 618.386 158.527C617.701 158.518 616.969 158.655 616.194 158.938C615.428 159.22 614.777 159.588 614.242 160.033C613.703 160.479 613.335 160.984 613.129 161.557C612.932 162.127 612.958 162.743 613.198 163.407C613.437 164.057 613.814 164.537 614.328 164.845C614.85 165.153 615.462 165.307 616.16 165.307C616.853 165.307 617.585 165.162 618.352 164.879C619.126 164.592 619.777 164.22 620.304 163.766C620.839 163.321 621.198 162.812 621.382 162.242C621.575 161.682 621.554 161.082 621.314 160.444Z" fill="black" fill-opacity="0.81"/>
</g>
<mask id="mask45_176_6954" style="mask-type:luminance" maskUnits="userSpaceOnUse" x="601" y="196" width="29" height="24">
<path d="M629.347 196.267H601.95V219.28H629.347V196.267Z" fill="white"/>
</mask>
<g mask="url(#mask45_176_6954)">
<path d="M611.132 202.537C611.384 201.155 611.911 200.166 612.707 199.575C613.503 198.98 614.522 198.719 615.755 198.787L615.652 200.037C614.702 199.969 613.944 200.14 613.375 200.551C612.801 200.97 612.416 201.715 612.21 202.777C612.073 203.573 612.138 204.232 612.399 204.746C612.66 205.26 613.101 205.572 613.717 205.688C614.334 205.799 614.817 205.713 615.173 205.431C615.536 205.144 615.81 204.498 615.994 203.496L616.32 201.767L617.313 201.938L617.005 203.599C616.889 204.202 616.94 204.746 617.159 205.225C617.386 205.705 617.827 206 618.477 206.116C619.136 206.24 619.646 206.133 620.001 205.791C620.365 205.457 620.618 204.939 620.755 204.232C620.913 203.363 620.81 202.678 620.446 202.178C620.078 201.685 619.522 201.309 618.768 201.047L619.128 199.866C620.13 200.208 620.892 200.744 621.405 201.476C621.927 202.203 622.077 203.179 621.85 204.404C621.645 205.508 621.26 206.321 620.703 206.835C620.142 207.357 619.402 207.537 618.477 207.366C617.814 207.237 617.313 206.963 616.97 206.544C616.628 206.133 616.427 205.594 616.371 204.934H616.337C616.037 205.859 615.656 206.458 615.19 206.732C614.732 207.006 614.132 207.075 613.392 206.938C612.501 206.775 611.846 206.33 611.423 205.602C610.99 204.87 610.892 203.847 611.132 202.537Z" fill="black" fill-opacity="0.81"/>
<path d="M620.214 213.41C620.043 214.322 619.666 215.058 619.084 215.619C618.51 216.175 617.791 216.552 616.927 216.749C616.07 216.955 615.116 216.959 614.067 216.766C613.005 216.569 612.102 216.227 611.362 215.739C610.617 215.247 610.077 214.63 609.735 213.89C609.393 213.158 609.307 212.336 609.478 211.424C609.641 210.521 610.009 209.784 610.591 209.215C611.173 208.654 611.897 208.278 612.766 208.085C613.63 207.888 614.598 207.888 615.66 208.085C616.708 208.278 617.599 208.62 618.331 209.112C619.071 209.613 619.606 210.23 619.94 210.962C620.283 211.702 620.373 212.52 620.214 213.41ZM619.101 213.205C619.225 212.52 619.144 211.912 618.862 211.39C618.588 210.863 618.147 210.418 617.543 210.054C616.948 209.699 616.246 209.446 615.437 209.301C614.624 209.151 613.879 209.134 613.194 209.249C612.509 209.361 611.931 209.613 611.464 210.003C611.006 210.388 610.715 210.932 610.591 211.629C610.467 212.314 610.544 212.918 610.831 213.444C611.126 213.979 611.571 214.42 612.166 214.763C612.77 215.114 613.476 215.366 614.29 215.516C615.099 215.662 615.848 215.679 616.533 215.568C617.218 215.452 617.783 215.195 618.228 214.797C618.682 214.408 618.973 213.877 619.101 213.205Z" fill="black" fill-opacity="0.81"/>
</g>
<mask id="mask46_176_6954" style="mask-type:luminance" maskUnits="userSpaceOnUse" x="571" y="233" width="31" height="33">
<path d="M601.95 233.526H571.266V265.306H601.95V233.526Z" fill="white"/>
</mask>
<g mask="url(#mask46_176_6954)">
<path d="M585.573 244.097L587.148 246.169L592.233 242.282L592.901 243.139L592.131 252.351L591.001 253.224L586.84 247.779L585.521 248.789L584.854 247.933L586.172 246.923L584.597 244.851L585.573 244.097ZM587.816 247.025L591.12 251.34L591.155 251.323L591.703 243.995C591.369 244.269 591.043 244.534 590.71 244.8C590.367 245.073 590.05 245.322 589.751 245.553L587.816 247.025Z" fill="black" fill-opacity="0.81"/>
<path d="M586.267 257.055C585.535 257.611 584.764 257.911 583.955 257.945C583.159 257.979 582.375 257.778 581.609 257.346C580.834 256.922 580.119 256.284 579.469 255.428C578.818 254.58 578.386 253.724 578.167 252.859C577.941 251.99 577.945 251.169 578.185 250.394C578.424 249.615 578.912 248.947 579.64 248.39C580.385 247.83 581.16 247.534 581.969 247.5C582.782 247.466 583.574 247.671 584.349 248.116C585.124 248.562 585.839 249.204 586.489 250.051C587.14 250.907 587.568 251.764 587.773 252.62C587.987 253.484 587.97 254.302 587.722 255.068C587.482 255.83 586.994 256.494 586.267 257.055ZM585.582 256.164C586.138 255.74 586.493 255.24 586.643 254.657C586.789 254.075 586.755 253.45 586.541 252.791C586.335 252.14 585.984 251.481 585.496 250.822C584.991 250.171 584.452 249.649 583.869 249.264C583.287 248.887 582.696 248.686 582.089 248.664C581.472 248.652 580.886 248.861 580.325 249.298C579.777 249.717 579.435 250.223 579.298 250.805C579.161 251.395 579.203 252.025 579.417 252.688C579.623 253.347 579.978 254.007 580.479 254.657C580.971 255.317 581.515 255.83 582.106 256.198C582.688 256.562 583.279 256.751 583.869 256.763C584.473 256.772 585.042 256.575 585.582 256.164Z" fill="black" fill-opacity="0.81"/>
</g>
<mask id="mask47_176_6954" style="mask-type:luminance" maskUnits="userSpaceOnUse" x="527" y="252" width="22" height="26">
<path d="M548.253 252.156H527.432V277.361H548.253V252.156Z" fill="white"/>
</mask>
<g mask="url(#mask47_176_6954)">
<path d="M542.09 260.58C541.268 260.554 540.617 260.721 540.138 261.076C539.658 261.44 539.41 262.026 539.385 262.84C539.363 263.491 539.569 264.004 540.001 264.381C540.425 264.758 541.088 264.955 541.987 264.98C542.527 264.989 543.032 264.929 543.511 264.792C543.991 264.663 544.363 264.509 544.624 264.33L545.754 264.758L545.6 270.271L538.494 270.083L538.528 268.918L544.419 269.073L544.521 265.391C544.205 265.562 543.802 265.704 543.323 265.819C542.843 265.943 542.308 265.999 541.713 265.99C540.515 265.956 539.607 265.657 538.991 265.1C538.366 264.539 538.066 263.769 538.1 262.788C538.126 262.001 538.319 261.354 538.682 260.854C539.051 260.361 539.534 260.002 540.138 259.775C540.733 259.548 541.396 259.445 542.124 259.467C543.301 259.501 544.277 259.792 545.052 260.34C545.831 260.888 546.371 261.765 546.679 262.977L545.429 263.251C545.189 262.437 544.808 261.795 544.282 261.316C543.747 260.845 543.015 260.601 542.09 260.58Z" fill="black" fill-opacity="0.81"/>
<mask id="mask48_176_6954" style="mask-type:luminance" maskUnits="userSpaceOnUse" x="527" y="258" width="12" height="13">
<path d="M527.692 258.731H538.39V270.786H527.692V258.731Z" fill="white"/>
</mask>
<g mask="url(#mask48_176_6954)">
<path d="M532.775 270.103C531.851 270.078 531.071 269.829 530.429 269.35C529.779 268.87 529.291 268.22 528.957 267.398C528.627 266.576 528.477 265.626 528.512 264.556C528.537 263.481 528.734 262.539 529.111 261.73C529.479 260.917 529.997 260.283 530.669 259.83C531.345 259.384 532.142 259.175 533.066 259.196C533.991 259.23 534.779 259.487 535.429 259.967C536.08 260.455 536.572 261.114 536.902 261.936C537.223 262.766 537.373 263.721 537.347 264.795C537.313 265.865 537.107 266.803 536.731 267.603C536.354 268.412 535.832 269.033 535.155 269.47C534.483 269.915 533.691 270.125 532.775 270.103ZM532.809 268.973C533.507 268.995 534.094 268.823 534.573 268.46C535.053 268.104 535.425 267.603 535.686 266.953C535.939 266.311 536.076 265.583 536.097 264.761C536.123 263.939 536.024 263.194 535.806 262.535C535.592 261.872 535.254 261.341 534.796 260.943C534.342 260.553 533.76 260.348 533.049 260.326C532.356 260.313 531.765 260.489 531.286 260.857C530.806 261.221 530.442 261.73 530.19 262.381C529.941 263.032 529.804 263.768 529.779 264.59C529.757 265.412 529.86 266.148 530.087 266.799C530.305 267.458 530.643 267.984 531.097 268.374C531.555 268.759 532.125 268.96 532.809 268.973Z" fill="black" fill-opacity="0.81"/>
</g>
</g>
<mask id="mask49_176_6954" style="mask-type:luminance" maskUnits="userSpaceOnUse" x="473" y="233" width="32" height="33">
<path d="M504.419 233.526H473.734V265.306H504.419V233.526Z" fill="white"/>
</mask>
<g mask="url(#mask49_176_6954)">
<path d="M495.905 253.286L495.837 253.235C495.143 253.872 494.411 254.176 493.645 254.142C492.883 254.108 492.1 253.787 491.299 253.183C490.777 252.781 490.366 252.336 490.066 251.848C489.758 251.355 489.621 250.833 489.655 250.272C489.69 249.716 489.929 249.142 490.375 248.56C491.025 247.704 491.813 247.225 492.738 247.122C493.662 247.019 494.672 247.387 495.768 248.218C496.453 248.744 496.958 249.343 497.275 250.016C497.583 250.692 497.648 251.445 497.463 252.293C497.271 253.149 496.779 254.091 495.991 255.118C495.34 255.974 494.651 256.642 493.919 257.122C493.178 257.61 492.404 257.849 491.59 257.841C490.781 257.828 489.947 257.498 489.09 256.848C488.397 256.308 487.922 255.769 487.669 255.221C487.421 254.673 487.344 254.091 487.447 253.474C487.549 252.858 487.806 252.177 488.217 251.437L489.262 252.036C488.851 252.892 488.662 253.62 488.697 254.228C488.722 254.844 489.082 255.418 489.775 255.957C490.679 256.642 491.569 256.835 492.446 256.539C493.315 256.253 494.219 255.499 495.152 254.279L495.905 253.286ZM492.087 252.618C492.669 253.063 493.226 253.342 493.748 253.457C494.261 253.569 494.72 253.56 495.118 253.423C495.507 253.286 495.815 253.068 496.042 252.772C496.432 252.259 496.564 251.668 496.436 251.009C496.299 250.337 495.832 249.699 495.032 249.091C494.223 248.466 493.517 248.201 492.909 248.303C492.305 248.406 491.779 248.748 491.333 249.331C490.888 249.913 490.743 250.478 490.888 251.026C491.025 251.574 491.428 252.105 492.087 252.618Z" fill="black" fill-opacity="0.81"/>
<path d="M481.765 251.243C481.037 250.683 480.549 250.019 480.309 249.257C480.061 248.491 480.044 247.682 480.258 246.826C480.463 245.97 480.892 245.122 481.542 244.274C482.193 243.418 482.912 242.768 483.7 242.322C484.479 241.877 485.271 241.672 486.08 241.706C486.893 241.732 487.664 242.023 488.391 242.579C489.123 243.14 489.616 243.808 489.864 244.583C490.104 245.362 490.112 246.179 489.881 247.048C489.654 247.913 489.213 248.778 488.563 249.634C487.912 250.477 487.206 251.111 486.439 251.535C485.665 251.967 484.877 252.168 484.076 252.134C483.267 252.1 482.497 251.8 481.765 251.243ZM482.45 250.353C483.011 250.773 483.593 250.978 484.196 250.97C484.791 250.957 485.378 250.768 485.96 250.404C486.542 250.036 487.081 249.531 487.569 248.881C488.075 248.217 488.434 247.554 488.648 246.894C488.867 246.231 488.905 245.61 488.768 245.028C488.623 244.437 488.267 243.923 487.706 243.487C487.159 243.067 486.585 242.866 485.977 242.888C485.361 242.9 484.761 243.102 484.179 243.487C483.597 243.864 483.058 244.386 482.552 245.045C482.064 245.696 481.713 246.346 481.508 246.997C481.303 247.656 481.277 248.281 481.422 248.863C481.559 249.446 481.902 249.942 482.45 250.353Z" fill="black" fill-opacity="0.81"/>
</g>
<mask id="mask50_176_6954" style="mask-type:luminance" maskUnits="userSpaceOnUse" x="444" y="196" width="30" height="26">
<path d="M473.735 196.267H444.146V221.472H473.735V196.267Z" fill="white"/>
</mask>
<g mask="url(#mask50_176_6954)">
<path d="M456.119 214.125L457.455 218.303L456.342 218.646L453.739 210.478L454.852 210.136C456.543 211.005 458.251 211.523 459.972 211.694C461.697 211.857 463.397 211.745 465.075 211.369L465.486 212.67C464.381 212.91 463.238 213.038 462.061 213.047C460.875 213.047 459.694 212.918 458.517 212.653C457.344 212.379 456.231 211.964 455.178 211.403C455.34 211.839 455.503 212.289 455.674 212.756C455.837 213.214 455.982 213.672 456.119 214.125Z" fill="black" fill-opacity="0.81"/>
<path d="M452.205 206.303C451.932 205.426 451.923 204.604 452.171 203.838C452.411 203.076 452.865 202.399 453.524 201.817C454.187 201.226 455.031 200.768 456.058 200.447C457.077 200.118 458.027 199.998 458.918 200.088C459.799 200.182 460.561 200.473 461.212 200.961C461.863 201.44 462.325 202.121 462.599 202.999C462.886 203.889 462.907 204.724 462.668 205.499C462.419 206.265 461.957 206.937 461.281 207.519C460.596 208.088 459.748 208.538 458.729 208.872C457.702 209.189 456.756 209.304 455.887 209.214C455.009 209.12 454.243 208.829 453.592 208.341C452.942 207.862 452.479 207.185 452.205 206.303ZM453.284 205.961C453.503 206.624 453.862 207.125 454.363 207.468C454.855 207.797 455.45 207.981 456.144 208.016C456.829 208.05 457.565 207.939 458.353 207.69C459.132 207.442 459.799 207.104 460.356 206.68C460.917 206.261 461.311 205.768 461.537 205.207C461.756 204.638 461.756 204.017 461.537 203.341C461.332 202.682 460.981 202.185 460.476 201.851C459.962 201.522 459.359 201.346 458.661 201.321C457.954 201.299 457.214 201.415 456.435 201.663C455.647 201.916 454.979 202.254 454.431 202.673C453.884 203.097 453.507 203.589 453.301 204.146C453.087 204.707 453.079 205.31 453.284 205.961Z" fill="black" fill-opacity="0.81"/>
</g>
<mask id="mask51_176_6954" style="mask-type:luminance" maskUnits="userSpaceOnUse" x="444" y="143" width="31" height="29">
<path d="M474.831 143.667H444.146V171.063H474.831V143.667Z" fill="white"/>
</mask>
<g mask="url(#mask51_176_6954)">
<path d="M462.445 164.052C461.885 165.482 461.247 166.406 460.528 166.826C459.8 167.237 459.029 167.288 458.216 166.98C457.634 166.753 457.189 166.364 456.881 165.816C456.572 165.268 456.521 164.523 456.726 163.573L456.709 163.555C456.298 164.129 455.827 164.51 455.288 164.703C454.753 164.887 454.167 164.857 453.524 164.617C452.762 164.309 452.249 163.787 451.983 163.042C451.709 162.288 451.808 161.312 452.274 160.114C452.745 158.907 453.332 158.11 454.038 157.734C454.736 157.357 455.468 157.318 456.23 157.614C456.872 157.854 457.326 158.226 457.6 158.727C457.874 159.232 457.968 159.831 457.874 160.525L457.891 160.542C458.383 159.711 458.931 159.189 459.535 158.984C460.13 158.778 460.716 158.791 461.298 159.018C462.107 159.326 462.638 159.887 462.891 160.696C463.139 161.496 462.993 162.614 462.445 164.052ZM457.771 162.237C457.476 162.982 457.343 163.59 457.377 164.069C457.411 164.549 457.54 164.921 457.754 165.182C457.972 165.435 458.229 165.619 458.524 165.73C459.098 165.948 459.629 165.893 460.117 165.559C460.609 165.229 461.033 164.591 461.401 163.641C461.765 162.682 461.88 161.92 461.743 161.347C461.606 160.764 461.251 160.366 460.682 160.148C460.386 160.037 460.074 160.002 459.74 160.045C459.41 160.092 459.072 160.281 458.73 160.61C458.379 160.944 458.058 161.484 457.771 162.237ZM453.336 160.525C453.019 161.359 452.951 162.023 453.131 162.511C453.315 163.003 453.67 163.35 454.192 163.555C454.834 163.795 455.382 163.752 455.836 163.418C456.294 163.089 456.654 162.588 456.915 161.912C457.18 161.227 457.253 160.606 457.137 160.045C457.026 159.489 456.649 159.086 456.007 158.847C455.485 158.641 454.993 158.658 454.535 158.898C454.068 159.129 453.67 159.669 453.336 160.525Z" fill="black" fill-opacity="0.81"/>
<path d="M455.662 151.348C455.996 150.492 456.496 149.841 457.168 149.396C457.845 148.942 458.62 148.694 459.497 148.66C460.379 148.625 461.321 148.805 462.322 149.19C463.328 149.58 464.146 150.081 464.788 150.697C465.426 151.314 465.841 152.024 466.038 152.82C466.231 153.608 466.162 154.43 465.833 155.286C465.499 156.155 464.998 156.81 464.326 157.255C463.654 157.7 462.87 157.94 461.98 157.974C461.09 158 460.144 157.816 459.138 157.427C458.136 157.041 457.318 156.536 456.689 155.92C456.064 155.295 455.653 154.593 455.456 153.814C455.264 153.026 455.332 152.204 455.662 151.348ZM456.723 151.759C456.475 152.41 456.441 153.022 456.621 153.591C456.792 154.152 457.143 154.665 457.665 155.132C458.179 155.59 458.821 155.967 459.583 156.262C460.349 156.562 461.081 156.72 461.775 156.742C462.472 156.754 463.089 156.613 463.624 156.314C464.146 156.018 464.536 155.539 464.788 154.875C465.036 154.225 465.066 153.617 464.874 153.043C464.69 152.474 464.334 151.96 463.812 151.502C463.29 151.048 462.644 150.672 461.877 150.372C461.115 150.077 460.383 149.922 459.686 149.91C458.992 149.901 458.384 150.047 457.871 150.355C457.357 150.654 456.976 151.121 456.723 151.759Z" fill="black" fill-opacity="0.81"/>
</g>
<mask id="mask52_176_6954" style="mask-type:luminance" maskUnits="userSpaceOnUse" x="473" y="99" width="32" height="33">
<path d="M504.419 99.8301H473.734V131.61H504.419V99.8301Z" fill="white"/>
</mask>
<g mask="url(#mask52_176_6954)">
<path d="M486.583 115.117L486.515 115.168C486.891 115.99 486.947 116.756 486.686 117.463C486.421 118.16 485.873 118.798 485.042 119.38C484.503 119.757 483.959 120.023 483.398 120.168C482.842 120.305 482.303 120.284 481.789 120.1C481.267 119.907 480.791 119.513 480.368 118.918C479.751 118.041 479.542 117.15 479.734 116.247C479.931 115.335 480.573 114.492 481.669 113.713C482.38 113.212 483.103 112.908 483.844 112.805C484.584 112.703 485.333 112.869 486.087 113.302C486.84 113.726 487.594 114.466 488.347 115.528C488.963 116.397 489.391 117.257 489.631 118.113C489.879 118.969 489.888 119.783 489.648 120.545C489.409 121.298 488.865 121.979 488.022 122.582C486.96 123.327 485.971 123.653 485.059 123.558C484.143 123.456 483.24 122.989 482.337 122.154L483.193 121.247C483.891 121.889 484.571 122.249 485.248 122.326C485.92 122.407 486.626 122.184 487.371 121.658C488.236 121.041 488.659 120.279 488.638 119.363C488.625 118.452 488.176 117.368 487.285 116.11L486.583 115.117ZM484.717 118.473C485.32 118.053 485.761 117.612 486.035 117.154C486.309 116.701 486.438 116.264 486.429 115.853C486.416 115.442 486.309 115.095 486.104 114.809C485.736 114.286 485.213 113.987 484.529 113.918C483.844 113.841 483.099 114.085 482.285 114.655C481.455 115.25 480.997 115.845 480.916 116.435C480.839 117.03 481.01 117.63 481.429 118.233C481.84 118.815 482.333 119.119 482.902 119.141C483.463 119.166 484.066 118.944 484.717 118.473Z" fill="black" fill-opacity="0.81"/>
<path d="M489.432 108.229C490.186 107.694 490.965 107.433 491.761 107.441C492.57 107.441 493.353 107.672 494.107 108.126C494.869 108.584 495.562 109.248 496.179 110.112C496.795 110.994 497.193 111.872 497.377 112.749C497.57 113.618 497.531 114.436 497.257 115.198C496.984 115.964 496.47 116.615 495.716 117.15C494.963 117.689 494.18 117.955 493.371 117.955C492.557 117.946 491.778 117.706 491.025 117.235C490.263 116.769 489.569 116.097 488.953 115.215C488.336 114.35 487.943 113.481 487.771 112.612C487.592 111.748 487.634 110.93 487.908 110.164C488.182 109.402 488.692 108.755 489.432 108.229ZM490.083 109.153C489.514 109.556 489.15 110.04 488.987 110.609C488.816 111.182 488.824 111.807 489.004 112.492C489.176 113.169 489.501 113.837 489.98 114.496C490.451 115.172 490.973 115.707 491.556 116.105C492.125 116.508 492.707 116.73 493.302 116.773C493.906 116.82 494.492 116.636 495.066 116.225C495.635 115.827 495.999 115.335 496.162 114.753C496.333 114.162 496.32 113.533 496.127 112.869C495.943 112.197 495.618 111.525 495.151 110.849C494.672 110.189 494.145 109.659 493.576 109.256C493.002 108.858 492.416 108.64 491.812 108.605C491.222 108.571 490.644 108.755 490.083 109.153Z" fill="black" fill-opacity="0.81"/>
</g>
<rect x="42.165" y="268.621" width="210.22" height="61.5279" rx="3.45222" fill="white"/>
<rect x="42.165" y="268.621" width="210.22" height="61.5279" rx="3.45222" stroke="#DEE9F8" stroke-width="1.70911"/>
<mask id="mask53_176_6954" style="mask-type:luminance" maskUnits="userSpaceOnUse" x="97" y="285" width="101" height="20">
<path d="M97.5986 285.712H197.581V304.305H97.5986V285.712Z" fill="white"/>
</mask>
<g mask="url(#mask53_176_6954)">
<path d="M102.5 303.508C101.528 303.508 100.672 303.294 99.9346 302.871C99.1974 302.432 98.6247 301.835 98.2162 301.068C97.8028 300.291 97.5986 299.394 97.5986 298.383C97.5986 297.168 97.9025 296.102 98.5001 295.186C99.1178 294.274 99.9844 293.567 101.105 293.079C102.236 292.586 103.561 292.342 105.08 292.342C105.777 292.342 106.345 292.386 106.778 292.481V292.053C106.778 291.012 106.589 290.245 106.205 289.737C105.822 289.219 105.244 288.96 104.462 288.96C103.207 288.96 102.4 289.622 102.046 290.947C101.937 291.33 101.713 291.49 101.369 291.44L98.5848 290.947C98.3806 290.907 98.2362 290.817 98.1515 290.678C98.0867 290.543 98.0768 290.359 98.1316 290.125C98.4902 288.731 99.2373 287.655 100.388 286.888C101.548 286.111 103.003 285.722 104.751 285.722C106.828 285.722 108.407 286.28 109.483 287.401C110.578 288.521 111.126 290.155 111.126 292.297V302.607C111.126 302.756 111.071 302.886 110.962 302.995C110.862 303.09 110.743 303.14 110.593 303.14H107.929C107.6 303.14 107.396 302.96 107.311 302.607L106.903 300.679H106.738C106.37 301.581 105.817 302.278 105.08 302.771C104.357 303.259 103.496 303.508 102.5 303.508ZM102.066 297.89C102.066 298.617 102.251 299.195 102.619 299.633C103.003 300.057 103.516 300.271 104.158 300.271C105.005 300.271 105.652 299.892 106.106 299.14C106.554 298.378 106.778 297.282 106.778 295.863V294.777C106.4 294.707 106.036 294.677 105.692 294.677C104.572 294.677 103.685 294.966 103.033 295.554C102.39 296.132 102.066 296.909 102.066 297.89ZM113.666 286.624C113.666 286.474 113.711 286.35 113.806 286.255C113.915 286.146 114.045 286.091 114.199 286.091H116.904C117.053 286.091 117.178 286.136 117.272 286.235C117.382 286.33 117.447 286.459 117.477 286.624L117.885 288.631H118.049C118.418 287.69 118.946 286.972 119.628 286.479C120.326 285.971 121.142 285.722 122.089 285.722C123.1 285.722 123.967 285.986 124.689 286.519C125.426 287.052 125.994 287.809 126.387 288.795H126.552C127.154 287.754 127.832 286.982 128.584 286.479C129.336 285.971 130.173 285.722 131.104 285.722C132.115 285.722 132.987 285.996 133.724 286.539C134.476 287.087 135.049 287.864 135.447 288.875C135.841 289.886 136.04 291.081 136.04 292.461V302.607C136.04 302.756 135.985 302.886 135.875 302.995C135.781 303.09 135.656 303.14 135.507 303.14H132.23C132.08 303.14 131.951 303.09 131.841 302.995C131.746 302.886 131.697 302.756 131.697 302.607V292.79C131.697 291.794 131.507 291.027 131.124 290.494C130.74 289.961 130.187 289.697 129.465 289.697C128.673 289.697 128.061 290.011 127.637 290.638C127.229 291.266 127.025 292.177 127.025 293.363V302.607C127.025 302.756 126.97 302.886 126.86 302.995C126.766 303.09 126.641 303.14 126.492 303.14H123.214C123.065 303.14 122.936 303.09 122.826 302.995C122.726 302.886 122.682 302.756 122.682 302.607V292.79C122.682 291.794 122.487 291.027 122.109 290.494C121.725 289.961 121.172 289.697 120.445 289.697C119.653 289.697 119.046 290.011 118.622 290.638C118.214 291.266 118.01 292.177 118.01 293.363V302.607C118.01 302.756 117.955 302.886 117.845 302.995C117.751 303.09 117.626 303.14 117.477 303.14H114.199C114.045 303.14 113.915 303.09 113.806 302.995C113.711 302.886 113.666 302.756 113.666 302.607V286.624ZM138.172 298.383C138.172 297.168 138.47 296.102 139.073 295.186C139.686 294.274 140.557 293.567 141.678 293.079C142.809 292.586 144.133 292.342 145.653 292.342C146.35 292.342 146.913 292.386 147.351 292.481V292.053C147.351 291.012 147.162 290.245 146.778 289.737C146.395 289.219 145.817 288.96 145.035 288.96C143.78 288.96 142.973 289.622 142.619 290.947C142.51 291.33 142.286 291.49 141.942 291.44L139.158 290.947C138.949 290.907 138.809 290.817 138.724 290.678C138.655 290.543 138.65 290.359 138.704 290.125C139.058 288.731 139.81 287.655 140.961 286.888C142.121 286.111 143.576 285.722 145.324 285.722C147.401 285.722 148.98 286.28 150.056 287.401C151.151 288.521 151.694 290.155 151.694 292.297V302.607C151.694 302.756 151.639 302.886 151.53 302.995C151.435 303.09 151.316 303.14 151.161 303.14H148.502C148.173 303.14 147.969 302.96 147.884 302.607L147.476 300.679H147.311C146.943 301.581 146.39 302.278 145.653 302.771C144.925 303.259 144.069 303.508 143.068 303.508C142.071 303.508 141.245 303.294 140.507 302.871C139.77 302.432 139.198 301.835 138.784 301.068C138.376 300.291 138.172 299.394 138.172 298.383ZM142.639 297.89C142.639 298.617 142.824 299.195 143.192 299.633C143.576 300.057 144.089 300.271 144.731 300.271C145.578 300.271 146.225 299.892 146.674 299.14C147.127 298.378 147.351 297.282 147.351 295.863V294.777C146.967 294.707 146.609 294.677 146.265 294.677C145.145 294.677 144.258 294.966 143.601 295.554C142.958 296.132 142.639 296.909 142.639 297.89ZM153.911 300.126C153.911 299.828 153.99 299.564 154.155 299.349L161.163 289.532H154.603C154.453 289.532 154.324 289.483 154.214 289.388C154.12 289.278 154.075 289.149 154.075 288.999V286.624C154.075 286.474 154.12 286.35 154.214 286.255C154.324 286.146 154.453 286.091 154.603 286.091H165.381C165.536 286.091 165.655 286.146 165.755 286.255C165.859 286.35 165.914 286.474 165.914 286.624V289.104C165.914 289.403 165.834 289.662 165.67 289.881L159.32 298.607C159.703 298.543 160.092 298.508 160.485 298.508C161.471 298.508 162.373 298.597 163.19 298.772C164.026 298.936 164.883 299.21 165.775 299.593C166.088 299.728 166.243 299.962 166.243 300.291V302.647C166.243 302.866 166.178 303.015 166.039 303.095C165.904 303.165 165.73 303.16 165.526 303.075C164.505 302.691 163.593 302.427 162.801 302.278C162.024 302.114 161.167 302.029 160.241 302.029C159.31 302.029 158.423 302.114 157.537 302.278C156.66 302.442 155.694 302.706 154.628 303.075C154.419 303.145 154.249 303.145 154.115 303.075C153.975 302.995 153.911 302.851 153.911 302.647V300.126ZM167.144 294.613C167.144 292.949 167.468 291.44 168.111 290.085C168.753 288.721 169.63 287.655 170.75 286.888C171.886 286.111 173.141 285.722 174.521 285.722C175.9 285.722 177.171 286.111 178.291 286.888C179.427 287.655 180.313 288.721 180.956 290.085C181.613 291.44 181.942 292.949 181.942 294.613C181.942 296.281 181.613 297.795 180.956 299.16C180.313 300.515 179.427 301.581 178.291 302.358C177.171 303.125 175.915 303.508 174.521 303.508C173.131 303.508 171.886 303.125 170.75 302.358C169.63 301.581 168.753 300.515 168.111 299.16C167.468 297.795 167.144 296.281 167.144 294.613ZM171.652 294.613C171.652 296.351 171.901 297.686 172.389 298.632C172.882 299.559 173.594 300.022 174.521 300.022C175.452 300.022 176.169 299.559 176.672 298.632C177.18 297.686 177.435 296.351 177.435 294.613C177.435 292.879 177.18 291.545 176.672 290.618C176.169 289.677 175.452 289.204 174.521 289.204C173.594 289.204 172.882 289.677 172.389 290.618C171.901 291.545 171.652 292.879 171.652 294.613ZM184.153 286.624C184.153 286.474 184.203 286.35 184.298 286.255C184.408 286.146 184.537 286.091 184.686 286.091H187.391C187.54 286.091 187.665 286.136 187.76 286.235C187.869 286.33 187.939 286.459 187.964 286.624L188.372 288.631H188.537C188.905 287.7 189.448 286.982 190.155 286.479C190.882 285.971 191.729 285.722 192.695 285.722C193.736 285.722 194.633 285.996 195.38 286.539C196.147 287.087 196.735 287.864 197.143 288.875C197.552 289.886 197.761 291.081 197.761 292.461V302.607C197.761 302.756 197.706 302.886 197.596 302.995C197.502 303.09 197.377 303.14 197.228 303.14H193.946C193.796 303.14 193.667 303.09 193.557 302.995C193.462 302.886 193.413 302.756 193.413 302.607V292.79C193.413 291.794 193.208 291.027 192.8 290.494C192.392 289.961 191.809 289.697 191.057 289.697C190.225 289.697 189.592 290.011 189.154 290.638C188.716 291.266 188.497 292.177 188.497 293.363V302.607C188.497 302.756 188.442 302.886 188.332 302.995C188.238 303.09 188.113 303.14 187.964 303.14H184.686C184.537 303.14 184.408 303.09 184.298 302.995C184.203 302.886 184.153 302.756 184.153 302.607V286.624Z" fill="#0A2540"/>
</g>
<mask id="mask54_176_6954" style="mask-type:luminance" maskUnits="userSpaceOnUse" x="107" y="304" width="53" height="16">
<path d="M107.659 304.304H159.937V319.326H107.659V304.304Z" fill="white"/>
</mask>
<g mask="url(#mask54_176_6954)">
<path d="M108.995 305.494C108.736 305.698 108.682 306.037 108.831 306.515C108.966 306.938 109.289 307.466 109.792 308.094C111.829 310.609 114.255 312.696 117.069 314.365C119.883 316.033 122.892 317.258 126.104 318.055C129.327 318.857 132.619 319.261 135.981 319.261C140.284 319.261 144.383 318.633 148.273 317.378C152.168 316.133 155.421 314.385 158.031 312.133C158.942 311.326 159.4 310.684 159.4 310.206C159.4 310.026 159.326 309.852 159.176 309.673C158.972 309.469 158.728 309.399 158.439 309.469C158.15 309.533 157.747 309.708 157.229 309.982C154.728 311.292 151.685 312.338 148.089 313.115C144.513 313.906 140.777 314.305 136.882 314.305C132.061 314.305 127.404 313.647 122.907 312.338C118.414 311.023 114.429 308.976 110.963 306.191C110.455 305.793 110.046 305.539 109.733 305.429C109.434 305.32 109.185 305.34 108.995 305.494Z" fill="#0A2540"/>
</g>
<path d="M154.526 306.521C154.237 306.79 154.162 307.079 154.302 307.378C154.396 307.597 154.58 307.721 154.854 307.746C155.128 307.791 155.517 307.761 156.02 307.667C156.842 307.487 157.693 307.368 158.585 307.298C159.471 307.243 160.243 307.258 160.896 307.338C161.553 307.432 161.962 307.597 162.126 307.831C162.375 308.2 162.286 308.976 161.862 310.167C161.454 311.352 160.891 312.508 160.179 313.628C159.91 314.082 159.745 314.435 159.691 314.694C159.636 314.953 159.701 315.173 159.895 315.352C160.019 315.471 160.154 315.536 160.303 315.536C160.702 315.536 161.275 315.187 162.027 314.49C163.376 313.315 164.328 311.92 164.876 310.311C165.174 309.475 165.359 308.603 165.428 307.686C165.493 306.77 165.394 306.118 165.12 305.719C164.861 305.336 164.288 305.022 163.396 304.778C162.525 304.534 161.643 304.409 160.757 304.409C159.018 304.409 157.375 304.818 155.816 305.639C155.243 305.953 154.815 306.247 154.526 306.521Z" fill="#0A2540"/>
<rect x="824.081" y="268.621" width="210.22" height="61.5279" rx="3.45222" fill="white"/>
<rect x="824.081" y="268.621" width="210.22" height="61.5279" rx="3.45222" stroke="#DEE9F8" stroke-width="1.70911"/>
<path d="M856.554 290.031C856.978 291.682 858.407 293.369 860.368 293.792H866.295L866.598 293.911V308.868H870.299V293.911L870.635 293.792H876.568C878.551 293.281 879.95 291.682 880.366 290.031V289.994H856.554V290.031Z" fill="#0A2540"/>
<path d="M893.187 308.911H907.268C909.227 308.521 910.683 306.795 911.091 305.125H889.364C889.769 306.796 891.247 308.521 893.187 308.911Z" fill="#0A2540"/>
<path d="M893.187 301.239H907.268C909.227 300.853 910.683 299.126 911.091 297.453H889.364C889.769 299.127 891.247 300.853 893.187 301.239Z" fill="#0A2540"/>
<path d="M893.187 293.772H907.268C909.227 293.382 910.683 291.657 911.091 289.985H889.364C889.769 291.657 891.247 293.382 893.187 293.772Z" fill="#0A2540"/>
<path d="M925.302 293.736H938.31C940.271 293.167 941.918 291.673 942.32 290.016H921.655V301.18H938.568V305.098L925.302 305.108C923.223 305.688 921.46 307.084 920.58 308.928L921.655 308.908H942.202V297.468H925.302V293.736Z" fill="#0A2540"/>
<path d="M969.572 308.913C971.419 308.13 972.413 306.775 972.793 305.19H956.363L956.373 290.011L952.69 290.021V308.913H969.572Z" fill="#0A2540"/>
<path d="M983.922 293.787H998.008C999.964 293.399 1001.42 291.672 1001.83 290.002H980.101C980.507 291.673 981.983 293.399 983.922 293.787Z" fill="#0A2540"/>
<path d="M980.667 297.482V308.905H984.33V301.3H997.662V308.905H1001.32V297.502L980.667 297.482Z" fill="#0A2540"/>
<rect x="117.365" y="159.238" width="210.22" height="61.5279" rx="3.45222" fill="white"/>
<rect x="117.365" y="159.238" width="210.22" height="61.5279" rx="3.45222" stroke="#DEE9F8" stroke-width="1.70911"/>
<mask id="mask55_176_6954" style="mask-type:luminance" maskUnits="userSpaceOnUse" x="168" y="180" width="27" height="26">
<path d="M168.622 180.75H194.168V205.274H168.622V180.75Z" fill="white"/>
</mask>
<g mask="url(#mask55_176_6954)">
<mask id="mask56_176_6954" style="mask-type:luminance" maskUnits="userSpaceOnUse" x="163" y="174" width="119" height="32">
<path d="M164.123 174.879L281.533 175.586L281.354 205.35L163.943 204.644L164.123 174.879Z" fill="white"/>
</mask>
<g mask="url(#mask56_176_6954)">
<mask id="mask57_176_6954" style="mask-type:luminance" maskUnits="userSpaceOnUse" x="163" y="174" width="119" height="32">
<path d="M164.123 174.879L281.533 175.586L281.354 205.35L163.943 204.644L164.123 174.879Z" fill="white"/>
</mask>
<g mask="url(#mask57_176_6954)">
<mask id="mask58_176_6954" style="mask-type:luminance" maskUnits="userSpaceOnUse" x="168" y="181" width="27" height="25">
<path d="M192.15 182.655L191.507 181.529C191.327 181.202 190.928 181.09 190.601 181.27C190.565 181.306 190.493 181.342 190.457 181.378L188.96 182.854C188.741 183.07 188.705 183.433 188.884 183.685C189.423 184.523 189.85 185.429 190.17 186.375C192.201 192.51 188.865 199.12 182.73 201.147C181.532 201.539 180.263 201.75 178.994 201.742C177.074 201.73 175.194 201.247 173.529 200.333L176.084 197.811C180.383 199.467 185.216 197.324 186.873 193.021C187.679 190.889 187.587 188.498 186.621 186.427C186.478 186.099 186.078 185.952 185.715 186.095C185.643 186.131 185.572 186.167 185.536 186.239L184.003 187.716C183.823 187.896 183.783 188.111 183.819 188.331L183.963 188.874C184.562 191.56 182.877 194.266 180.195 194.865C178.962 195.148 177.656 194.957 176.575 194.298L175.924 193.899C175.673 193.751 175.345 193.783 175.126 194.003L168.931 200.122C168.675 200.373 168.671 200.808 168.927 201.064C168.963 201.1 168.963 201.1 168.999 201.139L169.897 201.83C172.459 203.95 175.677 205.055 178.974 205.075C187.268 205.123 194.049 198.425 194.097 190.095C194.113 187.485 193.439 184.946 192.15 182.655Z" fill="white"/>
</mask>
<g mask="url(#mask58_176_6954)">
<path d="M168.675 180.938L168.527 205.123L194.113 205.279L194.257 181.09L168.675 180.938Z" fill="#0A2540"/>
</g>
</g>
</g>
</g>
<mask id="mask59_176_6954" style="mask-type:luminance" maskUnits="userSpaceOnUse" x="163" y="174" width="28" height="26">
<path d="M163.511 174.62H190.078V199.144H163.511V174.62Z" fill="white"/>
</mask>
<g mask="url(#mask59_176_6954)">
<mask id="mask60_176_6954" style="mask-type:luminance" maskUnits="userSpaceOnUse" x="163" y="174" width="119" height="32">
<path d="M164.123 174.879L281.533 175.586L281.354 205.35L163.943 204.644L164.123 174.879Z" fill="white"/>
</mask>
<g mask="url(#mask60_176_6954)">
<mask id="mask61_176_6954" style="mask-type:luminance" maskUnits="userSpaceOnUse" x="163" y="174" width="119" height="32">
<path d="M164.123 174.879L281.533 175.586L281.354 205.35L163.943 204.644L164.123 174.879Z" fill="white"/>
</mask>
<g mask="url(#mask61_176_6954)">
<mask id="mask62_176_6954" style="mask-type:luminance" maskUnits="userSpaceOnUse" x="164" y="175" width="26" height="24">
<path d="M188.266 178.175C185.668 176.132 182.45 175.022 179.153 175.002C170.859 174.954 164.077 181.652 164.03 189.986C164.014 192.593 164.684 195.167 165.942 197.422L166.584 198.548C166.764 198.875 167.163 198.987 167.49 198.807C167.526 198.771 167.598 198.735 167.634 198.7L169.131 197.223C169.35 197.007 169.386 196.648 169.207 196.392C168.668 195.554 168.241 194.648 167.917 193.702C165.89 187.567 169.227 180.957 175.361 178.93C176.559 178.538 177.828 178.327 179.098 178.335C181.017 178.347 182.897 178.83 184.558 179.748L182.007 182.267C177.708 180.61 172.875 182.753 171.218 187.056C170.851 187.994 170.663 189.008 170.659 190.022C170.659 190.17 170.691 190.784 170.687 190.892C170.791 191.838 171.039 192.78 171.47 193.65C171.613 193.978 172.009 194.125 172.372 193.982C172.448 193.946 172.52 193.91 172.555 193.838L174.088 192.325C174.268 192.146 174.308 191.93 174.272 191.71L174.164 191.168C173.565 188.485 175.25 185.775 177.932 185.176C179.165 184.893 180.471 185.085 181.552 185.743L182.203 186.146C182.454 186.29 182.782 186.258 183.001 186.042L189.196 179.92C189.452 179.668 189.456 179.233 189.2 178.978C189.164 178.942 189.164 178.942 189.128 178.906L188.266 178.175Z" fill="white"/>
</mask>
<g mask="url(#mask62_176_6954)">
<path d="M164.014 174.803L163.87 198.987L189.452 199.143L189.599 174.954L164.014 174.803Z" fill="#0A2540"/>
</g>
</g>
</g>
</g>
<mask id="mask63_176_6954" style="mask-type:luminance" maskUnits="userSpaceOnUse" x="200" y="181" width="16" height="19">
<path d="M200.297 181.774H215.624V199.145H200.297V181.774Z" fill="white"/>
</mask>
<g mask="url(#mask63_176_6954)">
<mask id="mask64_176_6954" style="mask-type:luminance" maskUnits="userSpaceOnUse" x="163" y="174" width="119" height="32">
<path d="M164.123 174.88L281.533 175.587L281.354 205.352L163.943 204.645L164.123 174.88Z" fill="white"/>
</mask>
<g mask="url(#mask64_176_6954)">
<mask id="mask65_176_6954" style="mask-type:luminance" maskUnits="userSpaceOnUse" x="163" y="174" width="119" height="32">
<path d="M164.123 174.881L281.533 175.587L281.354 205.352L163.943 204.646L164.123 174.881Z" fill="white"/>
</mask>
<g mask="url(#mask65_176_6954)">
<path d="M213.492 194.415C213.277 194.231 212.914 194.231 212.694 194.447C211.712 195.201 210.583 195.884 208.954 195.872C205.948 195.856 203.534 193.305 203.553 190.224C203.573 187.146 206.016 184.588 209.022 184.604C210.327 184.612 211.7 185.167 212.746 186.077C212.854 186.224 213.033 186.296 213.213 186.296C213.361 186.296 213.504 186.188 213.612 186.081L214.598 185.075C214.706 184.967 214.782 184.783 214.782 184.604C214.782 184.424 214.71 184.276 214.566 184.133C212.874 182.636 211.173 181.973 209.038 181.961C204.472 181.933 200.72 185.642 200.692 190.244C200.664 194.806 204.336 198.562 208.938 198.59C211.038 198.638 213.037 197.816 214.53 196.379C214.678 196.231 214.75 196.051 214.714 195.872C214.714 195.724 214.642 195.58 214.534 195.473L213.492 194.415Z" fill="#0A2540"/>
</g>
</g>
</g>
<mask id="mask66_176_6954" style="mask-type:luminance" maskUnits="userSpaceOnUse" x="217" y="181" width="5" height="19">
<path d="M217.667 181.773H221.754V199.144H217.667V181.773Z" fill="white"/>
</mask>
<g mask="url(#mask66_176_6954)">
<mask id="mask67_176_6954" style="mask-type:luminance" maskUnits="userSpaceOnUse" x="163" y="174" width="119" height="32">
<path d="M164.123 174.88L281.533 175.587L281.354 205.352L163.943 204.645L164.123 174.88Z" fill="white"/>
</mask>
<g mask="url(#mask67_176_6954)">
<mask id="mask68_176_6954" style="mask-type:luminance" maskUnits="userSpaceOnUse" x="163" y="174" width="119" height="32">
<path d="M164.123 174.881L281.533 175.587L281.354 205.352L163.943 204.645L164.123 174.881Z" fill="white"/>
</mask>
<g mask="url(#mask68_176_6954)">
<path d="M220.666 182.213L219.181 182.201C218.854 182.201 218.563 182.489 218.563 182.816L218.471 197.74C218.471 198.067 218.758 198.359 219.085 198.363L220.57 198.371C220.894 198.371 221.189 198.083 221.189 197.756L221.281 182.832C221.281 182.505 221.029 182.213 220.666 182.213Z" fill="#0A2540"/>
</g>
</g>
</g>
<mask id="mask69_176_6954" style="mask-type:luminance" maskUnits="userSpaceOnUse" x="225" y="181" width="15" height="19">
<path d="M225.843 181.774H239.127V199.145H225.843V181.774Z" fill="white"/>
</mask>
<g mask="url(#mask69_176_6954)">
<mask id="mask70_176_6954" style="mask-type:luminance" maskUnits="userSpaceOnUse" x="163" y="174" width="119" height="32">
<path d="M164.123 174.88L281.533 175.587L281.354 205.352L163.943 204.645L164.123 174.88Z" fill="white"/>
</mask>
<g mask="url(#mask70_176_6954)">
<mask id="mask71_176_6954" style="mask-type:luminance" maskUnits="userSpaceOnUse" x="163" y="174" width="119" height="32">
<path d="M164.123 174.881L281.533 175.587L281.354 205.352L163.943 204.646L164.123 174.881Z" fill="white"/>
</mask>
<g mask="url(#mask71_176_6954)">
<path d="M238.133 187.354C238.153 184.6 235.882 182.305 233.091 182.285L227.008 182.249C226.645 182.249 226.39 182.536 226.386 182.864L226.298 197.788C226.294 198.151 226.581 198.407 226.909 198.407L228.358 198.415C228.685 198.419 228.976 198.131 228.976 197.804L229.012 192.26L232.054 192.28L234.955 198.167C235.059 198.347 235.279 198.494 235.494 198.494L237.235 198.506C237.45 198.506 237.67 198.399 237.777 198.219C237.889 198.004 237.889 197.784 237.781 197.568L234.848 192.008C236.879 191.114 238.121 189.346 238.133 187.354ZM235.383 187.374C235.371 188.787 234.205 189.973 232.828 189.965L229.024 189.945L229.056 184.871L232.896 184.895C234.237 184.867 235.391 186.033 235.383 187.374Z" fill="#0A2540"/>
</g>
</g>
</g>
<mask id="mask72_176_6954" style="mask-type:luminance" maskUnits="userSpaceOnUse" x="240" y="181" width="16" height="19">
<path d="M240.148 181.774H255.476V199.145H240.148V181.774Z" fill="white"/>
</mask>
<g mask="url(#mask72_176_6954)">
<mask id="mask73_176_6954" style="mask-type:luminance" maskUnits="userSpaceOnUse" x="163" y="174" width="119" height="32">
<path d="M164.123 174.88L281.533 175.587L281.354 205.352L163.943 204.645L164.123 174.88Z" fill="white"/>
</mask>
<g mask="url(#mask73_176_6954)">
<mask id="mask74_176_6954" style="mask-type:luminance" maskUnits="userSpaceOnUse" x="163" y="174" width="119" height="32">
<path d="M164.123 174.881L281.533 175.587L281.354 205.352L163.943 204.646L164.123 174.881Z" fill="white"/>
</mask>
<g mask="url(#mask74_176_6954)">
<path d="M253.994 194.659C253.779 194.475 253.415 194.475 253.196 194.691C252.214 195.445 251.088 196.128 249.456 196.116C246.45 196.1 244.039 193.549 244.055 190.468C244.075 187.39 246.518 184.832 249.488 184.848C250.793 184.856 252.166 185.411 253.212 186.321C253.32 186.468 253.499 186.54 253.683 186.54C253.826 186.54 253.97 186.432 254.082 186.325L255.064 185.319C255.176 185.211 255.247 185.027 255.247 184.848C255.251 184.668 255.18 184.521 255.036 184.377C253.339 182.88 251.643 182.217 249.504 182.205C244.941 182.178 241.185 185.886 241.157 190.488C241.129 195.05 244.802 198.806 249.404 198.834C251.503 198.882 253.503 198.06 254.996 196.623C255.144 196.475 255.215 196.296 255.18 196.116C255.184 195.968 255.112 195.825 255.004 195.717L253.994 194.659Z" fill="#0A2540"/>
</g>
</g>
</g>
<mask id="mask75_176_6954" style="mask-type:luminance" maskUnits="userSpaceOnUse" x="258" y="181" width="11" height="19">
<path d="M258.54 181.773H268.758V199.144H258.54V181.773Z" fill="white"/>
</mask>
<g mask="url(#mask75_176_6954)">
<mask id="mask76_176_6954" style="mask-type:luminance" maskUnits="userSpaceOnUse" x="163" y="174" width="119" height="32">
<path d="M164.123 174.88L281.533 175.587L281.354 205.352L163.943 204.645L164.123 174.88Z" fill="white"/>
</mask>
<g mask="url(#mask76_176_6954)">
<mask id="mask77_176_6954" style="mask-type:luminance" maskUnits="userSpaceOnUse" x="163" y="174" width="119" height="32">
<path d="M164.123 174.881L281.533 175.587L281.354 205.352L163.943 204.645L164.123 174.881Z" fill="white"/>
</mask>
<g mask="url(#mask77_176_6954)">
<path d="M267.573 196.15L261.702 196.114L261.782 183.074C261.782 182.747 261.494 182.456 261.167 182.456L259.682 182.448C259.323 182.444 259.067 182.731 259.063 183.058L258.976 197.983C258.972 198.346 259.259 198.601 259.586 198.605L267.557 198.653C267.921 198.653 268.172 198.366 268.176 198.038L268.184 196.809C268.184 196.446 267.933 196.154 267.573 196.15Z" fill="#0A2540"/>
</g>
</g>
</g>
<mask id="mask78_176_6954" style="mask-type:luminance" maskUnits="userSpaceOnUse" x="270" y="181" width="13" height="19">
<path d="M270.803 181.773H282.043V199.144H270.803V181.773Z" fill="white"/>
</mask>
<g mask="url(#mask78_176_6954)">
<mask id="mask79_176_6954" style="mask-type:luminance" maskUnits="userSpaceOnUse" x="163" y="174" width="119" height="32">
<path d="M164.123 174.88L281.533 175.587L281.354 205.352L163.943 204.645L164.123 174.88Z" fill="white"/>
</mask>
<g mask="url(#mask79_176_6954)">
<mask id="mask80_176_6954" style="mask-type:luminance" maskUnits="userSpaceOnUse" x="163" y="174" width="119" height="32">
<path d="M164.123 174.881L281.533 175.587L281.354 205.352L163.943 204.645L164.123 174.881Z" fill="white"/>
</mask>
<g mask="url(#mask80_176_6954)">
<path d="M280.897 185.111C281.261 185.111 281.516 184.823 281.516 184.5L281.524 183.231C281.528 182.867 281.241 182.612 280.913 182.612L271.964 182.556C271.601 182.556 271.346 182.844 271.346 183.167L271.254 198.095C271.254 198.458 271.541 198.714 271.869 198.714L280.818 198.77C281.177 198.77 281.432 198.482 281.436 198.155L281.444 196.926C281.444 196.562 281.157 196.307 280.83 196.303L273.948 196.263L273.976 191.773L279.736 191.804C280.095 191.808 280.351 191.521 280.355 191.194L280.363 189.924C280.363 189.601 280.075 189.31 279.748 189.306L273.988 189.27L274.016 185.071L280.897 185.111Z" fill="#0A2540"/>
</g>
</g>
</g>
<rect x="748.88" y="159.238" width="210.22" height="61.5279" rx="3.45222" fill="white"/>
<rect x="748.88" y="159.238" width="210.22" height="61.5279" rx="3.45222" stroke="#DEE9F8" stroke-width="1.70911"/>
<path d="M840.782 180.905H845.042L852.288 194.01L859.533 180.905H863.698V202.435H860.221V185.935L853.869 197.358H850.611L844.26 185.935V202.435H840.782V180.905Z" fill="#0A2540"/>
<path d="M874.913 202.82C873.301 202.82 871.885 202.465 870.665 201.754C869.444 201.037 868.496 200.054 867.815 198.792C867.128 197.53 866.79 196.084 866.79 194.455C866.79 192.802 867.122 191.345 867.791 190.071C868.455 188.797 869.379 187.808 870.564 187.085C871.749 186.368 873.112 186.012 874.646 186.012C876.174 186.012 877.49 186.374 878.592 187.097C879.694 187.819 880.547 188.833 881.139 190.13C881.732 191.433 882.028 192.962 882.028 194.716V195.669H870.232C870.451 196.979 870.979 198.016 871.826 198.768C872.673 199.52 873.74 199.9 875.031 199.9C876.068 199.9 876.962 199.745 877.709 199.437C878.455 199.129 879.16 198.661 879.818 198.039L881.661 200.296C879.824 201.979 877.573 202.82 874.913 202.82ZM877.448 190.047C876.72 189.306 875.766 188.933 874.587 188.933C873.437 188.933 872.478 189.312 871.701 190.071C870.931 190.829 870.44 191.848 870.232 193.134H878.692C878.592 191.818 878.177 190.794 877.448 190.047Z" fill="#0A2540"/>
<path d="M886.247 189.241H883.048V186.397H886.247V181.687H889.6V186.397H894.458V189.241H889.6V196.451C889.6 197.654 889.802 198.507 890.217 199.022C890.625 199.532 891.324 199.793 892.32 199.793C892.764 199.793 893.137 199.775 893.445 199.739C893.753 199.698 894.091 199.65 894.458 199.591V202.405C894.038 202.53 893.611 202.619 893.173 202.684C892.675 202.755 892.178 202.79 891.674 202.79C888.054 202.79 886.247 200.812 886.247 196.854V189.241Z" fill="#0A2540"/>
<path d="M911.929 202.435H908.641V200.19C908.055 201.031 907.314 201.677 906.408 202.133C905.507 202.589 904.482 202.82 903.333 202.82C901.917 202.82 900.667 202.459 899.571 201.736C898.481 201.013 897.622 200.018 897 198.75C896.372 197.488 896.058 196.037 896.058 194.407C896.058 192.766 896.378 191.315 897.011 190.053C897.645 188.791 898.528 187.802 899.648 187.085C900.774 186.368 902.059 186.012 903.517 186.012C904.613 186.012 905.602 186.226 906.473 186.646C907.344 187.073 908.067 187.671 908.641 188.453V186.398H911.929V202.435ZM908.576 192.008C908.221 191.096 907.652 190.373 906.876 189.846C906.106 189.318 905.211 189.058 904.192 189.058C902.758 189.058 901.615 189.538 900.768 190.503C899.914 191.463 899.488 192.766 899.488 194.407C899.488 196.06 899.897 197.364 900.72 198.33C901.538 199.295 902.652 199.775 904.056 199.775C905.093 199.775 906.017 199.509 906.822 198.975C907.634 198.442 908.221 197.725 908.576 196.825V192.008Z" fill="#0A2540"/>
<path d="M822.701 178.038C819.632 178.038 817.239 180.325 815.07 183.228C812.09 179.472 809.602 178.038 806.616 178.038C800.538 178.038 795.881 185.876 795.881 194.177C795.881 199.367 798.417 202.643 802.659 202.643C805.716 202.643 807.914 201.215 811.824 194.449C811.824 194.449 813.453 191.6 814.573 189.633C814.964 190.261 815.378 190.936 815.817 191.665L817.648 194.716C821.214 200.64 823.205 202.643 826.807 202.643C830.948 202.643 833.247 199.325 833.247 194.023C833.247 185.337 828.483 178.038 822.701 178.038ZM808.844 192.613C805.674 197.536 804.578 198.638 802.813 198.638C801 198.638 799.921 197.062 799.921 194.242C799.921 188.217 802.955 182.061 806.563 182.061C808.524 182.061 810.159 183.181 812.665 186.73C810.283 190.349 808.844 192.613 808.844 192.613ZM820.799 191.996L818.613 188.377C818.015 187.417 817.446 186.54 816.901 185.734C818.874 182.713 820.503 181.208 822.44 181.208C826.469 181.208 829.686 187.085 829.686 194.295C829.686 197.044 828.78 198.638 826.896 198.638C825.089 198.638 824.23 197.459 820.799 191.996Z" fill="#0A2540"/>
<rect x="42.165" y="49.0004" width="210.22" height="61.5279" rx="3.45222" fill="white"/>
<rect x="42.165" y="49.0004" width="210.22" height="61.5279" rx="3.45222" stroke="#DEE9F8" stroke-width="1.70911"/>
<mask id="mask81_176_6954" style="mask-type:luminance" maskUnits="userSpaceOnUse" x="119" y="69" width="92" height="20">
<path d="M119.342 69.314H210.512V88.2281H119.342V69.314Z" fill="white"/>
</mask>
<g mask="url(#mask81_176_6954)">
<path d="M129.253 81.5129L128.502 83.6283H128.439C128.315 83.15 128.089 82.4267 127.716 81.5557L123.708 71.4881H119.781V87.5324H122.377V77.6321C122.377 77.0099 122.377 76.3022 122.357 75.4311C122.334 74.9956 122.295 74.6651 122.272 74.4162H122.334C122.458 75.0384 122.606 75.4933 122.708 75.785L127.529 87.4897H129.354L134.133 75.68C134.234 75.4117 134.339 74.8712 134.444 74.4162H134.506C134.444 75.5983 134.401 76.656 134.382 77.2977V87.4702H137.144V71.4453H133.362L129.253 81.5129ZM139.759 75.9716H142.46V87.4702H139.759V75.9716ZM141.129 71.1148C140.674 71.1148 140.3 71.282 139.989 71.5698C139.678 71.8614 139.51 72.2347 139.51 72.6936C139.51 73.1291 139.678 73.5024 139.989 73.7901C140.3 74.0818 140.674 74.2296 141.129 74.2296C141.588 74.2296 141.981 74.0623 142.273 73.7901C142.585 73.5024 142.752 73.1291 142.752 72.6936C142.752 72.258 142.585 71.8808 142.273 71.5698C142.005 71.282 141.608 71.1148 141.129 71.1148ZM152.033 75.8667C151.535 75.7617 151.017 75.6994 150.519 75.6994C149.293 75.6994 148.173 75.9716 147.235 76.5122C146.301 77.0488 145.554 77.7993 145.075 78.7325C144.577 79.6853 144.328 80.7857 144.328 82.0534C144.328 83.15 144.577 84.126 145.056 85.0204C145.534 85.8915 146.2 86.5953 147.091 87.0736C147.943 87.5519 148.939 87.8008 150.06 87.8008C151.348 87.8008 152.449 87.5324 153.321 87.0308L153.34 87.0114V84.5227L153.239 84.6043C152.842 84.896 152.387 85.1448 151.932 85.2887C151.453 85.4559 151.017 85.5376 150.644 85.5376C149.562 85.5376 148.71 85.2265 148.11 84.5421C147.484 83.8772 147.172 82.9633 147.172 81.824C147.172 80.6418 147.484 79.7086 148.13 79.0203C148.772 78.3359 149.624 77.9859 150.663 77.9859C151.535 77.9859 152.43 78.2737 153.239 78.857L153.34 78.9386V76.3022L153.321 76.2827C152.967 76.1389 152.574 75.9716 152.033 75.8667ZM160.944 75.785C160.278 75.785 159.656 75.9911 159.115 76.4266C158.66 76.7999 158.348 77.3404 158.076 77.9859H158.057V75.9716H155.356V87.4702H158.057V81.5946C158.057 80.5991 158.263 79.7708 158.722 79.1681C159.177 78.5459 159.761 78.2348 160.465 78.2348C160.714 78.2348 160.963 78.297 161.275 78.3359C161.567 78.4215 161.773 78.5031 161.921 78.6081L162.022 78.6898V75.9911L161.96 75.9716C161.773 75.8472 161.399 75.785 160.944 75.785ZM168.295 75.7228C166.403 75.7228 164.89 76.2827 163.831 77.3832C162.749 78.4837 162.232 79.9963 162.232 81.9056C162.232 83.6905 162.769 85.1448 163.808 86.2025C164.847 87.2408 166.259 87.7813 168.026 87.7813C169.875 87.7813 171.349 87.2214 172.408 86.0975C173.486 84.9776 174.007 83.4844 174.007 81.6373C174.007 79.8097 173.509 78.3592 172.49 77.2977C171.513 76.24 170.081 75.7228 168.295 75.7228ZM170.454 84.5616C169.956 85.2071 169.166 85.5181 168.19 85.5181C167.217 85.5181 166.427 85.2071 165.866 84.5227C165.306 83.8772 165.034 82.9439 165.034 81.7618C165.034 80.5369 165.326 79.6036 165.866 78.9386C166.427 78.2737 167.193 77.9432 168.17 77.9432C169.127 77.9432 169.875 78.2542 170.412 78.8959C170.952 79.5414 171.244 80.4746 171.244 81.6995C171.201 82.9439 170.976 83.9199 170.454 84.5616ZM180.031 80.743C179.179 80.393 178.638 80.1208 178.389 79.8952C178.183 79.6853 178.077 79.3936 178.077 79.0203C178.077 78.7092 178.202 78.3981 178.513 78.192C178.825 77.9859 179.179 77.8809 179.696 77.8809C180.155 77.8809 180.63 77.9626 181.089 78.087C181.545 78.2115 181.961 78.3981 182.292 78.647L182.397 78.7325V76.2011L182.335 76.1777C182.023 76.0533 181.607 75.9289 181.109 75.8278C180.611 75.7422 180.155 75.6994 179.778 75.6994C178.494 75.6994 177.432 76.0144 176.603 76.6988C175.77 77.3404 175.377 78.2115 175.377 79.2303C175.377 79.7708 175.459 80.2452 175.645 80.6418C175.832 81.0346 176.105 81.4079 176.478 81.719C176.852 82.0106 177.393 82.3412 178.14 82.6523C178.762 82.9245 179.241 83.1305 179.529 83.2978C179.821 83.465 180.008 83.6516 180.155 83.7955C180.257 83.9627 180.319 84.1688 180.319 84.4371C180.319 85.2071 179.739 85.5804 178.556 85.5804C178.097 85.5804 177.618 85.4987 177.058 85.3121C176.498 85.1215 175.98 84.8532 175.544 84.5421L175.439 84.4604V87.093L175.501 87.1164C175.894 87.303 176.373 87.4274 176.957 87.5713C177.537 87.6763 178.054 87.758 178.513 87.758C179.903 87.758 181.047 87.4469 181.856 86.7625C182.689 86.0975 183.125 85.2459 183.125 84.1494C183.125 83.3794 182.914 82.695 182.459 82.1778C181.856 81.6801 181.109 81.159 180.031 80.743ZM190.246 75.7228C188.358 75.7228 186.841 76.2827 185.782 77.3832C184.724 78.4837 184.183 79.9963 184.183 81.9056C184.183 83.6905 184.724 85.1448 185.763 86.2025C186.798 87.2408 188.211 87.7813 189.977 87.7813C191.826 87.7813 193.3 87.2214 194.359 86.0975C195.441 84.9776 195.958 83.4844 195.958 81.6373C195.958 79.8097 195.46 78.3592 194.441 77.2977C193.468 76.24 192.032 75.7228 190.246 75.7228ZM192.386 84.5616C191.888 85.2071 191.098 85.5181 190.121 85.5181C189.125 85.5181 188.358 85.2071 187.798 84.5227C187.234 83.8772 186.965 82.9439 186.965 81.7618C186.965 80.5369 187.257 79.6036 187.798 78.9386C188.358 78.2737 189.125 77.9432 190.102 77.9432C191.036 77.9432 191.806 78.2542 192.343 78.8959C192.884 79.5414 193.176 80.4746 193.176 81.6995C193.176 82.9439 192.904 83.9199 192.386 84.5616ZM210.391 78.192V75.9716H207.671V72.5691L207.589 72.5886L205.013 73.3546L204.951 73.3779V75.9716H200.881V74.5173C200.881 73.8524 201.048 73.3352 201.336 73.0046C201.628 72.6702 202.064 72.5069 202.605 72.5069C202.978 72.5069 203.371 72.5886 203.807 72.7752L203.912 72.8374V70.4926L203.85 70.4732C203.476 70.3487 202.978 70.2632 202.332 70.2632C201.523 70.2632 200.819 70.4498 200.173 70.7609C199.53 71.1148 199.052 71.5931 198.698 72.2347C198.348 72.8569 198.161 73.5646 198.161 74.3734V75.9716H196.27V78.1726H198.161V87.4702H200.881V78.192H204.951V84.1066C204.951 86.5331 206.091 87.758 208.376 87.758C208.753 87.758 209.146 87.6958 209.52 87.6335C209.913 87.5519 210.204 87.4469 210.372 87.3652L210.391 87.3458V85.1215L210.286 85.2071C210.123 85.3121 209.975 85.3937 209.726 85.4559C209.52 85.5181 209.333 85.5376 209.189 85.5376C208.648 85.5376 208.274 85.4132 208.002 85.1021C207.753 84.8104 207.628 84.336 207.628 83.6283V78.192H210.391Z" fill="#0A2540"/>
</g>
<mask id="mask82_176_6954" style="mask-type:luminance" maskUnits="userSpaceOnUse" x="84" y="66" width="15" height="14">
<path d="M84.8916 66.0916H98.4218V79.27H84.8916V66.0916Z" fill="white"/>
</mask>
<g mask="url(#mask82_176_6954)">
<path d="M84.9736 66.0916H97.7061V78.815H84.9736V66.0916Z" fill="#0A2540"/>
</g>
<mask id="mask83_176_6954" style="mask-type:luminance" maskUnits="userSpaceOnUse" x="98" y="66" width="15" height="14">
<path d="M98.4209 66.0916H112.367V79.27H98.4209V66.0916Z" fill="white"/>
</mask>
<g mask="url(#mask83_176_6954)">
<path d="M99.0322 66.0908H111.765V78.8143H99.0322V66.0908Z" fill="#0A2540"/>
</g>
<mask id="mask84_176_6954" style="mask-type:luminance" maskUnits="userSpaceOnUse" x="84" y="79" width="15" height="14">
<path d="M84.8916 79.2693H98.4218V92.6772H84.8916V79.2693Z" fill="white"/>
</mask>
<g mask="url(#mask84_176_6954)">
<path d="M84.9736 80.1443H97.7061V92.8639H84.9736V80.1443Z" fill="#0A2540"/>
</g>
<mask id="mask85_176_6954" style="mask-type:luminance" maskUnits="userSpaceOnUse" x="98" y="79" width="15" height="14">
<path d="M98.4209 79.2695H112.367V92.6774H98.4209V79.2695Z" fill="white"/>
</mask>
<g mask="url(#mask85_176_6954)">
<path d="M99.0322 80.1443H111.765V92.8639H99.0322V80.1443Z" fill="#0A2540"/>
</g>
<rect x="824.081" y="49.0004" width="210.22" height="61.5279" rx="3.45222" fill="white"/>
<rect x="824.081" y="49.0004" width="210.22" height="61.5279" rx="3.45222" stroke="#DEE9F8" stroke-width="1.70911"/>
<mask id="mask86_176_6954" style="mask-type:luminance" maskUnits="userSpaceOnUse" x="858" y="66" width="143" height="27">
<path d="M858.264 66.946H1000.31V92.9521H858.264V66.946Z" fill="white"/>
</mask>
<g mask="url(#mask86_176_6954)">
<path d="M886.952 74.1311C881.79 74.1311 877.755 78.0502 877.755 83.2989C877.755 88.5417 881.686 92.4319 886.952 92.4319C892.218 92.4319 896.218 88.4781 896.218 83.2642C896.218 78.0849 892.287 74.1311 886.952 74.1311ZM886.987 88.6515C884.05 88.6515 881.894 86.3625 881.894 83.2989C881.894 80.1948 884.015 77.9115 886.952 77.9115C889.929 77.9115 892.085 80.2295 892.085 83.2989C892.085 86.3625 889.929 88.6515 886.987 88.6515ZM897.351 78.1196H899.912V92.0909H904.016V74.4722H897.351V78.1196ZM867.431 77.9115C869.582 77.9115 871.293 79.241 871.94 81.2179H876.287C875.501 76.9924 872.009 74.1311 867.466 74.1311C862.298 74.1311 858.264 78.0502 858.264 83.2989C858.264 88.5475 862.2 92.4319 867.466 92.4319C871.911 92.4319 875.466 89.5706 876.252 85.3104H871.94C871.327 87.2873 869.616 88.6515 867.466 88.6515C864.489 88.6515 862.402 86.3625 862.402 83.2989C862.402 80.1948 864.454 77.9115 867.431 77.9115ZM975.305 81.5936L972.3 81.1485C970.86 80.9462 969.837 80.4722 969.837 79.3451C969.837 78.1196 971.172 77.5069 972.982 77.5069C974.964 77.5069 976.23 78.3566 976.502 79.7555H980.473C980.028 76.2121 977.288 74.1311 973.086 74.1311C968.745 74.1311 965.872 76.345 965.872 79.4838C965.872 82.478 967.75 84.2179 971.548 84.7613L974.554 85.2064C976.028 85.4087 976.849 85.9925 976.849 87.0792C976.849 88.4781 975.409 89.0561 973.427 89.0561C970.999 89.0561 969.629 88.0677 969.427 86.5706H965.392C965.768 90.0157 968.467 92.4319 973.392 92.4319C977.872 92.4319 980.849 90.3856 980.849 86.8769C980.849 83.7382 978.693 82.1023 975.305 81.5936ZM901.964 67.212C900.461 67.212 899.333 68.3045 899.333 69.8016C899.333 71.2987 900.461 72.3912 901.964 72.3912C903.466 72.3912 904.599 71.2987 904.599 69.8016C904.599 68.3045 903.466 67.212 901.964 67.212ZM962.178 80.5011C962.178 76.6861 959.854 74.1311 954.929 74.1311C950.282 74.1311 947.681 76.4838 947.166 80.0965H951.236C951.444 78.6977 952.536 77.5416 954.86 77.5416C956.947 77.5416 957.976 78.4607 957.976 79.5878C957.976 81.0503 956.091 81.426 953.768 81.663C950.623 82.004 946.721 83.0965 946.721 87.1833C946.721 90.3567 949.085 92.3972 952.843 92.3972C955.785 92.3972 957.629 91.1718 958.554 89.2296C958.692 90.9637 959.993 92.0909 961.802 92.0909H964.195V88.4434H962.178V80.5011ZM958.143 84.9347C958.143 87.2873 956.091 89.0272 953.594 89.0272C952.057 89.0272 950.756 88.3741 950.756 87.0157C950.756 85.2758 952.843 84.8018 954.756 84.5937C956.606 84.426 957.629 84.0156 958.143 83.2295V84.9347ZM936.363 74.1311C934.074 74.1311 932.155 75.0849 930.79 76.6861V67.0386H926.686V92.0909H930.721V89.7729C932.085 91.4434 934.039 92.4319 936.363 92.4319C941.288 92.4319 945.016 88.5475 945.016 83.2989C945.016 78.0502 941.218 74.1311 936.363 74.1311ZM935.744 88.6515C932.808 88.6515 930.652 86.3625 930.652 83.2989C930.652 80.2295 932.842 77.9115 935.779 77.9115C938.756 77.9115 940.843 80.2006 940.843 83.2989C940.843 86.3625 938.686 88.6515 935.744 88.6515ZM916.871 74.1311C914.206 74.1311 912.461 75.2178 911.438 76.7554V74.4722H907.368V92.0909H911.467V82.5127C911.467 79.8191 913.178 77.9115 915.709 77.9115C918.068 77.9115 919.536 79.5821 919.536 82.004V92.0909H923.64V81.6977C923.64 77.2641 921.351 74.1311 916.871 74.1311ZM1000.4 82.7208C1000.4 77.6745 996.71 74.1311 991.756 74.1311C986.49 74.1311 982.623 78.0849 982.623 83.2989C982.623 88.7845 986.762 92.4319 991.82 92.4319C996.097 92.4319 999.45 89.9116 1000.3 86.3336H996.028C995.41 87.9001 993.907 88.7845 991.889 88.7845C989.253 88.7845 987.271 87.1486 986.831 84.2873H1000.4V82.7208ZM987.068 81.3566C987.722 78.9 989.566 77.7092 991.687 77.7092C994.011 77.7092 995.791 79.0387 996.202 81.3566H987.068Z" fill="#0A2540"/>
</g>
</g>
<rect x="1.14545" y="1.14545" width="1074.17" height="376.858" rx="9.4001" stroke="#DEE9F8" stroke-width="1.70911"/>
<defs>
<radialGradient id="paint0_radial_176_6954" cx="0" cy="0" r="1" gradientUnits="userSpaceOnUse" gradientTransform="translate(537.806 169.174) rotate(0.0509619) scale(358.058 275.606)">
<stop stop-color="#58A2FF"/>
<stop offset="0.793269" stop-color="#A7C6ED" stop-opacity="0"/>
</radialGradient>
<clipPath id="clip0_176_6954">
<rect x="2" y="2" width="1072.47" height="375.149" rx="8.54554" fill="white"/>
</clipPath>
</defs>
</svg>
