<svg width="79" height="97" viewBox="0 0 79 97" fill="none" xmlns="http://www.w3.org/2000/svg">
<mask id="mask0_82_13960" style="mask-type:luminance" maskUnits="userSpaceOnUse" x="0" y="0" width="79" height="97">
<path d="M0.49707 0.546875H78.6131V96.874H0.49707V0.546875Z" fill="white"/>
</mask>
<g mask="url(#mask0_82_13960)">
<mask id="mask1_82_13960" style="mask-type:luminance" maskUnits="userSpaceOnUse" x="-1" y="-6" width="88" height="104">
<path d="M16.6197 -5.49219L86.4932 8.01076L69.1039 97.9992L-0.769531 84.4981L16.6197 -5.49219Z" fill="white"/>
</mask>
<g mask="url(#mask1_82_13960)">
<mask id="mask2_82_13960" style="mask-type:luminance" maskUnits="userSpaceOnUse" x="-1" y="-6" width="88" height="104">
<path d="M16.6197 -5.49219L86.4932 8.01076L69.1039 97.9992L-0.769531 84.4981L16.6197 -5.49219Z" fill="white"/>
</mask>
<g mask="url(#mask2_82_13960)">
<path d="M72.1373 41.293L73.5638 33.9134C76.4804 18.8192 66.5699 4.15938 51.4757 1.24276C36.3815 -1.67386 21.7179 8.23292 18.7994 23.3308L17.3748 30.7104C13.2189 30.0233 9.24647 32.749 8.44337 36.9105L0.736225 76.7941C0.687552 77.045 0.650112 77.2977 0.627647 77.5523C0.603311 77.8069 0.592078 78.0615 0.593951 78.3179C0.595823 78.5725 0.608927 78.8271 0.635135 79.0817C0.661344 79.3363 0.700656 79.5891 0.751201 79.838C0.803618 80.0889 0.867267 80.336 0.942148 80.5812C1.01703 80.8246 1.10501 81.0642 1.20423 81.3001C1.30345 81.536 1.4139 81.7662 1.53558 81.9909C1.65726 82.2155 1.7883 82.4345 1.93245 82.6461C2.07472 82.8576 2.22823 83.0617 2.3911 83.2582C2.55396 83.4548 2.72806 83.642 2.90965 83.8217C3.09124 84.0014 3.28031 84.1736 3.47875 84.3346C3.67718 84.4956 3.88311 84.6454 4.09652 84.7858C4.30993 84.9281 4.52896 85.0572 4.75547 85.1771C4.98199 85.2969 5.21225 85.4036 5.44999 85.5009C5.68587 85.5964 5.92736 85.6825 6.1726 85.7536C6.41596 85.8267 6.66494 85.8884 6.91579 85.9371L61.2683 96.4392C61.5191 96.4879 61.7719 96.5234 62.0264 96.5478C62.281 96.5721 62.5356 96.5833 62.7921 96.5815C63.0467 96.5796 63.3013 96.5665 63.5559 96.5403C63.8105 96.5141 64.0632 96.4747 64.3122 96.4223C64.563 96.3718 64.8102 96.3081 65.0554 96.2333C65.2988 96.1584 65.5384 96.0704 65.7742 95.9712C66.0101 95.872 66.2404 95.7615 66.465 95.6398C66.6897 95.5181 66.9087 95.3852 67.1202 95.243C67.3318 95.0988 67.5358 94.9472 67.7324 94.7824C67.929 94.6196 68.118 94.4473 68.2977 94.2658C68.4775 94.0842 68.6478 93.8932 68.8088 93.6948C68.9698 93.4964 69.1196 93.2923 69.2618 93.0789C69.4022 92.8655 69.5314 92.6446 69.6512 92.4199C69.771 92.1934 69.8777 91.9613 69.9751 91.7254C70.0705 91.4877 70.1567 91.248 70.2297 91.0028C70.3027 90.7576 70.3626 90.5105 70.4113 90.2596L78.1184 50.3742C78.9234 46.2126 76.2501 42.2028 72.1373 41.293ZM46.7582 59.2831C46.6796 59.5134 46.4418 60.0301 46.4212 60.0694C45.6406 61.6007 44.2646 62.7146 42.6566 63.2444L43.0909 74.2051C43.104 74.3193 43.1059 74.4354 43.0928 74.5495C43.0815 74.6656 43.0553 74.7779 43.0179 74.8865C42.9786 74.997 42.928 75.0999 42.8644 75.1973C42.8026 75.2946 42.7296 75.3845 42.6453 75.465C42.5611 75.5455 42.4694 75.6147 42.3701 75.6728C42.2691 75.7327 42.1642 75.7776 42.0538 75.8132C41.9433 75.8469 41.8291 75.8675 41.7131 75.8749C41.597 75.8824 41.4828 75.8768 41.3686 75.8581L33.2197 74.2818C33.1055 74.2575 32.9969 74.2201 32.8921 74.1695C32.7872 74.1208 32.6899 74.0591 32.6 73.9861C32.5102 73.9131 32.4297 73.8307 32.3585 73.739C32.2874 73.6472 32.2275 73.548 32.1807 73.4413C32.132 73.3365 32.0983 73.226 32.0759 73.1118C32.0534 72.9995 32.0459 72.8834 32.0497 72.7674C32.0553 72.6513 32.074 72.539 32.1058 72.4267C32.1376 72.3143 32.1807 72.2095 32.2369 72.1066L36.5556 62.065C35.2602 60.9755 34.399 59.4273 34.2455 57.7163C34.2418 57.6732 34.2118 57.106 34.2249 56.8607C34.2381 56.5593 34.2736 56.2617 34.3298 55.9659C34.4103 55.5503 34.5301 55.146 34.6911 54.7528C34.8502 54.3616 35.0468 53.9891 35.2808 53.6352C35.5129 53.2814 35.7787 52.9538 36.0764 52.6524C36.374 52.351 36.6979 52.0833 37.0498 51.8456C37.3999 51.6078 37.7706 51.4075 38.1618 51.2428C38.5512 51.078 38.9537 50.9545 39.3693 50.8684C39.7849 50.7841 40.2042 50.7411 40.6273 50.7373C41.0504 50.7355 41.4697 50.7748 41.8872 50.8553C42.3028 50.9358 42.7071 51.0556 43.0984 51.2147C43.4915 51.3757 43.864 51.5723 44.216 51.8063C44.5698 52.0384 44.8974 52.3042 45.1988 52.6019C45.5002 52.9014 45.7697 53.2253 46.0056 53.5753C46.2434 53.9273 46.4437 54.2979 46.6084 54.6873C46.7713 55.0786 46.8967 55.4811 46.981 55.8966C47.0671 56.3104 47.1101 56.7297 47.112 57.1547C47.1139 57.5777 47.0746 57.9971 46.9941 58.4127C46.936 58.7084 46.8593 58.9986 46.7582 59.2831ZM62.7921 39.4659L26.7275 32.4963L28.1502 25.1373C30.0709 15.1913 39.7212 8.66536 49.6692 10.5879C59.6171 12.5105 66.1356 22.1608 64.2148 32.1069L62.7921 39.4659Z" fill="white"/>
</g>
</g>
</g>
</svg>
