<svg width="77" height="46" viewBox="0 0 77 46" fill="none" xmlns="http://www.w3.org/2000/svg">
<path d="M53.3222 35.258C52.6987 22.7625 52.5169 10.215 60.7909 8.29265C61.2065 8.18873 69.7664 8.27966 70.2729 8.26667C80.1316 8.01988 88.2888 19.2165 89.0032 33.4915C89.7176 47.7665 82.5996 58.8981 72.7668 59.5735C72.0784 59.6255 63.8693 60.0541 63.7654 59.9632C58.9205 55.8327 53.9197 47.156 53.3222 35.258Z" fill="black"/>
<path d="M63.8405 59.9488C73.6925 59.4606 81.1057 47.4943 80.3983 33.2215C79.691 18.9487 71.1309 7.77416 61.279 8.26242C51.427 8.75067 44.0139 20.7169 44.7212 34.9897C45.4286 49.2625 53.9886 60.4371 63.8405 59.9488Z" fill="#A7C6ED"/>
<path d="M68.8086 36.1665C68.0942 33.2179 65.8081 32.2308 63.2622 32.0619L62.6128 23.8398C64.3144 23.7619 65.4964 24.5932 65.4964 24.5932L67.146 21.255C67.146 21.255 65.1067 20.1639 62.34 20.5146L62.1322 17.8389L59.0538 19.1508L59.2226 21.5148C58.768 21.7616 58.3134 22.0343 57.8588 22.385C57.8588 22.385 54.9882 24.5023 54.9103 28.6198C54.8453 32.5035 56.1572 35.478 60.2098 35.8677L60.8203 44.7393C59.5604 44.6743 58.1965 44.1158 56.8456 42.8818L54.8193 46.4668C54.8193 46.4668 57.586 48.8958 61.1061 48.8308L61.4178 53.351L64.8469 52.0651L64.5222 47.9086C68.9644 45.4926 69.8347 40.3749 68.8086 36.1665ZM59.4694 25.0998L59.924 31.6982C57.638 30.5941 57.2613 26.9832 59.4694 25.0998ZM65.7302 40.31C65.5743 41.6089 65.0028 42.713 64.1715 43.5053L63.574 35.9976C63.6129 36.0106 63.6649 36.0106 63.6909 36.0236C64.3144 36.1794 66.1588 36.8159 65.7302 40.31Z" fill="white"/>
<path d="M23.6589 25.438C32.4265 16.6703 41.5188 8.18847 48.429 12.9814C48.7797 13.2282 53.9624 19.45 54.3131 19.8137C61.0544 26.8927 58.7034 40.4533 48.6888 50.4679C38.6742 60.4825 25.0747 62.8725 18.0346 56.0922C17.541 55.6116 11.1244 48.013 11.1244 47.8831C10.9296 41.5704 15.3069 33.777 23.6589 25.438Z" fill="black"/>
<path d="M43.1515 43.9613C53.1697 33.9431 55.6904 20.2211 48.7816 13.3123C41.8729 6.4036 28.1509 8.9243 18.1327 18.9425C8.11451 28.9607 5.59381 42.6827 12.5026 49.5914C19.4113 56.5002 33.1333 53.9795 43.1515 43.9613Z" fill="#A7C6ED"/>
<path d="M38.3864 19.3975L39.5684 17.1894L36.2302 16.7607L35.1651 18.7091C34.6455 18.6831 34.113 18.6831 33.5414 18.7481C33.5414 18.7481 29.9824 19.0598 27.8262 22.2681C25.787 25.2946 25.4103 28.2691 28.7225 30.5162L24.7348 37.8031C23.6827 37.1536 22.7865 36.0625 22.2409 34.4519L18.6689 36.3223C18.6689 36.3223 19.825 39.5566 22.9034 41.1672L20.8771 44.8821L24.501 45.5056L26.3195 42.0505C31.3853 42.2583 34.7364 38.6343 35.9964 34.8286C36.8796 32.1528 35.4119 30.2824 33.2946 28.9445L36.9056 22.1642C38.4123 22.9046 39.0228 24.1126 39.0228 24.1126L42.1402 22.2681C42.1532 22.2681 40.9452 20.4367 38.3864 19.3975ZM33.5544 21.6576L30.5929 27.0741C29.1771 25.1127 30.6838 22.0863 33.5544 21.6576ZM31.658 32.2827C32.1126 32.6983 33.3726 34.0882 31.2294 36.634C30.4371 37.5822 29.3719 38.1927 28.2549 38.4135L31.5671 32.2048C31.5931 32.2307 31.632 32.2567 31.658 32.2827Z" fill="white"/>
</svg>
