<svg width="334" height="242" viewBox="0 0 334 242" fill="none" xmlns="http://www.w3.org/2000/svg">
<g clip-path="url(#clip0_82_4724)">
<mask id="mask0_82_4724" style="mask-type:luminance" maskUnits="userSpaceOnUse" x="-183" y="-201" width="690" height="690">
<path d="M506.514 -200.172H-182.119V488.462H506.514V-200.172Z" fill="black" fill-opacity="0.13"/>
</mask>
<g mask="url(#mask0_82_4724)">
<mask id="mask1_82_4724" style="mask-type:luminance" maskUnits="userSpaceOnUse" x="111" y="143" width="108" height="80">
<path d="M218.169 143.437H111.898V222.785H218.169V143.437Z" fill="white"/>
</mask>
<g mask="url(#mask1_82_4724)">
<mask id="mask2_82_4724" style="mask-type:luminance" maskUnits="userSpaceOnUse" x="114" y="147" width="101" height="72">
<path d="M114.732 147.687H214.627V218.534H114.732V147.687Z" fill="white"/>
</mask>
<g mask="url(#mask2_82_4724)">
<mask id="mask3_82_4724" style="mask-type:luminance" maskUnits="userSpaceOnUse" x="112" y="143" width="106" height="80">
<path d="M118.357 143.939L217.612 152.568L211.527 222.569L112.271 213.94L118.357 143.939Z" fill="white"/>
</mask>
<g mask="url(#mask3_82_4724)">
<mask id="mask4_82_4724" style="mask-type:luminance" maskUnits="userSpaceOnUse" x="115" y="147" width="100" height="72">
<path d="M167.883 148.247C140.532 145.87 116.995 159.613 115.315 178.941C113.635 198.271 134.446 215.87 161.797 218.247C189.151 220.624 212.685 206.881 214.365 187.553C216.045 168.222 195.236 150.624 167.883 148.247Z" fill="white"/>
</mask>
<g mask="url(#mask4_82_4724)">
<mask id="mask5_82_4724" style="mask-type:luminance" maskUnits="userSpaceOnUse" x="114" y="147" width="101" height="72">
<path d="M214.627 147.687H114.732V218.534H214.627V147.687Z" fill="white"/>
</mask>
<g mask="url(#mask5_82_4724)">
<mask id="mask6_82_4724" style="mask-type:luminance" maskUnits="userSpaceOnUse" x="114" y="147" width="101" height="72">
<path d="M114.732 147.687H214.627V218.534H114.732V147.687Z" fill="white"/>
</mask>
<g mask="url(#mask6_82_4724)">
<mask id="mask7_82_4724" style="mask-type:luminance" maskUnits="userSpaceOnUse" x="112" y="143" width="106" height="80">
<path d="M118.357 143.939L217.612 152.568L211.527 222.569L112.271 213.94L118.357 143.939Z" fill="white"/>
</mask>
<g mask="url(#mask7_82_4724)">
<mask id="mask8_82_4724" style="mask-type:luminance" maskUnits="userSpaceOnUse" x="115" y="147" width="100" height="72">
<path d="M167.883 148.247C140.532 145.87 116.995 159.613 115.315 178.941C113.635 198.271 134.446 215.87 161.797 218.247C189.151 220.624 212.685 206.881 214.365 187.553C216.045 168.222 195.236 150.624 167.883 148.247Z" fill="white"/>
</mask>
<g mask="url(#mask8_82_4724)">
<path d="M118.358 143.939L217.339 152.546L211.256 222.544L112.272 213.94L118.358 143.939Z" fill="black"/>
</g>
</g>
</g>
</g>
</g>
</g>
</g>
</g>
</g>
<mask id="mask9_82_4724" style="mask-type:luminance" maskUnits="userSpaceOnUse" x="110" y="142" width="101" height="73">
<path d="M110.482 142.729H210.377V214.284H110.482V142.729Z" fill="white"/>
</mask>
<g mask="url(#mask9_82_4724)">
<mask id="mask10_82_4724" style="mask-type:luminance" maskUnits="userSpaceOnUse" x="106" y="137" width="109" height="83">
<path d="M106.63 206.995L115.439 137.446L214.328 149.972L205.52 219.521L106.63 206.995Z" fill="white"/>
</mask>
<g mask="url(#mask10_82_4724)">
<mask id="mask11_82_4724" style="mask-type:luminance" maskUnits="userSpaceOnUse" x="110" y="143" width="100" height="71">
<path d="M111.033 172.219C108.601 191.425 128.706 209.79 155.941 213.241C183.176 216.689 207.225 203.917 209.657 184.711C212.09 165.505 191.984 147.14 164.75 143.689C137.515 140.241 113.466 153.013 111.033 172.219Z" fill="white"/>
</mask>
<g mask="url(#mask11_82_4724)">
<mask id="mask12_82_4724" style="mask-type:luminance" maskUnits="userSpaceOnUse" x="110" y="142" width="101" height="73">
<path d="M210.377 142.729H110.482V214.284H210.377V142.729Z" fill="white"/>
</mask>
<g mask="url(#mask12_82_4724)">
<mask id="mask13_82_4724" style="mask-type:luminance" maskUnits="userSpaceOnUse" x="110" y="142" width="101" height="73">
<path d="M110.482 142.729H210.376V214.284H110.482V142.729Z" fill="white"/>
</mask>
<g mask="url(#mask13_82_4724)">
<mask id="mask14_82_4724" style="mask-type:luminance" maskUnits="userSpaceOnUse" x="106" y="137" width="109" height="83">
<path d="M106.63 206.993L115.439 137.444L214.328 149.97L205.52 219.519L106.63 206.993Z" fill="white"/>
</mask>
<g mask="url(#mask14_82_4724)">
<mask id="mask15_82_4724" style="mask-type:luminance" maskUnits="userSpaceOnUse" x="110" y="143" width="100" height="71">
<path d="M111.033 172.217C108.601 191.423 128.706 209.788 155.941 213.239C183.176 216.687 207.225 203.915 209.657 184.709C212.09 165.503 191.984 147.138 164.75 143.687C137.515 140.239 113.466 153.011 111.033 172.217Z" fill="white"/>
</mask>
<g mask="url(#mask15_82_4724)">
<path d="M106.63 206.993L115.439 137.444L214.057 149.933L205.248 219.483L106.63 206.993Z" fill="white"/>
</g>
</g>
</g>
</g>
</g>
</g>
</g>
<mask id="mask16_82_4724" style="mask-type:luminance" maskUnits="userSpaceOnUse" x="110" y="142" width="101" height="73">
<path d="M110.482 142.729H210.377V214.284H110.482V142.729Z" fill="white"/>
</mask>
<g mask="url(#mask16_82_4724)">
<mask id="mask17_82_4724" style="mask-type:luminance" maskUnits="userSpaceOnUse" x="106" y="137" width="109" height="83">
<path d="M106.63 206.995L115.444 137.413L214.019 149.897L205.207 219.479L106.63 206.995Z" fill="white"/>
</mask>
<g mask="url(#mask17_82_4724)">
<mask id="mask18_82_4724" style="mask-type:luminance" maskUnits="userSpaceOnUse" x="106" y="137" width="109" height="83">
<path d="M106.631 206.996L115.448 137.383L214.761 149.961L205.944 219.574L106.631 206.996Z" fill="white"/>
</mask>
<g mask="url(#mask18_82_4724)">
<mask id="mask19_82_4724" style="mask-type:luminance" maskUnits="userSpaceOnUse" x="110" y="143" width="100" height="71">
<path d="M111.038 172.225C108.605 191.429 128.708 209.791 155.94 213.239C183.172 216.69 207.218 203.918 209.651 184.715C212.083 165.512 191.981 147.147 164.749 143.698C137.517 140.25 113.47 153.022 111.038 172.225Z" fill="white"/>
</mask>
<g mask="url(#mask19_82_4724)">
<path d="M111.036 172.224C108.603 191.428 128.706 209.79 155.938 213.238C183.17 216.689 207.216 203.917 209.649 184.714C212.081 165.51 191.978 147.146 164.747 143.697C137.515 140.249 113.468 153.021 111.036 172.224Z" stroke="black" stroke-width="3.18812"/>
</g>
</g>
</g>
</g>
<mask id="mask20_82_4724" style="mask-type:luminance" maskUnits="userSpaceOnUse" x="112" y="132" width="100" height="72">
<path d="M112.605 132.101H211.791V203.656H112.605V132.101Z" fill="white"/>
</mask>
<g mask="url(#mask20_82_4724)">
<mask id="mask21_82_4724" style="mask-type:luminance" maskUnits="userSpaceOnUse" x="108" y="126" width="109" height="83">
<path d="M108.513 196.469L117.322 126.92L216.211 139.445L207.402 208.995L108.513 196.469Z" fill="white"/>
</mask>
<g mask="url(#mask21_82_4724)">
<mask id="mask22_82_4724" style="mask-type:luminance" maskUnits="userSpaceOnUse" x="112" y="132" width="100" height="72">
<path d="M112.916 161.695C110.484 180.899 130.589 199.264 157.824 202.715C185.058 206.163 209.108 193.391 211.54 174.185C213.973 154.979 193.867 136.614 166.633 133.165C139.398 129.714 115.349 142.489 112.916 161.695Z" fill="white"/>
</mask>
<g mask="url(#mask22_82_4724)">
<mask id="mask23_82_4724" style="mask-type:luminance" maskUnits="userSpaceOnUse" x="112" y="132" width="100" height="72">
<path d="M211.791 132.101H112.605V203.656H211.791V132.101Z" fill="white"/>
</mask>
<g mask="url(#mask23_82_4724)">
<mask id="mask24_82_4724" style="mask-type:luminance" maskUnits="userSpaceOnUse" x="112" y="132" width="100" height="72">
<path d="M112.603 132.101H211.788V203.656H112.603V132.101Z" fill="white"/>
</mask>
<g mask="url(#mask24_82_4724)">
<mask id="mask25_82_4724" style="mask-type:luminance" maskUnits="userSpaceOnUse" x="108" y="126" width="109" height="83">
<path d="M108.51 196.469L117.319 126.92L216.209 139.445L207.4 208.995L108.51 196.469Z" fill="white"/>
</mask>
<g mask="url(#mask25_82_4724)">
<mask id="mask26_82_4724" style="mask-type:luminance" maskUnits="userSpaceOnUse" x="112" y="132" width="100" height="72">
<path d="M112.913 161.695C110.48 180.899 130.586 199.264 157.82 202.715C185.055 206.163 209.104 193.391 211.537 174.185C213.969 154.979 193.864 136.614 166.629 133.165C139.395 129.714 115.345 142.489 112.913 161.695Z" fill="white"/>
</mask>
<g mask="url(#mask26_82_4724)">
<path d="M108.51 196.469L117.319 126.92L215.938 139.409L207.129 208.961L108.51 196.469Z" fill="white"/>
</g>
</g>
</g>
</g>
</g>
</g>
</g>
<mask id="mask27_82_4724" style="mask-type:luminance" maskUnits="userSpaceOnUse" x="112" y="132" width="100" height="72">
<path d="M112.605 132.101H211.791V203.656H112.605V132.101Z" fill="white"/>
</mask>
<g mask="url(#mask27_82_4724)">
<mask id="mask28_82_4724" style="mask-type:luminance" maskUnits="userSpaceOnUse" x="108" y="126" width="108" height="83">
<path d="M108.513 196.468L117.327 126.886L215.901 139.37L207.09 208.955L108.513 196.468Z" fill="white"/>
</mask>
<g mask="url(#mask28_82_4724)">
<mask id="mask29_82_4724" style="mask-type:luminance" maskUnits="userSpaceOnUse" x="108" y="126" width="109" height="84">
<path d="M108.513 196.468L117.33 126.855L216.643 139.436L207.826 209.046L108.513 196.468Z" fill="white"/>
</mask>
<g mask="url(#mask29_82_4724)">
<mask id="mask30_82_4724" style="mask-type:luminance" maskUnits="userSpaceOnUse" x="112" y="132" width="100" height="72">
<path d="M112.912 161.698C110.48 180.902 130.583 199.264 157.814 202.715C185.046 206.163 209.093 193.391 211.525 174.188C213.958 154.984 193.855 136.622 166.623 133.171C139.391 129.723 115.345 142.495 112.912 161.698Z" fill="white"/>
</mask>
<g mask="url(#mask30_82_4724)">
<path d="M112.913 161.698C110.48 180.902 130.583 199.264 157.815 202.715C185.047 206.163 209.093 193.391 211.526 174.188C213.959 154.985 193.856 136.622 166.624 133.171C139.392 129.723 115.345 142.495 112.913 161.698Z" stroke="black" stroke-width="3.18812"/>
</g>
</g>
</g>
</g>
<mask id="mask31_82_4724" style="mask-type:luminance" maskUnits="userSpaceOnUse" x="124" y="142" width="75" height="54">
<path d="M124.649 142.729H198.33V195.155H124.649V142.729Z" fill="white"/>
</mask>
<g mask="url(#mask31_82_4724)">
<mask id="mask32_82_4724" style="mask-type:luminance" maskUnits="userSpaceOnUse" x="122" y="139" width="80" height="61">
<path d="M122.032 190.102L128.5 139.048L201.093 148.241L194.626 199.296L122.032 190.102Z" fill="white"/>
</mask>
<g mask="url(#mask32_82_4724)">
<mask id="mask33_82_4724" style="mask-type:luminance" maskUnits="userSpaceOnUse" x="125" y="143" width="73" height="53">
<path d="M125.273 164.575C123.485 178.672 138.244 192.156 158.236 194.688C178.228 197.22 195.885 187.844 197.67 173.744C199.455 159.646 184.696 146.166 164.704 143.634C144.711 141.101 127.058 150.478 125.273 164.575Z" fill="white"/>
</mask>
<g mask="url(#mask33_82_4724)">
<mask id="mask34_82_4724" style="mask-type:luminance" maskUnits="userSpaceOnUse" x="124" y="142" width="75" height="54">
<path d="M198.326 142.729H124.646V195.155H198.326V142.729Z" fill="white"/>
</mask>
<g mask="url(#mask34_82_4724)">
<mask id="mask35_82_4724" style="mask-type:luminance" maskUnits="userSpaceOnUse" x="124" y="142" width="75" height="54">
<path d="M124.644 142.729H198.325V195.155H124.644V142.729Z" fill="white"/>
</mask>
<g mask="url(#mask35_82_4724)">
<mask id="mask36_82_4724" style="mask-type:luminance" maskUnits="userSpaceOnUse" x="122" y="139" width="80" height="61">
<path d="M122.026 190.102L128.494 139.048L201.087 148.241L194.62 199.296L122.026 190.102Z" fill="white"/>
</mask>
<g mask="url(#mask36_82_4724)">
<mask id="mask37_82_4724" style="mask-type:luminance" maskUnits="userSpaceOnUse" x="125" y="143" width="73" height="53">
<path d="M125.268 164.575C123.48 178.672 138.239 192.156 158.231 194.688C178.223 197.22 195.88 187.844 197.665 173.744C199.45 159.646 184.691 146.166 164.699 143.634C144.706 141.101 127.053 150.478 125.268 164.575Z" fill="white"/>
</mask>
<g mask="url(#mask37_82_4724)">
<path d="M122.029 190.102L128.497 139.048L200.891 148.216L194.423 199.271L122.029 190.102Z" fill="black"/>
</g>
</g>
</g>
</g>
</g>
</g>
</g>
<mask id="mask38_82_4724" style="mask-type:luminance" maskUnits="userSpaceOnUse" x="124" y="142" width="75" height="54">
<path d="M124.649 142.729H198.33V195.155H124.649V142.729Z" fill="white"/>
</mask>
<g mask="url(#mask38_82_4724)">
<mask id="mask39_82_4724" style="mask-type:luminance" maskUnits="userSpaceOnUse" x="122" y="138" width="79" height="62">
<path d="M122.032 190.101L128.508 138.97L200.728 148.116L194.252 199.248L122.032 190.101Z" fill="white"/>
</mask>
<g mask="url(#mask39_82_4724)">
<mask id="mask40_82_4724" style="mask-type:luminance" maskUnits="userSpaceOnUse" x="122" y="139" width="80" height="61">
<path d="M122.03 190.102L128.503 139.001L201.409 148.233L194.936 199.334L122.03 190.102Z" fill="white"/>
</mask>
<g mask="url(#mask40_82_4724)">
<mask id="mask41_82_4724" style="mask-type:luminance" maskUnits="userSpaceOnUse" x="125" y="143" width="73" height="53">
<path d="M125.263 164.578C123.478 178.673 138.237 192.156 158.227 194.685C178.219 197.217 195.87 187.844 197.655 173.747C199.443 159.649 184.684 146.169 164.694 143.637C144.702 141.104 127.051 150.48 125.263 164.578Z" fill="white"/>
</mask>
<g mask="url(#mask41_82_4724)">
<path d="M125.263 164.577C123.478 178.672 138.237 192.155 158.226 194.685C178.218 197.217 195.869 187.843 197.654 173.746C199.442 159.648 184.683 146.168 164.694 143.636C144.702 141.104 127.051 150.48 125.263 164.577Z" stroke="black" stroke-width="3.18812"/>
</g>
</g>
</g>
</g>
<path d="M118.118 192.609L120.47 183.152" stroke="black" stroke-width="2.12541"/>
<path d="M129.074 203.028L133.605 194.399" stroke="black" stroke-width="2.12541"/>
<path d="M143.807 210.606L148.304 199.517" stroke="black" stroke-width="2.12541"/>
<path d="M163.266 212.898L163.706 203.162" stroke="black" stroke-width="2.12541"/>
<path d="M179.658 212.1L178.246 200.826" stroke="black" stroke-width="2.12541"/>
<path d="M195.103 205.159L194.193 195.434" stroke="black" stroke-width="2.12541"/>
<mask id="mask42_82_4724" style="mask-type:luminance" maskUnits="userSpaceOnUse" x="130" y="145" width="67" height="49">
<path d="M130.32 145.562H196.917V193.739H130.32V145.562Z" fill="white"/>
</mask>
<g mask="url(#mask42_82_4724)">
<mask id="mask43_82_4724" style="mask-type:luminance" maskUnits="userSpaceOnUse" x="128" y="142" width="72" height="56">
<path d="M128.119 189.241L134.061 142.332L199.478 150.618L193.536 197.526L128.119 189.241Z" fill="white"/>
</mask>
<g mask="url(#mask43_82_4724)">
<mask id="mask44_82_4724" style="mask-type:luminance" maskUnits="userSpaceOnUse" x="130" y="146" width="67" height="48">
<path d="M131.087 165.787C129.449 178.741 142.721 191.092 160.738 193.373C178.751 195.656 194.686 187.002 196.327 174.05C197.968 161.096 184.693 148.745 166.679 146.464C148.663 144.181 132.728 152.832 131.087 165.787Z" fill="white"/>
</mask>
<g mask="url(#mask44_82_4724)">
<mask id="mask45_82_4724" style="mask-type:luminance" maskUnits="userSpaceOnUse" x="130" y="145" width="67" height="49">
<path d="M196.918 145.562H130.321V193.739H196.918V145.562Z" fill="white"/>
</mask>
<g mask="url(#mask45_82_4724)">
<mask id="mask46_82_4724" style="mask-type:luminance" maskUnits="userSpaceOnUse" x="130" y="145" width="67" height="49">
<path d="M130.323 145.562H196.919V193.739H130.323V145.562Z" fill="white"/>
</mask>
<g mask="url(#mask46_82_4724)">
<mask id="mask47_82_4724" style="mask-type:luminance" maskUnits="userSpaceOnUse" x="128" y="142" width="72" height="56">
<path d="M128.129 189.241L134.071 142.332L199.488 150.618L193.546 197.526L128.129 189.241Z" fill="white"/>
</mask>
<g mask="url(#mask47_82_4724)">
<mask id="mask48_82_4724" style="mask-type:luminance" maskUnits="userSpaceOnUse" x="130" y="146" width="67" height="48">
<path d="M131.103 165.787C129.464 178.741 142.737 191.092 160.753 193.373C178.767 195.656 194.702 187.002 196.343 174.05C197.984 161.096 184.708 148.745 166.695 146.464C148.679 144.181 132.744 152.832 131.103 165.787Z" fill="white"/>
</mask>
<g mask="url(#mask48_82_4724)">
<path d="M128.131 189.241L134.073 142.332L199.308 150.593L193.366 197.504L128.131 189.241Z" fill="#A9C5E7"/>
</g>
</g>
</g>
</g>
</g>
</g>
</g>
<mask id="mask49_82_4724" style="mask-type:luminance" maskUnits="userSpaceOnUse" x="150" y="156" width="30" height="28">
<path d="M150.154 156.897H179.202V183.111H150.154V156.897Z" fill="white"/>
</mask>
<g mask="url(#mask49_82_4724)">
<mask id="mask50_82_4724" style="mask-type:luminance" maskUnits="userSpaceOnUse" x="146" y="154" width="37" height="32">
<path d="M146.803 173.146L155.208 154.787L182.262 167.172L173.86 185.531L146.803 173.146Z" fill="white"/>
</mask>
<g mask="url(#mask50_82_4724)">
<mask id="mask51_82_4724" style="mask-type:luminance" maskUnits="userSpaceOnUse" x="146" y="154" width="37" height="32">
<path d="M146.803 173.146L155.208 154.787L182.262 167.172L173.86 185.531L146.803 173.146Z" fill="white"/>
</mask>
<g mask="url(#mask51_82_4724)">
<path d="M167.38 162.962C165.91 163.654 164.38 164.94 162.83 166.955L158.327 164.893C159.141 163.8 160.176 162.912 161.433 162.231C161.596 162.095 161.762 161.963 161.756 161.75C161.834 161.578 161.828 161.365 161.695 161.199L159.75 157.9C159.614 157.734 159.481 157.568 159.268 157.576C159.097 157.496 158.842 157.59 158.718 157.637C156.548 158.946 154.816 160.667 153.567 162.713L152.613 162.278C152.267 162.12 151.802 162.22 151.605 162.654L150.692 164.644C150.534 164.99 150.637 165.455 151.068 165.654L152.02 166.089C151.362 167.987 151.34 169.864 151.912 171.591C152.491 173.531 153.816 174.975 155.809 175.886C157.799 176.799 159.548 176.865 161.142 176.129C162.609 175.44 164.015 174.198 165.526 172.271L170.2 174.411C169.181 175.725 167.767 176.755 165.921 177.585C165.755 177.718 165.589 177.851 165.512 178.025C165.432 178.197 165.44 178.41 165.573 178.576L167.225 182.054C167.366 182.434 167.839 182.544 168.218 182.406C171.113 181.111 173.388 179.115 175.048 176.63L176.695 177.383C177.041 177.543 177.506 177.441 177.702 177.009L178.616 175.017C178.773 174.671 178.671 174.206 178.239 174.007L176.595 173.254C177.332 171.184 177.354 169.307 176.822 167.495C176.244 165.555 174.957 164.024 172.965 163.111C170.847 162.248 169.013 162.14 167.38 162.962ZM170.762 168.386C171.279 168.624 171.633 168.995 171.783 169.587C171.882 170.052 171.858 170.564 171.794 171.162L167.897 169.379C168.6 168.757 169.06 168.444 169.311 168.35C169.768 168.037 170.241 168.148 170.762 168.386ZM157.713 170.581C157.196 170.342 156.927 170.01 156.78 169.421C156.639 169.042 156.623 168.616 156.736 168.142L160.373 169.808C159.794 170.381 159.376 170.608 159.124 170.702C158.618 170.89 158.233 170.819 157.713 170.581Z" fill="white"/>
</g>
</g>
</g>
<mask id="mask52_82_4724" style="mask-type:luminance" maskUnits="userSpaceOnUse" x="-183" y="-201" width="690" height="690">
<path d="M506.514 -200.172H-182.119V488.462H506.514V-200.172Z" fill="black" fill-opacity="0.13"/>
</mask>
<g mask="url(#mask52_82_4724)">
<mask id="mask53_82_4724" style="mask-type:luminance" maskUnits="userSpaceOnUse" x="204" y="112" width="107" height="81">
<path d="M310.974 112.972H204.703V192.32H310.974V112.972Z" fill="white"/>
</mask>
<g mask="url(#mask53_82_4724)">
<mask id="mask54_82_4724" style="mask-type:luminance" maskUnits="userSpaceOnUse" x="208" y="117" width="101" height="72">
<path d="M208.246 117.223H308.14V188.07H208.246V117.223Z" fill="white"/>
</mask>
<g mask="url(#mask54_82_4724)">
<mask id="mask55_82_4724" style="mask-type:luminance" maskUnits="userSpaceOnUse" x="205" y="113" width="106" height="79">
<path d="M211.468 113.345L310.724 121.974L304.641 191.974L205.383 183.345L211.468 113.345Z" fill="white"/>
</mask>
<g mask="url(#mask55_82_4724)">
<mask id="mask56_82_4724" style="mask-type:luminance" maskUnits="userSpaceOnUse" x="208" y="117" width="100" height="71">
<path d="M260.992 117.652C233.641 115.275 210.107 129.018 208.424 148.346C206.744 167.677 227.556 185.275 254.909 187.652C282.26 190.03 305.794 176.286 307.477 156.958C309.157 137.628 288.346 120.029 260.992 117.652Z" fill="white"/>
</mask>
<g mask="url(#mask56_82_4724)">
<mask id="mask57_82_4724" style="mask-type:luminance" maskUnits="userSpaceOnUse" x="208" y="117" width="101" height="72">
<path d="M308.139 117.223H208.245V188.07H308.139V117.223Z" fill="white"/>
</mask>
<g mask="url(#mask57_82_4724)">
<mask id="mask58_82_4724" style="mask-type:luminance" maskUnits="userSpaceOnUse" x="208" y="117" width="101" height="72">
<path d="M208.248 117.223H308.142V188.07H208.248V117.223Z" fill="white"/>
</mask>
<g mask="url(#mask58_82_4724)">
<mask id="mask59_82_4724" style="mask-type:luminance" maskUnits="userSpaceOnUse" x="205" y="113" width="106" height="79">
<path d="M211.47 113.345L310.725 121.974L304.643 191.974L205.385 183.345L211.47 113.345Z" fill="white"/>
</mask>
<g mask="url(#mask59_82_4724)">
<mask id="mask60_82_4724" style="mask-type:luminance" maskUnits="userSpaceOnUse" x="208" y="117" width="100" height="71">
<path d="M260.995 117.652C233.644 115.275 210.11 129.018 208.427 148.346C206.747 167.677 227.558 185.275 254.912 187.652C282.263 190.03 305.797 176.286 307.48 156.958C309.16 137.628 288.349 120.029 260.995 117.652Z" fill="white"/>
</mask>
<g mask="url(#mask60_82_4724)">
<path d="M211.47 113.345L310.454 121.952L304.369 191.949L205.385 183.345L211.47 113.345Z" fill="black"/>
</g>
</g>
</g>
</g>
</g>
</g>
</g>
</g>
</g>
<mask id="mask61_82_4724" style="mask-type:luminance" maskUnits="userSpaceOnUse" x="204" y="112" width="100" height="72">
<path d="M204.003 112.264H303.897V183.82H204.003V112.264Z" fill="white"/>
</mask>
<g mask="url(#mask61_82_4724)">
<mask id="mask62_82_4724" style="mask-type:luminance" maskUnits="userSpaceOnUse" x="200" y="106" width="108" height="83">
<path d="M200.115 176.401L208.924 106.852L307.814 119.377L299.005 188.926L200.115 176.401Z" fill="white"/>
</mask>
<g mask="url(#mask62_82_4724)">
<mask id="mask63_82_4724" style="mask-type:luminance" maskUnits="userSpaceOnUse" x="204" y="112" width="100" height="72">
<path d="M204.524 141.624C202.091 160.831 222.197 179.195 249.431 182.647C276.666 186.095 300.715 173.323 303.148 154.117C305.58 134.911 285.475 116.546 258.24 113.095C231.005 109.646 206.956 122.418 204.524 141.624Z" fill="white"/>
</mask>
<g mask="url(#mask63_82_4724)">
<mask id="mask64_82_4724" style="mask-type:luminance" maskUnits="userSpaceOnUse" x="204" y="112" width="100" height="72">
<path d="M303.898 112.264H204.004V183.82H303.898V112.264Z" fill="white"/>
</mask>
<g mask="url(#mask64_82_4724)">
<mask id="mask65_82_4724" style="mask-type:luminance" maskUnits="userSpaceOnUse" x="204" y="112" width="100" height="72">
<path d="M204.004 112.264H303.898V183.82H204.004V112.264Z" fill="white"/>
</mask>
<g mask="url(#mask65_82_4724)">
<mask id="mask66_82_4724" style="mask-type:luminance" maskUnits="userSpaceOnUse" x="200" y="106" width="108" height="83">
<path d="M200.122 176.401L208.931 106.852L307.821 119.378L299.012 188.927L200.122 176.401Z" fill="white"/>
</mask>
<g mask="url(#mask66_82_4724)">
<mask id="mask67_82_4724" style="mask-type:luminance" maskUnits="userSpaceOnUse" x="204" y="112" width="100" height="72">
<path d="M204.529 141.625C202.096 160.831 222.202 179.196 249.436 182.647C276.671 186.095 300.72 173.323 303.153 154.117C305.585 134.911 285.48 116.546 258.245 113.095C231.01 109.647 206.961 122.418 204.529 141.625Z" fill="white"/>
</mask>
<g mask="url(#mask67_82_4724)">
<path d="M200.125 176.401L208.934 106.852L307.553 119.342L298.744 188.891L200.125 176.401Z" fill="white"/>
</g>
</g>
</g>
</g>
</g>
</g>
</g>
<mask id="mask68_82_4724" style="mask-type:luminance" maskUnits="userSpaceOnUse" x="204" y="112" width="100" height="72">
<path d="M204.003 112.264H303.897V183.82H204.003V112.264Z" fill="white"/>
</mask>
<g mask="url(#mask68_82_4724)">
<mask id="mask69_82_4724" style="mask-type:luminance" maskUnits="userSpaceOnUse" x="200" y="106" width="108" height="83">
<path d="M200.115 176.401L208.927 106.819L307.504 119.303L298.69 188.885L200.115 176.401Z" fill="white"/>
</mask>
<g mask="url(#mask69_82_4724)">
<mask id="mask70_82_4724" style="mask-type:luminance" maskUnits="userSpaceOnUse" x="200" y="106" width="109" height="83">
<path d="M200.115 176.4L208.932 106.787L308.246 119.365L299.428 188.978L200.115 176.4Z" fill="white"/>
</mask>
<g mask="url(#mask70_82_4724)">
<mask id="mask71_82_4724" style="mask-type:luminance" maskUnits="userSpaceOnUse" x="204" y="112" width="100" height="72">
<path d="M204.522 141.629C202.089 160.833 222.192 179.195 249.424 182.643C276.656 186.094 300.702 173.322 303.135 154.119C305.567 134.916 285.462 116.551 258.233 113.102C231.001 109.654 206.954 122.426 204.522 141.629Z" fill="white"/>
</mask>
<g mask="url(#mask71_82_4724)">
<path d="M204.522 141.629C202.09 160.832 222.193 179.194 249.425 182.643C276.656 186.094 300.703 173.322 303.135 154.118C305.568 134.915 285.462 116.55 258.233 113.102C231.002 109.654 206.955 122.425 204.522 141.629Z" stroke="black" stroke-width="3.18812"/>
</g>
</g>
</g>
</g>
<mask id="mask72_82_4724" style="mask-type:luminance" maskUnits="userSpaceOnUse" x="205" y="101" width="101" height="73">
<path d="M205.416 101.637H305.31V173.192H205.416V101.637Z" fill="white"/>
</mask>
<g mask="url(#mask72_82_4724)">
<mask id="mask73_82_4724" style="mask-type:luminance" maskUnits="userSpaceOnUse" x="201" y="96" width="109" height="83">
<path d="M201.628 165.875L210.437 96.3262L309.329 108.852L300.52 178.401L201.628 165.875Z" fill="white"/>
</mask>
<g mask="url(#mask73_82_4724)">
<mask id="mask74_82_4724" style="mask-type:luminance" maskUnits="userSpaceOnUse" x="205" y="102" width="100" height="71">
<path d="M206.033 131.099C203.601 150.305 223.706 168.67 250.941 172.121C278.176 175.569 302.225 162.797 304.657 143.591C307.09 124.385 286.984 106.02 259.75 102.572C232.515 99.1207 208.466 111.895 206.033 131.099Z" fill="white"/>
</mask>
<g mask="url(#mask74_82_4724)">
<mask id="mask75_82_4724" style="mask-type:luminance" maskUnits="userSpaceOnUse" x="205" y="101" width="101" height="73">
<path d="M305.31 101.637H205.416V173.192H305.31V101.637Z" fill="white"/>
</mask>
<g mask="url(#mask75_82_4724)">
<mask id="mask76_82_4724" style="mask-type:luminance" maskUnits="userSpaceOnUse" x="205" y="101" width="101" height="73">
<path d="M205.416 101.637H305.31V173.192H205.416V101.637Z" fill="white"/>
</mask>
<g mask="url(#mask76_82_4724)">
<mask id="mask77_82_4724" style="mask-type:luminance" maskUnits="userSpaceOnUse" x="201" y="96" width="109" height="83">
<path d="M201.626 165.874L210.435 96.3252L309.327 108.851L300.519 178.4L201.626 165.874Z" fill="white"/>
</mask>
<g mask="url(#mask77_82_4724)">
<mask id="mask78_82_4724" style="mask-type:luminance" maskUnits="userSpaceOnUse" x="205" y="102" width="100" height="71">
<path d="M206.036 131.098C203.604 150.304 223.709 168.669 250.944 172.12C278.179 175.569 302.228 162.797 304.66 143.591C307.093 124.384 286.987 106.019 259.753 102.571C232.518 99.1202 208.469 111.895 206.036 131.098Z" fill="white"/>
</mask>
<g mask="url(#mask78_82_4724)">
<path d="M201.628 165.875L210.437 96.3257L309.055 108.815L300.246 178.364L201.628 165.875Z" fill="white"/>
</g>
</g>
</g>
</g>
</g>
</g>
</g>
<mask id="mask79_82_4724" style="mask-type:luminance" maskUnits="userSpaceOnUse" x="205" y="101" width="101" height="73">
<path d="M205.416 101.637H305.31V173.192H205.416V101.637Z" fill="white"/>
</mask>
<g mask="url(#mask79_82_4724)">
<mask id="mask80_82_4724" style="mask-type:luminance" maskUnits="userSpaceOnUse" x="201" y="96" width="109" height="83">
<path d="M201.628 165.875L210.442 96.293L309.017 108.777L300.205 178.362L201.628 165.875Z" fill="white"/>
</mask>
<g mask="url(#mask80_82_4724)">
<mask id="mask81_82_4724" style="mask-type:luminance" maskUnits="userSpaceOnUse" x="201" y="96" width="109" height="83">
<path d="M201.631 165.874L210.448 96.2617L309.761 108.843L300.944 178.453L201.631 165.874Z" fill="white"/>
</mask>
<g mask="url(#mask81_82_4724)">
<mask id="mask82_82_4724" style="mask-type:luminance" maskUnits="userSpaceOnUse" x="205" y="102" width="100" height="71">
<path d="M206.031 131.104C203.599 150.307 223.704 168.669 250.936 172.12C278.165 175.569 302.215 162.797 304.644 143.593C307.077 124.39 286.974 106.028 259.742 102.577C232.511 99.1286 208.464 111.9 206.031 131.104Z" fill="white"/>
</mask>
<g mask="url(#mask82_82_4724)">
<path d="M206.032 131.104C203.599 150.307 223.705 168.669 250.937 172.12C278.166 175.569 302.215 162.797 304.645 143.593C307.078 124.39 286.975 106.028 259.743 102.577C232.511 99.1285 208.465 111.9 206.032 131.104Z" stroke="black" stroke-width="3.18812"/>
</g>
</g>
</g>
</g>
<mask id="mask83_82_4724" style="mask-type:luminance" maskUnits="userSpaceOnUse" x="218" y="112" width="74" height="53">
<path d="M218.17 112.264H291.143V164.691H218.17V112.264Z" fill="white"/>
</mask>
<g mask="url(#mask83_82_4724)">
<mask id="mask84_82_4724" style="mask-type:luminance" maskUnits="userSpaceOnUse" x="215" y="108" width="80" height="61">
<path d="M215.16 159.508L221.625 108.453L294.218 117.647L287.751 168.701L215.16 159.508Z" fill="white"/>
</mask>
<g mask="url(#mask84_82_4724)">
<mask id="mask85_82_4724" style="mask-type:luminance" maskUnits="userSpaceOnUse" x="218" y="112" width="73" height="53">
<path d="M218.389 133.98C216.604 148.077 231.363 161.56 251.355 164.092C271.348 166.625 289.001 157.248 290.786 143.148C292.571 129.051 277.812 115.57 257.82 113.038C237.828 110.506 220.174 119.882 218.389 133.98Z" fill="white"/>
</mask>
<g mask="url(#mask85_82_4724)">
<mask id="mask86_82_4724" style="mask-type:luminance" maskUnits="userSpaceOnUse" x="218" y="112" width="74" height="53">
<path d="M291.143 112.265H218.171V164.691H291.143V112.265Z" fill="white"/>
</mask>
<g mask="url(#mask86_82_4724)">
<mask id="mask87_82_4724" style="mask-type:luminance" maskUnits="userSpaceOnUse" x="218" y="112" width="74" height="53">
<path d="M218.171 112.265H291.144V164.692H218.171V112.265Z" fill="white"/>
</mask>
<g mask="url(#mask87_82_4724)">
<mask id="mask88_82_4724" style="mask-type:luminance" maskUnits="userSpaceOnUse" x="215" y="108" width="80" height="61">
<path d="M215.159 159.507L221.624 108.453L294.217 117.647L287.75 168.701L215.159 159.507Z" fill="white"/>
</mask>
<g mask="url(#mask88_82_4724)">
<mask id="mask89_82_4724" style="mask-type:luminance" maskUnits="userSpaceOnUse" x="218" y="112" width="73" height="53">
<path d="M218.392 133.981C216.607 148.078 231.366 161.561 251.358 164.094C271.351 166.626 289.004 157.25 290.789 143.149C292.574 129.052 277.815 115.572 257.823 113.039C237.831 110.507 220.177 119.883 218.392 133.981Z" fill="white"/>
</mask>
<g mask="url(#mask89_82_4724)">
<path d="M215.159 159.507L221.624 108.453L294.018 117.622L287.55 168.676L215.159 159.507Z" fill="black"/>
</g>
</g>
</g>
</g>
</g>
</g>
</g>
<mask id="mask90_82_4724" style="mask-type:luminance" maskUnits="userSpaceOnUse" x="218" y="112" width="74" height="53">
<path d="M218.17 112.264H291.143V164.691H218.17V112.264Z" fill="white"/>
</mask>
<g mask="url(#mask90_82_4724)">
<mask id="mask91_82_4724" style="mask-type:luminance" maskUnits="userSpaceOnUse" x="215" y="108" width="79" height="61">
<path d="M215.16 159.507L221.636 108.375L293.853 117.522L287.377 168.653L215.16 159.507Z" fill="white"/>
</mask>
<g mask="url(#mask91_82_4724)">
<mask id="mask92_82_4724" style="mask-type:luminance" maskUnits="userSpaceOnUse" x="215" y="108" width="80" height="61">
<path d="M215.16 159.508L221.63 108.406L294.537 117.639L288.063 168.74L215.16 159.508Z" fill="white"/>
</mask>
<g mask="url(#mask92_82_4724)">
<mask id="mask93_82_4724" style="mask-type:luminance" maskUnits="userSpaceOnUse" x="218" y="112" width="73" height="53">
<path d="M218.389 133.983C216.604 148.078 231.361 161.561 251.353 164.091C271.342 166.623 288.996 157.25 290.781 143.152C292.566 129.055 277.807 115.574 257.818 113.042C237.828 110.51 220.174 119.886 218.389 133.983Z" fill="white"/>
</mask>
<g mask="url(#mask93_82_4724)">
<path d="M218.391 133.983C216.606 148.078 231.362 161.561 251.354 164.091C271.344 166.623 288.997 157.249 290.782 143.152C292.567 129.054 277.808 115.574 257.819 113.042C237.83 110.51 220.176 119.886 218.391 133.983Z" stroke="black" stroke-width="3.18812"/>
</g>
</g>
</g>
</g>
<path d="M211.315 161.52L213.357 151.989" stroke="black" stroke-width="2.12541"/>
<path d="M222.196 172.434L226.723 163.805" stroke="black" stroke-width="2.12541"/>
<path d="M237.116 179.956L241.423 168.922" stroke="black" stroke-width="2.12541"/>
<path d="M256.387 182.302L256.83 172.567" stroke="black" stroke-width="2.12541"/>
<path d="M272.67 179.932L271.732 170.232" stroke="black" stroke-width="2.12541"/>
<path d="M288.478 174.634L287.54 164.912" stroke="black" stroke-width="2.12541"/>
<mask id="mask94_82_4724" style="mask-type:luminance" maskUnits="userSpaceOnUse" x="223" y="115" width="67" height="49">
<path d="M223.841 115.097H289.729V163.273H223.841V115.097Z" fill="white"/>
</mask>
<g mask="url(#mask94_82_4724)">
<mask id="mask95_82_4724" style="mask-type:luminance" maskUnits="userSpaceOnUse" x="221" y="111" width="72" height="56">
<path d="M221.244 158.646L227.186 111.737L292.603 120.023L286.661 166.931L221.244 158.646Z" fill="white"/>
</mask>
<g mask="url(#mask95_82_4724)">
<mask id="mask96_82_4724" style="mask-type:luminance" maskUnits="userSpaceOnUse" x="224" y="115" width="66" height="49">
<path d="M224.219 135.192C222.578 148.146 235.851 160.497 253.867 162.778C271.883 165.061 287.816 156.407 289.457 143.455C291.098 130.501 277.825 118.15 259.809 115.869C241.793 113.586 225.86 122.237 224.219 135.192Z" fill="white"/>
</mask>
<g mask="url(#mask96_82_4724)">
<mask id="mask97_82_4724" style="mask-type:luminance" maskUnits="userSpaceOnUse" x="223" y="115" width="67" height="49">
<path d="M289.73 115.097H223.842V163.273H289.73V115.097Z" fill="white"/>
</mask>
<g mask="url(#mask97_82_4724)">
<mask id="mask98_82_4724" style="mask-type:luminance" maskUnits="userSpaceOnUse" x="223" y="115" width="67" height="49">
<path d="M223.842 115.097H289.73V163.273H223.842V115.097Z" fill="white"/>
</mask>
<g mask="url(#mask98_82_4724)">
<mask id="mask99_82_4724" style="mask-type:luminance" maskUnits="userSpaceOnUse" x="221" y="111" width="72" height="56">
<path d="M221.246 158.646L227.187 111.738L292.605 120.023L286.663 166.932L221.246 158.646Z" fill="white"/>
</mask>
<g mask="url(#mask99_82_4724)">
<mask id="mask100_82_4724" style="mask-type:luminance" maskUnits="userSpaceOnUse" x="224" y="115" width="66" height="49">
<path d="M224.222 135.192C222.581 148.146 235.854 160.498 253.87 162.778C271.886 165.061 287.818 156.407 289.46 143.455C291.101 130.501 277.828 118.15 259.812 115.869C241.796 113.586 225.863 122.237 224.222 135.192Z" fill="white"/>
</mask>
<g mask="url(#mask100_82_4724)">
<path d="M221.249 158.646L227.191 111.738L292.425 119.999L286.484 166.91L221.249 158.646Z" fill="#A9C5E7"/>
</g>
</g>
</g>
</g>
</g>
</g>
</g>
<mask id="mask101_82_4724" style="mask-type:luminance" maskUnits="userSpaceOnUse" x="243" y="126" width="30" height="26">
<path d="M243.675 126.434H272.014V151.939H243.675V126.434Z" fill="white"/>
</mask>
<g mask="url(#mask101_82_4724)">
<mask id="mask102_82_4724" style="mask-type:luminance" maskUnits="userSpaceOnUse" x="239" y="124" width="37" height="31">
<path d="M239.93 142.551L248.332 124.191L275.389 136.573L266.984 154.935L239.93 142.551Z" fill="white"/>
</mask>
<g mask="url(#mask102_82_4724)">
<mask id="mask103_82_4724" style="mask-type:luminance" maskUnits="userSpaceOnUse" x="239" y="124" width="37" height="31">
<path d="M239.932 142.551L248.334 124.192L275.392 136.574L266.987 154.936L239.932 142.551Z" fill="white"/>
</mask>
<g mask="url(#mask103_82_4724)">
<path d="M260.507 132.366C259.04 133.058 257.507 134.345 255.958 136.36L251.455 134.298C252.271 133.205 253.304 132.317 254.56 131.636C254.726 131.5 254.892 131.367 254.884 131.154C254.964 130.983 254.956 130.77 254.823 130.604L252.877 127.305C252.745 127.139 252.609 126.973 252.396 126.981C252.224 126.901 251.972 126.995 251.845 127.042C249.675 128.351 247.946 130.072 246.695 132.117L245.743 131.683C245.397 131.525 244.929 131.625 244.733 132.059L243.822 134.049C243.662 134.395 243.764 134.86 244.196 135.059L245.148 135.494C244.489 137.392 244.47 139.269 245.04 140.995C245.618 142.935 246.947 144.38 248.936 145.291C250.929 146.204 252.678 146.27 254.272 145.534C255.739 144.845 257.145 143.602 258.653 141.676L263.33 143.815C262.309 145.13 260.895 146.159 259.049 146.99C258.886 147.123 258.719 147.255 258.639 147.43C258.559 147.601 258.567 147.814 258.7 147.98L260.355 151.459C260.496 151.838 260.967 151.949 261.346 151.808C264.241 150.515 266.515 148.52 268.176 146.035L269.823 146.788C270.168 146.948 270.633 146.846 270.833 146.414L271.743 144.422C271.901 144.076 271.801 143.611 271.367 143.411L269.723 142.659C270.462 140.589 270.481 138.712 269.95 136.9C269.371 134.96 268.085 133.426 266.092 132.516C263.975 131.652 262.14 131.545 260.507 132.366ZM263.889 137.791C264.409 138.029 264.761 138.4 264.91 138.989C265.01 139.457 264.985 139.969 264.921 140.566L261.025 138.784C261.728 138.162 262.187 137.849 262.439 137.755C262.896 137.442 263.369 137.553 263.889 137.791ZM250.843 139.985C250.323 139.747 250.055 139.415 249.908 138.826C249.767 138.447 249.753 138.02 249.864 137.547L253.5 139.213C252.922 139.786 252.504 140.013 252.252 140.107C251.748 140.295 251.361 140.223 250.843 139.985Z" fill="white"/>
</g>
</g>
</g>
<mask id="mask104_82_4724" style="mask-type:luminance" maskUnits="userSpaceOnUse" x="-183" y="-201" width="690" height="690">
<path d="M506.514 -200.172H-182.119V488.462H506.514V-200.172Z" fill="black" fill-opacity="0.13"/>
</mask>
<g mask="url(#mask104_82_4724)">
<mask id="mask105_82_4724" style="mask-type:luminance" maskUnits="userSpaceOnUse" x="23" y="95" width="107" height="81">
<path d="M129.612 95.9688H23.3418V175.317H129.612V95.9688Z" fill="white"/>
</mask>
<g mask="url(#mask105_82_4724)">
<mask id="mask106_82_4724" style="mask-type:luminance" maskUnits="userSpaceOnUse" x="26" y="99" width="101" height="73">
<path d="M26.1787 99.5117H126.073V171.067H26.1787V99.5117Z" fill="white"/>
</mask>
<g mask="url(#mask106_82_4724)">
<mask id="mask107_82_4724" style="mask-type:luminance" maskUnits="userSpaceOnUse" x="23" y="96" width="106" height="79">
<path d="M29.6257 96.1299L128.884 104.759L122.798 174.759L23.54 166.13L29.6257 96.1299Z" fill="white"/>
</mask>
<g mask="url(#mask107_82_4724)">
<mask id="mask108_82_4724" style="mask-type:luminance" maskUnits="userSpaceOnUse" x="26" y="100" width="100" height="71">
<path d="M79.1517 100.436C51.8008 98.059 28.2663 111.8 26.5865 131.13C24.9038 150.461 45.7152 168.056 73.0688 170.434C100.42 172.814 123.954 159.071 125.637 139.74C127.317 120.412 106.505 102.814 79.1517 100.436Z" fill="white"/>
</mask>
<g mask="url(#mask108_82_4724)">
<mask id="mask109_82_4724" style="mask-type:luminance" maskUnits="userSpaceOnUse" x="26" y="99" width="101" height="73">
<path d="M126.076 99.5127H26.1816V171.068H126.076V99.5127Z" fill="white"/>
</mask>
<g mask="url(#mask109_82_4724)">
<mask id="mask110_82_4724" style="mask-type:luminance" maskUnits="userSpaceOnUse" x="26" y="99" width="101" height="73">
<path d="M26.1836 99.5127H126.078V171.068H26.1836V99.5127Z" fill="white"/>
</mask>
<g mask="url(#mask110_82_4724)">
<mask id="mask111_82_4724" style="mask-type:luminance" maskUnits="userSpaceOnUse" x="23" y="96" width="106" height="79">
<path d="M29.6306 96.1309L128.888 104.76L122.803 174.76L23.5449 166.131L29.6306 96.1309Z" fill="white"/>
</mask>
<g mask="url(#mask111_82_4724)">
<mask id="mask112_82_4724" style="mask-type:luminance" maskUnits="userSpaceOnUse" x="26" y="100" width="100" height="71">
<path d="M79.1565 100.437C51.8057 98.06 28.2712 111.8 26.5913 131.131C24.9087 150.462 45.7201 168.057 73.0737 170.435C100.424 172.815 123.959 159.072 125.642 139.741C127.321 120.413 106.51 102.815 79.1565 100.437Z" fill="white"/>
</mask>
<g mask="url(#mask112_82_4724)">
<path d="M29.6306 96.1309L128.614 104.735L122.529 174.735L23.5449 166.131L29.6306 96.1309Z" fill="black"/>
</g>
</g>
</g>
</g>
</g>
</g>
</g>
</g>
</g>
<mask id="mask113_82_4724" style="mask-type:luminance" maskUnits="userSpaceOnUse" x="21" y="95" width="101" height="72">
<path d="M21.9229 95.2607H121.817V166.108H21.9229V95.2607Z" fill="white"/>
</mask>
<g mask="url(#mask113_82_4724)">
<mask id="mask114_82_4724" style="mask-type:luminance" maskUnits="userSpaceOnUse" x="18" y="89" width="108" height="83">
<path d="M18.2598 159.181L27.0686 89.6318L125.958 102.157L117.15 171.706L18.2598 159.181Z" fill="white"/>
</mask>
<g mask="url(#mask114_82_4724)">
<mask id="mask115_82_4724" style="mask-type:luminance" maskUnits="userSpaceOnUse" x="22" y="95" width="100" height="71">
<path d="M22.6603 124.408C20.2277 143.615 40.3334 161.979 67.568 165.428C94.8026 168.879 118.852 156.104 121.284 136.898C123.717 117.694 103.611 99.3296 76.3768 95.8786C49.145 92.4303 25.0929 105.202 22.6603 124.408Z" fill="white"/>
</mask>
<g mask="url(#mask115_82_4724)">
<mask id="mask116_82_4724" style="mask-type:luminance" maskUnits="userSpaceOnUse" x="21" y="95" width="101" height="72">
<path d="M121.811 95.2617H21.917V166.109H121.811V95.2617Z" fill="white"/>
</mask>
<g mask="url(#mask116_82_4724)">
<mask id="mask117_82_4724" style="mask-type:luminance" maskUnits="userSpaceOnUse" x="21" y="95" width="101" height="72">
<path d="M21.916 95.2627H121.81V166.11H21.916V95.2627Z" fill="white"/>
</mask>
<g mask="url(#mask117_82_4724)">
<mask id="mask118_82_4724" style="mask-type:luminance" maskUnits="userSpaceOnUse" x="18" y="89" width="108" height="83">
<path d="M18.2529 159.181L27.0618 89.6323L125.952 102.158L117.143 171.707L18.2529 159.181Z" fill="white"/>
</mask>
<g mask="url(#mask118_82_4724)">
<mask id="mask119_82_4724" style="mask-type:luminance" maskUnits="userSpaceOnUse" x="22" y="95" width="100" height="71">
<path d="M22.6535 124.409C20.2209 143.615 40.3265 161.98 67.5611 165.428C94.7957 168.879 118.845 156.105 121.278 136.898C123.71 117.695 103.605 99.3301 76.37 95.8791C49.1381 92.4308 25.0861 105.203 22.6535 124.409Z" fill="white"/>
</mask>
<g mask="url(#mask119_82_4724)">
<path d="M18.25 159.181L27.0588 89.6323L125.677 102.125L116.869 171.674L18.25 159.181Z" fill="white"/>
</g>
</g>
</g>
</g>
</g>
</g>
</g>
<mask id="mask120_82_4724" style="mask-type:luminance" maskUnits="userSpaceOnUse" x="21" y="95" width="101" height="72">
<path d="M21.9229 95.2607H121.817V166.108H21.9229V95.2607Z" fill="white"/>
</mask>
<g mask="url(#mask120_82_4724)">
<mask id="mask121_82_4724" style="mask-type:luminance" maskUnits="userSpaceOnUse" x="18" y="89" width="108" height="83">
<path d="M18.2598 159.182L27.0714 89.5996L125.648 102.086L116.834 171.669L18.2598 159.182Z" fill="white"/>
</mask>
<g mask="url(#mask121_82_4724)">
<mask id="mask122_82_4724" style="mask-type:luminance" maskUnits="userSpaceOnUse" x="18" y="89" width="109" height="83">
<path d="M18.2568 159.182L27.074 89.5723L126.387 102.15L117.57 171.763L18.2568 159.182Z" fill="white"/>
</mask>
<g mask="url(#mask122_82_4724)">
<mask id="mask123_82_4724" style="mask-type:luminance" maskUnits="userSpaceOnUse" x="22" y="95" width="100" height="71">
<path d="M22.6623 124.41C20.2297 143.614 40.3326 161.979 67.5644 165.427C94.7963 168.875 118.843 156.103 121.275 136.9C123.708 117.699 103.602 99.3345 76.3733 95.8862C49.1414 92.4352 25.0949 105.207 22.6623 124.41Z" fill="white"/>
</mask>
<g mask="url(#mask123_82_4724)">
<path d="M22.6609 124.411C20.2283 143.614 40.3312 161.979 67.563 165.427C94.7949 168.875 118.841 156.104 121.274 136.9C123.707 117.699 103.601 99.3345 76.3719 95.8863C49.14 92.4353 25.0935 105.207 22.6609 124.411Z" stroke="black" stroke-width="3.18812"/>
</g>
</g>
</g>
</g>
<mask id="mask124_82_4724" style="mask-type:luminance" maskUnits="userSpaceOnUse" x="23" y="84" width="101" height="72">
<path d="M23.3418 84.6338H123.236V155.481H23.3418V84.6338Z" fill="white"/>
</mask>
<g mask="url(#mask124_82_4724)">
<mask id="mask125_82_4724" style="mask-type:luminance" maskUnits="userSpaceOnUse" x="19" y="79" width="109" height="83">
<path d="M19.7773 148.66L28.5889 79.1108L127.479 91.6336L118.67 161.186L19.7773 148.66Z" fill="white"/>
</mask>
<g mask="url(#mask125_82_4724)">
<mask id="mask126_82_4724" style="mask-type:luminance" maskUnits="userSpaceOnUse" x="23" y="84" width="101" height="72">
<path d="M24.1838 113.884C21.7512 133.09 41.8568 151.455 69.0914 154.904C96.326 158.355 120.375 145.583 122.808 126.377C125.24 107.17 105.135 88.8054 77.9002 85.3544C50.6656 81.9061 26.6164 94.678 24.1838 113.884Z" fill="white"/>
</mask>
<g mask="url(#mask126_82_4724)">
<mask id="mask127_82_4724" style="mask-type:luminance" maskUnits="userSpaceOnUse" x="23" y="84" width="101" height="72">
<path d="M123.233 84.6353H23.3389V155.482H123.233V84.6353Z" fill="white"/>
</mask>
<g mask="url(#mask127_82_4724)">
<mask id="mask128_82_4724" style="mask-type:luminance" maskUnits="userSpaceOnUse" x="23" y="84" width="101" height="72">
<path d="M23.3379 84.6348H123.232V155.482H23.3379V84.6348Z" fill="white"/>
</mask>
<g mask="url(#mask128_82_4724)">
<mask id="mask129_82_4724" style="mask-type:luminance" maskUnits="userSpaceOnUse" x="19" y="79" width="109" height="83">
<path d="M19.7773 148.661L28.5889 79.1118L127.479 91.6346L118.67 161.186L19.7773 148.661Z" fill="white"/>
</mask>
<g mask="url(#mask129_82_4724)">
<mask id="mask130_82_4724" style="mask-type:luminance" maskUnits="userSpaceOnUse" x="23" y="84" width="101" height="72">
<path d="M24.1799 113.885C21.7473 133.091 41.8529 151.456 69.0875 154.904C96.3221 158.356 120.371 145.584 122.804 126.377C125.237 107.171 105.131 88.8064 77.8963 85.3554C50.6617 81.9071 26.6125 94.679 24.1799 113.885Z" fill="white"/>
</mask>
<g mask="url(#mask130_82_4724)">
<path d="M19.7754 148.661L28.587 79.1121L127.206 91.6016L118.397 161.151L19.7754 148.661Z" fill="white"/>
</g>
</g>
</g>
</g>
</g>
</g>
</g>
<mask id="mask131_82_4724" style="mask-type:luminance" maskUnits="userSpaceOnUse" x="23" y="84" width="101" height="72">
<path d="M23.3418 84.6338H123.236V155.481H23.3418V84.6338Z" fill="white"/>
</mask>
<g mask="url(#mask131_82_4724)">
<mask id="mask132_82_4724" style="mask-type:luminance" maskUnits="userSpaceOnUse" x="19" y="79" width="109" height="83">
<path d="M19.7764 148.659L28.5907 79.0771L127.165 91.5612L118.353 161.144L19.7764 148.659Z" fill="white"/>
</mask>
<g mask="url(#mask132_82_4724)">
<mask id="mask133_82_4724" style="mask-type:luminance" maskUnits="userSpaceOnUse" x="19" y="79" width="109" height="83">
<path d="M19.7832 148.66L28.6003 79.0469L127.914 91.625L119.096 161.238L19.7832 148.66Z" fill="white"/>
</mask>
<g mask="url(#mask133_82_4724)">
<mask id="mask134_82_4724" style="mask-type:luminance" maskUnits="userSpaceOnUse" x="23" y="84" width="101" height="72">
<path d="M24.1863 113.889C21.7565 133.092 41.8593 151.455 69.0912 154.903C96.3202 158.354 120.369 145.582 122.802 126.379C125.232 107.175 105.129 88.8102 77.8972 85.362C50.6682 81.9137 26.6189 94.6856 24.1863 113.889Z" fill="white"/>
</mask>
<g mask="url(#mask134_82_4724)">
<path d="M24.184 113.889C21.7541 133.092 41.857 151.454 69.0889 154.903C96.318 158.354 120.367 145.582 122.797 126.378C125.23 107.175 105.127 88.8099 77.8949 85.3617C50.6658 81.9134 26.6166 94.6853 24.184 113.889Z" stroke="black" stroke-width="3.18812"/>
</g>
</g>
</g>
</g>
<mask id="mask135_82_4724" style="mask-type:luminance" maskUnits="userSpaceOnUse" x="36" y="95" width="74" height="53">
<path d="M36.0928 95.2607H109.774V147.688H36.0928V95.2607Z" fill="white"/>
</mask>
<g mask="url(#mask135_82_4724)">
<mask id="mask136_82_4724" style="mask-type:luminance" maskUnits="userSpaceOnUse" x="33" y="91" width="80" height="61">
<path d="M33.3105 142.291L39.7753 91.2344L112.369 100.431L105.901 151.485L33.3105 142.291Z" fill="white"/>
</mask>
<g mask="url(#mask136_82_4724)">
<mask id="mask137_82_4724" style="mask-type:luminance" maskUnits="userSpaceOnUse" x="36" y="95" width="74" height="53">
<path d="M36.5408 116.762C34.7558 130.862 49.5147 144.342 69.5068 146.874C89.499 149.407 107.153 140.03 108.938 125.933C110.723 111.835 95.9638 98.3524 75.9716 95.8202C55.9795 93.2879 38.3258 102.664 36.5408 116.762Z" fill="white"/>
</mask>
<g mask="url(#mask137_82_4724)">
<mask id="mask138_82_4724" style="mask-type:luminance" maskUnits="userSpaceOnUse" x="36" y="95" width="74" height="53">
<path d="M109.771 95.2607H36.0898V147.688H109.771V95.2607Z" fill="white"/>
</mask>
<g mask="url(#mask138_82_4724)">
<mask id="mask139_82_4724" style="mask-type:luminance" maskUnits="userSpaceOnUse" x="36" y="95" width="74" height="53">
<path d="M36.0879 95.2607H109.769V147.688H36.0879V95.2607Z" fill="white"/>
</mask>
<g mask="url(#mask139_82_4724)">
<mask id="mask140_82_4724" style="mask-type:luminance" maskUnits="userSpaceOnUse" x="33" y="91" width="80" height="61">
<path d="M33.3057 142.291L39.7705 91.2344L112.364 100.431L105.896 151.485L33.3057 142.291Z" fill="white"/>
</mask>
<g mask="url(#mask140_82_4724)">
<mask id="mask141_82_4724" style="mask-type:luminance" maskUnits="userSpaceOnUse" x="36" y="95" width="74" height="53">
<path d="M36.5369 116.762C34.7519 130.862 49.5108 144.342 69.5029 146.874C89.4951 149.407 107.149 140.03 108.934 125.933C110.719 111.835 95.9599 98.3524 75.9677 95.8202C55.9756 93.2879 38.3219 102.664 36.5369 116.762Z" fill="white"/>
</mask>
<g mask="url(#mask141_82_4724)">
<path d="M33.3047 142.291L39.7695 91.2344L112.164 100.406L105.696 151.46L33.3047 142.291Z" fill="black"/>
</g>
</g>
</g>
</g>
</g>
</g>
</g>
<mask id="mask142_82_4724" style="mask-type:luminance" maskUnits="userSpaceOnUse" x="36" y="95" width="74" height="53">
<path d="M36.0928 95.2607H109.774V147.688H36.0928V95.2607Z" fill="white"/>
</mask>
<g mask="url(#mask142_82_4724)">
<mask id="mask143_82_4724" style="mask-type:luminance" maskUnits="userSpaceOnUse" x="33" y="91" width="80" height="61">
<path d="M33.3086 142.291L39.7845 91.1562L112.001 100.303L105.526 151.437L33.3086 142.291Z" fill="white"/>
</mask>
<g mask="url(#mask143_82_4724)">
<mask id="mask144_82_4724" style="mask-type:luminance" maskUnits="userSpaceOnUse" x="33" y="91" width="80" height="61">
<path d="M33.3105 142.289L39.7809 91.1875L112.687 100.423L106.214 151.524L33.3105 142.289Z" fill="white"/>
</mask>
<g mask="url(#mask144_82_4724)">
<mask id="mask145_82_4724" style="mask-type:luminance" maskUnits="userSpaceOnUse" x="36" y="95" width="74" height="53">
<path d="M36.5399 116.765C34.7548 130.862 49.511 144.343 69.5031 146.875C89.4925 149.407 107.146 140.031 108.931 125.933C110.716 111.836 95.9573 98.3556 75.9679 95.8261C55.9785 93.2939 38.3249 102.667 36.5399 116.765Z" fill="white"/>
</mask>
<g mask="url(#mask145_82_4724)">
<path d="M36.5416 116.764C34.7566 130.861 49.5127 144.341 69.5049 146.874C89.4943 149.406 107.148 140.03 108.933 125.932C110.718 111.835 95.9591 98.3544 75.9697 95.8249C55.9803 93.2927 38.3266 102.666 36.5416 116.764Z" stroke="black" stroke-width="3.18812"/>
</g>
</g>
</g>
</g>
<path d="M29.4629 144.3L31.5053 134.771" stroke="black" stroke-width="2.12541"/>
<path d="M40.3442 155.219L44.8717 146.59" stroke="black" stroke-width="2.12541"/>
<path d="M56.3916 161.549L59.5686 152.336" stroke="black" stroke-width="2.12541"/>
<path d="M74.5332 165.084L74.976 155.348" stroke="black" stroke-width="2.12541"/>
<path d="M90.817 163.246L89.8788 153.543" stroke="black" stroke-width="2.12541"/>
<path d="M106.385 157.498L105.449 147.798" stroke="black" stroke-width="2.12541"/>
<mask id="mask146_82_4724" style="mask-type:luminance" maskUnits="userSpaceOnUse" x="41" y="98" width="68" height="49">
<path d="M41.7598 98.0947H108.356V146.271H41.7598V98.0947Z" fill="white"/>
</mask>
<g mask="url(#mask146_82_4724)">
<mask id="mask147_82_4724" style="mask-type:luminance" maskUnits="userSpaceOnUse" x="39" y="94" width="72" height="56">
<path d="M39.3887 141.43L45.3304 94.5186L110.748 102.804L104.806 149.716L39.3887 141.43Z" fill="white"/>
</mask>
<g mask="url(#mask147_82_4724)">
<mask id="mask148_82_4724" style="mask-type:luminance" maskUnits="userSpaceOnUse" x="42" y="98" width="66" height="48">
<path d="M42.3589 117.976C40.7178 130.928 53.9905 143.279 72.0067 145.562C90.0229 147.842 105.955 139.191 107.596 126.237C109.237 113.285 95.9646 100.934 77.9484 98.6508C59.9323 96.3704 44 105.022 42.3589 117.976Z" fill="white"/>
</mask>
<g mask="url(#mask148_82_4724)">
<mask id="mask149_82_4724" style="mask-type:luminance" maskUnits="userSpaceOnUse" x="41" y="98" width="68" height="49">
<path d="M108.359 98.0947H41.7627V146.271H108.359V98.0947Z" fill="white"/>
</mask>
<g mask="url(#mask149_82_4724)">
<mask id="mask150_82_4724" style="mask-type:luminance" maskUnits="userSpaceOnUse" x="41" y="98" width="68" height="49">
<path d="M41.7646 98.0947H108.361V146.271H41.7646V98.0947Z" fill="white"/>
</mask>
<g mask="url(#mask150_82_4724)">
<mask id="mask151_82_4724" style="mask-type:luminance" maskUnits="userSpaceOnUse" x="39" y="94" width="72" height="56">
<path d="M39.3906 141.43L45.3324 94.519L110.75 102.805L104.808 149.716L39.3906 141.43Z" fill="white"/>
</mask>
<g mask="url(#mask151_82_4724)">
<mask id="mask152_82_4724" style="mask-type:luminance" maskUnits="userSpaceOnUse" x="42" y="98" width="66" height="48">
<path d="M42.3677 117.976C40.7265 130.928 53.9993 143.279 72.0155 145.562C90.0317 147.843 105.964 139.192 107.605 126.237C109.246 113.285 95.9734 100.934 77.9572 98.6511C59.941 96.3707 44.0088 105.022 42.3677 117.976Z" fill="white"/>
</mask>
<g mask="url(#mask152_82_4724)">
<path d="M39.3926 141.43L45.3343 94.5188L110.569 102.782L104.627 149.691L39.3926 141.43Z" fill="#A9C5E7"/>
</g>
</g>
</g>
</g>
</g>
</g>
</g>
<mask id="mask153_82_4724" style="mask-type:luminance" maskUnits="userSpaceOnUse" x="61" y="109" width="30" height="26">
<path d="M61.5967 109.431H90.644V134.936H61.5967V109.431Z" fill="white"/>
</mask>
<g mask="url(#mask153_82_4724)">
<mask id="mask154_82_4724" style="mask-type:luminance" maskUnits="userSpaceOnUse" x="58" y="106" width="36" height="32">
<path d="M58.0723 125.331L66.4743 106.972L93.5318 119.356L85.127 137.715L58.0723 125.331Z" fill="white"/>
</mask>
<g mask="url(#mask154_82_4724)">
<mask id="mask155_82_4724" style="mask-type:luminance" maskUnits="userSpaceOnUse" x="58" y="106" width="36" height="32">
<path d="M58.0723 125.331L66.4743 106.972L93.5318 119.356L85.127 137.715L58.0723 125.331Z" fill="white"/>
</mask>
<g mask="url(#mask155_82_4724)">
<path d="M78.6493 115.15C77.1826 115.839 75.6494 117.129 74.0996 119.141L69.597 117.082C70.4134 115.989 71.4484 115.1 72.702 114.417C72.8681 114.284 73.0341 114.151 73.0258 113.938C73.1061 113.764 73.0978 113.551 72.965 113.387L71.0194 110.089C70.8866 109.922 70.751 109.756 70.5407 109.762C70.3663 109.684 70.1145 109.779 69.9872 109.826C67.8175 111.135 66.0878 112.856 64.8369 114.901L63.8849 114.467C63.539 114.306 63.074 114.409 62.8748 114.84L61.9643 116.833C61.8038 117.179 61.9062 117.644 62.3379 117.843L63.2899 118.277C62.6312 120.176 62.6119 122.05 63.182 123.776C63.7604 125.716 65.0888 127.164 67.0786 128.074C69.0711 128.985 70.8202 129.054 72.4142 128.318C73.881 127.626 75.2869 126.386 76.7979 124.46L81.4721 126.599C80.4509 127.914 79.0395 128.94 77.1936 129.771C77.0276 129.904 76.8615 130.039 76.7813 130.211C76.701 130.385 76.7093 130.598 76.8422 130.764L78.4971 134.243C78.6383 134.622 79.1087 134.733 79.4879 134.592C82.3826 133.299 84.6575 131.304 86.3207 128.819L87.9646 129.571C88.3105 129.729 88.7755 129.63 88.9747 129.195L89.8852 127.205C90.043 126.859 89.9433 126.392 89.5089 126.195L87.865 125.442C88.6039 123.372 88.6233 121.496 88.0919 119.683C87.5163 117.743 86.2266 116.21 84.2368 115.3C82.117 114.433 80.2821 114.328 78.6493 115.15ZM82.0312 120.572C82.5514 120.81 82.9029 121.181 83.0524 121.773C83.1548 122.238 83.1298 122.75 83.0634 123.35L79.1668 121.565C79.8698 120.945 80.3292 120.633 80.581 120.538C81.0404 120.223 81.5109 120.334 82.0312 120.572ZM68.9853 122.769C68.4651 122.531 68.1966 122.199 68.0499 121.607C67.9088 121.228 67.895 120.804 68.0057 120.331L71.6421 121.994C71.0665 122.57 70.6458 122.797 70.394 122.891C69.8903 123.079 69.5029 123.007 68.9853 122.769Z" fill="white"/>
</g>
</g>
</g>
<mask id="mask156_82_4724" style="mask-type:luminance" maskUnits="userSpaceOnUse" x="-183" y="-201" width="690" height="690">
<path d="M506.514 -200.172H-182.119V488.462H506.514V-200.172Z" fill="black" fill-opacity="0.13"/>
</mask>
<g mask="url(#mask156_82_4724)">
<mask id="mask157_82_4724" style="mask-type:luminance" maskUnits="userSpaceOnUse" x="118" y="68" width="91" height="68">
<path d="M208.255 68.3379H118.279V135.643H208.255V68.3379Z" fill="white"/>
</mask>
<g mask="url(#mask157_82_4724)">
<mask id="mask158_82_4724" style="mask-type:luminance" maskUnits="userSpaceOnUse" x="121" y="71" width="85" height="62">
<path d="M121.115 71.8799H205.423V132.1H121.115V71.8799Z" fill="white"/>
</mask>
<g mask="url(#mask158_82_4724)">
<mask id="mask159_82_4724" style="mask-type:luminance" maskUnits="userSpaceOnUse" x="118" y="68" width="90" height="67">
<path d="M124.024 68.6016L207.735 75.8772L202.604 134.913L118.894 127.637L124.024 68.6016Z" fill="white"/>
</mask>
<g mask="url(#mask159_82_4724)">
<mask id="mask160_82_4724" style="mask-type:luminance" maskUnits="userSpaceOnUse" x="121" y="72" width="85" height="60">
<path d="M165.793 72.2326C142.726 70.2262 122.875 81.8163 121.458 98.1195C120.041 114.42 137.592 129.262 160.662 131.268C183.729 133.272 203.577 121.682 204.994 105.381C206.411 89.0781 188.86 74.2362 165.793 72.2326Z" fill="white"/>
</mask>
<g mask="url(#mask160_82_4724)">
<mask id="mask161_82_4724" style="mask-type:luminance" maskUnits="userSpaceOnUse" x="121" y="71" width="85" height="62">
<path d="M205.429 71.8818H121.121V132.102H205.429V71.8818Z" fill="white"/>
</mask>
<g mask="url(#mask161_82_4724)">
<mask id="mask162_82_4724" style="mask-type:luminance" maskUnits="userSpaceOnUse" x="121" y="71" width="85" height="62">
<path d="M121.124 71.8818H205.432V132.102H121.124V71.8818Z" fill="white"/>
</mask>
<g mask="url(#mask162_82_4724)">
<mask id="mask163_82_4724" style="mask-type:luminance" maskUnits="userSpaceOnUse" x="118" y="68" width="90" height="67">
<path d="M124.033 68.6025L207.743 75.8782L202.613 134.914L118.902 127.638L124.033 68.6025Z" fill="white"/>
</mask>
<g mask="url(#mask163_82_4724)">
<mask id="mask164_82_4724" style="mask-type:luminance" maskUnits="userSpaceOnUse" x="121" y="72" width="85" height="60">
<path d="M165.802 72.2336C142.735 70.2272 122.884 81.8173 121.467 98.1204C120.05 114.421 137.601 129.263 160.671 131.269C183.738 133.273 203.586 121.683 205.003 105.382C206.42 89.0791 188.868 74.2372 165.802 72.2336Z" fill="white"/>
</mask>
<g mask="url(#mask164_82_4724)">
<path d="M124.033 68.6025L207.514 75.8588L202.383 134.894L118.902 127.638L124.033 68.6025Z" fill="black"/>
</g>
</g>
</g>
</g>
</g>
</g>
</g>
</g>
</g>
<mask id="mask165_82_4724" style="mask-type:luminance" maskUnits="userSpaceOnUse" x="117" y="67" width="85" height="61">
<path d="M117.569 67.6299H201.877V127.85H117.569V67.6299Z" fill="white"/>
</mask>
<g mask="url(#mask165_82_4724)">
<mask id="mask166_82_4724" style="mask-type:luminance" maskUnits="userSpaceOnUse" x="114" y="63" width="92" height="70">
<path d="M114.435 121.779L121.862 63.125L205.263 73.6884L197.835 132.342L114.435 121.779Z" fill="white"/>
</mask>
<g mask="url(#mask166_82_4724)">
<mask id="mask167_82_4724" style="mask-type:luminance" maskUnits="userSpaceOnUse" x="117" y="67" width="85" height="61">
<path d="M118.145 92.4506C116.092 108.649 133.051 124.138 156.018 127.047C178.988 129.955 199.27 119.184 201.321 102.986C203.372 86.7884 186.416 71.2989 163.448 68.3903C140.478 65.4817 120.196 76.2526 118.145 92.4506Z" fill="white"/>
</mask>
<g mask="url(#mask167_82_4724)">
<mask id="mask168_82_4724" style="mask-type:luminance" maskUnits="userSpaceOnUse" x="117" y="67" width="85" height="61">
<path d="M201.877 67.6299H117.569V127.85H201.877V67.6299Z" fill="white"/>
</mask>
<g mask="url(#mask168_82_4724)">
<mask id="mask169_82_4724" style="mask-type:luminance" maskUnits="userSpaceOnUse" x="117" y="67" width="85" height="61">
<path d="M117.57 67.6299H201.878V127.85H117.57V67.6299Z" fill="white"/>
</mask>
<g mask="url(#mask169_82_4724)">
<mask id="mask170_82_4724" style="mask-type:luminance" maskUnits="userSpaceOnUse" x="114" y="63" width="92" height="70">
<path d="M114.438 121.779L121.866 63.125L205.267 73.6884L197.839 132.342L114.438 121.779Z" fill="white"/>
</mask>
<g mask="url(#mask170_82_4724)">
<mask id="mask171_82_4724" style="mask-type:luminance" maskUnits="userSpaceOnUse" x="117" y="67" width="85" height="61">
<path d="M118.152 92.4526C116.098 108.651 133.057 124.14 156.025 127.049C178.995 129.957 199.277 119.186 201.328 102.988C203.379 86.7903 186.422 71.3008 163.455 68.3922C140.485 65.4836 120.203 76.2546 118.152 92.4526Z" fill="white"/>
</mask>
<g mask="url(#mask171_82_4724)">
<path d="M114.438 121.779L121.866 63.125L205.04 73.658L197.609 132.314L114.438 121.779Z" fill="white"/>
</g>
</g>
</g>
</g>
</g>
</g>
</g>
<mask id="mask172_82_4724" style="mask-type:luminance" maskUnits="userSpaceOnUse" x="117" y="67" width="85" height="61">
<path d="M117.569 67.6299H201.877V127.85H117.569V67.6299Z" fill="white"/>
</mask>
<g mask="url(#mask172_82_4724)">
<mask id="mask173_82_4724" style="mask-type:luminance" maskUnits="userSpaceOnUse" x="114" y="63" width="92" height="70">
<path d="M114.435 121.778L121.843 63.2656L205.133 73.8152L197.721 132.328L114.435 121.778Z" fill="white"/>
</mask>
<g mask="url(#mask173_82_4724)">
<mask id="mask174_82_4724" style="mask-type:luminance" maskUnits="userSpaceOnUse" x="114" y="63" width="92" height="70">
<path d="M114.435 121.777L121.871 63.0654L205.634 73.6759L198.197 132.388L114.435 121.777Z" fill="white"/>
</mask>
<g mask="url(#mask174_82_4724)">
<mask id="mask175_82_4724" style="mask-type:luminance" maskUnits="userSpaceOnUse" x="117" y="67" width="85" height="61">
<path d="M118.149 92.4535C116.098 108.649 133.051 124.138 156.019 127.047C178.988 129.955 199.268 119.184 201.319 102.986C203.373 86.7913 186.416 71.3018 163.449 68.3932C140.482 65.4846 120.199 76.2556 118.149 92.4535Z" fill="white"/>
</mask>
<g mask="url(#mask175_82_4724)">
<path d="M118.149 92.454C116.098 108.649 133.052 124.139 156.019 127.047C178.989 129.956 199.269 119.185 201.32 102.987C203.373 86.7917 186.417 71.3022 163.45 68.3936C140.482 65.485 120.2 76.256 118.149 92.454Z" stroke="black" stroke-width="3.18812"/>
</g>
</g>
</g>
</g>
<mask id="mask176_82_4724" style="mask-type:luminance" maskUnits="userSpaceOnUse" x="118" y="58" width="86" height="62">
<path d="M118.981 58.4199H203.289V119.348H118.981V58.4199Z" fill="white"/>
</mask>
<g mask="url(#mask176_82_4724)">
<mask id="mask177_82_4724" style="mask-type:luminance" maskUnits="userSpaceOnUse" x="115" y="54" width="92" height="70">
<path d="M115.705 112.903L123.136 54.249L206.536 64.8124L199.108 123.466L115.705 112.903Z" fill="white"/>
</mask>
<g mask="url(#mask177_82_4724)">
<mask id="mask178_82_4724" style="mask-type:luminance" maskUnits="userSpaceOnUse" x="119" y="59" width="84" height="60">
<path d="M119.426 83.5766C117.373 99.7745 134.329 115.264 157.299 118.173C180.269 121.081 200.552 110.308 202.602 94.1123C204.653 77.9143 187.697 62.4249 164.727 59.5162C141.76 56.6076 121.477 67.3786 119.426 83.5766Z" fill="white"/>
</mask>
<g mask="url(#mask178_82_4724)">
<mask id="mask179_82_4724" style="mask-type:luminance" maskUnits="userSpaceOnUse" x="118" y="58" width="86" height="62">
<path d="M203.287 58.4209H118.979V119.349H203.287V58.4209Z" fill="white"/>
</mask>
<g mask="url(#mask179_82_4724)">
<mask id="mask180_82_4724" style="mask-type:luminance" maskUnits="userSpaceOnUse" x="118" y="58" width="86" height="62">
<path d="M118.977 58.4209H203.285V119.349H118.977V58.4209Z" fill="white"/>
</mask>
<g mask="url(#mask180_82_4724)">
<mask id="mask181_82_4724" style="mask-type:luminance" maskUnits="userSpaceOnUse" x="115" y="54" width="92" height="70">
<path d="M115.699 112.904L123.13 54.25L206.53 64.8134L199.102 123.467L115.699 112.904Z" fill="white"/>
</mask>
<g mask="url(#mask181_82_4724)">
<mask id="mask182_82_4724" style="mask-type:luminance" maskUnits="userSpaceOnUse" x="119" y="59" width="84" height="60">
<path d="M119.421 83.5766C117.368 99.7745 134.324 115.264 157.294 118.173C180.264 121.081 200.547 110.308 202.598 94.1123C204.648 77.9143 187.692 62.4249 164.722 59.5162C141.755 56.6076 121.472 67.3786 119.421 83.5766Z" fill="white"/>
</mask>
<g mask="url(#mask182_82_4724)">
<path d="M115.702 112.903L123.133 54.249L206.303 64.782L198.875 123.438L115.702 112.903Z" fill="white"/>
</g>
</g>
</g>
</g>
</g>
</g>
</g>
<mask id="mask183_82_4724" style="mask-type:luminance" maskUnits="userSpaceOnUse" x="118" y="58" width="86" height="62">
<path d="M118.981 58.4199H203.289V119.348H118.981V58.4199Z" fill="white"/>
</mask>
<g mask="url(#mask183_82_4724)">
<mask id="mask184_82_4724" style="mask-type:luminance" maskUnits="userSpaceOnUse" x="115" y="54" width="92" height="70">
<path d="M115.706 112.904L123.117 54.3916L206.407 64.9412L198.996 123.454L115.706 112.904Z" fill="white"/>
</mask>
<g mask="url(#mask184_82_4724)">
<mask id="mask185_82_4724" style="mask-type:luminance" maskUnits="userSpaceOnUse" x="115" y="54" width="92" height="70">
<path d="M115.704 112.904L123.143 54.1919L206.903 64.8023L199.466 123.514L115.704 112.904Z" fill="white"/>
</mask>
<g mask="url(#mask185_82_4724)">
<mask id="mask186_82_4724" style="mask-type:luminance" maskUnits="userSpaceOnUse" x="119" y="59" width="84" height="60">
<path d="M119.425 83.579C117.371 99.7742 134.328 115.264 157.295 118.172C180.262 121.081 200.545 110.31 202.595 94.112C204.649 77.9168 187.693 62.4273 164.725 59.5187C141.758 56.6101 121.476 67.3811 119.425 83.579Z" fill="white"/>
</mask>
<g mask="url(#mask186_82_4724)">
<path d="M119.424 83.5785C117.37 99.7737 134.327 115.263 157.294 118.172C180.261 121.08 200.544 110.309 202.595 94.1114C204.648 77.9162 187.692 62.4267 164.725 59.5181C141.757 56.6095 121.475 67.3805 119.424 83.5785Z" stroke="black" stroke-width="3.18812"/>
</g>
</g>
</g>
</g>
<mask id="mask187_82_4724" style="mask-type:luminance" maskUnits="userSpaceOnUse" x="129" y="67" width="63" height="46">
<path d="M129.611 67.6299H191.248V112.264H129.611V67.6299Z" fill="white"/>
</mask>
<g mask="url(#mask187_82_4724)">
<mask id="mask188_82_4724" style="mask-type:luminance" maskUnits="userSpaceOnUse" x="127" y="64" width="67" height="52">
<path d="M127.115 107.532L132.567 64.4756L193.792 72.23L188.337 115.286L127.115 107.532Z" fill="white"/>
</mask>
<g mask="url(#mask188_82_4724)">
<mask id="mask189_82_4724" style="mask-type:luminance" maskUnits="userSpaceOnUse" x="129" y="67" width="63" height="45">
<path d="M129.846 86.0037C128.341 97.8927 140.789 109.264 157.648 111.398C174.51 113.534 189.399 105.628 190.905 93.7359C192.41 81.8469 179.962 70.4754 163.103 68.3417C146.24 66.2052 131.352 74.1119 129.846 86.0037Z" fill="white"/>
</mask>
<g mask="url(#mask189_82_4724)">
<mask id="mask190_82_4724" style="mask-type:luminance" maskUnits="userSpaceOnUse" x="129" y="67" width="63" height="46">
<path d="M191.244 67.6299H129.607V112.264H191.244V67.6299Z" fill="white"/>
</mask>
<g mask="url(#mask190_82_4724)">
<mask id="mask191_82_4724" style="mask-type:luminance" maskUnits="userSpaceOnUse" x="129" y="67" width="63" height="46">
<path d="M129.604 67.6299H191.241V112.264H129.604V67.6299Z" fill="white"/>
</mask>
<g mask="url(#mask191_82_4724)">
<mask id="mask192_82_4724" style="mask-type:luminance" maskUnits="userSpaceOnUse" x="127" y="64" width="67" height="52">
<path d="M127.109 107.532L132.561 64.4756L193.785 72.23L188.331 115.286L127.109 107.532Z" fill="white"/>
</mask>
<g mask="url(#mask192_82_4724)">
<mask id="mask193_82_4724" style="mask-type:luminance" maskUnits="userSpaceOnUse" x="129" y="67" width="63" height="45">
<path d="M129.84 86.0037C128.334 97.8927 140.782 109.264 157.642 111.398C174.504 113.534 189.393 105.628 190.898 93.7359C192.404 81.8469 179.956 70.4754 163.096 68.3417C146.234 66.2052 131.345 74.1119 129.84 86.0037Z" fill="white"/>
</mask>
<g mask="url(#mask193_82_4724)">
<path d="M127.111 107.532L132.563 64.4756L193.619 72.2079L188.164 115.264L127.111 107.532Z" fill="black"/>
</g>
</g>
</g>
</g>
</g>
</g>
</g>
<mask id="mask194_82_4724" style="mask-type:luminance" maskUnits="userSpaceOnUse" x="129" y="67" width="63" height="46">
<path d="M129.611 67.6299H191.248V112.264H129.611V67.6299Z" fill="white"/>
</mask>
<g mask="url(#mask194_82_4724)">
<mask id="mask195_82_4724" style="mask-type:luminance" maskUnits="userSpaceOnUse" x="127" y="64" width="67" height="52">
<path d="M127.115 107.532L132.589 64.3066L193.736 72.05L188.262 115.278L127.115 107.532Z" fill="white"/>
</mask>
<g mask="url(#mask195_82_4724)">
<mask id="mask196_82_4724" style="mask-type:luminance" maskUnits="userSpaceOnUse" x="127" y="64" width="68" height="52">
<path d="M127.12 107.531L132.578 64.4365L194.062 72.2242L188.605 115.319L127.12 107.531Z" fill="white"/>
</mask>
<g mask="url(#mask196_82_4724)">
<mask id="mask197_82_4724" style="mask-type:luminance" maskUnits="userSpaceOnUse" x="129" y="67" width="63" height="45">
<path d="M129.846 86.0067C128.341 97.8958 140.786 109.265 157.645 111.398C174.505 113.535 189.391 105.628 190.896 93.739C192.402 81.85 179.957 70.4813 163.097 68.3476C146.24 66.2111 131.352 74.1177 129.846 86.0067Z" fill="white"/>
</mask>
<g mask="url(#mask197_82_4724)">
<path d="M129.846 86.0061C128.341 97.8951 140.786 109.264 157.646 111.398C174.505 113.534 189.391 105.627 190.897 93.7383C192.402 81.8493 179.957 70.4806 163.098 68.3469C146.241 66.2104 131.352 74.117 129.846 86.0061Z" stroke="black" stroke-width="3.18812"/>
</g>
</g>
</g>
</g>
<path d="M123.88 109.23L125.604 101.194" stroke="black" stroke-width="2.12541"/>
<path d="M133.058 118.435L136.877 111.159" stroke="black" stroke-width="2.12541"/>
<path d="M146.595 123.904L149.271 116.133" stroke="black" stroke-width="2.12541"/>
<path d="M161.895 126.758L162.268 118.547" stroke="black" stroke-width="2.12541"/>
<path d="M175.63 124.759L174.838 116.579" stroke="black" stroke-width="2.12541"/>
<path d="M189.188 120.023L188.4 111.843" stroke="black" stroke-width="2.12541"/>
<mask id="mask198_82_4724" style="mask-type:luminance" maskUnits="userSpaceOnUse" x="134" y="69" width="57" height="42">
<path d="M134.571 69.7559H190.54V110.847H134.571V69.7559Z" fill="white"/>
</mask>
<g mask="url(#mask198_82_4724)">
<mask id="mask199_82_4724" style="mask-type:luminance" maskUnits="userSpaceOnUse" x="132" y="67" width="61" height="47">
<path d="M132.245 106.806L137.257 67.2451L192.429 74.233L187.417 113.794L132.245 106.806Z" fill="white"/>
</mask>
<g mask="url(#mask199_82_4724)">
<mask id="mask200_82_4724" style="mask-type:luminance" maskUnits="userSpaceOnUse" x="134" y="70" width="56" height="41">
<path d="M134.751 87.0241C133.368 97.95 144.562 108.367 159.755 110.29C174.949 112.216 188.388 104.919 189.771 93.9953C191.155 83.0694 179.961 72.6526 164.767 70.7293C149.574 68.8031 136.135 76.1009 134.751 87.0241Z" fill="white"/>
</mask>
<g mask="url(#mask200_82_4724)">
<mask id="mask201_82_4724" style="mask-type:luminance" maskUnits="userSpaceOnUse" x="134" y="69" width="57" height="42">
<path d="M190.537 69.7559H134.567V110.847H190.537V69.7559Z" fill="white"/>
</mask>
<g mask="url(#mask201_82_4724)">
<mask id="mask202_82_4724" style="mask-type:luminance" maskUnits="userSpaceOnUse" x="134" y="69" width="57" height="42">
<path d="M134.567 69.7559H190.537V110.847H134.567V69.7559Z" fill="white"/>
</mask>
<g mask="url(#mask202_82_4724)">
<mask id="mask203_82_4724" style="mask-type:luminance" maskUnits="userSpaceOnUse" x="132" y="67" width="61" height="47">
<path d="M132.249 106.806L137.261 67.2451L192.433 74.233L187.421 113.794L132.249 106.806Z" fill="white"/>
</mask>
<g mask="url(#mask203_82_4724)">
<mask id="mask204_82_4724" style="mask-type:luminance" maskUnits="userSpaceOnUse" x="134" y="70" width="56" height="41">
<path d="M134.757 87.0241C133.374 97.95 144.568 108.367 159.761 110.29C174.955 112.216 188.393 104.919 189.777 93.9953C191.161 83.0694 179.967 72.6526 164.773 70.7293C149.58 68.8031 136.141 76.1009 134.757 87.0241Z" fill="white"/>
</mask>
<g mask="url(#mask204_82_4724)">
<path d="M132.251 106.806L137.263 67.2451L192.28 74.2136L187.268 113.774L132.251 106.806Z" fill="#A9C5E7"/>
</g>
</g>
</g>
</g>
</g>
</g>
</g>
<mask id="mask205_82_4724" style="mask-type:luminance" maskUnits="userSpaceOnUse" x="150" y="79" width="25" height="23">
<path d="M150.865 79.6748H174.953V101.637H150.865V79.6748Z" fill="white"/>
</mask>
<g mask="url(#mask205_82_4724)">
<mask id="mask206_82_4724" style="mask-type:luminance" maskUnits="userSpaceOnUse" x="148" y="77" width="30" height="27">
<path d="M148.005 93.2294L155.081 77.7676L177.791 88.1622L170.715 103.624L148.005 93.2294Z" fill="white"/>
</mask>
<g mask="url(#mask206_82_4724)">
<mask id="mask207_82_4724" style="mask-type:luminance" maskUnits="userSpaceOnUse" x="148" y="77" width="30" height="27">
<path d="M148.005 93.2294L155.081 77.7676L177.791 88.1622L170.715 103.624L148.005 93.2294Z" fill="white"/>
</mask>
<g mask="url(#mask207_82_4724)">
<path d="M165.359 84.6428C164.12 85.2268 162.827 86.3116 161.521 88.0109L157.724 86.2729C158.41 85.3513 159.282 84.6013 160.342 84.0257C160.48 83.9122 160.622 83.8015 160.616 83.6217C160.682 83.475 160.677 83.2951 160.563 83.1567L158.922 80.3727C158.809 80.2343 158.698 80.0931 158.518 80.0987C158.372 80.0323 158.158 80.1125 158.053 80.1513C156.221 81.2582 154.763 82.7084 153.708 84.4353L152.903 84.0672C152.612 83.9316 152.22 84.0174 152.053 84.3827L151.284 86.0626C151.151 86.3559 151.234 86.7461 151.6 86.9149L152.405 87.283C151.849 88.8826 151.829 90.4628 152.311 91.9213C152.801 93.5568 153.919 94.7773 155.599 95.5467C157.278 96.3132 158.753 96.3714 160.098 95.7487C161.336 95.1675 162.523 94.1214 163.796 92.4969L167.739 94.3013C166.879 95.4083 165.686 96.2773 164.131 96.9774C163.99 97.0881 163.848 97.2016 163.782 97.3483C163.716 97.4949 163.721 97.6748 163.835 97.8132L165.229 100.749C165.348 101.068 165.747 101.162 166.065 101.043C168.509 99.9525 170.427 98.2698 171.827 96.1721L173.216 96.8086C173.507 96.9415 173.9 96.8557 174.066 96.4904L174.835 94.8105C174.971 94.5199 174.885 94.1269 174.52 93.9609L173.13 93.3244C173.753 91.5781 173.773 89.9979 173.324 88.4675C172.837 86.8319 171.75 85.5395 170.07 84.7702C168.285 84.0395 166.735 83.951 165.359 84.6428ZM168.21 89.2175C168.65 89.4195 168.946 89.7322 169.073 90.2304C169.156 90.6233 169.137 91.0551 169.082 91.5587L165.797 90.056C166.389 89.533 166.774 89.2673 166.987 89.187C167.374 88.9241 167.773 89.0182 168.21 89.2175ZM157.206 91.0689C156.766 90.8696 156.542 90.5901 156.418 90.092C156.299 89.771 156.288 89.4112 156.382 89.0127L159.448 90.4185C158.961 90.9029 158.61 91.0938 158.396 91.1713C157.97 91.3318 157.644 91.2709 157.206 91.0689Z" fill="white"/>
</g>
</g>
</g>
<path d="M280.929 72.3965L280.929 94.5777" stroke="black" stroke-width="5.31353"/>
<path d="M288.898 83.0233L280.928 72.3962L272.958 83.0233" stroke="black" stroke-width="5.31353" stroke-linecap="round" stroke-linejoin="round"/>
<path d="M184.199 32.0732L184.199 54.2545" stroke="black" stroke-width="5.31353"/>
<path d="M192.171 42.7003L184.201 32.0732L176.23 42.7003" stroke="black" stroke-width="5.31353" stroke-linecap="round" stroke-linejoin="round"/>
</g>
<defs>
<clipPath id="clip0_82_4724">
<rect width="333.188" height="242" fill="white" transform="translate(0.598633)"/>
</clipPath>
</defs>
</svg>
