<svg width="60" height="65" viewBox="0 0 60 65" fill="none" xmlns="http://www.w3.org/2000/svg">
<path d="M16.4032 12.4448C26.4759 10.8722 36.1122 17.1521 38.7378 27.0031L43.4277 44.5853L9.82546 49.833L4.66096 30.46C4.32843 29.2061 4.1691 27.9522 4.1691 26.7191C4.1691 19.788 9.19852 13.5705 16.4032 12.4448ZM13.1784 28.7385L16.2127 40.1066L33.1403 37.4638L30.3796 27.1209C29.0461 22.1261 24.1586 18.9394 19.0496 19.7361C15.4472 20.2972 12.9325 23.4077 12.9325 26.8715C12.9325 27.488 13.0122 28.1115 13.1784 28.7385Z" fill="black"/>
<path d="M-2.34092 47.6545L-2.34303 47.6535L-2.32948 47.6338C-2.22796 47.4659 -2.11727 47.304 -1.99547 47.1499L3.54017 39.1299L8.14348 44.3238L40.03 39.4042C42.3137 39.0519 44.5116 40.4231 45.1992 42.6292L51.9279 64.2185L58.8672 65.8764L53.2698 73.9767C52.58 75.0825 51.4313 75.902 50.0206 76.1196L10.9422 82.1488C8.65849 82.5011 6.46059 81.1299 5.77303 78.9238L-2.79383 51.4367C-3.20882 50.1052 -2.99444 48.7476 -2.34092 47.6545Z" fill="black"/>
<path d="M16.6794 73.8376L55.7579 67.8085C58.5791 67.3732 60.3527 64.5305 59.5033 61.8051L50.9364 34.3181C50.2489 32.112 48.051 30.7408 45.7673 31.0931L6.68879 37.1223C3.86754 37.5575 2.094 40.4003 2.9434 43.1256L11.5103 70.6127C12.1978 72.8188 14.3957 74.19 16.6794 73.8376Z" fill="#A7C6ED"/>
<path d="M25.4237 51.1766C25.9571 52.9867 27.1418 54.3774 28.5215 55.069V61.1689C28.5215 62.2359 29.4743 63.0526 30.5266 62.8871L34.5956 62.2542L35.887 62.0519L36.3174 61.9857C37.274 61.8348 37.7633 60.7495 37.2445 59.9327L33.536 54.0941C34.6618 52.7328 35.0739 50.6063 34.4374 48.4872C33.525 45.4115 30.7584 43.5241 28.2676 44.2673C27.6495 44.4512 27.1087 44.7823 26.6562 45.2201C26.0896 45.7683 25.6591 46.4857 25.4053 47.3025C25.0374 48.4614 25.019 49.8227 25.4237 51.1766Z" fill="white"/>
<path d="M25.4244 51.1769C25.9579 52.987 27.1426 54.3777 28.5222 55.0694V61.1693C28.5222 62.2362 29.4751 63.053 30.5273 62.8874L34.5964 62.2546L35.8877 62.0523L31.4471 55.062C32.4331 53.8663 32.7936 52.0047 32.2381 50.1505C31.436 47.4574 29.0152 45.8055 26.8335 46.453C26.2927 46.6149 25.8181 46.9055 25.4208 47.2881C25.4171 47.2918 25.4097 47.2992 25.406 47.3028C25.0381 48.4618 25.0197 49.823 25.4244 51.1769Z" fill="black"/>
<path d="M44.3583 4.16863C44.9799 3.32043 46.319 3.91667 46.1046 4.94614L45.243 9.08282C45.1648 9.45813 45.3131 9.84451 45.6223 10.0711L49.0306 12.5687C49.8788 13.1903 49.2826 14.5295 48.2531 14.315L44.1165 13.4534C43.7411 13.3752 43.3548 13.5235 43.1282 13.8328L40.6306 17.2411C40.009 18.0893 38.6698 17.493 38.8842 16.4636L39.7459 12.3269C39.8241 11.9516 39.6757 11.5652 39.3665 11.3386L35.9582 8.84099C35.11 8.21942 35.7062 6.88023 36.7357 7.09466L40.8724 7.9563C41.2477 8.03448 41.6341 7.88616 41.8607 7.57693L44.3583 4.16863Z" fill="#A7C6ED"/>
</svg>
