<svg width="174" height="37" viewBox="0 0 174 37" fill="none" xmlns="http://www.w3.org/2000/svg">
<g clip-path="url(#clip0_144_6964)">
<path d="M26.9102 7.62705L20.6015 12.9946C20.4998 13.0709 20.3726 13.02 20.3472 12.8928L19.3296 0.173525C19.3296 0.0208933 19.4823 -0.0554225 19.584 0.0463318L26.9102 7.37266C26.9865 7.44898 26.9611 7.55073 26.9102 7.62705ZM36.4751 16.963L29.1488 9.63667C29.0979 9.5858 28.9707 9.5858 28.9199 9.63667L23.527 15.9454C23.4507 16.0472 23.5016 16.1744 23.6287 16.1998L36.3479 17.2174C36.5006 17.2174 36.5769 17.0647 36.4751 16.963ZM9.58664 29.1735L16.913 36.4998C17.0147 36.6016 17.1928 36.5252 17.1673 36.3726L16.1498 23.6533C16.1498 23.5261 15.9972 23.4753 15.8954 23.5516L9.61208 28.9445C9.53576 29.0209 9.53576 29.1226 9.58664 29.1735ZM19.584 36.4998L26.9102 29.1735C26.9611 29.1226 26.9611 28.9954 26.9102 28.9445L20.6015 23.577C20.4998 23.5007 20.3726 23.5516 20.3472 23.6788L19.3296 36.3981C19.3296 36.5252 19.4823 36.6016 19.584 36.4998ZM16.913 0.071772L9.58664 7.39808C9.53576 7.44895 9.53576 7.57617 9.58664 7.62705L15.8954 13.02C15.9972 13.0963 16.1244 13.0454 16.1498 12.9183L17.1673 0.198965C17.1928 0.0463334 17.0147 -0.0299824 16.913 0.071772ZM23.527 20.6261L28.9199 26.9349C28.9707 27.0112 29.0725 27.0112 29.1488 26.9349L36.4751 19.6086C36.5769 19.5068 36.5006 19.3288 36.3479 19.3542L23.6287 20.3718C23.527 20.3718 23.4507 20.5244 23.527 20.6261ZM0.0471525 19.6086L7.37348 26.9349C7.42436 26.9858 7.55155 26.9858 7.60243 26.9349L12.97 20.6261C13.0463 20.5244 12.9954 20.3972 12.8682 20.3718L0.148907 19.3542C0.021714 19.3542 -0.0546019 19.5323 0.0471525 19.6086ZM7.37348 9.63667L0.0471525 16.963C-0.0546019 17.0647 0.021714 17.2428 0.174346 17.2174L12.8937 16.1998C13.0208 16.1998 13.0717 16.0472 12.9954 15.9454L7.60243 9.63667C7.52611 9.56036 7.42436 9.56036 7.37348 9.63667ZM65.755 7.49986L62.9313 9.02617C62.8804 9.05159 62.855 9.10246 62.855 9.17878V26.2735C62.855 26.3752 62.9313 26.4261 63.0076 26.4261H65.755C65.8567 26.4261 65.9076 26.3498 65.9076 26.2735V7.65246C65.933 7.52527 65.8567 7.44898 65.755 7.49986ZM81.7813 18.6928C82.1374 23.1954 78.3979 26.9349 73.8953 26.5788C70.3593 26.2989 67.4848 23.4244 67.205 19.8884C66.8488 15.3858 70.5883 11.6463 75.0909 12.0025C78.6269 12.3077 81.5014 15.1568 81.7813 18.6928ZM78.7541 19.863C79.1102 17.0647 76.7444 14.699 73.9462 15.0551C72.0383 15.3095 70.512 16.8358 70.2576 18.7437C69.9015 21.5419 72.2672 23.9077 75.0655 23.5516C76.9734 23.2972 78.4997 21.7709 78.7541 19.863ZM93.8646 13.0454C93.1014 12.5621 92.3892 12.206 91.4225 12.0533C87.2251 11.3919 83.155 14.4446 82.8243 18.6928C82.4936 22.9919 85.9786 26.6042 90.2014 26.6042C91.855 26.6042 92.9997 26.0445 93.8646 25.5358C93.9155 25.5103 93.9409 25.4595 93.9409 25.3832V22.2797C93.9409 22.127 93.7883 22.0507 93.6611 22.1525C92.9488 22.7376 91.9058 23.4753 90.4558 23.5516C88.2172 23.6788 86.233 22.0253 85.9532 19.8121C85.6225 17.2174 87.6576 14.9788 90.2014 14.9788C91.9313 14.9788 92.9234 15.7419 93.6611 16.3779C93.7629 16.4797 93.9409 16.4033 93.9409 16.2507V13.1726C93.9409 13.1218 93.9155 13.0709 93.8646 13.0454ZM102.056 18.2858L102.132 18.2095L107.754 12.384C107.83 12.3077 107.78 12.1805 107.652 12.1805H103.735C103.684 12.1805 103.633 12.206 103.608 12.2314L99.105 16.9121V7.60159C99.105 7.47439 98.9523 7.39808 98.8506 7.44896L96.0269 9.02617C95.976 9.05159 95.9506 9.10246 95.9506 9.17878V26.2735C95.9506 26.3752 96.0269 26.4516 96.1286 26.4516H98.9523C99.0541 26.4516 99.1304 26.3752 99.1304 26.2735V21.5165C99.1304 21.4656 99.1558 21.4402 99.1813 21.3893L99.8172 20.7279C99.8936 20.6516 100.021 20.6516 100.072 20.7279L104.473 26.3752C104.498 26.4261 104.549 26.4516 104.6 26.4516H108.161C108.314 26.4516 108.39 26.2989 108.288 26.1717L102.056 18.2858ZM115.589 17.9042C113.02 16.7595 112.842 16.556 112.664 16.2762C112.486 15.9963 112.486 15.7419 112.562 15.4876C112.715 15.0297 113.401 14.5463 114.19 14.6481C115.335 14.8007 116.149 15.4367 116.429 15.7165C116.505 15.7674 116.607 15.7928 116.683 15.7419L118.718 14.3428C118.794 14.2919 118.82 14.1902 118.744 14.1139C118.006 13.2744 116.429 11.977 114.012 11.977C112.689 11.977 111.315 12.4604 110.451 13.2998C109.687 14.0376 109.255 15.0042 109.255 15.9709C109.255 17.8279 110.273 18.8963 114.241 20.5753C115.157 20.9569 115.767 21.4147 115.92 21.9998C116.2 23.0937 115.004 23.8568 113.732 23.6788C113.401 23.6279 112.231 23.6533 111.214 22.0253C111.163 21.949 111.061 21.8981 110.959 21.949L108.492 23.2463C108.39 23.2972 108.365 23.399 108.415 23.4753C110.044 26.1972 112.333 26.6042 113.885 26.6042C119.1 26.6042 119.456 22.5595 118.998 21.1095C118.54 19.5577 117.421 18.7183 115.589 17.9042ZM155.655 17.9042C153.086 16.7595 152.908 16.556 152.73 16.2762C152.551 15.9963 152.551 15.7419 152.628 15.4876C152.78 15.0297 153.467 14.5463 154.256 14.6481C155.401 14.8007 156.215 15.4367 156.494 15.7165C156.571 15.7674 156.673 15.7928 156.749 15.7419L158.784 14.3428C158.86 14.2919 158.886 14.1902 158.809 14.1139C158.072 13.2744 156.494 11.977 154.078 11.977C152.755 11.977 151.381 12.4604 150.516 13.2998C149.753 14.0376 149.321 15.0042 149.321 15.9709C149.321 17.8279 150.338 18.8963 154.307 20.5753C155.223 20.9569 155.833 21.4147 155.986 21.9998C156.265 23.0937 155.07 23.8568 153.798 23.6788C153.467 23.6279 152.297 23.6533 151.28 22.0253C151.229 21.949 151.127 21.8981 151.025 21.949L148.558 23.2463C148.456 23.2972 148.43 23.399 148.481 23.4753C150.109 26.1972 152.399 26.6042 153.951 26.6042C159.165 26.6042 159.522 22.5595 159.064 21.1095C158.606 19.5577 157.487 18.7183 155.655 17.9042ZM133.854 19.2016L133.829 20.3972C133.829 20.499 133.752 20.5753 133.651 20.5753H123.526C123.857 22.356 125.18 23.5516 127.011 23.5516C128.97 23.5516 129.937 22.6104 130.191 22.2797C130.242 22.2288 130.318 22.2033 130.394 22.2288L132.938 23.4244C133.04 23.4753 133.065 23.6025 133.015 23.6788C131.666 25.4595 129.504 26.5279 127.291 26.5788C123.653 26.6805 120.626 23.8314 120.244 20.2191C119.736 15.513 122.865 11.977 127.189 11.977C130.827 11.977 133.854 15.0297 133.854 19.2016ZM130.598 17.8533C130.191 16.0726 128.894 14.9533 127.113 14.9533C125.332 14.9533 123.984 16.2253 123.475 17.8533H130.598ZM173.869 19.2016L173.844 20.3972C173.844 20.499 173.767 20.5753 173.665 20.5753H163.541C163.872 22.356 165.194 23.5516 167.026 23.5516C168.985 23.5516 169.951 22.6104 170.206 22.2797C170.257 22.2288 170.333 22.2033 170.409 22.2288L172.953 23.4244C173.055 23.4753 173.08 23.6025 173.03 23.6788C171.681 25.4595 169.519 26.5279 167.306 26.5788C163.668 26.6805 160.641 23.8314 160.259 20.2191C159.751 15.513 162.88 11.977 167.204 11.977C170.816 11.977 173.869 15.0297 173.869 19.2016ZM170.587 17.8533C170.18 16.0726 168.883 14.9533 167.102 14.9533C165.322 14.9533 163.973 16.2253 163.465 17.8533H170.587ZM61.6848 19.3033C61.6848 23.5261 58.683 26.6042 54.7655 26.6042C53.29 26.6042 51.7383 25.9682 50.6699 25.0779V26.2481C50.6699 26.3498 50.5936 26.4261 50.4918 26.4261H47.7444C47.6427 26.4261 47.5664 26.3498 47.5664 26.2481V9.15337C47.5664 9.10249 47.5918 9.02615 47.6427 9.00071L50.39 7.47439C50.4918 7.42352 50.6444 7.49986 50.6444 7.62705V13.4779C52.0181 12.3841 53.3155 11.9516 54.74 11.9516C58.683 11.977 61.6848 15.0805 61.6848 19.3033ZM58.5304 19.3033C58.5304 17.2174 57.3857 14.9788 54.7655 14.9788C54.74 14.9788 54.7146 14.9788 54.7146 14.9788C54.6637 14.9788 54.6129 14.9788 54.562 14.9788H54.5365C54.5111 14.9788 54.4857 14.9788 54.4602 14.9788C54.4093 14.9788 54.333 14.9788 54.2822 15.0042C54.2567 15.0042 54.2567 15.0042 54.2313 15.0042C54.1804 15.0042 54.1295 15.0297 54.0786 15.0297C52.4506 15.3095 50.7716 16.6832 50.7716 19.2779C50.7716 20.8805 51.6365 22.5595 53.1629 23.2718C53.6716 23.4753 54.2313 23.6025 54.7909 23.6025C56.5971 23.6025 58.5304 22.2542 58.5304 19.3033ZM142.3 11.977C141.511 11.977 140.799 12.1042 140.137 12.3586C139.476 12.613 138.916 12.9691 138.484 13.427V12.3332C138.484 12.2569 138.408 12.1805 138.331 12.1805H135.431C135.355 12.1805 135.279 12.2569 135.279 12.3332V26.2989C135.279 26.3752 135.355 26.4516 135.431 26.4516H138.28C138.357 26.4516 138.433 26.3752 138.433 26.2989V18.1586C138.433 16.6832 138.891 15.9454 139.4 15.4621C139.908 14.9788 140.723 14.7244 141.562 14.7244C142.325 14.7244 142.91 14.9279 143.292 15.3604C143.699 15.7928 143.902 16.3525 143.902 17.8025V26.2989C143.902 26.3752 143.979 26.4516 144.055 26.4516H146.955C147.031 26.4516 147.108 26.3752 147.108 26.2989V16.8104C147.108 15.2077 146.675 14.0121 145.785 13.1981C144.894 12.384 143.75 11.977 142.3 11.977Z" fill="#3D5678" fill-opacity="0.75"/>
</g>
<defs>
<clipPath id="clip0_144_6964">
<rect width="174" height="36.6316" fill="white"/>
</clipPath>
</defs>
</svg>
