<svg width="165" height="42" viewBox="0 0 165 42" fill="none" xmlns="http://www.w3.org/2000/svg">
<g clip-path="url(#clip0_144_6938)">
<mask id="mask0_144_6938" style="mask-type:luminance" maskUnits="userSpaceOnUse" x="0" y="0" width="166" height="42">
<path d="M165.001 0H0V41.8035H165.001V0Z" fill="white"/>
</mask>
<g mask="url(#mask0_144_6938)">
<path d="M18.1009 0L0 10.4509V31.3527L18.1009 41.8035L36.2019 31.3527V10.4509L18.1009 0ZM28.5334 26.9232L18.1043 32.9445L7.67512 26.9232V14.8804L18.1043 8.859L28.5334 14.8804V26.9232Z" fill="#3D5678" fill-opacity="0.75"/>
<path d="M56.062 31.3749C54.2645 31.3749 52.6543 30.9636 51.2362 30.1358C49.8166 29.3099 48.6962 28.1176 47.8753 26.5559C47.0543 24.994 46.6445 23.1146 46.6445 20.9157C46.6445 18.7169 47.0593 16.8072 47.8835 15.2404C48.7096 13.6753 49.8334 12.4814 51.2579 11.6604C52.681 10.8394 54.2829 10.4297 56.0638 10.4297C57.2208 10.4297 58.301 10.5952 59.2942 10.923C60.2892 11.2507 61.1738 11.7273 61.9496 12.3526C62.7255 12.978 63.3559 13.7422 63.8459 14.6451C64.3341 15.5481 64.6502 16.5748 64.7974 17.7269H60.7591C60.667 17.1433 60.4899 16.6216 60.2257 16.1584C59.9598 15.6986 59.6253 15.3056 59.2207 14.9812C58.8144 14.6568 58.3529 14.411 57.8396 14.2422C57.3228 14.0733 56.7611 13.9897 56.1491 13.9897C55.0722 13.9897 54.1241 14.2589 53.3014 14.7973C52.4804 15.3357 51.8382 16.12 51.3783 17.1517C50.9169 18.1817 50.686 19.4391 50.686 20.9157C50.686 22.3922 50.9185 23.6747 51.3833 24.7015C51.85 25.728 52.4887 26.5024 53.3064 27.0273C54.1241 27.5523 55.0672 27.8149 56.1323 27.8149C56.7259 27.8149 57.2777 27.7346 57.7877 27.5741C58.2976 27.4153 58.7575 27.1811 59.1638 26.8752C59.5686 26.5709 59.9096 26.1963 60.1838 25.7532C60.4582 25.3101 60.6504 24.8017 60.7591 24.2282H64.7974C64.6786 25.1847 64.3943 26.0942 63.9428 26.9521C63.4913 27.8083 62.8895 28.5691 62.1353 29.2296C61.3829 29.8917 60.4965 30.4117 59.4799 30.7981C58.4616 31.1809 57.3228 31.3732 56.0654 31.3732V31.3782L56.062 31.3749Z" fill="#3D5678" fill-opacity="0.75"/>
<path d="M70.8745 22.1946V31.0921H66.96V10.6953H70.7657V18.4558H70.958C71.3126 17.5711 71.8711 16.8722 72.6285 16.3605C73.3843 15.8505 74.3491 15.593 75.5162 15.593C76.5747 15.593 77.5028 15.8204 78.2938 16.2769C79.0879 16.7334 79.7049 17.3906 80.1414 18.2483C80.5795 19.1046 80.797 20.1429 80.797 21.3569V31.0887H76.8675V22.0141C76.8675 21.0275 76.6165 20.2599 76.1149 19.7064C75.6133 19.1547 74.9042 18.8787 73.9929 18.8787C73.3809 18.8787 72.8425 19.0109 72.3777 19.2767C71.9112 19.5426 71.545 19.9188 71.2756 20.4055C71.0065 20.8953 70.8727 21.4873 70.8727 22.193V22.1962L70.8745 22.1946Z" fill="#3D5678" fill-opacity="0.75"/>
<path d="M87.7554 31.3947C86.7788 31.3947 85.906 31.2208 85.1352 30.8746C84.3642 30.5267 83.7572 30.0135 83.3141 29.3346C82.871 28.6557 82.6504 27.8129 82.6504 26.8097C82.6504 25.9535 82.8075 25.2394 83.1236 24.6727C83.4395 24.1058 83.8676 23.6494 84.4112 23.2981C84.9545 22.9471 85.5683 22.6811 86.2588 22.5038C86.9477 22.3267 87.6717 22.2013 88.4275 22.1276C89.3221 22.0357 90.0429 21.9521 90.5913 21.8752C91.1398 21.7983 91.5377 21.6745 91.7885 21.5056C92.0393 21.3367 92.1647 21.0877 92.1647 20.7598V20.6913C92.1647 20.0056 91.9541 19.474 91.5361 19.0961C91.1164 18.7181 90.5178 18.5276 89.7418 18.5276C88.9209 18.5276 88.2688 18.7065 87.7838 19.0693C87.3005 19.4287 86.9778 19.8652 86.8123 20.3752L83.1704 19.9773C83.3978 19.0475 83.8125 18.255 84.4094 17.6028C85.0064 16.9507 85.7572 16.4524 86.6602 16.1096C87.5631 15.7668 88.5899 15.5946 89.7402 15.5946C90.5345 15.5946 91.3087 15.6882 92.0611 15.8755C92.8137 16.0611 93.4926 16.3588 94.1012 16.7668C94.7065 17.1731 95.1931 17.7099 95.5509 18.3754C95.9103 19.0426 96.0926 19.8535 96.0926 20.8133V31.092H92.3437V28.97H92.235C91.996 29.4249 91.6799 29.8378 91.2769 30.204C90.8756 30.5703 90.3824 30.8578 89.7987 31.0736C89.2153 31.2893 88.5346 31.3963 87.7588 31.3963H87.7538L87.7554 31.3947ZM88.8205 28.6022C89.496 28.6022 90.0847 28.4684 90.5863 28.1992C91.088 27.9299 91.4808 27.5705 91.7636 27.119C92.0461 26.6675 92.1883 26.1675 92.1883 25.6208V23.9085C92.0611 24.0004 91.8722 24.0825 91.628 24.1559C91.3806 24.2296 91.103 24.2963 90.7919 24.355C90.4826 24.4135 90.1749 24.4653 89.874 24.5122C89.5731 24.5573 89.3037 24.594 89.0663 24.6208C88.5463 24.6945 88.0881 24.8131 87.6901 24.9752C87.2922 25.1408 86.9795 25.3632 86.752 25.6458C86.5248 25.9285 86.4094 26.2845 86.4094 26.7142C86.4094 27.3346 86.635 27.8045 87.0865 28.1256C87.538 28.4451 88.1148 28.6038 88.8173 28.6038H88.8189L88.8205 28.6022Z" fill="#3D5678" fill-opacity="0.75"/>
<path d="M98.665 31.0933V15.7899H102.58V31.0933H98.665Z" fill="#3D5678" fill-opacity="0.75"/>
<path d="M109.069 22.1945V31.092H105.154V15.7869H109V18.4557H109.166C109.512 17.5794 110.062 16.8838 110.814 16.3671C111.567 15.8504 112.513 15.5946 113.655 15.5946C114.714 15.5946 115.639 15.822 116.426 16.2785C117.216 16.7333 117.827 17.3938 118.262 18.255C118.695 19.1178 118.913 20.1512 118.913 21.355V31.087H114.998V22.0122C114.998 21.0358 114.746 20.2682 114.239 19.7131C113.734 19.158 113.037 18.877 112.15 18.877C111.549 18.877 111.015 19.0092 110.555 19.275C110.094 19.5408 109.733 19.9171 109.467 20.4038C109.201 20.8936 109.07 21.4856 109.07 22.1911V22.1945H109.069Z" fill="#3D5678" fill-opacity="0.75"/>
<path d="M125.398 9.69141V31.0931H121.483V9.69141H125.398Z" fill="#3D5678" fill-opacity="0.75"/>
<path d="M127.97 31.0933V15.7899H131.884V31.0933H127.97Z" fill="#3D5678" fill-opacity="0.75"/>
<path d="M138.373 22.1946V31.0921H134.458V15.787H138.304V18.4558H138.47C138.816 17.5796 139.366 16.8839 140.118 16.3672C140.871 15.8506 141.817 15.5947 142.959 15.5947C144.018 15.5947 144.942 15.8221 145.732 16.2786C146.521 16.7335 147.133 17.3939 147.566 18.2551C147.999 19.1179 148.217 20.1513 148.217 21.3552V31.0871H144.302V22.0123C144.302 21.0359 144.049 20.2683 143.543 19.7132C143.038 19.1581 142.341 18.8771 141.454 18.8771C140.852 18.8771 140.319 19.0093 139.859 19.2751C139.397 19.5409 139.036 19.9173 138.77 20.4039C138.505 20.8937 138.373 21.4857 138.373 22.1912V22.1946Z" fill="#3D5678" fill-opacity="0.75"/>
<path d="M160.359 31.0937H165.001L158.889 22.417L164.685 15.7886H160.142L154.951 21.7715H154.707V10.6953H150.791V31.0937H154.707V26.0973L155.934 24.7363L160.359 31.0921V31.0937Z" fill="#3D5678" fill-opacity="0.75"/>
<path d="M102.61 9.69141H98.6953V13.6059H102.61V9.69141Z" fill="#3D5678" fill-opacity="0.75"/>
<path d="M131.918 9.69141H128.004V13.6059H131.918V9.69141Z" fill="#3D5678" fill-opacity="0.75"/>
</g>
</g>
<defs>
<clipPath id="clip0_144_6938">
<rect width="165" height="41.9189" fill="white"/>
</clipPath>
</defs>
</svg>
