<svg width="156" height="41" viewBox="0 0 156 41" fill="none" xmlns="http://www.w3.org/2000/svg">
<g clip-path="url(#clip0_144_6966)">
<path fill-rule="evenodd" clip-rule="evenodd" d="M35.7586 8.02995L35.8197 8.03202C36.0842 8.04992 36.3396 8.18374 36.5005 8.42206L36.5359 8.47891L37.4075 9.99805L37.5242 10.2044C39.14 13.1009 40.011 16.3755 40.0516 19.705L40.0531 19.9487L40.0504 20.28C39.8741 31.0816 31.0956 39.8355 20.2643 40.0095L19.9355 40.0121L19.7008 40.0108C15.403 39.9625 11.3305 38.5859 7.89513 36.0197L7.70838 35.8785L6.49414 34.9502L6.44811 34.9125C6.07841 34.5893 6.04063 34.0261 6.36368 33.657L6.40594 33.612L14.6493 25.3912L14.6957 25.3482C14.9641 25.1157 15.3459 25.0643 15.6666 25.2171L15.726 25.2481L16.6155 25.7563L16.7539 25.8332C17.6794 26.333 18.7153 26.6081 19.769 26.6344L19.9355 26.6365L20.0508 26.6355C23.6572 26.5745 26.5793 23.6604 26.6404 20.0637L26.6413 19.9487L26.6385 19.7577C26.6273 19.3754 26.5825 18.991 26.5048 18.6108L26.4632 18.421L26.2935 17.697L26.2816 17.6368C26.2393 17.3768 26.3147 17.1113 26.487 16.912L26.5321 16.8637L28.554 14.847L28.5986 14.8054C29.0234 14.4342 29.6867 14.5477 29.9655 15.0376L29.9939 15.0915L30.091 15.2971C30.5657 16.3296 30.8806 17.4322 31.0224 18.568L31.0484 18.7956L31.0705 19.0261C31.0905 19.2568 31.1038 19.4876 31.1092 19.7182L31.112 19.9487L31.1105 20.1327C31.0126 26.1337 26.1356 30.9969 20.1182 31.0936L19.9355 31.095L19.7098 31.0927C18.5066 31.0683 17.3166 30.8493 16.1889 30.4485L15.9782 30.3713L12.6022 33.738L12.8067 33.845C14.9278 34.9336 17.2666 35.5165 19.6997 35.5519L19.9355 35.5536L20.1938 35.5515C28.6179 35.4148 35.4448 28.6056 35.5805 20.2038L35.5826 19.9487L35.5805 19.6933C35.5555 18.1667 35.3065 16.6561 34.8469 15.2134L34.7637 14.9596L34.7583 14.9647L34.6717 14.7149C34.2873 13.6356 33.7839 12.5998 33.1687 11.6264L33.0248 11.4029L32.9918 11.3487C32.8069 11.0201 32.8441 10.6117 33.0901 10.3267L33.1357 10.2777L35.1277 8.29121C35.3045 8.11469 35.5324 8.02995 35.7586 8.02995ZM20.2052 -0.0410156C24.6082 -0.0410156 28.7842 1.33867 32.2976 3.95144L32.4852 4.09259L33.7048 5.02096L33.751 5.0586C34.1223 5.38165 34.1602 5.94478 33.8357 6.31404L33.7933 6.35916L25.5143 14.58L25.4678 14.6231C25.198 14.8555 24.8144 14.9071 24.4925 14.7542L24.4329 14.7232L23.539 14.2146L23.4001 14.1378C22.4708 13.6381 21.4306 13.3629 20.3724 13.3366L20.2052 13.3345L20.0893 13.3355C16.4673 13.3964 13.5325 16.3108 13.4711 19.9072L13.4702 20.0223L13.473 20.2135C13.4842 20.5963 13.5292 20.9806 13.6071 21.3604L13.6488 21.5499L13.8192 22.2743L13.8312 22.3344C13.8735 22.5943 13.798 22.8598 13.625 23.0592L13.5798 23.1076L11.5496 25.1232L11.5049 25.1648C11.0784 25.5361 10.4119 25.4228 10.1321 24.9328L10.1036 24.8789L10.0067 24.6743C9.53243 23.647 9.21642 22.5501 9.07227 21.4233L9.04574 21.1976L9.02448 20.9797L9.00766 20.7617L9.00165 20.6713L8.99641 20.5808L8.98797 20.3946L8.98223 20.2084L8.98011 20.0223L8.98162 19.8382C9.07994 13.8374 13.9779 8.97408 20.0217 8.87741L20.2052 8.87595L20.4319 8.87823C21.6402 8.90263 22.8355 9.12182 23.9681 9.52258L24.1797 9.59984L27.5702 6.23309L27.3648 6.12614C25.2344 5.03734 22.8854 4.45447 20.4419 4.4191L20.2052 4.41739L19.9457 4.41949C11.485 4.55618 4.62826 11.3657 4.49197 19.7672L4.48991 20.0223L4.49201 20.2777C4.51714 21.8045 4.76737 23.315 5.22891 24.7577L5.31254 25.0116L5.31743 25.0067L5.40445 25.2565C5.79076 26.3359 6.29682 27.3723 6.91425 28.3453L7.0587 28.5687L7.09175 28.6229C7.27705 28.9516 7.23982 29.3598 6.9929 29.6447L6.94715 29.6937L4.94678 31.6799L4.9025 31.7211C4.49543 32.0754 3.86337 31.9916 3.56429 31.5435L3.53246 31.4922L2.65694 29.9731L2.53969 29.7667C0.91601 26.869 0.0412316 23.5922 0.00142234 20.2603L0 20.0223L0.0027122 19.691C0.181487 8.78025 9.17537 -0.0410156 20.2052 -0.0410156ZM59.5566 9.02026C62.3991 9.02026 64.6731 9.89206 66.9301 11.8462C67.115 12.0098 67.2193 12.2241 67.2262 12.4509C67.2323 12.6566 67.1588 12.8553 67.0179 13.0168L66.9737 13.0641L65.6771 14.3871C65.4969 14.6112 65.2994 14.6686 65.1644 14.6768C65.0162 14.6865 64.7879 14.6452 64.5416 14.3994C63.1717 13.208 61.3145 12.4895 59.5866 12.4895C55.618 12.4895 52.3894 15.8315 52.3894 19.9399C52.3894 24.0316 55.6311 27.3602 59.6159 27.3602C61.7931 27.3602 63.2824 26.4459 64.5675 25.4575C64.888 25.2088 65.2753 25.1868 65.5693 25.3969L65.6174 25.4341L67.0014 26.7839C67.1414 26.9056 67.2281 27.0933 67.235 27.3028C67.2428 27.5443 67.145 27.7906 66.9733 27.9616C64.9755 29.8968 62.4115 30.9183 59.5566 30.9183C53.4888 30.9183 48.5519 26.0201 48.5519 19.9992C48.5519 13.9455 53.4888 9.02026 59.5566 9.02026ZM113.357 9.02026C116.2 9.02026 118.473 9.89206 120.73 11.8462C120.915 12.0098 121.019 12.2239 121.026 12.4509C121.033 12.6565 120.959 12.8549 120.818 13.0167L120.774 13.0641L119.477 14.3871C119.297 14.6112 119.1 14.6686 118.964 14.6768C118.815 14.6865 118.588 14.6452 118.342 14.3994C116.972 13.208 115.115 12.4895 113.386 12.4895C109.418 12.4895 106.189 15.8315 106.189 19.9399C106.189 24.0316 109.432 27.3602 113.416 27.3602C115.593 27.3602 117.083 26.4459 118.368 25.4575C118.688 25.2088 119.076 25.1868 119.37 25.3969L119.418 25.4341L120.802 26.7839C120.941 26.9056 121.028 27.0933 121.035 27.3026C121.043 27.5439 120.945 27.7902 120.774 27.9613C118.776 29.8968 116.212 30.9183 113.357 30.9183C107.289 30.9183 102.352 26.0201 102.352 19.9992C102.352 13.9455 107.289 9.02026 113.357 9.02026ZM75.0512 9.31718C75.4771 9.31718 75.8529 9.67441 75.8822 10.0939L75.8841 10.1466V29.7921C75.8841 30.2162 75.5254 30.5907 75.1041 30.62L75.0512 30.6219H73.0881C72.6624 30.6219 72.2866 30.2643 72.2572 29.8448L72.2554 29.7921V10.1466C72.2554 9.72247 72.6141 9.34828 73.0352 9.31902L73.0881 9.31718H75.0512ZM91.5272 9.31718C95.2502 9.31718 98.2789 12.2853 98.2789 15.9334C98.2789 18.5372 96.6934 20.8391 94.1116 22.0307L93.9838 22.0884L97.9198 29.37C98.0698 29.6477 98.0679 29.9774 97.9148 30.2308C97.7749 30.4626 97.5317 30.6024 97.2414 30.62L97.1784 30.6219H94.8584C94.532 30.6219 94.2772 30.4331 94.1637 30.2452L94.1429 30.2078L90.2611 22.4904H86.2042V29.7921C86.2042 30.2162 85.8454 30.5907 85.4241 30.62L85.3711 30.6219H83.4376C82.9969 30.6219 82.6349 30.2787 82.6066 29.8466L82.6048 29.7921V10.1466C82.6048 9.7077 82.9493 9.3471 83.3829 9.31895L83.4376 9.31718H91.5272ZM128.851 9.31716C129.277 9.31716 129.653 9.67439 129.683 10.0938L129.684 10.1466V27.3307H137.476C137.917 27.3307 138.279 27.6737 138.308 28.1057L138.31 28.1601V29.7921C138.31 30.2313 137.965 30.5919 137.531 30.6201L137.476 30.6218H126.888C126.448 30.6218 126.086 30.2788 126.057 29.8466L126.056 29.7921V10.1466C126.056 9.70769 126.4 9.34708 126.834 9.31893L126.888 9.31716H128.851ZM155.112 9.3172C155.553 9.3172 155.916 9.66025 155.944 10.0922L155.946 10.1466V11.8085C155.946 12.2476 155.601 12.6082 155.167 12.6363L155.112 12.6381H145.982V18.1607H153.655C154.081 18.1607 154.457 18.518 154.486 18.9375L154.488 18.9902V20.652C154.488 21.091 154.144 21.4516 153.71 21.4798L153.655 21.4816H145.982V27.3307H155.112C155.553 27.3307 155.916 27.6738 155.944 28.1055L155.946 28.16V29.7921C155.946 30.2312 155.601 30.592 155.167 30.6201L155.112 30.6219H143.216C142.775 30.6219 142.413 30.2787 142.385 29.8466L142.383 29.7921V10.1466C142.383 9.70772 142.727 9.34711 143.161 9.31897L143.216 9.3172H155.112ZM91.2895 12.7271H86.2635V19.4069H91.2895C93.1112 19.4069 94.6502 17.8436 94.6502 15.9928C94.6502 14.2226 93.1112 12.7271 91.2895 12.7271Z" fill="#6B7E97"/>
</g>
<defs>
<clipPath id="clip0_144_6966">
<rect width="156" height="40.0857" fill="white"/>
</clipPath>
</defs>
</svg>
