<svg width="139" height="47" viewBox="0 0 139 47" fill="none" xmlns="http://www.w3.org/2000/svg">
<path d="M54.1113 33.0884V13.5605H58.2499V33.0884H54.1113Z" fill="#3D5678" fill-opacity="0.75"/>
<path d="M63.8184 33.0884V13.5605H68.1462L79.0471 26.5791V13.5605H83.294V33.0884H78.966L68.011 20.0156V33.0884H63.8184Z" fill="#3D5678" fill-opacity="0.75"/>
<path d="M93.5736 33.0884C92.8344 33.0884 92.158 32.9075 91.5449 32.5459C90.95 32.1843 90.4719 31.7051 90.1112 31.1084C89.7508 30.4937 89.5703 29.8156 89.5703 29.0743V17.5746C89.5703 16.8333 89.7508 16.1643 90.1112 15.5676C90.4719 14.9528 90.95 14.4646 91.5449 14.103C92.158 13.7414 92.8344 13.5605 93.5736 13.5605H108.992V17.7916H94.6557C94.3671 17.7916 94.1417 17.8639 93.9793 18.0085C93.8352 18.1532 93.7631 18.3792 93.7631 18.6866V27.9623C93.7631 28.2516 93.8352 28.4776 93.9793 28.6404C94.1417 28.785 94.3671 28.8573 94.6557 28.8573H108.992V33.0884H93.5736Z" fill="#3D5678" fill-opacity="0.75"/>
<path d="M119.007 33.0884C118.286 33.0884 117.619 32.9075 117.005 32.5459C116.392 32.1843 115.906 31.6961 115.545 31.0813C115.184 30.4666 115.004 29.7976 115.004 29.0743V17.5746C115.004 16.8333 115.184 16.1643 115.545 15.5676C115.906 14.9528 116.392 14.4646 117.005 14.103C117.619 13.7414 118.286 13.5605 119.007 13.5605H130.476C131.198 13.5605 131.856 13.7414 132.451 14.103C133.064 14.4646 133.551 14.9528 133.911 15.5676C134.29 16.1643 134.48 16.8333 134.48 17.5746V29.0743C134.48 29.7976 134.29 30.4666 133.911 31.0813C133.551 31.6961 133.064 32.1843 132.451 32.5459C131.856 32.9075 131.198 33.0884 130.476 33.0884H119.007ZM119.197 28.8573H130.233V17.7916H119.197V28.8573Z" fill="#3D5678" fill-opacity="0.75"/>
<path d="M4.52051 10.5475C4.52051 7.21881 7.21172 4.52039 10.5315 4.52039H36.0782C39.398 4.52039 42.0893 7.21881 42.0893 10.5475V36.1627C42.0893 39.4913 39.398 42.1898 36.0782 42.1898H10.5315C7.21172 42.1898 4.52051 39.4913 4.52051 36.1627V10.5475Z" fill="#3D5678" fill-opacity="0.75"/>
<path d="M11.6582 30.5126L15.4451 16.1982H19.5476L15.7607 30.5126H11.6582Z" fill="white"/>
<path d="M19.5479 30.5126L23.3349 16.1982H27.4373L23.6504 30.5126H19.5479Z" fill="white"/>
<path d="M27.4375 30.5126L31.2244 16.1982H35.327L31.5401 30.5126H27.4375Z" fill="white"/>
</svg>
