<svg width="140" height="40" viewBox="0 0 140 40" fill="none" xmlns="http://www.w3.org/2000/svg">
<g clip-path="url(#clip0_144_6969)">
<path d="M50.6826 15.1022C50.3153 14.9798 49.5399 14.8981 48.7643 14.8981C46.4376 14.8981 43.9478 16.7828 43.9478 19.1094V30.2046H38.6416V10.4082H43.7437V12.4083C44.9274 10.9388 47.0906 10 49.499 10C50.1011 10.0043 50.7019 10.059 51.295 10.1633L50.6826 15.1022Z" fill="#6B7E97"/>
<path d="M56.6814 0C58.5998 0 60.1509 1.46942 60.1509 3.38787C60.1509 5.30631 58.5999 6.77562 56.6814 6.77562C54.7629 6.77562 53.2119 5.30631 53.2119 3.38787C53.2119 1.46942 54.763 0 56.6814 0ZM59.3345 30.2049H54.0283V10.4085H59.3345V30.2049Z" fill="#6B7E97"/>
<path d="M75.0095 9.9989C72.9036 9.97224 70.8542 10.6801 69.2136 12.0008V10.4079H64.1104V39.9996H69.417V28.817C70.9262 30.0092 72.8008 30.6437 74.7238 30.6133C77.6628 30.6133 80.4785 29.3061 82.2337 27.2652C83.7855 25.4689 84.7226 23.0212 84.7226 20.3267C84.7226 14.4897 80.3963 9.9989 75.0095 9.9989ZM74.3645 25.7957C71.0684 25.7957 68.902 23.5211 68.902 20.344C68.902 17.1669 71.0684 14.8922 74.3645 14.8922C77.178 14.8922 79.4592 17.3335 79.4592 20.344C79.4592 23.3544 77.1781 25.7957 74.3645 25.7957Z" fill="#6B7E97"/>
<path d="M116.928 30.2051H111.622V1.22473H116.928V30.2051Z" fill="#6B7E97"/>
<path d="M138.561 27.0616C136.642 29.3474 133.499 30.6128 130.438 30.6128C124.519 30.6128 120.07 26.5312 120.07 20.3269C120.07 14.8165 123.826 10 129.703 10C135.173 10 139.051 14.6123 139.051 20.1227C139.054 20.6288 139.013 21.1341 138.928 21.633H125.213C125.499 24.4085 127.744 26.327 130.561 26.327C132.805 26.327 134.601 25.0616 135.54 24.0412L138.561 27.0616ZM133.622 17.7554C133.458 16.0002 131.867 14.2859 129.703 14.2859C127.499 14.2859 125.703 15.9595 125.458 17.7554H133.622Z" fill="#6B7E97"/>
<path d="M98.7653 9.99889C96.6595 9.97225 94.6101 10.6801 92.9696 12.0008V10.4079H87.8662V39.9996H93.1729V28.817C94.6821 30.0092 96.5566 30.6437 98.4797 30.6133C101.419 30.6133 104.234 29.3061 105.99 27.2652C107.541 25.4689 108.478 23.0212 108.478 20.3267C108.478 14.4897 104.152 9.99889 98.7653 9.99889ZM98.1204 25.7957C94.8243 25.7957 92.6579 23.5211 92.6579 20.344C92.6579 17.1669 94.8243 14.8922 98.1204 14.8922C100.934 14.8922 103.215 17.3335 103.215 20.3439C103.215 23.3544 100.934 25.7957 98.1204 25.7957Z" fill="#6B7E97"/>
<path d="M27.7026 22.992C26.5045 22.3002 25.1554 22.0998 23.819 22.0531C22.6978 22.0139 21.025 21.2954 21.025 19.2558C21.025 17.7362 22.2569 16.5131 23.8196 16.4586C25.1558 16.4119 26.5049 16.2112 27.7026 15.5196C28.7785 14.8985 29.6719 14.0051 30.293 12.9292C30.9142 11.8533 31.2412 10.6329 31.2412 9.39059C31.2412 8.14828 30.9142 6.92786 30.293 5.85199C29.6718 4.77612 28.7784 3.88272 27.7025 3.26158C26.6266 2.64044 25.4062 2.31345 24.1639 2.31348C22.9216 2.3135 21.7012 2.64054 20.6253 3.26172C19.5495 3.88291 18.6561 4.77634 18.0349 5.85224C17.4138 6.92813 17.0868 8.14856 17.0869 9.39088C17.0869 10.7621 17.5746 12.0239 18.1969 13.1942C18.7202 14.1786 18.985 16.0055 17.19 17.0418C15.8547 17.8127 14.1883 17.3246 13.3559 15.9924C12.6528 14.8673 11.804 13.813 10.6157 13.1268C9.53985 12.5057 8.31944 12.1786 7.07714 12.1786C5.83484 12.1786 4.61443 12.5056 3.53857 13.1268C2.46271 13.7479 1.56931 14.6413 0.948157 15.7172C0.327008 16.7931 0 18.0135 0 19.2558C0 20.4981 0.327008 21.7185 0.948157 22.7943C1.56931 23.8702 2.46271 24.7636 3.53857 25.3847C4.61443 26.0059 5.83484 26.3329 7.07714 26.3329C8.31944 26.3329 9.53985 26.0059 10.6157 25.3847C11.8037 24.6988 12.6525 23.6452 13.3552 22.5207C13.9322 21.5973 15.3732 20.4203 17.1899 21.47C18.5232 22.2403 18.9354 23.9281 18.1962 25.3182C17.574 26.4884 17.087 27.75 17.087 29.1209C17.087 30.3632 17.414 31.5836 18.0351 32.6594C18.6563 33.7353 19.5497 34.6287 20.6255 35.2498C21.7014 35.871 22.9218 36.198 24.164 36.198C25.4063 36.198 26.6267 35.871 27.7026 35.2498C28.7784 34.6287 29.6718 33.7353 30.2929 32.6594C30.9141 31.5836 31.2411 30.3632 31.2411 29.1209C31.2411 27.8786 30.9141 26.6582 30.293 25.5824C29.6718 24.5065 28.7784 23.6131 27.7026 22.992Z" fill="#6B7E97"/>
</g>
<defs>
<clipPath id="clip0_144_6969">
<rect width="139.052" height="40" fill="white"/>
</clipPath>
</defs>
</svg>
