<svg width="181" height="34" viewBox="0 0 181 34" fill="none" xmlns="http://www.w3.org/2000/svg">
<path d="M61.2152 18.4922H68.0259C68.9835 18.4922 69.7595 19.2765 69.7595 20.2341C69.7595 21.2 68.9835 21.976 68.0259 21.976H59.8118C59.6798 21.976 59.5559 22.0255 59.4651 22.1081L56.9885 24.2462C56.6088 24.5764 56.8399 25.1955 57.3352 25.1955H67.6131C67.6131 25.1955 67.6214 25.1955 67.6214 25.1873C67.6214 25.179 67.6296 25.179 67.6296 25.179C67.7617 25.1873 67.8855 25.1955 68.0176 25.1955C70.7419 25.1955 72.9543 22.9749 72.9543 20.2341C72.9543 17.6337 70.9648 15.4955 68.4221 15.2892C68.4221 15.2892 68.4139 15.2892 68.4139 15.2809C68.4139 15.2727 68.4139 15.2727 68.4056 15.2727H61.0749C60.1173 15.2727 59.3413 14.4884 59.3413 13.5308C59.3413 12.5649 60.1173 11.7889 61.0749 11.7889H69.2724C69.4045 11.7889 69.5366 11.7394 69.6357 11.6486L71.9389 9.51044C72.3021 9.17197 72.0627 8.56934 71.5757 8.56934H61.2152C61.174 8.56934 61.1244 8.56934 61.0832 8.56934C58.3589 8.56934 56.1465 10.79 56.1465 13.5308C56.1465 16.2715 58.3589 18.4922 61.0832 18.4922C61.1244 18.4922 61.1657 18.4922 61.2152 18.4922Z" fill="#6B7E97"/>
<path d="M100.858 8.56099C100.561 8.56099 100.321 8.80039 100.321 9.10584V24.6589C100.321 24.9561 100.561 25.2037 100.858 25.2037H113.323C113.472 25.2037 113.612 25.1377 113.72 25.0304L115.28 23.3545C115.602 23.0078 115.362 22.4382 114.884 22.4382H104.003C103.706 22.4382 103.467 22.1988 103.467 21.8933V9.09758C103.467 8.80039 103.227 8.55273 102.93 8.55273H100.858V8.56099Z" fill="#6B7E97"/>
<path fill-rule="evenodd" clip-rule="evenodd" d="M80.8964 8.56079C80.8964 8.56905 80.8964 8.56905 80.8964 8.56079C79.3031 8.63509 78.0235 9.91466 77.9492 11.5079V21.9674C77.9492 22.0087 77.9492 22.0582 77.9492 22.0995C77.9492 23.7588 79.2536 25.1127 80.8964 25.1788H92.2062C93.8407 25.1045 95.1533 23.7506 95.1533 22.0995C95.1533 22.0582 95.1533 22.0087 95.1533 21.9674V11.5162C95.0873 9.92292 93.8077 8.63509 92.2144 8.56905H80.8964V8.56079ZM83.0097 11.5162C83.0015 11.5162 83.0015 11.5162 83.0097 11.5162C82.0108 11.5575 81.2101 12.3665 81.1688 13.3736V19.9531C81.1688 19.9779 81.1688 20.0109 81.1688 20.0357C81.1688 21.0759 81.9861 21.9344 83.0097 21.9757H90.101C91.1247 21.9344 91.942 21.0759 91.942 20.0357C91.942 20.0109 91.942 19.9779 91.942 19.9531V13.3736C91.9007 12.3665 91.0999 11.5657 90.101 11.5162H83.0097Z" fill="#6B7E97"/>
<path fill-rule="evenodd" clip-rule="evenodd" d="M133.401 24.6585C133.401 24.9557 133.641 25.2034 133.938 25.2034H136.051C136.348 25.2034 136.588 24.964 136.588 24.6585V11.7885C136.588 11.7472 136.588 11.6977 136.588 11.6564C136.588 9.99706 135.292 8.64319 133.674 8.57715H122.818C122.777 8.57715 122.727 8.57715 122.686 8.57715C121.002 8.57715 119.64 9.95579 119.64 11.6646C119.64 11.7059 119.64 11.7554 119.64 11.7967V24.6668C119.64 24.964 119.879 25.2116 120.176 25.2116H122.29C122.587 25.2116 122.826 24.9722 122.826 24.6668V19.3091C122.826 19.0119 123.066 18.7642 123.363 18.7642H132.889C133.187 18.7642 133.426 19.0036 133.426 19.3091V24.6585H133.401ZM122.81 15.8006V13.1258C122.81 12.0857 123.643 11.2436 124.667 11.2436H131.552C132.576 11.2436 133.41 12.0857 133.41 13.1258V15.8006C133.41 16.0977 133.17 16.3454 132.873 16.3454H123.346C123.049 16.3454 122.81 16.106 122.81 15.8006Z" fill="#6B7E97"/>
<path fill-rule="evenodd" clip-rule="evenodd" d="M178.02 25.2038C177.723 25.2038 177.483 24.9644 177.483 24.659V19.3013C177.483 19.0041 177.244 18.7564 176.947 18.7564H167.313C167.016 18.7564 166.776 18.9958 166.776 19.3013V24.659C166.776 24.9561 166.537 25.2038 166.24 25.2038H164.11C163.813 25.2038 163.573 24.9644 163.573 24.659V11.7889C163.573 11.7476 163.573 11.6981 163.573 11.6568C163.573 9.95623 164.952 8.56934 166.652 8.56934C166.694 8.56934 166.743 8.56934 166.785 8.56934H177.756C179.39 8.64363 180.703 9.99751 180.703 11.6486C180.703 11.6898 180.703 11.7394 180.703 11.7807V24.6507C180.703 24.9479 180.464 25.1956 180.166 25.1956H178.02V25.2038ZM166.776 13.1263V15.801C166.776 16.0982 167.016 16.3458 167.313 16.3458H176.947C177.244 16.3458 177.483 16.1064 177.483 15.801V13.1263C177.483 12.0861 176.641 11.2441 175.61 11.2441H168.65C167.61 11.2441 166.776 12.0861 166.776 13.1263Z" fill="#6B7E97"/>
<path d="M144.545 8.56079C144.702 8.56079 144.85 8.62683 144.949 8.75066L154.426 20.0522C154.748 20.4319 155.367 20.2008 155.367 19.6972V9.10564C155.367 8.80845 155.607 8.56079 155.904 8.56079H158.017C158.315 8.56079 158.554 8.8002 158.554 9.10564V24.6587C158.554 24.9559 158.315 25.2035 158.017 25.2035H155.392C155.384 25.2035 155.376 25.1953 155.376 25.187C155.376 25.1787 155.376 25.1787 155.367 25.1705L145.725 13.9515C145.403 13.5718 144.784 13.8112 144.784 14.3065V24.6669C144.784 24.9641 144.545 25.2118 144.248 25.2118H142.118C141.82 25.2118 141.581 24.9724 141.581 24.6669V9.10564C141.581 8.80845 141.82 8.56079 142.118 8.56079H144.545Z" fill="#6B7E97"/>
<path d="M7.00341 25.7734C7.26758 25.5092 7.62256 25.3606 7.99405 25.3606H42.3775C43.0049 25.3606 43.3186 26.1201 42.8728 26.5576L36.0786 33.3517C35.8145 33.6159 35.4595 33.7645 35.088 33.7645H0.704602C0.0771981 33.7645 -0.236504 33.005 0.209283 32.5675L7.00341 25.7734Z" fill="#6B7E97"/>
<path d="M7.00341 0.412766C7.26758 0.148596 7.62256 0 7.99405 0H42.3775C43.0049 0 43.3186 0.759489 42.8728 1.19702L36.0786 7.98289C35.8145 8.24706 35.4595 8.39566 35.088 8.39566H0.704602C0.0771981 8.39566 -0.236504 7.63617 0.209283 7.19864L7.00341 0.412766Z" fill="#6B7E97"/>
<path d="M36.0786 13.0104C35.8145 12.7463 35.4595 12.5977 35.088 12.5977H0.704602C0.0771981 12.5977 -0.236504 13.3571 0.209283 13.7947L7.00341 20.5805C7.26758 20.8447 7.62256 20.9933 7.99405 20.9933H42.3775C43.0049 20.9933 43.3186 20.2338 42.8728 19.7963L36.0786 13.0104Z" fill="#6B7E97"/>
</svg>
