<svg width="24" height="25" viewBox="0 0 24 25" fill="none" xmlns="http://www.w3.org/2000/svg">
<path d="M19.7916 15.339C17.7316 17.389 14.7816 18.019 12.1916 17.209L7.48161 21.909C7.14161 22.259 6.47161 22.469 5.99161 22.399L3.81161 22.099C3.09161 21.999 2.42161 21.319 2.31161 20.599L2.01161 18.419C1.94161 17.939 2.17161 17.269 2.50161 16.929L7.20161 12.229C6.40161 9.629 7.02161 6.679 9.08161 4.629C12.0316 1.679 16.8216 1.679 19.7816 4.629C22.7416 7.579 22.7416 12.389 19.7916 15.339Z" stroke="#292D32" stroke-width="1.5" stroke-miterlimit="10" stroke-linecap="round" stroke-linejoin="round"/>
<path d="M6.8916 17.8994L9.1916 20.1994" stroke="#292D32" stroke-width="1.5" stroke-miterlimit="10" stroke-linecap="round" stroke-linejoin="round"/>
<path d="M14.5015 11.4092C15.3299 11.4092 16.0015 10.7376 16.0015 9.90918C16.0015 9.08075 15.3299 8.40918 14.5015 8.40918C13.673 8.40918 13.0015 9.08075 13.0015 9.90918C13.0015 10.7376 13.673 11.4092 14.5015 11.4092Z" stroke="#292D32" stroke-width="1.5" stroke-linecap="round" stroke-linejoin="round"/>
</svg>
