<svg width="24" height="25" viewBox="0 0 24 25" fill="none" xmlns="http://www.w3.org/2000/svg">
<path d="M6 10.4092V8.40918C6 5.09918 7 2.40918 12 2.40918C17 2.40918 18 5.09918 18 8.40918V10.4092" stroke="#292D32" stroke-width="1.5" stroke-linecap="round" stroke-linejoin="round"/>
<path d="M12 18.9092C13.3807 18.9092 14.5 17.7899 14.5 16.4092C14.5 15.0285 13.3807 13.9092 12 13.9092C10.6193 13.9092 9.5 15.0285 9.5 16.4092C9.5 17.7899 10.6193 18.9092 12 18.9092Z" stroke="#292D32" stroke-width="1.5" stroke-linecap="round" stroke-linejoin="round"/>
<path d="M17 22.4092H7C3 22.4092 2 21.4092 2 17.4092V15.4092C2 11.4092 3 10.4092 7 10.4092H17C21 10.4092 22 11.4092 22 15.4092V17.4092C22 21.4092 21 22.4092 17 22.4092Z" stroke="#292D32" stroke-width="1.5" stroke-linecap="round" stroke-linejoin="round"/>
</svg>
