<svg width="24" height="25" viewBox="0 0 24 25" fill="none" xmlns="http://www.w3.org/2000/svg">
<path d="M20.9108 11.529C20.9108 16.419 17.3608 20.999 12.5108 22.339C12.1808 22.429 11.8208 22.429 11.4908 22.339C6.64081 20.999 3.09082 16.419 3.09082 11.529V7.13897C3.09082 6.31897 3.71083 5.38897 4.48083 5.07897L10.0508 2.799C11.3008 2.289 12.7108 2.289 13.9608 2.799L19.5308 5.07897C20.2908 5.38897 20.9208 6.31897 20.9208 7.13897L20.9108 11.529Z" stroke="#292D32" stroke-width="1.5" stroke-linecap="round" stroke-linejoin="round"/>
<path d="M12.001 12.9092C13.1055 12.9092 14.001 12.0137 14.001 10.9092C14.001 9.80461 13.1055 8.90918 12.001 8.90918C10.8964 8.90918 10.001 9.80461 10.001 10.9092C10.001 12.0137 10.8964 12.9092 12.001 12.9092Z" stroke="#292D32" stroke-width="1.5" stroke-miterlimit="10" stroke-linecap="round" stroke-linejoin="round"/>
<path d="M12.001 12.9092V15.9092" stroke="#292D32" stroke-width="1.5" stroke-miterlimit="10" stroke-linecap="round" stroke-linejoin="round"/>
</svg>
