<svg width="334" height="238" viewBox="0 0 334 238" fill="none" xmlns="http://www.w3.org/2000/svg">
<g clip-path="url(#clip0_82_7598)">
<mask id="mask0_82_7598" style="mask-type:luminance" maskUnits="userSpaceOnUse" x="-217" y="-255" width="767" height="767">
<path d="M549.338 -254.845H-216.732V511.226H549.338V-254.845Z" fill="black" fill-opacity="0.08"/>
</mask>
<g mask="url(#mask0_82_7598)">
<mask id="mask1_82_7598" style="mask-type:luminance" maskUnits="userSpaceOnUse" x="21" y="58" width="300" height="196">
<path d="M320.772 58.0449H21.2793V253.503H320.772V58.0449Z" fill="white"/>
</mask>
<g mask="url(#mask1_82_7598)">
<mask id="mask2_82_7598" style="mask-type:luminance" maskUnits="userSpaceOnUse" x="21" y="58" width="300" height="196">
<path d="M21.5 58.2988H320.362V253.126H21.5V58.2988Z" fill="white"/>
</mask>
<g mask="url(#mask2_82_7598)">
<mask id="mask3_82_7598" style="mask-type:luminance" maskUnits="userSpaceOnUse" x="21" y="58" width="300" height="196">
<path d="M320.766 58.0449H21.2734V253.503H320.766V58.0449Z" fill="white"/>
</mask>
<g mask="url(#mask3_82_7598)">
<mask id="mask4_82_7598" style="mask-type:luminance" maskUnits="userSpaceOnUse" x="35" y="136" width="86" height="68">
<path d="M35.4609 136.072H120.58V203.852H35.4609V136.072Z" fill="white"/>
</mask>
<g mask="url(#mask4_82_7598)">
<mask id="mask5_82_7598" style="mask-type:luminance" maskUnits="userSpaceOnUse" x="36" y="136" width="84" height="68">
<path d="M48.4977 136.544L119.883 185.692L107.559 203.591L36.1738 154.446L48.4977 136.544Z" fill="white"/>
</mask>
<g mask="url(#mask5_82_7598)">
<mask id="mask6_82_7598" style="mask-type:luminance" maskUnits="userSpaceOnUse" x="35" y="136" width="86" height="68">
<path d="M120.579 136.072H35.46V203.852H120.579V136.072Z" fill="white"/>
</mask>
<g mask="url(#mask6_82_7598)">
<mask id="mask7_82_7598" style="mask-type:luminance" maskUnits="userSpaceOnUse" x="36" y="136" width="85" height="68">
<path d="M36.0596 136.42H120.043V203.757H36.0596V136.42Z" fill="white"/>
</mask>
<g mask="url(#mask7_82_7598)">
<mask id="mask8_82_7598" style="mask-type:luminance" maskUnits="userSpaceOnUse" x="36" y="136" width="84" height="68">
<path d="M48.4977 136.544L119.883 185.692L107.559 203.591L36.1738 154.446L48.4977 136.544Z" fill="white"/>
</mask>
<g mask="url(#mask8_82_7598)">
<path d="M48.4977 136.544L119.889 185.695L107.565 203.594L36.1738 154.446L48.4977 136.544Z" fill="black"/>
</g>
</g>
</g>
</g>
</g>
<mask id="mask9_82_7598" style="mask-type:luminance" maskUnits="userSpaceOnUse" x="89" y="171" width="85" height="69">
<path d="M89.0537 171.538H173.385V239.318H89.0537V171.538Z" fill="white"/>
</mask>
<g mask="url(#mask9_82_7598)">
<mask id="mask10_82_7598" style="mask-type:luminance" maskUnits="userSpaceOnUse" x="89" y="171" width="85" height="68">
<path d="M101.818 171.923L173.203 221.071L160.879 238.97L89.4941 189.822L101.818 171.923Z" fill="white"/>
</mask>
<g mask="url(#mask10_82_7598)">
<mask id="mask11_82_7598" style="mask-type:luminance" maskUnits="userSpaceOnUse" x="89" y="171" width="85" height="69">
<path d="M173.385 171.538H89.0537V239.318H173.385V171.538Z" fill="white"/>
</mask>
<g mask="url(#mask11_82_7598)">
<mask id="mask12_82_7598" style="mask-type:luminance" maskUnits="userSpaceOnUse" x="89" y="171" width="85" height="69">
<path d="M89.4014 171.789H173.384V239.129H89.4014V171.789Z" fill="white"/>
</mask>
<g mask="url(#mask12_82_7598)">
<mask id="mask13_82_7598" style="mask-type:luminance" maskUnits="userSpaceOnUse" x="89" y="171" width="85" height="68">
<path d="M101.818 171.922L173.203 221.07L160.879 238.97L89.4941 189.822L101.818 171.922Z" fill="white"/>
</mask>
<g mask="url(#mask13_82_7598)">
<path d="M101.818 171.922L173.209 221.073L160.885 238.973L89.4941 189.822L101.818 171.922Z" fill="black"/>
</g>
</g>
</g>
</g>
</g>
<mask id="mask14_82_7598" style="mask-type:luminance" maskUnits="userSpaceOnUse" x="272" y="141" width="21" height="22">
<path d="M272.694 141.589H292.398V162.869H272.694V141.589Z" fill="white"/>
</mask>
<g mask="url(#mask14_82_7598)">
<mask id="mask15_82_7598" style="mask-type:luminance" maskUnits="userSpaceOnUse" x="272" y="142" width="21" height="21">
<path d="M272.974 155.064L281.745 142.186L292.151 149.27L283.38 162.148L272.974 155.064Z" fill="white"/>
</mask>
<g mask="url(#mask15_82_7598)">
<mask id="mask16_82_7598" style="mask-type:luminance" maskUnits="userSpaceOnUse" x="272" y="141" width="21" height="22">
<path d="M292.401 141.589H272.697V162.869H292.401V141.589Z" fill="white"/>
</mask>
<g mask="url(#mask16_82_7598)">
<mask id="mask17_82_7598" style="mask-type:luminance" maskUnits="userSpaceOnUse" x="272" y="142" width="21" height="21">
<path d="M272.886 142.093H292.18V162.332H272.886V142.093Z" fill="white"/>
</mask>
<g mask="url(#mask17_82_7598)">
<mask id="mask18_82_7598" style="mask-type:luminance" maskUnits="userSpaceOnUse" x="272" y="142" width="21" height="21">
<path d="M272.979 155.064L281.75 142.186L292.156 149.27L283.384 162.148L272.979 155.064Z" fill="white"/>
</mask>
<g mask="url(#mask18_82_7598)">
<path d="M272.979 155.062L281.753 142.181L292.156 149.265L283.384 162.146L272.979 155.062Z" fill="black"/>
</g>
</g>
</g>
</g>
</g>
<mask id="mask19_82_7598" style="mask-type:luminance" maskUnits="userSpaceOnUse" x="145" y="135" width="151" height="103">
<path d="M145.799 135.282H295.546V237.741H145.799V135.282Z" fill="white"/>
</mask>
<g mask="url(#mask19_82_7598)">
<mask id="mask20_82_7598" style="mask-type:luminance" maskUnits="userSpaceOnUse" x="146" y="135" width="149" height="103">
<path d="M146.095 203.353L277.252 135.838L294.828 169.986L163.671 237.501L146.095 203.353Z" fill="white"/>
</mask>
<g mask="url(#mask20_82_7598)">
<mask id="mask21_82_7598" style="mask-type:luminance" maskUnits="userSpaceOnUse" x="145" y="135" width="151" height="103">
<path d="M295.541 135.282H145.795V237.74H295.541V135.282Z" fill="white"/>
</mask>
<g mask="url(#mask21_82_7598)">
<mask id="mask22_82_7598" style="mask-type:luminance" maskUnits="userSpaceOnUse" x="145" y="135" width="151" height="103">
<path d="M145.951 135.662H295.005V237.615H145.951V135.662Z" fill="white"/>
</mask>
<g mask="url(#mask22_82_7598)">
<mask id="mask23_82_7598" style="mask-type:luminance" maskUnits="userSpaceOnUse" x="146" y="135" width="149" height="103">
<path d="M146.09 203.352L277.247 135.836L294.823 169.985L163.666 237.5L146.09 203.352Z" fill="white"/>
</mask>
<g mask="url(#mask23_82_7598)">
<path d="M146.09 203.352L277.21 135.855L294.786 170.004L163.666 237.5L146.09 203.352Z" fill="black"/>
</g>
</g>
</g>
</g>
</g>
<mask id="mask24_82_7598" style="mask-type:luminance" maskUnits="userSpaceOnUse" x="290" y="155" width="17" height="15">
<path d="M290.03 155.774H306.581V169.961H290.03V155.774Z" fill="white"/>
</mask>
<g mask="url(#mask24_82_7598)">
<mask id="mask25_82_7598" style="mask-type:luminance" maskUnits="userSpaceOnUse" x="290" y="156" width="17" height="14">
<path d="M290.202 162.378L302.317 156.335L306.002 163.727L293.887 169.77L290.202 162.378Z" fill="white"/>
</mask>
<g mask="url(#mask25_82_7598)">
<mask id="mask26_82_7598" style="mask-type:luminance" maskUnits="userSpaceOnUse" x="290" y="155" width="17" height="15">
<path d="M306.582 155.774H290.031V169.961H306.582V155.774Z" fill="white"/>
</mask>
<g mask="url(#mask26_82_7598)">
<mask id="mask27_82_7598" style="mask-type:luminance" maskUnits="userSpaceOnUse" x="290" y="156" width="17" height="14">
<path d="M290.093 156.279H306.173V169.899H290.093V156.279Z" fill="white"/>
</mask>
<g mask="url(#mask27_82_7598)">
<mask id="mask28_82_7598" style="mask-type:luminance" maskUnits="userSpaceOnUse" x="290" y="156" width="16" height="14">
<path d="M290.196 162.378L302.311 156.335L305.996 163.727L293.881 169.77L290.196 162.378Z" fill="white"/>
</mask>
<g mask="url(#mask28_82_7598)">
<path d="M290.196 162.379L302.32 156.332L306.005 163.721L293.881 169.77L290.196 162.379Z" fill="black"/>
</g>
</g>
</g>
</g>
</g>
<mask id="mask29_82_7598" style="mask-type:luminance" maskUnits="userSpaceOnUse" x="295" y="151" width="16" height="15">
<path d="M295.546 151.835H310.521V165.233H295.546V151.835Z" fill="white"/>
</mask>
<g mask="url(#mask29_82_7598)">
<mask id="mask30_82_7598" style="mask-type:luminance" maskUnits="userSpaceOnUse" x="295" y="152" width="16" height="14">
<path d="M295.854 156.908L299.215 152.459L310.049 160.651L306.684 165.097L295.854 156.908Z" fill="white"/>
</mask>
<g mask="url(#mask30_82_7598)">
<mask id="mask31_82_7598" style="mask-type:luminance" maskUnits="userSpaceOnUse" x="295" y="151" width="16" height="15">
<path d="M310.516 151.834H295.541V165.232H310.516V151.834Z" fill="white"/>
</mask>
<g mask="url(#mask31_82_7598)">
<mask id="mask32_82_7598" style="mask-type:luminance" maskUnits="userSpaceOnUse" x="295" y="152" width="16" height="14">
<path d="M295.762 152.308H310.136V165.171H295.762V152.308Z" fill="white"/>
</mask>
<g mask="url(#mask32_82_7598)">
<mask id="mask33_82_7598" style="mask-type:luminance" maskUnits="userSpaceOnUse" x="295" y="152" width="16" height="14">
<path d="M295.847 156.907L299.209 152.458L310.042 160.651L306.677 165.096L295.847 156.907Z" fill="white"/>
</mask>
<g mask="url(#mask33_82_7598)">
<path d="M295.847 156.907L299.209 152.458L310.049 160.657L306.687 165.102L295.847 156.907Z" fill="black"/>
</g>
</g>
</g>
</g>
</g>
<mask id="mask34_82_7598" style="mask-type:luminance" maskUnits="userSpaceOnUse" x="282" y="146" width="22" height="21">
<path d="M282.936 146.318H303.427V166.022H282.936V146.318Z" fill="white"/>
</mask>
<g mask="url(#mask34_82_7598)">
<mask id="mask35_82_7598" style="mask-type:luminance" maskUnits="userSpaceOnUse" x="283" y="146" width="20" height="21">
<path d="M283.036 156.856L290.634 146.811L302.743 155.967L295.145 166.015L283.036 156.856Z" fill="white"/>
</mask>
<g mask="url(#mask35_82_7598)">
<mask id="mask36_82_7598" style="mask-type:luminance" maskUnits="userSpaceOnUse" x="282" y="146" width="22" height="21">
<path d="M303.425 146.318H282.934V166.022H303.425V146.318Z" fill="white"/>
</mask>
<g mask="url(#mask36_82_7598)">
<mask id="mask37_82_7598" style="mask-type:luminance" maskUnits="userSpaceOnUse" x="282" y="146" width="21" height="21">
<path d="M282.933 146.631H302.762V166.02H282.933V146.631Z" fill="white"/>
</mask>
<g mask="url(#mask37_82_7598)">
<mask id="mask38_82_7598" style="mask-type:luminance" maskUnits="userSpaceOnUse" x="283" y="146" width="20" height="21">
<path d="M283.032 156.856L290.63 146.811L302.739 155.967L295.141 166.015L283.032 156.856Z" fill="white"/>
</mask>
<g mask="url(#mask38_82_7598)">
<path d="M283.032 156.856L290.63 146.811L302.757 155.982L295.159 166.028L283.032 156.856Z" fill="black"/>
</g>
</g>
</g>
</g>
</g>
<mask id="mask39_82_7598" style="mask-type:luminance" maskUnits="userSpaceOnUse" x="30" y="145" width="16" height="14">
<path d="M30.7314 145.529H45.7061V158.14H30.7314V145.529Z" fill="white"/>
</mask>
<g mask="url(#mask39_82_7598)">
<mask id="mask40_82_7598" style="mask-type:luminance" maskUnits="userSpaceOnUse" x="31" y="145" width="15" height="14">
<path d="M31.0605 150.362L34.3886 145.677L45.1793 153.34L41.8513 158.025L31.0605 150.362Z" fill="white"/>
</mask>
<g mask="url(#mask40_82_7598)">
<mask id="mask41_82_7598" style="mask-type:luminance" maskUnits="userSpaceOnUse" x="30" y="145" width="16" height="14">
<path d="M45.7061 145.529H30.7314V158.14H45.7061V145.529Z" fill="white"/>
</mask>
<g mask="url(#mask41_82_7598)">
<mask id="mask42_82_7598" style="mask-type:luminance" maskUnits="userSpaceOnUse" x="30" y="145" width="16" height="14">
<path d="M30.9502 145.529H45.3245V158.14H30.9502V145.529Z" fill="white"/>
</mask>
<g mask="url(#mask42_82_7598)">
<mask id="mask43_82_7598" style="mask-type:luminance" maskUnits="userSpaceOnUse" x="31" y="145" width="15" height="14">
<path d="M31.0586 150.362L34.3866 145.677L45.1774 153.34L41.8493 158.025L31.0586 150.362Z" fill="white"/>
</mask>
<g mask="url(#mask43_82_7598)">
<path d="M31.0586 150.362L34.3866 145.677L45.1712 153.333L41.8432 158.022L31.0586 150.362Z" fill="black"/>
</g>
</g>
</g>
</g>
</g>
<mask id="mask44_82_7598" style="mask-type:luminance" maskUnits="userSpaceOnUse" x="36" y="143" width="16" height="13">
<path d="M36.25 143.165H51.2246V155.775H36.25V143.165Z" fill="white"/>
</mask>
<g mask="url(#mask44_82_7598)">
<mask id="mask45_82_7598" style="mask-type:luminance" maskUnits="userSpaceOnUse" x="36" y="143" width="16" height="13">
<path d="M36.9941 147.88L40.3222 143.194L51.1129 150.857L47.7849 155.543L36.9941 147.88Z" fill="white"/>
</mask>
<g mask="url(#mask45_82_7598)">
<mask id="mask46_82_7598" style="mask-type:luminance" maskUnits="userSpaceOnUse" x="36" y="143" width="16" height="13">
<path d="M51.2246 143.165H36.25V155.775H51.2246V143.165Z" fill="white"/>
</mask>
<g mask="url(#mask46_82_7598)">
<mask id="mask47_82_7598" style="mask-type:luminance" maskUnits="userSpaceOnUse" x="36" y="143" width="16" height="13">
<path d="M36.8154 143.164H51.1928V155.713H36.8154V143.164Z" fill="white"/>
</mask>
<g mask="url(#mask47_82_7598)">
<mask id="mask48_82_7598" style="mask-type:luminance" maskUnits="userSpaceOnUse" x="36" y="143" width="16" height="13">
<path d="M36.9907 147.88L40.3188 143.194L51.1095 150.857L47.7815 155.543L36.9907 147.88Z" fill="white"/>
</mask>
<g mask="url(#mask48_82_7598)">
<path d="M36.9907 147.88L40.3188 143.194L51.1033 150.851L47.7753 155.54L36.9907 147.88Z" fill="black"/>
</g>
</g>
</g>
</g>
</g>
<mask id="mask49_82_7598" style="mask-type:luminance" maskUnits="userSpaceOnUse" x="21" y="134" width="157" height="120">
<path d="M21.4951 134.496H177.325V253.126H21.4951V134.496Z" fill="white"/>
</mask>
<g mask="url(#mask49_82_7598)">
<path d="M29.7898 150.238L161.572 239.685" stroke="black" stroke-width="2.77412"/>
</g>
<mask id="mask50_82_7598" style="mask-type:luminance" maskUnits="userSpaceOnUse" x="144" y="144" width="177" height="110">
<path d="M144.225 144.742H320.358V253.127H144.225V144.742Z" fill="white"/>
</mask>
<g mask="url(#mask50_82_7598)">
<path d="M160.359 239.096L311.805 161.19" stroke="black" stroke-width="2.77412"/>
</g>
<mask id="mask51_82_7598" style="mask-type:luminance" maskUnits="userSpaceOnUse" x="21" y="58" width="177" height="109">
<path d="M21.4951 58.2988H197.817V166.021H21.4951V58.2988Z" fill="white"/>
</mask>
<g mask="url(#mask51_82_7598)">
<path d="M30.5578 149.807L182 71.9012" stroke="black" stroke-width="2.77412"/>
</g>
<mask id="mask52_82_7598" style="mask-type:luminance" maskUnits="userSpaceOnUse" x="163" y="58" width="158" height="120">
<path d="M163.929 58.2988H320.359V177.843H163.929V58.2988Z" fill="white"/>
</mask>
<g mask="url(#mask52_82_7598)">
<path d="M179.991 72.2608L311.77 161.705" stroke="black" stroke-width="2.77412"/>
</g>
</g>
</g>
</g>
</g>
<mask id="mask53_82_7598" style="mask-type:luminance" maskUnits="userSpaceOnUse" x="285" y="114" width="24" height="27">
<path d="M285.312 114.005H308.956V140.013H285.312V114.005Z" fill="white"/>
</mask>
<g mask="url(#mask53_82_7598)">
<mask id="mask54_82_7598" style="mask-type:luminance" maskUnits="userSpaceOnUse" x="285" y="114" width="24" height="26">
<path d="M285.869 120.694L298.593 114.306L308.18 133.409L295.453 139.794L285.869 120.694Z" fill="white"/>
</mask>
<g mask="url(#mask54_82_7598)">
<mask id="mask55_82_7598" style="mask-type:luminance" maskUnits="userSpaceOnUse" x="285" y="114" width="24" height="27">
<path d="M308.958 114.005H285.313V140.013H308.958V114.005Z" fill="white"/>
</mask>
<g mask="url(#mask55_82_7598)">
<mask id="mask56_82_7598" style="mask-type:luminance" maskUnits="userSpaceOnUse" x="285" y="114" width="24" height="26">
<path d="M285.754 114.288H308.265V139.826H285.754V114.288Z" fill="white"/>
</mask>
<g mask="url(#mask56_82_7598)">
<mask id="mask57_82_7598" style="mask-type:luminance" maskUnits="userSpaceOnUse" x="285" y="114" width="24" height="26">
<path d="M285.871 120.694L298.595 114.306L308.182 133.409L295.455 139.794L285.871 120.694Z" fill="white"/>
</mask>
<g mask="url(#mask57_82_7598)">
<path d="M285.871 120.694L298.595 114.306L308.176 133.396L295.449 139.782L285.871 120.694Z" fill="white"/>
</g>
</g>
</g>
</g>
</g>
<mask id="mask58_82_7598" style="mask-type:luminance" maskUnits="userSpaceOnUse" x="141" y="121" width="158" height="93">
<path d="M141.871 121.886H298.711V213.31H141.871V121.886Z" fill="white"/>
</mask>
<g mask="url(#mask58_82_7598)">
<mask id="mask59_82_7598" style="mask-type:luminance" maskUnits="userSpaceOnUse" x="141" y="122" width="158" height="92">
<path d="M141.898 196.297L289.976 122.07L298.461 138.997L150.383 213.223L141.898 196.297Z" fill="white"/>
</mask>
<g mask="url(#mask59_82_7598)">
<mask id="mask60_82_7598" style="mask-type:luminance" maskUnits="userSpaceOnUse" x="141" y="121" width="158" height="93">
<path d="M298.717 121.885H141.877V213.309H298.717V121.885Z" fill="white"/>
</mask>
<g mask="url(#mask60_82_7598)">
<mask id="mask61_82_7598" style="mask-type:luminance" maskUnits="userSpaceOnUse" x="141" y="122" width="158" height="92">
<path d="M141.88 122.042H298.624V213.309H141.88V122.042Z" fill="white"/>
</mask>
<g mask="url(#mask61_82_7598)">
<mask id="mask62_82_7598" style="mask-type:luminance" maskUnits="userSpaceOnUse" x="141" y="122" width="158" height="92">
<path d="M141.907 196.297L289.985 122.071L298.47 138.997L150.392 213.224L141.907 196.297Z" fill="white"/>
</mask>
<g mask="url(#mask62_82_7598)">
<path d="M141.908 196.297L290.004 122.061L298.489 138.988L150.393 213.223L141.908 196.297Z" fill="white"/>
</g>
</g>
</g>
</g>
</g>
<mask id="mask63_82_7598" style="mask-type:luminance" maskUnits="userSpaceOnUse" x="22" y="117" width="137" height="98">
<path d="M22.8594 117.157H158.419V214.886H22.8594V117.157Z" fill="white"/>
</mask>
<g mask="url(#mask63_82_7598)">
<mask id="mask64_82_7598" style="mask-type:luminance" maskUnits="userSpaceOnUse" x="23" y="117" width="136" height="98">
<path d="M32.1552 117.317L158.085 201.701L149.388 214.68L23.458 130.3L32.1552 117.317Z" fill="white"/>
</mask>
<g mask="url(#mask64_82_7598)">
<mask id="mask65_82_7598" style="mask-type:luminance" maskUnits="userSpaceOnUse" x="22" y="117" width="137" height="98">
<path d="M158.419 117.157H22.8594V214.886H158.419V117.157Z" fill="white"/>
</mask>
<g mask="url(#mask65_82_7598)">
<mask id="mask66_82_7598" style="mask-type:luminance" maskUnits="userSpaceOnUse" x="23" y="117" width="136" height="98">
<path d="M23.3965 117.314H158.264V214.73H23.3965V117.314Z" fill="white"/>
</mask>
<g mask="url(#mask66_82_7598)">
<mask id="mask67_82_7598" style="mask-type:luminance" maskUnits="userSpaceOnUse" x="23" y="117" width="136" height="98">
<path d="M32.1562 117.318L158.086 201.702L149.389 214.681L23.459 130.301L32.1562 117.318Z" fill="white"/>
</mask>
<g mask="url(#mask67_82_7598)">
<path d="M32.1562 117.318L158.108 201.714L149.41 214.694L23.459 130.301L32.1562 117.318Z" fill="white"/>
</g>
</g>
</g>
</g>
</g>
<path d="M23.6546 130.667L186.648 46.7483" stroke="black" stroke-width="2.36441"/>
<path d="M24.3099 129.839L148.549 215.096" stroke="black" stroke-width="2.36442"/>
<path d="M147.977 215.228L310.971 131.31" stroke="black" stroke-width="2.36441"/>
<path d="M186.889 46.5539L311.128 131.808" stroke="black" stroke-width="2.36442"/>
<mask id="mask68_82_7598" style="mask-type:luminance" maskUnits="userSpaceOnUse" x="194" y="67" width="86" height="88">
<path d="M194.674 67.5039H279.005V154.987H194.674V67.5039Z" fill="white"/>
</mask>
<g mask="url(#mask68_82_7598)">
<mask id="mask69_82_7598" style="mask-type:luminance" maskUnits="userSpaceOnUse" x="194" y="68" width="85" height="87">
<path d="M231.756 68.2119L278.283 99.171L241.318 154.726L194.79 123.763L231.756 68.2119Z" fill="white"/>
</mask>
<g mask="url(#mask69_82_7598)">
<mask id="mask70_82_7598" style="mask-type:luminance" maskUnits="userSpaceOnUse" x="194" y="67" width="86" height="88">
<path d="M279.006 67.5029H194.675V154.986H279.006V67.5029Z" fill="white"/>
</mask>
<g mask="url(#mask70_82_7598)">
<mask id="mask71_82_7598" style="mask-type:luminance" maskUnits="userSpaceOnUse" x="194" y="68" width="85" height="87">
<path d="M194.771 68.1338H278.375V154.764H194.771V68.1338Z" fill="white"/>
</mask>
<g mask="url(#mask71_82_7598)">
<mask id="mask72_82_7598" style="mask-type:luminance" maskUnits="userSpaceOnUse" x="194" y="68" width="85" height="87">
<path d="M231.754 68.2119L278.282 99.171L241.316 154.726L194.789 123.763L231.754 68.2119Z" fill="white"/>
</mask>
<g mask="url(#mask72_82_7598)">
<path d="M231.755 68.2119L278.283 99.171L241.277 154.787L194.75 123.828L231.755 68.2119Z" fill="white"/>
</g>
</g>
</g>
</g>
</g>
<mask id="mask73_82_7598" style="mask-type:luminance" maskUnits="userSpaceOnUse" x="122" y="85" width="161" height="119">
<path d="M122.956 85.6318H282.16V203.853H122.956V85.6318Z" fill="white"/>
</mask>
<g mask="url(#mask73_82_7598)">
<mask id="mask74_82_7598" style="mask-type:luminance" maskUnits="userSpaceOnUse" x="122" y="86" width="160" height="118">
<path d="M256.175 86.2002L281.457 136.044L148.261 203.596L122.982 153.752L256.175 86.2002Z" fill="white"/>
</mask>
<g mask="url(#mask74_82_7598)">
<mask id="mask75_82_7598" style="mask-type:luminance" maskUnits="userSpaceOnUse" x="122" y="85" width="161" height="119">
<path d="M282.162 85.6318H122.958V203.853H282.162V85.6318Z" fill="white"/>
</mask>
<g mask="url(#mask75_82_7598)">
<mask id="mask76_82_7598" style="mask-type:luminance" maskUnits="userSpaceOnUse" x="122" y="86" width="160" height="118">
<path d="M122.959 86.1055H281.597V203.757H122.959V86.1055Z" fill="white"/>
</mask>
<g mask="url(#mask76_82_7598)">
<mask id="mask77_82_7598" style="mask-type:luminance" maskUnits="userSpaceOnUse" x="122" y="86" width="160" height="118">
<path d="M256.179 86.2002L281.461 136.044L148.265 203.596L122.986 153.752L256.179 86.2002Z" fill="white"/>
</mask>
<g mask="url(#mask77_82_7598)">
<path d="M256.18 86.2002L281.462 136.044L148.285 203.587L123.006 153.743L256.18 86.2002Z" fill="white"/>
</g>
</g>
</g>
</g>
</g>
<mask id="mask78_82_7598" style="mask-type:luminance" maskUnits="userSpaceOnUse" x="107" y="36" width="128" height="152">
<path d="M107.188 36.7676H234.078V187.302H107.188V36.7676Z" fill="white"/>
</mask>
<g mask="url(#mask78_82_7598)">
<mask id="mask79_82_7598" style="mask-type:luminance" maskUnits="userSpaceOnUse" x="107" y="37" width="127" height="150">
<path d="M187.071 37.4912L233.441 68.6873L154.166 186.517L107.795 155.318L187.071 37.4912Z" fill="white"/>
</mask>
<g mask="url(#mask79_82_7598)">
<mask id="mask80_82_7598" style="mask-type:luminance" maskUnits="userSpaceOnUse" x="107" y="36" width="128" height="152">
<path d="M234.075 36.7676H107.185V187.302H234.075V36.7676Z" fill="white"/>
</mask>
<g mask="url(#mask80_82_7598)">
<mask id="mask81_82_7598" style="mask-type:luminance" maskUnits="userSpaceOnUse" x="107" y="37" width="127" height="150">
<path d="M107.758 37.3027H233.546V186.544H107.758V37.3027Z" fill="white"/>
</mask>
<g mask="url(#mask81_82_7598)">
<mask id="mask82_82_7598" style="mask-type:luminance" maskUnits="userSpaceOnUse" x="107" y="37" width="127" height="150">
<path d="M187.066 37.4912L233.437 68.6873L154.161 186.517L107.791 155.318L187.066 37.4912Z" fill="white"/>
</mask>
<g mask="url(#mask82_82_7598)">
<path d="M187.066 37.4912L233.437 68.6873L154.1 186.606L107.732 155.407L187.066 37.4912Z" fill="white"/>
</g>
</g>
</g>
</g>
</g>
<mask id="mask83_82_7598" style="mask-type:luminance" maskUnits="userSpaceOnUse" x="61" y="35" width="154" height="117">
<path d="M61.4795 35.9788H214.378V151.835H61.4795V35.9788Z" fill="white"/>
</mask>
<g mask="url(#mask83_82_7598)">
<mask id="mask84_82_7598" style="mask-type:luminance" maskUnits="userSpaceOnUse" x="61" y="36" width="153" height="116">
<path d="M187.813 36.0354L213.603 85.6173L87.6113 151.147L61.8213 101.565L187.813 36.0354Z" fill="white"/>
</mask>
<g mask="url(#mask84_82_7598)">
<mask id="mask85_82_7598" style="mask-type:luminance" maskUnits="userSpaceOnUse" x="61" y="35" width="154" height="117">
<path d="M214.381 35.9788H61.4824V151.835H214.381V35.9788Z" fill="white"/>
</mask>
<g mask="url(#mask85_82_7598)">
<mask id="mask86_82_7598" style="mask-type:luminance" maskUnits="userSpaceOnUse" x="61" y="35" width="153" height="117">
<path d="M61.7988 35.9788H213.691V151.173H61.7988V35.9788Z" fill="white"/>
</mask>
<g mask="url(#mask86_82_7598)">
<mask id="mask87_82_7598" style="mask-type:luminance" maskUnits="userSpaceOnUse" x="61" y="36" width="153" height="116">
<path d="M187.818 36.0354L213.608 85.6173L87.6162 151.147L61.8262 101.565L187.818 36.0354Z" fill="white"/>
</mask>
<g mask="url(#mask87_82_7598)">
<path d="M187.816 36.0354L213.606 85.6173L87.5164 151.196L61.7295 101.614L187.816 36.0354Z" fill="white"/>
</g>
</g>
</g>
</g>
</g>
<mask id="mask88_82_7598" style="mask-type:luminance" maskUnits="userSpaceOnUse" x="63" y="99" width="119" height="106">
<path d="M63.8438 99.0293H181.276V204.64H63.8438V99.0293Z" fill="white"/>
</mask>
<g mask="url(#mask88_82_7598)">
<mask id="mask89_82_7598" style="mask-type:luminance" maskUnits="userSpaceOnUse" x="64" y="99" width="117" height="106">
<path d="M180.515 158.389L148.503 204.2L64.5293 145.521L96.5413 99.71L180.515 158.389Z" fill="white"/>
</mask>
<g mask="url(#mask89_82_7598)">
<mask id="mask90_82_7598" style="mask-type:luminance" maskUnits="userSpaceOnUse" x="63" y="99" width="119" height="106">
<path d="M181.274 99.0293H63.8413V204.64H181.274V99.0293Z" fill="white"/>
</mask>
<g mask="url(#mask90_82_7598)">
<mask id="mask91_82_7598" style="mask-type:luminance" maskUnits="userSpaceOnUse" x="64" y="99" width="117" height="106">
<path d="M64.4419 99.5352H180.582V204.327H64.4419V99.5352Z" fill="white"/>
</mask>
<g mask="url(#mask91_82_7598)">
<mask id="mask92_82_7598" style="mask-type:luminance" maskUnits="userSpaceOnUse" x="64" y="99" width="117" height="106">
<path d="M180.514 158.389L148.502 204.2L64.5278 145.521L96.5398 99.71L180.514 158.389Z" fill="white"/>
</mask>
<g mask="url(#mask92_82_7598)">
<path d="M180.513 158.39L148.501 204.2L64.5737 145.555L96.5857 99.7441L180.513 158.39Z" fill="white"/>
</g>
</g>
</g>
</g>
</g>
<mask id="mask93_82_7598" style="mask-type:luminance" maskUnits="userSpaceOnUse" x="30" y="110" width="62" height="48">
<path d="M30.7383 110.064H91.425V157.353H30.7383V110.064Z" fill="white"/>
</mask>
<g mask="url(#mask93_82_7598)">
<mask id="mask94_82_7598" style="mask-type:luminance" maskUnits="userSpaceOnUse" x="31" y="110" width="60" height="47">
<path d="M90.8716 143.31L82.079 156.921L31.1455 124.029L39.9382 110.418L90.8716 143.31Z" fill="white"/>
</mask>
<g mask="url(#mask94_82_7598)">
<mask id="mask95_82_7598" style="mask-type:luminance" maskUnits="userSpaceOnUse" x="30" y="110" width="62" height="48">
<path d="M91.422 110.064H30.7354V157.353H91.422V110.064Z" fill="white"/>
</mask>
<g mask="url(#mask95_82_7598)">
<mask id="mask96_82_7598" style="mask-type:luminance" maskUnits="userSpaceOnUse" x="30" y="110" width="61" height="48">
<path d="M30.9551 110.316H90.9152V157.038H30.9551V110.316Z" fill="white"/>
</mask>
<g mask="url(#mask96_82_7598)">
<mask id="mask97_82_7598" style="mask-type:luminance" maskUnits="userSpaceOnUse" x="31" y="110" width="60" height="47">
<path d="M90.8668 143.31L82.0741 156.921L31.1406 124.029L39.9333 110.418L90.8668 143.31Z" fill="white"/>
</mask>
<g mask="url(#mask97_82_7598)">
<path d="M90.8667 143.31L82.0741 156.921L31.1313 124.022L39.924 110.408L90.8667 143.31Z" fill="white"/>
</g>
</g>
</g>
</g>
</g>
<mask id="mask98_82_7598" style="mask-type:luminance" maskUnits="userSpaceOnUse" x="39" y="85" width="66" height="48">
<path d="M39.4111 85.6318H104.039V132.92H39.4111V85.6318Z" fill="white"/>
</mask>
<g mask="url(#mask98_82_7598)">
<mask id="mask99_82_7598" style="mask-type:luminance" maskUnits="userSpaceOnUse" x="39" y="85" width="65" height="48">
<path d="M93.9734 85.8438L103.887 105.692L49.6467 132.784L39.7334 112.936L93.9734 85.8438Z" fill="white"/>
</mask>
<g mask="url(#mask99_82_7598)">
<mask id="mask100_82_7598" style="mask-type:luminance" maskUnits="userSpaceOnUse" x="39" y="85" width="66" height="48">
<path d="M104.04 85.6318H39.4131V132.92H104.04V85.6318Z" fill="white"/>
</mask>
<g mask="url(#mask100_82_7598)">
<mask id="mask101_82_7598" style="mask-type:luminance" maskUnits="userSpaceOnUse" x="39" y="85" width="65" height="48">
<path d="M39.667 85.7275H103.98V132.825H39.667V85.7275Z" fill="white"/>
</mask>
<g mask="url(#mask101_82_7598)">
<mask id="mask102_82_7598" style="mask-type:luminance" maskUnits="userSpaceOnUse" x="39" y="85" width="65" height="48">
<path d="M93.9753 85.8438L103.889 105.692L49.6487 132.784L39.7354 112.936L93.9753 85.8438Z" fill="white"/>
</mask>
<g mask="url(#mask102_82_7598)">
<path d="M93.9709 85.8438L103.884 105.692L49.6135 132.797L39.7002 112.951L93.9709 85.8438Z" fill="white"/>
</g>
</g>
</g>
</g>
</g>
<mask id="mask103_82_7598" style="mask-type:luminance" maskUnits="userSpaceOnUse" x="26" y="114" width="19" height="15">
<path d="M26.8018 114.793H44.1408V128.191H26.8018V114.793Z" fill="white"/>
</mask>
<g mask="url(#mask103_82_7598)">
<mask id="mask104_82_7598" style="mask-type:luminance" maskUnits="userSpaceOnUse" x="27" y="115" width="17" height="13">
<path d="M30.4232 115.062L43.4922 122.319L40.3735 127.931L27.3076 120.675L30.4232 115.062Z" fill="white"/>
</mask>
<g mask="url(#mask104_82_7598)">
<mask id="mask105_82_7598" style="mask-type:luminance" maskUnits="userSpaceOnUse" x="26" y="114" width="19" height="15">
<path d="M44.1389 114.793H26.7998V128.191H44.1389V114.793Z" fill="white"/>
</mask>
<g mask="url(#mask105_82_7598)">
<mask id="mask106_82_7598" style="mask-type:luminance" maskUnits="userSpaceOnUse" x="27" y="115" width="17" height="14">
<path d="M27.1816 115.045H43.6371V128.095H27.1816V115.045Z" fill="white"/>
</mask>
<g mask="url(#mask106_82_7598)">
<mask id="mask107_82_7598" style="mask-type:luminance" maskUnits="userSpaceOnUse" x="27" y="115" width="17" height="13">
<path d="M30.4242 115.063L43.4931 122.32L40.3745 127.932L27.3086 120.676L30.4242 115.063Z" fill="white"/>
</mask>
<g mask="url(#mask107_82_7598)">
<path d="M30.4242 115.063L43.4962 122.32L40.3775 127.935L27.3086 120.676L30.4242 115.063Z" fill="white"/>
</g>
</g>
</g>
</g>
</g>
<mask id="mask108_82_7598" style="mask-type:luminance" maskUnits="userSpaceOnUse" x="31" y="113" width="18" height="14">
<path d="M31.5273 113.217H48.0783V126.615H31.5273V113.217Z" fill="white"/>
</mask>
<g mask="url(#mask108_82_7598)">
<mask id="mask109_82_7598" style="mask-type:luminance" maskUnits="userSpaceOnUse" x="31" y="113" width="17" height="14">
<path d="M34.6587 113.41L47.7246 120.667L44.609 126.279L31.54 119.023L34.6587 113.41Z" fill="white"/>
</mask>
<g mask="url(#mask109_82_7598)">
<mask id="mask110_82_7598" style="mask-type:luminance" maskUnits="userSpaceOnUse" x="31" y="113" width="18" height="14">
<path d="M48.0724 113.217H31.5215V126.615H48.0724V113.217Z" fill="white"/>
</mask>
<g mask="url(#mask110_82_7598)">
<mask id="mask111_82_7598" style="mask-type:luminance" maskUnits="userSpaceOnUse" x="31" y="113" width="17" height="14">
<path d="M31.5195 113.342H47.7872V126.392H31.5195V113.342Z" fill="white"/>
</mask>
<g mask="url(#mask111_82_7598)">
<mask id="mask112_82_7598" style="mask-type:luminance" maskUnits="userSpaceOnUse" x="31" y="113" width="17" height="14">
<path d="M34.6509 113.409L47.7168 120.666L44.6012 126.278L31.5322 119.022L34.6509 113.409Z" fill="white"/>
</mask>
<g mask="url(#mask112_82_7598)">
<path d="M34.6509 113.409L47.7199 120.666L44.6042 126.281L31.5322 119.022L34.6509 113.409Z" fill="white"/>
</g>
</g>
</g>
</g>
</g>
<mask id="mask113_82_7598" style="mask-type:luminance" maskUnits="userSpaceOnUse" x="269" y="112" width="37" height="27">
<path d="M269.55 112.429H305.016V138.437H269.55V112.429Z" fill="white"/>
</mask>
<g mask="url(#mask113_82_7598)">
<mask id="mask114_82_7598" style="mask-type:luminance" maskUnits="userSpaceOnUse" x="270" y="112" width="35" height="27">
<path d="M270.048 127.36L299.418 112.509L304.901 123.355L275.531 138.206L270.048 127.36Z" fill="white"/>
</mask>
<g mask="url(#mask114_82_7598)">
<mask id="mask115_82_7598" style="mask-type:luminance" maskUnits="userSpaceOnUse" x="269" y="112" width="37" height="27">
<path d="M305.023 112.429H269.557V138.437H305.023V112.429Z" fill="white"/>
</mask>
<g mask="url(#mask115_82_7598)">
<mask id="mask116_82_7598" style="mask-type:luminance" maskUnits="userSpaceOnUse" x="269" y="112" width="37" height="27">
<path d="M269.864 112.429H305.016V138.311H269.864V112.429Z" fill="white"/>
</mask>
<g mask="url(#mask116_82_7598)">
<mask id="mask117_82_7598" style="mask-type:luminance" maskUnits="userSpaceOnUse" x="270" y="112" width="35" height="27">
<path d="M270.053 127.36L299.423 112.509L304.906 123.355L275.536 138.206L270.053 127.36Z" fill="white"/>
</mask>
<g mask="url(#mask117_82_7598)">
<path d="M270.053 127.36L299.411 112.515L304.897 123.358L275.536 138.206L270.053 127.36Z" fill="white"/>
</g>
</g>
</g>
</g>
</g>
<mask id="mask118_82_7598" style="mask-type:luminance" maskUnits="userSpaceOnUse" x="267" y="96" width="35" height="31">
<path d="M267.182 96.666H301.86V126.615H267.182V96.666Z" fill="white"/>
</mask>
<g mask="url(#mask118_82_7598)">
<mask id="mask119_82_7598" style="mask-type:luminance" maskUnits="userSpaceOnUse" x="267" y="97" width="35" height="29">
<path d="M274.436 97.2412L301.541 115.91L294.648 125.919L267.543 107.25L274.436 97.2412Z" fill="white"/>
</mask>
<g mask="url(#mask119_82_7598)">
<mask id="mask120_82_7598" style="mask-type:luminance" maskUnits="userSpaceOnUse" x="267" y="96" width="35" height="31">
<path d="M301.856 96.666H267.178V126.615H301.856V96.666Z" fill="white"/>
</mask>
<g mask="url(#mask120_82_7598)">
<mask id="mask121_82_7598" style="mask-type:luminance" maskUnits="userSpaceOnUse" x="267" y="97" width="35" height="30">
<path d="M267.396 97.0742H301.631V126.014H267.396V97.0742Z" fill="white"/>
</mask>
<g mask="url(#mask121_82_7598)">
<mask id="mask122_82_7598" style="mask-type:luminance" maskUnits="userSpaceOnUse" x="267" y="97" width="35" height="29">
<path d="M274.43 97.2412L301.535 115.91L294.642 125.919L267.537 107.25L274.43 97.2412Z" fill="white"/>
</mask>
<g mask="url(#mask122_82_7598)">
<path d="M274.43 97.2412L301.526 115.904L294.632 125.913L267.537 107.25L274.43 97.2412Z" fill="white"/>
</g>
</g>
</g>
</g>
</g>
<mask id="mask123_82_7598" style="mask-type:luminance" maskUnits="userSpaceOnUse" x="298" y="114" width="12" height="12">
<path d="M298.706 114.005H309.74V125.827H298.706V114.005Z" fill="white"/>
</mask>
<g mask="url(#mask123_82_7598)">
<mask id="mask124_82_7598" style="mask-type:luminance" maskUnits="userSpaceOnUse" x="298" y="114" width="12" height="12">
<path d="M303.459 114.737L309.626 120.217L304.9 125.531L298.736 120.051L303.459 114.737Z" fill="white"/>
</mask>
<g mask="url(#mask124_82_7598)">
<mask id="mask125_82_7598" style="mask-type:luminance" maskUnits="userSpaceOnUse" x="298" y="114" width="12" height="12">
<path d="M309.737 114.005H298.703V125.827H309.737V114.005Z" fill="white"/>
</mask>
<g mask="url(#mask125_82_7598)">
<mask id="mask126_82_7598" style="mask-type:luminance" maskUnits="userSpaceOnUse" x="298" y="114" width="12" height="12">
<path d="M298.7 114.667H309.734V125.639H298.7V114.667Z" fill="white"/>
</mask>
<g mask="url(#mask126_82_7598)">
<mask id="mask127_82_7598" style="mask-type:luminance" maskUnits="userSpaceOnUse" x="298" y="114" width="12" height="12">
<path d="M303.454 114.737L309.621 120.217L304.895 125.531L298.731 120.051L303.454 114.737Z" fill="white"/>
</mask>
<g mask="url(#mask127_82_7598)">
<path d="M303.454 114.737L309.618 120.217L304.895 125.531L298.731 120.051L303.454 114.737Z" fill="white"/>
</g>
</g>
</g>
</g>
</g>
<path d="M24.4808 120.094L187.475 36.1761" stroke="black" stroke-width="2.36441"/>
<path d="M25.1351 119.269L149.375 204.526" stroke="black" stroke-width="2.36442"/>
<path d="M148.799 204.656L311.796 120.738" stroke="black" stroke-width="2.36441"/>
<path d="M186.882 35.8396L311.118 121.097" stroke="black" stroke-width="2.36442"/>
<mask id="mask128_82_7598" style="mask-type:luminance" maskUnits="userSpaceOnUse" x="56" y="93" width="66" height="49">
<path d="M56.7485 93.5129H121.376V141.589H56.7485V93.5129Z" fill="white"/>
</mask>
<g mask="url(#mask128_82_7598)">
<mask id="mask129_82_7598" style="mask-type:luminance" maskUnits="userSpaceOnUse" x="57" y="94" width="65" height="48">
<path d="M111.343 94.1921L121.256 114.04L67.0129 141.133L57.0996 121.284L111.343 94.1921Z" fill="white"/>
</mask>
<g mask="url(#mask129_82_7598)">
<mask id="mask130_82_7598" style="mask-type:luminance" maskUnits="userSpaceOnUse" x="56" y="93" width="66" height="49">
<path d="M121.372 93.5142H56.7451V141.591H121.372V93.5142Z" fill="white"/>
</mask>
<g mask="url(#mask130_82_7598)">
<mask id="mask131_82_7598" style="mask-type:luminance" maskUnits="userSpaceOnUse" x="57" y="94" width="65" height="48">
<path d="M57.0557 94.0503H121.369V141.151H57.0557V94.0503Z" fill="white"/>
</mask>
<g mask="url(#mask131_82_7598)">
<mask id="mask132_82_7598" style="mask-type:luminance" maskUnits="userSpaceOnUse" x="57" y="94" width="65" height="48">
<path d="M111.337 94.1929L121.25 114.041L67.0071 141.133L57.0938 121.285L111.337 94.1929Z" fill="white"/>
</mask>
<g mask="url(#mask132_82_7598)">
<path d="M111.339 94.1929L121.252 114.041L66.9817 141.146L57.0684 121.301L111.339 94.1929Z" fill="white"/>
</g>
</g>
</g>
</g>
</g>
<mask id="mask133_82_7598" style="mask-type:luminance" maskUnits="userSpaceOnUse" x="255" y="100" width="36" height="30">
<path d="M255.36 100.606H290.038V129.768H255.36V100.606Z" fill="white"/>
</mask>
<g mask="url(#mask133_82_7598)">
<mask id="mask134_82_7598" style="mask-type:luminance" maskUnits="userSpaceOnUse" x="255" y="100" width="35" height="30">
<path d="M262.339 100.666L289.444 119.332L282.551 129.341L255.446 110.675L262.339 100.666Z" fill="white"/>
</mask>
<g mask="url(#mask134_82_7598)">
<mask id="mask135_82_7598" style="mask-type:luminance" maskUnits="userSpaceOnUse" x="255" y="100" width="36" height="30">
<path d="M290.038 100.606H255.36V129.768H290.038V100.606Z" fill="white"/>
</mask>
<g mask="url(#mask135_82_7598)">
<mask id="mask136_82_7598" style="mask-type:luminance" maskUnits="userSpaceOnUse" x="255" y="100" width="35" height="30">
<path d="M255.36 100.606H289.534V129.42H255.36V100.606Z" fill="white"/>
</mask>
<g mask="url(#mask136_82_7598)">
<mask id="mask137_82_7598" style="mask-type:luminance" maskUnits="userSpaceOnUse" x="255" y="100" width="35" height="30">
<path d="M262.339 100.666L289.444 119.332L282.551 129.341L255.446 110.675L262.339 100.666Z" fill="white"/>
</mask>
<g mask="url(#mask137_82_7598)">
<path d="M262.339 100.666L289.435 119.326L282.539 129.335L255.446 110.675L262.339 100.666Z" fill="white"/>
</g>
</g>
</g>
</g>
</g>
<path d="M49.3446 112.561L161.664 188.798" stroke="black" stroke-width="2.36442"/>
<path d="M160.629 189.254L289.708 122.853" stroke="black" stroke-width="2.36442"/>
<path d="M49.9985 113.149L179.075 46.7488" stroke="black" stroke-width="2.36442"/>
<path d="M177.361 47.0558L289.68 123.293" stroke="black" stroke-width="2.36442"/>
<path d="M24.2064 130.799L25.1485 118.715" stroke="black" stroke-width="2.36442"/>
<mask id="mask138_82_7598" style="mask-type:luminance" maskUnits="userSpaceOnUse" x="91" y="151" width="10" height="10">
<path d="M91.4307 151.047H100.1V160.505H91.4307V151.047Z" fill="white"/>
</mask>
<g mask="url(#mask138_82_7598)">
<mask id="mask139_82_7598" style="mask-type:luminance" maskUnits="userSpaceOnUse" x="91" y="151" width="10" height="10">
<path d="M91.9007 151.482L100.259 152.135L99.6097 160.494L91.248 159.844L91.9007 151.482Z" fill="white"/>
</mask>
<g mask="url(#mask139_82_7598)">
<mask id="mask140_82_7598" style="mask-type:luminance" maskUnits="userSpaceOnUse" x="91" y="151" width="9" height="10">
<path d="M96.0824 151.808C93.7734 151.629 91.7568 153.353 91.5752 155.662C91.3966 157.971 93.1207 159.988 95.4297 160.166C97.7387 160.348 99.7552 158.621 99.9338 156.315C100.115 154.006 98.3914 151.989 96.0824 151.808Z" fill="white"/>
</mask>
<g mask="url(#mask140_82_7598)">
<mask id="mask141_82_7598" style="mask-type:luminance" maskUnits="userSpaceOnUse" x="91" y="151" width="10" height="10">
<path d="M100.102 151.047H91.4326V160.505H100.102V151.047Z" fill="white"/>
</mask>
<g mask="url(#mask141_82_7598)">
<mask id="mask142_82_7598" style="mask-type:luminance" maskUnits="userSpaceOnUse" x="91" y="151" width="10" height="10">
<path d="M91.4355 151.553H100.105V160.444H91.4355V151.553Z" fill="white"/>
</mask>
<g mask="url(#mask142_82_7598)">
<mask id="mask143_82_7598" style="mask-type:luminance" maskUnits="userSpaceOnUse" x="91" y="151" width="10" height="10">
<path d="M91.9056 151.482L100.264 152.135L99.6146 160.494L91.2529 159.844L91.9056 151.482Z" fill="white"/>
</mask>
<g mask="url(#mask143_82_7598)">
<mask id="mask144_82_7598" style="mask-type:luminance" maskUnits="userSpaceOnUse" x="91" y="151" width="9" height="10">
<path d="M96.0853 151.808C93.7763 151.629 91.7598 153.353 91.5781 155.662C91.3996 157.971 93.1236 159.988 95.4326 160.166C97.7416 160.348 99.7582 158.621 99.9367 156.315C100.118 154.006 98.3943 151.989 96.0853 151.808Z" fill="white"/>
</mask>
<g mask="url(#mask144_82_7598)">
<path d="M91.9046 151.482L100.263 152.135L99.6136 160.494L91.252 159.844L91.9046 151.482Z" fill="white"/>
</g>
</g>
</g>
</g>
</g>
</g>
</g>
<mask id="mask145_82_7598" style="mask-type:luminance" maskUnits="userSpaceOnUse" x="91" y="151" width="10" height="10">
<path d="M91.4307 151.047H100.1V160.505H91.4307V151.047Z" fill="white"/>
</mask>
<g mask="url(#mask145_82_7598)">
<mask id="mask146_82_7598" style="mask-type:luminance" maskUnits="userSpaceOnUse" x="91" y="151" width="10" height="10">
<path d="M91.9022 151.482L100.153 152.126L99.5096 160.377L91.2588 159.733L91.9022 151.482Z" fill="white"/>
</mask>
<g mask="url(#mask146_82_7598)">
<mask id="mask147_82_7598" style="mask-type:luminance" maskUnits="userSpaceOnUse" x="91" y="151" width="10" height="10">
<path d="M91.9045 151.482L100.257 152.135L99.6042 160.488L91.2549 159.835L91.9045 151.482Z" fill="white"/>
</mask>
<g mask="url(#mask147_82_7598)">
<mask id="mask148_82_7598" style="mask-type:luminance" maskUnits="userSpaceOnUse" x="91" y="151" width="9" height="10">
<path d="M96.0803 151.808C93.7713 151.629 91.7578 153.353 91.5762 155.659C91.3976 157.965 93.1217 159.978 95.4276 160.16C97.7335 160.339 99.75 158.615 99.9286 156.309C100.11 154.003 98.3862 151.989 96.0803 151.808Z" fill="white"/>
</mask>
<g mask="url(#mask148_82_7598)">
<path d="M96.0826 151.808C93.7736 151.63 91.7601 153.354 91.5785 155.66C91.3999 157.966 93.124 159.979 95.4299 160.161C97.7358 160.339 99.7524 158.615 99.9309 156.309C100.113 154.003 98.3885 151.99 96.0826 151.808Z" stroke="black" stroke-width="2.36442"/>
</g>
</g>
</g>
</g>
<mask id="mask149_82_7598" style="mask-type:luminance" maskUnits="userSpaceOnUse" x="122" y="38" width="50" height="36">
<path d="M122.166 38.3438H171.031V73.81H122.166V38.3438Z" fill="white"/>
</mask>
<g mask="url(#mask149_82_7598)">
<mask id="mask150_82_7598" style="mask-type:luminance" maskUnits="userSpaceOnUse" x="119" y="34" width="55" height="44">
<path d="M119.569 67.9478L126.475 34.5381L173.979 44.359L167.073 77.7657L119.569 67.9478Z" fill="white"/>
</mask>
<g mask="url(#mask150_82_7598)">
<mask id="mask151_82_7598" style="mask-type:luminance" maskUnits="userSpaceOnUse" x="122" y="38" width="49" height="36">
<path d="M123.021 51.2423C121.115 60.469 130.176 70.1391 143.257 72.8422C156.341 75.5483 168.49 70.2623 170.398 61.0355C172.304 51.8087 163.247 42.1386 150.162 39.4356C137.081 36.7294 124.929 42.0186 123.021 51.2423Z" fill="white"/>
</mask>
<g mask="url(#mask151_82_7598)">
<mask id="mask152_82_7598" style="mask-type:luminance" maskUnits="userSpaceOnUse" x="122" y="38" width="50" height="36">
<path d="M171.031 38.3433H122.166V73.8095H171.031V38.3433Z" fill="white"/>
</mask>
<g mask="url(#mask152_82_7598)">
<mask id="mask153_82_7598" style="mask-type:luminance" maskUnits="userSpaceOnUse" x="122" y="38" width="50" height="36">
<path d="M122.166 38.3433H171.031V73.8095H122.166V38.3433Z" fill="white"/>
</mask>
<g mask="url(#mask153_82_7598)">
<mask id="mask154_82_7598" style="mask-type:luminance" maskUnits="userSpaceOnUse" x="119" y="34" width="55" height="44">
<path d="M119.569 67.9473L126.475 34.5376L173.979 44.3585L167.073 77.7652L119.569 67.9473Z" fill="white"/>
</mask>
<g mask="url(#mask154_82_7598)">
<mask id="mask155_82_7598" style="mask-type:luminance" maskUnits="userSpaceOnUse" x="122" y="38" width="49" height="36">
<path d="M123.021 51.2418C121.115 60.4685 130.176 70.1386 143.257 72.8417C156.341 75.5479 168.49 70.2618 170.398 61.035C172.304 51.8082 163.247 42.1382 150.162 39.4351C137.081 36.7289 124.929 42.0181 123.021 51.2418Z" fill="white"/>
</mask>
<g mask="url(#mask155_82_7598)">
<path d="M119.569 67.9468L126.475 34.5371L173.846 44.3304L166.941 77.7401L119.569 67.9468Z" fill="white"/>
</g>
</g>
</g>
</g>
</g>
</g>
</g>
<mask id="mask156_82_7598" style="mask-type:luminance" maskUnits="userSpaceOnUse" x="122" y="38" width="50" height="36">
<path d="M122.166 38.3438H171.031V73.81H122.166V38.3438Z" fill="white"/>
</mask>
<g mask="url(#mask156_82_7598)">
<mask id="mask157_82_7598" style="mask-type:luminance" maskUnits="userSpaceOnUse" x="119" y="34" width="55" height="44">
<path d="M119.569 67.9488L126.509 34.376L173.976 44.1846L167.036 77.7606L119.569 67.9488Z" fill="white"/>
</mask>
<g mask="url(#mask157_82_7598)">
<mask id="mask158_82_7598" style="mask-type:luminance" maskUnits="userSpaceOnUse" x="119" y="34" width="56" height="44">
<path d="M119.569 67.9481L126.481 34.5107L174.185 44.3717L167.273 77.8091L119.569 67.9481Z" fill="white"/>
</mask>
<g mask="url(#mask158_82_7598)">
<mask id="mask159_82_7598" style="mask-type:luminance" maskUnits="userSpaceOnUse" x="122" y="38" width="49" height="36">
<path d="M123.021 51.2472C121.115 60.4709 130.173 70.141 143.254 72.8441C156.332 75.5472 168.483 70.2611 170.389 61.0374C172.295 51.8137 163.237 42.1467 150.156 39.4436C137.078 36.7375 124.93 42.0236 123.021 51.2472Z" fill="white"/>
</mask>
<g mask="url(#mask159_82_7598)">
<path d="M123.021 51.2465C121.116 60.4701 130.173 70.1402 143.254 72.8433C156.333 75.5464 168.484 70.2603 170.39 61.0366C172.295 51.813 163.238 42.1459 150.157 39.4429C137.079 36.7367 124.93 42.0228 123.021 51.2465Z" stroke="black" stroke-width="3.54663"/>
</g>
</g>
</g>
</g>
<mask id="mask160_82_7598" style="mask-type:luminance" maskUnits="userSpaceOnUse" x="123" y="33" width="49" height="37">
<path d="M123.739 33.6152H171.816V69.0815H123.739V33.6152Z" fill="white"/>
</mask>
<g mask="url(#mask160_82_7598)">
<mask id="mask161_82_7598" style="mask-type:luminance" maskUnits="userSpaceOnUse" x="120" y="29" width="56" height="44">
<path d="M120.704 62.8988L127.61 29.4922L175.113 39.3101L168.208 72.7198L120.704 62.8988Z" fill="white"/>
</mask>
<g mask="url(#mask161_82_7598)">
<mask id="mask162_82_7598" style="mask-type:luminance" maskUnits="userSpaceOnUse" x="123" y="33" width="49" height="36">
<path d="M124.154 46.1943C122.246 55.421 131.306 65.0911 144.387 67.7973C157.472 70.5004 169.623 65.2143 171.529 55.9875C173.435 46.7607 164.377 37.0907 151.293 34.3876C138.211 31.6845 126.06 36.9706 124.154 46.1943Z" fill="white"/>
</mask>
<g mask="url(#mask162_82_7598)">
<mask id="mask163_82_7598" style="mask-type:luminance" maskUnits="userSpaceOnUse" x="123" y="33" width="49" height="37">
<path d="M171.813 33.614H123.736V69.0803H171.813V33.614Z" fill="white"/>
</mask>
<g mask="url(#mask163_82_7598)">
<mask id="mask164_82_7598" style="mask-type:luminance" maskUnits="userSpaceOnUse" x="123" y="33" width="49" height="37">
<path d="M123.734 33.6135H171.81V69.0798H123.734V33.6135Z" fill="white"/>
</mask>
<g mask="url(#mask164_82_7598)">
<mask id="mask165_82_7598" style="mask-type:luminance" maskUnits="userSpaceOnUse" x="120" y="29" width="56" height="44">
<path d="M120.698 62.8976L127.603 29.491L175.107 39.3088L168.202 72.7185L120.698 62.8976Z" fill="white"/>
</mask>
<g mask="url(#mask165_82_7598)">
<mask id="mask166_82_7598" style="mask-type:luminance" maskUnits="userSpaceOnUse" x="123" y="33" width="49" height="36">
<path d="M124.149 46.1931C122.24 55.4198 131.301 65.0899 144.382 67.7961C157.466 70.4991 169.618 65.2131 171.523 55.9863C173.429 46.7595 164.372 37.0894 151.287 34.3864C138.206 31.6833 126.055 36.9694 124.149 46.1931Z" fill="white"/>
</mask>
<g mask="url(#mask166_82_7598)">
<path d="M120.697 62.8976L127.602 29.491L174.977 39.2811L168.071 72.6908L120.697 62.8976Z" fill="white"/>
</g>
</g>
</g>
</g>
</g>
</g>
</g>
<mask id="mask167_82_7598" style="mask-type:luminance" maskUnits="userSpaceOnUse" x="123" y="33" width="49" height="37">
<path d="M123.739 33.6152H171.816V69.0815H123.739V33.6152Z" fill="white"/>
</mask>
<g mask="url(#mask167_82_7598)">
<mask id="mask168_82_7598" style="mask-type:luminance" maskUnits="userSpaceOnUse" x="120" y="29" width="56" height="44">
<path d="M120.704 62.8981L127.643 29.3252L175.11 39.1369L168.171 72.7098L120.704 62.8981Z" fill="white"/>
</mask>
<g mask="url(#mask168_82_7598)">
<mask id="mask169_82_7598" style="mask-type:luminance" maskUnits="userSpaceOnUse" x="120" y="29" width="56" height="44">
<path d="M120.704 62.8992L127.616 29.4648L175.32 39.3227L168.408 72.7601L120.704 62.8992Z" fill="white"/>
</mask>
<g mask="url(#mask169_82_7598)">
<mask id="mask170_82_7598" style="mask-type:luminance" maskUnits="userSpaceOnUse" x="123" y="33" width="49" height="36">
<path d="M124.156 46.1994C122.247 55.4231 131.307 65.0901 144.386 67.7932C157.467 70.4993 169.615 65.2132 171.521 55.9896C173.427 46.7659 164.369 37.0958 151.291 34.3927C138.21 31.6896 126.061 36.9726 124.156 46.1994Z" fill="white"/>
</mask>
<g mask="url(#mask170_82_7598)">
<path d="M124.157 46.1985C122.248 55.4222 131.308 65.0892 144.387 67.7923C157.468 70.4985 169.616 65.2124 171.522 55.9887C173.428 46.765 164.37 37.0949 151.292 34.3918C138.211 31.6887 126.062 36.9717 124.157 46.1985Z" stroke="black" stroke-width="3.54663"/>
</g>
</g>
</g>
</g>
<mask id="mask171_82_7598" style="mask-type:luminance" maskUnits="userSpaceOnUse" x="129" y="38" width="37" height="28">
<path d="M129.261 38.3438H165.515V65.1405H129.261V38.3438Z" fill="white"/>
</mask>
<g mask="url(#mask171_82_7598)">
<mask id="mask172_82_7598" style="mask-type:luminance" maskUnits="userSpaceOnUse" x="127" y="35" width="41" height="33">
<path d="M127.512 60.3215L132.579 35.7969L167.451 43.004L162.381 67.5287L127.512 60.3215Z" fill="white"/>
</mask>
<g mask="url(#mask172_82_7598)">
<mask id="mask173_82_7598" style="mask-type:luminance" maskUnits="userSpaceOnUse" x="129" y="38" width="37" height="27">
<path d="M130.045 48.0589C128.644 54.832 135.294 61.9314 144.899 63.9141C154.502 65.8998 163.421 62.0176 164.821 55.2476C166.222 48.4746 159.572 41.3752 149.967 39.3894C140.364 37.4068 131.445 41.2859 130.045 48.0589Z" fill="white"/>
</mask>
<g mask="url(#mask173_82_7598)">
<mask id="mask174_82_7598" style="mask-type:luminance" maskUnits="userSpaceOnUse" x="129" y="38" width="37" height="28">
<path d="M165.517 38.3438H129.263V65.1405H165.517V38.3438Z" fill="white"/>
</mask>
<g mask="url(#mask174_82_7598)">
<mask id="mask175_82_7598" style="mask-type:luminance" maskUnits="userSpaceOnUse" x="129" y="38" width="37" height="28">
<path d="M129.264 38.3438H165.518V65.1405H129.264V38.3438Z" fill="white"/>
</mask>
<g mask="url(#mask175_82_7598)">
<mask id="mask176_82_7598" style="mask-type:luminance" maskUnits="userSpaceOnUse" x="127" y="35" width="41" height="33">
<path d="M127.516 60.3215L132.583 35.7969L167.455 43.004L162.385 67.5287L127.516 60.3215Z" fill="white"/>
</mask>
<g mask="url(#mask176_82_7598)">
<mask id="mask177_82_7598" style="mask-type:luminance" maskUnits="userSpaceOnUse" x="129" y="38" width="37" height="27">
<path d="M130.052 48.0589C128.651 54.832 135.301 61.9314 144.906 63.9141C154.508 65.8998 163.427 62.0176 164.828 55.2476C166.229 48.4746 159.579 41.3752 149.974 39.3894C140.371 37.4068 131.452 41.2859 130.052 48.0589Z" fill="white"/>
</mask>
<g mask="url(#mask177_82_7598)">
<path d="M127.518 60.3218L132.585 35.7971L167.362 42.9858L162.291 67.5105L127.518 60.3218Z" fill="black"/>
</g>
</g>
</g>
</g>
</g>
</g>
</g>
<mask id="mask178_82_7598" style="mask-type:luminance" maskUnits="userSpaceOnUse" x="129" y="38" width="37" height="28">
<path d="M129.261 38.3438H165.515V65.1405H129.261V38.3438Z" fill="white"/>
</mask>
<g mask="url(#mask178_82_7598)">
<mask id="mask179_82_7598" style="mask-type:luminance" maskUnits="userSpaceOnUse" x="127" y="36" width="41" height="32">
<path d="M127.512 60.322L132.536 36.0098L167.267 43.1892L162.242 67.5014L127.512 60.322Z" fill="white"/>
</mask>
<g mask="url(#mask179_82_7598)">
<mask id="mask180_82_7598" style="mask-type:luminance" maskUnits="userSpaceOnUse" x="127" y="35" width="41" height="33">
<path d="M127.512 60.3226L132.582 35.7764L167.599 43.0143L162.525 67.5574L127.512 60.3226Z" fill="white"/>
</mask>
<g mask="url(#mask180_82_7598)">
<mask id="mask181_82_7598" style="mask-type:luminance" maskUnits="userSpaceOnUse" x="129" y="38" width="36" height="27">
<path d="M130.045 48.0631C128.644 54.8331 135.294 61.9294 144.893 63.9151C154.495 65.8978 163.411 62.0187 164.812 55.2487C166.213 48.4787 159.563 41.3793 149.961 39.3966C140.361 37.4109 131.442 41.29 130.045 48.0631Z" fill="white"/>
</mask>
<g mask="url(#mask181_82_7598)">
<path d="M130.046 48.0645C128.645 54.8345 135.295 61.9308 144.894 63.9166C154.496 65.8992 163.412 62.0201 164.813 55.2501C166.214 48.4801 159.564 41.3807 149.962 39.398C140.362 37.4123 131.443 41.2914 130.046 48.0645Z" stroke="black" stroke-width="3.54663"/>
</g>
</g>
</g>
</g>
<path d="M125.563 61.1564L126.914 56.6092" stroke="black" stroke-width="1.18221"/>
<path d="M130.433 66.8643L132.957 62.8497" stroke="black" stroke-width="1.18221"/>
<path d="M138.003 70.2354L139.893 65.8852" stroke="black" stroke-width="1.18221"/>
<path d="M146.647 72.9454L147.229 68.2381" stroke="black" stroke-width="1.18221"/>
<path d="M154.636 72.4092L154.547 67.668" stroke="black" stroke-width="1.18221"/>
<path d="M162.681 69.9123L162.592 65.1712" stroke="black" stroke-width="1.18221"/>
<mask id="mask182_82_7598" style="mask-type:luminance" maskUnits="userSpaceOnUse" x="132" y="39" width="33" height="26">
<path d="M132.414 39.9199H164.728V64.3522H132.414V39.9199Z" fill="white"/>
</mask>
<g mask="url(#mask182_82_7598)">
<mask id="mask183_82_7598" style="mask-type:luminance" maskUnits="userSpaceOnUse" x="130" y="37" width="37" height="30">
<path d="M130.499 60.1343L135.157 37.6016L166.581 44.0975L161.923 66.6303L130.499 60.1343Z" fill="white"/>
</mask>
<g mask="url(#mask183_82_7598)">
<mask id="mask184_82_7598" style="mask-type:luminance" maskUnits="userSpaceOnUse" x="132" y="40" width="33" height="24">
<path d="M132.821 48.8692C131.537 55.0912 137.51 61.5841 146.164 63.3728C154.815 65.1615 162.875 61.5687 164.162 55.3467C165.446 49.1216 159.473 42.6287 150.819 40.84C142.165 39.0513 134.108 42.6472 132.821 48.8692Z" fill="white"/>
</mask>
<g mask="url(#mask184_82_7598)">
<mask id="mask185_82_7598" style="mask-type:luminance" maskUnits="userSpaceOnUse" x="132" y="39" width="33" height="26">
<path d="M164.727 39.9199H132.413V64.3522H164.727V39.9199Z" fill="white"/>
</mask>
<g mask="url(#mask185_82_7598)">
<mask id="mask186_82_7598" style="mask-type:luminance" maskUnits="userSpaceOnUse" x="132" y="39" width="33" height="26">
<path d="M132.413 39.9194H164.726V64.3517H132.413V39.9194Z" fill="white"/>
</mask>
<g mask="url(#mask186_82_7598)">
<mask id="mask187_82_7598" style="mask-type:luminance" maskUnits="userSpaceOnUse" x="130" y="37" width="37" height="30">
<path d="M130.495 60.1343L135.153 37.6016L166.577 44.0975L161.919 66.6303L130.495 60.1343Z" fill="white"/>
</mask>
<g mask="url(#mask187_82_7598)">
<mask id="mask188_82_7598" style="mask-type:luminance" maskUnits="userSpaceOnUse" x="132" y="40" width="33" height="24">
<path d="M132.825 48.8682C131.541 55.0902 137.514 61.5831 146.168 63.3718C154.819 65.1605 162.879 61.5677 164.166 55.3457C165.45 49.1207 159.477 42.6278 150.823 40.839C142.169 39.0503 134.112 42.6462 132.825 48.8682Z" fill="white"/>
</mask>
<g mask="url(#mask188_82_7598)">
<path d="M130.497 60.1334L135.155 37.6006L166.49 44.0781L161.832 66.6109L130.497 60.1334Z" fill="#A9C5E7"/>
</g>
</g>
</g>
</g>
</g>
</g>
</g>
<mask id="mask189_82_7598" style="mask-type:luminance" maskUnits="userSpaceOnUse" x="141" y="45" width="16" height="14">
<path d="M141.871 45.4365H156.058V58.8349H141.871V45.4365Z" fill="white"/>
</mask>
<g mask="url(#mask189_82_7598)">
<mask id="mask190_82_7598" style="mask-type:luminance" maskUnits="userSpaceOnUse" x="140" y="44" width="18" height="16">
<path d="M140.169 53.0336L145.049 44.2471L157.45 51.1371L152.57 59.9206L140.169 53.0336Z" fill="white"/>
</mask>
<g mask="url(#mask190_82_7598)">
<mask id="mask191_82_7598" style="mask-type:luminance" maskUnits="userSpaceOnUse" x="140" y="44" width="18" height="16">
<path d="M140.171 53.0336L145.051 44.2471L157.451 51.1371L152.572 59.9206L140.171 53.0336Z" fill="white"/>
</mask>
<g mask="url(#mask191_82_7598)">
<path d="M150.534 48.8735C149.798 49.1537 149.004 49.7201 148.176 50.6376L146.07 49.4677C146.507 48.9689 147.043 48.5779 147.677 48.2947C147.763 48.2362 147.849 48.1777 147.852 48.073C147.899 47.993 147.902 47.8883 147.843 47.8052L147.024 46.1304C146.966 46.0442 146.907 45.958 146.806 45.9549C146.723 45.9087 146.596 45.9457 146.535 45.9642C145.433 46.5183 144.527 47.288 143.844 48.2301L143.398 47.9838C143.238 47.8945 143.007 47.9253 142.896 48.1285L142.376 49.0582C142.286 49.2214 142.317 49.4523 142.52 49.5631L142.967 49.8094C142.576 50.7053 142.492 51.6166 142.705 52.4755C142.911 53.4392 143.502 54.1904 144.432 54.7076C145.365 55.2248 146.212 55.3233 147.012 55.0247C147.751 54.7476 148.477 54.1996 149.284 53.3222L151.47 54.5352C150.928 55.1355 150.201 55.5788 149.275 55.9113C149.189 55.9698 149.105 56.0283 149.059 56.1114C149.013 56.1915 149.01 56.2962 149.069 56.3793L149.74 58.131C149.792 58.3188 150.017 58.3927 150.208 58.3373C151.661 57.8201 152.84 56.9396 153.739 55.7943L154.509 56.2223C154.672 56.3116 154.9 56.2808 155.013 56.0776L155.531 55.1478C155.62 54.9846 155.589 54.7568 155.386 54.6429L154.616 54.215C155.053 53.239 155.134 52.3308 154.946 51.4319C154.736 50.4682 154.17 49.677 153.24 49.1598C152.246 48.658 151.359 48.5379 150.534 48.8735ZM151.972 51.632C152.215 51.7674 152.372 51.9614 152.421 52.2539C152.452 52.4848 152.421 52.7311 152.366 53.0205L150.543 52.0076C150.91 51.7336 151.144 51.5981 151.27 51.5612C151.504 51.4257 151.729 51.4996 151.972 51.632ZM145.559 52.2046C145.316 52.0691 145.199 51.8998 145.149 51.6074C145.094 51.4165 145.103 51.2102 145.177 50.9855L146.877 51.9306C146.575 52.1861 146.362 52.2816 146.239 52.3185C145.987 52.3893 145.802 52.3401 145.559 52.2046Z" fill="white"/>
</g>
</g>
</g>
<mask id="mask192_82_7598" style="mask-type:luminance" maskUnits="userSpaceOnUse" x="139" y="173" width="50" height="36">
<path d="M139.502 173.115H188.367V208.581H139.502V173.115Z" fill="white"/>
</mask>
<g mask="url(#mask192_82_7598)">
<mask id="mask193_82_7598" style="mask-type:luminance" maskUnits="userSpaceOnUse" x="136" y="169" width="56" height="44">
<path d="M136.617 202.459L143.523 169.049L191.026 178.867L184.121 212.276L136.617 202.459Z" fill="white"/>
</mask>
<g mask="url(#mask193_82_7598)">
<mask id="mask194_82_7598" style="mask-type:luminance" maskUnits="userSpaceOnUse" x="139" y="173" width="49" height="36">
<path d="M140.069 185.754C138.163 194.981 147.223 204.651 160.305 207.354C173.386 210.06 185.537 204.771 187.446 195.547C189.352 186.32 180.291 176.65 167.21 173.944C154.129 171.241 141.977 176.527 140.069 185.754Z" fill="white"/>
</mask>
<g mask="url(#mask194_82_7598)">
<mask id="mask195_82_7598" style="mask-type:luminance" maskUnits="userSpaceOnUse" x="139" y="173" width="50" height="36">
<path d="M188.364 173.115H139.5V208.581H188.364V173.115Z" fill="white"/>
</mask>
<g mask="url(#mask195_82_7598)">
<mask id="mask196_82_7598" style="mask-type:luminance" maskUnits="userSpaceOnUse" x="139" y="173" width="50" height="36">
<path d="M139.497 173.115H188.361V208.581H139.497V173.115Z" fill="white"/>
</mask>
<g mask="url(#mask196_82_7598)">
<mask id="mask197_82_7598" style="mask-type:luminance" maskUnits="userSpaceOnUse" x="136" y="169" width="56" height="44">
<path d="M136.613 202.459L143.518 169.049L191.022 178.867L184.117 212.276L136.613 202.459Z" fill="white"/>
</mask>
<g mask="url(#mask197_82_7598)">
<mask id="mask198_82_7598" style="mask-type:luminance" maskUnits="userSpaceOnUse" x="139" y="173" width="49" height="36">
<path d="M140.063 185.754C138.157 194.981 147.218 204.651 160.299 207.354C173.381 210.06 185.532 204.771 187.441 195.547C189.346 186.32 180.286 176.65 167.205 173.944C154.123 171.241 141.972 176.527 140.063 185.754Z" fill="white"/>
</mask>
<g mask="url(#mask198_82_7598)">
<path d="M136.612 202.459L143.517 169.049L190.889 178.842L183.983 212.249L136.612 202.459Z" fill="white"/>
</g>
</g>
</g>
</g>
</g>
</g>
</g>
<mask id="mask199_82_7598" style="mask-type:luminance" maskUnits="userSpaceOnUse" x="139" y="173" width="50" height="36">
<path d="M139.502 173.115H188.367V208.581H139.502V173.115Z" fill="white"/>
</mask>
<g mask="url(#mask199_82_7598)">
<mask id="mask200_82_7598" style="mask-type:luminance" maskUnits="userSpaceOnUse" x="136" y="168" width="56" height="45">
<path d="M136.617 202.458L143.557 168.882L191.023 178.694L184.084 212.269L136.617 202.458Z" fill="white"/>
</mask>
<g mask="url(#mask200_82_7598)">
<mask id="mask201_82_7598" style="mask-type:luminance" maskUnits="userSpaceOnUse" x="136" y="169" width="56" height="44">
<path d="M136.617 202.458L143.529 169.021L191.23 178.881L184.321 212.319L136.617 202.458Z" fill="white"/>
</mask>
<g mask="url(#mask201_82_7598)">
<mask id="mask202_82_7598" style="mask-type:luminance" maskUnits="userSpaceOnUse" x="139" y="173" width="49" height="36">
<path d="M140.07 185.755C138.164 194.979 147.221 204.649 160.303 207.352C173.381 210.055 185.529 204.769 187.438 195.545C189.344 186.321 180.286 176.651 167.205 173.948C154.127 171.245 141.978 176.531 140.07 185.755Z" fill="white"/>
</mask>
<g mask="url(#mask202_82_7598)">
<path d="M140.069 185.756C138.164 194.979 147.221 204.65 160.302 207.353C173.38 210.056 185.529 204.77 187.438 195.546C189.343 186.322 180.286 176.652 167.205 173.949C154.126 171.246 141.978 176.532 140.069 185.756Z" stroke="black" stroke-width="3.54663"/>
</g>
</g>
</g>
</g>
<mask id="mask203_82_7598" style="mask-type:luminance" maskUnits="userSpaceOnUse" x="140" y="167" width="50" height="37">
<path d="M140.293 167.598H189.158V203.064H140.293V167.598Z" fill="white"/>
</mask>
<g mask="url(#mask203_82_7598)">
<mask id="mask204_82_7598" style="mask-type:luminance" maskUnits="userSpaceOnUse" x="137" y="163" width="56" height="45">
<path d="M137.754 197.408L144.659 163.998L192.163 173.819L185.258 207.226L137.754 197.408Z" fill="white"/>
</mask>
<g mask="url(#mask204_82_7598)">
<mask id="mask205_82_7598" style="mask-type:luminance" maskUnits="userSpaceOnUse" x="140" y="168" width="49" height="36">
<path d="M141.202 180.703C139.297 189.93 148.357 199.6 161.438 202.303C174.52 205.009 186.671 199.72 188.58 190.496C190.486 181.27 181.425 171.6 168.344 168.897C155.263 166.19 143.111 171.48 141.202 180.703Z" fill="white"/>
</mask>
<g mask="url(#mask205_82_7598)">
<mask id="mask206_82_7598" style="mask-type:luminance" maskUnits="userSpaceOnUse" x="140" y="167" width="50" height="37">
<path d="M189.155 167.597H140.29V203.063H189.155V167.597Z" fill="white"/>
</mask>
<g mask="url(#mask206_82_7598)">
<mask id="mask207_82_7598" style="mask-type:luminance" maskUnits="userSpaceOnUse" x="140" y="167" width="50" height="37">
<path d="M140.29 167.597H189.155V203.063H140.29V167.597Z" fill="white"/>
</mask>
<g mask="url(#mask207_82_7598)">
<mask id="mask208_82_7598" style="mask-type:luminance" maskUnits="userSpaceOnUse" x="137" y="163" width="56" height="45">
<path d="M137.75 197.407L144.655 163.997L192.159 173.818L185.254 207.225L137.75 197.407Z" fill="white"/>
</mask>
<g mask="url(#mask208_82_7598)">
<mask id="mask209_82_7598" style="mask-type:luminance" maskUnits="userSpaceOnUse" x="140" y="168" width="49" height="36">
<path d="M141.2 180.701C139.295 189.928 148.355 199.598 161.436 202.301C174.518 205.007 186.669 199.718 188.578 190.494C190.484 181.268 181.423 171.598 168.342 168.895C155.261 166.188 143.109 171.478 141.2 180.701Z" fill="white"/>
</mask>
<g mask="url(#mask209_82_7598)">
<path d="M137.749 197.406L144.654 163.997L192.026 173.79L185.12 207.2L137.749 197.406Z" fill="white"/>
</g>
</g>
</g>
</g>
</g>
</g>
</g>
<mask id="mask210_82_7598" style="mask-type:luminance" maskUnits="userSpaceOnUse" x="140" y="167" width="50" height="37">
<path d="M140.293 167.598H189.158V203.064H140.293V167.598Z" fill="white"/>
</mask>
<g mask="url(#mask210_82_7598)">
<mask id="mask211_82_7598" style="mask-type:luminance" maskUnits="userSpaceOnUse" x="137" y="163" width="56" height="45">
<path d="M137.754 197.409L144.693 163.836L192.16 173.645L185.221 207.221L137.754 197.409Z" fill="white"/>
</mask>
<g mask="url(#mask211_82_7598)">
<mask id="mask212_82_7598" style="mask-type:luminance" maskUnits="userSpaceOnUse" x="137" y="163" width="56" height="45">
<path d="M137.751 197.409L144.663 163.972L192.367 173.833L185.455 207.27L137.751 197.409Z" fill="white"/>
</mask>
<g mask="url(#mask212_82_7598)">
<mask id="mask213_82_7598" style="mask-type:luminance" maskUnits="userSpaceOnUse" x="140" y="168" width="49" height="36">
<path d="M141.201 180.708C139.296 189.932 148.353 199.602 161.434 202.305C174.513 205.008 186.664 199.722 188.57 190.498C190.476 181.274 181.418 171.607 168.337 168.901C155.259 166.198 143.11 171.484 141.201 180.708Z" fill="white"/>
</mask>
<g mask="url(#mask213_82_7598)">
<path d="M141.201 180.707C139.295 189.931 148.353 199.601 161.434 202.304C174.512 205.007 186.664 199.721 188.569 190.498C190.475 181.274 181.418 171.607 168.336 168.901C155.258 166.198 143.11 171.484 141.201 180.707Z" stroke="black" stroke-width="3.54663"/>
</g>
</g>
</g>
</g>
<mask id="mask214_82_7598" style="mask-type:luminance" maskUnits="userSpaceOnUse" x="146" y="173" width="37" height="27">
<path d="M146.597 173.115H182.063V199.123H146.597V173.115Z" fill="white"/>
</mask>
<g mask="url(#mask214_82_7598)">
<mask id="mask215_82_7598" style="mask-type:luminance" maskUnits="userSpaceOnUse" x="144" y="170" width="41" height="33">
<path d="M144.557 194.831L149.627 170.307L184.499 177.514L179.429 202.038L144.557 194.831Z" fill="white"/>
</mask>
<g mask="url(#mask215_82_7598)">
<mask id="mask216_82_7598" style="mask-type:luminance" maskUnits="userSpaceOnUse" x="146" y="173" width="37" height="26">
<path d="M147.091 182.57C145.69 189.34 152.34 196.439 161.942 198.425C171.548 200.411 180.466 196.528 181.867 189.755C183.265 182.985 176.615 175.886 167.013 173.9C157.41 171.915 148.488 175.797 147.091 182.57Z" fill="white"/>
</mask>
<g mask="url(#mask216_82_7598)">
<mask id="mask217_82_7598" style="mask-type:luminance" maskUnits="userSpaceOnUse" x="146" y="173" width="37" height="27">
<path d="M182.062 173.114H146.596V199.123H182.062V173.114Z" fill="white"/>
</mask>
<g mask="url(#mask217_82_7598)">
<mask id="mask218_82_7598" style="mask-type:luminance" maskUnits="userSpaceOnUse" x="146" y="173" width="37" height="27">
<path d="M146.596 173.114H182.062V199.122H146.596V173.114Z" fill="white"/>
</mask>
<g mask="url(#mask218_82_7598)">
<mask id="mask219_82_7598" style="mask-type:luminance" maskUnits="userSpaceOnUse" x="144" y="170" width="41" height="33">
<path d="M144.556 194.83L149.626 170.306L184.498 177.513L179.428 202.037L144.556 194.83Z" fill="white"/>
</mask>
<g mask="url(#mask219_82_7598)">
<mask id="mask220_82_7598" style="mask-type:luminance" maskUnits="userSpaceOnUse" x="146" y="173" width="37" height="26">
<path d="M147.092 182.569C145.691 189.339 152.341 196.438 161.943 198.424C171.549 200.41 180.467 196.528 181.868 189.754C183.266 182.984 176.616 175.885 167.014 173.899C157.411 171.914 148.489 175.796 147.092 182.569Z" fill="white"/>
</mask>
<g mask="url(#mask220_82_7598)">
<path d="M144.556 194.83L149.626 170.306L184.4 177.491L179.332 202.016L144.556 194.83Z" fill="black"/>
</g>
</g>
</g>
</g>
</g>
</g>
</g>
<mask id="mask221_82_7598" style="mask-type:luminance" maskUnits="userSpaceOnUse" x="146" y="173" width="37" height="27">
<path d="M146.597 173.115H182.063V199.123H146.597V173.115Z" fill="white"/>
</mask>
<g mask="url(#mask221_82_7598)">
<mask id="mask222_82_7598" style="mask-type:luminance" maskUnits="userSpaceOnUse" x="144" y="170" width="41" height="33">
<path d="M144.557 194.832L149.584 170.52L184.315 177.696L179.29 202.008L144.557 194.832Z" fill="white"/>
</mask>
<g mask="url(#mask222_82_7598)">
<mask id="mask223_82_7598" style="mask-type:luminance" maskUnits="userSpaceOnUse" x="144" y="170" width="41" height="33">
<path d="M144.557 194.829L149.63 170.286L184.647 177.524L179.573 202.067L144.557 194.829Z" fill="white"/>
</mask>
<g mask="url(#mask223_82_7598)">
<mask id="mask224_82_7598" style="mask-type:luminance" maskUnits="userSpaceOnUse" x="146" y="173" width="37" height="26">
<path d="M147.091 182.571C145.69 189.341 152.34 196.44 161.939 198.423C171.541 200.408 180.457 196.529 181.858 189.759C183.256 182.986 176.609 175.89 167.007 173.904C157.407 171.921 148.488 175.801 147.091 182.571Z" fill="white"/>
</mask>
<g mask="url(#mask224_82_7598)">
<path d="M147.095 182.572C145.695 189.342 152.345 196.441 161.944 198.424C171.546 200.41 180.462 196.531 181.863 189.761C183.261 182.987 176.614 175.891 167.011 173.905C157.412 171.923 148.493 175.802 147.095 182.572Z" stroke="black" stroke-width="3.54663"/>
</g>
</g>
</g>
</g>
<path d="M142.613 195.664L143.965 191.12" stroke="black" stroke-width="1.18221"/>
<path d="M147.48 201.372L150.005 197.357" stroke="black" stroke-width="1.18221"/>
<path d="M155.053 204.745L156.943 200.395" stroke="black" stroke-width="1.18221"/>
<path d="M163.697 207.455L164.279 202.748" stroke="black" stroke-width="1.18221"/>
<path d="M171.687 206.919L171.598 202.178" stroke="black" stroke-width="1.18221"/>
<path d="M179.73 204.422L179.641 199.678" stroke="black" stroke-width="1.18221"/>
<mask id="mask225_82_7598" style="mask-type:luminance" maskUnits="userSpaceOnUse" x="148" y="174" width="35" height="26">
<path d="M148.966 174.691H182.068V199.124H148.966V174.691Z" fill="white"/>
</mask>
<g mask="url(#mask225_82_7598)">
<mask id="mask226_82_7598" style="mask-type:luminance" maskUnits="userSpaceOnUse" x="147" y="172" width="37" height="30">
<path d="M147.543 194.644L152.201 172.111L183.625 178.604L178.967 201.14L147.543 194.644Z" fill="white"/>
</mask>
<g mask="url(#mask226_82_7598)">
<mask id="mask227_82_7598" style="mask-type:luminance" maskUnits="userSpaceOnUse" x="149" y="174" width="33" height="25">
<path d="M149.875 183.376C148.588 189.601 154.56 196.094 163.214 197.883C171.869 199.672 179.929 196.079 181.212 189.854C182.499 183.632 176.527 177.139 167.873 175.35C159.218 173.561 151.162 177.154 149.875 183.376Z" fill="white"/>
</mask>
<g mask="url(#mask227_82_7598)">
<mask id="mask228_82_7598" style="mask-type:luminance" maskUnits="userSpaceOnUse" x="148" y="174" width="35" height="26">
<path d="M182.073 174.691H148.971V199.124H182.073V174.691Z" fill="white"/>
</mask>
<g mask="url(#mask228_82_7598)">
<mask id="mask229_82_7598" style="mask-type:luminance" maskUnits="userSpaceOnUse" x="148" y="174" width="35" height="26">
<path d="M148.973 174.691H182.074V199.124H148.973V174.691Z" fill="white"/>
</mask>
<g mask="url(#mask229_82_7598)">
<mask id="mask230_82_7598" style="mask-type:luminance" maskUnits="userSpaceOnUse" x="147" y="172" width="37" height="30">
<path d="M147.551 194.644L152.209 172.111L183.633 178.604L178.975 201.14L147.551 194.644Z" fill="white"/>
</mask>
<g mask="url(#mask230_82_7598)">
<mask id="mask231_82_7598" style="mask-type:luminance" maskUnits="userSpaceOnUse" x="149" y="174" width="33" height="25">
<path d="M149.883 183.376C148.597 189.601 154.569 196.094 163.223 197.883C171.877 199.672 179.937 196.079 181.221 189.854C182.508 183.632 176.535 177.139 167.881 175.35C159.227 173.561 151.17 177.154 149.883 183.376Z" fill="white"/>
</mask>
<g mask="url(#mask231_82_7598)">
<path d="M147.552 194.645L152.21 172.112L183.545 178.589L178.887 201.122L147.552 194.645Z" fill="#A9C5E7"/>
</g>
</g>
</g>
</g>
</g>
</g>
</g>
<mask id="mask232_82_7598" style="mask-type:luminance" maskUnits="userSpaceOnUse" x="159" y="180" width="15" height="14">
<path d="M159.207 180.208H173.393V193.606H159.207V180.208Z" fill="white"/>
</mask>
<g mask="url(#mask232_82_7598)">
<mask id="mask233_82_7598" style="mask-type:luminance" maskUnits="userSpaceOnUse" x="157" y="178" width="18" height="17">
<path d="M157.212 187.541L162.092 178.758L174.492 185.648L169.613 194.431L157.212 187.541Z" fill="white"/>
</mask>
<g mask="url(#mask233_82_7598)">
<mask id="mask234_82_7598" style="mask-type:luminance" maskUnits="userSpaceOnUse" x="157" y="178" width="18" height="17">
<path d="M157.211 187.541L162.091 178.758L174.491 185.648L169.612 194.431L157.211 187.541Z" fill="white"/>
</mask>
<g mask="url(#mask234_82_7598)">
<path d="M167.577 183.381C166.838 183.661 166.047 184.228 165.219 185.145L163.113 183.975C163.55 183.477 164.086 183.086 164.72 182.803C164.806 182.744 164.892 182.686 164.895 182.581C164.942 182.501 164.945 182.396 164.886 182.31L164.067 180.638C164.009 180.552 163.95 180.466 163.846 180.463C163.766 180.417 163.639 180.453 163.578 180.472C162.476 181.023 161.57 181.793 160.887 182.738L160.441 182.492C160.277 182.402 160.05 182.433 159.936 182.636L159.418 183.566C159.329 183.729 159.36 183.957 159.563 184.071L160.01 184.317C159.619 185.213 159.535 186.121 159.748 186.98C159.954 187.944 160.545 188.695 161.475 189.212C162.408 189.733 163.254 189.831 164.055 189.532C164.791 189.255 165.52 188.704 166.327 187.827L168.513 189.043C167.968 189.64 167.244 190.087 166.318 190.419C166.232 190.478 166.145 190.536 166.102 190.616C166.056 190.699 166.053 190.801 166.112 190.887L166.78 192.639C166.835 192.827 167.06 192.897 167.248 192.845C168.704 192.328 169.88 191.444 170.782 190.302L171.552 190.73C171.712 190.819 171.942 190.789 172.053 190.585L172.574 189.656C172.663 189.492 172.632 189.262 172.429 189.151L171.659 188.723C172.096 187.747 172.176 186.839 171.989 185.937C171.779 184.976 171.213 184.182 170.283 183.665C169.289 183.166 168.402 183.046 167.577 183.381ZM169.012 186.14C169.255 186.275 169.412 186.469 169.464 186.762C169.495 186.99 169.464 187.239 169.409 187.525L167.586 186.512C167.949 186.238 168.183 186.103 168.31 186.069C168.544 185.934 168.768 186.004 169.012 186.14ZM162.602 186.712C162.359 186.577 162.242 186.405 162.192 186.112C162.137 185.924 162.146 185.718 162.217 185.493L163.919 186.438C163.618 186.694 163.405 186.789 163.279 186.823C163.027 186.897 162.845 186.848 162.602 186.712Z" fill="white"/>
</g>
</g>
</g>
<path d="M120.585 144.652L122.59 127.141" stroke="black" stroke-width="2.36442"/>
<path d="M121.589 128.252L139.008 130.928" stroke="black" stroke-width="2.36442"/>
<path d="M137.879 131.433L140.136 113.955" stroke="black" stroke-width="2.36442"/>
<path d="M139.041 114.263L156.399 117.329" stroke="black" stroke-width="2.36442"/>
<path d="M155.191 117.622L157.666 100.175" stroke="black" stroke-width="2.36442"/>
<path d="M156.416 100.757L173.863 103.247" stroke="black" stroke-width="2.36441"/>
<path d="M173.038 103.876L172.296 71.0451" stroke="black" stroke-width="2.36442"/>
<path d="M168.855 75.8541L172.294 71.0452L175.946 75.694" stroke="black" stroke-width="2.36442" stroke-linecap="round" stroke-linejoin="round"/>
<path d="M173.445 162.635L175.45 145.126" stroke="black" stroke-width="2.36442"/>
<path d="M174.447 146.239L191.866 148.914" stroke="black" stroke-width="2.36442"/>
<path d="M190.74 149.415L192.997 131.937" stroke="black" stroke-width="2.36442"/>
<path d="M191.902 132.249L209.256 135.312" stroke="black" stroke-width="2.36442"/>
<path d="M208.049 135.608L210.524 118.158" stroke="black" stroke-width="2.36442"/>
<path d="M209.274 118.741L226.721 121.229" stroke="black" stroke-width="2.36441"/>
<path d="M225.899 121.861L225.154 89.0273" stroke="black" stroke-width="2.36442"/>
<path d="M221.715 93.8354L225.154 89.0266L228.808 93.6753" stroke="black" stroke-width="2.36442" stroke-linecap="round" stroke-linejoin="round"/>
</g>
<defs>
<clipPath id="clip0_82_7598">
<rect width="332.94" height="238" fill="white" transform="translate(0.598633)"/>
</clipPath>
</defs>
</svg>
