<svg width="19" height="19" viewBox="0 0 19 19" fill="none" xmlns="http://www.w3.org/2000/svg">
<path d="M17.2404 13.0715V4.01889C17.2404 3.11888 16.5054 2.45138 15.6129 2.52638H15.5679C13.9929 2.66138 11.6003 3.46389 10.2653 4.3039L10.1378 4.3864C9.92031 4.5214 9.56031 4.5214 9.34281 4.3864L9.1553 4.2739C7.82029 3.44139 5.43527 2.64638 3.86025 2.51888C2.96774 2.44388 2.24023 3.11888 2.24023 4.01139V13.0715C2.24023 13.7915 2.82524 14.4665 3.54525 14.5565L3.76275 14.5865C5.39027 14.804 7.90279 15.629 9.34281 16.4165L9.37281 16.4315C9.57531 16.544 9.89781 16.544 10.0928 16.4315C11.5328 15.6365 14.0529 14.804 15.6879 14.5865L15.9354 14.5565C16.6554 14.4665 17.2404 13.7915 17.2404 13.0715Z" stroke="#3D5678" stroke-width="1.12501" stroke-linecap="round" stroke-linejoin="round"/>
<path d="M9.74023 4.63379V15.8839" stroke="#3D5678" stroke-width="1.12501" stroke-linecap="round" stroke-linejoin="round"/>
<path d="M6.55275 6.88379H4.86523" stroke="#3D5678" stroke-width="1.12501" stroke-linecap="round" stroke-linejoin="round"/>
<path d="M7.11526 9.13379H4.86523" stroke="#3D5678" stroke-width="1.12501" stroke-linecap="round" stroke-linejoin="round"/>
</svg>
