<svg width="323" height="239" viewBox="0 0 323 239" fill="none" xmlns="http://www.w3.org/2000/svg">
<g clip-path="url(#clip0_82_3555)">
<mask id="mask0_82_3555" style="mask-type:luminance" maskUnits="userSpaceOnUse" x="-216" y="-255" width="758" height="757">
<path d="M541.11 -254.35H-215.23V501.991H541.11V-254.35Z" fill="black" fill-opacity="0.08"/>
</mask>
<g mask="url(#mask0_82_3555)">
<mask id="mask1_82_3555" style="mask-type:luminance" maskUnits="userSpaceOnUse" x="27" y="64" width="284" height="173">
<path d="M310.787 64.6846H27.5488V236.651H310.787V64.6846Z" fill="white"/>
</mask>
<g mask="url(#mask1_82_3555)">
<mask id="mask2_82_3555" style="mask-type:luminance" maskUnits="userSpaceOnUse" x="27" y="65" width="284" height="172">
<path d="M27.6406 65.2773H310.192V236.152H27.6406V65.2773Z" fill="white"/>
</mask>
<g mask="url(#mask2_82_3555)">
<mask id="mask3_82_3555" style="mask-type:luminance" maskUnits="userSpaceOnUse" x="27" y="64" width="284" height="173">
<path d="M310.787 64.6846H27.5488V236.651H310.787V64.6846Z" fill="white"/>
</mask>
<g mask="url(#mask3_82_3555)">
<mask id="mask4_82_3555" style="mask-type:luminance" maskUnits="userSpaceOnUse" x="36" y="140" width="86" height="64">
<path d="M36.1074 140.94H121.702V203.191H36.1074V140.94Z" fill="white"/>
</mask>
<g mask="url(#mask4_82_3555)">
<mask id="mask5_82_3555" style="mask-type:luminance" maskUnits="userSpaceOnUse" x="36" y="141" width="85" height="62">
<path d="M46.9611 141.28L120.999 184.175L110.245 202.74L36.2041 159.846L46.9611 141.28Z" fill="white"/>
</mask>
<g mask="url(#mask5_82_3555)">
<mask id="mask6_82_3555" style="mask-type:luminance" maskUnits="userSpaceOnUse" x="36" y="140" width="86" height="64">
<path d="M121.7 140.94H36.1055V203.191H121.7V140.94Z" fill="white"/>
</mask>
<g mask="url(#mask6_82_3555)">
<mask id="mask7_82_3555" style="mask-type:luminance" maskUnits="userSpaceOnUse" x="36" y="141" width="86" height="62">
<path d="M36.1055 141.097H121.016V202.912H36.1055V141.097Z" fill="white"/>
</mask>
<g mask="url(#mask7_82_3555)">
<mask id="mask8_82_3555" style="mask-type:luminance" maskUnits="userSpaceOnUse" x="36" y="141" width="85" height="62">
<path d="M46.9621 141.281L121 184.176L110.246 202.741L36.2051 159.847L46.9621 141.281Z" fill="white"/>
</mask>
<g mask="url(#mask8_82_3555)">
<path d="M46.9621 141.281L121.006 184.179L110.249 202.744L36.2051 159.847L46.9621 141.281Z" fill="black"/>
</g>
</g>
</g>
</g>
</g>
<mask id="mask9_82_3555" style="mask-type:luminance" maskUnits="userSpaceOnUse" x="91" y="171" width="86" height="63">
<path d="M91.3545 171.289H176.949V233.539H91.3545V171.289Z" fill="white"/>
</mask>
<g mask="url(#mask9_82_3555)">
<mask id="mask10_82_3555" style="mask-type:luminance" maskUnits="userSpaceOnUse" x="91" y="172" width="86" height="62">
<path d="M102.161 172.013L176.199 214.91L165.445 233.476L91.4043 190.578L102.161 172.013Z" fill="white"/>
</mask>
<g mask="url(#mask10_82_3555)">
<mask id="mask11_82_3555" style="mask-type:luminance" maskUnits="userSpaceOnUse" x="91" y="171" width="86" height="63">
<path d="M176.949 171.289H91.3545V233.539H176.949V171.289Z" fill="white"/>
</mask>
<g mask="url(#mask11_82_3555)">
<mask id="mask12_82_3555" style="mask-type:luminance" maskUnits="userSpaceOnUse" x="91" y="171" width="86" height="63">
<path d="M91.3545 171.912H176.295V233.539H91.3545V171.912Z" fill="white"/>
</mask>
<g mask="url(#mask12_82_3555)">
<mask id="mask13_82_3555" style="mask-type:luminance" maskUnits="userSpaceOnUse" x="91" y="172" width="86" height="62">
<path d="M102.161 172.013L176.199 214.91L165.445 233.476L91.4043 190.578L102.161 172.013Z" fill="white"/>
</mask>
<g mask="url(#mask13_82_3555)">
<path d="M102.161 172.013L176.205 214.913L165.448 233.479L91.4043 190.578L102.161 172.013Z" fill="black"/>
</g>
</g>
</g>
</g>
</g>
<mask id="mask14_82_3555" style="mask-type:luminance" maskUnits="userSpaceOnUse" x="268" y="128" width="21" height="21">
<path d="M268.766 128.491H288.219V148.723H268.766V128.491Z" fill="white"/>
</mask>
<g mask="url(#mask14_82_3555)">
<mask id="mask15_82_3555" style="mask-type:luminance" maskUnits="userSpaceOnUse" x="269" y="128" width="19" height="21">
<path d="M269.335 142.277L276.983 128.928L287.767 135.101L280.119 148.454L269.335 142.277Z" fill="white"/>
</mask>
<g mask="url(#mask15_82_3555)">
<mask id="mask16_82_3555" style="mask-type:luminance" maskUnits="userSpaceOnUse" x="268" y="128" width="21" height="21">
<path d="M288.219 128.491H268.766V148.723H288.219V128.491Z" fill="white"/>
</mask>
<g mask="url(#mask16_82_3555)">
<mask id="mask17_82_3555" style="mask-type:luminance" maskUnits="userSpaceOnUse" x="269" y="128" width="19" height="21">
<path d="M269.295 128.771H287.785V148.567H269.295V128.771Z" fill="white"/>
</mask>
<g mask="url(#mask17_82_3555)">
<mask id="mask18_82_3555" style="mask-type:luminance" maskUnits="userSpaceOnUse" x="269" y="128" width="19" height="21">
<path d="M269.336 142.277L276.983 128.928L287.768 135.101L280.12 148.454L269.336 142.277Z" fill="white"/>
</mask>
<g mask="url(#mask18_82_3555)">
<path d="M269.336 142.278L276.983 128.922L287.768 135.098L280.12 148.454L269.336 142.278Z" fill="black"/>
</g>
</g>
</g>
</g>
</g>
<mask id="mask19_82_3555" style="mask-type:luminance" maskUnits="userSpaceOnUse" x="148" y="122" width="145" height="110">
<path d="M148.157 122.267H292.111V231.983H148.157V122.267Z" fill="white"/>
</mask>
<g mask="url(#mask19_82_3555)">
<mask id="mask20_82_3555" style="mask-type:luminance" maskUnits="userSpaceOnUse" x="148" y="123" width="144" height="109">
<path d="M148.158 199.549L272.075 123.025L291.999 155.287L168.083 231.811L148.158 199.549Z" fill="white"/>
</mask>
<g mask="url(#mask20_82_3555)">
<mask id="mask21_82_3555" style="mask-type:luminance" maskUnits="userSpaceOnUse" x="148" y="122" width="145" height="110">
<path d="M292.11 122.267H148.156V231.983H292.11V122.267Z" fill="white"/>
</mask>
<g mask="url(#mask21_82_3555)">
<mask id="mask22_82_3555" style="mask-type:luminance" maskUnits="userSpaceOnUse" x="148" y="123" width="145" height="109">
<path d="M148.156 123.045H292.08V231.858H148.156V123.045Z" fill="white"/>
</mask>
<g mask="url(#mask22_82_3555)">
<mask id="mask23_82_3555" style="mask-type:luminance" maskUnits="userSpaceOnUse" x="148" y="123" width="144" height="109">
<path d="M148.156 199.549L272.073 123.025L291.997 155.287L168.081 231.811L148.156 199.549Z" fill="white"/>
</mask>
<g mask="url(#mask23_82_3555)">
<path d="M148.156 199.55L272.037 123.047L291.961 155.309L168.081 231.812L148.156 199.55Z" fill="black"/>
</g>
</g>
</g>
</g>
</g>
<mask id="mask24_82_3555" style="mask-type:luminance" maskUnits="userSpaceOnUse" x="286" y="140" width="18" height="16">
<path d="M286.665 140.94H303.006V155.725H286.665V140.94Z" fill="white"/>
</mask>
<g mask="url(#mask24_82_3555)">
<mask id="mask25_82_3555" style="mask-type:luminance" maskUnits="userSpaceOnUse" x="286" y="141" width="17" height="15">
<path d="M286.854 148.156L298.313 141.277L302.51 148.268L291.048 155.147L286.854 148.156Z" fill="white"/>
</mask>
<g mask="url(#mask25_82_3555)">
<mask id="mask26_82_3555" style="mask-type:luminance" maskUnits="userSpaceOnUse" x="286" y="140" width="18" height="16">
<path d="M303.004 140.94H286.663V155.725H303.004V140.94Z" fill="white"/>
</mask>
<g mask="url(#mask26_82_3555)">
<mask id="mask27_82_3555" style="mask-type:luminance" maskUnits="userSpaceOnUse" x="286" y="141" width="17" height="15">
<path d="M286.846 141.096H302.533V155.29H286.846V141.096Z" fill="white"/>
</mask>
<g mask="url(#mask27_82_3555)">
<mask id="mask28_82_3555" style="mask-type:luminance" maskUnits="userSpaceOnUse" x="286" y="141" width="17" height="15">
<path d="M286.85 148.157L298.309 141.279L302.506 148.27L291.044 155.148L286.85 148.157Z" fill="white"/>
</mask>
<g mask="url(#mask28_82_3555)">
<path d="M286.85 148.158L298.318 141.273L302.516 148.264L291.044 155.149L286.85 148.158Z" fill="black"/>
</g>
</g>
</g>
</g>
</g>
<mask id="mask29_82_3555" style="mask-type:luminance" maskUnits="userSpaceOnUse" x="291" y="137" width="16" height="14">
<path d="M291.331 137.05H306.894V150.278H291.331V137.05Z" fill="white"/>
</mask>
<g mask="url(#mask29_82_3555)">
<mask id="mask30_82_3555" style="mask-type:luminance" maskUnits="userSpaceOnUse" x="292" y="137" width="15" height="13">
<path d="M292.004 142.337L294.974 137.702L306.266 144.933L303.296 149.569L292.004 142.337Z" fill="white"/>
</mask>
<g mask="url(#mask30_82_3555)">
<mask id="mask31_82_3555" style="mask-type:luminance" maskUnits="userSpaceOnUse" x="291" y="137" width="16" height="14">
<path d="M306.894 137.05H291.331V150.278H306.894V137.05Z" fill="white"/>
</mask>
<g mask="url(#mask31_82_3555)">
<mask id="mask32_82_3555" style="mask-type:luminance" maskUnits="userSpaceOnUse" x="291" y="137" width="16" height="13">
<path d="M291.893 137.55H306.273V149.687H291.893V137.55Z" fill="white"/>
</mask>
<g mask="url(#mask32_82_3555)">
<mask id="mask33_82_3555" style="mask-type:luminance" maskUnits="userSpaceOnUse" x="292" y="137" width="15" height="13">
<path d="M292 142.337L294.97 137.702L306.262 144.933L303.292 149.569L292 142.337Z" fill="white"/>
</mask>
<g mask="url(#mask33_82_3555)">
<path d="M292 142.337L294.97 137.702L306.268 144.939L303.298 149.575L292 142.337Z" fill="black"/>
</g>
</g>
</g>
</g>
</g>
<mask id="mask34_82_3555" style="mask-type:luminance" maskUnits="userSpaceOnUse" x="278" y="132" width="22" height="20">
<path d="M278.882 132.381H299.113V151.834H278.882V132.381Z" fill="white"/>
</mask>
<g mask="url(#mask34_82_3555)">
<mask id="mask35_82_3555" style="mask-type:luminance" maskUnits="userSpaceOnUse" x="279" y="132" width="20" height="20">
<path d="M279.384 143.268L286.089 132.797L298.712 140.879L292.004 151.353L279.384 143.268Z" fill="white"/>
</mask>
<g mask="url(#mask35_82_3555)">
<mask id="mask36_82_3555" style="mask-type:luminance" maskUnits="userSpaceOnUse" x="278" y="132" width="22" height="20">
<path d="M299.116 132.38H278.885V151.834H299.116V132.38Z" fill="white"/>
</mask>
<g mask="url(#mask36_82_3555)">
<mask id="mask37_82_3555" style="mask-type:luminance" maskUnits="userSpaceOnUse" x="279" y="132" width="20" height="20">
<path d="M279.382 132.691H298.805V151.366H279.382V132.691Z" fill="white"/>
</mask>
<g mask="url(#mask37_82_3555)">
<mask id="mask38_82_3555" style="mask-type:luminance" maskUnits="userSpaceOnUse" x="279" y="132" width="20" height="20">
<path d="M279.386 143.269L286.091 132.797L298.714 140.88L292.006 151.354L279.386 143.269Z" fill="white"/>
</mask>
<g mask="url(#mask38_82_3555)">
<path d="M279.386 143.269L286.091 132.797L298.733 140.892L292.024 151.366L279.386 143.269Z" fill="black"/>
</g>
</g>
</g>
</g>
</g>
<mask id="mask39_82_3555" style="mask-type:luminance" maskUnits="userSpaceOnUse" x="30" y="151" width="16" height="13">
<path d="M30.6602 151.057H45.4446V163.507H30.6602V151.057Z" fill="white"/>
</mask>
<g mask="url(#mask39_82_3555)">
<mask id="mask40_82_3555" style="mask-type:luminance" maskUnits="userSpaceOnUse" x="30" y="151" width="15" height="12">
<path d="M30.8555 156.224L33.7734 151.354L44.9803 158.069L42.0654 162.938L30.8555 156.224Z" fill="white"/>
</mask>
<g mask="url(#mask40_82_3555)">
<mask id="mask41_82_3555" style="mask-type:luminance" maskUnits="userSpaceOnUse" x="30" y="151" width="16" height="13">
<path d="M45.4485 151.057H30.6641V163.507H45.4485V151.057Z" fill="white"/>
</mask>
<g mask="url(#mask41_82_3555)">
<mask id="mask42_82_3555" style="mask-type:luminance" maskUnits="userSpaceOnUse" x="30" y="151" width="16" height="12">
<path d="M30.8184 151.18H45.0131V162.946H30.8184V151.18Z" fill="white"/>
</mask>
<g mask="url(#mask42_82_3555)">
<mask id="mask43_82_3555" style="mask-type:luminance" maskUnits="userSpaceOnUse" x="30" y="151" width="15" height="12">
<path d="M30.8604 156.223L33.7783 151.354L44.9852 158.068L42.0703 162.937L30.8604 156.223Z" fill="white"/>
</mask>
<g mask="url(#mask43_82_3555)">
<path d="M30.8604 156.223L33.7783 151.354L44.9791 158.065L42.0642 162.931L30.8604 156.223Z" fill="black"/>
</g>
</g>
</g>
</g>
</g>
<mask id="mask44_82_3555" style="mask-type:luminance" maskUnits="userSpaceOnUse" x="36" y="147" width="15" height="14">
<path d="M36.1074 147.943H50.8919V160.393H36.1074V147.943Z" fill="white"/>
</mask>
<g mask="url(#mask44_82_3555)">
<mask id="mask45_82_3555" style="mask-type:luminance" maskUnits="userSpaceOnUse" x="36" y="148" width="15" height="13">
<path d="M36.5107 153.323L39.4257 148.457L50.6356 155.168L47.7176 160.038L36.5107 153.323Z" fill="white"/>
</mask>
<g mask="url(#mask45_82_3555)">
<mask id="mask46_82_3555" style="mask-type:luminance" maskUnits="userSpaceOnUse" x="36" y="147" width="15" height="14">
<path d="M50.8919 147.943H36.1074V160.393H50.8919V147.943Z" fill="white"/>
</mask>
<g mask="url(#mask46_82_3555)">
<mask id="mask47_82_3555" style="mask-type:luminance" maskUnits="userSpaceOnUse" x="36" y="148" width="15" height="13">
<path d="M36.417 148.379H50.7972V160.145H36.417V148.379Z" fill="white"/>
</mask>
<g mask="url(#mask47_82_3555)">
<mask id="mask48_82_3555" style="mask-type:luminance" maskUnits="userSpaceOnUse" x="36" y="148" width="15" height="13">
<path d="M36.5107 153.323L39.4257 148.457L50.6356 155.168L47.7176 160.038L36.5107 153.323Z" fill="white"/>
</mask>
<g mask="url(#mask48_82_3555)">
<path d="M36.5107 153.323L39.4257 148.457L50.6295 155.165L47.7115 160.035L36.5107 153.323Z" fill="black"/>
</g>
</g>
</g>
</g>
</g>
<mask id="mask49_82_3555" style="mask-type:luminance" maskUnits="userSpaceOnUse" x="27" y="140" width="156" height="97">
<path d="M27.6396 140.162H182.393V236.152H27.6396V140.162Z" fill="white"/>
</mask>
<g mask="url(#mask49_82_3555)">
<path d="M29.6025 156.198L166.182 234.126" stroke="black" stroke-width="2.73888"/>
</g>
<mask id="mask50_82_3555" style="mask-type:luminance" maskUnits="userSpaceOnUse" x="148" y="129" width="163" height="108">
<path d="M148.936 129.27H310.193V236.153H148.936V129.27Z" fill="white"/>
</mask>
<g mask="url(#mask50_82_3555)">
<path d="M164.94 233.638L308.027 145.327" stroke="black" stroke-width="2.73888"/>
</g>
<mask id="mask51_82_3555" style="mask-type:luminance" maskUnits="userSpaceOnUse" x="27" y="65" width="163" height="107">
<path d="M27.6406 65.2773H189.397V171.288H27.6406V65.2773Z" fill="white"/>
</mask>
<g mask="url(#mask51_82_3555)">
<path d="M30.3198 155.712L173.407 67.4002" stroke="black" stroke-width="2.73888"/>
</g>
<mask id="mask52_82_3555" style="mask-type:luminance" maskUnits="userSpaceOnUse" x="155" y="65" width="156" height="97">
<path d="M155.938 65.2773H310.193V161.951H155.938V65.2773Z" fill="white"/>
</mask>
<g mask="url(#mask52_82_3555)">
<path d="M171.454 67.9092L308.034 145.838" stroke="black" stroke-width="2.73888"/>
</g>
</g>
</g>
</g>
</g>
<mask id="mask53_82_3555" style="mask-type:luminance" maskUnits="userSpaceOnUse" x="278" y="99" width="26" height="28">
<path d="M278.882 99.7007H303.004V126.157H278.882V99.7007Z" fill="white"/>
</mask>
<g mask="url(#mask53_82_3555)">
<mask id="mask54_82_3555" style="mask-type:luminance" maskUnits="userSpaceOnUse" x="279" y="100" width="24" height="26">
<path d="M279.38 107.458L291.417 100.193L302.316 118.26L290.28 125.522L279.38 107.458Z" fill="white"/>
</mask>
<g mask="url(#mask54_82_3555)">
<mask id="mask55_82_3555" style="mask-type:luminance" maskUnits="userSpaceOnUse" x="278" y="99" width="26" height="28">
<path d="M303.006 99.7007H278.884V126.157H303.006V99.7007Z" fill="white"/>
</mask>
<g mask="url(#mask55_82_3555)">
<mask id="mask56_82_3555" style="mask-type:luminance" maskUnits="userSpaceOnUse" x="279" y="100" width="24" height="26">
<path d="M279.381 100.01H302.351V125.598H279.381V100.01Z" fill="white"/>
</mask>
<g mask="url(#mask56_82_3555)">
<mask id="mask57_82_3555" style="mask-type:luminance" maskUnits="userSpaceOnUse" x="279" y="100" width="24" height="26">
<path d="M279.381 107.458L291.418 100.193L302.317 118.26L290.281 125.522L279.381 107.458Z" fill="white"/>
</mask>
<g mask="url(#mask57_82_3555)">
<path d="M279.381 107.458L291.418 100.193L302.311 118.248L290.275 125.513L279.381 107.458Z" fill="white"/>
</g>
</g>
</g>
</g>
</g>
<mask id="mask58_82_3555" style="mask-type:luminance" maskUnits="userSpaceOnUse" x="142" y="108" width="152" height="102">
<path d="M142.712 108.26H293.669V209.417H142.712V108.26Z" fill="white"/>
</mask>
<g mask="url(#mask58_82_3555)">
<mask id="mask59_82_3555" style="mask-type:luminance" maskUnits="userSpaceOnUse" x="143" y="108" width="151" height="101">
<path d="M143.475 192.93L283.529 108.5L293.179 124.507L153.125 208.937L143.475 192.93Z" fill="white"/>
</mask>
<g mask="url(#mask59_82_3555)">
<mask id="mask60_82_3555" style="mask-type:luminance" maskUnits="userSpaceOnUse" x="142" y="108" width="152" height="102">
<path d="M293.67 108.258H142.713V209.415H293.67V108.258Z" fill="white"/>
</mask>
<g mask="url(#mask60_82_3555)">
<mask id="mask61_82_3555" style="mask-type:luminance" maskUnits="userSpaceOnUse" x="143" y="108" width="151" height="102">
<path d="M143.433 108.414H293.204V209.072H143.433V108.414Z" fill="white"/>
</mask>
<g mask="url(#mask61_82_3555)">
<mask id="mask62_82_3555" style="mask-type:luminance" maskUnits="userSpaceOnUse" x="143" y="108" width="151" height="101">
<path d="M143.477 192.929L283.531 108.499L293.181 124.506L153.127 208.936L143.477 192.929Z" fill="white"/>
</mask>
<g mask="url(#mask62_82_3555)">
<path d="M143.477 192.929L283.549 108.487L293.199 124.496L153.127 208.936L143.477 192.929Z" fill="white"/>
</g>
</g>
</g>
</g>
</g>
<mask id="mask63_82_3555" style="mask-type:luminance" maskUnits="userSpaceOnUse" x="21" y="123" width="139" height="90">
<path d="M21.3232 123.822H159.83V212.529H21.3232V123.822Z" fill="white"/>
</mask>
<g mask="url(#mask63_82_3555)">
<mask id="mask64_82_3555" style="mask-type:luminance" maskUnits="userSpaceOnUse" x="21" y="124" width="139" height="88">
<path d="M29.3333 124.385L159.424 198.38L151.797 211.787L21.707 137.792L29.3333 124.385Z" fill="white"/>
</mask>
<g mask="url(#mask64_82_3555)">
<mask id="mask65_82_3555" style="mask-type:luminance" maskUnits="userSpaceOnUse" x="21" y="123" width="139" height="90">
<path d="M159.831 123.82H21.3242V212.527H159.831V123.82Z" fill="white"/>
</mask>
<g mask="url(#mask65_82_3555)">
<mask id="mask66_82_3555" style="mask-type:luminance" maskUnits="userSpaceOnUse" x="21" y="124" width="139" height="88">
<path d="M21.665 124.288H159.485V211.873H21.665V124.288Z" fill="white"/>
</mask>
<g mask="url(#mask66_82_3555)">
<mask id="mask67_82_3555" style="mask-type:luminance" maskUnits="userSpaceOnUse" x="21" y="124" width="139" height="88">
<path d="M29.3323 124.382L159.423 198.377L151.796 211.785L21.7061 137.79L29.3323 124.382Z" fill="white"/>
</mask>
<g mask="url(#mask67_82_3555)">
<path d="M29.3323 124.382L159.444 198.387L151.818 211.797L21.7061 137.79L29.3323 124.382Z" fill="white"/>
</g>
</g>
</g>
</g>
</g>
<path d="M22.0465 137.401L176.04 42.2838" stroke="black" stroke-width="2.33438"/>
<path d="M22.626 137.278L151.801 211.787" stroke="black" stroke-width="2.33438"/>
<path d="M150.911 211.094L304.907 115.98" stroke="black" stroke-width="2.33438"/>
<path d="M175.488 42.1309L304.323 116.515" stroke="black" stroke-width="2.33438"/>
<mask id="mask68_82_3555" style="mask-type:luminance" maskUnits="userSpaceOnUse" x="189" y="59" width="82" height="86">
<path d="M189.399 59.2373H270.325V144.831H189.399V59.2373Z" fill="white"/>
</mask>
<g mask="url(#mask68_82_3555)">
<mask id="mask69_82_3555" style="mask-type:luminance" maskUnits="userSpaceOnUse" x="189" y="59" width="82" height="86">
<path d="M222.092 59.9521L270.266 86.8553L238.147 144.376L189.973 117.473L222.092 59.9521Z" fill="white"/>
</mask>
<g mask="url(#mask69_82_3555)">
<mask id="mask70_82_3555" style="mask-type:luminance" maskUnits="userSpaceOnUse" x="189" y="59" width="82" height="86">
<path d="M270.325 59.2373H189.399V144.831H270.325V59.2373Z" fill="white"/>
</mask>
<g mask="url(#mask70_82_3555)">
<mask id="mask71_82_3555" style="mask-type:luminance" maskUnits="userSpaceOnUse" x="189" y="59" width="82" height="86">
<path d="M189.929 59.8613H270.325V144.458H189.929V59.8613Z" fill="white"/>
</mask>
<g mask="url(#mask71_82_3555)">
<mask id="mask72_82_3555" style="mask-type:luminance" maskUnits="userSpaceOnUse" x="189" y="59" width="82" height="86">
<path d="M222.094 59.9521L270.268 86.8553L238.149 144.376L189.975 117.473L222.094 59.9521Z" fill="white"/>
</mask>
<g mask="url(#mask72_82_3555)">
<path d="M222.093 59.9521L270.267 86.8553L238.112 144.44L189.938 117.537L222.093 59.9521Z" fill="white"/>
</g>
</g>
</g>
</g>
</g>
<mask id="mask73_82_3555" style="mask-type:luminance" maskUnits="userSpaceOnUse" x="120" y="75" width="157" height="126">
<path d="M120.923 75.5791H276.548V200.08H120.923V75.5791Z" fill="white"/>
</mask>
<g mask="url(#mask73_82_3555)">
<mask id="mask74_82_3555" style="mask-type:luminance" maskUnits="userSpaceOnUse" x="121" y="75" width="156" height="125">
<path d="M247.507 75.7842L276.216 122.903L150.296 199.622L121.587 152.5L247.507 75.7842Z" fill="white"/>
</mask>
<g mask="url(#mask74_82_3555)">
<mask id="mask75_82_3555" style="mask-type:luminance" maskUnits="userSpaceOnUse" x="120" y="75" width="157" height="126">
<path d="M276.548 75.5791H120.923V200.08H276.548V75.5791Z" fill="white"/>
</mask>
<g mask="url(#mask75_82_3555)">
<mask id="mask76_82_3555" style="mask-type:luminance" maskUnits="userSpaceOnUse" x="121" y="75" width="156" height="125">
<path d="M121.575 75.7344H276.392V199.736H121.575V75.7344Z" fill="white"/>
</mask>
<g mask="url(#mask76_82_3555)">
<mask id="mask77_82_3555" style="mask-type:luminance" maskUnits="userSpaceOnUse" x="121" y="75" width="156" height="125">
<path d="M247.507 75.7842L276.216 122.903L150.296 199.622L121.587 152.5L247.507 75.7842Z" fill="white"/>
</mask>
<g mask="url(#mask77_82_3555)">
<path d="M247.509 75.7842L276.218 122.903L150.316 199.613L121.607 152.491L247.509 75.7842Z" fill="white"/>
</g>
</g>
</g>
</g>
</g>
<mask id="mask78_82_3555" style="mask-type:luminance" maskUnits="userSpaceOnUse" x="106" y="32" width="119" height="151">
<path d="M106.14 32.7812H224.415V182.96H106.14V32.7812Z" fill="white"/>
</mask>
<g mask="url(#mask78_82_3555)">
<mask id="mask79_82_3555" style="mask-type:luminance" maskUnits="userSpaceOnUse" x="106" y="33" width="118" height="150">
<path d="M175.746 33.1406L223.783 60.29L154.797 182.353L106.76 155.206L175.746 33.1406Z" fill="white"/>
</mask>
<g mask="url(#mask79_82_3555)">
<mask id="mask80_82_3555" style="mask-type:luminance" maskUnits="userSpaceOnUse" x="106" y="32" width="119" height="151">
<path d="M224.413 32.7783H106.138V182.957H224.413V32.7783Z" fill="white"/>
</mask>
<g mask="url(#mask80_82_3555)">
<mask id="mask81_82_3555" style="mask-type:luminance" maskUnits="userSpaceOnUse" x="106" y="32" width="118" height="151">
<path d="M106.633 32.9651H223.911V182.366H106.633V32.9651Z" fill="white"/>
</mask>
<g mask="url(#mask81_82_3555)">
<mask id="mask82_82_3555" style="mask-type:luminance" maskUnits="userSpaceOnUse" x="106" y="33" width="118" height="150">
<path d="M175.743 33.1409L223.78 60.2903L154.794 182.353L106.757 155.207L175.743 33.1409Z" fill="white"/>
</mask>
<g mask="url(#mask82_82_3555)">
<path d="M175.744 33.1409L223.781 60.2902L154.743 182.447L106.706 155.298L175.744 33.1409Z" fill="white"/>
</g>
</g>
</g>
</g>
</g>
<mask id="mask83_82_3555" style="mask-type:luminance" maskUnits="userSpaceOnUse" x="57" y="31" width="149" height="123">
<path d="M57.1162 31.2246H205.739V153.391H57.1162V31.2246Z" fill="white"/>
</mask>
<g mask="url(#mask83_82_3555)">
<mask id="mask84_82_3555" style="mask-type:luminance" maskUnits="userSpaceOnUse" x="57" y="31" width="149" height="122">
<path d="M176.367 31.6523L205.555 78.4768L86.5717 152.651L57.3828 105.824L176.367 31.6523Z" fill="white"/>
</mask>
<g mask="url(#mask84_82_3555)">
<mask id="mask85_82_3555" style="mask-type:luminance" maskUnits="userSpaceOnUse" x="57" y="31" width="149" height="123">
<path d="M205.74 31.2246H57.1172V153.391H205.74V31.2246Z" fill="white"/>
</mask>
<g mask="url(#mask85_82_3555)">
<mask id="mask86_82_3555" style="mask-type:luminance" maskUnits="userSpaceOnUse" x="57" y="31" width="149" height="122">
<path d="M57.3379 31.4736H205.617V152.673H57.3379V31.4736Z" fill="white"/>
</mask>
<g mask="url(#mask86_82_3555)">
<mask id="mask87_82_3555" style="mask-type:luminance" maskUnits="userSpaceOnUse" x="57" y="31" width="149" height="122">
<path d="M176.367 31.6523L205.555 78.4768L86.5717 152.651L57.3828 105.824L176.367 31.6523Z" fill="white"/>
</mask>
<g mask="url(#mask87_82_3555)">
<path d="M176.367 31.6528L205.556 78.4773L86.4809 152.706L57.292 105.882L176.367 31.6528Z" fill="white"/>
</g>
</g>
</g>
</g>
</g>
<mask id="mask88_82_3555" style="mask-type:luminance" maskUnits="userSpaceOnUse" x="63" y="101" width="117" height="100">
<path d="M63.3418 101.257H179.283V200.857H63.3418V101.257Z" fill="white"/>
</mask>
<g mask="url(#mask88_82_3555)">
<mask id="mask89_82_3555" style="mask-type:luminance" maskUnits="userSpaceOnUse" x="63" y="101" width="116" height="100">
<path d="M178.579 152.65L150.587 200.201L63.4248 148.887L91.4192 101.339L178.579 152.65Z" fill="white"/>
</mask>
<g mask="url(#mask89_82_3555)">
<mask id="mask90_82_3555" style="mask-type:luminance" maskUnits="userSpaceOnUse" x="63" y="101" width="117" height="100">
<path d="M179.284 101.257H63.3428V200.857H179.284V101.257Z" fill="white"/>
</mask>
<g mask="url(#mask90_82_3555)">
<mask id="mask91_82_3555" style="mask-type:luminance" maskUnits="userSpaceOnUse" x="63" y="101" width="116" height="100">
<path d="M63.3428 101.318H178.725V200.298H63.3428V101.318Z" fill="white"/>
</mask>
<g mask="url(#mask91_82_3555)">
<mask id="mask92_82_3555" style="mask-type:luminance" maskUnits="userSpaceOnUse" x="63" y="101" width="116" height="100">
<path d="M178.579 152.65L150.587 200.201L63.4248 148.887L91.4192 101.339L178.579 152.65Z" fill="white"/>
</mask>
<g mask="url(#mask92_82_3555)">
<path d="M178.578 152.651L150.587 200.202L63.4727 148.918L91.464 101.367L178.578 152.651Z" fill="white"/>
</g>
</g>
</g>
</g>
</g>
<mask id="mask93_82_3555" style="mask-type:luminance" maskUnits="userSpaceOnUse" x="28" y="116" width="62" height="43">
<path d="M28.3242 116.041H89.7963V158.838H28.3242V116.041Z" fill="white"/>
</mask>
<g mask="url(#mask93_82_3555)">
<mask id="mask94_82_3555" style="mask-type:luminance" maskUnits="userSpaceOnUse" x="28" y="116" width="62" height="43">
<path d="M89.1835 144.689L81.5755 158.762L28.915 130.297L36.5261 116.221L89.1835 144.689Z" fill="white"/>
</mask>
<g mask="url(#mask94_82_3555)">
<mask id="mask95_82_3555" style="mask-type:luminance" maskUnits="userSpaceOnUse" x="28" y="116" width="62" height="43">
<path d="M89.7954 116.041H28.3232V158.838H89.7954V116.041Z" fill="white"/>
</mask>
<g mask="url(#mask95_82_3555)">
<mask id="mask96_82_3555" style="mask-type:luminance" maskUnits="userSpaceOnUse" x="28" y="116" width="62" height="43">
<path d="M28.7578 116.07H89.2664V158.837H28.7578V116.07Z" fill="white"/>
</mask>
<g mask="url(#mask96_82_3555)">
<mask id="mask97_82_3555" style="mask-type:luminance" maskUnits="userSpaceOnUse" x="28" y="116" width="62" height="43">
<path d="M89.1825 144.689L81.5745 158.762L28.9141 130.297L36.5251 116.221L89.1825 144.689Z" fill="white"/>
</mask>
<g mask="url(#mask97_82_3555)">
<path d="M89.1809 144.688L81.5729 158.761L28.9033 130.289L36.5113 116.213L89.1809 144.688Z" fill="white"/>
</g>
</g>
</g>
</g>
</g>
<mask id="mask98_82_3555" style="mask-type:luminance" maskUnits="userSpaceOnUse" x="36" y="87" width="64" height="51">
<path d="M36.1074 87.25H99.1358V137.828H36.1074V87.25Z" fill="white"/>
</mask>
<g mask="url(#mask98_82_3555)">
<mask id="mask99_82_3555" style="mask-type:luminance" maskUnits="userSpaceOnUse" x="36" y="87" width="64" height="51">
<path d="M87.8177 87.8867L99.1006 106.662L47.7897 137.492L36.5068 118.717L87.8177 87.8867Z" fill="white"/>
</mask>
<g mask="url(#mask99_82_3555)">
<mask id="mask100_82_3555" style="mask-type:luminance" maskUnits="userSpaceOnUse" x="36" y="87" width="64" height="51">
<path d="M99.1339 87.25H36.1055V137.828H99.1339V87.25Z" fill="white"/>
</mask>
<g mask="url(#mask100_82_3555)">
<mask id="mask101_82_3555" style="mask-type:luminance" maskUnits="userSpaceOnUse" x="36" y="87" width="64" height="51">
<path d="M36.4131 87.874H99.1314V137.55H36.4131V87.874Z" fill="white"/>
</mask>
<g mask="url(#mask101_82_3555)">
<mask id="mask102_82_3555" style="mask-type:luminance" maskUnits="userSpaceOnUse" x="36" y="87" width="64" height="51">
<path d="M87.8167 87.8867L99.0996 106.662L47.7887 137.492L36.5059 118.717L87.8167 87.8867Z" fill="white"/>
</mask>
<g mask="url(#mask102_82_3555)">
<path d="M87.8148 87.8867L99.0976 106.662L47.7594 137.511L36.4766 118.735L87.8148 87.8867Z" fill="white"/>
</g>
</g>
</g>
</g>
</g>
<mask id="mask103_82_3555" style="mask-type:luminance" maskUnits="userSpaceOnUse" x="24" y="121" width="18" height="13">
<path d="M24.4346 121.488H41.5534V133.938H24.4346V121.488Z" fill="white"/>
</mask>
<g mask="url(#mask103_82_3555)">
<mask id="mask104_82_3555" style="mask-type:luminance" maskUnits="userSpaceOnUse" x="24" y="121" width="17" height="13">
<path d="M27.5172 121.522L40.9369 127.662L38.2986 133.428L24.8789 127.289L27.5172 121.522Z" fill="white"/>
</mask>
<g mask="url(#mask104_82_3555)">
<mask id="mask105_82_3555" style="mask-type:luminance" maskUnits="userSpaceOnUse" x="24" y="121" width="18" height="13">
<path d="M41.5534 121.488H24.4346V133.938H41.5534V121.488Z" fill="white"/>
</mask>
<g mask="url(#mask105_82_3555)">
<mask id="mask106_82_3555" style="mask-type:luminance" maskUnits="userSpaceOnUse" x="24" y="121" width="18" height="13">
<path d="M24.8379 121.488H41.0844V133.44H24.8379V121.488Z" fill="white"/>
</mask>
<g mask="url(#mask106_82_3555)">
<mask id="mask107_82_3555" style="mask-type:luminance" maskUnits="userSpaceOnUse" x="24" y="121" width="17" height="13">
<path d="M27.5172 121.522L40.9369 127.662L38.2986 133.428L24.8789 127.289L27.5172 121.522Z" fill="white"/>
</mask>
<g mask="url(#mask107_82_3555)">
<path d="M27.5172 121.522L40.94 127.662L38.3016 133.428L24.8789 127.289L27.5172 121.522Z" fill="white"/>
</g>
</g>
</g>
</g>
</g>
<mask id="mask108_82_3555" style="mask-type:luminance" maskUnits="userSpaceOnUse" x="28" y="119" width="18" height="13">
<path d="M28.3242 119.152H45.443V131.602H28.3242V119.152Z" fill="white"/>
</mask>
<g mask="url(#mask108_82_3555)">
<mask id="mask109_82_3555" style="mask-type:luminance" maskUnits="userSpaceOnUse" x="28" y="119" width="17" height="13">
<path d="M31.5612 119.572L44.9809 125.712L42.3425 131.478L28.9229 125.338L31.5612 119.572Z" fill="white"/>
</mask>
<g mask="url(#mask109_82_3555)">
<mask id="mask110_82_3555" style="mask-type:luminance" maskUnits="userSpaceOnUse" x="28" y="119" width="18" height="13">
<path d="M45.443 119.152H28.3242V131.602H45.443V119.152Z" fill="white"/>
</mask>
<g mask="url(#mask110_82_3555)">
<mask id="mask111_82_3555" style="mask-type:luminance" maskUnits="userSpaceOnUse" x="28" y="119" width="18" height="13">
<path d="M28.7598 119.432H45.0093V131.572H28.7598V119.432Z" fill="white"/>
</mask>
<g mask="url(#mask111_82_3555)">
<mask id="mask112_82_3555" style="mask-type:luminance" maskUnits="userSpaceOnUse" x="28" y="119" width="17" height="13">
<path d="M31.5583 119.571L44.9779 125.711L42.3396 131.477L28.9199 125.337L31.5583 119.571Z" fill="white"/>
</mask>
<g mask="url(#mask112_82_3555)">
<path d="M31.5583 119.571L44.981 125.711L42.3426 131.477L28.9199 125.337L31.5583 119.571Z" fill="white"/>
</g>
</g>
</g>
</g>
</g>
<mask id="mask113_82_3555" style="mask-type:luminance" maskUnits="userSpaceOnUse" x="264" y="98" width="35" height="29">
<path d="M264.098 98.1445H298.335V126.157H264.098V98.1445Z" fill="white"/>
</mask>
<g mask="url(#mask113_82_3555)">
<mask id="mask114_82_3555" style="mask-type:luminance" maskUnits="userSpaceOnUse" x="264" y="98" width="35" height="28">
<path d="M264.316 115.233L292.086 98.3604L298.317 108.616L270.548 125.488L264.316 115.233Z" fill="white"/>
</mask>
<g mask="url(#mask114_82_3555)">
<mask id="mask115_82_3555" style="mask-type:luminance" maskUnits="userSpaceOnUse" x="264" y="98" width="35" height="29">
<path d="M298.333 98.1445H264.096V126.157H298.333V98.1445Z" fill="white"/>
</mask>
<g mask="url(#mask115_82_3555)">
<mask id="mask116_82_3555" style="mask-type:luminance" maskUnits="userSpaceOnUse" x="264" y="98" width="35" height="28">
<path d="M264.251 98.3301H298.334V125.598H264.251V98.3301Z" fill="white"/>
</mask>
<g mask="url(#mask116_82_3555)">
<mask id="mask117_82_3555" style="mask-type:luminance" maskUnits="userSpaceOnUse" x="264" y="98" width="35" height="28">
<path d="M264.315 115.233L292.085 98.3604L298.316 108.616L270.547 125.488L264.315 115.233Z" fill="white"/>
</mask>
<g mask="url(#mask117_82_3555)">
<path d="M264.315 115.232L292.076 98.3657L298.307 108.621L270.547 125.488L264.315 115.232Z" fill="white"/>
</g>
</g>
</g>
</g>
</g>
<mask id="mask118_82_3555" style="mask-type:luminance" maskUnits="userSpaceOnUse" x="260" y="85" width="37" height="29">
<path d="M260.986 85.6953H296.002V113.708H260.986V85.6953Z" fill="white"/>
</mask>
<g mask="url(#mask118_82_3555)">
<mask id="mask119_82_3555" style="mask-type:luminance" maskUnits="userSpaceOnUse" x="261" y="86" width="35" height="28">
<path d="M267.816 86.001L295.656 102.755L289.47 113.038L261.631 96.2808L267.816 86.001Z" fill="white"/>
</mask>
<g mask="url(#mask119_82_3555)">
<mask id="mask120_82_3555" style="mask-type:luminance" maskUnits="userSpaceOnUse" x="260" y="85" width="37" height="29">
<path d="M296.002 85.6953H260.986V113.708H296.002V85.6953Z" fill="white"/>
</mask>
<g mask="url(#mask120_82_3555)">
<mask id="mask121_82_3555" style="mask-type:luminance" maskUnits="userSpaceOnUse" x="261" y="85" width="35" height="29">
<path d="M261.456 85.8181H295.818V113.083H261.456V85.8181Z" fill="white"/>
</mask>
<g mask="url(#mask121_82_3555)">
<mask id="mask122_82_3555" style="mask-type:luminance" maskUnits="userSpaceOnUse" x="261" y="86" width="35" height="28">
<path d="M267.82 86.001L295.66 102.755L289.474 113.038L261.635 96.2808L267.82 86.001Z" fill="white"/>
</mask>
<g mask="url(#mask122_82_3555)">
<path d="M267.82 86.001L295.651 102.749L289.462 113.032L261.635 96.2808L267.82 86.001Z" fill="white"/>
</g>
</g>
</g>
</g>
</g>
<mask id="mask123_82_3555" style="mask-type:luminance" maskUnits="userSpaceOnUse" x="292" y="100" width="12" height="13">
<path d="M292.889 100.479H303.782V112.15H292.889V100.479Z" fill="white"/>
</mask>
<g mask="url(#mask123_82_3555)">
<mask id="mask124_82_3555" style="mask-type:luminance" maskUnits="userSpaceOnUse" x="292" y="100" width="12" height="12">
<path d="M297.21 100.864L303.699 105.788L299.456 111.381L292.967 106.457L297.21 100.864Z" fill="white"/>
</mask>
<g mask="url(#mask124_82_3555)">
<mask id="mask125_82_3555" style="mask-type:luminance" maskUnits="userSpaceOnUse" x="292" y="100" width="12" height="13">
<path d="M303.783 100.479H292.89V112.15H303.783V100.479Z" fill="white"/>
</mask>
<g mask="url(#mask125_82_3555)">
<mask id="mask126_82_3555" style="mask-type:luminance" maskUnits="userSpaceOnUse" x="292" y="100" width="12" height="12">
<path d="M292.889 100.757H303.782V111.401H292.889V100.757Z" fill="white"/>
</mask>
<g mask="url(#mask126_82_3555)">
<mask id="mask127_82_3555" style="mask-type:luminance" maskUnits="userSpaceOnUse" x="292" y="100" width="12" height="12">
<path d="M297.21 100.864L303.699 105.788L299.456 111.381L292.967 106.457L297.21 100.864Z" fill="white"/>
</mask>
<g mask="url(#mask127_82_3555)">
<path d="M297.21 100.864L303.696 105.788L299.456 111.381L292.967 106.457L297.21 100.864Z" fill="white"/>
</g>
</g>
</g>
</g>
</g>
<path d="M22.048 126.93L176.041 31.8159" stroke="black" stroke-width="2.33438"/>
<path d="M24.3643 126.766L153.196 201.147" stroke="black" stroke-width="2.33438"/>
<path d="M151.879 201.249L303.699 105.789" stroke="black" stroke-width="2.33439"/>
<path d="M175.489 32.2454L304.324 106.627" stroke="black" stroke-width="2.33438"/>
<mask id="mask128_82_3555" style="mask-type:luminance" maskUnits="userSpaceOnUse" x="54" y="94" width="64" height="51">
<path d="M54.001 94.2539H117.029V144.832H54.001V94.2539Z" fill="white"/>
</mask>
<g mask="url(#mask128_82_3555)">
<mask id="mask129_82_3555" style="mask-type:luminance" maskUnits="userSpaceOnUse" x="54" y="94" width="63" height="51">
<path d="M105.563 94.7666L116.846 113.542L65.5348 144.372L54.252 125.597L105.563 94.7666Z" fill="white"/>
</mask>
<g mask="url(#mask129_82_3555)">
<mask id="mask130_82_3555" style="mask-type:luminance" maskUnits="userSpaceOnUse" x="54" y="94" width="64" height="51">
<path d="M117.029 94.2539H54.001V144.832H117.029V94.2539Z" fill="white"/>
</mask>
<g mask="url(#mask130_82_3555)">
<mask id="mask131_82_3555" style="mask-type:luminance" maskUnits="userSpaceOnUse" x="54" y="94" width="63" height="51">
<path d="M54.1572 94.5967H116.906V144.458H54.1572V94.5967Z" fill="white"/>
</mask>
<g mask="url(#mask131_82_3555)">
<mask id="mask132_82_3555" style="mask-type:luminance" maskUnits="userSpaceOnUse" x="54" y="94" width="63" height="51">
<path d="M105.563 94.7666L116.846 113.542L65.5348 144.372L54.252 125.597L105.563 94.7666Z" fill="white"/>
</mask>
<g mask="url(#mask132_82_3555)">
<path d="M105.562 94.7666L116.845 113.542L65.5065 144.391L54.2236 125.615L105.562 94.7666Z" fill="white"/>
</g>
</g>
</g>
</g>
</g>
<mask id="mask133_82_3555" style="mask-type:luminance" maskUnits="userSpaceOnUse" x="248" y="88" width="36" height="29">
<path d="M248.535 88.8066H283.551V116.819H248.535V88.8066Z" fill="white"/>
</mask>
<g mask="url(#mask133_82_3555)">
<mask id="mask134_82_3555" style="mask-type:luminance" maskUnits="userSpaceOnUse" x="248" y="89" width="35" height="28">
<path d="M254.686 89.5479L282.799 105.84L276.784 116.223L248.671 99.928L254.686 89.5479Z" fill="white"/>
</mask>
<g mask="url(#mask134_82_3555)">
<mask id="mask135_82_3555" style="mask-type:luminance" maskUnits="userSpaceOnUse" x="248" y="88" width="36" height="29">
<path d="M283.553 88.8037H248.537V116.816H283.553V88.8037Z" fill="white"/>
</mask>
<g mask="url(#mask135_82_3555)">
<mask id="mask136_82_3555" style="mask-type:luminance" maskUnits="userSpaceOnUse" x="248" y="89" width="35" height="28">
<path d="M248.566 89.3647H282.929V116.259H248.566V89.3647Z" fill="white"/>
</mask>
<g mask="url(#mask136_82_3555)">
<mask id="mask137_82_3555" style="mask-type:luminance" maskUnits="userSpaceOnUse" x="248" y="89" width="35" height="28">
<path d="M254.687 89.5457L282.8 105.838L276.785 116.221L248.672 99.9258L254.687 89.5457Z" fill="white"/>
</mask>
<g mask="url(#mask137_82_3555)">
<path d="M254.687 89.5457L282.791 105.832L276.773 116.215L248.672 99.9258L254.687 89.5457Z" fill="white"/>
</g>
</g>
</g>
</g>
</g>
<path d="M46.0215 118.55L162.428 184.967" stroke="black" stroke-width="2.33438"/>
<path d="M161.23 183.556L282.725 108.974" stroke="black" stroke-width="2.33438"/>
<path d="M45.5918 119.162L167.548 43.8934" stroke="black" stroke-width="2.33438"/>
<path d="M166.927 43.3027L283.333 109.72" stroke="black" stroke-width="2.33438"/>
<path d="M22.2822 138.116L22.574 125.523" stroke="black" stroke-width="2.33438"/>
<mask id="mask138_82_3555" style="mask-type:luminance" maskUnits="userSpaceOnUse" x="90" y="152" width="10" height="9">
<path d="M90.8232 152.654H99.1V160.934H90.8232V152.654Z" fill="white"/>
</mask>
<g mask="url(#mask138_82_3555)">
<mask id="mask139_82_3555" style="mask-type:luminance" maskUnits="userSpaceOnUse" x="90" y="152" width="10" height="9">
<path d="M94.9622 152.654C92.6764 152.654 90.8223 154.508 90.8223 156.794C90.8223 159.08 92.6764 160.934 94.9622 160.934C97.2479 160.934 99.099 159.08 99.099 156.794C99.099 154.508 97.2479 152.654 94.9622 152.654Z" fill="white"/>
</mask>
<g mask="url(#mask139_82_3555)">
<mask id="mask140_82_3555" style="mask-type:luminance" maskUnits="userSpaceOnUse" x="90" y="152" width="10" height="10">
<path d="M99.1336 152.613H90.5742V161.173H99.1336V152.613Z" fill="white"/>
</mask>
<g mask="url(#mask140_82_3555)">
<mask id="mask141_82_3555" style="mask-type:luminance" maskUnits="userSpaceOnUse" x="90" y="152" width="10" height="9">
<path d="M90.8223 152.654H99.099V160.934H90.8223V152.654Z" fill="white"/>
</mask>
<g mask="url(#mask141_82_3555)">
<mask id="mask142_82_3555" style="mask-type:luminance" maskUnits="userSpaceOnUse" x="90" y="152" width="10" height="9">
<path d="M94.9612 152.654C92.6754 152.654 90.8213 154.508 90.8213 156.794C90.8213 159.08 92.6754 160.934 94.9612 160.934C97.2469 160.934 99.098 159.08 99.098 156.794C99.098 154.508 97.2469 152.654 94.9612 152.654Z" fill="white"/>
</mask>
<g mask="url(#mask142_82_3555)">
<path d="M90.8213 152.654H99.098V160.934H90.8213V152.654Z" fill="white"/>
</g>
</g>
</g>
</g>
</g>
<mask id="mask143_82_3555" style="mask-type:luminance" maskUnits="userSpaceOnUse" x="90" y="152" width="9" height="9">
<path d="M90.8232 152.654H98.9936V160.825H90.8232V152.654Z" fill="white"/>
</mask>
<g mask="url(#mask143_82_3555)">
<mask id="mask144_82_3555" style="mask-type:luminance" maskUnits="userSpaceOnUse" x="90" y="152" width="10" height="9">
<path d="M94.9561 152.654C92.6734 152.654 90.8223 154.505 90.8223 156.791C90.8223 159.074 92.6734 160.925 94.9561 160.925C97.2418 160.925 99.0929 159.074 99.0929 156.791C99.0929 154.505 97.2418 152.654 94.9561 152.654Z" fill="white"/>
</mask>
<g mask="url(#mask144_82_3555)">
<path d="M94.9561 152.654C92.6734 152.654 90.8223 154.505 90.8223 156.791C90.8223 159.074 92.6734 160.925 94.9561 160.925C97.2418 160.925 99.0929 159.074 99.0929 156.791C99.0929 154.505 97.2418 152.654 94.9561 152.654Z" stroke="black" stroke-width="2.33438"/>
</g>
</g>
<mask id="mask145_82_3555" style="mask-type:luminance" maskUnits="userSpaceOnUse" x="-216" y="-255" width="758" height="757">
<path d="M541.11 -254.35H-215.23V501.991H541.11V-254.35Z" fill="black" fill-opacity="0.13"/>
</mask>
<g mask="url(#mask145_82_3555)">
<mask id="mask146_82_3555" style="mask-type:luminance" maskUnits="userSpaceOnUse" x="113" y="37" width="53" height="40">
<path d="M165.276 37.4504H113.92V76.3568H165.276V37.4504Z" fill="white"/>
</mask>
<g mask="url(#mask146_82_3555)">
<mask id="mask147_82_3555" style="mask-type:luminance" maskUnits="userSpaceOnUse" x="115" y="39" width="49" height="36">
<path d="M115.475 39.7839H163.719V74.0216H115.475V39.7839Z" fill="white"/>
</mask>
<g mask="url(#mask147_82_3555)">
<mask id="mask148_82_3555" style="mask-type:luminance" maskUnits="userSpaceOnUse" x="114" y="38" width="51" height="38">
<path d="M117.104 38.0154L164.791 42.1613L161.867 75.7911L114.18 71.6482L117.104 38.0154Z" fill="white"/>
</mask>
<g mask="url(#mask148_82_3555)">
<mask id="mask149_82_3555" style="mask-type:luminance" maskUnits="userSpaceOnUse" x="115" y="39" width="49" height="35">
<path d="M140.899 40.0844C127.756 38.9415 116.449 45.5435 115.643 54.8293C114.835 64.1182 124.835 72.5713 137.975 73.7141C151.115 74.857 162.422 68.2551 163.231 58.9662C164.039 49.6803 154.039 41.2242 140.899 40.0844Z" fill="white"/>
</mask>
<g mask="url(#mask149_82_3555)">
<mask id="mask150_82_3555" style="mask-type:luminance" maskUnits="userSpaceOnUse" x="115" y="39" width="49" height="36">
<path d="M163.719 39.7839H115.475V74.0216H163.719V39.7839Z" fill="white"/>
</mask>
<g mask="url(#mask150_82_3555)">
<mask id="mask151_82_3555" style="mask-type:luminance" maskUnits="userSpaceOnUse" x="115" y="39" width="49" height="36">
<path d="M115.475 39.7839H163.719V74.0216H115.475V39.7839Z" fill="white"/>
</mask>
<g mask="url(#mask151_82_3555)">
<mask id="mask152_82_3555" style="mask-type:luminance" maskUnits="userSpaceOnUse" x="114" y="38" width="51" height="38">
<path d="M117.106 38.0154L164.793 42.1613L161.869 75.7911L114.182 71.6482L117.106 38.0154Z" fill="white"/>
</mask>
<g mask="url(#mask152_82_3555)">
<mask id="mask153_82_3555" style="mask-type:luminance" maskUnits="userSpaceOnUse" x="115" y="39" width="49" height="35">
<path d="M140.897 40.0844C127.754 38.9415 116.447 45.5435 115.641 54.8293C114.833 64.1182 124.833 72.5713 137.973 73.7141C151.113 74.857 162.42 68.2551 163.229 58.9662C164.037 49.6803 154.037 41.2242 140.897 40.0844Z" fill="white"/>
</mask>
<g mask="url(#mask153_82_3555)">
<path d="M117.106 38.0154L164.66 42.1492L161.736 75.782L114.182 71.6481L117.106 38.0154Z" fill="black"/>
</g>
</g>
</g>
</g>
</g>
</g>
</g>
</g>
</g>
<mask id="mask154_82_3555" style="mask-type:luminance" maskUnits="userSpaceOnUse" x="113" y="37" width="49" height="35">
<path d="M113.141 37.4502H161.385V71.6878H113.141V37.4502Z" fill="white"/>
</mask>
<g mask="url(#mask154_82_3555)">
<mask id="mask155_82_3555" style="mask-type:luminance" maskUnits="userSpaceOnUse" x="111" y="34" width="53" height="41">
<path d="M111.646 68.3045L115.877 34.8906L163.388 40.909L159.157 74.3229L111.646 68.3045Z" fill="white"/>
</mask>
<g mask="url(#mask155_82_3555)">
<mask id="mask156_82_3555" style="mask-type:luminance" maskUnits="userSpaceOnUse" x="113" y="37" width="49" height="35">
<path d="M113.76 51.6C112.59 60.8251 122.25 69.649 135.335 71.3086C148.42 72.9651 159.974 66.8282 161.144 57.6001C162.311 48.372 152.651 39.5482 139.569 37.8916C126.484 36.235 114.927 42.3719 113.76 51.6Z" fill="white"/>
</mask>
<g mask="url(#mask156_82_3555)">
<mask id="mask157_82_3555" style="mask-type:luminance" maskUnits="userSpaceOnUse" x="113" y="37" width="49" height="35">
<path d="M161.384 37.4507H113.14V71.6883H161.384V37.4507Z" fill="white"/>
</mask>
<g mask="url(#mask157_82_3555)">
<mask id="mask158_82_3555" style="mask-type:luminance" maskUnits="userSpaceOnUse" x="113" y="37" width="49" height="35">
<path d="M113.14 37.4507H161.384V71.6883H113.14V37.4507Z" fill="white"/>
</mask>
<g mask="url(#mask158_82_3555)">
<mask id="mask159_82_3555" style="mask-type:luminance" maskUnits="userSpaceOnUse" x="111" y="34" width="53" height="41">
<path d="M111.645 68.305L115.876 34.8911L163.387 40.9094L159.156 74.3234L111.645 68.305Z" fill="white"/>
</mask>
<g mask="url(#mask159_82_3555)">
<mask id="mask160_82_3555" style="mask-type:luminance" maskUnits="userSpaceOnUse" x="113" y="37" width="49" height="35">
<path d="M113.76 51.6005C112.59 60.8256 122.25 69.6494 135.335 71.309C148.42 72.9656 159.974 66.8287 161.144 57.6006C162.311 48.3725 152.651 39.5487 139.569 37.8921C126.484 36.2355 114.927 42.3724 113.76 51.6005Z" fill="white"/>
</mask>
<g mask="url(#mask160_82_3555)">
<path d="M111.646 68.305L115.877 34.8911L163.257 40.8912L159.026 74.3082L111.646 68.305Z" fill="white"/>
</g>
</g>
</g>
</g>
</g>
</g>
</g>
<mask id="mask161_82_3555" style="mask-type:luminance" maskUnits="userSpaceOnUse" x="113" y="37" width="49" height="35">
<path d="M113.141 37.4502H161.385V71.6878H113.141V37.4502Z" fill="white"/>
</mask>
<g mask="url(#mask161_82_3555)">
<mask id="mask162_82_3555" style="mask-type:luminance" maskUnits="userSpaceOnUse" x="111" y="34" width="53" height="41">
<path d="M111.646 68.3036L115.899 34.7256L163.374 40.7378L159.121 74.3189L111.646 68.3036Z" fill="white"/>
</mask>
<g mask="url(#mask162_82_3555)">
<mask id="mask163_82_3555" style="mask-type:luminance" maskUnits="userSpaceOnUse" x="111" y="34" width="53" height="41">
<path d="M111.646 68.3046L115.88 34.8633L163.592 40.9059L159.358 74.3472L111.646 68.3046Z" fill="white"/>
</mask>
<g mask="url(#mask163_82_3555)">
<mask id="mask164_82_3555" style="mask-type:luminance" maskUnits="userSpaceOnUse" x="113" y="37" width="49" height="35">
<path d="M113.76 51.6009C112.592 60.826 122.249 69.6468 135.331 71.3034C148.414 72.9599 159.967 66.8261 161.134 57.601C162.301 48.3759 152.645 39.5521 139.563 37.8955C126.48 36.239 114.927 42.3758 113.76 51.6009Z" fill="white"/>
</mask>
<g mask="url(#mask164_82_3555)">
<path d="M113.761 51.6019C112.594 60.827 122.25 69.6478 135.333 71.3044C148.415 72.9609 159.968 66.8271 161.136 57.602C162.303 48.3769 152.646 39.5531 139.564 37.8965C126.482 36.24 114.928 42.3768 113.761 51.6019Z" stroke="black" stroke-width="3.50158"/>
</g>
</g>
</g>
</g>
<mask id="mask165_82_3555" style="mask-type:luminance" maskUnits="userSpaceOnUse" x="113" y="32" width="50" height="36">
<path d="M113.919 32.0029H162.163V67.0187H113.919V32.0029Z" fill="white"/>
</mask>
<g mask="url(#mask165_82_3555)">
<mask id="mask166_82_3555" style="mask-type:luminance" maskUnits="userSpaceOnUse" x="112" y="29" width="53" height="41">
<path d="M112.371 63.2489L116.605 29.835L164.117 35.8503L159.883 69.2672L112.371 63.2489Z" fill="white"/>
</mask>
<g mask="url(#mask166_82_3555)">
<mask id="mask167_82_3555" style="mask-type:luminance" maskUnits="userSpaceOnUse" x="114" y="32" width="48" height="35">
<path d="M114.488 46.5405C113.321 55.7686 122.981 64.5924 136.066 66.249C149.151 67.9055 160.705 61.7687 161.872 52.5436C163.042 43.3155 153.382 34.4916 140.297 32.8351C127.212 31.1785 115.658 37.3123 114.488 46.5405Z" fill="white"/>
</mask>
<g mask="url(#mask167_82_3555)">
<mask id="mask168_82_3555" style="mask-type:luminance" maskUnits="userSpaceOnUse" x="113" y="32" width="50" height="36">
<path d="M162.161 32.0024H113.917V67.0182H162.161V32.0024Z" fill="white"/>
</mask>
<g mask="url(#mask168_82_3555)">
<mask id="mask169_82_3555" style="mask-type:luminance" maskUnits="userSpaceOnUse" x="113" y="32" width="50" height="36">
<path d="M113.916 32.0024H162.16V67.0182H113.916V32.0024Z" fill="white"/>
</mask>
<g mask="url(#mask169_82_3555)">
<mask id="mask170_82_3555" style="mask-type:luminance" maskUnits="userSpaceOnUse" x="112" y="29" width="53" height="41">
<path d="M112.37 63.2484L116.604 29.8345L164.116 35.8498L159.882 69.2667L112.37 63.2484Z" fill="white"/>
</mask>
<g mask="url(#mask170_82_3555)">
<mask id="mask171_82_3555" style="mask-type:luminance" maskUnits="userSpaceOnUse" x="114" y="32" width="48" height="35">
<path d="M114.483 46.54C113.316 55.7681 122.976 64.5919 136.061 66.2485C149.146 67.9051 160.7 61.7682 161.867 52.5431C163.037 43.315 153.378 34.4911 140.292 32.8346C127.207 31.178 115.653 37.3119 114.483 46.54Z" fill="white"/>
</mask>
<g mask="url(#mask171_82_3555)">
<path d="M112.37 63.2484L116.604 29.8345L163.985 35.8346L159.751 69.2485L112.37 63.2484Z" fill="white"/>
</g>
</g>
</g>
</g>
</g>
</g>
</g>
<mask id="mask172_82_3555" style="mask-type:luminance" maskUnits="userSpaceOnUse" x="113" y="32" width="50" height="36">
<path d="M113.919 32.0029H162.163V67.0187H113.919V32.0029Z" fill="white"/>
</mask>
<g mask="url(#mask172_82_3555)">
<mask id="mask173_82_3555" style="mask-type:luminance" maskUnits="userSpaceOnUse" x="112" y="29" width="53" height="41">
<path d="M112.371 63.2481L116.626 29.667L164.101 35.6792L159.846 69.2603L112.371 63.2481Z" fill="white"/>
</mask>
<g mask="url(#mask173_82_3555)">
<mask id="mask174_82_3555" style="mask-type:luminance" maskUnits="userSpaceOnUse" x="112" y="29" width="53" height="41">
<path d="M112.371 63.2494L116.608 29.8081L164.32 35.8508L160.083 69.292L112.371 63.2494Z" fill="white"/>
</mask>
<g mask="url(#mask174_82_3555)">
<mask id="mask175_82_3555" style="mask-type:luminance" maskUnits="userSpaceOnUse" x="114" y="32" width="48" height="35">
<path d="M114.49 46.5452C113.319 55.7703 122.979 64.5942 136.058 66.2507C149.141 67.9073 160.694 61.7734 161.864 52.5453C163.031 43.3203 153.375 34.4994 140.292 32.8429C127.21 31.1863 115.657 37.3202 114.49 46.5452Z" fill="white"/>
</mask>
<g mask="url(#mask175_82_3555)">
<path d="M114.489 46.5429C113.319 55.768 122.978 64.5918 136.058 66.2484C149.14 67.9049 160.693 61.7711 161.864 52.543C163.031 43.3179 153.374 34.4971 140.292 32.8405C127.21 31.184 115.656 37.3178 114.489 46.5429Z" stroke="black" stroke-width="3.50158"/>
</g>
</g>
</g>
</g>
<mask id="mask176_82_3555" style="mask-type:luminance" maskUnits="userSpaceOnUse" x="120" y="37" width="36" height="27">
<path d="M120.146 37.4502H155.939V63.1284H120.146V37.4502Z" fill="white"/>
</mask>
<g mask="url(#mask176_82_3555)">
<mask id="mask177_82_3555" style="mask-type:luminance" maskUnits="userSpaceOnUse" x="118" y="35" width="39" height="30">
<path d="M118.872 60.1885L121.979 35.6592L156.854 40.0787L153.748 64.6049L118.872 60.1885Z" fill="white"/>
</mask>
<g mask="url(#mask177_82_3555)">
<mask id="mask178_82_3555" style="mask-type:luminance" maskUnits="userSpaceOnUse" x="120" y="37" width="36" height="26">
<path d="M120.429 47.9242C119.571 54.6993 126.663 61.1767 136.268 62.3925C145.873 63.6083 154.353 59.1037 155.21 52.3315C156.071 45.5563 148.979 39.079 139.374 37.8632C129.769 36.6474 121.286 41.152 120.429 47.9242Z" fill="white"/>
</mask>
<g mask="url(#mask178_82_3555)">
<mask id="mask179_82_3555" style="mask-type:luminance" maskUnits="userSpaceOnUse" x="120" y="37" width="36" height="27">
<path d="M155.938 37.4504H120.145V63.1287H155.938V37.4504Z" fill="white"/>
</mask>
<g mask="url(#mask179_82_3555)">
<mask id="mask180_82_3555" style="mask-type:luminance" maskUnits="userSpaceOnUse" x="120" y="37" width="36" height="27">
<path d="M120.145 37.4509H155.938V63.1292H120.145V37.4509Z" fill="white"/>
</mask>
<g mask="url(#mask180_82_3555)">
<mask id="mask181_82_3555" style="mask-type:luminance" maskUnits="userSpaceOnUse" x="118" y="35" width="39" height="30">
<path d="M118.871 60.1877L121.978 35.6584L156.853 40.078L153.747 64.6042L118.871 60.1877Z" fill="white"/>
</mask>
<g mask="url(#mask181_82_3555)">
<mask id="mask182_82_3555" style="mask-type:luminance" maskUnits="userSpaceOnUse" x="120" y="37" width="36" height="26">
<path d="M120.428 47.9234C119.57 54.6986 126.662 61.1759 136.267 62.3917C145.872 63.6076 154.352 59.1029 155.209 52.3308C156.07 45.5556 148.978 39.0783 139.373 37.8625C129.768 36.6466 121.285 41.1513 120.428 47.9234Z" fill="white"/>
</mask>
<g mask="url(#mask182_82_3555)">
<path d="M118.872 60.1877L121.979 35.6584L156.76 40.0658L153.654 64.5921L118.872 60.1877Z" fill="black"/>
</g>
</g>
</g>
</g>
</g>
</g>
</g>
<mask id="mask183_82_3555" style="mask-type:luminance" maskUnits="userSpaceOnUse" x="120" y="37" width="36" height="27">
<path d="M120.146 37.4502H155.939V63.1284H120.146V37.4502Z" fill="white"/>
</mask>
<g mask="url(#mask183_82_3555)">
<mask id="mask184_82_3555" style="mask-type:luminance" maskUnits="userSpaceOnUse" x="118" y="35" width="39" height="30">
<path d="M118.872 60.1886L121.951 35.8721L156.69 40.2734L153.611 64.5899L118.872 60.1886Z" fill="white"/>
</mask>
<g mask="url(#mask184_82_3555)">
<mask id="mask185_82_3555" style="mask-type:luminance" maskUnits="userSpaceOnUse" x="118" y="35" width="40" height="30">
<path d="M118.872 60.1894L121.982 35.6418L157.003 40.0766L153.894 64.6241L118.872 60.1894Z" fill="white"/>
</mask>
<g mask="url(#mask185_82_3555)">
<mask id="mask186_82_3555" style="mask-type:luminance" maskUnits="userSpaceOnUse" x="120" y="37" width="36" height="26">
<path d="M120.428 47.9268C119.57 54.699 126.659 61.1733 136.261 62.3891C145.863 63.6049 154.343 59.1033 155.2 52.3312C156.06 45.559 148.969 39.0848 139.367 37.8659C129.765 36.6501 121.285 41.1547 120.428 47.9268Z" fill="white"/>
</mask>
<g mask="url(#mask186_82_3555)">
<path d="M120.43 47.9281C119.573 54.7002 126.661 61.1745 136.263 62.3903C145.865 63.6061 154.345 59.1045 155.202 52.3324C156.063 45.5603 148.971 39.086 139.369 37.8671C129.767 36.6513 121.287 41.1559 120.43 47.9281Z" stroke="black" stroke-width="3.50157"/>
</g>
</g>
</g>
</g>
<path d="M117.022 61.1572L118.004 56.5796" stroke="black" stroke-width="1.16719"/>
<path d="M122.253 66.4055L124.427 62.2595" stroke="black" stroke-width="1.16719"/>
<path d="M129.966 69.1426L131.489 64.714" stroke="black" stroke-width="1.16719"/>
<path d="M138.681 71.1436L138.893 66.4657" stroke="black" stroke-width="1.16719"/>
<path d="M146.504 70.0073L146.051 65.3447" stroke="black" stroke-width="1.16719"/>
<path d="M154.23 66.9265L153.777 62.2669" stroke="black" stroke-width="1.16719"/>
<mask id="mask187_82_3555" style="mask-type:luminance" maskUnits="userSpaceOnUse" x="122" y="39" width="34" height="24">
<path d="M122.479 39.0059H155.161V62.3497H122.479V39.0059Z" fill="white"/>
</mask>
<g mask="url(#mask187_82_3555)">
<mask id="mask188_82_3555" style="mask-type:luminance" maskUnits="userSpaceOnUse" x="121" y="37" width="36" height="27">
<path d="M121.798 59.7746L124.652 37.2393L156.081 41.218L153.227 63.7564L121.798 59.7746Z" fill="white"/>
</mask>
<g mask="url(#mask188_82_3555)">
<mask id="mask189_82_3555" style="mask-type:luminance" maskUnits="userSpaceOnUse" x="123" y="39" width="32" height="23">
<path d="M123.224 48.5084C122.437 54.7334 128.814 60.6666 137.47 61.7609C146.124 62.8581 153.781 58.7031 154.568 52.478C155.355 46.2561 148.978 40.3198 140.325 39.2255C131.668 38.1283 124.011 42.2833 123.224 48.5084Z" fill="white"/>
</mask>
<g mask="url(#mask189_82_3555)">
<mask id="mask190_82_3555" style="mask-type:luminance" maskUnits="userSpaceOnUse" x="122" y="39" width="34" height="24">
<path d="M155.163 39.0078H122.481V62.3517H155.163V39.0078Z" fill="white"/>
</mask>
<g mask="url(#mask190_82_3555)">
<mask id="mask191_82_3555" style="mask-type:luminance" maskUnits="userSpaceOnUse" x="122" y="39" width="34" height="24">
<path d="M122.482 39.0078H155.164V62.3517H122.482V39.0078Z" fill="white"/>
</mask>
<g mask="url(#mask191_82_3555)">
<mask id="mask192_82_3555" style="mask-type:luminance" maskUnits="userSpaceOnUse" x="121" y="37" width="36" height="27">
<path d="M121.801 59.7775L124.655 37.2422L156.084 41.221L153.23 63.7593L121.801 59.7775Z" fill="white"/>
</mask>
<g mask="url(#mask192_82_3555)">
<mask id="mask193_82_3555" style="mask-type:luminance" maskUnits="userSpaceOnUse" x="123" y="39" width="32" height="23">
<path d="M123.226 48.5103C122.439 54.7353 128.816 60.6686 137.472 61.7628C146.126 62.8601 153.783 58.705 154.57 52.48C155.357 46.258 148.98 40.3217 140.326 39.2275C131.67 38.1302 124.013 42.2853 123.226 48.5103Z" fill="white"/>
</mask>
<g mask="url(#mask193_82_3555)">
<path d="M121.801 59.778L124.655 37.2427L155.996 41.2123L153.142 63.7477L121.801 59.778Z" fill="#A9C5E7"/>
</g>
</g>
</g>
</g>
</g>
</g>
</g>
<mask id="mask194_82_3555" style="mask-type:luminance" maskUnits="userSpaceOnUse" x="132" y="44" width="15" height="13">
<path d="M132.594 44.4531H146.6V56.9032H132.594V44.4531Z" fill="white"/>
</mask>
<g mask="url(#mask194_82_3555)">
<mask id="mask195_82_3555" style="mask-type:luminance" maskUnits="userSpaceOnUse" x="130" y="43" width="18" height="15">
<path d="M130.771 52.0428L134.899 43.0244L147.635 48.8513L143.507 57.8727L130.771 52.0428Z" fill="white"/>
</mask>
<g mask="url(#mask195_82_3555)">
<mask id="mask196_82_3555" style="mask-type:luminance" maskUnits="userSpaceOnUse" x="130" y="43" width="18" height="15">
<path d="M130.771 52.0428L134.899 43.0244L147.635 48.8513L143.507 57.8727L130.771 52.0428Z" fill="white"/>
</mask>
<g mask="url(#mask196_82_3555)">
<path d="M140.656 47.153C139.95 47.4843 139.215 48.1043 138.47 49.0709L136.306 48.0831C136.698 47.5572 137.197 47.1286 137.798 46.8034C137.877 46.7396 137.956 46.6727 137.953 46.5724C137.993 46.4873 137.987 46.387 137.923 46.308L136.99 44.7213C136.926 44.6423 136.862 44.5633 136.759 44.5663C136.677 44.5268 136.555 44.5724 136.494 44.5967C135.452 45.2259 134.619 46.0526 134.02 47.0344L133.561 46.8247C133.394 46.7487 133.172 46.7973 133.078 47.0071L132.64 47.9615C132.564 48.1287 132.613 48.3536 132.82 48.4478L133.276 48.6575C132.959 49.5694 132.95 50.4691 133.224 51.2989C133.504 52.2321 134.139 52.9251 135.096 53.3628C136.054 53.8005 136.893 53.8339 137.659 53.4783C138.364 53.147 139.039 52.5512 139.765 51.6272L142.011 52.6546C141.522 53.2838 140.841 53.7792 139.957 54.1774C139.874 54.2412 139.795 54.3051 139.759 54.3902C139.719 54.4722 139.722 54.5756 139.786 54.6546L140.583 56.3264C140.65 56.5087 140.878 56.5604 141.057 56.4935C142.449 55.8735 143.543 54.916 144.34 53.7215L145.13 54.0832C145.297 54.1592 145.519 54.1105 145.616 53.9008L146.054 52.9464C146.13 52.7792 146.081 52.5543 145.872 52.46L145.081 52.0983C145.437 51.1044 145.446 50.2016 145.191 49.3323C144.914 48.3992 144.294 47.6636 143.34 47.2259C142.321 46.8095 141.44 46.7578 140.656 47.153ZM142.279 49.7579C142.528 49.8734 142.698 50.0527 142.771 50.3354C142.82 50.5603 142.808 50.8065 142.777 51.0922L140.905 50.2351C141.242 49.9372 141.461 49.7883 141.583 49.7427C141.805 49.5907 142.03 49.6454 142.279 49.7579ZM136.011 50.8126C135.762 50.7001 135.634 50.539 135.564 50.2564C135.494 50.074 135.488 49.8703 135.543 49.6424L137.288 50.4418C137.011 50.7184 136.811 50.8278 136.689 50.8734C136.446 50.9615 136.26 50.9281 136.011 50.8126Z" fill="white"/>
</g>
</g>
</g>
<mask id="mask197_82_3555" style="mask-type:luminance" maskUnits="userSpaceOnUse" x="140" y="168" width="49" height="36">
<path d="M140.376 168.175H188.62V203.191H140.376V168.175Z" fill="white"/>
</mask>
<g mask="url(#mask197_82_3555)">
<mask id="mask198_82_3555" style="mask-type:luminance" maskUnits="userSpaceOnUse" x="138" y="165" width="53" height="41">
<path d="M138.753 199.395L142.984 165.981L190.498 172L186.264 205.414L138.753 199.395Z" fill="white"/>
</mask>
<g mask="url(#mask198_82_3555)">
<mask id="mask199_82_3555" style="mask-type:luminance" maskUnits="userSpaceOnUse" x="140" y="168" width="49" height="35">
<path d="M140.868 182.685C139.701 191.913 149.361 200.737 162.446 202.393C175.528 204.053 187.085 197.916 188.252 188.688C189.422 179.46 179.762 170.636 166.677 168.979C153.592 167.323 142.038 173.46 140.868 182.685Z" fill="white"/>
</mask>
<g mask="url(#mask199_82_3555)">
<mask id="mask200_82_3555" style="mask-type:luminance" maskUnits="userSpaceOnUse" x="140" y="168" width="49" height="36">
<path d="M188.62 168.175H140.376V203.19H188.62V168.175Z" fill="white"/>
</mask>
<g mask="url(#mask200_82_3555)">
<mask id="mask201_82_3555" style="mask-type:luminance" maskUnits="userSpaceOnUse" x="140" y="168" width="49" height="36">
<path d="M140.376 168.175H188.62V203.19H140.376V168.175Z" fill="white"/>
</mask>
<g mask="url(#mask201_82_3555)">
<mask id="mask202_82_3555" style="mask-type:luminance" maskUnits="userSpaceOnUse" x="138" y="165" width="53" height="41">
<path d="M138.753 199.395L142.984 165.981L190.498 172L186.264 205.413L138.753 199.395Z" fill="white"/>
</mask>
<g mask="url(#mask202_82_3555)">
<mask id="mask203_82_3555" style="mask-type:luminance" maskUnits="userSpaceOnUse" x="140" y="168" width="49" height="35">
<path d="M140.868 182.685C139.701 191.913 149.361 200.737 162.446 202.393C175.528 204.053 187.085 197.916 188.252 188.688C189.422 179.46 179.762 170.636 166.677 168.979C153.592 167.323 142.038 173.46 140.868 182.685Z" fill="white"/>
</mask>
<g mask="url(#mask203_82_3555)">
<path d="M138.753 199.395L142.984 165.981L190.368 171.981L186.134 205.398L138.753 199.395Z" fill="white"/>
</g>
</g>
</g>
</g>
</g>
</g>
</g>
<mask id="mask204_82_3555" style="mask-type:luminance" maskUnits="userSpaceOnUse" x="140" y="168" width="49" height="36">
<path d="M140.376 168.175H188.62V203.191H140.376V168.175Z" fill="white"/>
</mask>
<g mask="url(#mask204_82_3555)">
<mask id="mask205_82_3555" style="mask-type:luminance" maskUnits="userSpaceOnUse" x="138" y="165" width="53" height="41">
<path d="M138.75 199.394L143.002 165.812L190.48 171.828L186.225 205.406L138.75 199.394Z" fill="white"/>
</mask>
<g mask="url(#mask205_82_3555)">
<mask id="mask206_82_3555" style="mask-type:luminance" maskUnits="userSpaceOnUse" x="138" y="165" width="53" height="41">
<path d="M138.751 199.394L142.988 165.953L190.697 171.996L186.463 205.437L138.751 199.394Z" fill="white"/>
</mask>
<g mask="url(#mask206_82_3555)">
<mask id="mask207_82_3555" style="mask-type:luminance" maskUnits="userSpaceOnUse" x="140" y="168" width="49" height="35">
<path d="M140.867 182.69C139.7 191.915 149.357 200.736 162.439 202.393C175.521 204.049 187.075 197.916 188.242 188.69C189.412 179.465 179.752 170.642 166.67 168.985C153.588 167.328 142.037 173.462 140.867 182.69Z" fill="white"/>
</mask>
<g mask="url(#mask207_82_3555)">
<path d="M140.866 182.692C139.699 191.917 149.356 200.738 162.438 202.395C175.521 204.051 187.074 197.917 188.241 188.692C189.411 179.467 179.752 170.643 166.669 168.987C153.587 167.33 142.037 173.464 140.866 182.692Z" stroke="black" stroke-width="3.50158"/>
</g>
</g>
</g>
</g>
<mask id="mask208_82_3555" style="mask-type:luminance" maskUnits="userSpaceOnUse" x="141" y="163" width="49" height="35">
<path d="M141.153 163.507H189.397V197.745H141.153V163.507Z" fill="white"/>
</mask>
<g mask="url(#mask208_82_3555)">
<mask id="mask209_82_3555" style="mask-type:luminance" maskUnits="userSpaceOnUse" x="139" y="160" width="53" height="41">
<path d="M139.479 194.34L143.711 160.923L191.222 166.941L186.991 200.358L139.479 194.34Z" fill="white"/>
</mask>
<g mask="url(#mask209_82_3555)">
<mask id="mask210_82_3555" style="mask-type:luminance" maskUnits="userSpaceOnUse" x="141" y="163" width="49" height="35">
<path d="M141.6 177.634C140.43 186.862 150.089 195.686 163.175 197.342C176.26 198.999 187.813 192.862 188.984 183.637C190.151 174.409 180.491 165.585 167.406 163.928C154.324 162.269 142.767 168.406 141.6 177.634Z" fill="white"/>
</mask>
<g mask="url(#mask210_82_3555)">
<mask id="mask211_82_3555" style="mask-type:luminance" maskUnits="userSpaceOnUse" x="141" y="163" width="49" height="35">
<path d="M189.398 163.507H141.154V197.745H189.398V163.507Z" fill="white"/>
</mask>
<g mask="url(#mask211_82_3555)">
<mask id="mask212_82_3555" style="mask-type:luminance" maskUnits="userSpaceOnUse" x="141" y="163" width="49" height="35">
<path d="M141.154 163.507H189.398V197.745H141.154V163.507Z" fill="white"/>
</mask>
<g mask="url(#mask212_82_3555)">
<mask id="mask213_82_3555" style="mask-type:luminance" maskUnits="userSpaceOnUse" x="139" y="160" width="53" height="41">
<path d="M139.482 194.34L143.713 160.923L191.225 166.941L186.994 200.358L139.482 194.34Z" fill="white"/>
</mask>
<g mask="url(#mask213_82_3555)">
<mask id="mask214_82_3555" style="mask-type:luminance" maskUnits="userSpaceOnUse" x="141" y="163" width="49" height="35">
<path d="M141.597 177.634C140.427 186.862 150.087 195.686 163.172 197.342C176.257 198.999 187.811 192.862 188.981 183.637C190.148 174.409 180.488 165.585 167.403 163.928C154.321 162.269 142.764 168.406 141.597 177.634Z" fill="white"/>
</mask>
<g mask="url(#mask214_82_3555)">
<path d="M139.482 194.34L143.713 160.923L191.094 166.926L186.863 200.34L139.482 194.34Z" fill="white"/>
</g>
</g>
</g>
</g>
</g>
</g>
</g>
<mask id="mask215_82_3555" style="mask-type:luminance" maskUnits="userSpaceOnUse" x="141" y="163" width="49" height="35">
<path d="M141.153 163.507H189.397V197.745H141.153V163.507Z" fill="white"/>
</mask>
<g mask="url(#mask215_82_3555)">
<mask id="mask216_82_3555" style="mask-type:luminance" maskUnits="userSpaceOnUse" x="139" y="160" width="53" height="41">
<path d="M139.48 194.341L143.733 160.76L191.208 166.772L186.955 200.353L139.48 194.341Z" fill="white"/>
</mask>
<g mask="url(#mask216_82_3555)">
<mask id="mask217_82_3555" style="mask-type:luminance" maskUnits="userSpaceOnUse" x="139" y="160" width="53" height="41">
<path d="M139.48 194.341L143.715 160.897L191.427 166.942L187.189 200.384L139.48 194.341Z" fill="white"/>
</mask>
<g mask="url(#mask217_82_3555)">
<mask id="mask218_82_3555" style="mask-type:luminance" maskUnits="userSpaceOnUse" x="141" y="163" width="49" height="35">
<path d="M141.6 177.636C140.43 186.861 150.089 195.685 163.172 197.341C176.254 198.998 187.804 192.861 188.975 183.636C190.142 174.411 180.485 165.59 167.403 163.933C154.321 162.274 142.767 168.411 141.6 177.636Z" fill="white"/>
</mask>
<g mask="url(#mask218_82_3555)">
<path d="M141.598 177.636C140.428 186.861 150.088 195.685 163.17 197.341C176.252 198.998 187.803 192.861 188.973 183.636C190.14 174.411 180.483 165.59 167.401 163.933C154.319 162.274 142.765 168.411 141.598 177.636Z" stroke="black" stroke-width="3.50158"/>
</g>
</g>
</g>
</g>
<mask id="mask219_82_3555" style="mask-type:luminance" maskUnits="userSpaceOnUse" x="147" y="168" width="36" height="26">
<path d="M147.38 168.175H182.396V193.853H147.38V168.175Z" fill="white"/>
</mask>
<g mask="url(#mask219_82_3555)">
<mask id="mask220_82_3555" style="mask-type:luminance" maskUnits="userSpaceOnUse" x="145" y="166" width="39" height="30">
<path d="M145.981 191.278L149.088 166.749L183.967 171.165L180.86 195.695L145.981 191.278Z" fill="white"/>
</mask>
<g mask="url(#mask220_82_3555)">
<mask id="mask221_82_3555" style="mask-type:luminance" maskUnits="userSpaceOnUse" x="147" y="168" width="36" height="26">
<path d="M147.537 179.015C146.68 185.787 153.771 192.264 163.376 193.483C172.981 194.699 181.465 190.194 182.322 183.419C183.179 176.647 176.088 170.169 166.483 168.954C156.878 167.735 148.397 172.242 147.537 179.015Z" fill="white"/>
</mask>
<g mask="url(#mask221_82_3555)">
<mask id="mask222_82_3555" style="mask-type:luminance" maskUnits="userSpaceOnUse" x="147" y="168" width="36" height="26">
<path d="M182.398 168.174H147.382V193.853H182.398V168.174Z" fill="white"/>
</mask>
<g mask="url(#mask222_82_3555)">
<mask id="mask223_82_3555" style="mask-type:luminance" maskUnits="userSpaceOnUse" x="147" y="168" width="36" height="26">
<path d="M147.382 168.174H182.398V193.853H147.382V168.174Z" fill="white"/>
</mask>
<g mask="url(#mask223_82_3555)">
<mask id="mask224_82_3555" style="mask-type:luminance" maskUnits="userSpaceOnUse" x="145" y="166" width="39" height="30">
<path d="M145.984 191.278L149.091 166.749L183.97 171.165L180.863 195.694L145.984 191.278Z" fill="white"/>
</mask>
<g mask="url(#mask224_82_3555)">
<mask id="mask225_82_3555" style="mask-type:luminance" maskUnits="userSpaceOnUse" x="147" y="168" width="36" height="26">
<path d="M147.539 179.014C146.682 185.786 153.773 192.264 163.378 193.483C172.983 194.698 181.467 190.194 182.324 183.419C183.181 176.646 176.09 170.169 166.485 168.953C156.88 167.734 148.399 172.242 147.539 179.014Z" fill="white"/>
</mask>
<g mask="url(#mask225_82_3555)">
<path d="M145.986 191.278L149.093 166.749L183.874 171.153L180.768 195.682L145.986 191.278Z" fill="black"/>
</g>
</g>
</g>
</g>
</g>
</g>
</g>
<mask id="mask226_82_3555" style="mask-type:luminance" maskUnits="userSpaceOnUse" x="147" y="168" width="36" height="26">
<path d="M147.38 168.175H182.396V193.853H147.38V168.175Z" fill="white"/>
</mask>
<g mask="url(#mask226_82_3555)">
<mask id="mask227_82_3555" style="mask-type:luminance" maskUnits="userSpaceOnUse" x="145" y="166" width="39" height="30">
<path d="M145.982 191.278L149.061 166.962L183.801 171.36L180.722 195.676L145.982 191.278Z" fill="white"/>
</mask>
<g mask="url(#mask227_82_3555)">
<mask id="mask228_82_3555" style="mask-type:luminance" maskUnits="userSpaceOnUse" x="145" y="166" width="40" height="30">
<path d="M145.983 191.278L149.093 166.731L184.115 171.166L181.005 195.713L145.983 191.278Z" fill="white"/>
</mask>
<g mask="url(#mask228_82_3555)">
<mask id="mask229_82_3555" style="mask-type:luminance" maskUnits="userSpaceOnUse" x="147" y="168" width="36" height="26">
<path d="M147.539 179.017C146.682 185.789 153.77 192.264 163.375 193.479C172.977 194.695 181.457 190.194 182.315 183.422C183.172 176.649 176.084 170.172 166.478 168.956C156.877 167.74 148.396 172.245 147.539 179.017Z" fill="white"/>
</mask>
<g mask="url(#mask229_82_3555)">
<path d="M147.538 179.016C146.681 185.788 153.769 192.262 163.374 193.478C172.976 194.694 181.457 190.192 182.314 183.42C183.171 176.648 176.083 170.171 166.478 168.955C156.876 167.739 148.395 172.244 147.538 179.016Z" stroke="black" stroke-width="3.50157"/>
</g>
</g>
</g>
</g>
<path d="M144.133 192.247L145.115 187.669" stroke="black" stroke-width="1.16719"/>
<path d="M149.359 197.494L151.536 193.348" stroke="black" stroke-width="1.16719"/>
<path d="M157.071 200.231L158.597 195.805" stroke="black" stroke-width="1.16719"/>
<path d="M165.787 202.232L166 197.555" stroke="black" stroke-width="1.16719"/>
<path d="M173.61 201.093L173.16 196.433" stroke="black" stroke-width="1.16719"/>
<path d="M181.337 198.018L180.887 193.358" stroke="black" stroke-width="1.16719"/>
<mask id="mask230_82_3555" style="mask-type:luminance" maskUnits="userSpaceOnUse" x="149" y="169" width="34" height="25">
<path d="M149.714 169.731H182.395V193.075H149.714V169.731Z" fill="white"/>
</mask>
<g mask="url(#mask230_82_3555)">
<mask id="mask231_82_3555" style="mask-type:luminance" maskUnits="userSpaceOnUse" x="148" y="168" width="36" height="27">
<path d="M148.905 190.865L151.759 168.326L183.189 172.308L180.334 194.846L148.905 190.865Z" fill="white"/>
</mask>
<g mask="url(#mask231_82_3555)">
<mask id="mask232_82_3555" style="mask-type:luminance" maskUnits="userSpaceOnUse" x="150" y="170" width="32" height="24">
<path d="M150.332 179.596C149.545 185.818 155.922 191.755 164.579 192.849C173.232 193.946 180.889 189.788 181.676 183.566C182.467 177.341 176.09 171.408 167.433 170.311C158.776 169.216 151.123 173.371 150.332 179.596Z" fill="white"/>
</mask>
<g mask="url(#mask232_82_3555)">
<mask id="mask233_82_3555" style="mask-type:luminance" maskUnits="userSpaceOnUse" x="149" y="169" width="34" height="25">
<path d="M182.396 169.731H149.715V193.075H182.396V169.731Z" fill="white"/>
</mask>
<g mask="url(#mask233_82_3555)">
<mask id="mask234_82_3555" style="mask-type:luminance" maskUnits="userSpaceOnUse" x="149" y="169" width="34" height="25">
<path d="M149.715 169.731H182.396V193.075H149.715V169.731Z" fill="white"/>
</mask>
<g mask="url(#mask234_82_3555)">
<mask id="mask235_82_3555" style="mask-type:luminance" maskUnits="userSpaceOnUse" x="148" y="168" width="36" height="27">
<path d="M148.906 190.865L151.76 168.326L183.189 172.308L180.335 194.846L148.906 190.865Z" fill="white"/>
</mask>
<g mask="url(#mask235_82_3555)">
<mask id="mask236_82_3555" style="mask-type:luminance" maskUnits="userSpaceOnUse" x="150" y="170" width="32" height="24">
<path d="M150.333 179.596C149.546 185.818 155.923 191.755 164.58 192.849C173.233 193.946 180.89 189.788 181.677 183.566C182.468 177.341 176.091 171.408 167.434 170.311C158.777 169.216 151.124 173.371 150.333 179.596Z" fill="white"/>
</mask>
<g mask="url(#mask236_82_3555)">
<path d="M148.906 190.865L151.76 168.326L183.101 172.296L180.247 194.834L148.906 190.865Z" fill="#A9C5E7"/>
</g>
</g>
</g>
</g>
</g>
</g>
</g>
<mask id="mask237_82_3555" style="mask-type:luminance" maskUnits="userSpaceOnUse" x="159" y="175" width="15" height="13">
<path d="M159.052 175.178H173.836V187.628H159.052V175.178Z" fill="white"/>
</mask>
<g mask="url(#mask237_82_3555)">
<mask id="mask238_82_3555" style="mask-type:luminance" maskUnits="userSpaceOnUse" x="157" y="174" width="18" height="15">
<path d="M157.879 183.133L162.01 174.111L174.745 179.941L170.615 188.963L157.879 183.133Z" fill="white"/>
</mask>
<g mask="url(#mask238_82_3555)">
<mask id="mask239_82_3555" style="mask-type:luminance" maskUnits="userSpaceOnUse" x="157" y="174" width="18" height="15">
<path d="M157.879 183.133L162.01 174.111L174.745 179.941L170.615 188.963L157.879 183.133Z" fill="white"/>
</mask>
<g mask="url(#mask239_82_3555)">
<path d="M167.764 178.242C167.059 178.573 166.323 179.193 165.579 180.16L163.417 179.169C163.807 178.646 164.305 178.218 164.907 177.889C164.986 177.825 165.068 177.762 165.062 177.661C165.101 177.576 165.098 177.476 165.035 177.394L164.098 175.81C164.034 175.731 163.971 175.652 163.867 175.655C163.785 175.616 163.664 175.661 163.603 175.686C162.56 176.315 161.73 177.142 161.129 178.123L160.673 177.914C160.506 177.838 160.281 177.886 160.186 178.093L159.749 179.05C159.673 179.218 159.721 179.439 159.928 179.537L160.387 179.746C160.071 180.655 160.059 181.558 160.335 182.388C160.612 183.318 161.25 184.014 162.208 184.452C163.162 184.889 164.004 184.923 164.77 184.567C165.472 184.236 166.15 183.64 166.873 182.716L169.12 183.743C168.63 184.373 167.952 184.868 167.065 185.266C166.986 185.33 166.904 185.394 166.867 185.479C166.828 185.561 166.834 185.664 166.898 185.743L167.691 187.415C167.758 187.598 167.986 187.649 168.168 187.582C169.557 186.962 170.652 186.002 171.448 184.81L172.238 185.169C172.405 185.248 172.63 185.199 172.725 184.99L173.162 184.032C173.238 183.868 173.19 183.643 172.983 183.549L172.193 183.187C172.545 182.193 172.557 181.291 172.302 180.421C172.022 179.488 171.405 178.752 170.448 178.315C169.43 177.898 168.548 177.847 167.764 178.242ZM169.39 180.847C169.639 180.962 169.81 181.142 169.88 181.424C169.928 181.649 169.916 181.892 169.886 182.181L168.013 181.324C168.351 181.026 168.573 180.877 168.694 180.832C168.913 180.68 169.141 180.734 169.39 180.847ZM163.123 181.901C162.873 181.789 162.743 181.628 162.673 181.345C162.606 181.163 162.597 180.959 162.651 180.731L164.399 181.531C164.12 181.807 163.919 181.917 163.797 181.962C163.557 182.05 163.372 182.017 163.123 181.901Z" fill="white"/>
</g>
</g>
</g>
<path d="M99.7461 123.025L174.407 73.6932" stroke="black" stroke-width="2.33438"/>
<path d="M132.115 151.357L206.775 102.021" stroke="black" stroke-width="2.33438"/>
<path d="M142.15 158.719L190.899 126.499" stroke="black" stroke-width="2.33438"/>
<path d="M107.739 131.779L156.488 99.56" stroke="black" stroke-width="2.33438"/>
<mask id="mask240_82_3555" style="mask-type:luminance" maskUnits="userSpaceOnUse" x="78" y="119" width="15" height="14">
<path d="M78.127 119.152H92.9114V132.381H78.127V119.152Z" fill="white"/>
</mask>
<g mask="url(#mask240_82_3555)">
<mask id="mask241_82_3555" style="mask-type:luminance" maskUnits="userSpaceOnUse" x="77" y="118" width="17" height="16">
<path d="M80.7945 118.174L93.6275 122.104L90.208 133.265L77.375 129.335L80.7945 118.174Z" fill="white"/>
</mask>
<g mask="url(#mask241_82_3555)">
<mask id="mask242_82_3555" style="mask-type:luminance" maskUnits="userSpaceOnUse" x="77" y="118" width="17" height="16">
<path d="M80.7918 118.174L93.8346 122.168L90.3816 133.451L77.3389 129.457L80.7918 118.174Z" fill="white"/>
</mask>
<g mask="url(#mask242_82_3555)">
<mask id="mask243_82_3555" style="mask-type:luminance" maskUnits="userSpaceOnUse" x="78" y="119" width="15" height="13">
<path d="M87.2766 120.159C83.696 119.065 80.0212 120.7 79.0668 123.816C78.1123 126.931 80.2431 130.345 83.8237 131.442C87.4013 132.536 91.0791 130.901 92.0335 127.785C92.9849 124.67 90.8572 121.256 87.2766 120.159Z" fill="white"/>
</mask>
<g mask="url(#mask243_82_3555)">
<path d="M87.275 120.159C83.6944 119.065 80.0195 120.7 79.0651 123.816C78.1107 126.931 80.2414 130.345 83.822 131.442C87.3996 132.536 91.0775 130.901 92.0319 127.785C92.9833 124.67 90.8556 121.256 87.275 120.159Z" stroke="black" stroke-width="2.33438"/>
</g>
</g>
</g>
</g>
<mask id="mask244_82_3555" style="mask-type:luminance" maskUnits="userSpaceOnUse" x="94" y="126" width="10" height="9">
<path d="M94.4648 126.155H103.802V134.715H94.4648V126.155Z" fill="white"/>
</mask>
<g mask="url(#mask244_82_3555)">
<mask id="mask245_82_3555" style="mask-type:luminance" maskUnits="userSpaceOnUse" x="93" y="125" width="12" height="12">
<path d="M95.9283 125.49L104.855 128.223L102.463 136.038L93.5361 133.302L95.9283 125.49Z" fill="white"/>
</mask>
<g mask="url(#mask245_82_3555)">
<mask id="mask246_82_3555" style="mask-type:luminance" maskUnits="userSpaceOnUse" x="93" y="125" width="12" height="11">
<path d="M95.9262 125.49L104.635 128.156L102.327 135.691L93.6191 133.022L95.9262 125.49Z" fill="white"/>
</mask>
<g mask="url(#mask246_82_3555)">
<mask id="mask247_82_3555" style="mask-type:luminance" maskUnits="userSpaceOnUse" x="94" y="126" width="10" height="9">
<path d="M100.254 126.816C97.8619 126.083 95.409 127.177 94.7707 129.256C94.1354 131.335 95.5549 133.615 97.9471 134.348C100.336 135.08 102.792 133.989 103.43 131.907C104.066 129.828 102.643 127.548 100.254 126.816Z" fill="white"/>
</mask>
<g mask="url(#mask247_82_3555)">
<path d="M100.255 126.814C97.8624 126.081 95.4095 127.176 94.7712 129.255C94.1359 131.334 95.5554 133.613 97.9475 134.346C100.337 135.078 102.793 133.987 103.431 131.905C104.066 129.826 102.644 127.546 100.255 126.814Z" stroke="black" stroke-width="1.16719"/>
</g>
</g>
</g>
</g>
<mask id="mask248_82_3555" style="mask-type:luminance" maskUnits="userSpaceOnUse" x="82" y="122" width="8" height="7">
<path d="M82.7959 122.267H89.0209V128.492H82.7959V122.267Z" fill="white"/>
</mask>
<g mask="url(#mask248_82_3555)">
<mask id="mask249_82_3555" style="mask-type:luminance" maskUnits="userSpaceOnUse" x="82" y="122" width="8" height="7">
<path d="M82.0215 125.948L83.8635 122.301L89.0733 124.933L87.2313 128.577L82.0215 125.948Z" fill="white"/>
</mask>
<g mask="url(#mask249_82_3555)">
<mask id="mask250_82_3555" style="mask-type:luminance" maskUnits="userSpaceOnUse" x="82" y="122" width="8" height="7">
<path d="M82.0225 125.949L83.8644 122.301L89.0742 124.934L87.2323 128.578L82.0225 125.949Z" fill="white"/>
</mask>
<g mask="url(#mask250_82_3555)">
<mask id="mask251_82_3555" style="mask-type:luminance" maskUnits="userSpaceOnUse" x="82" y="122" width="8" height="7">
<path d="M82.0254 125.949L83.8674 122.302L89.0772 124.934L87.2352 128.578L82.0254 125.949Z" fill="white"/>
</mask>
<g mask="url(#mask251_82_3555)">
<path d="M86.195 124C85.8971 124.131 85.581 124.383 85.2558 124.781L84.3864 124.344C84.5597 124.128 84.7725 123.955 85.0278 123.821C85.0612 123.797 85.0947 123.769 85.0947 123.727C85.1129 123.693 85.1129 123.651 85.0886 123.614L84.739 122.939C84.7147 122.906 84.6904 122.873 84.6478 122.873C84.6144 122.854 84.5627 122.873 84.5384 122.882C84.0946 123.134 83.736 123.474 83.4685 123.879L83.2831 123.787C83.2162 123.754 83.125 123.772 83.0825 123.857L82.8819 124.256C82.8454 124.325 82.8606 124.42 82.9457 124.462L83.1281 124.553C82.9791 124.933 82.9548 125.31 83.049 125.663C83.1433 126.058 83.3925 126.356 83.7755 126.55C84.1585 126.742 84.505 126.766 84.8272 126.626C85.1251 126.493 85.4138 126.25 85.733 125.87L86.6357 126.322C86.4199 126.584 86.1312 126.784 85.7573 126.943C85.7238 126.97 85.6874 126.994 85.6722 127.028C85.6539 127.064 85.6539 127.107 85.6783 127.14L85.967 127.851C85.9913 127.927 86.0856 127.952 86.1615 127.927C86.7451 127.681 87.2163 127.289 87.5689 126.797L87.888 126.955C87.9549 126.991 88.0461 126.973 88.0917 126.885L88.2923 126.487C88.3257 126.42 88.3105 126.325 88.2284 126.283L87.9093 126.122C88.0765 125.708 88.1008 125.329 88.0126 124.961C87.9184 124.566 87.6813 124.253 87.2953 124.058C86.888 123.873 86.5263 123.842 86.195 124ZM86.8059 125.11C86.9062 125.161 86.9731 125.237 86.9974 125.359C87.0126 125.453 87.0005 125.556 86.9822 125.675L86.2315 125.298C86.3774 125.173 86.4716 125.113 86.5202 125.098C86.6144 125.034 86.7056 125.061 86.8059 125.11ZM84.2071 125.49C84.1068 125.438 84.0582 125.368 84.0339 125.249C84.0095 125.173 84.0126 125.085 84.0399 124.991L84.739 125.347C84.6205 125.459 84.5354 125.502 84.4837 125.52C84.3834 125.556 84.3074 125.538 84.2071 125.49Z" fill="black"/>
</g>
</g>
</g>
</g>
<mask id="mask252_82_3555" style="mask-type:luminance" maskUnits="userSpaceOnUse" x="95" y="127" width="7" height="7">
<path d="M95.2451 127.714H101.47V133.161H95.2451V127.714Z" fill="white"/>
</mask>
<g mask="url(#mask252_82_3555)">
<mask id="mask253_82_3555" style="mask-type:luminance" maskUnits="userSpaceOnUse" x="94" y="127" width="8" height="7">
<path d="M94.9297 131.093L96.7686 127.445L101.978 130.075L100.139 133.722L94.9297 131.093Z" fill="white"/>
</mask>
<g mask="url(#mask253_82_3555)">
<mask id="mask254_82_3555" style="mask-type:luminance" maskUnits="userSpaceOnUse" x="94" y="127" width="8" height="7">
<path d="M94.9287 131.092L96.7676 127.445L101.977 130.074L100.139 133.722L94.9287 131.092Z" fill="white"/>
</mask>
<g mask="url(#mask254_82_3555)">
<mask id="mask255_82_3555" style="mask-type:luminance" maskUnits="userSpaceOnUse" x="94" y="127" width="8" height="7">
<path d="M94.9277 131.092L96.7667 127.444L101.976 130.074L100.138 133.721L94.9277 131.092Z" fill="white"/>
</mask>
<g mask="url(#mask255_82_3555)">
<path d="M99.0953 129.142C98.8005 129.276 98.4844 129.528 98.1561 129.926L97.2898 129.488C97.46 129.269 97.6728 129.096 97.9281 128.966C97.9646 128.938 97.998 128.914 97.998 128.871C98.0163 128.835 98.0163 128.792 97.992 128.759L97.6424 128.084C97.615 128.051 97.5907 128.014 97.5482 128.014C97.5147 127.999 97.4661 128.017 97.4387 128.026C96.998 128.279 96.6393 128.616 96.3688 129.023L96.1864 128.932C96.1196 128.899 96.0254 128.914 95.9828 129.002L95.7822 129.4C95.7488 129.467 95.764 129.561 95.846 129.604L96.0314 129.698C95.8795 130.078 95.8582 130.455 95.9524 130.807C96.0466 131.2 96.2928 131.497 96.6789 131.692C97.0618 131.887 97.4053 131.908 97.7305 131.768C98.0254 131.637 98.3172 131.394 98.6363 131.011L99.536 131.467C99.3202 131.728 99.0315 131.929 98.6576 132.087C98.6242 132.111 98.5907 132.139 98.5725 132.172C98.5543 132.206 98.5543 132.251 98.5786 132.285L98.8704 132.996C98.8947 133.072 98.9859 133.096 99.0619 133.069C99.6485 132.823 100.117 132.434 100.472 131.938L100.788 132.099C100.855 132.133 100.949 132.115 100.992 132.029L101.193 131.631C101.229 131.561 101.214 131.467 101.129 131.425L100.813 131.266C100.98 130.853 101.001 130.473 100.916 130.105C100.822 129.71 100.582 129.394 100.199 129.203C99.7883 129.017 99.4266 128.984 99.0953 129.142ZM99.7093 130.254C99.8096 130.306 99.8765 130.382 99.8978 130.501C99.913 130.595 99.9038 130.698 99.8856 130.82L99.1318 130.44C99.2777 130.318 99.3719 130.257 99.4236 130.239C99.5178 130.178 99.609 130.203 99.7093 130.254ZM97.1074 130.631C97.0071 130.583 96.9585 130.513 96.9372 130.394C96.9129 130.315 96.9129 130.23 96.9403 130.136L97.6424 130.488C97.5208 130.601 97.4357 130.646 97.3871 130.665C97.2837 130.698 97.2077 130.683 97.1074 130.631Z" fill="black"/>
</g>
</g>
</g>
</g>
</g>
<defs>
<clipPath id="clip0_82_3555">
<rect width="322.291" height="238.829" fill="white" transform="translate(0.598633)"/>
</clipPath>
</defs>
</svg>
