<svg width="126" height="153" viewBox="0 0 126 153" fill="none" xmlns="http://www.w3.org/2000/svg">
<g clip-path="url(#clip0_82_13825)">
<mask id="mask0_82_13825" style="mask-type:luminance" maskUnits="userSpaceOnUse" x="-171" y="-159" width="467" height="467">
<path d="M295.058 -158.232H-170.763V307.588H295.058V-158.232Z" fill="black" fill-opacity="0.15"/>
</mask>
<g mask="url(#mask0_82_13825)">
<mask id="mask1_82_13825" style="mask-type:luminance" maskUnits="userSpaceOnUse" x="45" y="37" width="95" height="96">
<path d="M139.308 37.7764H45.377V132.187H139.308V37.7764Z" fill="white"/>
</mask>
<g mask="url(#mask1_82_13825)">
<mask id="mask2_82_13825" style="mask-type:luminance" maskUnits="userSpaceOnUse" x="45" y="38" width="95" height="94">
<path d="M45.5303 38.1602H139.27V131.898H45.5303V38.1602Z" fill="white"/>
</mask>
<g mask="url(#mask2_82_13825)">
<mask id="mask3_82_13825" style="mask-type:luminance" maskUnits="userSpaceOnUse" x="45" y="37" width="95" height="96">
<path d="M139.308 37.7764H45.377V132.187H139.308V37.7764Z" fill="white"/>
</mask>
<g mask="url(#mask3_82_13825)">
<mask id="mask4_82_13825" style="mask-type:luminance" maskUnits="userSpaceOnUse" x="58" y="69" width="41" height="40">
<path d="M58.3149 69.4062H98.571V108.704H58.3149V69.4062Z" fill="white"/>
</mask>
<g mask="url(#mask4_82_13825)">
<mask id="mask5_82_13825" style="mask-type:luminance" maskUnits="userSpaceOnUse" x="58" y="69" width="41" height="41">
<path d="M78.5858 69.5908L98.3732 89.3782L78.174 109.579L58.3848 89.79L78.5858 69.5908Z" fill="white"/>
</mask>
<g mask="url(#mask5_82_13825)">
<mask id="mask6_82_13825" style="mask-type:luminance" maskUnits="userSpaceOnUse" x="53" y="54" width="57" height="56">
<path d="M85.2823 54.2441L109.606 78.5674L78.2735 109.9L53.9502 85.5763L85.2823 54.2441Z" fill="white"/>
</mask>
<g mask="url(#mask6_82_13825)">
<mask id="mask7_82_13825" style="mask-type:luminance" maskUnits="userSpaceOnUse" x="53" y="54" width="57" height="56">
<path d="M85.2823 54.2441L109.606 78.5674L78.2735 109.9L53.9502 85.5763L85.2823 54.2441Z" fill="white"/>
</mask>
<g mask="url(#mask7_82_13825)">
<path d="M94.893 88.0688L97.4633 85.4985C102.722 80.24 102.712 71.6736 97.4446 66.4057C92.1786 61.1378 83.6103 61.1266 78.3518 66.387L75.7815 68.9573C74.2988 67.5533 71.9663 67.5664 70.5173 69.0172L56.625 82.9095C56.449 83.0855 56.2918 83.2764 56.1551 83.4824C56.0166 83.6883 55.9005 83.9054 55.8069 84.1338C55.7115 84.3641 55.6403 84.6 55.5916 84.8433C55.543 85.0867 55.5205 85.3319 55.5205 85.579C55.5205 85.828 55.5448 86.0732 55.5935 86.3166C55.6422 86.56 55.7133 86.7959 55.8088 87.0261C55.9043 87.2545 56.0203 87.4735 56.1589 87.6794C56.2974 87.8854 56.4528 88.0763 56.6287 88.2523L75.598 107.222C75.7721 107.396 75.9631 107.553 76.1709 107.691C76.3768 107.83 76.5939 107.946 76.8242 108.042C77.0526 108.137 77.2885 108.208 77.5318 108.257C77.7752 108.305 78.0223 108.33 78.2694 108.33C78.5184 108.33 78.7636 108.305 79.007 108.259C79.2503 108.21 79.4862 108.139 79.7146 108.043C79.9449 107.95 80.162 107.834 80.3679 107.695C80.5739 107.559 80.7648 107.401 80.9408 107.225L94.8331 93.333C96.2839 91.8822 96.297 89.5496 94.893 88.0688ZM79.8363 88.3889C79.7408 88.4601 79.5068 88.6024 79.4881 88.6117C78.7599 89.0123 77.9062 89.0872 77.1181 88.8626L74.3232 93.3723C74.2726 93.4734 74.2015 93.5595 74.1098 93.6269C74.018 93.6943 73.9151 93.7373 73.8027 93.7561C73.6904 93.7766 73.58 93.7692 73.4714 93.7355C73.3628 93.7018 73.2673 93.6456 73.185 93.567L70.3414 90.7234C70.2627 90.641 70.2066 90.5455 70.1729 90.4369C70.1392 90.3284 70.1317 90.216 70.1504 90.1056C70.171 89.9933 70.2141 89.8903 70.2815 89.7986C70.3488 89.7069 70.435 89.6357 70.536 89.5852L74.9877 86.7322C74.7631 85.9441 74.8361 85.0904 75.2386 84.3622C75.2479 84.3435 75.3902 84.1095 75.4614 84.014C75.5493 83.8961 75.6429 83.7875 75.7459 83.6845C75.8919 83.5385 76.0492 83.4094 76.2195 83.2952C76.3899 83.181 76.5696 83.0855 76.7587 83.0069C76.9477 82.9282 77.1424 82.8702 77.3446 82.8309C77.5449 82.7897 77.749 82.771 77.953 82.771C78.1589 82.771 78.3611 82.7916 78.5633 82.8309C78.7636 82.8702 78.9602 82.9301 79.1493 83.0087C79.3383 83.0874 79.518 83.1847 79.6884 83.2989C79.8606 83.4131 80.0179 83.5423 80.162 83.6864C80.308 83.8324 80.4372 83.9897 80.5514 84.16C80.6656 84.3304 80.7629 84.512 80.8416 84.7011C80.9202 84.8901 80.9782 85.0867 81.0194 85.287C81.0587 85.4873 81.0793 85.6914 81.0793 85.8954C81.0793 86.1013 81.0606 86.3035 81.0194 86.5057C80.9801 86.706 80.9202 86.9026 80.8434 87.0916C80.7648 87.2807 80.6675 87.4604 80.5551 87.6308C80.441 87.8011 80.3118 87.9584 80.1658 88.1025C80.0628 88.2055 79.9524 88.301 79.8363 88.3889ZM91.6376 84.7984L79.05 72.2128L81.6147 69.6499C85.078 66.1848 90.7184 66.1886 94.191 69.6612C97.6617 73.1319 97.6655 78.7705 94.2004 82.2356L91.6376 84.7984Z" fill="black"/>
</g>
</g>
</g>
</g>
<mask id="mask8_82_13825" style="mask-type:luminance" maskUnits="userSpaceOnUse" x="47" y="51" width="79" height="79">
<path d="M47.7754 51.6748H125.412V129.312H47.7754V51.6748Z" fill="white"/>
</mask>
<g mask="url(#mask8_82_13825)">
<mask id="mask9_82_13825" style="mask-type:luminance" maskUnits="userSpaceOnUse" x="45" y="38" width="95" height="94">
<path d="M98.3752 38.2705L139.189 79.0845L86.4185 131.853L45.6064 91.0393L98.3752 38.2705Z" fill="white"/>
</mask>
<g mask="url(#mask9_82_13825)">
<mask id="mask10_82_13825" style="mask-type:luminance" maskUnits="userSpaceOnUse" x="45" y="38" width="95" height="94">
<path d="M98.3771 38.2705L139.191 79.0845L86.4205 131.853L45.6084 91.0393L98.3771 38.2705Z" fill="white"/>
</mask>
<g mask="url(#mask10_82_13825)">
<mask id="mask11_82_13825" style="mask-type:luminance" maskUnits="userSpaceOnUse" x="45" y="38" width="95" height="94">
<path d="M98.3791 38.2705L139.193 79.0845L86.4225 131.853L45.6104 91.0393L98.3791 38.2705Z" fill="white"/>
</mask>
<g mask="url(#mask11_82_13825)">
<path d="M114.423 95.0984L118.752 90.7702C127.608 81.9137 127.623 67.514 118.787 58.6781C109.949 49.8402 95.5478 49.8514 86.6912 58.708L82.3612 63.038C79.877 60.683 75.957 60.7148 73.5159 63.1559L50.1155 86.5544C49.8216 86.8502 49.5577 87.1722 49.3255 87.5185C49.0934 87.8649 48.8968 88.2318 48.7377 88.6174C48.5767 89.0012 48.4569 89.3999 48.3745 89.808C48.2922 90.218 48.251 90.6298 48.251 91.0473C48.251 91.4648 48.2903 91.8766 48.3708 92.2866C48.4532 92.6947 48.573 93.0916 48.7321 93.4772C48.8912 93.861 49.0859 94.2279 49.318 94.5742C49.5483 94.9205 49.8104 95.2406 50.1062 95.5346L81.9269 127.355C82.2208 127.651 82.5409 127.913 82.8872 128.145C83.2336 128.376 83.6005 128.57 83.9843 128.729C84.3699 128.888 84.7668 129.01 85.1749 129.091C85.5848 129.171 85.9967 129.212 86.4142 129.21C86.8316 129.21 87.2435 129.169 87.6534 129.087C88.0615 129.006 88.4603 128.885 88.844 128.726C89.2297 128.565 89.5966 128.37 89.9429 128.138C90.2911 127.906 90.6112 127.642 90.907 127.346L114.306 103.947C116.747 101.506 116.778 97.5844 114.423 95.0984ZM89.1136 95.6862C88.9545 95.806 88.5576 96.0456 88.5277 96.0625C87.3015 96.7401 85.8675 96.8656 84.5421 96.4912L79.8302 104.082C79.7872 104.166 79.7366 104.245 79.6748 104.318C79.6149 104.389 79.5457 104.455 79.4708 104.511C79.394 104.567 79.3135 104.614 79.2256 104.651C79.1394 104.687 79.0496 104.715 78.956 104.73C78.8624 104.747 78.7688 104.752 78.6752 104.747C78.5816 104.739 78.488 104.724 78.3981 104.696C78.3083 104.668 78.2222 104.631 78.1417 104.584C78.0593 104.535 77.9844 104.479 77.917 104.414L73.1452 99.6437C73.0797 99.5744 73.0235 99.4995 72.9767 99.419C72.9281 99.3366 72.8906 99.2524 72.8644 99.1607C72.8363 99.0708 72.8195 98.9791 72.8139 98.8855C72.8082 98.79 72.8139 98.6964 72.8288 98.6047C72.8457 98.5111 72.8719 98.4212 72.9093 98.3332C72.9468 98.2471 72.9936 98.1666 73.0497 98.0899C73.1059 98.0131 73.1695 97.9457 73.2426 97.8839C73.3137 97.824 73.3923 97.7716 73.4766 97.7286L80.9703 92.9193C80.5959 91.5939 80.7213 90.16 81.399 88.9357C81.4158 88.9038 81.6555 88.507 81.7753 88.3478C81.9213 88.1513 82.0823 87.9659 82.2545 87.7918C82.4997 87.5485 82.7637 87.3295 83.052 87.1385C83.3384 86.9457 83.6398 86.7847 83.9599 86.6518C84.2782 86.5189 84.6058 86.4196 84.9446 86.3523C85.2816 86.2849 85.6242 86.2512 85.9686 86.2493C86.3131 86.2493 86.6538 86.283 86.9926 86.3504C87.3296 86.4159 87.6591 86.5151 87.9773 86.6462C88.2955 86.7791 88.5969 86.9401 88.8834 87.131C89.1698 87.322 89.4356 87.5391 89.679 87.7825C89.9223 88.0258 90.1395 88.2917 90.3304 88.5781C90.5214 88.8645 90.6824 89.1659 90.8153 89.4842C90.9463 89.8043 91.0455 90.1319 91.1129 90.4688C91.1785 90.8077 91.2122 91.1484 91.2122 91.4928C91.2122 91.8373 91.1766 92.1799 91.1092 92.5168C91.0418 92.8557 90.9426 93.1833 90.8097 93.5034C90.6768 93.8216 90.5158 94.123 90.3229 94.4113C90.132 94.6978 89.913 94.9636 89.6696 95.2069C89.4955 95.3792 89.3102 95.5402 89.1136 95.6862ZM108.963 89.6133L87.8481 68.4987L92.165 64.1818C98.0001 58.3467 107.48 58.3355 113.304 64.1594C119.128 69.9832 119.113 79.4613 113.28 85.2964L108.963 89.6133Z" fill="black"/>
</g>
</g>
</g>
</g>
<mask id="mask12_82_13825" style="mask-type:luminance" maskUnits="userSpaceOnUse" x="54" y="56" width="68" height="68">
<path d="M54.4824 56.4668H121.576V123.56H54.4824V56.4668Z" fill="white"/>
</mask>
<g mask="url(#mask12_82_13825)">
<mask id="mask13_82_13825" style="mask-type:luminance" maskUnits="userSpaceOnUse" x="52" y="45" width="82" height="81">
<path d="M97.9827 45.0088L133.437 80.4631L88.0872 125.811L52.6328 90.3568L97.9827 45.0088Z" fill="white"/>
</mask>
<g mask="url(#mask13_82_13825)">
<mask id="mask14_82_13825" style="mask-type:luminance" maskUnits="userSpaceOnUse" x="52" y="45" width="82" height="81">
<path d="M97.9827 45.0088L133.437 80.4631L88.0872 125.811L52.6328 90.3568L97.9827 45.0088Z" fill="white"/>
</mask>
<g mask="url(#mask14_82_13825)">
<mask id="mask15_82_13825" style="mask-type:luminance" maskUnits="userSpaceOnUse" x="52" y="45" width="82" height="81">
<path d="M97.9827 45.0088L133.437 80.4631L88.0872 125.811L52.6328 90.3568L97.9827 45.0088Z" fill="white"/>
</mask>
<g mask="url(#mask15_82_13825)">
<path d="M112.113 94.1858L115.833 90.4661C123.443 82.8563 123.388 70.4129 115.711 62.7357C108.034 55.0585 95.5887 54.9986 87.9789 62.6103L84.2573 66.3319C82.0988 64.2857 78.7105 64.2932 76.6138 66.3918L56.5045 86.5011C56.2517 86.7538 56.0252 87.029 55.8268 87.3285C55.6265 87.6281 55.4599 87.9426 55.3232 88.2758C55.1866 88.6071 55.0836 88.9497 55.0162 89.3035C54.9469 89.6555 54.9132 90.013 54.9151 90.3725C54.917 90.7338 54.9526 91.0894 55.0237 91.4433C55.0967 91.7971 55.2015 92.1415 55.3419 92.4747C55.4805 92.808 55.6508 93.1243 55.853 93.4257C56.0533 93.7253 56.2817 94.0042 56.5382 94.2607L84.1843 121.905C84.4407 122.161 84.7178 122.39 85.0192 122.592C85.3187 122.794 85.637 122.964 85.9702 123.103C86.3034 123.242 86.646 123.348 86.9998 123.419C87.3536 123.492 87.7112 123.528 88.0706 123.53C88.4319 123.532 88.7876 123.498 89.1414 123.429C89.4952 123.361 89.8378 123.258 90.1692 123.122C90.5024 122.985 90.8169 122.818 91.1164 122.618C91.4141 122.42 91.6911 122.193 91.9438 121.94L112.053 101.831C114.152 99.7326 114.159 96.3442 112.113 94.1858ZM90.2459 94.5752C90.1092 94.6763 89.7667 94.8822 89.7405 94.8972C88.6846 95.4756 87.4454 95.5786 86.2997 95.2491L82.2636 101.786C82.228 101.859 82.1831 101.927 82.1307 101.988C82.0782 102.05 82.0202 102.104 81.9547 102.153C81.8892 102.202 81.818 102.241 81.7432 102.273C81.6683 102.305 81.5915 102.327 81.511 102.342C81.4305 102.355 81.35 102.359 81.2677 102.353C81.1872 102.348 81.1067 102.333 81.0299 102.309C80.9513 102.284 80.8764 102.252 80.8053 102.211C80.736 102.168 80.6705 102.119 80.6106 102.063L76.4659 97.9186C76.4097 97.8587 76.3611 97.7932 76.318 97.7239C76.2768 97.6528 76.245 97.5779 76.2207 97.5011C76.1963 97.4225 76.1814 97.342 76.1757 97.2615C76.1701 97.1792 76.1739 97.0987 76.1888 97.0182C76.2019 96.9377 76.2244 96.8609 76.2562 96.786C76.2881 96.7111 76.3274 96.64 76.376 96.5745C76.4247 96.5108 76.479 96.4509 76.5408 96.3985C76.6044 96.3461 76.6718 96.303 76.743 96.2656L83.1958 92.1453C82.8664 90.9977 82.9675 89.7584 83.5478 88.7045C83.5628 88.6764 83.7668 88.3357 83.8698 88.199C83.9952 88.0287 84.1337 87.8696 84.2816 87.7217C84.4913 87.512 84.7197 87.3248 84.9668 87.1601C85.2139 86.9953 85.4741 86.8568 85.7493 86.7445C86.0245 86.6303 86.3072 86.546 86.5992 86.4899C86.8912 86.4318 87.1851 86.4038 87.4828 86.4056C87.7804 86.4075 88.0762 86.4375 88.3683 86.4955C88.6603 86.5554 88.9448 86.6434 89.22 86.7576C89.4971 86.8736 89.7592 87.014 90.0063 87.1806C90.2553 87.3473 90.4855 87.5363 90.6971 87.7479C90.9086 87.9594 91.0977 88.1897 91.2643 88.4368C91.4309 88.6858 91.5713 88.9478 91.6855 89.223C91.8016 89.5001 91.8895 89.7828 91.9476 90.0767C92.0075 90.3687 92.0374 90.6626 92.0393 90.9603C92.0393 91.2598 92.0131 91.5537 91.9551 91.8457C91.8989 92.1378 91.8128 92.4205 91.7005 92.6956C91.5882 92.9708 91.4496 93.231 91.2849 93.4782C91.1201 93.7253 90.9329 93.9536 90.7233 94.1614C90.5735 94.3112 90.4144 94.4479 90.2459 94.5752ZM107.367 89.4196L89.0235 71.0756L92.7338 67.3671C97.7471 62.3519 105.939 62.3875 110.999 67.4476C116.059 72.5058 116.091 80.6959 111.078 85.7111L107.367 89.4196Z" fill="black"/>
</g>
</g>
</g>
</g>
<mask id="mask16_82_13825" style="mask-type:luminance" maskUnits="userSpaceOnUse" x="50" y="54" width="74" height="74">
<path d="M50.168 54.0713H123.492V127.395H50.168V54.0713Z" fill="white"/>
</mask>
<g mask="url(#mask16_82_13825)">
<mask id="mask17_82_13825" style="mask-type:luminance" maskUnits="userSpaceOnUse" x="47" y="41" width="90" height="89">
<path d="M97.6613 41.042L136.414 79.7949L86.5302 129.679L47.7773 90.9259L97.6613 41.042Z" fill="white"/>
</mask>
<g mask="url(#mask17_82_13825)">
<mask id="mask18_82_13825" style="mask-type:luminance" maskUnits="userSpaceOnUse" x="47" y="41" width="90" height="89">
<path d="M97.6637 41.042L136.417 79.7949L86.5326 129.679L47.7798 90.9259L97.6637 41.042Z" fill="white"/>
</mask>
<g mask="url(#mask18_82_13825)">
<mask id="mask19_82_13825" style="mask-type:luminance" maskUnits="userSpaceOnUse" x="47" y="41" width="90" height="89">
<path d="M97.6652 41.042L136.418 79.7949L86.5341 129.679L47.7812 90.9259L97.6652 41.042Z" fill="white"/>
</mask>
<g mask="url(#mask19_82_13825)">
<path d="M112.983 94.9175L117.075 90.8234C125.447 82.4536 125.432 68.8102 117.041 60.4198C108.651 52.0293 95.0074 52.0106 86.6338 60.3823L82.5415 64.4746C80.1828 62.2394 76.4687 62.2619 74.1604 64.5682L52.0406 86.6881C51.7616 86.967 51.5126 87.2703 51.2936 87.5998C51.0746 87.9274 50.8893 88.2737 50.7395 88.6387C50.5879 89.0038 50.4737 89.3801 50.3988 89.7676C50.322 90.1532 50.2827 90.5445 50.2827 90.9395C50.2846 91.3345 50.322 91.7257 50.4007 92.1132C50.4774 92.5007 50.5916 92.877 50.7432 93.2421C50.8949 93.609 51.0802 93.9553 51.3011 94.2829C51.5201 94.6124 51.771 94.9156 52.0499 95.1965L82.2626 125.409C82.5434 125.688 82.8467 125.939 83.1761 126.158C83.5037 126.379 83.8501 126.564 84.217 126.716C84.582 126.867 84.9583 126.982 85.3458 127.058C85.7333 127.137 86.1246 127.176 86.5196 127.176C86.9146 127.176 87.3058 127.139 87.6915 127.062C88.079 126.985 88.4553 126.871 88.8203 126.721C89.1853 126.57 89.5317 126.384 89.8593 126.165C90.1888 125.946 90.492 125.697 90.771 125.418L112.891 103.299C115.199 100.992 115.22 97.2763 112.983 94.9175ZM89.0056 95.4211C88.8559 95.5334 88.4815 95.7599 88.4515 95.7768C87.2927 96.4151 85.9336 96.5312 84.6775 96.1737L80.2296 103.357C80.1884 103.435 80.1397 103.51 80.0817 103.578C80.0255 103.647 79.96 103.707 79.8888 103.761C79.8158 103.813 79.7391 103.858 79.6567 103.892C79.5743 103.928 79.4901 103.952 79.4021 103.967C79.3141 103.984 79.2243 103.988 79.1363 103.982C79.0464 103.976 78.9585 103.959 78.8742 103.933C78.7881 103.907 78.7057 103.871 78.629 103.827C78.5522 103.782 78.4811 103.727 78.4156 103.666L73.8853 99.1352C73.8235 99.0716 73.7711 99.0004 73.7261 98.9237C73.6793 98.845 73.6438 98.7645 73.6176 98.6784C73.5913 98.5942 73.5764 98.5062 73.5708 98.4163C73.5651 98.3265 73.5689 98.2385 73.5839 98.1505C73.5988 98.0625 73.625 97.9764 73.6606 97.8959C73.6943 97.8136 73.7392 97.7368 73.7917 97.6638C73.8459 97.5927 73.9058 97.5271 73.9751 97.471C74.0425 97.4129 74.1174 97.3643 74.196 97.3231L81.2854 92.7834C80.9278 91.5254 81.0439 90.1663 81.6841 89.0094C81.6991 88.9794 81.9256 88.6032 82.0379 88.4534C82.1765 88.2662 82.3281 88.0921 82.4928 87.9274C82.7231 87.6971 82.974 87.4912 83.2454 87.3096C83.5168 87.128 83.8033 86.9764 84.1047 86.851C84.4061 86.7255 84.7168 86.6319 85.0369 86.5683C85.357 86.5046 85.6809 86.4728 86.0066 86.4747C86.3342 86.4747 86.6562 86.5065 86.9763 86.5701C87.2983 86.6338 87.6091 86.7293 87.9105 86.8547C88.2119 86.9801 88.4983 87.1336 88.7716 87.3152C89.0431 87.4968 89.2939 87.7027 89.5261 87.9349C89.7563 88.1651 89.9622 88.416 90.1438 88.6893C90.3254 88.9607 90.4789 89.2471 90.6043 89.5485C90.7298 89.8499 90.8252 90.1626 90.8889 90.4827C90.9525 90.8028 90.9844 91.1267 90.9862 91.4524C90.9862 91.78 90.9544 92.102 90.8908 92.4221C90.8271 92.7422 90.7335 93.053 90.6081 93.3544C90.4845 93.6576 90.331 93.9441 90.1494 94.2136C89.9679 94.4851 89.7619 94.7359 89.5317 94.9662C89.3669 95.1309 89.1928 95.2826 89.0056 95.4211ZM107.797 89.7077L87.7514 69.6601L91.8305 65.581C97.3474 60.0641 106.329 60.0735 111.859 65.6034C117.387 71.1334 117.395 80.1116 111.878 85.6266L107.797 89.7077Z" fill="black"/>
</g>
</g>
</g>
</g>
</g>
</g>
</g>
</g>
<mask id="mask20_82_13825" style="mask-type:luminance" maskUnits="userSpaceOnUse" x="28" y="69" width="43" height="45">
<path d="M28.6016 69.8867H70.7746V113.018H28.6016V69.8867Z" fill="white"/>
</mask>
<g mask="url(#mask20_82_13825)">
<mask id="mask21_82_13825" style="mask-type:luminance" maskUnits="userSpaceOnUse" x="28" y="70" width="44" height="44">
<path d="M35.8617 70.0273L71.8571 76.9838L64.8333 113.333L28.8379 106.377L35.8617 70.0273Z" fill="white"/>
</mask>
<g mask="url(#mask21_82_13825)">
<mask id="mask22_82_13825" style="mask-type:luminance" maskUnits="userSpaceOnUse" x="20" y="48" width="56" height="66">
<path d="M31.9063 48.6787L75.6668 57.1347L64.7566 113.599L20.9961 105.143L31.9063 48.6787Z" fill="white"/>
</mask>
<g mask="url(#mask22_82_13825)">
<path d="M66.6695 77.9713L67.5624 73.3511C69.3877 63.9011 63.1819 54.7225 53.7319 52.8973C44.2819 51.0702 35.1015 57.2741 33.2744 66.726L32.3814 71.3461C29.7793 70.9156 27.2932 72.6229 26.7896 75.2287L21.9636 100.2C21.9037 100.514 21.8737 100.832 21.8756 101.153C21.8774 101.475 21.9093 101.791 21.9748 102.105C22.0384 102.42 22.132 102.725 22.2575 103.021C22.381 103.317 22.5327 103.597 22.7124 103.863C22.8921 104.129 23.0961 104.374 23.3245 104.601C23.5529 104.826 23.8 105.028 24.0677 105.204C24.3354 105.38 24.6181 105.529 24.9157 105.651C25.2115 105.771 25.5185 105.863 25.833 105.924L59.8628 112.499C60.1792 112.561 60.4974 112.591 60.8175 112.589C61.1376 112.587 61.4559 112.553 61.7704 112.49C62.0849 112.426 62.39 112.33 62.6858 112.207C62.9816 112.081 63.2605 111.93 63.5263 111.75C63.7922 111.57 64.0393 111.366 64.2639 111.138C64.4904 110.911 64.6907 110.662 64.8686 110.395C65.0446 110.127 65.1943 109.844 65.3141 109.549C65.4358 109.251 65.5275 108.944 65.5874 108.629L70.4135 83.6585C70.9171 81.0526 69.2435 78.5422 66.6695 77.9713ZM50.7797 89.2353C50.7292 89.3813 50.5794 89.7033 50.5682 89.7276C50.0796 90.6861 49.2184 91.3843 48.2113 91.7157L48.4827 98.5785C48.4921 98.6497 48.4921 98.7227 48.4846 98.7938C48.4771 98.8668 48.4603 98.938 48.4359 99.0054C48.4116 99.0746 48.3816 99.1383 48.3423 99.2001C48.3011 99.2618 48.2562 99.3161 48.2038 99.3667C48.1514 99.4172 48.0933 99.4603 48.0316 99.4977C47.9679 99.5352 47.9024 99.5632 47.8331 99.5857C47.7639 99.6063 47.6927 99.6194 47.6197 99.6231C47.5486 99.6288 47.4756 99.625 47.4044 99.6138L42.3013 98.6272C42.2301 98.6122 42.1627 98.5879 42.0972 98.5561C42.0317 98.5261 41.9699 98.4868 41.9138 98.4419C41.8576 98.3951 41.8071 98.3445 41.7621 98.2865C41.7191 98.2285 41.6816 98.1667 41.6517 98.1012C41.6217 98.0338 41.5993 97.9664 41.5862 97.8953C41.5731 97.8241 41.5674 97.7511 41.5693 97.6781C41.5731 97.607 41.5843 97.5358 41.6049 97.4647C41.6236 97.3954 41.6517 97.328 41.6873 97.2644L44.3923 90.9781C43.5799 90.2948 43.0407 89.327 42.9453 88.2543C42.9415 88.2281 42.9247 87.8724 42.9322 87.7189C42.9396 87.5317 42.9621 87.3445 42.9977 87.1592C43.0482 86.899 43.1231 86.6462 43.2223 86.3991C43.3234 86.1539 43.447 85.9218 43.593 85.699C43.739 85.4781 43.9037 85.274 44.0909 85.085C44.2781 84.8959 44.4803 84.7274 44.6993 84.5795C44.9202 84.4298 45.1524 84.3043 45.3957 84.2014C45.641 84.0984 45.8937 84.0217 46.152 83.9674C46.4123 83.9149 46.6743 83.8869 46.9402 83.885C47.206 83.885 47.4681 83.9093 47.7283 83.958C47.9885 84.0086 48.2412 84.0853 48.4883 84.1845C48.7336 84.2856 48.9657 84.4073 49.1885 84.5533C49.4094 84.6993 49.6134 84.8659 49.8025 85.0531C49.9916 85.2403 50.1601 85.4425 50.3079 85.6634C50.4558 85.8825 50.5813 86.1146 50.6842 86.3579C50.7872 86.6032 50.8658 86.8559 50.9182 87.1161C50.9725 87.3745 50.9987 87.6384 51.0006 87.9024C51.0025 88.1682 50.9763 88.4303 50.9257 88.6905C50.8901 88.8758 50.8415 89.0574 50.7797 89.2353ZM60.8175 76.8274L38.2371 72.4637L39.1282 67.8567C40.3319 61.6303 46.3729 57.5437 52.6012 58.7474C58.8294 59.9511 62.9123 65.994 61.7086 72.2204L60.8175 76.8274Z" fill="#A9C5E7"/>
</g>
</g>
</g>
<mask id="mask23_82_13825" style="mask-type:luminance" maskUnits="userSpaceOnUse" x="17" y="28" width="83" height="102">
<path d="M17.1006 28.1924H99.5298V129.791H17.1006V28.1924Z" fill="white"/>
</mask>
<g mask="url(#mask23_82_13825)">
<mask id="mask24_82_13825" style="mask-type:luminance" maskUnits="userSpaceOnUse" x="16" y="22" width="92" height="109">
<path d="M34.3695 22.0137L107.774 36.198L89.497 130.775L16.0947 116.59L34.3695 22.0137Z" fill="white"/>
</mask>
<g mask="url(#mask24_82_13825)">
<mask id="mask25_82_13825" style="mask-type:luminance" maskUnits="userSpaceOnUse" x="16" y="22" width="92" height="109">
<path d="M34.3704 22.0137L107.775 36.198L89.4979 130.775L16.0957 116.59L34.3704 22.0137Z" fill="white"/>
</mask>
<g mask="url(#mask25_82_13825)">
<mask id="mask26_82_13825" style="mask-type:luminance" maskUnits="userSpaceOnUse" x="16" y="22" width="92" height="109">
<path d="M34.3724 22.0137L107.777 36.198L89.4999 130.775L16.0977 116.59L34.3724 22.0137Z" fill="white"/>
</mask>
<g mask="url(#mask26_82_13825)">
<path d="M92.8446 71.2254L94.3441 63.4659C97.4124 47.5948 86.9721 32.1768 71.0767 29.1067C55.1832 26.0347 39.7445 36.4488 36.6763 52.3236L35.1768 60.0831C30.8019 59.3586 26.6197 62.2247 25.7755 66.5997L17.6714 108.537C17.619 108.801 17.5816 109.067 17.5573 109.334C17.531 109.602 17.5198 109.87 17.5217 110.139C17.5236 110.407 17.5385 110.675 17.5666 110.942C17.5947 111.21 17.634 111.476 17.6883 111.738C17.7426 112.002 17.81 112.262 17.8886 112.519C17.9691 112.775 18.0608 113.028 18.1657 113.275C18.2686 113.524 18.3866 113.765 18.5139 114.001C18.6412 114.239 18.7816 114.467 18.9332 114.69C19.083 114.913 19.244 115.128 19.4162 115.334C19.5884 115.542 19.77 115.74 19.9609 115.929C20.1519 116.119 20.3522 116.296 20.5619 116.467C20.7715 116.635 20.9868 116.794 21.2115 116.942C21.4361 117.09 21.6682 117.227 21.906 117.354C22.1437 117.48 22.3871 117.592 22.6361 117.693C22.8869 117.796 23.1396 117.884 23.398 117.961C23.6563 118.037 23.9165 118.101 24.1805 118.153L81.4159 129.213C81.6798 129.264 81.9475 129.301 82.2152 129.328C82.4829 129.352 82.7506 129.363 83.0202 129.363C83.2898 129.361 83.5575 129.346 83.8252 129.318C84.0929 129.29 84.3587 129.251 84.6227 129.197C84.8866 129.142 85.1468 129.077 85.4033 128.996C85.6598 128.918 85.9125 128.826 86.1615 128.721C86.4086 128.618 86.652 128.502 86.8878 128.373C87.1237 128.246 87.354 128.107 87.5767 127.955C87.7995 127.806 88.0148 127.645 88.2226 127.472C88.4285 127.302 88.6269 127.12 88.816 126.93C89.0051 126.739 89.1848 126.538 89.3552 126.33C89.5236 126.121 89.6828 125.906 89.8307 125.681C89.9804 125.456 90.1171 125.226 90.2425 124.988C90.3679 124.75 90.4803 124.507 90.5832 124.258C90.6843 124.009 90.7742 123.756 90.849 123.498C90.9258 123.242 90.9913 122.98 91.0419 122.716L99.1459 80.7784C99.992 76.4016 97.1765 72.1839 92.8446 71.2254ZM66.127 90.1367C66.0428 90.38 65.7938 90.9229 65.7713 90.9641C64.9495 92.5722 63.5025 93.7441 61.8083 94.3001L62.2688 105.826C62.2838 105.948 62.2856 106.068 62.2725 106.189C62.2594 106.311 62.2332 106.429 62.192 106.545C62.1508 106.659 62.0984 106.768 62.0329 106.871C61.9655 106.974 61.8888 107.067 61.8008 107.152C61.7128 107.236 61.6154 107.309 61.5106 107.371C61.4058 107.432 61.2935 107.481 61.1774 107.517C61.0613 107.552 60.9415 107.575 60.8198 107.582C60.6982 107.59 60.5765 107.584 60.4567 107.563L51.8753 105.905C51.7555 105.88 51.6394 105.841 51.5308 105.787C51.4204 105.734 51.3174 105.671 51.2219 105.594C51.1265 105.517 51.0422 105.429 50.9673 105.334C50.8925 105.236 50.8307 105.133 50.7801 105.021C50.7296 104.911 50.694 104.795 50.6697 104.675C50.6472 104.555 50.6379 104.435 50.6435 104.312C50.6491 104.19 50.6678 104.07 50.7015 103.954C50.7352 103.836 50.7801 103.724 50.8401 103.617L55.3853 93.0589C54.0206 91.9114 53.1127 90.2846 52.9517 88.4855C52.9461 88.4406 52.9161 87.8434 52.9274 87.587C52.9423 87.2706 52.9798 86.9561 53.0397 86.6453C53.1239 86.2073 53.2494 85.7823 53.4178 85.3705C53.5863 84.9586 53.7922 84.5655 54.0393 84.1949C54.2846 83.8223 54.5635 83.4779 54.878 83.1615C55.1906 82.8451 55.5314 82.5624 55.902 82.3116C56.2708 82.0626 56.6602 81.8529 57.072 81.6788C57.4839 81.5066 57.907 81.3756 58.3431 81.2857C58.7812 81.1977 59.223 81.1509 59.6685 81.1491C60.1141 81.1472 60.5559 81.1884 60.9939 81.2726C61.432 81.3569 61.8569 81.4842 62.2707 81.6526C62.6844 81.8211 63.0756 82.027 63.4482 82.2723C63.8207 82.5194 64.1651 82.7983 64.4834 83.1109C64.7998 83.4254 65.0824 83.7662 65.3333 84.1349C65.5823 84.5037 65.7938 84.895 65.9679 85.305C66.1401 85.7149 66.2712 86.138 66.361 86.5761C66.4509 87.0123 66.4958 87.4522 66.4977 87.8977C66.5014 88.3433 66.4603 88.7851 66.3741 89.2212C66.3142 89.5339 66.2319 89.8371 66.127 90.1367ZM83.0052 69.301L45.0274 61.9626L46.5232 54.2255C48.5431 43.7684 58.7026 36.9074 69.1784 38.9311C79.6543 40.9566 86.5209 51.1067 84.4991 61.5639L83.0052 69.301Z" fill="black"/>
</g>
</g>
</g>
</g>
<mask id="mask27_82_13825" style="mask-type:luminance" maskUnits="userSpaceOnUse" x="23" y="34" width="73" height="89">
<path d="M23.8115 34.9014H95.2182V122.602H23.8115V34.9014Z" fill="white"/>
</mask>
<g mask="url(#mask27_82_13825)">
<mask id="mask28_82_13825" style="mask-type:luminance" maskUnits="userSpaceOnUse" x="23" y="29" width="80" height="95">
<path d="M38.842 29.5342L102.366 41.8091L86.5432 123.682L23.0215 111.407L38.842 29.5342Z" fill="white"/>
</mask>
<g mask="url(#mask28_82_13825)">
<mask id="mask29_82_13825" style="mask-type:luminance" maskUnits="userSpaceOnUse" x="23" y="29" width="80" height="95">
<path d="M38.8415 29.5342L102.365 41.8091L86.5427 123.682L23.021 111.407L38.8415 29.5342Z" fill="white"/>
</mask>
<g mask="url(#mask29_82_13825)">
<mask id="mask30_82_13825" style="mask-type:luminance" maskUnits="userSpaceOnUse" x="23" y="29" width="80" height="95">
<path d="M38.841 29.5342L102.365 41.8091L86.5422 123.682L23.0205 111.407L38.841 29.5342Z" fill="white"/>
</mask>
<g mask="url(#mask30_82_13825)">
<path d="M89.4413 72.1324L90.7405 65.4156C93.3951 51.6768 84.3607 38.3311 70.6069 35.6728C56.8512 33.0145 43.4905 42.0302 40.836 55.7728L39.5368 62.4896C35.7516 61.8644 32.1329 64.3448 31.401 68.1319L24.3846 104.436C24.2966 104.893 24.2536 105.355 24.2554 105.821C24.2592 106.289 24.306 106.75 24.3996 107.207C24.4932 107.664 24.6317 108.107 24.8114 108.538C24.993 108.968 25.2139 109.376 25.476 109.762C25.7381 110.15 26.0339 110.505 26.3671 110.835C26.6984 111.162 27.0597 111.454 27.4491 111.713C27.8385 111.969 28.2503 112.186 28.6828 112.362C29.1133 112.538 29.5589 112.671 30.0175 112.759L79.5477 122.331C80.0063 122.419 80.4687 122.462 80.9367 122.46C81.4028 122.458 81.8652 122.41 82.322 122.316C82.7807 122.222 83.2243 122.086 83.6549 121.904C84.0836 121.724 84.4936 121.503 84.8792 121.241C85.2667 120.981 85.6243 120.685 85.9519 120.352C86.2814 120.021 86.5734 119.661 86.8299 119.272C87.0882 118.883 87.3054 118.473 87.4813 118.04C87.6573 117.61 87.7902 117.164 87.8782 116.705L94.8927 80.4012C95.6247 76.6122 93.1891 72.9617 89.4413 72.1324ZM66.3199 88.5052C66.2469 88.7149 66.0297 89.1847 66.011 89.2203C65.2997 90.6131 64.0473 91.6277 62.5815 92.1089L62.9783 102.087C62.9933 102.192 62.9933 102.296 62.9821 102.401C62.9709 102.506 62.9484 102.609 62.9128 102.708C62.8773 102.807 62.8323 102.901 62.7743 102.991C62.7163 103.079 62.6507 103.159 62.574 103.234C62.4972 103.307 62.4149 103.369 62.3231 103.423C62.2314 103.478 62.1359 103.519 62.0348 103.551C61.9338 103.581 61.8308 103.599 61.726 103.607C61.6192 103.614 61.5144 103.609 61.4115 103.59L53.9851 102.156C53.8803 102.134 53.7811 102.1 53.6856 102.053C53.5901 102.008 53.5021 101.952 53.4198 101.885C53.3374 101.819 53.2644 101.744 53.1989 101.66C53.1352 101.578 53.0809 101.488 53.0379 101.39C52.9948 101.295 52.963 101.194 52.9424 101.091C52.9218 100.986 52.9143 100.883 52.9199 100.776C52.9237 100.672 52.9405 100.569 52.9686 100.466C52.9986 100.364 53.0379 100.267 53.0903 100.175L57.0234 91.0343C55.8422 90.0421 55.0578 88.6344 54.9174 87.0768C54.9136 87.0375 54.8874 86.519 54.8968 86.2981C54.9099 86.0229 54.9417 85.7514 54.9941 85.4819C55.0671 85.1037 55.1757 84.7368 55.3217 84.3793C55.4659 84.0217 55.6456 83.6829 55.859 83.3609C56.0706 83.0389 56.312 82.7412 56.5835 82.4679C56.8549 82.1927 57.1507 81.9475 57.4708 81.7322C57.791 81.5169 58.1279 81.3335 58.4836 81.1837C58.8393 81.0339 59.2062 80.9216 59.5844 80.843C59.9625 80.7662 60.3444 80.7269 60.73 80.7251C61.1157 80.7232 61.4994 80.7587 61.8776 80.8318C62.2576 80.9048 62.6245 81.0152 62.9821 81.1594C63.3396 81.3054 63.6804 81.4851 64.0023 81.6966C64.3243 81.91 64.622 82.1515 64.8972 82.423C65.1705 82.6944 65.4157 82.9902 65.6329 83.3085C65.8482 83.6286 66.0316 83.9655 66.1814 84.3212C66.3311 84.6769 66.4435 85.0438 66.5221 85.422C66.5988 85.8001 66.6382 86.1801 66.64 86.5658C66.6419 86.9514 66.6063 87.3333 66.5333 87.7133C66.4809 87.9829 66.4098 88.2469 66.3199 88.5052ZM80.9255 70.4682L48.062 64.1164L49.3556 57.4183C51.1041 48.3652 59.897 42.4271 68.9632 44.1774C78.0276 45.9297 83.9694 54.717 82.2209 63.7701L80.9255 70.4682Z" fill="black"/>
</g>
</g>
</g>
</g>
<mask id="mask31_82_13825" style="mask-type:luminance" maskUnits="userSpaceOnUse" x="19" y="31" width="79" height="97">
<path d="M19.4971 31.5469H97.6131V127.874H19.4971V31.5469Z" fill="white"/>
</mask>
<g mask="url(#mask31_82_13825)">
<mask id="mask32_82_13825" style="mask-type:luminance" maskUnits="userSpaceOnUse" x="18" y="25" width="88" height="104">
<path d="M35.6197 25.5078L105.493 39.0108L88.1039 128.999L18.2305 115.498L35.6197 25.5078Z" fill="white"/>
</mask>
<g mask="url(#mask32_82_13825)">
<mask id="mask33_82_13825" style="mask-type:luminance" maskUnits="userSpaceOnUse" x="18" y="25" width="88" height="104">
<path d="M35.6197 25.5078L105.493 39.0108L88.1039 128.999L18.2305 115.498L35.6197 25.5078Z" fill="white"/>
</mask>
<g mask="url(#mask33_82_13825)">
<path d="M91.1373 72.293L92.5638 64.9134C95.4804 49.8192 85.5699 35.1594 70.4757 32.2428C55.3815 29.3261 40.7179 39.2329 37.7994 54.3308L36.3748 61.7104C32.2189 61.0233 28.2465 63.749 27.4434 67.9105L19.7362 107.794C19.6876 108.045 19.6501 108.298 19.6276 108.552C19.6033 108.807 19.5921 109.061 19.594 109.318C19.5958 109.573 19.6089 109.827 19.6351 110.082C19.6613 110.336 19.7007 110.589 19.7512 110.838C19.8036 111.089 19.8673 111.336 19.9421 111.581C20.017 111.825 20.105 112.064 20.2042 112.3C20.3034 112.536 20.4139 112.766 20.5356 112.991C20.6573 113.216 20.7883 113.435 20.9325 113.646C21.0747 113.858 21.2282 114.062 21.3911 114.258C21.554 114.455 21.7281 114.642 21.9097 114.822C22.0912 115.001 22.2803 115.174 22.4787 115.335C22.6772 115.496 22.8831 115.645 23.0965 115.786C23.3099 115.928 23.529 116.057 23.7555 116.177C23.982 116.297 24.2122 116.404 24.45 116.501C24.6859 116.596 24.9274 116.683 25.1726 116.754C25.416 116.827 25.6649 116.888 25.9158 116.937L80.2683 127.439C80.5191 127.488 80.7718 127.523 81.0264 127.548C81.281 127.572 81.5356 127.583 81.7921 127.581C82.0467 127.58 82.3013 127.566 82.5559 127.54C82.8105 127.514 83.0632 127.475 83.3122 127.422C83.563 127.372 83.8102 127.308 84.0554 127.233C84.2988 127.158 84.5384 127.07 84.7742 126.971C85.0101 126.872 85.2404 126.762 85.465 126.64C85.6897 126.518 85.9087 126.385 86.1202 126.243C86.3318 126.099 86.5358 125.947 86.7324 125.782C86.929 125.62 87.118 125.447 87.2977 125.266C87.4775 125.084 87.6478 124.893 87.8088 124.695C87.9698 124.496 88.1196 124.292 88.2618 124.079C88.4022 123.865 88.5314 123.645 88.6512 123.42C88.771 123.193 88.8777 122.961 88.9751 122.725C89.0706 122.488 89.1567 122.248 89.2297 122.003C89.3027 121.758 89.3626 121.51 89.4113 121.26L97.1184 81.3742C97.9234 77.2126 95.2501 73.2028 91.1373 72.293ZM65.7582 90.2832C65.6796 90.5134 65.4418 91.0301 65.4212 91.0694C64.6406 92.6007 63.2646 93.7146 61.6566 94.2444L62.0909 105.205C62.104 105.319 62.1059 105.435 62.0927 105.55C62.0815 105.666 62.0553 105.778 62.0179 105.887C61.9786 105.997 61.928 106.1 61.8644 106.197C61.8026 106.295 61.7296 106.384 61.6453 106.465C61.5611 106.545 61.4694 106.615 61.3701 106.673C61.2691 106.733 61.1642 106.778 61.0538 106.813C60.9433 106.847 60.8291 106.867 60.7131 106.875C60.597 106.882 60.4828 106.877 60.3686 106.858L52.2197 105.282C52.1055 105.258 51.9969 105.22 51.8921 105.17C51.7872 105.121 51.6899 105.059 51.6 104.986C51.5102 104.913 51.4297 104.831 51.3585 104.739C51.2874 104.647 51.2275 104.548 51.1807 104.441C51.132 104.336 51.0983 104.226 51.0759 104.112C51.0534 104 51.0459 103.883 51.0497 103.767C51.0553 103.651 51.074 103.539 51.1058 103.427C51.1376 103.314 51.1807 103.21 51.2369 103.107L55.5556 93.065C54.2602 91.9755 53.399 90.4273 53.2455 88.7163C53.2418 88.6732 53.2118 88.106 53.2249 87.8607C53.2381 87.5593 53.2736 87.2617 53.3298 86.9659C53.4103 86.5503 53.5301 86.146 53.6911 85.7528C53.8502 85.3616 54.0468 84.9891 54.2808 84.6352C54.5129 84.2814 54.7787 83.9538 55.0764 83.6524C55.374 83.351 55.6979 83.0833 56.0498 82.8456C56.3999 82.6078 56.7706 82.4075 57.1618 82.2428C57.5512 82.078 57.9537 81.9545 58.3693 81.8684C58.7849 81.7841 59.2042 81.7411 59.6273 81.7373C60.0504 81.7355 60.4697 81.7748 60.8872 81.8553C61.3028 81.9358 61.7071 82.0556 62.0984 82.2147C62.4915 82.3757 62.864 82.5723 63.216 82.8063C63.5698 83.0384 63.8974 83.3042 64.1988 83.6019C64.5002 83.9014 64.7698 84.2253 65.0056 84.5753C65.2434 84.9273 65.4437 85.2979 65.6084 85.6873C65.7713 86.0786 65.8967 86.4811 65.981 86.8967C66.0671 87.3104 66.1101 87.7297 66.112 88.1547C66.1139 88.5777 66.0746 88.9971 65.9941 89.4127C65.936 89.7084 65.8593 89.9986 65.7582 90.2832ZM81.7921 70.4659L45.7275 63.4963L47.1502 56.1373C49.0709 46.1913 58.7212 39.6654 68.6692 41.5879C78.6171 43.5105 85.1355 53.1608 83.2148 63.1069L81.7921 70.4659Z" fill="white"/>
</g>
</g>
</g>
</g>
<defs>
<clipPath id="clip0_82_13825">
<rect width="125.74" height="155" fill="white"/>
</clipPath>
</defs>
</svg>
