<svg width="34" height="33" viewBox="0 0 34 33" fill="none" xmlns="http://www.w3.org/2000/svg">
<path d="M13.9361 10.268L15.2864 11.6664C16.6368 13.0647 18.0112 13.0887 19.4095 11.7383L20.8078 10.388C22.2062 9.0376 22.2302 7.66324 20.8798 6.2649L19.5295 4.86656C18.1791 3.46821 16.8047 3.44422 15.4064 4.79459L14.008 6.14495C12.6097 7.49532 12.5857 8.86967 13.9361 10.268Z" stroke="#004040" stroke-width="1.45794" stroke-miterlimit="10" stroke-linecap="round" stroke-linejoin="round"/>
<path d="M22.0386 18.6581L23.389 20.0565C24.7393 21.4548 26.1137 21.4788 27.512 20.1285L28.9104 18.7781C30.3087 17.4277 30.3327 16.0534 28.9824 14.655L27.632 13.2567C26.2816 11.8584 24.9073 11.8344 23.5089 13.1847L22.1106 14.5351C20.7122 15.8855 20.6883 17.2598 22.0386 18.6581Z" stroke="#004040" stroke-width="1.45794" stroke-miterlimit="10" stroke-linecap="round" stroke-linejoin="round"/>
<path d="M13.648 26.7602L14.9984 28.1585C16.3487 29.5569 17.7231 29.5809 19.1214 28.2305L20.5198 26.8801C21.9181 25.5298 21.9421 24.1554 20.5917 22.7571L19.2414 21.3587C17.891 19.9604 16.5166 19.9364 15.1183 21.2868L13.72 22.6371C12.3216 23.9875 12.2976 25.3619 13.648 26.7602Z" stroke="#004040" stroke-width="1.45794" stroke-miterlimit="10" stroke-linecap="round" stroke-linejoin="round"/>
<path d="M5.54546 18.3706L6.89582 19.7689C8.24618 21.1672 9.62054 21.1912 11.0189 19.8409L12.4172 18.4905C13.8156 17.1401 13.8396 15.7658 12.4892 14.3674L11.1388 12.9691C9.78846 11.5708 8.41411 11.5468 7.01577 12.8971L5.61742 14.2475C4.21908 15.5979 4.19509 16.9722 5.54546 18.3706Z" stroke="#004040" stroke-width="1.45794" stroke-miterlimit="10" stroke-linecap="round" stroke-linejoin="round"/>
</svg>
