<svg xmlns="http://www.w3.org/2000/svg" width="194" height="190" fill="none" viewBox="0 0 194 190"><g clip-path="url(#a)"><mask id="b" width="100" height="92" x="49" y="95" maskUnits="userSpaceOnUse" style="mask-type:luminance"><path fill="#fff" d="M148.093 120.005 71.519 95.124l-21.65 66.63 76.575 24.881z"/></mask><g mask="url(#b)"><mask id="c" width="769" height="770" x="-279" y="-263" maskUnits="userSpaceOnUse" style="mask-type:luminance"><path fill="#000" fill-opacity=".13" d="m489.834-73.62-579.98-188.447-188.447 579.98 579.98 188.447z"/></mask><g mask="url(#c)"><mask id="d" width="79" height="69" x="60" y="113" maskUnits="userSpaceOnUse" style="mask-type:luminance"><path fill="#fff" d="m138.612 133.966-63.15-20.519-15.348 47.238 63.15 20.519z"/></mask><g mask="url(#d)"><mask id="e" width="74" height="63" x="62" y="116" maskUnits="userSpaceOnUse" style="mask-type:luminance"><path fill="#fff" d="m76.146 116.418 59.668 19.388-13.733 42.265-59.668-19.388z"/></mask><g mask="url(#e)"><mask id="f" width="76" height="66" x="61" y="114" maskUnits="userSpaceOnUse" style="mask-type:luminance"><path fill="#fff" d="m79.082 114.869 57.51 24.375-17.189 40.556-57.51-24.373z"/></mask><g mask="url(#f)"><mask id="g" width="61" height="48" x="69" y="123" maskUnits="userSpaceOnUse" style="mask-type:luminance"><path fill="#fff" d="M107.775 127.028c-15.848-6.715-32.543-3.081-37.29 8.119-4.747 11.198 4.254 25.723 20.1 32.439 15.85 6.718 32.543 3.084 37.291-8.116 4.747-11.201-4.252-25.725-20.101-32.442"/></mask><g mask="url(#g)"><mask id="h" width="74" height="63" x="62" y="116" maskUnits="userSpaceOnUse" style="mask-type:luminance"><path fill="#fff" d="m135.811 135.806-59.668-19.388-13.733 42.266 59.668 19.387z"/></mask><g mask="url(#h)"><mask id="i" width="74" height="63" x="62" y="116" maskUnits="userSpaceOnUse" style="mask-type:luminance"><path fill="#fff" d="m76.143 116.418 59.668 19.388-13.733 42.265-59.668-19.387z"/></mask><g mask="url(#i)"><mask id="j" width="76" height="66" x="61" y="114" maskUnits="userSpaceOnUse" style="mask-type:luminance"><path fill="#fff" d="m79.08 114.869 57.509 24.374-17.189 40.556-57.51-24.372z"/></mask><g mask="url(#j)"><mask id="k" width="61" height="48" x="69" y="123" maskUnits="userSpaceOnUse" style="mask-type:luminance"><path fill="#fff" d="M107.772 127.029c-15.847-6.715-32.543-3.082-37.29 8.119-4.747 11.198 4.254 25.723 20.1 32.439 15.85 6.718 32.544 3.084 37.291-8.116 4.747-11.201-4.251-25.725-20.101-32.442"/></mask><g mask="url(#k)"><path fill="#000" d="m79.079 114.869 57.351 24.306-17.19 40.558-57.351-24.306z"/></g></g></g></g></g></g></g></g></g><mask id="l" width="75" height="63" x="60" y="112" maskUnits="userSpaceOnUse" style="mask-type:luminance"><path fill="#fff" d="m74.629 112.626 59.669 19.388-13.895 42.762-59.669-19.387z"/></mask><g mask="url(#l)"><mask id="m" width="76" height="67" x="60" y="110" maskUnits="userSpaceOnUse" style="mask-type:luminance"><path fill="#fff" d="m60.09 150.264 18.726-39.763 56.537 26.627-18.727 39.763z"/></mask><g mask="url(#m)"><mask id="n" width="61" height="49" x="67" y="119" maskUnits="userSpaceOnUse" style="mask-type:luminance"><path fill="#fff" d="M69.45 130.382c-5.17 10.979 3.26 25.825 18.83 33.158s32.384 4.377 37.554-6.604c5.171-10.979-3.259-25.825-18.828-33.158-15.57-7.333-32.385-4.377-37.557 6.604"/></mask><g mask="url(#n)"><mask id="o" width="75" height="63" x="60" y="112" maskUnits="userSpaceOnUse" style="mask-type:luminance"><path fill="#fff" d="m134.292 132.013-59.669-19.388-13.894 42.763 59.668 19.387z"/></mask><g mask="url(#o)"><mask id="p" width="75" height="63" x="60" y="112" maskUnits="userSpaceOnUse" style="mask-type:luminance"><path fill="#fff" d="m74.622 112.625 59.669 19.388-13.895 42.762-59.668-19.387z"/></mask><g mask="url(#p)"><mask id="q" width="76" height="67" x="60" y="110" maskUnits="userSpaceOnUse" style="mask-type:luminance"><path fill="#fff" d="m60.085 150.264 18.726-39.763 56.537 26.627-18.726 39.763z"/></mask><g mask="url(#q)"><mask id="r" width="61" height="49" x="67" y="119" maskUnits="userSpaceOnUse" style="mask-type:luminance"><path fill="#fff" d="M69.445 130.382c-5.169 10.979 3.261 25.825 18.83 33.158 15.57 7.333 32.385 4.377 37.555-6.604 5.171-10.979-3.259-25.825-18.828-33.158-15.57-7.333-32.385-4.377-37.557 6.604"/></mask><g mask="url(#r)"><path fill="#fff" d="M60.084 150.263 78.81 110.5l56.383 26.553-18.727 39.763z"/></g></g></g></g></g></g></g><mask id="s" width="75" height="63" x="60" y="112" maskUnits="userSpaceOnUse" style="mask-type:luminance"><path fill="#fff" d="m74.629 112.626 59.669 19.388-13.895 42.762-59.669-19.387z"/></mask><g mask="url(#s)"><mask id="t" width="76" height="67" x="60" y="110" maskUnits="userSpaceOnUse" style="mask-type:luminance"><path fill="#fff" d="m60.089 150.264 18.826-39.971 56.301 26.516-18.825 39.971z"/></mask><g mask="url(#t)"><mask id="u" width="76" height="68" x="60" y="110" maskUnits="userSpaceOnUse" style="mask-type:luminance"><path fill="#fff" d="m60.089 150.261 18.744-39.8 56.783 26.741-18.745 39.802z"/></mask><g mask="url(#u)"><mask id="v" width="61" height="49" x="67" y="119" maskUnits="userSpaceOnUse" style="mask-type:luminance"><path fill="#fff" d="M69.449 130.381c-5.17 10.979 3.259 25.825 18.828 33.158 15.57 7.331 32.385 4.376 37.555-6.605 5.171-10.978-3.259-25.825-18.829-33.156-15.57-7.333-32.382-4.377-37.554 6.603"/></mask><g mask="url(#v)"><path stroke="#000" stroke-width="2.353" d="M69.45 130.382c-5.17 10.979 3.259 25.825 18.828 33.158 15.571 7.331 32.385 4.376 37.555-6.605 5.171-10.979-3.259-25.825-18.829-33.156-15.57-7.333-32.382-4.378-37.554 6.603Z"/></g></g></g></g><mask id="w" width="75" height="63" x="63" y="106" maskUnits="userSpaceOnUse" style="mask-type:luminance"><path fill="#fff" d="m77.725 106.485 59.668 19.388-13.894 42.763-59.669-19.388z"/></mask><g mask="url(#w)"><mask id="x" width="76" height="67" x="63" y="104" maskUnits="userSpaceOnUse" style="mask-type:luminance"><path fill="#fff" d="m63.038 144.282 18.726-39.762 56.535 26.626-18.726 39.763z"/></mask><g mask="url(#x)"><mask id="y" width="61" height="49" x="70" y="113" maskUnits="userSpaceOnUse" style="mask-type:luminance"><path fill="#fff" d="M72.4 124.402c-5.172 10.98 3.257 25.826 18.828 33.157 15.569 7.333 32.384 4.377 37.556-6.602 5.17-10.981-3.261-25.825-18.831-33.158s-32.384-4.377-37.554 6.603"/></mask><g mask="url(#y)"><mask id="z" width="75" height="63" x="63" y="106" maskUnits="userSpaceOnUse" style="mask-type:luminance"><path fill="#fff" d="m137.394 125.872-59.668-19.388-13.895 42.763 59.669 19.388z"/></mask><g mask="url(#z)"><mask id="A" width="75" height="63" x="63" y="106" maskUnits="userSpaceOnUse" style="mask-type:luminance"><path fill="#fff" d="m77.726 106.484 59.668 19.388-13.894 42.763-59.669-19.388z"/></mask><g mask="url(#A)"><mask id="B" width="76" height="67" x="63" y="104" maskUnits="userSpaceOnUse" style="mask-type:luminance"><path fill="#fff" d="m63.039 144.282 18.726-39.763 56.535 26.626-18.726 39.763z"/></mask><g mask="url(#B)"><mask id="C" width="61" height="49" x="70" y="113" maskUnits="userSpaceOnUse" style="mask-type:luminance"><path fill="#fff" d="M72.4 124.401c-5.172 10.98 3.258 25.826 18.829 33.158 15.569 7.332 32.384 4.376 37.555-6.603 5.17-10.981-3.26-25.825-18.83-33.158s-32.384-4.377-37.554 6.603"/></mask><g mask="url(#C)"><path fill="#fff" d="m63.038 144.281 18.726-39.762 56.38 26.554-18.726 39.763z"/></g></g></g></g></g></g></g><mask id="D" width="75" height="63" x="63" y="106" maskUnits="userSpaceOnUse" style="mask-type:luminance"><path fill="#fff" d="m77.725 106.485 59.668 19.388-13.894 42.763-59.669-19.388z"/></mask><g mask="url(#D)"><mask id="E" width="76" height="67" x="63" y="104" maskUnits="userSpaceOnUse" style="mask-type:luminance"><path fill="#fff" d="m63.038 144.283 18.823-39.969 56.301 26.516-18.824 39.969z"/></mask><g mask="url(#E)"><mask id="F" width="76" height="68" x="63" y="104" maskUnits="userSpaceOnUse" style="mask-type:luminance"><path fill="#fff" d="m63.039 144.283 18.743-39.802 56.783 26.743-18.745 39.8z"/></mask><g mask="url(#F)"><mask id="G" width="61" height="49" x="70" y="113" maskUnits="userSpaceOnUse" style="mask-type:luminance"><path fill="#fff" d="M72.4 124.399c-5.172 10.98 3.26 25.825 18.829 33.158 15.567 7.332 32.382 4.375 37.554-6.603 5.17-10.981-3.261-25.826-18.829-33.158-15.57-7.333-32.384-4.376-37.554 6.603"/></mask><g mask="url(#G)"><path stroke="#000" stroke-width="2.353" d="M72.401 124.399c-5.172 10.981 3.259 25.825 18.828 33.158s32.383 4.376 37.554-6.603c5.17-10.981-3.26-25.825-18.828-33.157-15.57-7.333-32.385-4.377-37.554 6.602Z"/></g></g></g></g><mask id="H" width="55" height="46" x="72" y="115" maskUnits="userSpaceOnUse" style="mask-type:luminance"><path fill="#fff" d="m83.083 115.373 43.757 14.218-10.178 31.326-43.758-14.218z"/></mask><g mask="url(#H)"><mask id="I" width="56" height="50" x="72" y="113" maskUnits="userSpaceOnUse" style="mask-type:luminance"><path fill="#fff" d="m72.335 143.102 13.746-29.187 41.502 19.547-13.747 29.187z"/></mask><g mask="url(#I)"><mask id="J" width="44" height="36" x="78" y="120" maskUnits="userSpaceOnUse" style="mask-type:luminance"><path fill="#fff" d="M79.205 128.508c-3.796 8.06 2.393 18.959 13.822 24.342 11.43 5.382 23.772 3.212 27.568-4.849s-2.392-18.957-13.821-24.341c-11.43-5.382-23.773-3.213-27.57 4.848"/></mask><g mask="url(#J)"><mask id="K" width="55" height="46" x="72" y="115" maskUnits="userSpaceOnUse" style="mask-type:luminance"><path fill="#fff" d="m126.836 129.593-43.757-14.218-10.178 31.326 43.757 14.218z"/></mask><g mask="url(#K)"><mask id="L" width="55" height="46" x="72" y="115" maskUnits="userSpaceOnUse" style="mask-type:luminance"><path fill="#fff" d="m83.078 115.374 43.757 14.218-10.178 31.326L72.9 146.7z"/></mask><g mask="url(#L)"><mask id="M" width="56" height="50" x="72" y="113" maskUnits="userSpaceOnUse" style="mask-type:luminance"><path fill="#fff" d="m72.33 143.103 13.746-29.187 41.502 19.547-13.746 29.187z"/></mask><g mask="url(#M)"><mask id="N" width="44" height="36" x="78" y="120" maskUnits="userSpaceOnUse" style="mask-type:luminance"><path fill="#fff" d="M79.205 128.511c-3.796 8.06 2.393 18.959 13.822 24.342 11.43 5.382 23.772 3.212 27.568-4.849s-2.392-18.957-13.821-24.341c-11.43-5.382-23.773-3.213-27.57 4.848"/></mask><g mask="url(#N)"><path fill="#000" d="m72.331 143.104 13.746-29.187 41.388 19.493-13.746 29.187z"/></g></g></g></g></g></g></g><mask id="O" width="55" height="46" x="72" y="115" maskUnits="userSpaceOnUse" style="mask-type:luminance"><path fill="#fff" d="m83.083 115.373 43.757 14.218-10.178 31.326-43.758-14.218z"/></mask><g mask="url(#O)"><mask id="P" width="56" height="50" x="72" y="113" maskUnits="userSpaceOnUse" style="mask-type:luminance"><path fill="#fff" d="m72.335 143.102 13.763-29.225 41.259 19.432-13.764 29.224z"/></mask><g mask="url(#P)"><mask id="Q" width="56" height="50" x="72" y="113" maskUnits="userSpaceOnUse" style="mask-type:luminance"><path fill="#fff" d="m72.334 143.102 13.759-29.213 41.679 19.628-13.76 29.215z"/></mask><g mask="url(#Q)"><mask id="R" width="44" height="36" x="78" y="120" maskUnits="userSpaceOnUse" style="mask-type:luminance"><path fill="#fff" d="M79.204 128.509c-3.796 8.058 2.392 18.955 13.82 24.339 11.429 5.382 23.77 3.212 27.566-4.847 3.795-8.061-2.392-18.957-13.82-24.339-11.43-5.382-23.771-3.212-27.566 4.847"/></mask><g mask="url(#R)"><path stroke="#000" stroke-width="2.353" d="M79.206 128.509c-3.795 8.059 2.392 18.955 13.821 24.34 11.428 5.381 23.77 3.211 27.565-4.848 3.796-8.06-2.392-18.956-13.819-24.338-11.43-5.382-23.772-3.212-27.567 4.846Z"/></g></g></g></g><path stroke="#000" stroke-width="1.425" d="m69.655 143.561 3.064-5.286m1.309 13.902 4.372-4.268m4.094 10.777 3.68-4.88m6.329 10.878 2.149-5.72m8.018 7.461 1.322-5.966m9.507 5.265 1.321-5.966"/><mask id="S" width="50" height="43" x="76" y="118" maskUnits="userSpaceOnUse" style="mask-type:luminance"><path fill="#fff" d="m85.919 118.494 39.779 12.925-9.371 28.84-39.779-12.925z"/></mask><g mask="url(#S)"><mask id="T" width="51" height="46" x="76" y="116" maskUnits="userSpaceOnUse" style="mask-type:luminance"><path fill="#fff" d="m76.126 143.768 12.63-26.819 37.401 17.615-12.63 26.819z"/></mask><g mask="url(#T)"><mask id="U" width="40" height="33" x="81" y="123" maskUnits="userSpaceOnUse" style="mask-type:luminance"><path fill="#fff" d="M82.444 130.359c-3.487 7.407 2.036 17.343 12.335 22.194s21.475 2.778 24.964-4.627c3.488-7.407-2.034-17.342-12.333-22.191-10.301-4.853-21.477-2.78-24.966 4.624"/></mask><g mask="url(#U)"><mask id="V" width="50" height="43" x="76" y="118" maskUnits="userSpaceOnUse" style="mask-type:luminance"><path fill="#fff" d="m125.701 131.42-39.78-12.925-9.37 28.84 39.779 12.925z"/></mask><g mask="url(#V)"><mask id="W" width="50" height="43" x="76" y="118" maskUnits="userSpaceOnUse" style="mask-type:luminance"><path fill="#fff" d="m85.923 118.492 39.779 12.925-9.371 28.84-39.779-12.925z"/></mask><g mask="url(#W)"><mask id="X" width="51" height="46" x="76" y="116" maskUnits="userSpaceOnUse" style="mask-type:luminance"><path fill="#fff" d="m76.13 143.765 12.63-26.818 37.401 17.615-12.631 26.818z"/></mask><g mask="url(#X)"><mask id="Y" width="40" height="33" x="81" y="123" maskUnits="userSpaceOnUse" style="mask-type:luminance"><path fill="#fff" d="M82.447 130.358c-3.487 7.407 2.036 17.342 12.335 22.194 10.299 4.849 21.475 2.777 24.963-4.627 3.489-7.407-2.033-17.342-12.333-22.192-10.3-4.852-21.476-2.78-24.965 4.625"/></mask><g mask="url(#Y)"><path fill="#a9c5e7" d="m76.132 143.767 12.63-26.819 37.295 17.566-12.629 26.819z"/></g></g></g></g></g></g></g><mask id="Z" width="23" height="22" x="90" y="128" maskUnits="userSpaceOnUse" style="mask-type:luminance"><path fill="#fff" d="m95.749 128.834 16.906 5.493-5.008 15.415-16.906-5.494z"/></mask><g mask="url(#Z)"><mask id="aa" width="23" height="23" x="90" y="128" maskUnits="userSpaceOnUse" style="mask-type:luminance"><path fill="#fff" d="m90.388 137.793 8.682-9.443 13.637 12.54-8.681 9.441z"/></mask><g mask="url(#aa)"><mask id="ab" width="23" height="23" x="90" y="128" maskUnits="userSpaceOnUse" style="mask-type:luminance"><path fill="#fff" d="m90.388 137.793 8.682-9.443 13.637 12.54-8.681 9.441z"/></mask><g mask="url(#ab)"><path fill="#fff" d="M104.628 135.706c-1.007.126-2.17.599-3.485 1.499l-2.285-2.102a5.9 5.9 0 0 1 2.367-.986c.125-.047.25-.094.286-.225a.32.32 0 0 0 .069-.34l-.52-2.344c-.048-.123-.095-.248-.223-.285-.088-.08-.257-.075-.342-.071a9.5 9.5 0 0 0-4.054 2.029l-.483-.445a.473.473 0 0 0-.675.03l-.93 1.01a.474.474 0 0 0 .028.675l.485.445c-.76 1.003-1.137 2.117-1.132 3.257-.03 1.27.48 2.387 1.493 3.317 1.01.93 2.04 1.31 3.132 1.179 1.01-.127 2.088-.595 3.362-1.452l2.373 2.182c-.862.585-1.905.925-3.167 1.062-.125.048-.25.095-.33.183a.33.33 0 0 0-.07.342l.313 2.395c.01.253.27.41.522.4a10 10 0 0 0 5.193-2.12l.834.769c.176.16.473.19.675-.03l.93-1.01a.47.47 0 0 0-.03-.675l-.833-.767c.84-1.093 1.217-2.205 1.25-3.39.032-1.27-.439-2.432-1.451-3.362-1.095-.925-2.167-1.344-3.302-1.17m.968 3.888c.262.242.402.532.375.914-.03.298-.143.598-.298.943l-1.977-1.819c.539-.233.873-.333 1.042-.34.333-.098.593.059.858.302m-8.205-1.218c-.264-.243-.36-.493-.333-.873q-.017-.38.22-.77l1.846 1.697c-.455.23-.748.285-.918.292-.337.013-.552-.104-.815-.346"/></g></g></g></g><mask id="ac" width="22" height="30" x="56" y="76" maskUnits="userSpaceOnUse" style="mask-type:luminance"><path fill="#fff" d="m63.9 76.958 13.798 4.483-7.755 23.868-13.799-4.483z"/></mask><g mask="url(#ac)"><path fill="#000" d="m67.987 78.29 8.86 2.877-6.02 5.767 4.6 1.495-16.593 13.194 6.977-11.42-5.624-1.828z"/></g><mask id="ad" width="20" height="26" x="57" y="78" maskUnits="userSpaceOnUse" style="mask-type:luminance"><path fill="#fff" d="m64.457 78.614 11.934 3.878-6.665 20.511-11.933-3.878z"/></mask><g mask="url(#ad)"><path fill="#fff" d="m67.96 79.755 7.588 2.466-5.155 4.939 3.941 1.28-14.213 11.301 5.975-9.784-4.815-1.564z"/></g><mask id="ae" width="23" height="29" x="157" y="82" maskUnits="userSpaceOnUse" style="mask-type:luminance"><path fill="#fff" d="m165.511 82.52 13.798 4.483-7.755 23.867-13.798-4.483z"/></mask><g mask="url(#ae)"><path fill="#000" d="m169.598 83.848 8.859 2.878-6.018 5.769 4.599 1.494-16.593 13.192 6.977-11.42-5.623-1.827z"/></g><mask id="af" width="19" height="25" x="159" y="84" maskUnits="userSpaceOnUse" style="mask-type:luminance"><path fill="#fff" d="m165.946 84.548 11.934 3.877-6.632 20.41-11.933-3.877z"/></mask><g mask="url(#af)"><path fill="#fff" d="m169.448 85.686 7.589 2.465-5.154 4.94 3.941 1.28-14.214 11.301 5.976-9.781-4.817-1.565z"/></g><mask id="ag" width="22" height="29" x="120" y="39" maskUnits="userSpaceOnUse" style="mask-type:luminance"><path fill="#fff" d="m127.923 39.258 13.798 4.483-7.748 23.848-13.799-4.483z"/></mask><g mask="url(#ag)"><path fill="#000" d="m132.011 40.588 8.861 2.88-6.02 5.765 4.602 1.495-16.594 13.194 6.975-11.42-5.621-1.827z"/></g><mask id="ah" width="20" height="26" x="121" y="40" maskUnits="userSpaceOnUse" style="mask-type:luminance"><path fill="#fff" d="m128.483 40.914 11.934 3.878-6.664 20.51-11.934-3.877z"/></mask><g mask="url(#ah)"><path fill="#fff" d="m131.985 42.054 7.589 2.466-5.154 4.939 3.939 1.28-14.212 11.3 5.975-9.783-4.815-1.564z"/></g><mask id="ai" width="99" height="92" x="55" y="88" maskUnits="userSpaceOnUse" style="mask-type:luminance"><path fill="#fff" d="m153.667 113.018-76.575-24.88-21.65 66.63 76.575 24.88z"/></mask><g mask="url(#ai)"><mask id="aj" width="74" height="63" x="66" y="105" maskUnits="userSpaceOnUse" style="mask-type:luminance"><path fill="#fff" d="m80.7 105.803 59.171 19.226-13.895 42.762-59.171-19.226z"/></mask><g mask="url(#aj)"><mask id="ak" width="77" height="68" x="65" y="103" maskUnits="userSpaceOnUse" style="mask-type:luminance"><path fill="#fff" d="m65.777 143.509 18.726-39.762 56.537 26.626-18.726 39.763z"/></mask><g mask="url(#ak)"><mask id="al" width="61" height="49" x="73" y="112" maskUnits="userSpaceOnUse" style="mask-type:luminance"><path fill="#fff" d="M75.138 123.627c-5.171 10.979 3.259 25.825 18.83 33.159s32.383 4.376 37.555-6.605c5.171-10.979-3.259-25.825-18.829-33.158s-32.384-4.376-37.556 6.604"/></mask><g mask="url(#al)"><mask id="am" width="74" height="63" x="66" y="105" maskUnits="userSpaceOnUse" style="mask-type:luminance"><path fill="#fff" d="M139.872 125.029 80.7 105.803l-13.894 42.762 59.171 19.226z"/></mask><g mask="url(#am)"><mask id="an" width="74" height="63" x="66" y="105" maskUnits="userSpaceOnUse" style="mask-type:luminance"><path fill="#fff" d="m80.7 105.803 59.172 19.226-13.895 42.762-59.171-19.226z"/></mask><g mask="url(#an)"><mask id="ao" width="77" height="68" x="65" y="103" maskUnits="userSpaceOnUse" style="mask-type:luminance"><path fill="#fff" d="m65.777 143.509 18.726-39.762 56.537 26.626-18.726 39.763z"/></mask><g mask="url(#ao)"><mask id="ap" width="61" height="49" x="73" y="112" maskUnits="userSpaceOnUse" style="mask-type:luminance"><path fill="#fff" d="M75.139 123.627c-5.171 10.979 3.259 25.825 18.83 33.159s32.383 4.376 37.555-6.605c5.171-10.979-3.259-25.825-18.829-33.158s-32.384-4.376-37.556 6.604"/></mask><g mask="url(#ap)"><path fill="#fff" d="m65.777 143.509 18.726-39.763 56.383 26.553-18.728 39.762z"/></g></g></g></g></g></g></g><mask id="aq" width="74" height="63" x="66" y="105" maskUnits="userSpaceOnUse" style="mask-type:luminance"><path fill="#fff" d="m80.7 105.803 59.171 19.226-13.895 42.762-59.171-19.226z"/></mask><g mask="url(#aq)"><mask id="ar" width="76" height="68" x="65" y="103" maskUnits="userSpaceOnUse" style="mask-type:luminance"><path fill="#fff" d="M65.777 143.51 84.6 103.539l56.302 26.516-18.824 39.971z"/></mask><g mask="url(#ar)"><mask id="as" width="77" height="68" x="65" y="103" maskUnits="userSpaceOnUse" style="mask-type:luminance"><path fill="#fff" d="m65.778 143.509 18.745-39.8 56.783 26.742-18.745 39.801z"/></mask><g mask="url(#as)"><mask id="at" width="61" height="49" x="73" y="112" maskUnits="userSpaceOnUse" style="mask-type:luminance"><path fill="#fff" d="M75.138 123.632c-5.171 10.978 3.259 25.824 18.83 33.155 15.569 7.333 32.381 4.378 37.553-6.602 5.171-10.979-3.259-25.825-18.828-33.158-15.57-7.331-32.383-4.376-37.555 6.605"/></mask><g mask="url(#at)"><path stroke="#000" stroke-width="2.353" d="M75.139 123.63c-5.172 10.979 3.258 25.825 18.829 33.156 15.569 7.333 32.381 4.377 37.553-6.603 5.172-10.979-3.258-25.825-18.828-33.158-15.57-7.331-32.382-4.376-37.555 6.605Z"/></g></g></g></g><mask id="au" width="74" height="62" x="69" y="100" maskUnits="userSpaceOnUse" style="mask-type:luminance"><path fill="#fff" d="m83.63 100.158 59.172 19.226-13.732 42.266-59.172-19.226z"/></mask><g mask="url(#au)"><mask id="av" width="76" height="68" x="68" y="97" maskUnits="userSpaceOnUse" style="mask-type:luminance"><path fill="#fff" d="M68.713 137.526 87.44 97.763l56.537 26.627-18.727 39.762z"/></mask><g mask="url(#av)"><mask id="aw" width="60" height="48" x="76" y="107" maskUnits="userSpaceOnUse" style="mask-type:luminance"><path fill="#fff" d="M78.079 117.646c-5.17 10.981 3.26 25.825 18.83 33.158s32.385 4.377 37.554-6.603c5.172-10.98-3.258-25.826-18.828-33.157-15.57-7.333-32.385-4.377-37.556 6.602"/></mask><g mask="url(#aw)"><mask id="ax" width="74" height="62" x="69" y="100" maskUnits="userSpaceOnUse" style="mask-type:luminance"><path fill="#fff" d="M142.801 119.386 83.63 100.16l-13.733 42.266 59.172 19.226z"/></mask><g mask="url(#ax)"><mask id="ay" width="74" height="62" x="69" y="100" maskUnits="userSpaceOnUse" style="mask-type:luminance"><path fill="#fff" d="m83.63 100.16 59.172 19.226-13.732 42.266-59.172-19.226z"/></mask><g mask="url(#ay)"><mask id="az" width="76" height="68" x="68" y="97" maskUnits="userSpaceOnUse" style="mask-type:luminance"><path fill="#fff" d="m68.715 137.528 18.727-39.763 56.537 26.627-18.727 39.762z"/></mask><g mask="url(#az)"><mask id="aA" width="60" height="48" x="76" y="107" maskUnits="userSpaceOnUse" style="mask-type:luminance"><path fill="#fff" d="M78.076 117.646c-5.17 10.981 3.26 25.825 18.83 33.158s32.385 4.377 37.554-6.603c5.172-10.98-3.258-25.826-18.828-33.157-15.57-7.333-32.385-4.377-37.556 6.602"/></mask><g mask="url(#aA)"><path fill="#fff" d="M68.713 137.529 87.44 97.766l56.382 26.555-18.726 39.761z"/></g></g></g></g></g></g></g><mask id="aB" width="74" height="62" x="69" y="100" maskUnits="userSpaceOnUse" style="mask-type:luminance"><path fill="#fff" d="m83.63 100.158 59.172 19.226-13.732 42.266-59.172-19.226z"/></mask><g mask="url(#aB)"><mask id="aC" width="76" height="68" x="68" y="97" maskUnits="userSpaceOnUse" style="mask-type:luminance"><path fill="#fff" d="m68.714 137.524 18.823-39.969 56.303 26.516-18.824 39.97z"/></mask><g mask="url(#aC)"><mask id="aD" width="77" height="68" x="68" y="97" maskUnits="userSpaceOnUse" style="mask-type:luminance"><path fill="#fff" d="m68.712 137.523 18.745-39.8 56.783 26.742-18.745 39.8z"/></mask><g mask="url(#aD)"><mask id="aE" width="60" height="48" x="76" y="107" maskUnits="userSpaceOnUse" style="mask-type:luminance"><path fill="#fff" d="M78.077 117.644c-5.17 10.981 3.258 25.825 18.828 33.158s32.383 4.375 37.554-6.603c5.172-10.981-3.259-25.825-18.828-33.158-15.57-7.333-32.383-4.376-37.554 6.603"/></mask><g mask="url(#aE)"><path stroke="#000" stroke-width="2.353" d="M78.076 117.643c-5.17 10.981 3.259 25.824 18.828 33.157 15.57 7.333 32.383 4.376 37.554-6.602 5.172-10.981-3.259-25.825-18.828-33.158-15.57-7.333-32.383-4.376-37.554 6.603Z"/></g></g></g></g><mask id="aF" width="55" height="47" x="78" y="108" maskUnits="userSpaceOnUse" style="mask-type:luminance"><path fill="#fff" d="m88.654 108.388 44.255 14.379-10.34 31.823-44.255-14.379z"/></mask><g mask="url(#aF)"><mask id="aG" width="56" height="49" x="78" y="107" maskUnits="userSpaceOnUse" style="mask-type:luminance"><path fill="#fff" d="m78.019 136.347 13.746-29.188 41.502 19.545-13.747 29.189z"/></mask><g mask="url(#aG)"><mask id="aH" width="45" height="37" x="83" y="113" maskUnits="userSpaceOnUse" style="mask-type:luminance"><path fill="#fff" d="M84.894 121.754c-3.796 8.06 2.392 18.957 13.82 24.341 11.431 5.382 23.774 3.213 27.57-4.848s-2.393-18.957-13.822-24.342c-11.43-5.382-23.772-3.212-27.568 4.849"/></mask><g mask="url(#aH)"><mask id="aI" width="55" height="47" x="78" y="108" maskUnits="userSpaceOnUse" style="mask-type:luminance"><path fill="#fff" d="M132.913 122.769 88.659 108.39l-10.34 31.823 44.254 14.379z"/></mask><g mask="url(#aI)"><mask id="aJ" width="55" height="47" x="78" y="108" maskUnits="userSpaceOnUse" style="mask-type:luminance"><path fill="#fff" d="m88.661 108.391 44.254 14.379-10.34 31.823-44.254-14.379z"/></mask><g mask="url(#aJ)"><mask id="aK" width="56" height="49" x="78" y="107" maskUnits="userSpaceOnUse" style="mask-type:luminance"><path fill="#fff" d="m78.024 136.35 13.747-29.188 41.502 19.545-13.747 29.189z"/></mask><g mask="url(#aK)"><mask id="aL" width="45" height="37" x="83" y="113" maskUnits="userSpaceOnUse" style="mask-type:luminance"><path fill="#fff" d="M84.9 121.757c-3.796 8.06 2.392 18.957 13.82 24.341 11.431 5.382 23.774 3.213 27.57-4.848s-2.393-18.957-13.822-24.342c-11.43-5.382-23.772-3.212-27.568 4.849"/></mask><g mask="url(#aL)"><path fill="#000" d="m78.025 136.351 13.747-29.188 41.388 19.493-13.747 29.187z"/></g></g></g></g></g></g></g><mask id="aM" width="55" height="47" x="78" y="108" maskUnits="userSpaceOnUse" style="mask-type:luminance"><path fill="#fff" d="m88.654 108.388 44.255 14.379-10.34 31.823-44.255-14.379z"/></mask><g mask="url(#aM)"><mask id="aN" width="56" height="49" x="78" y="107" maskUnits="userSpaceOnUse" style="mask-type:luminance"><path fill="#fff" d="m78.019 136.345 13.764-29.224 41.26 19.432-13.765 29.224z"/></mask><g mask="url(#aN)"><mask id="aO" width="56" height="49" x="78" y="107" maskUnits="userSpaceOnUse" style="mask-type:luminance"><path fill="#fff" d="m78.018 136.346 13.757-29.215 41.681 19.629-13.76 29.216z"/></mask><g mask="url(#aO)"><mask id="aP" width="45" height="37" x="83" y="113" maskUnits="userSpaceOnUse" style="mask-type:luminance"><path fill="#fff" d="M84.891 121.753c-3.795 8.059 2.392 18.955 13.82 24.339 11.429 5.382 23.771 3.212 27.566-4.847 3.796-8.061-2.391-18.957-13.821-24.339-11.428-5.382-23.77-3.212-27.565 4.847"/></mask><g mask="url(#aP)"><path stroke="#000" stroke-width="2.353" d="M84.89 121.753c-3.796 8.059 2.392 18.955 13.819 24.339 11.43 5.382 23.771 3.212 27.567-4.847s-2.392-18.957-13.822-24.339c-11.427-5.381-23.77-3.211-27.564 4.847Z"/></g></g></g></g><path stroke="#000" stroke-width="1.425" d="m75.336 136.803 3.064-5.286m1.309 13.903 4.374-4.267m4.094 10.776 3.677-4.88m6.331 10.878 2.15-5.72m8.018 7.461 1.32-5.966m9.509 5.265 1.32-5.966"/><mask id="aQ" width="50" height="43" x="82" y="111" maskUnits="userSpaceOnUse" style="mask-type:luminance"><path fill="#fff" d="m91.488 111.507 39.779 12.925-9.37 28.84-39.78-12.925z"/></mask><g mask="url(#aQ)"><mask id="aR" width="51" height="45" x="81" y="110" maskUnits="userSpaceOnUse" style="mask-type:luminance"><path fill="#fff" d="m81.807 137.01 12.63-26.819 37.399 17.615-12.631 26.818z"/></mask><g mask="url(#aR)"><mask id="aS" width="40" height="33" x="87" y="116" maskUnits="userSpaceOnUse" style="mask-type:luminance"><path fill="#fff" d="M88.125 123.602c-3.489 7.406 2.034 17.341 12.333 22.193 10.301 4.85 21.477 2.778 24.966-4.627 3.486-7.407-2.036-17.342-12.335-22.192s-21.475-2.779-24.964 4.626"/></mask><g mask="url(#aS)"><mask id="aT" width="50" height="43" x="82" y="111" maskUnits="userSpaceOnUse" style="mask-type:luminance"><path fill="#fff" d="m131.268 124.432-39.779-12.925-9.37 28.84 39.779 12.925z"/></mask><g mask="url(#aT)"><mask id="aU" width="50" height="43" x="82" y="111" maskUnits="userSpaceOnUse" style="mask-type:luminance"><path fill="#fff" d="m91.49 111.507 39.779 12.925-9.37 28.84-39.78-12.925z"/></mask><g mask="url(#aU)"><mask id="aV" width="51" height="45" x="81" y="110" maskUnits="userSpaceOnUse" style="mask-type:luminance"><path fill="#fff" d="m81.809 137.01 12.63-26.819 37.399 17.615-12.631 26.818z"/></mask><g mask="url(#aV)"><mask id="aW" width="40" height="33" x="87" y="116" maskUnits="userSpaceOnUse" style="mask-type:luminance"><path fill="#fff" d="M88.127 123.602c-3.489 7.406 2.034 17.341 12.333 22.193 10.301 4.85 21.477 2.778 24.965-4.627 3.487-7.407-2.035-17.342-12.335-22.192-10.298-4.851-21.475-2.779-24.963 4.626"/></mask><g mask="url(#aW)"><path fill="#a9c5e7" d="m81.81 137.01 12.631-26.819 37.295 17.566-12.631 26.818z"/></g></g></g></g></g></g></g><mask id="aX" width="23" height="21" x="96" y="122" maskUnits="userSpaceOnUse" style="mask-type:luminance"><path fill="#fff" d="m101.16 122.345 17.404 5.654-4.847 14.918-17.404-5.655z"/></mask><g mask="url(#aX)"><mask id="aY" width="23" height="23" x="96" y="121" maskUnits="userSpaceOnUse" style="mask-type:luminance"><path fill="#fff" d="m96.064 131.034 8.681-9.443 13.64 12.54-8.681 9.441z"/></mask><g mask="url(#aY)"><mask id="aZ" width="23" height="23" x="96" y="121" maskUnits="userSpaceOnUse" style="mask-type:luminance"><path fill="#fff" d="m96.065 131.034 8.681-9.443 13.64 12.54-8.681 9.441z"/></mask><g mask="url(#aZ)"><path fill="#fff" d="M110.307 128.95c-1.007.126-2.172.597-3.484 1.498l-2.285-2.102a5.9 5.9 0 0 1 2.365-.986c.125-.047.25-.095.287-.224a.33.33 0 0 0 .07-.34l-.52-2.345c-.048-.125-.096-.248-.223-.285-.089-.082-.257-.075-.342-.07a9.5 9.5 0 0 0-4.055 2.028l-.482-.444a.47.47 0 0 0-.675.029l-.93 1.01a.47.47 0 0 0 .028.675l.482.445c-.76 1.003-1.134 2.118-1.129 3.258-.032 1.267.48 2.387 1.491 3.316 1.012.93 2.041 1.31 3.134 1.178 1.008-.126 2.087-.593 3.36-1.451l2.373 2.182c-.862.585-1.903.925-3.165 1.063-.125.047-.25.095-.33.183a.32.32 0 0 0-.07.34l.31 2.396c.011.253.273.411.525.4a10 10 0 0 0 5.192-2.12l.835.769a.47.47 0 0 0 .675-.029l.927-1.011a.47.47 0 0 0-.027-.675l-.835-.767c.842-1.092 1.216-2.205 1.251-3.39.033-1.269-.44-2.432-1.45-3.362-1.095-.925-2.17-1.345-3.303-1.169m.966 3.887c.265.243.403.532.377.915-.029.295-.144.597-.299.94l-1.977-1.817c.539-.233.874-.333 1.042-.34.334-.098.595.06.857.302m-8.204-1.219c-.263-.242-.358-.492-.333-.872q-.014-.38.222-.77l1.845 1.697c-.454.23-.747.285-.917.292-.337.013-.552-.104-.817-.347"/></g></g></g></g><mask id="ba" width="100" height="93" x="60" y="81" maskUnits="userSpaceOnUse" style="mask-type:luminance"><path fill="#fff" d="m159.071 106.529-76.575-24.88-21.65 66.63 76.576 24.88z"/></mask><g mask="url(#ba)"><mask id="bb" width="75" height="63" x="71" y="99" maskUnits="userSpaceOnUse" style="mask-type:luminance"><path fill="#fff" d="m85.603 99.148 59.668 19.388-13.894 42.763-59.669-19.388z"/></mask><g mask="url(#bb)"><mask id="bc" width="76" height="67" x="71" y="97" maskUnits="userSpaceOnUse" style="mask-type:luminance"><path fill="#fff" d="M71.074 136.9 89.8 97.137l56.537 26.627-18.726 39.76z"/></mask><g mask="url(#bc)"><mask id="bd" width="61" height="49" x="78" y="106" maskUnits="userSpaceOnUse" style="mask-type:luminance"><path fill="#fff" d="M80.437 117.018c-5.171 10.979 3.258 25.825 18.828 33.158 15.572 7.333 32.385 4.376 37.557-6.604 5.171-10.979-3.259-25.825-18.829-33.158s-32.384-4.377-37.556 6.604"/></mask><g mask="url(#bd)"><mask id="be" width="75" height="63" x="71" y="99" maskUnits="userSpaceOnUse" style="mask-type:luminance"><path fill="#fff" d="M145.269 118.536 85.601 99.148l-13.895 42.763 59.669 19.388z"/></mask><g mask="url(#be)"><mask id="bf" width="75" height="63" x="71" y="99" maskUnits="userSpaceOnUse" style="mask-type:luminance"><path fill="#fff" d="m85.6 99.148 59.668 19.387-13.894 42.763-59.669-19.388z"/></mask><g mask="url(#bf)"><mask id="bg" width="76" height="67" x="71" y="97" maskUnits="userSpaceOnUse" style="mask-type:luminance"><path fill="#fff" d="m71.07 136.899 18.727-39.763 56.537 26.627-18.725 39.761z"/></mask><g mask="url(#bg)"><mask id="bh" width="61" height="49" x="78" y="106" maskUnits="userSpaceOnUse" style="mask-type:luminance"><path fill="#fff" d="M80.435 117.017c-5.171 10.979 3.259 25.825 18.828 33.158 15.572 7.333 32.385 4.376 37.557-6.604 5.171-10.979-3.259-25.825-18.829-33.158s-32.384-4.377-37.556 6.604"/></mask><g mask="url(#bh)"><path fill="#fff" d="m71.07 136.899 18.727-39.763 56.381 26.553-18.726 39.762z"/></g></g></g></g></g></g></g><mask id="bi" width="75" height="63" x="71" y="99" maskUnits="userSpaceOnUse" style="mask-type:luminance"><path fill="#fff" d="m85.603 99.148 59.668 19.388-13.894 42.763-59.669-19.388z"/></mask><g mask="url(#bi)"><mask id="bj" width="76" height="68" x="71" y="96" maskUnits="userSpaceOnUse" style="mask-type:luminance"><path fill="#fff" d="m71.074 136.899 18.824-39.97 56.303 26.515-18.824 39.97z"/></mask><g mask="url(#bj)"><mask id="bk" width="76" height="67" x="71" y="97" maskUnits="userSpaceOnUse" style="mask-type:luminance"><path fill="#fff" d="M71.076 136.898 89.82 97.099l56.782 26.741-18.743 39.802z"/></mask><g mask="url(#bk)"><mask id="bl" width="61" height="49" x="78" y="106" maskUnits="userSpaceOnUse" style="mask-type:luminance"><path fill="#fff" d="M80.438 117.019c-5.171 10.979 3.259 25.825 18.829 33.156 15.57 7.333 32.383 4.376 37.554-6.603s-3.259-25.824-18.828-33.157c-15.571-7.331-32.383-4.376-37.555 6.604"/></mask><g mask="url(#bl)"><path stroke="#000" stroke-width="2.353" d="M80.437 117.019c-5.17 10.979 3.259 25.825 18.83 33.156 15.569 7.333 32.382 4.376 37.553-6.603s-3.259-25.825-18.828-33.158c-15.57-7.331-32.383-4.376-37.555 6.605Z"/></g></g></g></g><mask id="bm" width="75" height="63" x="74" y="93" maskUnits="userSpaceOnUse" style="mask-type:luminance"><path fill="#fff" d="m88.54 93.506 59.668 19.387-13.733 42.266-59.669-19.388z"/></mask><g mask="url(#bm)"><mask id="bn" width="76" height="67" x="74" y="91" maskUnits="userSpaceOnUse" style="mask-type:luminance"><path fill="#fff" d="M74.013 130.916 92.74 91.154l56.537 26.627-18.726 39.762z"/></mask><g mask="url(#bn)"><mask id="bo" width="61" height="49" x="81" y="100" maskUnits="userSpaceOnUse" style="mask-type:luminance"><path fill="#fff" d="M83.378 111.036c-5.171 10.981 3.26 25.825 18.831 33.158 15.569 7.333 32.384 4.377 37.554-6.602 5.171-10.981-3.258-25.827-18.828-33.16-15.57-7.331-32.385-4.377-37.557 6.604"/></mask><g mask="url(#bo)"><mask id="bp" width="75" height="63" x="74" y="93" maskUnits="userSpaceOnUse" style="mask-type:luminance"><path fill="#fff" d="M148.207 112.893 88.538 93.506 74.805 135.77l59.669 19.388z"/></mask><g mask="url(#bp)"><mask id="bq" width="75" height="63" x="74" y="93" maskUnits="userSpaceOnUse" style="mask-type:luminance"><path fill="#fff" d="m88.54 93.506 59.668 19.387-13.733 42.266-59.669-19.388z"/></mask><g mask="url(#bq)"><mask id="br" width="76" height="67" x="74" y="91" maskUnits="userSpaceOnUse" style="mask-type:luminance"><path fill="#fff" d="M74.014 130.916 92.74 91.154l56.537 26.627-18.726 39.762z"/></mask><g mask="url(#br)"><mask id="bs" width="61" height="49" x="81" y="100" maskUnits="userSpaceOnUse" style="mask-type:luminance"><path fill="#fff" d="M83.38 111.036c-5.171 10.981 3.26 25.825 18.831 33.158 15.569 7.333 32.384 4.377 37.554-6.602 5.171-10.981-3.259-25.827-18.828-33.16-15.57-7.331-32.385-4.377-37.557 6.604"/></mask><g mask="url(#bs)"><path fill="#fff" d="m74.017 130.917 18.726-39.762 56.382 26.555-18.725 39.76z"/></g></g></g></g></g></g></g><mask id="bt" width="75" height="63" x="74" y="93" maskUnits="userSpaceOnUse" style="mask-type:luminance"><path fill="#fff" d="m88.54 93.506 59.668 19.387-13.733 42.266-59.669-19.388z"/></mask><g mask="url(#bt)"><mask id="bu" width="76" height="68" x="74" y="90" maskUnits="userSpaceOnUse" style="mask-type:luminance"><path fill="#fff" d="m74.014 130.913 18.823-39.97 56.303 26.515-18.824 39.971z"/></mask><g mask="url(#bu)"><mask id="bv" width="76" height="67" x="74" y="91" maskUnits="userSpaceOnUse" style="mask-type:luminance"><path fill="#fff" d="m74.012 130.914 18.745-39.801 56.783 26.743-18.745 39.799z"/></mask><g mask="url(#bv)"><mask id="bw" width="61" height="49" x="81" y="100" maskUnits="userSpaceOnUse" style="mask-type:luminance"><path fill="#fff" d="M83.377 111.034c-5.172 10.98 3.259 25.824 18.828 33.157 15.57 7.333 32.383 4.376 37.554-6.602 5.172-10.981-3.259-25.825-18.828-33.158-15.57-7.333-32.383-4.376-37.554 6.603"/></mask><g mask="url(#bw)"><path stroke="#000" stroke-width="2.353" d="M83.377 111.032c-5.172 10.981 3.258 25.825 18.828 33.158s32.383 4.376 37.554-6.603c5.172-10.98-3.259-25.825-18.828-33.158-15.57-7.332-32.383-4.375-37.554 6.603Z"/></g></g></g></g><mask id="bx" width="55" height="47" x="83" y="101" maskUnits="userSpaceOnUse" style="mask-type:luminance"><path fill="#fff" d="m94.057 101.896 43.757 14.217-10.179 31.326-43.757-14.217z"/></mask><g mask="url(#bx)"><mask id="by" width="56" height="50" x="83" y="100" maskUnits="userSpaceOnUse" style="mask-type:luminance"><path fill="#fff" d="m83.312 129.734 13.747-29.187 41.502 19.545-13.747 29.189z"/></mask><g mask="url(#by)"><mask id="bz" width="44" height="36" x="89" y="107" maskUnits="userSpaceOnUse" style="mask-type:luminance"><path fill="#fff" d="M90.186 115.141c-3.796 8.06 2.392 18.957 13.821 24.341 11.43 5.382 23.773 3.213 27.569-4.848s-2.393-18.958-13.822-24.342c-11.43-5.382-23.772-3.212-27.568 4.849"/></mask><g mask="url(#bz)"><mask id="bA" width="55" height="47" x="83" y="101" maskUnits="userSpaceOnUse" style="mask-type:luminance"><path fill="#fff" d="m137.812 116.111-43.757-14.217-10.179 31.326 43.757 14.217z"/></mask><g mask="url(#bA)"><mask id="bB" width="55" height="47" x="83" y="101" maskUnits="userSpaceOnUse" style="mask-type:luminance"><path fill="#fff" d="m94.055 101.894 43.757 14.217-10.179 31.326-43.757-14.217z"/></mask><g mask="url(#bB)"><mask id="bC" width="56" height="50" x="83" y="100" maskUnits="userSpaceOnUse" style="mask-type:luminance"><path fill="#fff" d="m83.312 129.733 13.747-29.187 41.502 19.545-13.747 29.189z"/></mask><g mask="url(#bC)"><mask id="bD" width="44" height="36" x="89" y="107" maskUnits="userSpaceOnUse" style="mask-type:luminance"><path fill="#fff" d="M90.186 115.14c-3.796 8.06 2.392 18.957 13.821 24.341 11.43 5.382 23.773 3.213 27.569-4.848s-2.393-18.958-13.822-24.342c-11.43-5.382-23.772-3.212-27.568 4.849"/></mask><g mask="url(#bD)"><path fill="#000" d="m83.312 129.732 13.747-29.187 41.388 19.492-13.746 29.188z"/></g></g></g></g></g></g></g><mask id="bE" width="55" height="47" x="83" y="101" maskUnits="userSpaceOnUse" style="mask-type:luminance"><path fill="#fff" d="m94.057 101.896 43.757 14.217-10.179 31.326-43.757-14.217z"/></mask><g mask="url(#bE)"><mask id="bF" width="56" height="50" x="83" y="100" maskUnits="userSpaceOnUse" style="mask-type:luminance"><path fill="#fff" d="m83.312 129.735 13.764-29.225 41.258 19.432-13.763 29.225z"/></mask><g mask="url(#bF)"><mask id="bG" width="56" height="50" x="83" y="100" maskUnits="userSpaceOnUse" style="mask-type:luminance"><path fill="#fff" d="m83.31 129.735 13.758-29.213 41.681 19.628-13.759 29.216z"/></mask><g mask="url(#bG)"><mask id="bH" width="44" height="36" x="89" y="107" maskUnits="userSpaceOnUse" style="mask-type:luminance"><path fill="#fff" d="M90.183 115.144c-3.795 8.058 2.392 18.955 13.819 24.338 11.43 5.382 23.77 3.212 27.568-4.848 3.795-8.059-2.394-18.956-13.822-24.338-11.428-5.381-23.77-3.211-27.565 4.848"/></mask><g mask="url(#bH)"><path stroke="#000" stroke-width="2.353" d="M90.184 115.144c-3.795 8.059 2.392 18.955 13.82 24.338 11.43 5.383 23.769 3.212 27.567-4.848 3.795-8.059-2.394-18.956-13.822-24.337s-23.77-3.212-27.565 4.847Z"/></g></g></g></g><path stroke="#000" stroke-width="1.425" d="m80.636 130.195 3.064-5.285m1.307 13.902 4.373-4.268m4.094 10.776 3.679-4.879m6.329 10.878 2.151-5.719m8.02 7.46 1.32-5.966m9.509 5.263 1.32-5.965"/><mask id="bI" width="50" height="42" x="87" y="105" maskUnits="userSpaceOnUse" style="mask-type:luminance"><path fill="#fff" d="m96.894 105.018 39.779 12.925-9.371 28.84-39.78-12.926z"/></mask><g mask="url(#bI)"><mask id="bJ" width="51" height="46" x="87" y="103" maskUnits="userSpaceOnUse" style="mask-type:luminance"><path fill="#fff" d="m87.106 130.401 12.631-26.818 37.399 17.614-12.631 26.819z"/></mask><g mask="url(#bJ)"><mask id="bK" width="40" height="33" x="92" y="109" maskUnits="userSpaceOnUse" style="mask-type:luminance"><path fill="#fff" d="M93.424 116.994c-3.49 7.406 2.033 17.341 12.332 22.193 10.3 4.85 21.478 2.778 24.966-4.627 3.487-7.407-2.036-17.342-12.334-22.194-10.3-4.849-21.476-2.777-24.964 4.628"/></mask><g mask="url(#bK)"><mask id="bL" width="50" height="42" x="87" y="105" maskUnits="userSpaceOnUse" style="mask-type:luminance"><path fill="#fff" d="m136.674 117.943-39.78-12.925-9.37 28.839 39.779 12.926z"/></mask><g mask="url(#bL)"><mask id="bM" width="50" height="42" x="87" y="105" maskUnits="userSpaceOnUse" style="mask-type:luminance"><path fill="#fff" d="m96.897 105.018 39.779 12.925-9.371 28.84-39.78-12.926z"/></mask><g mask="url(#bM)"><mask id="bN" width="51" height="46" x="87" y="103" maskUnits="userSpaceOnUse" style="mask-type:luminance"><path fill="#fff" d="m87.108 130.401 12.631-26.818 37.399 17.614-12.631 26.819z"/></mask><g mask="url(#bN)"><mask id="bO" width="40" height="33" x="92" y="109" maskUnits="userSpaceOnUse" style="mask-type:luminance"><path fill="#fff" d="M93.43 116.994c-3.49 7.406 2.033 17.341 12.332 22.193 10.299 4.85 21.478 2.778 24.966-4.627 3.487-7.407-2.036-17.342-12.335-22.194-10.299-4.849-21.475-2.777-24.963 4.628"/></mask><g mask="url(#bO)"><path fill="#a9c5e7" d="m87.11 130.402 12.631-26.818 37.294 17.565-12.63 26.819z"/></g></g></g></g></g></g></g><mask id="bP" width="23" height="22" x="101" y="115" maskUnits="userSpaceOnUse" style="mask-type:luminance"><path fill="#fff" d="m106.728 115.358 16.906 5.494-5.009 15.414-16.906-5.493z"/></mask><g mask="url(#bP)"><mask id="bQ" width="23" height="23" x="101" y="114" maskUnits="userSpaceOnUse" style="mask-type:luminance"><path fill="#fff" d="m101.367 124.427 8.682-9.443 13.639 12.54-8.681 9.441z"/></mask><g mask="url(#bQ)"><mask id="bR" width="23" height="23" x="101" y="114" maskUnits="userSpaceOnUse" style="mask-type:luminance"><path fill="#fff" d="m101.366 124.427 8.682-9.443 13.639 12.54-8.681 9.441z"/></mask><g mask="url(#bR)"><path fill="#fff" d="M115.61 122.341c-1.007.126-2.172.598-3.486 1.498l-2.283-2.101a5.9 5.9 0 0 1 2.364-.986c.125-.048.25-.095.288-.224a.33.33 0 0 0 .07-.341l-.52-2.344c-.048-.125-.095-.25-.225-.286-.088-.082-.255-.074-.341-.07a9.5 9.5 0 0 0-4.054 2.029l-.484-.445a.47.47 0 0 0-.674.03l-.929 1.01a.47.47 0 0 0 .028.675l.482.444c-.76 1.003-1.135 2.118-1.129 3.258-.032 1.268.48 2.387 1.49 3.317 1.012.93 2.041 1.307 3.135 1.177 1.007-.125 2.087-.593 3.36-1.451l2.373 2.182c-.863.585-1.905.925-3.165 1.063-.125.048-.25.095-.33.183a.32.32 0 0 0-.07.34l.311 2.395c.009.254.269.412.524.402 1.975-.211 3.72-.96 5.192-2.12l.835.767a.47.47 0 0 0 .675-.028l.927-1.01a.47.47 0 0 0-.028-.675l-.835-.767c.843-1.093 1.217-2.206 1.252-3.39.032-1.27-.44-2.433-1.45-3.362-1.095-.925-2.17-1.345-3.303-1.17m.966 3.887c.265.243.403.533.377.915-.029.296-.144.598-.299.94l-1.978-1.817c.54-.235.875-.332 1.043-.34.334-.097.594.06.857.302m-8.204-1.218c-.263-.242-.358-.492-.333-.873q-.016-.38.222-.769l1.845 1.697c-.455.23-.749.284-.917.292-.337.013-.553-.104-.817-.347"/></g></g></g></g><mask id="bS" width="99" height="93" x="61" y="70" maskUnits="userSpaceOnUse" style="mask-type:luminance"><path fill="#fff" d="m159.322 95.615-76.575-24.88-21.65 66.629 76.576 24.881z"/></mask><g mask="url(#bS)"><mask id="bT" width="74" height="62" x="72" y="88" maskUnits="userSpaceOnUse" style="mask-type:luminance"><path fill="#fff" d="m86.355 88.4 59.171 19.225-13.733 42.266-59.171-19.226z"/></mask><g mask="url(#bT)"><mask id="bU" width="76" height="67" x="71" y="86" maskUnits="userSpaceOnUse" style="mask-type:luminance"><path fill="#fff" d="M71.535 125.789 90.26 86.027l56.537 26.627-18.726 39.762z"/></mask><g mask="url(#bU)"><mask id="bV" width="60" height="49" x="79" y="95" maskUnits="userSpaceOnUse" style="mask-type:luminance"><path fill="#fff" d="M80.896 105.908c-5.172 10.98 3.258 25.824 18.83 33.158 15.57 7.333 32.383 4.376 37.554-6.603 5.172-10.98-3.258-25.827-18.828-33.16s-32.384-4.376-37.556 6.605"/></mask><g mask="url(#bV)"><mask id="bW" width="74" height="62" x="72" y="88" maskUnits="userSpaceOnUse" style="mask-type:luminance"><path fill="#fff" d="M145.526 107.626 86.354 88.4l-13.732 42.266 59.171 19.226z"/></mask><g mask="url(#bW)"><mask id="bX" width="74" height="62" x="72" y="88" maskUnits="userSpaceOnUse" style="mask-type:luminance"><path fill="#fff" d="m86.352 88.4 59.171 19.226-13.733 42.266-59.171-19.226z"/></mask><g mask="url(#bX)"><mask id="bY" width="76" height="67" x="71" y="86" maskUnits="userSpaceOnUse" style="mask-type:luminance"><path fill="#fff" d="M71.534 125.793 90.26 86.031l56.537 26.626-18.726 39.763z"/></mask><g mask="url(#bY)"><mask id="bZ" width="60" height="49" x="79" y="95" maskUnits="userSpaceOnUse" style="mask-type:luminance"><path fill="#fff" d="M80.896 105.91c-5.172 10.98 3.258 25.824 18.83 33.158 15.57 7.333 32.383 4.376 37.554-6.603 5.172-10.98-3.258-25.827-18.828-33.16s-32.384-4.376-37.556 6.605"/></mask><g mask="url(#bZ)"><path fill="#fff" d="M71.534 125.792 90.26 86.03l56.383 26.553-18.728 39.762z"/></g></g></g></g></g></g></g><mask id="ca" width="74" height="62" x="72" y="88" maskUnits="userSpaceOnUse" style="mask-type:luminance"><path fill="#fff" d="m86.355 88.4 59.171 19.225-13.733 42.266-59.171-19.226z"/></mask><g mask="url(#ca)"><mask id="cb" width="76" height="68" x="71" y="85" maskUnits="userSpaceOnUse" style="mask-type:luminance"><path fill="#fff" d="M71.535 125.788 90.36 85.816l56.303 26.517-18.824 39.971z"/></mask><g mask="url(#cb)"><mask id="cc" width="77" height="68" x="71" y="85" maskUnits="userSpaceOnUse" style="mask-type:luminance"><path fill="#fff" d="m71.536 125.789 18.745-39.802 56.783 26.743-18.745 39.8z"/></mask><g mask="url(#cc)"><mask id="cd" width="60" height="49" x="79" y="95" maskUnits="userSpaceOnUse" style="mask-type:luminance"><path fill="#fff" d="M80.898 105.907c-5.172 10.979 3.258 25.825 18.828 33.158s32.382 4.376 37.554-6.605c5.172-10.979-3.259-25.823-18.829-33.156s-32.382-4.376-37.553 6.603"/></mask><g mask="url(#cd)"><path stroke="#000" stroke-width="2.353" d="M80.898 105.907c-5.171 10.978 3.259 25.825 18.829 33.158s32.382 4.375 37.554-6.605c5.171-10.979-3.259-25.823-18.829-33.156s-32.382-4.376-37.554 6.603Z"/></g></g></g></g><mask id="ce" width="74" height="63" x="75" y="82" maskUnits="userSpaceOnUse" style="mask-type:luminance"><path fill="#fff" d="m89.448 82.258 59.172 19.226-13.895 42.762-59.171-19.226z"/></mask><g mask="url(#ce)"><mask id="cf" width="76" height="67" x="74" y="80" maskUnits="userSpaceOnUse" style="mask-type:luminance"><path fill="#fff" d="m74.472 119.805 18.725-39.76 56.538 26.624-18.726 39.763z"/></mask><g mask="url(#cf)"><mask id="cg" width="60" height="49" x="82" y="89" maskUnits="userSpaceOnUse" style="mask-type:luminance"><path fill="#fff" d="M83.838 99.924c-5.17 10.981 3.26 25.827 18.829 33.16s32.385 4.377 37.555-6.604c5.172-10.981-3.259-25.825-18.829-33.158s-32.384-4.377-37.555 6.602"/></mask><g mask="url(#cg)"><mask id="ch" width="74" height="63" x="75" y="82" maskUnits="userSpaceOnUse" style="mask-type:luminance"><path fill="#fff" d="M148.619 101.483 89.447 82.257l-13.894 42.762 59.171 19.226z"/></mask><g mask="url(#ch)"><mask id="ci" width="74" height="63" x="75" y="82" maskUnits="userSpaceOnUse" style="mask-type:luminance"><path fill="#fff" d="m89.448 82.254 59.172 19.226-13.895 42.762-59.171-19.225z"/></mask><g mask="url(#ci)"><mask id="cj" width="76" height="67" x="74" y="80" maskUnits="userSpaceOnUse" style="mask-type:luminance"><path fill="#fff" d="M74.475 119.803 93.2 80.043l56.538 26.624-18.726 39.763z"/></mask><g mask="url(#cj)"><mask id="ck" width="60" height="49" x="82" y="89" maskUnits="userSpaceOnUse" style="mask-type:luminance"><path fill="#fff" d="M83.836 99.921c-5.17 10.981 3.26 25.828 18.829 33.16 15.57 7.333 32.385 4.377 37.555-6.604 5.172-10.981-3.259-25.825-18.829-33.158s-32.384-4.377-37.555 6.602"/></mask><g mask="url(#ck)"><path fill="#fff" d="m74.474 119.803 18.725-39.76 56.383 26.552-18.726 39.763z"/></g></g></g></g></g></g></g><mask id="cl" width="74" height="63" x="75" y="82" maskUnits="userSpaceOnUse" style="mask-type:luminance"><path fill="#fff" d="m89.448 82.258 59.172 19.226-13.895 42.762-59.171-19.226z"/></mask><g mask="url(#cl)"><mask id="cm" width="76" height="68" x="74" y="79" maskUnits="userSpaceOnUse" style="mask-type:luminance"><path fill="#fff" d="m74.473 119.806 18.823-39.97 56.302 26.517-18.823 39.969z"/></mask><g mask="url(#cm)"><mask id="cn" width="76" height="67" x="74" y="80" maskUnits="userSpaceOnUse" style="mask-type:luminance"><path fill="#fff" d="m74.47 119.806 18.746-39.802 56.783 26.743-18.746 39.802z"/></mask><g mask="url(#cn)"><mask id="co" width="60" height="49" x="82" y="89" maskUnits="userSpaceOnUse" style="mask-type:luminance"><path fill="#fff" d="M83.835 99.927c-5.17 10.979 3.26 25.823 18.829 33.156s32.383 4.376 37.554-6.603-3.259-25.825-18.828-33.158c-15.57-7.333-32.383-4.376-37.555 6.605"/></mask><g mask="url(#co)"><path stroke="#000" stroke-width="2.353" d="M83.834 99.927c-5.17 10.979 3.26 25.823 18.829 33.156s32.382 4.375 37.554-6.603c5.171-10.979-3.259-25.825-18.829-33.158s-32.382-4.376-37.554 6.605Z"/></g></g></g></g><mask id="cp" width="55" height="47" x="84" y="90" maskUnits="userSpaceOnUse" style="mask-type:luminance"><path fill="#fff" d="m94.31 90.984 44.255 14.379-10.179 31.327-44.254-14.38z"/></mask><g mask="url(#cp)"><mask id="cq" width="57" height="50" x="83" y="89" maskUnits="userSpaceOnUse" style="mask-type:luminance"><path fill="#fff" d="m83.777 118.629 13.746-29.19 41.502 19.547-13.746 29.188z"/></mask><g mask="url(#cq)"><mask id="cr" width="45" height="36" x="89" y="96" maskUnits="userSpaceOnUse" style="mask-type:luminance"><path fill="#fff" d="M90.652 104.034c-3.796 8.06 2.39 18.959 13.82 24.341s23.774 3.213 27.57-4.848-2.394-18.957-13.824-24.34c-11.429-5.384-23.771-3.212-27.566 4.847"/></mask><g mask="url(#cr)"><mask id="cs" width="55" height="47" x="84" y="90" maskUnits="userSpaceOnUse" style="mask-type:luminance"><path fill="#fff" d="M138.569 105.365 94.315 90.986l-10.179 31.326 44.254 14.38z"/></mask><g mask="url(#cs)"><mask id="ct" width="55" height="47" x="84" y="90" maskUnits="userSpaceOnUse" style="mask-type:luminance"><path fill="#fff" d="m94.316 90.987 44.255 14.379-10.179 31.326-44.254-14.379z"/></mask><g mask="url(#ct)"><mask id="cu" width="57" height="50" x="83" y="89" maskUnits="userSpaceOnUse" style="mask-type:luminance"><path fill="#fff" d="m83.78 118.632 13.746-29.19 41.502 19.547-13.746 29.188z"/></mask><g mask="url(#cu)"><mask id="cv" width="45" height="36" x="89" y="96" maskUnits="userSpaceOnUse" style="mask-type:luminance"><path fill="#fff" d="M90.658 104.037c-3.795 8.06 2.391 18.958 13.821 24.341 11.43 5.382 23.774 3.213 27.569-4.848 3.796-8.061-2.393-18.958-13.823-24.34-11.429-5.384-23.771-3.212-27.567 4.847"/></mask><g mask="url(#cv)"><path fill="#000" d="m83.783 118.632 13.746-29.19 41.388 19.493-13.746 29.188z"/></g></g></g></g></g></g></g><mask id="cw" width="55" height="47" x="84" y="90" maskUnits="userSpaceOnUse" style="mask-type:luminance"><path fill="#fff" d="m94.31 90.984 44.255 14.379-10.179 31.327-44.254-14.38z"/></mask><g mask="url(#cw)"><mask id="cx" width="56" height="50" x="83" y="89" maskUnits="userSpaceOnUse" style="mask-type:luminance"><path fill="#fff" d="m83.777 118.629 13.765-29.227 41.26 19.432-13.766 29.226z"/></mask><g mask="url(#cx)"><mask id="cy" width="57" height="50" x="83" y="89" maskUnits="userSpaceOnUse" style="mask-type:luminance"><path fill="#fff" d="m83.776 118.628 13.757-29.216 41.681 19.63-13.759 29.214z"/></mask><g mask="url(#cy)"><mask id="cz" width="45" height="36" x="89" y="96" maskUnits="userSpaceOnUse" style="mask-type:luminance"><path fill="#fff" d="M90.65 104.034c-3.796 8.061 2.391 18.957 13.819 24.339 11.43 5.382 23.772 3.212 27.567-4.847 3.795-8.058-2.392-18.955-13.821-24.339-11.428-5.382-23.77-3.212-27.565 4.847"/></mask><g mask="url(#cz)"><path stroke="#000" stroke-width="2.353" d="M90.648 104.035c-3.795 8.06 2.392 18.956 13.82 24.338s23.771 3.212 27.566-4.846c3.796-8.059-2.392-18.955-13.821-24.34-11.428-5.381-23.77-3.211-27.565 4.848Z"/></g></g></g></g><path stroke="#000" stroke-width="1.425" d="m81.095 119.084 3.064-5.286m1.308 13.902 4.373-4.267m4.096 10.777 3.677-4.88m6.329 10.878 2.15-5.718m8.019 7.458 1.319-5.964m9.511 5.263 1.32-5.966"/><mask id="cA" width="51" height="43" x="87" y="93" maskUnits="userSpaceOnUse" style="mask-type:luminance"><path fill="#fff" d="m97.306 93.606 39.779 12.925-9.371 28.84-39.779-12.925z"/></mask><g mask="url(#cA)"><mask id="cB" width="51" height="45" x="87" y="92" maskUnits="userSpaceOnUse" style="mask-type:luminance"><path fill="#fff" d="m87.564 119.292 12.631-26.819 37.399 17.613-12.63 26.819z"/></mask><g mask="url(#cB)"><mask id="cC" width="41" height="33" x="92" y="98" maskUnits="userSpaceOnUse" style="mask-type:luminance"><path fill="#fff" d="M93.883 105.884c-3.489 7.404 2.034 17.34 12.333 22.191 10.301 4.85 21.476 2.78 24.965-4.626 3.487-7.406-2.035-17.343-12.335-22.192-10.298-4.852-21.475-2.78-24.964 4.627"/></mask><g mask="url(#cC)"><mask id="cD" width="51" height="43" x="87" y="93" maskUnits="userSpaceOnUse" style="mask-type:luminance"><path fill="#fff" d="m137.085 106.531-39.78-12.925-9.37 28.84 39.779 12.925z"/></mask><g mask="url(#cD)"><mask id="cE" width="51" height="43" x="87" y="93" maskUnits="userSpaceOnUse" style="mask-type:luminance"><path fill="#fff" d="m97.307 93.606 39.779 12.925-9.371 28.84-39.779-12.925z"/></mask><g mask="url(#cE)"><mask id="cF" width="51" height="45" x="87" y="92" maskUnits="userSpaceOnUse" style="mask-type:luminance"><path fill="#fff" d="m87.565 119.292 12.631-26.819 37.399 17.613-12.63 26.819z"/></mask><g mask="url(#cF)"><mask id="cG" width="41" height="33" x="92" y="98" maskUnits="userSpaceOnUse" style="mask-type:luminance"><path fill="#fff" d="M93.884 105.884c-3.489 7.404 2.034 17.34 12.333 22.191 10.301 4.85 21.476 2.78 24.965-4.626 3.487-7.406-2.035-17.343-12.335-22.192-10.298-4.852-21.475-2.78-24.963 4.627"/></mask><g mask="url(#cG)"><path fill="#a9c5e7" d="m87.566 119.292 12.631-26.819 37.295 17.564-12.631 26.819z"/></g></g></g></g></g></g></g><mask id="cH" width="24" height="22" x="101" y="104" maskUnits="userSpaceOnUse" style="mask-type:luminance"><path fill="#fff" d="m106.978 104.445 17.403 5.655-5.009 15.414-17.403-5.654z"/></mask><g mask="url(#cH)"><mask id="cI" width="24" height="23" x="101" y="103" maskUnits="userSpaceOnUse" style="mask-type:luminance"><path fill="#fff" d="m101.825 113.315 8.682-9.443 13.639 12.541-8.681 9.443z"/></mask><g mask="url(#cI)"><mask id="cJ" width="24" height="23" x="101" y="103" maskUnits="userSpaceOnUse" style="mask-type:luminance"><path fill="#fff" d="m101.824 113.314 8.682-9.443 13.639 12.541-8.681 9.443z"/></mask><g mask="url(#cJ)"><path fill="#fff" d="M116.068 111.229c-1.008.128-2.172.598-3.485 1.498l-2.285-2.102a5.9 5.9 0 0 1 2.365-.986c.125-.047.25-.095.287-.222a.33.33 0 0 0 .07-.342l-.521-2.343c-.047-.125-.095-.25-.222-.287-.09-.08-.258-.073-.342-.07a9.5 9.5 0 0 0-4.054 2.028l-.484-.442a.47.47 0 0 0-.674.027l-.93 1.011a.47.47 0 0 0 .028.674l.483.445c-.76 1.003-1.135 2.118-1.13 3.258-.032 1.269.48 2.389 1.491 3.316 1.012.93 2.042 1.31 3.134 1.18 1.008-.128 2.087-.595 3.36-1.451l2.373 2.18c-.863.587-1.903.925-3.165 1.063-.125.047-.25.095-.33.183a.33.33 0 0 0-.07.342l.31 2.394c.011.253.271.41.525.401a10 10 0 0 0 5.192-2.119l.835.767a.47.47 0 0 0 .674-.027l.929-1.013a.47.47 0 0 0-.028-.675l-.835-.767c.841-1.09 1.217-2.205 1.252-3.39.031-1.267-.441-2.432-1.451-3.36-1.095-.926-2.17-1.346-3.302-1.171m.966 3.887c.264.243.402.532.377.915-.03.297-.145.597-.3.942l-1.977-1.819c.539-.233.874-.333 1.042-.338.335-.1.595.058.858.3m-8.205-1.219c-.263-.242-.358-.49-.333-.872q-.014-.38.222-.77l1.846 1.697c-.455.23-.748.285-.918.293-.337.014-.552-.105-.817-.348"/></g></g></g></g><mask id="cK" width="99" height="93" x="64" y="60" maskUnits="userSpaceOnUse" style="mask-type:luminance"><path fill="#fff" d="M162.552 85.67 85.978 60.79l-21.65 66.63 76.575 24.881z"/></mask><g mask="url(#cK)"><mask id="cL" width="74" height="63" x="75" y="78" maskUnits="userSpaceOnUse" style="mask-type:luminance"><path fill="#fff" d="m89.585 78.453 59.171 19.226-13.894 42.763-59.171-19.226z"/></mask><g mask="url(#cL)"><mask id="cM" width="77" height="67" x="74" y="76" maskUnits="userSpaceOnUse" style="mask-type:luminance"><path fill="#fff" d="M74.744 115.91 93.47 76.148l56.537 26.627-18.726 39.762z"/></mask><g mask="url(#cM)"><mask id="cN" width="61" height="49" x="82" y="85" maskUnits="userSpaceOnUse" style="mask-type:luminance"><path fill="#fff" d="M84.105 96.026c-5.172 10.98 3.257 25.826 18.83 33.158 15.569 7.333 32.382 4.376 37.554-6.603 5.172-10.98-3.258-25.826-18.829-33.157-15.571-7.334-32.384-4.377-37.555 6.602"/></mask><g mask="url(#cN)"><mask id="cO" width="74" height="63" x="75" y="78" maskUnits="userSpaceOnUse" style="mask-type:luminance"><path fill="#fff" d="M148.757 97.674 89.586 78.448l-13.894 42.763 59.171 19.226z"/></mask><g mask="url(#cO)"><mask id="cP" width="74" height="63" x="75" y="78" maskUnits="userSpaceOnUse" style="mask-type:luminance"><path fill="#fff" d="m89.587 78.447 59.171 19.226-13.894 42.763-59.172-19.226z"/></mask><g mask="url(#cP)"><mask id="cQ" width="77" height="67" x="74" y="76" maskUnits="userSpaceOnUse" style="mask-type:luminance"><path fill="#fff" d="M74.745 115.907 93.47 76.144l56.537 26.627-18.726 39.762z"/></mask><g mask="url(#cQ)"><mask id="cR" width="61" height="49" x="82" y="85" maskUnits="userSpaceOnUse" style="mask-type:luminance"><path fill="#fff" d="M84.106 96.026c-5.171 10.98 3.259 25.826 18.831 33.158 15.569 7.333 32.382 4.376 37.554-6.603 5.171-10.98-3.258-25.826-18.829-33.157-15.571-7.334-32.384-4.377-37.556 6.602"/></mask><g mask="url(#cR)"><path fill="#fff" d="M74.744 115.907 93.47 76.145l56.382 26.555-18.727 39.76z"/></g></g></g></g></g></g></g><mask id="cS" width="74" height="63" x="75" y="78" maskUnits="userSpaceOnUse" style="mask-type:luminance"><path fill="#fff" d="m89.585 78.453 59.171 19.226-13.894 42.763-59.171-19.226z"/></mask><g mask="url(#cS)"><mask id="cT" width="76" height="68" x="74" y="75" maskUnits="userSpaceOnUse" style="mask-type:luminance"><path fill="#fff" d="m74.742 115.911 18.823-39.97 56.303 26.517-18.824 39.969z"/></mask><g mask="url(#cT)"><mask id="cU" width="77" height="67" x="74" y="76" maskUnits="userSpaceOnUse" style="mask-type:luminance"><path fill="#fff" d="M74.743 115.911 93.488 76.11l56.783 26.743-18.745 39.799z"/></mask><g mask="url(#cU)"><mask id="cV" width="61" height="49" x="82" y="85" maskUnits="userSpaceOnUse" style="mask-type:luminance"><path fill="#fff" d="M84.107 96.03c-5.171 10.98 3.26 25.824 18.829 33.157s32.382 4.376 37.554-6.602c5.172-10.981-3.259-25.825-18.829-33.158S89.279 85.05 84.107 96.03"/></mask><g mask="url(#cV)"><path stroke="#000" stroke-width="2.353" d="M84.107 96.028c-5.172 10.981 3.259 25.825 18.828 33.158 15.57 7.333 32.383 4.376 37.554-6.603 5.172-10.98-3.258-25.824-18.828-33.157s-32.383-4.376-37.554 6.602Z"/></g></g></g></g><mask id="cW" width="74" height="63" x="78" y="72" maskUnits="userSpaceOnUse" style="mask-type:luminance"><path fill="#fff" d="m92.679 72.312 59.171 19.225-13.894 42.763-59.172-19.226z"/></mask><g mask="url(#cW)"><mask id="cX" width="76" height="67" x="77" y="70" maskUnits="userSpaceOnUse" style="mask-type:luminance"><path fill="#fff" d="m77.68 109.929 18.726-39.762 56.537 26.626-18.726 39.763z"/></mask><g mask="url(#cX)"><mask id="cY" width="60" height="49" x="85" y="79" maskUnits="userSpaceOnUse" style="mask-type:luminance"><path fill="#fff" d="M87.045 90.048c-5.17 10.979 3.26 25.826 18.83 33.158s32.385 4.377 37.555-6.604c5.171-10.979-3.259-25.825-18.829-33.158s-32.384-4.377-37.556 6.604"/></mask><g mask="url(#cY)"><mask id="cZ" width="74" height="63" x="78" y="72" maskUnits="userSpaceOnUse" style="mask-type:luminance"><path fill="#fff" d="M151.849 91.538 92.678 72.312l-13.895 42.762 59.172 19.226z"/></mask><g mask="url(#cZ)"><mask id="da" width="74" height="63" x="78" y="72" maskUnits="userSpaceOnUse" style="mask-type:luminance"><path fill="#fff" d="m92.679 72.312 59.171 19.225-13.894 42.763-59.172-19.226z"/></mask><g mask="url(#da)"><mask id="db" width="76" height="67" x="77" y="70" maskUnits="userSpaceOnUse" style="mask-type:luminance"><path fill="#fff" d="m77.682 109.929 18.726-39.762 56.537 26.626-18.726 39.763z"/></mask><g mask="url(#db)"><mask id="dc" width="60" height="49" x="85" y="79" maskUnits="userSpaceOnUse" style="mask-type:luminance"><path fill="#fff" d="M87.043 90.047c-5.17 10.979 3.26 25.826 18.83 33.159s32.385 4.376 37.555-6.605c5.171-10.979-3.259-25.825-18.829-33.158s-32.384-4.376-37.556 6.604"/></mask><g mask="url(#dc)"><path fill="#fff" d="m77.681 109.929 18.726-39.762 56.383 26.552-18.726 39.763z"/></g></g></g></g></g></g></g><mask id="dd" width="74" height="63" x="78" y="72" maskUnits="userSpaceOnUse" style="mask-type:luminance"><path fill="#fff" d="m92.679 72.312 59.171 19.225-13.894 42.763-59.172-19.226z"/></mask><g mask="url(#dd)"><mask id="de" width="76" height="68" x="77" y="69" maskUnits="userSpaceOnUse" style="mask-type:luminance"><path fill="#fff" d="m77.68 109.929 18.824-39.972 56.302 26.517-18.824 39.971z"/></mask><g mask="url(#de)"><mask id="df" width="77" height="67" x="77" y="70" maskUnits="userSpaceOnUse" style="mask-type:luminance"><path fill="#fff" d="m77.68 109.927 18.744-39.8 56.783 26.742-18.745 39.801z"/></mask><g mask="url(#df)"><mask id="dg" width="60" height="49" x="85" y="79" maskUnits="userSpaceOnUse" style="mask-type:luminance"><path fill="#fff" d="M87.044 90.049c-5.17 10.979 3.259 25.824 18.829 33.155 15.57 7.333 32.382 4.378 37.554-6.602 5.171-10.979-3.259-25.825-18.828-33.158-15.571-7.331-32.383-4.376-37.555 6.605"/></mask><g mask="url(#dg)"><path stroke="#000" stroke-width="2.353" d="M87.043 90.048c-5.17 10.979 3.258 25.825 18.829 33.156 15.569 7.333 32.382 4.377 37.554-6.603 5.171-10.979-3.259-25.825-18.829-33.158-15.57-7.331-32.382-4.376-37.554 6.605Z"/></g></g></g></g><mask id="dh" width="55" height="46" x="87" y="81" maskUnits="userSpaceOnUse" style="mask-type:luminance"><path fill="#fff" d="m97.541 81.038 44.254 14.38-10.178 31.325-44.254-14.379z"/></mask><g mask="url(#dh)"><mask id="di" width="57" height="50" x="86" y="79" maskUnits="userSpaceOnUse" style="mask-type:luminance"><path fill="#fff" d="m86.985 108.75 13.747-29.19 41.501 19.547-13.746 29.188z"/></mask><g mask="url(#di)"><mask id="dj" width="45" height="36" x="92" y="86" maskUnits="userSpaceOnUse" style="mask-type:luminance"><path fill="#fff" d="M93.861 94.157c-3.795 8.059 2.391 18.957 13.821 24.339 11.429 5.385 23.774 3.213 27.569-4.845 3.796-8.061-2.393-18.96-13.822-24.342-11.43-5.382-23.772-3.212-27.568 4.848"/></mask><g mask="url(#dj)"><mask id="dk" width="55" height="46" x="87" y="81" maskUnits="userSpaceOnUse" style="mask-type:luminance"><path fill="#fff" d="M141.799 95.42 97.545 81.04l-10.178 31.326 44.254 14.379z"/></mask><g mask="url(#dk)"><mask id="dl" width="55" height="46" x="87" y="81" maskUnits="userSpaceOnUse" style="mask-type:luminance"><path fill="#fff" d="M97.547 81.04 141.8 95.42l-10.178 31.325-44.255-14.379z"/></mask><g mask="url(#dl)"><mask id="dm" width="57" height="50" x="86" y="79" maskUnits="userSpaceOnUse" style="mask-type:luminance"><path fill="#fff" d="m86.99 108.752 13.747-29.19 41.502 19.547-13.746 29.188z"/></mask><g mask="url(#dm)"><mask id="dn" width="45" height="36" x="92" y="86" maskUnits="userSpaceOnUse" style="mask-type:luminance"><path fill="#fff" d="M93.866 94.16c-3.795 8.058 2.391 18.956 13.821 24.338 11.429 5.385 23.774 3.213 27.569-4.845 3.796-8.061-2.393-18.96-13.823-24.342-11.429-5.383-23.771-3.213-27.567 4.848"/></mask><g mask="url(#dn)"><path fill="#000" d="m86.99 108.752 13.747-29.19 41.388 19.493-13.746 29.19z"/></g></g></g></g></g></g></g><mask id="do" width="55" height="46" x="87" y="81" maskUnits="userSpaceOnUse" style="mask-type:luminance"><path fill="#fff" d="m97.541 81.038 44.254 14.38-10.178 31.325-44.254-14.379z"/></mask><g mask="url(#do)"><mask id="dp" width="57" height="50" x="86" y="79" maskUnits="userSpaceOnUse" style="mask-type:luminance"><path fill="#fff" d="m86.985 108.749 13.765-29.225 41.26 19.432-13.765 29.224z"/></mask><g mask="url(#dp)"><mask id="dq" width="57" height="50" x="86" y="79" maskUnits="userSpaceOnUse" style="mask-type:luminance"><path fill="#fff" d="m86.985 108.748 13.757-29.216 41.681 19.63-13.759 29.214z"/></mask><g mask="url(#dq)"><mask id="dr" width="45" height="36" x="92" y="86" maskUnits="userSpaceOnUse" style="mask-type:luminance"><path fill="#fff" d="M93.858 94.159c-3.796 8.058 2.392 18.955 13.82 24.336 11.429 5.383 23.771 3.213 27.566-4.846 3.796-8.059-2.392-18.955-13.821-24.337-11.428-5.384-23.77-3.214-27.565 4.847"/></mask><g mask="url(#dr)"><path stroke="#000" stroke-width="2.353" d="M93.856 94.158c-3.795 8.058 2.393 18.954 13.82 24.336 11.43 5.382 23.772 3.212 27.567-4.846s-2.392-18.955-13.822-24.338c-11.427-5.383-23.769-3.213-27.565 4.847Z"/></g></g></g></g><path stroke="#000" stroke-width="1.425" d="m84.304 109.205 3.064-5.286m1.307 13.905 4.373-4.267m4.095 10.775 3.677-4.879m6.331 10.877 2.15-5.718m8.019 7.46 1.32-5.966m9.51 5.264 1.32-5.966"/><mask id="ds" width="50" height="43" x="91" y="83" maskUnits="userSpaceOnUse" style="mask-type:luminance"><path fill="#fff" d="m100.536 83.661 39.779 12.925-9.532 29.337-39.78-12.925z"/></mask><g mask="url(#ds)"><mask id="dt" width="51" height="46" x="90" y="82" maskUnits="userSpaceOnUse" style="mask-type:luminance"><path fill="#fff" d="m90.773 109.418 12.631-26.819 37.399 17.613-12.63 26.819z"/></mask><g mask="url(#dt)"><mask id="du" width="40" height="33" x="96" y="88" maskUnits="userSpaceOnUse" style="mask-type:luminance"><path fill="#fff" d="M97.092 96.008c-3.489 7.405 2.033 17.342 12.333 22.192 10.3 4.852 21.477 2.78 24.965-4.627 3.487-7.405-2.036-17.34-12.335-22.192-10.299-4.85-21.474-2.78-24.963 4.627"/></mask><g mask="url(#du)"><mask id="dv" width="50" height="43" x="91" y="83" maskUnits="userSpaceOnUse" style="mask-type:luminance"><path fill="#fff" d="m140.316 96.588-39.779-12.925L91.005 113l39.779 12.925z"/></mask><g mask="url(#dv)"><mask id="dw" width="50" height="43" x="91" y="83" maskUnits="userSpaceOnUse" style="mask-type:luminance"><path fill="#fff" d="m100.538 83.663 39.779 12.925-9.532 29.337L91.005 113z"/></mask><g mask="url(#dw)"><mask id="dx" width="51" height="46" x="90" y="82" maskUnits="userSpaceOnUse" style="mask-type:luminance"><path fill="#fff" d="m90.774 109.417 12.631-26.819 37.399 17.613-12.63 26.819z"/></mask><g mask="url(#dx)"><mask id="dy" width="40" height="33" x="96" y="88" maskUnits="userSpaceOnUse" style="mask-type:luminance"><path fill="#fff" d="M97.093 96.01c-3.489 7.404 2.033 17.341 12.333 22.191 10.3 4.852 21.477 2.78 24.965-4.627 3.487-7.405-2.036-17.34-12.335-22.192-10.299-4.85-21.474-2.78-24.963 4.627"/></mask><g mask="url(#dy)"><path fill="#a9c5e7" d="m90.775 109.418 12.631-26.819 37.295 17.564-12.631 26.819z"/></g></g></g></g></g></g></g><mask id="dz" width="23" height="22" x="105" y="94" maskUnits="userSpaceOnUse" style="mask-type:luminance"><path fill="#fff" d="m110.208 94.499 17.403 5.655-5.008 15.414-17.403-5.655z"/></mask><g mask="url(#dz)"><mask id="dA" width="23" height="23" x="105" y="93" maskUnits="userSpaceOnUse" style="mask-type:luminance"><path fill="#fff" d="m105.034 103.436 8.682-9.443 13.639 12.541-8.681 9.443z"/></mask><g mask="url(#dA)"><mask id="dB" width="23" height="23" x="105" y="93" maskUnits="userSpaceOnUse" style="mask-type:luminance"><path fill="#fff" d="m105.033 103.436 8.682-9.443 13.639 12.541-8.681 9.443z"/></mask><g mask="url(#dB)"><path fill="#fff" d="M119.277 101.352c-1.008.128-2.172.598-3.485 1.498l-2.286-2.1a5.9 5.9 0 0 1 2.366-.988c.125-.047.25-.094.287-.222a.33.33 0 0 0 .07-.34l-.521-2.345c-.047-.124-.095-.25-.222-.287-.09-.08-.258-.073-.342-.07a9.5 9.5 0 0 0-4.055 2.03l-.483-.444a.47.47 0 0 0-.674.028l-.93 1.01a.47.47 0 0 0 .028.674l.483.445c-.761 1.005-1.135 2.118-1.13 3.258-.032 1.269.48 2.389 1.49 3.318 1.013.929 2.043 1.308 3.135 1.178 1.008-.128 2.087-.595 3.36-1.451l2.372 2.182c-.862.585-1.902.925-3.164 1.061-.125.047-.25.095-.331.185a.32.32 0 0 0-.069.34l.31 2.394c.011.253.272.413.525.401a10 10 0 0 0 5.192-2.119l.835.768a.47.47 0 0 0 .674-.028l.929-1.013a.467.467 0 0 0-.029-.673l-.834-.769c.841-1.09 1.217-2.205 1.252-3.39.031-1.267-.441-2.43-1.451-3.359-1.095-.927-2.17-1.347-3.302-1.172m.965 3.889c.265.243.402.532.378.913-.03.297-.145.597-.3.942l-1.978-1.817c.54-.235.875-.333 1.043-.34.335-.1.594.06.857.302m-8.205-1.219c-.262-.242-.357-.492-.332-.874q-.015-.378.222-.77l1.846 1.697c-.455.23-.748.286-.918.293-.338.014-.553-.103-.818-.346"/></g></g></g></g><mask id="dC" width="99" height="93" x="67" y="50" maskUnits="userSpaceOnUse" style="mask-type:luminance"><path fill="#fff" d="m165.784 75.726-76.575-24.88-21.65 66.63 76.575 24.88z"/></mask><g mask="url(#dC)"><mask id="dD" width="74" height="63" x="78" y="68" maskUnits="userSpaceOnUse" style="mask-type:luminance"><path fill="#fff" d="m92.816 68.51 59.172 19.226-13.895 42.762-59.171-19.226z"/></mask><g mask="url(#dD)"><mask id="dE" width="77" height="67" x="77" y="66" maskUnits="userSpaceOnUse" style="mask-type:luminance"><path fill="#fff" d="m77.952 106.034 18.726-39.76 56.538 26.624-18.727 39.763z"/></mask><g mask="url(#dE)"><mask id="dF" width="61" height="49" x="85" y="75" maskUnits="userSpaceOnUse" style="mask-type:luminance"><path fill="#fff" d="M87.31 86.153c-5.171 10.98 3.259 25.827 18.83 33.161s32.383 4.375 37.555-6.605-3.259-25.825-18.829-33.158-32.384-4.377-37.555 6.602"/></mask><g mask="url(#dF)"><mask id="dG" width="74" height="63" x="78" y="68" maskUnits="userSpaceOnUse" style="mask-type:luminance"><path fill="#fff" d="M151.987 87.736 92.815 68.51l-13.894 42.763 59.172 19.226z"/></mask><g mask="url(#dG)"><mask id="dH" width="74" height="63" x="78" y="68" maskUnits="userSpaceOnUse" style="mask-type:luminance"><path fill="#fff" d="m92.815 68.51 59.172 19.226-13.894 42.763-59.172-19.226z"/></mask><g mask="url(#dH)"><mask id="dI" width="77" height="67" x="77" y="66" maskUnits="userSpaceOnUse" style="mask-type:luminance"><path fill="#fff" d="m77.951 106.036 18.726-39.76L153.215 92.9l-18.727 39.763z"/></mask><g mask="url(#dI)"><mask id="dJ" width="61" height="49" x="85" y="75" maskUnits="userSpaceOnUse" style="mask-type:luminance"><path fill="#fff" d="M87.314 86.154c-5.172 10.98 3.258 25.827 18.829 33.161 15.57 7.332 32.383 4.375 37.555-6.605s-3.259-25.825-18.829-33.158-32.384-4.377-37.555 6.602"/></mask><g mask="url(#dJ)"><path fill="#fff" d="m77.952 106.036 18.726-39.76 56.383 26.552-18.728 39.762z"/></g></g></g></g></g></g></g><mask id="dK" width="74" height="63" x="78" y="68" maskUnits="userSpaceOnUse" style="mask-type:luminance"><path fill="#fff" d="m92.816 68.51 59.172 19.226-13.895 42.762-59.171-19.226z"/></mask><g mask="url(#dK)"><mask id="dL" width="77" height="67" x="77" y="66" maskUnits="userSpaceOnUse" style="mask-type:luminance"><path fill="#fff" d="m77.952 106.035 18.823-39.97 56.303 26.517-18.824 39.969z"/></mask><g mask="url(#dL)"><mask id="dM" width="77" height="67" x="77" y="66" maskUnits="userSpaceOnUse" style="mask-type:luminance"><path fill="#fff" d="m77.953 106.035 18.745-39.801 56.783 26.743-18.745 39.801z"/></mask><g mask="url(#dM)"><mask id="dN" width="61" height="49" x="85" y="75" maskUnits="userSpaceOnUse" style="mask-type:luminance"><path fill="#fff" d="M87.314 86.159c-5.171 10.978 3.26 25.822 18.829 33.155s32.382 4.376 37.554-6.602c5.171-10.979-3.259-25.825-18.829-33.158s-32.382-4.376-37.554 6.605"/></mask><g mask="url(#dN)"><path stroke="#000" stroke-width="2.353" d="M87.314 86.156c-5.171 10.979 3.26 25.823 18.829 33.156s32.383 4.376 37.554-6.603-3.259-25.825-18.828-33.157c-15.57-7.334-32.383-4.376-37.555 6.604Z"/></g></g></g></g><mask id="dO" width="74" height="63" x="82" y="62" maskUnits="userSpaceOnUse" style="mask-type:luminance"><path fill="#fff" d="m95.91 62.37 59.172 19.225-13.895 42.763-59.171-19.226z"/></mask><g mask="url(#dO)"><mask id="dP" width="77" height="67" x="80" y="60" maskUnits="userSpaceOnUse" style="mask-type:luminance"><path fill="#fff" d="m80.89 100.053 18.725-39.762 56.537 26.627-18.726 39.762z"/></mask><g mask="url(#dP)"><mask id="dQ" width="61" height="49" x="88" y="69" maskUnits="userSpaceOnUse" style="mask-type:luminance"><path fill="#fff" d="M90.255 80.174c-5.17 10.98 3.26 25.825 18.83 33.158s32.385 4.376 37.555-6.605c5.171-10.978-3.259-25.824-18.829-33.157s-32.384-4.377-37.556 6.604"/></mask><g mask="url(#dQ)"><mask id="dR" width="74" height="63" x="82" y="62" maskUnits="userSpaceOnUse" style="mask-type:luminance"><path fill="#fff" d="M155.081 81.596 95.909 62.37l-13.894 42.762 59.171 19.226z"/></mask><g mask="url(#dR)"><mask id="dS" width="74" height="63" x="82" y="62" maskUnits="userSpaceOnUse" style="mask-type:luminance"><path fill="#fff" d="m95.91 62.37 59.171 19.227-13.895 42.762-59.171-19.226z"/></mask><g mask="url(#dS)"><mask id="dT" width="77" height="67" x="80" y="60" maskUnits="userSpaceOnUse" style="mask-type:luminance"><path fill="#fff" d="m80.89 100.056 18.726-39.762 56.537 26.627-18.726 39.762z"/></mask><g mask="url(#dT)"><mask id="dU" width="61" height="49" x="88" y="69" maskUnits="userSpaceOnUse" style="mask-type:luminance"><path fill="#fff" d="M90.251 80.177c-5.17 10.98 3.26 25.825 18.83 33.158s32.385 4.376 37.555-6.605c5.171-10.979-3.259-25.825-18.829-33.158s-32.384-4.376-37.556 6.605"/></mask><g mask="url(#dU)"><path fill="#fff" d="m80.89 100.056 18.725-39.762 56.383 26.553-18.726 39.762z"/></g></g></g></g></g></g></g><mask id="dV" width="74" height="63" x="82" y="62" maskUnits="userSpaceOnUse" style="mask-type:luminance"><path fill="#fff" d="m95.91 62.37 59.172 19.225-13.895 42.763-59.171-19.226z"/></mask><g mask="url(#dV)"><mask id="dW" width="77" height="67" x="80" y="60" maskUnits="userSpaceOnUse" style="mask-type:luminance"><path fill="#fff" d="m80.89 100.055 18.824-39.972L156.016 86.6l-18.824 39.971z"/></mask><g mask="url(#dW)"><mask id="dX" width="77" height="67" x="80" y="60" maskUnits="userSpaceOnUse" style="mask-type:luminance"><path fill="#fff" d="m80.888 100.054 18.745-39.802 56.783 26.743-18.745 39.8z"/></mask><g mask="url(#dX)"><mask id="dY" width="61" height="49" x="88" y="69" maskUnits="userSpaceOnUse" style="mask-type:luminance"><path fill="#fff" d="M90.254 80.172c-5.17 10.98 3.258 25.825 18.828 33.158s32.382 4.376 37.554-6.605c5.172-10.978-3.259-25.823-18.829-33.156s-32.382-4.376-37.553 6.603"/></mask><g mask="url(#dY)"><path stroke="#000" stroke-width="2.353" d="M90.253 80.17c-5.17 10.98 3.258 25.825 18.828 33.158s32.383 4.376 37.554-6.605c5.172-10.978-3.259-25.822-18.828-33.155-15.57-7.333-32.383-4.376-37.554 6.603Z"/></g></g></g></g><mask id="dZ" width="56" height="46" x="90" y="71" maskUnits="userSpaceOnUse" style="mask-type:luminance"><path fill="#fff" d="m100.772 71.096 44.255 14.379-10.179 31.326-44.254-14.379z"/></mask><g mask="url(#dZ)"><mask id="ea" width="56" height="50" x="90" y="69" maskUnits="userSpaceOnUse" style="mask-type:luminance"><path fill="#fff" d="m90.194 98.876 13.747-29.188 41.502 19.545-13.747 29.188z"/></mask><g mask="url(#ea)"><mask id="eb" width="45" height="36" x="95" y="76" maskUnits="userSpaceOnUse" style="mask-type:luminance"><path fill="#fff" d="M97.07 84.283c-3.796 8.06 2.392 18.957 13.821 24.339 11.429 5.385 23.773 3.215 27.569-4.845 3.796-8.061-2.393-18.96-13.822-24.342-11.43-5.383-23.772-3.212-27.568 4.848"/></mask><g mask="url(#eb)"><mask id="ec" width="56" height="46" x="90" y="71" maskUnits="userSpaceOnUse" style="mask-type:luminance"><path fill="#fff" d="m145.031 85.477-44.255-14.38-10.178 31.327 44.254 14.379z"/></mask><g mask="url(#ec)"><mask id="ed" width="56" height="46" x="90" y="71" maskUnits="userSpaceOnUse" style="mask-type:luminance"><path fill="#fff" d="m100.778 71.099 44.255 14.379-10.179 31.326L90.6 102.425z"/></mask><g mask="url(#ed)"><mask id="ee" width="56" height="50" x="90" y="69" maskUnits="userSpaceOnUse" style="mask-type:luminance"><path fill="#fff" d="m90.2 98.876 13.746-29.188 41.503 19.545-13.747 29.188z"/></mask><g mask="url(#ee)"><mask id="ef" width="45" height="36" x="95" y="76" maskUnits="userSpaceOnUse" style="mask-type:luminance"><path fill="#fff" d="M97.076 84.282c-3.796 8.06 2.391 18.957 13.821 24.339 11.429 5.385 23.773 3.215 27.569-4.845 3.796-8.061-2.393-18.96-13.823-24.342s-23.771-3.212-27.567 4.848"/></mask><g mask="url(#ef)"><path fill="#000" d="m90.201 98.877 13.746-29.188 41.389 19.491-13.747 29.19z"/></g></g></g></g></g></g></g><mask id="eg" width="56" height="46" x="90" y="71" maskUnits="userSpaceOnUse" style="mask-type:luminance"><path fill="#fff" d="m100.772 71.096 44.255 14.379-10.179 31.326-44.254-14.379z"/></mask><g mask="url(#eg)"><mask id="eh" width="56" height="50" x="90" y="69" maskUnits="userSpaceOnUse" style="mask-type:luminance"><path fill="#fff" d="m90.191 98.876 13.765-29.225 41.26 19.432-13.765 29.224z"/></mask><g mask="url(#eh)"><mask id="ei" width="56" height="50" x="90" y="69" maskUnits="userSpaceOnUse" style="mask-type:luminance"><path fill="#fff" d="m90.192 98.876 13.757-29.214L145.63 89.29l-13.759 29.216z"/></mask><g mask="url(#ei)"><mask id="ej" width="45" height="36" x="95" y="76" maskUnits="userSpaceOnUse" style="mask-type:luminance"><path fill="#fff" d="M97.066 84.284c-3.795 8.059 2.392 18.955 13.82 24.337 11.429 5.384 23.771 3.214 27.567-4.847 3.795-8.058-2.393-18.955-13.822-24.337s-23.769-3.213-27.565 4.847"/></mask><g mask="url(#ej)"><path stroke="#000" stroke-width="2.353" d="M97.064 84.284c-3.795 8.06 2.393 18.955 13.82 24.337 11.43 5.384 23.771 3.214 27.567-4.846s-2.392-18.955-13.822-24.338c-11.428-5.381-23.769-3.213-27.565 4.847Z"/></g></g></g></g><path stroke="#000" stroke-width="1.425" d="m87.511 99.333 3.065-5.287m1.308 13.904 4.373-4.267m4.095 10.774 3.677-4.879m6.331 10.879 2.151-5.72m8.018 7.46 1.32-5.966m9.51 5.264 1.32-5.966"/><mask id="ek" width="50" height="42" x="94" y="74" maskUnits="userSpaceOnUse" style="mask-type:luminance"><path fill="#fff" d="m103.606 74.215 39.78 12.925-9.371 28.84-39.78-12.925z"/></mask><g mask="url(#ek)"><mask id="el" width="52" height="46" x="93" y="72" maskUnits="userSpaceOnUse" style="mask-type:luminance"><path fill="#fff" d="m93.982 99.54 12.631-26.82 37.399 17.615-12.631 26.819z"/></mask><g mask="url(#el)"><mask id="em" width="40" height="33" x="99" y="78" maskUnits="userSpaceOnUse" style="mask-type:luminance"><path fill="#fff" d="M100.301 86.131c-3.49 7.407 2.033 17.342 12.333 22.192 10.3 4.852 21.477 2.78 24.965-4.625 3.487-7.407-2.036-17.342-12.334-22.194-10.3-4.85-21.476-2.778-24.964 4.627"/></mask><g mask="url(#em)"><mask id="en" width="50" height="42" x="94" y="74" maskUnits="userSpaceOnUse" style="mask-type:luminance"><path fill="#fff" d="m143.386 87.14-39.78-12.924-9.37 28.84 39.779 12.925z"/></mask><g mask="url(#en)"><mask id="eo" width="50" height="42" x="94" y="74" maskUnits="userSpaceOnUse" style="mask-type:luminance"><path fill="#fff" d="m103.607 74.217 39.78 12.925-9.371 28.84-39.78-12.925z"/></mask><g mask="url(#eo)"><mask id="ep" width="52" height="46" x="93" y="72" maskUnits="userSpaceOnUse" style="mask-type:luminance"><path fill="#fff" d="m93.983 99.541 12.631-26.819 37.399 17.615-12.631 26.819z"/></mask><g mask="url(#ep)"><mask id="eq" width="40" height="33" x="99" y="78" maskUnits="userSpaceOnUse" style="mask-type:luminance"><path fill="#fff" d="M100.302 86.133c-3.49 7.407 2.033 17.342 12.333 22.192 10.3 4.852 21.477 2.78 24.965-4.625 3.487-7.407-2.036-17.342-12.335-22.194-10.299-4.85-21.475-2.778-24.963 4.627"/></mask><g mask="url(#eq)"><path fill="#a9c5e7" d="m93.984 99.542 12.631-26.819 37.295 17.564-12.631 26.819z"/></g></g></g></g></g></g></g><mask id="er" width="23" height="22" x="108" y="84" maskUnits="userSpaceOnUse" style="mask-type:luminance"><path fill="#fff" d="m113.439 84.557 17.404 5.654-5.009 15.415-17.403-5.655z"/></mask><g mask="url(#er)"><mask id="es" width="23" height="23" x="108" y="84" maskUnits="userSpaceOnUse" style="mask-type:luminance"><path fill="#fff" d="m108.244 93.563 8.681-9.442 13.64 12.539-8.682 9.443z"/></mask><g mask="url(#es)"><mask id="et" width="23" height="23" x="108" y="84" maskUnits="userSpaceOnUse" style="mask-type:luminance"><path fill="#fff" d="m108.243 93.563 8.681-9.442 13.64 12.539-8.682 9.443z"/></mask><g mask="url(#et)"><path fill="#fff" d="M122.486 91.477c-1.008.128-2.173.6-3.485 1.5l-2.285-2.101a5.9 5.9 0 0 1 2.365-.988c.125-.048.25-.095.287-.223a.33.33 0 0 0 .07-.34l-.52-2.344c-.048-.125-.095-.25-.223-.285-.09-.083-.257-.075-.342-.073-1.548.363-2.913 1.053-4.055 2.03l-.482-.444a.47.47 0 0 0-.675.028l-.93 1.012a.47.47 0 0 0 .028.675l.483.442c-.761 1.005-1.135 2.118-1.13 3.26-.032 1.267.48 2.387 1.49 3.317 1.012.93 2.043 1.308 3.135 1.177 1.007-.126 2.088-.595 3.36-1.45l2.373 2.18c-.863.586-1.903.927-3.165 1.064-.125.048-.25.095-.33.183a.32.32 0 0 0-.07.34l.311 2.394c.009.255.269.412.524.403a10 10 0 0 0 5.192-2.121l.835.768a.47.47 0 0 0 .675-.028l.927-1.011a.47.47 0 0 0-.028-.674l-.835-.768c.843-1.092 1.218-2.207 1.252-3.39.032-1.269-.44-2.432-1.45-3.361-1.095-.925-2.17-1.345-3.302-1.172m.965 3.89c.265.242.403.531.378.912-.03.297-.145.597-.3.942l-1.978-1.817c.54-.235.875-.332 1.043-.34.334-.097.594.06.857.302m-8.204-1.22c-.263-.241-.358-.491-.333-.872q-.014-.38.222-.77l1.845 1.697c-.455.23-.747.286-.917.29-.337.016-.553-.102-.817-.344"/></g></g></g></g><mask id="eu" width="117" height="116" x="2" y="72" maskUnits="userSpaceOnUse" style="mask-type:luminance"><path fill="#fff" d="M118.188 100.392 31.171 72.118 2.736 159.632l87.017 28.274z"/></mask><g mask="url(#eu)"><mask id="ev" width="769" height="770" x="-279" y="-263" maskUnits="userSpaceOnUse" style="mask-type:luminance"><path fill="#000" fill-opacity=".13" d="m489.836-73.62-579.98-188.447-188.448 579.98L301.389 506.36z"/></mask><g mask="url(#ev)"><mask id="ew" width="82" height="82" x="24" y="93" maskUnits="userSpaceOnUse" style="mask-type:luminance"><path fill="#fff" d="m105.224 113.221-61.16-19.872-19.873 61.16 61.16 19.872z"/></mask><g mask="url(#ew)"><mask id="ex" width="59" height="58" x="35" y="105" maskUnits="userSpaceOnUse" style="mask-type:luminance"><path fill="#fff" d="m49.61 105.047 44.255 14.379-14.056 43.26-44.255-14.379z"/></mask><g mask="url(#ex)"><mask id="ey" width="65" height="58" x="32" y="105" maskUnits="userSpaceOnUse" style="mask-type:luminance"><path fill="#fff" d="m32.994 128.399 47.653-22.71 16.015 33.607-47.653 22.71z"/></mask><g mask="url(#ey)"><mask id="ez" width="51" height="42" x="39" y="113" maskUnits="userSpaceOnUse" style="mask-type:luminance"><path fill="#fff" d="M56.77 117.068c-13.134 6.257-20.192 18.854-15.771 28.135 4.423 9.279 18.654 11.73 31.786 5.47 13.131-6.258 20.192-18.854 15.768-28.133-4.42-9.281-18.652-11.732-31.784-5.472"/></mask><g mask="url(#ez)"><mask id="eA" width="59" height="58" x="35" y="105" maskUnits="userSpaceOnUse" style="mask-type:luminance"><path fill="#fff" d="m93.86 119.425-44.254-14.379-14.056 43.26 44.254 14.379z"/></mask><g mask="url(#eA)"><mask id="eB" width="59" height="58" x="35" y="105" maskUnits="userSpaceOnUse" style="mask-type:luminance"><path fill="#fff" d="m49.605 105.046 44.254 14.379-14.056 43.26-44.254-14.379z"/></mask><g mask="url(#eB)"><mask id="eC" width="65" height="58" x="32" y="105" maskUnits="userSpaceOnUse" style="mask-type:luminance"><path fill="#fff" d="m32.992 128.399 47.653-22.71 16.016 33.607-47.654 22.71z"/></mask><g mask="url(#eC)"><mask id="eD" width="51" height="42" x="39" y="113" maskUnits="userSpaceOnUse" style="mask-type:luminance"><path fill="#fff" d="M56.767 117.068c-13.133 6.257-20.191 18.854-15.77 28.135 4.423 9.279 18.654 11.73 31.786 5.47 13.131-6.258 20.192-18.854 15.768-28.133-4.42-9.281-18.652-11.732-31.784-5.472"/></mask><g mask="url(#eD)"><path fill="#000" d="m32.992 128.4 47.521-22.648 16.015 33.607-47.521 22.648z"/></g></g></g></g></g></g></g></g></g><mask id="eE" width="59" height="59" x="32" y="103" maskUnits="userSpaceOnUse" style="mask-type:luminance"><path fill="#fff" d="m46.126 103.914 44.752 14.541-14.056 43.26-44.752-14.541z"/></mask><g mask="url(#eE)"><mask id="eF" width="64" height="56" x="30" y="105" maskUnits="userSpaceOnUse" style="mask-type:luminance"><path fill="#fff" d="m44.734 160.251-14.65-34.132 48.531-20.834 14.653 34.133z"/></mask><g mask="url(#eF)"><mask id="eG" width="51" height="41" x="36" y="112" maskUnits="userSpaceOnUse" style="mask-type:luminance"><path fill="#fff" d="M37.406 143.185c4.048 9.426 18.162 12.416 31.527 6.679s20.923-18.03 16.877-27.455c-4.047-9.426-18.162-12.414-31.527-6.677S33.36 133.76 37.406 143.185"/></mask><g mask="url(#eG)"><mask id="eH" width="59" height="59" x="32" y="103" maskUnits="userSpaceOnUse" style="mask-type:luminance"><path fill="#fff" d="m90.874 118.455-44.752-14.541-14.056 43.26 44.752 14.541z"/></mask><g mask="url(#eH)"><mask id="eI" width="59" height="59" x="32" y="103" maskUnits="userSpaceOnUse" style="mask-type:luminance"><path fill="#fff" d="m46.12 103.914 44.752 14.541-14.056 43.26-44.752-14.541z"/></mask><g mask="url(#eI)"><mask id="eJ" width="64" height="56" x="30" y="105" maskUnits="userSpaceOnUse" style="mask-type:luminance"><path fill="#fff" d="M44.73 160.252 30.078 126.12l48.532-20.834 14.652 34.133z"/></mask><g mask="url(#eJ)"><mask id="eK" width="51" height="41" x="36" y="112" maskUnits="userSpaceOnUse" style="mask-type:luminance"><path fill="#fff" d="M37.401 143.188c4.048 9.426 18.162 12.416 31.527 6.679s20.923-18.03 16.877-27.455c-4.047-9.426-18.162-12.414-31.527-6.677S33.356 133.763 37.4 143.188"/></mask><g mask="url(#eK)"><path fill="#fff" d="m44.729 160.253-14.65-34.133 48.398-20.775 14.651 34.132z"/></g></g></g></g></g></g></g><mask id="eL" width="59" height="59" x="32" y="103" maskUnits="userSpaceOnUse" style="mask-type:luminance"><path fill="#fff" d="m46.126 103.914 44.752 14.541-14.056 43.26-44.752-14.541z"/></mask><g mask="url(#eL)"><mask id="eM" width="64" height="56" x="30" y="105" maskUnits="userSpaceOnUse" style="mask-type:luminance"><path fill="#fff" d="m44.73 160.25-14.727-34.312 48.331-20.744 14.728 34.31z"/></mask><g mask="url(#eM)"><mask id="eN" width="64" height="56" x="30" y="105" maskUnits="userSpaceOnUse" style="mask-type:luminance"><path fill="#fff" d="m44.729 160.25-14.665-34.167 48.743-20.922 14.666 34.166z"/></mask><g mask="url(#eN)"><mask id="eO" width="51" height="41" x="36" y="112" maskUnits="userSpaceOnUse" style="mask-type:luminance"><path fill="#fff" d="M37.404 143.185c4.046 9.425 18.16 12.415 31.525 6.678 13.366-5.737 20.92-18.029 16.874-27.454-4.045-9.425-18.159-12.416-31.524-6.678-13.366 5.737-20.922 18.028-16.875 27.454"/></mask><g mask="url(#eO)"><path stroke="#000" stroke-width="2.353" d="M37.404 143.184c4.046 9.425 18.16 12.416 31.525 6.679 13.366-5.738 20.92-18.029 16.874-27.454-4.045-9.426-18.159-12.416-31.524-6.679s-20.922 18.028-16.875 27.454Z"/></g></g></g></g><mask id="eP" width="59" height="59" x="30" y="98" maskUnits="userSpaceOnUse" style="mask-type:luminance"><path fill="#fff" d="m43.939 98.806 44.751 14.54-13.894 42.763-44.752-14.541z"/></mask><g mask="url(#eP)"><mask id="eQ" width="65" height="56" x="27" y="100" maskUnits="userSpaceOnUse" style="mask-type:luminance"><path fill="#fff" d="m42.6 155.039-14.653-34.133 48.534-20.833 14.65 34.133z"/></mask><g mask="url(#eQ)"><mask id="eR" width="51" height="41" x="34" y="107" maskUnits="userSpaceOnUse" style="mask-type:luminance"><path fill="#fff" d="M35.274 137.973c4.045 9.426 18.162 12.415 31.527 6.677s20.92-18.028 16.874-27.454c-4.045-9.425-18.159-12.415-31.524-6.678-13.368 5.737-20.923 18.03-16.877 27.455"/></mask><g mask="url(#eR)"><mask id="eS" width="59" height="59" x="30" y="98" maskUnits="userSpaceOnUse" style="mask-type:luminance"><path fill="#fff" d="m88.69 113.347-44.752-14.54-13.895 42.762 44.752 14.541z"/></mask><g mask="url(#eS)"><mask id="eT" width="59" height="59" x="30" y="98" maskUnits="userSpaceOnUse" style="mask-type:luminance"><path fill="#fff" d="m43.937 98.807 44.751 14.54-13.894 42.763-44.752-14.541z"/></mask><g mask="url(#eT)"><mask id="eU" width="65" height="56" x="27" y="100" maskUnits="userSpaceOnUse" style="mask-type:luminance"><path fill="#fff" d="m42.599 155.04-14.653-34.133 48.534-20.833 14.65 34.133z"/></mask><g mask="url(#eU)"><mask id="eV" width="51" height="41" x="34" y="107" maskUnits="userSpaceOnUse" style="mask-type:luminance"><path fill="#fff" d="M35.273 137.974c4.045 9.425 18.162 12.415 31.527 6.677s20.92-18.028 16.874-27.454c-4.045-9.425-18.159-12.415-31.524-6.678-13.368 5.736-20.923 18.03-16.877 27.455"/></mask><g mask="url(#eV)"><path fill="#fff" d="m42.599 155.041-14.653-34.133 48.402-20.775 14.65 34.132z"/></g></g></g></g></g></g></g><mask id="eW" width="59" height="59" x="30" y="98" maskUnits="userSpaceOnUse" style="mask-type:luminance"><path fill="#fff" d="m43.939 98.806 44.751 14.54-13.894 42.763-44.752-14.541z"/></mask><g mask="url(#eW)"><mask id="eX" width="64" height="57" x="27" y="99" maskUnits="userSpaceOnUse" style="mask-type:luminance"><path fill="#fff" d="m42.596 155.038-14.728-34.312 48.33-20.745 14.728 34.31z"/></mask><g mask="url(#eX)"><mask id="eY" width="65" height="57" x="27" y="99" maskUnits="userSpaceOnUse" style="mask-type:luminance"><path fill="#fff" d="m42.596 155.036-14.664-34.165 48.743-20.922 14.666 34.166z"/></mask><g mask="url(#eY)"><mask id="eZ" width="51" height="41" x="34" y="107" maskUnits="userSpaceOnUse" style="mask-type:luminance"><path fill="#fff" d="M35.272 137.972c4.046 9.425 18.16 12.414 31.525 6.679 13.365-5.738 20.922-18.029 16.876-27.454-4.047-9.426-18.161-12.416-31.527-6.679-13.363 5.738-20.92 18.029-16.874 27.454"/></mask><g mask="url(#eZ)"><path stroke="#000" stroke-width="2.353" d="M35.271 137.971c4.046 9.426 18.16 12.414 31.525 6.679 13.366-5.737 20.922-18.029 16.877-27.454-4.048-9.426-18.162-12.416-31.527-6.679-13.364 5.738-20.92 18.029-16.875 27.454Z"/></g></g></g></g><mask id="fa" width="45" height="43" x="37" y="107" maskUnits="userSpaceOnUse" style="mask-type:luminance"><path fill="#fff" d="m47.805 107.208 33.315 10.825-10.179 31.326-33.315-10.825z"/></mask><g mask="url(#fa)"><mask id="fb" width="47" height="41" x="36" y="108" maskUnits="userSpaceOnUse" style="mask-type:luminance"><path fill="#fff" d="m47.068 148.496-10.755-25.057 35.627-15.292 10.754 25.056z"/></mask><g mask="url(#fb)"><mask id="fc" width="39" height="31" x="40" y="113" maskUnits="userSpaceOnUse" style="mask-type:luminance"><path fill="#fff" d="M41.693 135.967c2.97 6.92 13.33 9.114 23.142 4.904 9.81-4.212 15.358-13.235 12.388-20.155-2.97-6.918-13.331-9.114-23.143-4.902s-15.358 13.235-12.387 20.153"/></mask><g mask="url(#fc)"><mask id="fd" width="45" height="43" x="37" y="107" maskUnits="userSpaceOnUse" style="mask-type:luminance"><path fill="#fff" d="m81.117 118.033-33.315-10.825-10.179 31.326 33.315 10.825z"/></mask><g mask="url(#fd)"><mask id="fe" width="45" height="43" x="37" y="107" maskUnits="userSpaceOnUse" style="mask-type:luminance"><path fill="#fff" d="m47.8 107.208 33.315 10.825-10.179 31.326-33.315-10.825z"/></mask><g mask="url(#fe)"><mask id="ff" width="47" height="41" x="36" y="108" maskUnits="userSpaceOnUse" style="mask-type:luminance"><path fill="#fff" d="m47.063 148.495-10.755-25.057 35.627-15.292 10.754 25.056z"/></mask><g mask="url(#ff)"><mask id="fg" width="39" height="31" x="40" y="113" maskUnits="userSpaceOnUse" style="mask-type:luminance"><path fill="#fff" d="M41.686 135.966c2.97 6.92 13.331 9.114 23.143 4.904 9.81-4.212 15.357-13.235 12.387-20.155-2.97-6.917-13.331-9.114-23.143-4.902s-15.358 13.235-12.387 20.153"/></mask><g mask="url(#fg)"><path fill="#000" d="m47.063 148.495-10.756-25.056 35.528-15.25 10.756 25.055z"/></g></g></g></g></g></g></g><mask id="fh" width="45" height="43" x="37" y="107" maskUnits="userSpaceOnUse" style="mask-type:luminance"><path fill="#fff" d="m47.805 107.208 33.315 10.825-10.179 31.326-33.315-10.825z"/></mask><g mask="url(#fh)"><mask id="fi" width="47" height="41" x="36" y="108" maskUnits="userSpaceOnUse" style="mask-type:luminance"><path fill="#fff" d="m47.068 148.495-10.77-25.089 35.418-15.202 10.77 25.087z"/></mask><g mask="url(#fi)"><mask id="fj" width="47" height="41" x="36" y="108" maskUnits="userSpaceOnUse" style="mask-type:luminance"><path fill="#fff" d="m47.07 148.495-10.766-25.08 35.779-15.356 10.764 25.076z"/></mask><g mask="url(#fj)"><mask id="fk" width="39" height="31" x="40" y="113" maskUnits="userSpaceOnUse" style="mask-type:luminance"><path fill="#fff" d="M41.69 135.968c2.97 6.917 13.331 9.113 23.141 4.901 9.81-4.21 15.357-13.233 12.386-20.151s-13.329-9.113-23.139-4.901c-9.811 4.21-15.356 13.232-12.388 20.151"/></mask><g mask="url(#fk)"><path stroke="#000" stroke-width="2.353" d="M41.693 135.968c2.97 6.917 13.33 9.113 23.14 4.901s15.357-13.233 12.387-20.151-13.33-9.113-23.14-4.901c-9.81 4.21-15.355 13.232-12.387 20.151Z"/></g></g></g></g><path stroke="#000" stroke-width="1.204" d="m45.854 150.445-1.627-4.901m9.527 6.966-.248-5.157m9.11 3.452-1.023-5.061m10.429 2.093-2.413-4.565m9.214-.892-3.034-4.178m8.661-3.064-3.034-4.179"/><mask id="fl" width="40" height="40" x="41" y="108" maskUnits="userSpaceOnUse" style="mask-type:luminance"><path fill="#fff" d="m50.629 108.676 29.834 9.694-9.37 28.839-29.835-9.693z"/></mask><g mask="url(#fl)"><mask id="fm" width="43" height="38" x="39" y="109" maskUnits="userSpaceOnUse" style="mask-type:luminance"><path fill="#fff" d="m49.611 146.468-9.882-23.02 32.105-13.783 9.881 23.023z"/></mask><g mask="url(#fm)"><mask id="fn" width="35" height="28" x="43" y="114" maskUnits="userSpaceOnUse" style="mask-type:luminance"><path fill="#fff" d="M44.67 134.958c2.73 6.358 12.11 8.435 20.95 4.64 8.842-3.795 13.796-12.024 11.07-18.382-2.73-6.358-12.11-8.435-20.95-4.64-8.842 3.795-13.797 12.026-11.07 18.382"/></mask><g mask="url(#fn)"><mask id="fo" width="40" height="40" x="41" y="108" maskUnits="userSpaceOnUse" style="mask-type:luminance"><path fill="#fff" d="m80.464 118.372-29.834-9.694-9.37 28.84 29.834 9.693z"/></mask><g mask="url(#fo)"><mask id="fp" width="40" height="40" x="41" y="108" maskUnits="userSpaceOnUse" style="mask-type:luminance"><path fill="#fff" d="m50.632 108.679 29.834 9.693-9.37 28.84-29.835-9.693z"/></mask><g mask="url(#fp)"><mask id="fq" width="43" height="38" x="39" y="109" maskUnits="userSpaceOnUse" style="mask-type:luminance"><path fill="#fff" d="m49.614 146.471-9.882-23.02 32.105-13.783 9.881 23.023z"/></mask><g mask="url(#fq)"><mask id="fr" width="35" height="28" x="43" y="114" maskUnits="userSpaceOnUse" style="mask-type:luminance"><path fill="#fff" d="M44.67 134.961c2.73 6.358 12.11 8.435 20.95 4.64 8.842-3.795 13.796-12.024 11.07-18.382-2.73-6.359-12.11-8.435-20.95-4.64-8.842 3.795-13.797 12.026-11.07 18.382"/></mask><g mask="url(#fr)"><path fill="#a9c5e7" d="m49.613 146.473-9.882-23.021 32.015-13.743 9.88 23.022z"/></g></g></g></g></g></g></g><mask id="fs" width="20" height="18" x="51" y="119" maskUnits="userSpaceOnUse" style="mask-type:luminance"><path fill="#fff" d="m55.838 119.713 14.42 4.685-3.878 11.934-14.42-4.685z"/></mask><g mask="url(#fs)"><mask id="ft" width="18" height="14" x="52" y="121" maskUnits="userSpaceOnUse" style="mask-type:luminance"><path fill="#fff" d="m53.829 134.101-1.107-10.785 15.576-1.596 1.107 10.783z"/></mask><g mask="url(#ft)"><mask id="fu" width="18" height="14" x="52" y="121" maskUnits="userSpaceOnUse" style="mask-type:luminance"><path fill="#fff" d="m53.83 134.101-1.107-10.785L68.3 121.72l1.107 10.783z"/></mask><g mask="url(#fu)"><path fill="#fff" d="M60.493 123.923c-.486.709-.84 1.709-1.006 3.044l-2.61.269q.117-1.079.702-2.05c.039-.106.08-.213.02-.307a.28.28 0 0 0-.176-.236l-1.774-.984c-.108-.04-.213-.08-.308-.019-.1.011-.19.121-.235.175a8 8 0 0 0-.99 3.703l-.551.057a.397.397 0 0 0-.361.443l.119 1.153c.02.202.19.386.441.36l.553-.056c.209 1.045.702 1.905 1.427 2.542.785.73 1.78 1.034 2.935.915 1.152-.117 1.971-.556 2.5-1.32.485-.71.794-1.655.966-2.939l2.71-.279c-.111.874-.482 1.724-1.101 2.599-.04.105-.081.21-.07.31a.27.27 0 0 0 .176.235l1.69 1.146c.166.136.412.059.547-.105a8.45 8.45 0 0 0 1.569-4.473l.953-.098a.397.397 0 0 0 .36-.443l-.118-1.153a.397.397 0 0 0-.442-.361l-.953.099c-.218-1.145-.713-2.008-1.442-2.694-.787-.73-1.786-1.085-2.94-.965-1.2.172-2.066.617-2.59 1.432m3 1.569a.91.91 0 0 1 .789.274c.172.184.297.425.428.717l-2.258.23c.155-.472.28-.738.37-.848.125-.267.37-.342.67-.373m-5.37 4.504c-.3.032-.51-.048-.739-.278a1.16 1.16 0 0 1-.362-.571l2.109-.217c-.11.417-.241.635-.33.745-.182.221-.377.292-.678.321"/></g></g></g></g></g><defs><clipPath id="a"><path fill="#fff" d="M54.387 0 217.67 53.054 163.283 220.44 0 167.386z"/></clipPath></defs></svg>