<svg width="26" height="26" viewBox="0 0 26 26" fill="none" xmlns="http://www.w3.org/2000/svg">
<path d="M12.9884 2.62677L22.4089 6.39497C22.7753 6.54151 23.0684 6.98113 23.0684 7.36842V10.8436C23.0684 11.4193 22.5973 11.8903 22.0216 11.8903H3.18052C2.60482 11.8903 2.13379 11.4193 2.13379 10.8436V7.36842C2.13379 6.98113 2.42688 6.54151 2.79323 6.39497L12.2138 2.62677C12.4231 2.54303 12.779 2.54303 12.9884 2.62677Z" stroke="#004040" stroke-width="1.57009" stroke-miterlimit="10" stroke-linecap="round" stroke-linejoin="round"/>
<path d="M23.0684 23.4047H2.13379V20.2645C2.13379 19.6888 2.60482 19.2178 3.18052 19.2178H22.0216C22.5973 19.2178 23.0684 19.6888 23.0684 20.2645V23.4047Z" stroke="#004040" stroke-width="1.57009" stroke-miterlimit="10" stroke-linecap="round" stroke-linejoin="round"/>
<path d="M4.22656 19.2177V11.8906" stroke="#004040" stroke-width="1.57009" stroke-miterlimit="10" stroke-linecap="round" stroke-linejoin="round"/>
<path d="M8.41406 19.2177V11.8906" stroke="#004040" stroke-width="1.57009" stroke-miterlimit="10" stroke-linecap="round" stroke-linejoin="round"/>
<path d="M12.6006 19.2177V11.8906" stroke="#004040" stroke-width="1.57009" stroke-miterlimit="10" stroke-linecap="round" stroke-linejoin="round"/>
<path d="M16.7881 19.2177V11.8906" stroke="#004040" stroke-width="1.57009" stroke-miterlimit="10" stroke-linecap="round" stroke-linejoin="round"/>
<path d="M20.9746 19.2177V11.8906" stroke="#004040" stroke-width="1.57009" stroke-miterlimit="10" stroke-linecap="round" stroke-linejoin="round"/>
<path d="M1.08691 23.4043H24.115" stroke="#004040" stroke-width="1.57009" stroke-miterlimit="10" stroke-linecap="round" stroke-linejoin="round"/>
<path d="M12.6004 9.27349C13.4675 9.27349 14.1705 8.57053 14.1705 7.70339C14.1705 6.83626 13.4675 6.1333 12.6004 6.1333C11.7332 6.1333 11.0303 6.83626 11.0303 7.70339C11.0303 8.57053 11.7332 9.27349 12.6004 9.27349Z" stroke="#004040" stroke-width="1.57009" stroke-miterlimit="10" stroke-linecap="round" stroke-linejoin="round"/>
</svg>
