<svg xmlns="http://www.w3.org/2000/svg" width="1077" height="379" fill="none" viewBox="0 0 1077 379"><g clip-path="url(#a)"><rect width="1072.47" height="375.149" x="2" y="2" fill="#fff" rx="8.546"/><path fill="url(#b)" fill-opacity=".38" d="M250.676-51.837h574.261v442.022H250.676z"/><mask id="c" width="222" height="267" x="421" y="-113" maskUnits="userSpaceOnUse" style="mask-type:luminance"><path fill="#fff" d="M421.582-112.8h221.09v266.29h-221.09z"/></mask><g mask="url(#c)"><mask id="d" width="223" height="267" x="421" y="-113" maskUnits="userSpaceOnUse" style="mask-type:luminance"><path fill="#fff" d="M503.772-112.8h57.044c45.393 0 82.19 36.797 82.19 82.19V71.305c0 45.389-36.797 82.186-82.19 82.186h-57.044c-45.393 0-82.19-36.797-82.19-82.186V-30.61c0-45.393 36.797-82.19 82.19-82.19"/></mask><g mask="url(#d)"><path stroke="#000" stroke-opacity=".81" stroke-width="14.794" d="M503.772-112.8h57.044c45.393 0 82.19 36.797 82.19 82.19V71.305c0 45.389-36.797 82.186-82.19 82.186h-57.044c-45.393 0-82.19-36.797-82.19-82.186V-30.61c0-45.393 36.797-82.19 82.19-82.19Z"/></g></g><mask id="e" width="166" height="242" x="451" y="-80" maskUnits="userSpaceOnUse" style="mask-type:luminance"><path fill="#fff" d="M451.402-79.475h165.202V161.84H451.402z"/></mask><g mask="url(#e)"><mask id="f" width="166" height="242" x="451" y="-80" maskUnits="userSpaceOnUse" style="mask-type:luminance"><path fill="#fff" d="M533.588-79.475h.984c45.389 0 82.186 36.797 82.186 82.185v76.929c0 45.388-36.797 82.185-82.186 82.185h-.984c-45.393 0-82.186-36.797-82.186-82.185V2.71c0-45.388 36.793-82.185 82.186-82.185"/></mask><g mask="url(#f)"><path stroke="#000" stroke-opacity=".81" stroke-width="14.794" d="M533.588-79.475h.984c45.389 0 82.186 36.797 82.186 82.185v76.929c0 45.388-36.797 82.185-82.186 82.185h-.984c-45.393 0-82.186-36.797-82.186-82.185V2.71c0-45.388 36.793-82.185 82.186-82.185Z"/></g></g><mask id="g" width="325" height="326" x="375" y="21" maskUnits="userSpaceOnUse" style="mask-type:luminance"><path fill="#fff" d="M375.042 21.73h324.504v324.499H375.042z"/></mask><g mask="url(#g)"><mask id="h" width="325" height="326" x="375" y="21" maskUnits="userSpaceOnUse" style="mask-type:luminance"><path fill="#fff" d="M537.294 21.73c-89.608 0-162.252 72.639-162.252 162.247s72.644 162.252 162.252 162.252 162.252-72.644 162.252-162.252S626.902 21.73 537.294 21.73"/></mask><g mask="url(#h)"><mask id="i" width="327" height="327" x="374" y="20" maskUnits="userSpaceOnUse" style="mask-type:luminance"><path fill="#fff" d="M700.578 20.93H374.011V346.4h326.567z"/></mask><g mask="url(#i)"><mask id="j" width="325" height="326" x="375" y="21" maskUnits="userSpaceOnUse" style="mask-type:luminance"><path fill="#fff" d="M375.042 21.73h324.504v324.499H375.042z"/></mask><g mask="url(#j)"><mask id="k" width="325" height="326" x="375" y="21" maskUnits="userSpaceOnUse" style="mask-type:luminance"><path fill="#fff" d="M537.294 21.73c-89.608 0-162.252 72.64-162.252 162.247s72.644 162.252 162.252 162.252 162.252-72.644 162.252-162.252S626.902 21.73 537.294 21.73"/></mask><g mask="url(#k)"><path fill="#fff" d="M375.042 21.73h324.504v324.499H375.042z"/></g></g></g></g></g><mask id="l" width="325" height="326" x="375" y="21" maskUnits="userSpaceOnUse" style="mask-type:luminance"><path fill="#fff" d="M375.042 21.73h324.495v324.494H375.042z"/></mask><g mask="url(#l)"><mask id="m" width="325" height="326" x="375" y="21" maskUnits="userSpaceOnUse" style="mask-type:luminance"><path fill="#fff" d="M537.289 21.73c-89.603 0-162.247 72.639-162.247 162.247 0 89.604 72.644 162.247 162.247 162.247 89.609 0 162.248-72.643 162.248-162.247 0-89.608-72.639-162.247-162.248-162.247"/></mask><g mask="url(#m)"><path stroke="#000" stroke-opacity=".81" stroke-width="13.15" d="M537.289 21.73c-89.603 0-162.247 72.639-162.247 162.247 0 89.604 72.644 162.247 162.247 162.247 89.609 0 162.248-72.643 162.248-162.247 0-89.608-72.639-162.247-162.248-162.247Z"/></g></g><mask id="n" width="302" height="302" x="391" y="35" maskUnits="userSpaceOnUse" style="mask-type:luminance"><path fill="#fff" d="M391.317 35.65h300.806v300.81H391.317z"/></mask><g mask="url(#n)"><mask id="o" width="302" height="302" x="391" y="35" maskUnits="userSpaceOnUse" style="mask-type:luminance"><path fill="#fff" d="M541.72 35.65c-83.067 0-150.403 67.34-150.403 150.402 0 83.068 67.336 150.407 150.403 150.407s150.403-67.339 150.403-150.407c0-83.062-67.336-150.402-150.403-150.402"/></mask><g mask="url(#o)"><mask id="p" width="303" height="302" x="390" y="35" maskUnits="userSpaceOnUse" style="mask-type:luminance"><path fill="#fff" d="M692.906 35.175H390.448v301.362h302.458z"/></mask><g mask="url(#p)"><mask id="q" width="302" height="302" x="391" y="35" maskUnits="userSpaceOnUse" style="mask-type:luminance"><path fill="#fff" d="M391.317 35.65h300.806v300.809H391.317z"/></mask><g mask="url(#q)"><mask id="r" width="302" height="302" x="391" y="35" maskUnits="userSpaceOnUse" style="mask-type:luminance"><path fill="#fff" d="M541.72 35.649c-83.067 0-150.403 67.34-150.403 150.403 0 83.067 67.336 150.407 150.403 150.407s150.403-67.34 150.403-150.407c0-83.063-67.336-150.403-150.403-150.403"/></mask><g mask="url(#r)"><path fill="#abc7e9" fill-opacity=".84" d="M391.317 35.649h300.806v300.81H391.317z"/></g></g></g></g></g><mask id="s" width="245" height="245" x="414" y="60" maskUnits="userSpaceOnUse" style="mask-type:luminance"><path fill="#fff" d="M414.745 60.607h243.453V304.06H414.745z"/></mask><g mask="url(#s)"><mask id="t" width="245" height="245" x="414" y="60" maskUnits="userSpaceOnUse" style="mask-type:luminance"><path fill="#fff" d="M536.471 60.607c-67.228 0-121.726 54.498-121.726 121.726S469.243 304.06 536.471 304.06s121.727-54.498 121.727-121.727c0-67.228-54.498-121.726-121.727-121.726"/></mask><g mask="url(#t)"><mask id="u" width="245" height="245" x="414" y="60" maskUnits="userSpaceOnUse" style="mask-type:luminance"><path fill="#fff" d="M658.934 60.38H414.557v244.377h244.377z"/></mask><g mask="url(#u)"><mask id="v" width="245" height="245" x="414" y="60" maskUnits="userSpaceOnUse" style="mask-type:luminance"><path fill="#fff" d="M414.745 60.606h243.453V304.06H414.745z"/></mask><g mask="url(#v)"><mask id="w" width="245" height="245" x="414" y="60" maskUnits="userSpaceOnUse" style="mask-type:luminance"><path fill="#fff" d="M536.471 60.606c-67.228 0-121.726 54.498-121.726 121.727 0 67.228 54.498 121.726 121.726 121.726s121.727-54.498 121.727-121.726S603.7 60.606 536.471 60.606"/></mask><g mask="url(#w)"><path fill="#fff" d="M414.745 60.606h243.453V304.06H414.745z"/></g></g></g></g></g><mask id="x" width="245" height="244" x="414" y="60" maskUnits="userSpaceOnUse" style="mask-type:luminance"><path fill="#fff" d="M414.745 60.607h243.281v243.281H414.745z"/></mask><g mask="url(#x)"><mask id="y" width="245" height="245" x="414" y="60" maskUnits="userSpaceOnUse" style="mask-type:luminance"><path fill="#fff" d="M536.471 60.607c-67.228 0-121.726 54.498-121.726 121.726 0 67.225 54.498 121.722 121.726 121.722 67.225 0 121.722-54.497 121.722-121.722 0-67.228-54.497-121.726-121.722-121.726"/></mask><g mask="url(#y)"><path stroke="#000" stroke-opacity=".81" stroke-width="13.15" d="M536.471 60.607c-67.228 0-121.726 54.498-121.726 121.726 0 67.225 54.498 121.722 121.726 121.722 67.225 0 121.722-54.497 121.722-121.722 0-67.228-54.497-121.726-121.722-121.726Z"/></g></g><mask id="z" width="212" height="213" x="432" y="75" maskUnits="userSpaceOnUse" style="mask-type:luminance"><path fill="#fff" d="M432.092 75.722h211.501v211.501H432.092z"/></mask><g mask="url(#z)"><mask id="A" width="225" height="225" x="426" y="69" maskUnits="userSpaceOnUse" style="mask-type:luminance"><path fill="#fff" d="m440.404 69.456 209.922 14.22-14.216 209.922-209.926-14.216z"/></mask><g mask="url(#A)"><mask id="B" width="225" height="225" x="426" y="69" maskUnits="userSpaceOnUse" style="mask-type:luminance"><path fill="#fff" d="m440.404 69.456 209.601 14.2-14.195 209.6-209.605-14.195z"/></mask><g mask="url(#B)"><mask id="C" width="211" height="211" x="433" y="76" maskUnits="userSpaceOnUse" style="mask-type:luminance"><path fill="#fff" d="M545.205 76.553c-57.879-3.917-107.98 39.823-111.902 97.707-3.916 57.879 39.824 107.976 97.708 111.898 57.879 3.921 107.976-39.824 111.897-97.703S603.085 80.474 545.205 76.553"/></mask><g mask="url(#C)"><path fill="#000" fill-opacity=".81" d="M538.587 79.6a98 98 0 0 0-3.168.03l-.167-6.57a98 98 0 0 1 3.373-.034zm-6.361.16a108 108 0 0 0-3.181.23l-.578-6.55a111 111 0 0 1 3.39-.243zm-6.34.56c-1.053.124-2.106.27-3.155.428l-.989-6.502c1.117-.167 2.239-.322 3.361-.454zm-6.301.959a86 86 0 0 0-3.121.625l-1.391-6.426c1.1-.24 2.209-.462 3.317-.667zm-6.216 1.348q-1.548.385-3.082.822l-1.798-6.323a95 95 0 0 1 3.283-.877zm-6.13 1.742q-1.516.484-3.013 1.01l-2.192-6.198a109 109 0 0 1 3.21-1.078zm-6.006 2.124c-.989.385-1.969.783-2.949 1.198l-2.577-6.048q1.561-.663 3.142-1.28zm-5.851 2.491c-.968.45-1.922.912-2.873 1.387l-2.953-5.873q1.52-.765 3.06-1.477zm-5.698 2.864a98 98 0 0 0-2.774 1.558l-3.313-5.68q1.464-.854 2.953-1.661zm-5.501 3.21a98 98 0 0 0-2.675 1.73l-3.66-5.462q1.407-.944 2.846-1.841zm-5.291 3.545a94 94 0 0 0-2.56 1.896l-3.993-5.222a99 99 0 0 1 2.722-2.02zm-5.064 3.87q-1.234 1.01-2.436 2.05l-4.31-4.966a96 96 0 0 1 2.594-2.178zm-4.807 4.178a100 100 0 0 0-2.307 2.2l-4.611-4.688a98 98 0 0 1 2.453-2.341zm-4.542 4.469a94 94 0 0 0-2.166 2.337l-4.893-4.392q1.13-1.26 2.303-2.487zm-4.255 4.738c-.685.814-1.357 1.64-2.016 2.47l-5.158-4.075q1.053-1.33 2.144-2.628zm-3.951 5c-.629.852-1.25 1.717-1.854 2.586l-5.402-3.746q.964-1.392 1.974-2.752zm-3.63 5.236a98 98 0 0 0-1.687 2.696l-5.629-3.399a96 96 0 0 1 1.798-2.872zm-3.292 5.449a100 100 0 0 0-1.52 2.804l-5.83-3.04a120 120 0 0 1 1.618-2.988zm-2.945 5.646a94 94 0 0 0-1.336 2.885l-6.01-2.667q.688-1.546 1.421-3.073zm-2.586 5.822a103 103 0 0 0-1.151 2.971l-6.164-2.286q.585-1.587 1.228-3.159zm-2.204 5.967a108 108 0 0 0-.968 3.039l-6.297-1.892q.488-1.624 1.028-3.236zm-1.837 6.109a111 111 0 0 0-.766 3.078l-6.404-1.49c.257-1.1.527-2.192.818-3.279zm-1.438 6.194a97 97 0 0 0-.578 3.146l-6.485-1.083q.284-1.682.612-3.352zm-1.053 6.275a99 99 0 0 0-.381 3.164l-6.541-.681c.12-1.126.253-2.247.407-3.364zm-.663 6.353-.043.582a108 108 0 0 0-.142 2.637l-6.57-.278q.057-1.407.154-2.821l.042-.582zm-.27 6.408a96 96 0 0 0 .013 3.172l-6.575.133a109 109 0 0 1-.013-3.378zm.124 6.357q.084 1.598.214 3.189l-6.554.54c-.094-1.13-.167-2.261-.227-3.395zm.527 6.353a95 95 0 0 0 .41 3.15l-6.506.951a112 112 0 0 1-.437-3.356zm.92 6.301c.188 1.044.389 2.089.608 3.125l-6.434 1.357a112 112 0 0 1-.647-3.322zm1.314 6.22c.253 1.036.522 2.063.809 3.09l-6.335 1.764a114 114 0 0 1-.861-3.292zm1.708 6.143c.317 1.01.646 2.016.997 3.017l-6.211 2.158a105 105 0 0 1-1.061-3.215zm2.089 6.014q.57 1.489 1.186 2.958l-6.062 2.543a112 112 0 0 1-1.262-3.147zm2.461 5.869c.446.967.899 1.926 1.375 2.881l-5.891 2.919a100 100 0 0 1-1.464-3.069zm2.834 5.715q.75 1.398 1.546 2.778l-5.698 3.283q-.846-1.468-1.648-2.962zm3.177 5.517q.84 1.355 1.72 2.684l-5.483 3.63a110 110 0 0 1-1.828-2.855zm3.518 5.309a91 91 0 0 0 1.884 2.572l-5.248 3.964a115 115 0 0 1-2.004-2.735zm3.844 5.085q.997 1.237 2.038 2.449l-4.991 4.28a112 112 0 0 1-2.166-2.602zm4.148 4.833q1.078 1.174 2.188 2.316l-4.713 4.584a106 106 0 0 1-2.325-2.465zm4.444 4.563c.766.741 1.541 1.464 2.328 2.179l-4.417 4.867a89 89 0 0 1-2.474-2.316zm4.717 4.281a102 102 0 0 0 2.462 2.029l-4.106 5.137a106 106 0 0 1-2.619-2.162zm4.979 3.977a93 93 0 0 0 2.577 1.87l-3.776 5.381a95 95 0 0 1-2.744-1.99zm5.213 3.66a100 100 0 0 0 2.693 1.703l-3.433 5.608a109 109 0 0 1-2.864-1.811zm5.433 3.321q1.381.789 2.795 1.533l-3.074 5.813a95 95 0 0 1-2.975-1.631zm5.633 2.98q1.425.7 2.877 1.348l-2.701 5.998a104 104 0 0 1-3.065-1.439zm5.805 2.611q1.47.609 2.966 1.173l-2.316 6.151a103 103 0 0 1-3.159-1.245zm5.954 2.243q1.509.516 3.031.98l-1.922 6.289c-1.083-.33-2.162-.681-3.232-1.045zm6.1 1.871q1.533.411 3.074.783l-1.528 6.396q-1.64-.393-3.271-.835zm6.182 1.472c1.044.214 2.097.411 3.15.595l-1.121 6.481a108 108 0 0 1-3.352-.637zm6.275 1.088c1.049.15 2.102.278 3.159.398l-.719 6.532a112 112 0 0 1-3.36-.419zm6.331.693 1.165.086q1.021.069 2.063.12l-.313 6.566q-1.104-.051-2.234-.128l-1.16-.086zm6.421.308q1.591.026 3.177.005l.094 6.575q-1.689.02-3.378-.004zm6.357-.089c1.062-.052 2.128-.116 3.189-.197l.505 6.553q-1.696.134-3.398.21zm6.357-.493a98 98 0 0 0 3.151-.389l.911 6.511c-1.113.154-2.23.295-3.351.415zm6.306-.886a97 97 0 0 0 3.129-.591l1.322 6.443c-1.104.227-2.217.436-3.33.629zm6.224-1.28a97 97 0 0 0 3.099-.787l1.725 6.344c-1.096.295-2.192.577-3.296.843zm6.16-1.674a94 94 0 0 0 3.018-.98l2.123 6.224c-1.066.364-2.141.711-3.215 1.045zm6.023-2.054q1.49-.565 2.962-1.173l2.513 6.078c-1.049.433-2.098.848-3.16 1.246zm5.881-2.432a97 97 0 0 0 2.885-1.352l2.89 5.907q-1.527.743-3.074 1.443zm5.728-2.799a105 105 0 0 0 2.791-1.529l3.249 5.715c-.98.561-1.969 1.1-2.971 1.631zm5.535-3.147q1.362-.832 2.692-1.703l3.605 5.5c-.946.621-1.905 1.225-2.868 1.815zm5.329-3.488a93 93 0 0 0 2.582-1.867l3.938 5.265a114 114 0 0 1-2.748 1.987zm5.107-3.815q1.245-.995 2.457-2.024l4.26 5.012q-1.297 1.093-2.62 2.154zm4.855-4.126a104 104 0 0 0 2.328-2.17l4.559 4.734q-1.22 1.174-2.478 2.316zm4.588-4.418c.745-.762 1.473-1.532 2.192-2.311l4.846 4.443q-1.147 1.246-2.333 2.461zm4.307-4.696a104 104 0 0 0 2.042-2.444l5.111 4.131a107 107 0 0 1-2.17 2.607zm4.007-4.953c.637-.847 1.267-1.703 1.879-2.568l5.364 3.806c-.655.924-1.323 1.832-2.004 2.735zm3.685-5.192q.88-1.33 1.721-2.684l5.591 3.463c-.6.959-1.207 1.913-1.832 2.855zm3.352-5.415q.797-1.382 1.55-2.783l5.796 3.104q-.802 1.496-1.648 2.966zm3.009-5.616q.706-1.428 1.366-2.869l5.98 2.732a98 98 0 0 1-1.455 3.056zm2.646-5.788c.411-.985.809-1.969 1.19-2.967l6.138 2.355q-.607 1.587-1.267 3.155zm2.277-5.946q.521-1.505.998-3.022l6.275 1.956a124 124 0 0 1-1.061 3.224zm1.901-6.091q.423-1.53.8-3.065l6.387 1.558a106 106 0 0 1-.852 3.266zm1.507-6.169c.222-1.044.423-2.093.612-3.142l6.472 1.156a111 111 0 0 1-.65 3.343zm1.121-6.275q.23-1.573.415-3.151l6.533.753a123 123 0 0 1-.441 3.352zm.728-6.31.133-1.742.094-1.516 6.562.394-.098 1.618-.133 1.747zm.342-6.434c.026-1.062.03-2.119.022-3.181l6.575-.055q.018 1.688-.021 3.381zm-.055-6.348a112 112 0 0 0-.176-3.198l6.558-.471c.082 1.134.142 2.269.189 3.403zm-.454-6.37a112 112 0 0 0-.372-3.146l6.515-.878q.225 1.67.398 3.352zm-.852-6.31a109 109 0 0 0-.573-3.133l6.446-1.289c.223 1.109.424 2.222.612 3.339zm-1.246-6.233a98 98 0 0 0-.77-3.099l6.352-1.691q.438 1.644.822 3.301zm-1.639-6.164a93 93 0 0 0-.963-3.026l6.232-2.089q.54 1.605 1.028 3.223zm-2.025-6.036c-.368-.993-.753-1.986-1.151-2.97l6.091-2.475q.637 1.572 1.229 3.164zm-2.397-5.898a123 123 0 0 0-1.336-2.89l5.921-2.855q.738 1.53 1.425 3.078zm-2.765-5.741q-.74-1.413-1.516-2.799l5.732-3.219q.83 1.476 1.614 2.979zm-3.117-5.552a109 109 0 0 0-1.691-2.701l5.522-3.57q.92 1.425 1.798 2.877zm-3.463-5.346a99 99 0 0 0-1.853-2.595l5.291-3.908a112 112 0 0 1 1.969 2.761zm-3.784-5.124a102 102 0 0 0-2.012-2.475l5.034-4.229c.728.869 1.443 1.742 2.141 2.633zm-4.097-4.88a109 109 0 0 0-2.161-2.342l4.76-4.533q1.168 1.226 2.299 2.491zm-4.396-4.615a92 92 0 0 0-2.303-2.2l4.473-4.825c.827.771 1.644 1.55 2.449 2.346zm-4.67-4.332a101 101 0 0 0-2.436-2.055l4.161-5.09a98 98 0 0 1 2.594 2.188zm-4.936-4.033a103 103 0 0 0-2.551-1.896l3.835-5.342q1.375.99 2.719 2.02zm-5.171-3.715a103 103 0 0 0-2.675-1.734l3.493-5.57q1.438.901 2.851 1.846zm-5.394-3.382a97 97 0 0 0-2.774-1.562l3.134-5.78q1.495.81 2.958 1.666zm-5.603-3.04q-1.42-.713-2.86-1.382l2.766-5.963c1.023.47 2.037.963 3.048 1.468zm-5.77-2.675a94 94 0 0 0-2.958-1.207l2.384-6.13q1.585.623 3.151 1.284zm-5.934-2.311a105 105 0 0 0-3.017-1.015l1.994-6.263q1.617.515 3.215 1.08zm-6.078-1.935a108 108 0 0 0-3.065-.818l1.597-6.378q1.635.411 3.266.873zm-6.164-1.541a97 97 0 0 0-3.134-.63l1.194-6.463c1.118.205 2.226.428 3.335.667zm-6.272-1.156a97 97 0 0 0-3.142-.432l.788-6.529q1.677.208 3.348.459zm-6.322-.766a97 97 0 0 0-2.252-.176q-1.606-.109-3.206-.167l.24-6.57q1.706.058 3.411.175 1.2.084 2.393.188z"/></g></g></g></g><mask id="D" width="23" height="21" x="526" y="34" maskUnits="userSpaceOnUse" style="mask-type:luminance"><path fill="#fff" d="M526.079 34.816h22.384v19.558h-22.384z"/></mask><g mask="url(#D)"><mask id="E" width="23" height="21" x="526" y="34" maskUnits="userSpaceOnUse" style="mask-type:luminance"><path fill="#fff" d="m537.29 54.375-11.177-19.56h22.35z"/></mask><g mask="url(#E)"><mask id="F" width="25" height="21" x="525" y="34" maskUnits="userSpaceOnUse" style="mask-type:luminance"><path fill="#fff" d="M549.349 34.08H525.24V54.9h24.109z"/></mask><g mask="url(#F)"><mask id="G" width="23" height="21" x="526" y="34" maskUnits="userSpaceOnUse" style="mask-type:luminance"><path fill="#fff" d="M526.079 34.816h22.384v19.558h-22.384z"/></mask><g mask="url(#G)"><mask id="H" width="23" height="21" x="526" y="34" maskUnits="userSpaceOnUse" style="mask-type:luminance"><path fill="#fff" d="m537.29 54.375-11.177-19.56h22.35z"/></mask><g mask="url(#H)"><path fill="#000" fill-opacity=".81" d="M548.463 54.375h-22.384v-19.56h22.384z"/></g></g></g></g></g><path stroke="#000" stroke-opacity=".81" stroke-width="2.466" d="m536.604 90.14.402-13.827m.698 210.5.403-13.823m-62.528-5.582 8.446-10.954m-45.992-42.341 13.368-3.553m-14.507-61.419 13.009 4.7m150.553 114.012-7.619-11.54m45.271-41.832-13.026-4.64m13.507-60.739-13.116 4.392m-25.163-55.91-7.749 11.459"/><path stroke="#fff" stroke-width="2.466" d="m474.954 97.956 8.565 10.864"/><mask id="I" width="113" height="113" x="480" y="128" maskUnits="userSpaceOnUse" style="mask-type:luminance"><path fill="#fff" d="M480.31 128.324h111.777v111.778H480.31z"/></mask><g mask="url(#I)"><mask id="J" width="113" height="114" x="480" y="127" maskUnits="userSpaceOnUse" style="mask-type:luminance"><path fill="#fff" d="m480.197 130.138 110.104-2.436 2.44 110.109-110.108 2.436z"/></mask><g mask="url(#J)"><mask id="K" width="113" height="114" x="480" y="127" maskUnits="userSpaceOnUse" style="mask-type:luminance"><path fill="#fff" d="m480.197 130.138 110.104-2.436 2.44 110.108-110.108 2.436z"/></mask><g mask="url(#K)"><mask id="L" width="111" height="112" x="481" y="128" maskUnits="userSpaceOnUse" style="mask-type:luminance"><path fill="#fff" d="M535.253 128.922c-30.406.672-54.511 25.864-53.839 56.27.676 30.406 25.868 54.511 56.274 53.834 30.406-.672 54.507-25.864 53.835-56.27-.673-30.406-25.869-54.51-56.27-53.834"/></mask><g mask="url(#L)"><path fill="#000" fill-opacity=".81" d="M519.645 142a45 45 0 0 0-7.2 3.672l-10.501-16.699a64.7 64.7 0 0 1 10.36-5.282zm-13.642 8.578a45 45 0 0 0-5.471 5.976l-15.676-11.977a65 65 0 0 1 7.846-8.566zm-9.795 12.817a45.3 45.3 0 0 0-3.022 7.487l-18.882-5.707a65 65 0 0 1 4.353-10.779zm-4.653 15.397a46 46 0 0 0-.278 6.182 44 44 0 0 0 .086 2.003l-19.683 1.293a65.6 65.6 0 0 1 .278-11.708zm1.053 16.169a44.5 44.5 0 0 0 2.654 7.628l-17.974 8.133a64.4 64.4 0 0 1-3.819-10.989zm6.64 14.674a45.3 45.3 0 0 0 5.184 6.228l-13.977 13.921a65 65 0 0 1-7.436-8.934zm11.391 11.442a45 45 0 0 0 7.02 4.015l-8.219 17.932a65 65 0 0 1-10.09-5.77zm14.631 6.708a45 45 0 0 0 7.971 1.28l-1.379 19.678a64.7 64.7 0 0 1-11.463-1.845zm16.181 1.122a45 45 0 0 0 7.915-1.593l5.608 18.912a65 65 0 0 1-11.378 2.29zm15.415-4.577a45 45 0 0 0 6.858-4.289l11.909 15.728a64.7 64.7 0 0 1-9.855 6.159zm12.859-9.738a45.4 45.4 0 0 0 4.936-6.426l16.652 10.574a65 65 0 0 1-7.08 9.216zm8.647-13.621a44.7 44.7 0 0 0 2.355-7.723l19.31 4.024a64.7 64.7 0 0 1-3.39 11.126zm3.288-15.749q.028-1.123.004-2.247a46 46 0 0 0-.518-5.929l19.499-2.992a66 66 0 0 1 .732 11.694zm-2.449-16.014a45 45 0 0 0-3.313-7.367l17.191-9.67a64 64 0 0 1 4.765 10.599zm-7.898-14.032a45 45 0 0 0-5.702-5.758l12.727-15.072a65 65 0 0 1 8.172 8.249zm-12.328-10.411a45 45 0 0 0-7.341-3.386l6.622-18.583a64.7 64.7 0 0 1 10.56 4.876zm-15.171-5.407a45.7 45.7 0 0 0-8.099-.582l-.33-19.721a65 65 0 0 1 11.605.839zm-8.343-.578q-4.103.09-8.078.899l-3.934-19.327a65 65 0 0 1 11.575-1.293z"/></g></g></g></g><mask id="M" width="83" height="84" x="495" y="141" maskUnits="userSpaceOnUse" style="mask-type:luminance"><path fill="#fff" d="M495.262 141.657h82.682v82.682h-82.682z"/></mask><g mask="url(#M)"><mask id="N" width="83" height="84" x="495" y="141" maskUnits="userSpaceOnUse" style="mask-type:luminance"><path fill="#fff" d="M536.605 141.657c-22.833 0-41.343 18.51-41.343 41.343 0 22.829 18.51 41.339 41.343 41.339 22.829 0 41.339-18.51 41.339-41.339 0-22.833-18.51-41.343-41.339-41.343"/></mask><g mask="url(#N)"><mask id="O" width="85" height="84" x="494" y="141" maskUnits="userSpaceOnUse" style="mask-type:luminance"><path fill="#fff" d="M578.936 141.473h-84.381v83.285h84.381z"/></mask><g mask="url(#O)"><mask id="P" width="83" height="84" x="495" y="141" maskUnits="userSpaceOnUse" style="mask-type:luminance"><path fill="#fff" d="M495.262 141.656h82.682v82.682h-82.682z"/></mask><g mask="url(#P)"><mask id="Q" width="83" height="84" x="495" y="141" maskUnits="userSpaceOnUse" style="mask-type:luminance"><path fill="#fff" d="M536.605 141.656c-22.833 0-41.343 18.51-41.343 41.343 0 22.829 18.51 41.339 41.343 41.339 22.829 0 41.339-18.51 41.339-41.339 0-22.833-18.51-41.343-41.339-41.343"/></mask><g mask="url(#Q)"><path fill="#abc7e9" fill-opacity=".84" d="M495.262 141.656h82.682v82.682h-82.682z"/></g></g></g></g></g><mask id="R" width="12" height="25" x="531" y="88" maskUnits="userSpaceOnUse" style="mask-type:luminance"><path fill="#fff" d="M542.773 88.872h-10.959v24.109h10.959z"/></mask><g mask="url(#R)"><mask id="S" width="10" height="13" x="532" y="94" maskUnits="userSpaceOnUse" style="mask-type:luminance"><path fill="#fff" d="M532.165 94.353h9.512v12.054h-9.512z"/></mask><g mask="url(#S)"><path fill="#000" fill-opacity=".81" d="M537.141 94.901q1.388.002 2.363.702.99.687 1.524 1.901c.351.813.531 1.755.531 2.825 0 1.075-.18 2.021-.531 2.843-.342.822-.847 1.468-1.507 1.935q-.994.704-2.38.702c-.924 0-1.721-.232-2.38-.702q-.996-.701-1.524-1.935-.513-1.232-.513-2.843-.001-1.605.53-2.825.528-1.214 1.524-1.9.99-.702 2.363-.703m0 1.13q-1.046 0-1.746.566c-.471.368-.822.873-1.062 1.524q-.36.975-.359 2.208c0 .822.111 1.567.342 2.226.24.651.591 1.173 1.062 1.558q.698.566 1.763.566 1.04 0 1.747-.566.698-.58 1.044-1.558c.24-.659.36-1.404.36-2.226q0-1.233-.36-2.208c-.239-.651-.595-1.156-1.061-1.524-.471-.377-1.045-.566-1.73-.566"/></g></g><mask id="T" width="29" height="29" x="571" y="103" maskUnits="userSpaceOnUse" style="mask-type:luminance"><path fill="#fff" d="M599.758 103.118h-28.492v28.493h28.492z"/></mask><g fill="#000" fill-opacity=".81" mask="url(#T)"><path d="m576.445 116.366.737-.907 2.191 1.781 5.086-6.301a53 53 0 0 1-2.603-.857l.325-1.078 3.442 1.233.565.462-5.873 7.294 1.644 1.319-.736.907zm15.512-1.241q1.078.859 1.404 2.02.342 1.167-.017 2.449-.346 1.264-1.353 2.517-1.012 1.266-2.191 1.883-1.167.631-2.398.548-1.217-.07-2.294-.924c-.719-.583-1.19-1.268-1.404-2.055q-.326-1.167.034-2.449c.24-.856.694-1.703 1.37-2.551q1.009-1.245 2.192-1.849 1.18-.616 2.38-.531 1.213.069 2.277.942m-.719.873q-.809-.668-1.695-.668c-.595 0-1.195.18-1.798.531q-.891.533-1.661 1.49-.772.975-1.113 1.952-.347.974-.154 1.866c.124.591.462 1.113 1.01 1.558.548.433 1.122.642 1.73.634q.904-.001 1.797-.548c.591-.355 1.148-.856 1.661-1.507.514-.642.878-1.284 1.096-1.935q.341-.976.137-1.849-.207-.887-1.01-1.524"/></g><mask id="U" width="31" height="29" x="600" y="143" maskUnits="userSpaceOnUse" style="mask-type:luminance"><path fill="#fff" d="M630.442 143.667h-29.588v27.396h29.588z"/></mask><g fill="#000" fill-opacity=".81" mask="url(#U)"><path d="M618.232 152.024q-.447-1.25-1.524-1.712-1.065-.461-2.979.086l-.308-1.199q2.207-.579 3.715.017 1.503.585 2.158 2.415.596 1.606.171 2.808-.41 1.194-1.798 1.695-.945.339-1.729.12-.773-.205-1.507-.874-.737-.667-1.455-1.695-.792-.976-1.37-1.489-.567-.515-1.148-.6-.565-.07-1.318.189.219.578.514 1.335l.531 1.421 1.438 3.973-1.079.394-2.859-7.86a1.4 1.4 0 0 1 .342-.171c.137-.047.265-.094.394-.137q1.162-.423 2.02-.308.856.1 1.627.702.771.615 1.592 1.712c.707.968 1.327 1.61 1.867 1.918q.801.475 1.712.154a1.9 1.9 0 0 0 1.096-1.027q.321-.722-.103-1.867m4.143 8.027q.476 1.296.155 2.465-.31 1.161-1.268 2.072c-.629.617-1.451 1.105-2.465 1.473q-1.508.545-2.843.479-1.336-.052-2.345-.753-.997-.688-1.473-1.987-.48-1.303-.171-2.482.323-1.167 1.301-2.089c.659-.617 1.494-1.105 2.5-1.473q1.521-.546 2.842-.462 1.317.089 2.312.787c.659.458 1.147 1.113 1.455 1.97m-1.061.393q-.36-.975-1.13-1.438-.758-.477-1.798-.479-1.029-.014-2.192.411c-.766.282-1.417.65-1.952 1.095-.539.446-.907.951-1.113 1.524-.197.57-.171 1.186.069 1.85q.359.975 1.13 1.438.784.462 1.832.462 1.04-.002 2.192-.428 1.161-.431 1.952-1.113.802-.668 1.078-1.524.29-.84-.068-1.798"/></g><mask id="V" width="29" height="24" x="601" y="196" maskUnits="userSpaceOnUse" style="mask-type:luminance"><path fill="#fff" d="M629.347 196.267H601.95v23.013h27.397z"/></mask><g fill="#000" fill-opacity=".81" mask="url(#V)"><path d="M611.132 202.537q.38-2.074 1.575-2.962c.796-.595 1.815-.856 3.048-.788l-.103 1.25q-1.424-.102-2.277.514c-.574.419-.959 1.164-1.165 2.226-.137.796-.072 1.455.189 1.969q.393.77 1.318.942.924.166 1.456-.257.545-.431.821-1.935l.326-1.729.993.171-.308 1.661q-.174.906.154 1.626.342.719 1.318.891.99.187 1.524-.325.547-.5.754-1.559.237-1.304-.309-2.054c-.368-.493-.924-.869-1.678-1.131l.36-1.181c1.002.342 1.764.878 2.277 1.61q.784 1.09.445 2.928c-.205 1.104-.59 1.917-1.147 2.431-.561.522-1.301.702-2.226.531q-.993-.193-1.507-.822-.514-.618-.599-1.61h-.034q-.449 1.387-1.147 1.798-.687.411-1.798.206-1.336-.244-1.969-1.336-.65-1.099-.291-3.065m9.082 10.873q-.257 1.368-1.13 2.209-.861.834-2.157 1.13-1.286.308-2.86.017-1.594-.295-2.705-1.027-1.116-.739-1.627-1.849-.513-1.098-.257-2.466c.163-.903.531-1.64 1.113-2.209q.872-.841 2.175-1.13c.864-.197 1.832-.197 2.894 0q1.572.29 2.671 1.027 1.109.752 1.609 1.85.514 1.112.274 2.448m-1.113-.205c.124-.685.043-1.293-.239-1.815q-.412-.79-1.319-1.336-.893-.534-2.106-.753c-.813-.15-1.558-.167-2.243-.052q-1.029.168-1.73.754-.687.579-.873 1.626c-.124.685-.047 1.289.24 1.815q.442.804 1.335 1.319.904.527 2.124.753 1.215.219 2.243.052 1.028-.174 1.695-.771.681-.584.873-1.592"/></g><mask id="W" width="31" height="33" x="571" y="233" maskUnits="userSpaceOnUse" style="mask-type:luminance"><path fill="#fff" d="M601.95 233.526h-30.684v31.78h30.684z"/></mask><g fill="#000" fill-opacity=".81" mask="url(#W)"><path d="m585.573 244.097 1.575 2.072 5.085-3.887.668.857-.77 9.212-1.13.873-4.161-5.445-1.319 1.01-.667-.856 1.318-1.01-1.575-2.072zm2.243 2.928 3.304 4.315.035-.017.548-7.328a84 84 0 0 1-1.952 1.558zm-1.549 10.03c-.732.556-1.503.856-2.312.89q-1.196.05-2.346-.599-1.164-.635-2.14-1.918-.975-1.272-1.302-2.569-.34-1.303.018-2.465c.239-.779.727-1.447 1.455-2.004q1.116-.84 2.329-.89 1.218-.051 2.38.616c.775.446 1.49 1.088 2.14 1.935q.976 1.284 1.284 2.569.321 1.297-.051 2.448c-.24.762-.728 1.426-1.455 1.987m-.685-.891q.835-.634 1.061-1.507c.146-.582.112-1.207-.102-1.866q-.311-.978-1.045-1.969c-.505-.651-1.044-1.173-1.627-1.558q-.871-.566-1.78-.6-.924-.02-1.764.634c-.548.419-.89.925-1.027 1.507q-.204.887.119 1.883c.206.659.561 1.319 1.062 1.969q.74.99 1.627 1.541c.582.364 1.173.553 1.763.565q.905.016 1.713-.599"/></g><mask id="X" width="22" height="26" x="527" y="252" maskUnits="userSpaceOnUse" style="mask-type:luminance"><path fill="#fff" d="M548.253 252.156h-20.821v25.205h20.821z"/></mask><g mask="url(#X)"><path fill="#000" fill-opacity=".81" d="M542.09 260.58q-1.233-.038-1.952.496c-.48.364-.728.95-.753 1.764q-.033.976.616 1.541.637.563 1.986.599a5.2 5.2 0 0 0 1.524-.188q.72-.194 1.113-.462l1.13.428-.154 5.513-7.106-.188.034-1.165 5.891.155.102-3.682c-.316.171-.719.313-1.198.428q-.719.185-1.61.171-1.797-.053-2.722-.89c-.625-.561-.925-1.331-.891-2.312q.038-1.182.582-1.934a3.16 3.16 0 0 1 1.456-1.079q.893-.34 1.986-.308 1.765.051 2.928.873 1.167.82 1.627 2.637l-1.25.274c-.24-.814-.621-1.456-1.147-1.935q-.803-.706-2.192-.736"/><mask id="Y" width="12" height="13" x="527" y="258" maskUnits="userSpaceOnUse" style="mask-type:luminance"><path fill="#fff" d="M527.692 258.731h10.698v12.055h-10.698z"/></mask><g mask="url(#Y)"><path fill="#000" fill-opacity=".81" d="M532.775 270.103q-1.385-.036-2.346-.753-.973-.72-1.472-1.952-.496-1.235-.445-2.842c.025-1.075.222-2.017.599-2.826q.551-1.22 1.558-1.9 1.012-.667 2.397-.634 1.388.051 2.363.771.977.734 1.473 1.969.483 1.247.445 2.859-.052 1.606-.616 2.808c-.377.809-.899 1.43-1.576 1.867q-1.007.667-2.38.633m.034-1.13q1.046.032 1.764-.513.72-.533 1.113-1.507.38-.961.411-2.192c.026-.822-.073-1.567-.291-2.226q-.322-.995-1.01-1.592-.68-.585-1.747-.617c-.693-.013-1.284.163-1.763.531q-.719.547-1.096 1.524-.373.976-.411 2.209-.033 1.233.308 2.209.328.99 1.01 1.575.687.579 1.712.599"/></g></g><mask id="Z" width="32" height="33" x="473" y="233" maskUnits="userSpaceOnUse" style="mask-type:luminance"><path fill="#fff" d="M504.419 233.526h-30.685v31.78h30.685z"/></mask><g fill="#000" fill-opacity=".81" mask="url(#Z)"><path d="m495.905 253.286-.068-.051q-1.042.957-2.192.907-1.144-.052-2.346-.959a5 5 0 0 1-1.233-1.335 2.6 2.6 0 0 1-.411-1.576c.035-.556.274-1.13.72-1.712q.975-1.284 2.363-1.438 1.386-.153 3.03 1.096 1.03.789 1.507 1.798c.308.676.373 1.429.188 2.277q-.289 1.284-1.472 2.825-.975 1.284-2.072 2.004-1.11.732-2.329.719-1.214-.019-2.5-.993c-.693-.54-1.168-1.079-1.421-1.627a2.96 2.96 0 0 1-.222-1.747q.153-.925.77-2.037l1.045.599q-.617 1.282-.565 2.192.038.922 1.078 1.729 1.356 1.027 2.671.582 1.305-.43 2.706-2.26zm-3.818-.668c.582.445 1.139.724 1.661.839q.771.17 1.37-.034.584-.206.924-.651c.39-.513.522-1.104.394-1.763q-.205-1.007-1.404-1.918-1.212-.94-2.123-.788-.906.154-1.576 1.028c-.445.582-.59 1.147-.445 1.695.137.548.54 1.079 1.199 1.592m-10.322-1.375q-1.094-.841-1.456-1.986-.372-1.148-.051-2.431.308-1.282 1.284-2.552.976-1.284 2.158-1.952 1.168-.667 2.38-.616 1.22.039 2.311.873 1.1.842 1.473 2.004c.24.779.248 1.596.017 2.465-.227.865-.668 1.73-1.318 2.586q-.975 1.265-2.124 1.901-1.161.649-2.363.599c-.809-.034-1.579-.334-2.311-.891m.685-.89q.841.63 1.746.617.892-.02 1.764-.566c.582-.368 1.121-.873 1.609-1.523q.758-.996 1.079-1.987.327-.994.12-1.866-.219-.887-1.062-1.541-.819-.631-1.729-.599-.924.02-1.798.599c-.582.377-1.121.899-1.627 1.558-.488.651-.839 1.301-1.044 1.952-.205.659-.231 1.284-.086 1.866q.206.874 1.028 1.49"/></g><mask id="aa" width="30" height="26" x="444" y="196" maskUnits="userSpaceOnUse" style="mask-type:luminance"><path fill="#fff" d="M473.735 196.267h-29.589v25.205h29.589z"/></mask><g fill="#000" fill-opacity=".81" mask="url(#aa)"><path d="m456.119 214.125 1.336 4.178-1.113.343-2.603-8.168 1.113-.342q2.538 1.303 5.12 1.558c1.725.163 3.425.051 5.103-.325l.411 1.301q-1.659.362-3.425.377-1.779.002-3.544-.394a13.7 13.7 0 0 1-3.339-1.25q.241.653.496 1.353c.163.458.308.916.445 1.369m-3.914-7.822q-.408-1.316-.034-2.465c.24-.762.694-1.439 1.353-2.021q.994-.888 2.534-1.37c1.019-.329 1.969-.449 2.86-.359q1.32.141 2.294.873.976.72 1.387 2.038.429 1.336.069 2.5-.373 1.148-1.387 2.02-1.026.853-2.552 1.353-1.54.476-2.842.342-1.318-.141-2.295-.873-.976-.717-1.387-2.038m1.079-.342q.328.993 1.079 1.507.739.495 1.781.548 1.027.05 2.209-.326 1.168-.373 2.003-1.01.842-.63 1.181-1.473.329-.853 0-1.866-.305-.989-1.061-1.49-.77-.493-1.815-.53-1.059-.031-2.226.342-1.182.38-2.004 1.01-.82.637-1.13 1.473-.323.84-.017 1.815"/></g><mask id="ab" width="31" height="29" x="444" y="143" maskUnits="userSpaceOnUse" style="mask-type:luminance"><path fill="#fff" d="M474.831 143.667h-30.685v27.396h30.685z"/></mask><g fill="#000" fill-opacity=".81" mask="url(#ab)"><path d="M462.445 164.052q-.84 2.145-1.917 2.774-1.092.616-2.312.154a2.56 2.56 0 0 1-1.335-1.164c-.309-.548-.36-1.293-.155-2.243l-.017-.018c-.411.574-.882.955-1.421 1.148q-.801.275-1.764-.086c-.762-.308-1.275-.83-1.541-1.575q-.41-1.131.291-2.928c.471-1.207 1.058-2.004 1.764-2.38q1.048-.565 2.192-.12.961.36 1.37 1.113.413.757.274 1.798l.017.017c.492-.831 1.04-1.353 1.644-1.558a2.47 2.47 0 0 1 1.763.034q1.214.463 1.593 1.678c.248.8.102 1.918-.446 3.356m-4.674-1.815c-.295.745-.428 1.353-.394 1.832s.163.852.377 1.113q.327.38.77.548.861.328 1.593-.171c.492-.33.916-.968 1.284-1.918.364-.959.479-1.721.342-2.294q-.207-.873-1.061-1.199a1.9 1.9 0 0 0-.942-.103q-.496.071-1.01.565-.527.5-.959 1.627m-4.435-1.712q-.475 1.252-.205 1.986.277.737 1.061 1.044.963.362 1.644-.137.687-.493 1.079-1.506.397-1.027.222-1.867c-.111-.556-.488-.959-1.13-1.198q-.784-.309-1.472.051-.7.345-1.199 1.627m2.326-9.177q.5-1.284 1.506-1.952 1.014-.683 2.329-.736c.882-.035 1.824.145 2.825.53 1.006.39 1.824.891 2.466 1.507q.956.927 1.25 2.123.289 1.182-.205 2.466-.5 1.303-1.507 1.969-1.01.668-2.346.719-1.334.038-2.842-.547-1.504-.581-2.449-1.507-.938-.937-1.233-2.106-.288-1.182.206-2.466m1.061.411q-.372.978-.102 1.832c.171.561.522 1.074 1.044 1.541q.773.687 1.918 1.13 1.15.449 2.192.48 1.046.02 1.849-.428.784-.444 1.164-1.439.373-.973.086-1.832-.278-.854-1.062-1.541-.784-.68-1.935-1.13-1.144-.443-2.191-.462c-.694-.009-1.302.137-1.815.445q-.77.448-1.148 1.404"/></g><mask id="ac" width="32" height="33" x="473" y="99" maskUnits="userSpaceOnUse" style="mask-type:luminance"><path fill="#fff" d="M504.419 99.83h-30.685v31.78h30.685z"/></mask><g fill="#000" fill-opacity=".81" mask="url(#ac)"><path d="m486.583 115.117-.068.051q.563 1.234.171 2.295-.397 1.045-1.644 1.917c-.539.377-1.083.643-1.644.788a2.74 2.74 0 0 1-1.609-.068q-.785-.29-1.421-1.182-.924-1.316-.634-2.671c.197-.912.839-1.755 1.935-2.534q1.065-.753 2.175-.908 1.111-.153 2.243.497 1.13.635 2.26 2.226.924 1.302 1.284 2.585c.248.856.257 1.67.017 2.432q-.36 1.131-1.626 2.037-1.594 1.118-2.963.976c-.916-.102-1.819-.569-2.722-1.404l.856-.907c.698.642 1.378 1.002 2.055 1.079q1.007.121 2.123-.668c.865-.617 1.288-1.379 1.267-2.295q-.018-1.366-1.353-3.253zm-1.866 3.356q.906-.631 1.318-1.319c.274-.453.403-.89.394-1.301q-.019-.616-.325-1.044-.55-.786-1.575-.891c-.685-.077-1.43.167-2.244.737q-1.246.894-1.369 1.78-.115.893.513 1.798.618.874 1.473.908.84.038 1.815-.668m4.715-10.244c.754-.535 1.533-.796 2.329-.788q1.214.002 2.346.685 1.145.689 2.072 1.986.923 1.322 1.198 2.637.29 1.305-.12 2.449-.41 1.15-1.541 1.952-1.13.807-2.345.805c-.814-.009-1.593-.249-2.346-.72-.762-.466-1.456-1.138-2.072-2.02q-.925-1.298-1.182-2.603c-.179-.864-.137-1.682.137-2.448q.413-1.144 1.524-1.935m.651.924q-.853.603-1.096 1.456-.255.858.017 1.883.258 1.016.976 2.004c.471.676.993 1.211 1.576 1.609q.854.604 1.746.668.904.07 1.764-.548.852-.598 1.096-1.472.255-.887-.035-1.884-.276-1.007-.976-2.02-.72-.99-1.575-1.593-.86-.598-1.764-.651-.886-.05-1.729.548"/></g><rect width="210.22" height="61.528" x="42.165" y="268.621" fill="#fff" rx="3.452"/><rect width="210.22" height="61.528" x="42.165" y="268.621" stroke="#dee9f8" stroke-width="1.709" rx="3.452"/><mask id="ad" width="101" height="20" x="97" y="285" maskUnits="userSpaceOnUse" style="mask-type:luminance"><path fill="#fff" d="M97.599 285.712h99.982v18.593H97.599z"/></mask><g mask="url(#ad)"><path fill="#0a2540" d="M102.5 303.508q-1.459-.001-2.565-.637a4.54 4.54 0 0 1-1.719-1.803q-.618-1.167-.617-2.685.002-1.823.901-3.197c.618-.912 1.484-1.619 2.605-2.107q1.697-.738 3.975-.737 1.047-.002 1.698.139v-.428c0-1.041-.189-1.808-.573-2.316-.383-.518-.961-.777-1.743-.777q-1.884 0-2.416 1.987c-.109.383-.333.543-.677.493l-2.784-.493q-.306-.06-.433-.269c-.065-.135-.075-.319-.02-.553.358-1.394 1.105-2.47 2.256-3.237q1.74-1.166 4.363-1.166 3.117-.001 4.732 1.679 1.643 1.682 1.643 4.896v10.31a.53.53 0 0 1-.164.388.5.5 0 0 1-.369.145h-2.664q-.492-.002-.618-.533l-.408-1.928h-.165q-.552 1.353-1.658 2.092c-.723.488-1.584.737-2.58.737m-.434-5.618c0 .727.185 1.305.553 1.743q.576.637 1.539.638 1.269-.002 1.948-1.131c.448-.762.672-1.858.672-3.277v-1.086c-.378-.07-.742-.1-1.086-.1-1.12 0-2.007.289-2.659.877q-.966.866-.967 2.336m11.6-11.266a.5.5 0 0 1 .14-.369.54.54 0 0 1 .393-.164h2.705c.149 0 .274.045.368.144.11.095.175.224.205.389l.408 2.007h.164q.555-1.412 1.579-2.152c.698-.508 1.514-.757 2.461-.757q1.517-.001 2.6.797 1.107.798 1.698 2.276h.165q.904-1.561 2.032-2.316a4.4 4.4 0 0 1 2.52-.757q1.516.001 2.62.817 1.127.82 1.723 2.336.592 1.516.593 3.586v10.146a.53.53 0 0 1-.533.533h-3.277a.58.58 0 0 1-.389-.145.57.57 0 0 1-.144-.388v-9.817q0-1.495-.573-2.296-.576-.798-1.659-.797-1.19 0-1.828.941c-.408.628-.612 1.539-.612 2.725v9.244a.53.53 0 0 1-.533.533h-3.278a.58.58 0 0 1-.388-.145.55.55 0 0 1-.144-.388v-9.817c0-.996-.195-1.763-.573-2.296q-.575-.798-1.664-.797-1.188 0-1.823.941c-.408.628-.612 1.539-.612 2.725v9.244a.53.53 0 0 1-.533.533h-3.278a.58.58 0 0 1-.393-.145.57.57 0 0 1-.14-.388zm24.506 11.759q-.002-1.823.901-3.197c.613-.912 1.484-1.619 2.605-2.107q1.696-.738 3.975-.737c.697 0 1.26.044 1.698.139v-.428c0-1.041-.189-1.808-.573-2.316-.383-.518-.961-.777-1.743-.777q-1.884 0-2.416 1.987c-.109.383-.333.543-.677.493l-2.784-.493c-.209-.04-.349-.13-.434-.269q-.102-.202-.02-.553c.354-1.394 1.106-2.47 2.257-3.237q1.74-1.166 4.363-1.166 3.117-.001 4.732 1.679c1.095 1.12 1.638 2.754 1.638 4.896v10.31a.53.53 0 0 1-.164.388.5.5 0 0 1-.369.145h-2.659q-.492-.002-.618-.533l-.408-1.928h-.165q-.552 1.353-1.658 2.092c-.728.488-1.584.737-2.585.737-.997 0-1.823-.214-2.561-.637a4.6 4.6 0 0 1-1.723-1.803q-.612-1.167-.612-2.685m4.467-.493c0 .727.185 1.305.553 1.743q.576.637 1.539.638 1.27-.002 1.943-1.131c.453-.762.677-1.858.677-3.277v-1.086a6 6 0 0 0-1.086-.1c-1.12 0-2.007.289-2.664.877q-.963.866-.962 2.336m11.272 2.236c0-.298.079-.562.244-.777l7.008-9.817h-6.56a.58.58 0 0 1-.389-.144.58.58 0 0 1-.139-.389v-2.375q-.001-.226.139-.369a.53.53 0 0 1 .389-.164h10.778c.155 0 .274.055.374.164a.48.48 0 0 1 .159.369v2.48q.001.448-.244.777l-6.35 8.726a7 7 0 0 1 1.165-.099q1.48 0 2.705.264c.836.164 1.693.438 2.585.821q.469.204.468.698v2.356c0 .219-.065.368-.204.448-.135.07-.309.065-.513-.02-1.021-.384-1.933-.648-2.725-.797a12.4 12.4 0 0 0-2.56-.249c-.931 0-1.818.085-2.704.249-.877.164-1.843.428-2.909.797q-.313.105-.513 0c-.14-.08-.204-.224-.204-.428zm13.233-5.513q.001-2.496.967-4.528.961-2.046 2.639-3.197a6.53 6.53 0 0 1 3.771-1.166c1.379 0 2.65.389 3.77 1.166q1.702 1.15 2.665 3.197.986 2.032.986 4.528 0 2.5-.986 4.547-.963 2.032-2.665 3.198-1.68 1.15-3.77 1.15a6.57 6.57 0 0 1-3.771-1.15q-1.678-1.166-2.639-3.198-.966-2.046-.967-4.547m4.508 0c0 1.738.249 3.073.737 4.019q.74 1.39 2.132 1.39 1.397 0 2.151-1.39c.508-.946.763-2.281.763-4.019q0-2.603-.763-3.995-.754-1.413-2.151-1.414-1.392.001-2.132 1.414c-.488.927-.737 2.261-.737 3.995m12.501-7.989q.001-.226.145-.369a.53.53 0 0 1 .388-.164h2.705c.149 0 .274.045.369.144a.62.62 0 0 1 .204.389l.408 2.007h.165c.368-.931.911-1.649 1.618-2.152.727-.508 1.574-.757 2.54-.757q1.563.001 2.685.817 1.15.82 1.763 2.336c.409 1.011.618 2.206.618 3.586v10.146a.53.53 0 0 1-.533.533h-3.282a.58.58 0 0 1-.389-.145.57.57 0 0 1-.144-.388v-9.817q0-1.495-.613-2.296-.613-.798-1.743-.797-1.247 0-1.903.941c-.438.628-.657 1.539-.657 2.725v9.244a.53.53 0 0 1-.533.533h-3.278a.58.58 0 0 1-.388-.145.57.57 0 0 1-.145-.388z"/></g><mask id="ae" width="53" height="16" x="107" y="304" maskUnits="userSpaceOnUse" style="mask-type:luminance"><path fill="#fff" d="M107.659 304.304h52.278v15.022h-52.278z"/></mask><g mask="url(#ae)"><path fill="#0a2540" d="M108.995 305.494q-.388.305-.164 1.021c.135.423.458.951.961 1.579a27 27 0 0 0 7.277 6.271 33.4 33.4 0 0 0 9.035 3.69 40.8 40.8 0 0 0 9.877 1.206q6.456 0 12.292-1.883 5.843-1.867 9.758-5.245 1.368-1.21 1.369-1.927c0-.18-.074-.354-.224-.533q-.305-.308-.737-.204c-.289.064-.692.239-1.21.513-2.501 1.31-5.544 2.356-9.14 3.133q-5.364 1.188-11.207 1.19-7.23-.002-13.975-1.967c-4.493-1.315-8.478-3.362-11.944-6.147q-.761-.597-1.23-.762c-.299-.109-.548-.089-.738.065"/></g><path fill="#0a2540" d="M154.526 306.521c-.289.269-.364.558-.224.857q.141.33.552.368c.274.045.663.015 1.166-.079.822-.18 1.673-.299 2.565-.369q1.33-.081 2.311.04.985.142 1.23.493c.249.369.16 1.145-.264 2.336a16.4 16.4 0 0 1-1.683 3.461q-.405.68-.488 1.066a.65.65 0 0 0 .204.658.58.58 0 0 0 .408.184q.597 0 1.724-1.046 2.025-1.764 2.849-4.179c.298-.836.483-1.708.552-2.625.065-.916-.034-1.568-.308-1.967q-.387-.575-1.724-.941a9.8 9.8 0 0 0-2.639-.369c-1.739 0-3.382.409-4.941 1.23q-.858.471-1.29.882"/><rect width="210.22" height="61.528" x="824.081" y="268.621" fill="#fff" rx="3.452"/><rect width="210.22" height="61.528" x="824.081" y="268.621" stroke="#dee9f8" stroke-width="1.709" rx="3.452"/><path fill="#0a2540" d="M856.554 290.031c.424 1.651 1.853 3.338 3.814 3.761h5.927l.303.119v14.957h3.701v-14.957l.336-.119h5.933c1.983-.511 3.382-2.11 3.798-3.761v-.037h-23.812zm36.633 18.88h14.081c1.959-.39 3.415-2.116 3.823-3.786h-21.727c.405 1.671 1.883 3.396 3.823 3.786m0-7.672h14.081c1.959-.386 3.415-2.113 3.823-3.786h-21.727c.405 1.674 1.883 3.4 3.823 3.786m0-7.467h14.081c1.959-.39 3.415-2.115 3.823-3.787h-21.727c.405 1.672 1.883 3.397 3.823 3.787m32.115-.036h13.008c1.961-.569 3.608-2.063 4.01-3.72h-20.665v11.164h16.913v3.918l-13.266.01c-2.079.58-3.842 1.976-4.722 3.82l1.075-.02h20.547v-11.44h-16.9zm44.27 15.177c1.847-.783 2.841-2.138 3.221-3.723h-16.43l.01-15.179-3.683.01v18.892zm14.35-15.126h14.086c1.956-.388 3.412-2.115 3.822-3.785h-21.729c.406 1.671 1.882 3.397 3.821 3.785m-3.255 3.695v11.423h3.663V301.3h13.332v7.605h3.658v-11.403z"/><rect width="210.22" height="61.528" x="117.365" y="159.238" fill="#fff" rx="3.452"/><rect width="210.22" height="61.528" x="117.365" y="159.238" stroke="#dee9f8" stroke-width="1.709" rx="3.452"/><mask id="af" width="27" height="26" x="168" y="180" maskUnits="userSpaceOnUse" style="mask-type:luminance"><path fill="#fff" d="M168.622 180.75h25.546v24.524h-25.546z"/></mask><g mask="url(#af)"><mask id="ag" width="119" height="32" x="163" y="174" maskUnits="userSpaceOnUse" style="mask-type:luminance"><path fill="#fff" d="m164.123 174.879 117.41.707-.179 29.764-117.411-.706z"/></mask><g mask="url(#ag)"><mask id="ah" width="119" height="32" x="163" y="174" maskUnits="userSpaceOnUse" style="mask-type:luminance"><path fill="#fff" d="m164.123 174.879 117.41.707-.179 29.764-117.411-.706z"/></mask><g mask="url(#ah)"><mask id="ai" width="27" height="25" x="168" y="181" maskUnits="userSpaceOnUse" style="mask-type:luminance"><path fill="#fff" d="m192.15 182.655-.643-1.126a.66.66 0 0 0-.906-.259c-.036.036-.108.072-.144.108l-1.497 1.476a.656.656 0 0 0-.076.831c.539.838.966 1.744 1.286 2.69 2.031 6.135-1.305 12.745-7.44 14.772a11.8 11.8 0 0 1-3.736.595c-1.92-.012-3.8-.495-5.465-1.409l2.555-2.522a8.35 8.35 0 0 0 10.789-4.79 8.52 8.52 0 0 0-.252-6.594c-.143-.328-.543-.475-.906-.332-.072.036-.143.072-.179.144l-1.533 1.477a.67.67 0 0 0-.184.615l.144.543c.599 2.686-1.086 5.392-3.768 5.991a4.87 4.87 0 0 1-3.62-.567l-.651-.399a.654.654 0 0 0-.798.104l-6.195 6.119a.674.674 0 0 0-.004.942c.036.036.036.036.072.075l.898.691c2.562 2.12 5.78 3.225 9.077 3.245 8.294.048 15.075-6.65 15.123-14.98.016-2.61-.658-5.149-1.947-7.44"/></mask><g mask="url(#ai)"><path fill="#0a2540" d="m168.675 180.938-.148 24.185 25.586.156.144-24.189z"/></g></g></g></g><mask id="aj" width="28" height="26" x="163" y="174" maskUnits="userSpaceOnUse" style="mask-type:luminance"><path fill="#fff" d="M163.511 174.62h26.567v24.524h-26.567z"/></mask><g mask="url(#aj)"><mask id="ak" width="119" height="32" x="163" y="174" maskUnits="userSpaceOnUse" style="mask-type:luminance"><path fill="#fff" d="m164.123 174.879 117.41.707-.179 29.764-117.411-.706z"/></mask><g mask="url(#ak)"><mask id="al" width="119" height="32" x="163" y="174" maskUnits="userSpaceOnUse" style="mask-type:luminance"><path fill="#fff" d="m164.123 174.879 117.41.707-.179 29.764-117.411-.706z"/></mask><g mask="url(#al)"><mask id="am" width="26" height="24" x="164" y="175" maskUnits="userSpaceOnUse" style="mask-type:luminance"><path fill="#fff" d="M188.266 178.175a14.9 14.9 0 0 0-9.113-3.173c-8.294-.048-15.076 6.65-15.123 14.984a15.1 15.1 0 0 0 1.912 7.436l.642 1.126a.66.66 0 0 0 .906.259c.036-.036.108-.072.144-.107l1.497-1.477a.655.655 0 0 0 .076-.831 12.4 12.4 0 0 1-1.29-2.69c-2.027-6.135 1.31-12.745 7.444-14.772a11.8 11.8 0 0 1 3.737-.595c1.919.012 3.799.495 5.46 1.413l-2.551 2.519a8.347 8.347 0 0 0-11.348 7.755c0 .148.032.762.028.87.104.946.352 1.888.783 2.758.143.328.539.475.902.332.076-.036.148-.072.183-.144l1.533-1.513a.67.67 0 0 0 .184-.615l-.108-.542c-.599-2.683 1.086-5.393 3.768-5.992a4.87 4.87 0 0 1 3.62.567l.651.403a.665.665 0 0 0 .798-.104l6.195-6.122a.674.674 0 0 0 .004-.942l-.072-.072z"/></mask><g mask="url(#am)"><path fill="#0a2540" d="m164.014 174.803-.144 24.184 25.582.156.147-24.189z"/></g></g></g></g><mask id="an" width="16" height="19" x="200" y="181" maskUnits="userSpaceOnUse" style="mask-type:luminance"><path fill="#fff" d="M200.297 181.774h15.327v17.371h-15.327z"/></mask><g mask="url(#an)"><mask id="ao" width="119" height="32" x="163" y="174" maskUnits="userSpaceOnUse" style="mask-type:luminance"><path fill="#fff" d="m164.123 174.88 117.41.707-.179 29.765-117.411-.707z"/></mask><g mask="url(#ao)"><mask id="ap" width="119" height="32" x="163" y="174" maskUnits="userSpaceOnUse" style="mask-type:luminance"><path fill="#fff" d="m164.123 174.881 117.41.706-.179 29.765-117.411-.706z"/></mask><g mask="url(#ap)"><path fill="#0a2540" d="M213.492 194.415a.61.61 0 0 0-.798.032c-.982.754-2.111 1.437-3.74 1.425-3.006-.016-5.42-2.567-5.401-5.648.02-3.078 2.463-5.636 5.469-5.62 1.305.008 2.678.563 3.724 1.473a.57.57 0 0 0 .467.219c.148 0 .291-.108.399-.215l.986-1.006a.7.7 0 0 0 .184-.471c0-.18-.072-.328-.216-.471-1.692-1.497-3.393-2.16-5.528-2.172-4.566-.028-8.318 3.681-8.346 8.283-.028 4.562 3.644 8.318 8.246 8.346 2.1.048 4.099-.774 5.592-2.211.148-.148.22-.328.184-.507a.57.57 0 0 0-.18-.399z"/></g></g></g><mask id="aq" width="5" height="19" x="217" y="181" maskUnits="userSpaceOnUse" style="mask-type:luminance"><path fill="#fff" d="M217.667 181.773h4.087v17.371h-4.087z"/></mask><g mask="url(#aq)"><mask id="ar" width="119" height="32" x="163" y="174" maskUnits="userSpaceOnUse" style="mask-type:luminance"><path fill="#fff" d="m164.123 174.88 117.41.707-.179 29.765-117.411-.707z"/></mask><g mask="url(#ar)"><mask id="as" width="119" height="32" x="163" y="174" maskUnits="userSpaceOnUse" style="mask-type:luminance"><path fill="#fff" d="m164.123 174.881 117.41.706-.179 29.765-117.411-.707z"/></mask><g mask="url(#as)"><path fill="#0a2540" d="m220.666 182.213-1.485-.012a.635.635 0 0 0-.618.615l-.092 14.924c0 .327.287.619.614.623l1.485.008a.64.64 0 0 0 .619-.615l.092-14.924a.61.61 0 0 0-.615-.619"/></g></g></g><mask id="at" width="15" height="19" x="225" y="181" maskUnits="userSpaceOnUse" style="mask-type:luminance"><path fill="#fff" d="M225.843 181.774h13.284v17.371h-13.284z"/></mask><g mask="url(#at)"><mask id="au" width="119" height="32" x="163" y="174" maskUnits="userSpaceOnUse" style="mask-type:luminance"><path fill="#fff" d="m164.123 174.88 117.41.707-.179 29.765-117.411-.707z"/></mask><g mask="url(#au)"><mask id="av" width="119" height="32" x="163" y="174" maskUnits="userSpaceOnUse" style="mask-type:luminance"><path fill="#fff" d="m164.123 174.881 117.41.706-.179 29.765-117.411-.706z"/></mask><g mask="url(#av)"><path fill="#0a2540" d="M238.133 187.354c.02-2.754-2.251-5.049-5.042-5.069l-6.083-.036a.616.616 0 0 0-.622.615l-.088 14.924a.605.605 0 0 0 .611.619l1.449.008a.63.63 0 0 0 .618-.611l.036-5.544 3.042.02 2.901 5.887c.104.18.324.327.539.327l1.741.012a.64.64 0 0 0 .542-.287.68.68 0 0 0 .004-.651l-2.933-5.56c2.031-.894 3.273-2.662 3.285-4.654m-2.75.02c-.012 1.413-1.178 2.599-2.555 2.591l-3.804-.02.032-5.074 3.84.024c1.341-.028 2.495 1.138 2.487 2.479"/></g></g></g><mask id="aw" width="16" height="19" x="240" y="181" maskUnits="userSpaceOnUse" style="mask-type:luminance"><path fill="#fff" d="M240.148 181.774h15.328v17.371h-15.328z"/></mask><g mask="url(#aw)"><mask id="ax" width="119" height="32" x="163" y="174" maskUnits="userSpaceOnUse" style="mask-type:luminance"><path fill="#fff" d="m164.123 174.88 117.41.707-.179 29.765-117.411-.707z"/></mask><g mask="url(#ax)"><mask id="ay" width="119" height="32" x="163" y="174" maskUnits="userSpaceOnUse" style="mask-type:luminance"><path fill="#fff" d="m164.123 174.881 117.41.706-.179 29.765-117.411-.706z"/></mask><g mask="url(#ay)"><path fill="#0a2540" d="M253.994 194.659a.61.61 0 0 0-.798.032c-.982.754-2.108 1.437-3.74 1.425-3.006-.016-5.417-2.567-5.401-5.648.02-3.078 2.463-5.636 5.433-5.62 1.305.008 2.678.563 3.724 1.473a.57.57 0 0 0 .471.219c.143 0 .287-.108.399-.215l.982-1.006a.68.68 0 0 0 .183-.471c.004-.18-.067-.327-.211-.471-1.697-1.497-3.393-2.16-5.532-2.172-4.563-.027-8.319 3.681-8.347 8.283-.028 4.562 3.645 8.318 8.247 8.346 2.099.048 4.099-.774 5.592-2.211.148-.148.219-.327.184-.507a.56.56 0 0 0-.176-.399z"/></g></g></g><mask id="az" width="11" height="19" x="258" y="181" maskUnits="userSpaceOnUse" style="mask-type:luminance"><path fill="#fff" d="M258.54 181.773h10.218v17.371H258.54z"/></mask><g mask="url(#az)"><mask id="aA" width="119" height="32" x="163" y="174" maskUnits="userSpaceOnUse" style="mask-type:luminance"><path fill="#fff" d="m164.123 174.88 117.41.707-.179 29.765-117.411-.707z"/></mask><g mask="url(#aA)"><mask id="aB" width="119" height="32" x="163" y="174" maskUnits="userSpaceOnUse" style="mask-type:luminance"><path fill="#fff" d="m164.123 174.881 117.41.706-.179 29.765-117.411-.707z"/></mask><g mask="url(#aB)"><path fill="#0a2540" d="m267.573 196.15-5.871-.036.08-13.04a.635.635 0 0 0-.615-.618l-1.485-.008a.61.61 0 0 0-.619.61l-.087 14.925a.61.61 0 0 0 .61.622l7.971.048a.613.613 0 0 0 .619-.615l.008-1.229c0-.363-.251-.655-.611-.659"/></g></g></g><mask id="aC" width="13" height="19" x="270" y="181" maskUnits="userSpaceOnUse" style="mask-type:luminance"><path fill="#fff" d="M270.803 181.773h11.24v17.371h-11.24z"/></mask><g mask="url(#aC)"><mask id="aD" width="119" height="32" x="163" y="174" maskUnits="userSpaceOnUse" style="mask-type:luminance"><path fill="#fff" d="m164.123 174.88 117.41.707-.179 29.765-117.411-.707z"/></mask><g mask="url(#aD)"><mask id="aE" width="119" height="32" x="163" y="174" maskUnits="userSpaceOnUse" style="mask-type:luminance"><path fill="#fff" d="m164.123 174.881 117.41.706-.179 29.765-117.411-.707z"/></mask><g mask="url(#aE)"><path fill="#0a2540" d="M280.897 185.111a.61.61 0 0 0 .619-.611l.008-1.269a.605.605 0 0 0-.611-.619l-8.949-.056a.61.61 0 0 0-.618.611l-.092 14.928a.61.61 0 0 0 .615.619l8.949.056a.616.616 0 0 0 .618-.615l.008-1.229a.616.616 0 0 0-.614-.623l-6.882-.04.028-4.49 5.76.031a.61.61 0 0 0 .619-.61l.008-1.27a.64.64 0 0 0-.615-.618l-5.76-.036.028-4.199z"/></g></g></g><rect width="210.22" height="61.528" x="748.88" y="159.238" fill="#fff" rx="3.452"/><rect width="210.22" height="61.528" x="748.88" y="159.238" stroke="#dee9f8" stroke-width="1.709" rx="3.452"/><path fill="#0a2540" d="M840.782 180.905h4.26l7.246 13.105 7.245-13.105h4.165v21.53h-3.477v-16.5l-6.352 11.423h-3.258l-6.351-11.423v16.5h-3.478zm34.131 21.915q-2.418 0-4.248-1.066a7.5 7.5 0 0 1-2.85-2.962c-.687-1.262-1.025-2.708-1.025-4.337 0-1.653.332-3.11 1.001-4.384a7.46 7.46 0 0 1 2.773-2.986q1.78-1.074 4.082-1.073 2.293 0 3.946 1.085c1.102.722 1.955 1.736 2.547 3.033q.89 1.955.889 4.586v.953h-11.796c.219 1.31.747 2.347 1.594 3.099s1.914 1.132 3.205 1.132q1.557 0 2.678-.463 1.12-.464 2.109-1.398l1.843 2.257q-2.757 2.524-6.748 2.524m2.535-12.773q-1.092-1.113-2.861-1.114c-1.15 0-2.109.379-2.886 1.138q-1.156 1.136-1.469 3.063h8.46c-.1-1.316-.515-2.34-1.244-3.087m8.799-.806h-3.199v-2.844h3.199v-4.71h3.353v4.71h4.858v2.844H889.6v7.21c0 1.203.202 2.056.617 2.571.408.51 1.107.771 2.103.771q.664 0 1.125-.054.462-.06 1.013-.148v2.814a9 9 0 0 1-1.285.279c-.498.071-.995.106-1.499.106q-5.428 0-5.427-5.936zm25.682 13.194h-3.288v-2.245a5.9 5.9 0 0 1-2.233 1.943q-1.351.685-3.075.687c-1.416 0-2.666-.361-3.762-1.084q-1.636-1.084-2.571-2.986c-.628-1.262-.942-2.713-.942-4.343q.002-2.461.953-4.354c.634-1.262 1.517-2.251 2.637-2.968 1.126-.717 2.411-1.073 3.869-1.073 1.096 0 2.085.214 2.956.634a5.8 5.8 0 0 1 2.168 1.807v-2.055h3.288zm-3.353-10.427q-.534-1.37-1.7-2.162-1.155-.79-2.684-.788-2.152-.001-3.424 1.445-1.28 1.441-1.28 3.904c0 1.653.409 2.957 1.232 3.923q1.228 1.446 3.336 1.445 1.557 0 2.766-.8a4.5 4.5 0 0 0 1.754-2.15zm-85.875-13.97c-3.069 0-5.462 2.287-7.631 5.19-2.98-3.756-5.468-5.19-8.454-5.19-6.078 0-10.735 7.838-10.735 16.139 0 5.19 2.536 8.466 6.778 8.466 3.057 0 5.255-1.428 9.165-8.194 0 0 1.629-2.849 2.749-4.816q.586.94 1.244 2.032l1.831 3.051c3.566 5.924 5.557 7.927 9.159 7.927 4.141 0 6.44-3.318 6.44-8.62 0-8.686-4.764-15.985-10.546-15.985m-13.857 14.575c-3.17 4.923-4.266 6.025-6.031 6.025-1.813 0-2.892-1.576-2.892-4.396 0-6.025 3.034-12.181 6.642-12.181 1.961 0 3.596 1.12 6.102 4.669a488 488 0 0 0-3.821 5.883m11.955-.617-2.186-3.619a84 84 0 0 0-1.712-2.643c1.973-3.021 3.602-4.526 5.539-4.526 4.029 0 7.246 5.877 7.246 13.087 0 2.749-.906 4.343-2.79 4.343-1.807 0-2.666-1.179-6.097-6.642"/><rect width="210.22" height="61.528" x="42.165" y="49" fill="#fff" rx="3.452"/><rect width="210.22" height="61.528" x="42.165" y="49" stroke="#dee9f8" stroke-width="1.709" rx="3.452"/><mask id="aF" width="92" height="20" x="119" y="69" maskUnits="userSpaceOnUse" style="mask-type:luminance"><path fill="#fff" d="M119.342 69.314h91.17v18.914h-91.17z"/></mask><g mask="url(#aF)"><path fill="#0a2540" d="m129.253 81.513-.751 2.115h-.063a15 15 0 0 0-.723-2.072l-4.008-10.068h-3.927v16.044h2.596v-9.9c0-.622 0-1.33-.02-2.2-.023-.436-.062-.767-.085-1.016h.062a10 10 0 0 0 .374 1.369l4.821 11.705h1.825l4.779-11.81c.101-.268.206-.809.311-1.264h.062a138 138 0 0 0-.124 2.882V87.47h2.762V71.445h-3.782zm10.506-5.541h2.701V87.47h-2.701zm1.37-4.857c-.455 0-.829.167-1.14.455a1.48 1.48 0 0 0-.479 1.124c0 .435.168.808.479 1.096.311.292.685.44 1.14.44.459 0 .852-.168 1.144-.44.312-.288.479-.66.479-1.096s-.167-.813-.479-1.124c-.268-.288-.665-.455-1.144-.455m10.904 4.752a7.4 7.4 0 0 0-1.514-.168c-1.226 0-2.346.273-3.284.813-.934.537-1.681 1.287-2.16 2.22-.498.953-.747 2.054-.747 3.321 0 1.097.249 2.073.728 2.967.478.871 1.144 1.575 2.035 2.054.852.478 1.848.727 2.969.727 1.288 0 2.389-.269 3.261-.77l.019-.02v-2.488l-.101.081c-.397.292-.852.54-1.307.685-.479.167-.915.249-1.288.249-1.082 0-1.934-.311-2.534-.996-.626-.665-.938-1.579-.938-2.718 0-1.182.312-2.115.958-2.804.642-.684 1.494-1.034 2.533-1.034.872 0 1.767.288 2.576.871l.101.082v-2.637l-.019-.02c-.354-.143-.747-.31-1.288-.415m8.911-.082a2.85 2.85 0 0 0-1.829.642c-.455.373-.767.913-1.039 1.559h-.019v-2.014h-2.701V87.47h2.701v-5.875c0-.996.206-1.824.665-2.427.455-.622 1.039-.933 1.743-.933.249 0 .498.062.81.1.292.087.498.168.646.273l.101.082v-2.7l-.062-.02c-.187-.124-.561-.186-1.016-.186m7.351-.062c-1.892 0-3.405.56-4.464 1.66-1.082 1.1-1.599 2.613-1.599 4.523 0 1.784.537 3.239 1.576 4.296 1.039 1.039 2.451 1.58 4.218 1.58 1.849 0 3.323-.56 4.382-1.684 1.078-1.12 1.599-2.614 1.599-4.46 0-1.828-.498-3.279-1.517-4.34-.977-1.058-2.409-1.575-4.195-1.575m2.159 8.839c-.498.645-1.288.956-2.264.956-.973 0-1.763-.31-2.324-.995-.56-.646-.832-1.58-.832-2.761 0-1.225.292-2.158.832-2.823q.84-.997 2.304-.996c.957 0 1.705.311 2.242.953.54.645.832 1.579.832 2.803-.043 1.245-.268 2.22-.79 2.863m9.577-3.819c-.852-.35-1.393-.622-1.642-.848q-.31-.314-.312-.875a.96.96 0 0 1 .436-.828c.312-.206.666-.311 1.183-.311.459 0 .934.082 1.393.206.456.124.872.311 1.203.56l.105.085v-2.53l-.062-.024a7.3 7.3 0 0 0-1.226-.35 8 8 0 0 0-1.331-.129c-1.284 0-2.346.315-3.175 1-.833.641-1.226 1.513-1.226 2.531 0 .54.082 1.015.268 1.412.187.393.46.766.833 1.077.374.292.915.622 1.662.933.622.272 1.101.478 1.389.646.292.167.479.354.626.498.102.167.164.373.164.641 0 .77-.58 1.143-1.763 1.143-.459 0-.938-.081-1.498-.268a6 6 0 0 1-1.514-.77l-.105-.082v2.633l.062.023c.393.187.872.311 1.456.455.58.105 1.097.187 1.556.187 1.39 0 2.534-.311 3.343-.995.833-.666 1.269-1.517 1.269-2.614 0-.77-.211-1.454-.666-1.971a8.5 8.5 0 0 0-2.428-1.435m10.215-5.02c-1.888 0-3.405.56-4.464 1.66-1.058 1.1-1.599 2.613-1.599 4.523 0 1.784.541 3.239 1.58 4.296 1.035 1.039 2.448 1.58 4.214 1.58 1.849 0 3.323-.56 4.382-1.684 1.082-1.12 1.599-2.614 1.599-4.46 0-1.828-.498-3.279-1.517-4.34-.973-1.058-2.409-1.575-4.195-1.575m2.14 8.839c-.498.645-1.288.956-2.265.956-.996 0-1.763-.31-2.323-.995-.564-.646-.833-1.58-.833-2.761 0-1.225.292-2.158.833-2.823q.84-.997 2.304-.996c.934 0 1.704.311 2.241.953.541.645.833 1.579.833 2.803 0 1.245-.272 2.22-.79 2.863m18.005-6.37v-2.22h-2.72v-3.403l-.082.02-2.576.766-.062.023v2.594h-4.07v-1.455c0-.665.167-1.182.455-1.512.292-.335.728-.498 1.269-.498.373 0 .766.082 1.202.268l.105.062v-2.344l-.062-.02c-.374-.124-.872-.21-1.518-.21-.809 0-1.513.187-2.159.498a3.63 3.63 0 0 0-1.475 1.474c-.35.622-.537 1.33-.537 2.138v1.599h-1.891v2.2h1.891v9.298h2.72v-9.278h4.07v5.915c0 2.426 1.14 3.651 3.425 3.651.377 0 .77-.062 1.144-.124.393-.082.684-.187.852-.269l.019-.02V85.12l-.105.086a1.7 1.7 0 0 1-.56.249 2 2 0 0 1-.537.082c-.541 0-.915-.125-1.187-.436-.249-.292-.374-.766-.374-1.474v-5.436z"/></g><mask id="aG" width="15" height="14" x="84" y="66" maskUnits="userSpaceOnUse" style="mask-type:luminance"><path fill="#fff" d="M84.892 66.092h13.53V79.27h-13.53z"/></mask><g mask="url(#aG)"><path fill="#0a2540" d="M84.974 66.092h12.732v12.723H84.974z"/></g><mask id="aH" width="15" height="14" x="98" y="66" maskUnits="userSpaceOnUse" style="mask-type:luminance"><path fill="#fff" d="M98.42 66.092h13.947V79.27H98.421z"/></mask><g mask="url(#aH)"><path fill="#0a2540" d="M99.032 66.09h12.733v12.724H99.032z"/></g><mask id="aI" width="15" height="14" x="84" y="79" maskUnits="userSpaceOnUse" style="mask-type:luminance"><path fill="#fff" d="M84.892 79.27h13.53v13.407h-13.53z"/></mask><g mask="url(#aI)"><path fill="#0a2540" d="M84.974 80.144h12.732v12.72H84.974z"/></g><mask id="aJ" width="15" height="14" x="98" y="79" maskUnits="userSpaceOnUse" style="mask-type:luminance"><path fill="#fff" d="M98.42 79.27h13.947v13.407H98.421z"/></mask><g mask="url(#aJ)"><path fill="#0a2540" d="M99.032 80.144h12.733v12.72H99.032z"/></g><rect width="210.22" height="61.528" x="824.081" y="49" fill="#fff" rx="3.452"/><rect width="210.22" height="61.528" x="824.081" y="49" stroke="#dee9f8" stroke-width="1.709" rx="3.452"/><mask id="aK" width="143" height="27" x="858" y="66" maskUnits="userSpaceOnUse" style="mask-type:luminance"><path fill="#fff" d="M858.264 66.946h142.046v26.006H858.264z"/></mask><g mask="url(#aK)"><path fill="#0a2540" d="M886.952 74.131c-5.162 0-9.197 3.92-9.197 9.168 0 5.243 3.931 9.133 9.197 9.133s9.266-3.954 9.266-9.168c0-5.18-3.931-9.133-9.266-9.133m.035 14.52c-2.937 0-5.093-2.288-5.093-5.352 0-3.104 2.121-5.388 5.058-5.388 2.977 0 5.133 2.319 5.133 5.388 0 3.063-2.156 5.352-5.098 5.352m10.364-10.531h2.561v13.97h4.104V74.473h-6.665zm-29.92-.209c2.151 0 3.862 1.33 4.509 3.307h4.347c-.786-4.226-4.278-7.087-8.821-7.087-5.168 0-9.202 3.92-9.202 9.168s3.936 9.133 9.202 9.133c4.445 0 8-2.861 8.786-7.122h-4.312c-.613 1.977-2.324 3.341-4.474 3.341-2.977 0-5.064-2.288-5.064-5.352 0-3.104 2.052-5.388 5.029-5.388m107.874 3.683-3.005-.445c-1.44-.203-2.463-.677-2.463-1.804 0-1.225 1.335-1.838 3.145-1.838 1.982 0 3.248.85 3.52 2.248h3.971c-.445-3.543-3.185-5.624-7.387-5.624-4.341 0-7.214 2.214-7.214 5.353 0 2.994 1.878 4.734 5.676 5.277l3.006.445c1.474.203 2.295.787 2.295 1.873 0 1.4-1.44 1.977-3.422 1.977-2.428 0-3.798-.988-4-2.485h-4.035c.376 3.445 3.075 5.86 8 5.86 4.48 0 7.457-2.045 7.457-5.554 0-3.139-2.156-4.775-5.544-5.283m-73.341-14.382c-1.503 0-2.631 1.093-2.631 2.59s1.128 2.59 2.631 2.59 2.635-1.093 2.635-2.59c0-1.498-1.133-2.59-2.635-2.59m60.214 13.29c0-3.816-2.324-6.37-7.249-6.37-4.647 0-7.248 2.352-7.763 5.965h4.07c.208-1.4 1.3-2.555 3.624-2.555 2.087 0 3.116.919 3.116 2.046 0 1.462-1.885 1.838-4.208 2.075-3.145.341-7.047 1.434-7.047 5.52 0 3.174 2.364 5.214 6.122 5.214 2.942 0 4.786-1.225 5.711-3.167.138 1.734 1.439 2.86 3.248 2.86h2.393v-3.647h-2.017zm-4.035 4.433c0 2.352-2.052 4.092-4.549 4.092-1.537 0-2.838-.653-2.838-2.011 0-1.74 2.087-2.214 4-2.422 1.85-.168 2.873-.578 3.387-1.364zm-21.78-10.804c-2.289 0-4.208.954-5.573 2.555V67.04h-4.104v25.05h4.035v-2.318c1.364 1.67 3.318 2.659 5.642 2.659 4.925 0 8.653-3.885 8.653-9.133 0-5.249-3.798-9.168-8.653-9.168m-.619 14.52c-2.936 0-5.092-2.288-5.092-5.352 0-3.07 2.19-5.388 5.127-5.388 2.977 0 5.064 2.29 5.064 5.388 0 3.063-2.157 5.352-5.099 5.352m-18.873-14.52c-2.665 0-4.41 1.087-5.433 2.624v-2.283h-4.07V92.09h4.099v-9.578c0-2.694 1.711-4.602 4.242-4.602 2.359 0 3.827 1.671 3.827 4.093V92.09h4.104V81.698c0-4.434-2.289-7.567-6.769-7.567m83.529 8.59c0-5.047-3.69-8.59-8.644-8.59-5.266 0-9.133 3.954-9.133 9.168 0 5.485 4.139 9.133 9.197 9.133 4.277 0 7.63-2.52 8.48-6.098h-4.272c-.618 1.566-2.121 2.45-4.139 2.45-2.636 0-4.618-1.635-5.058-4.497h13.569zm-13.332-1.364c.654-2.457 2.498-3.648 4.619-3.648 2.324 0 4.104 1.33 4.515 3.648z"/></g></g><rect width="1074.17" height="376.858" x="1.145" y="1.145" stroke="#dee9f8" stroke-width="1.709" rx="9.4"/><defs><radialGradient id="b" cx="0" cy="0" r="1" gradientTransform="rotate(.051 -189932.671 604739.8)scale(358.058 275.606)" gradientUnits="userSpaceOnUse"><stop stop-color="#58a2ff"/><stop offset=".793" stop-color="#a7c6ed" stop-opacity="0"/></radialGradient><clipPath id="a"><rect width="1072.47" height="375.149" x="2" y="2" fill="#fff" rx="8.546"/></clipPath></defs></svg>