<svg xmlns="http://www.w3.org/2000/svg" width="323" height="239" fill="none" viewBox="0 0 323 239"><g clip-path="url(#a)"><mask id="b" width="758" height="757" x="-216" y="-255" maskUnits="userSpaceOnUse" style="mask-type:luminance"><path fill="#000" fill-opacity=".08" d="M541.11-254.35h-756.34v756.341h756.34z"/></mask><g mask="url(#b)"><mask id="c" width="284" height="173" x="27" y="64" maskUnits="userSpaceOnUse" style="mask-type:luminance"><path fill="#fff" d="M310.787 64.685H27.549V236.65h283.238z"/></mask><g mask="url(#c)"><mask id="d" width="284" height="172" x="27" y="65" maskUnits="userSpaceOnUse" style="mask-type:luminance"><path fill="#fff" d="M27.64 65.277h282.552v170.875H27.641z"/></mask><g mask="url(#d)"><mask id="e" width="284" height="173" x="27" y="64" maskUnits="userSpaceOnUse" style="mask-type:luminance"><path fill="#fff" d="M310.787 64.685H27.549V236.65h283.238z"/></mask><g mask="url(#e)"><mask id="f" width="86" height="64" x="36" y="140" maskUnits="userSpaceOnUse" style="mask-type:luminance"><path fill="#fff" d="M36.107 140.94h85.595v62.251H36.107z"/></mask><g mask="url(#f)"><mask id="g" width="85" height="62" x="36" y="141" maskUnits="userSpaceOnUse" style="mask-type:luminance"><path fill="#fff" d="M46.961 141.28 121 184.175l-10.754 18.565-74.04-42.894z"/></mask><g mask="url(#g)"><mask id="h" width="86" height="64" x="36" y="140" maskUnits="userSpaceOnUse" style="mask-type:luminance"><path fill="#fff" d="M121.7 140.94H36.105v62.251H121.7z"/></mask><g mask="url(#h)"><mask id="i" width="86" height="62" x="36" y="141" maskUnits="userSpaceOnUse" style="mask-type:luminance"><path fill="#fff" d="M36.106 141.097h84.91v61.815h-84.91z"/></mask><g mask="url(#i)"><mask id="j" width="85" height="62" x="36" y="141" maskUnits="userSpaceOnUse" style="mask-type:luminance"><path fill="#fff" d="M46.962 141.281 121 184.176l-10.754 18.565-74.04-42.894z"/></mask><g mask="url(#j)"><path fill="#000" d="m46.962 141.281 74.044 42.898-10.757 18.565-74.044-42.897z"/></g></g></g></g></g><mask id="k" width="86" height="63" x="91" y="171" maskUnits="userSpaceOnUse" style="mask-type:luminance"><path fill="#fff" d="M91.355 171.289h85.594v62.25H91.354z"/></mask><g mask="url(#k)"><mask id="l" width="86" height="62" x="91" y="172" maskUnits="userSpaceOnUse" style="mask-type:luminance"><path fill="#fff" d="m102.161 172.013 74.038 42.897-10.754 18.566-74.04-42.898z"/></mask><g mask="url(#l)"><mask id="m" width="86" height="63" x="91" y="171" maskUnits="userSpaceOnUse" style="mask-type:luminance"><path fill="#fff" d="M176.949 171.289H91.354v62.25h85.595z"/></mask><g mask="url(#m)"><mask id="n" width="86" height="63" x="91" y="171" maskUnits="userSpaceOnUse" style="mask-type:luminance"><path fill="#fff" d="M91.355 171.912h84.94v61.627h-84.94z"/></mask><g mask="url(#n)"><mask id="o" width="86" height="62" x="91" y="172" maskUnits="userSpaceOnUse" style="mask-type:luminance"><path fill="#fff" d="m102.161 172.013 74.038 42.897-10.754 18.566-74.04-42.898z"/></mask><g mask="url(#o)"><path fill="#000" d="m102.161 172.013 74.044 42.9-10.757 18.566-74.044-42.901z"/></g></g></g></g></g><mask id="p" width="21" height="21" x="268" y="128" maskUnits="userSpaceOnUse" style="mask-type:luminance"><path fill="#fff" d="M268.766 128.491h19.453v20.232h-19.453z"/></mask><g mask="url(#p)"><mask id="q" width="19" height="21" x="269" y="128" maskUnits="userSpaceOnUse" style="mask-type:luminance"><path fill="#fff" d="m269.335 142.277 7.648-13.349 10.784 6.173-7.648 13.353z"/></mask><g mask="url(#q)"><mask id="r" width="21" height="21" x="268" y="128" maskUnits="userSpaceOnUse" style="mask-type:luminance"><path fill="#fff" d="M288.219 128.491h-19.453v20.232h19.453z"/></mask><g mask="url(#r)"><mask id="s" width="19" height="21" x="269" y="128" maskUnits="userSpaceOnUse" style="mask-type:luminance"><path fill="#fff" d="M269.295 128.771h18.49v19.796h-18.49z"/></mask><g mask="url(#s)"><mask id="t" width="19" height="21" x="269" y="128" maskUnits="userSpaceOnUse" style="mask-type:luminance"><path fill="#fff" d="m269.336 142.277 7.647-13.349 10.785 6.173-7.648 13.353z"/></mask><g mask="url(#t)"><path fill="#000" d="m269.336 142.278 7.647-13.356 10.785 6.176-7.648 13.356z"/></g></g></g></g></g><mask id="u" width="145" height="110" x="148" y="122" maskUnits="userSpaceOnUse" style="mask-type:luminance"><path fill="#fff" d="M148.157 122.267h143.954v109.716H148.157z"/></mask><g mask="url(#u)"><mask id="v" width="144" height="109" x="148" y="123" maskUnits="userSpaceOnUse" style="mask-type:luminance"><path fill="#fff" d="m148.158 199.549 123.917-76.524 19.924 32.262-123.916 76.524z"/></mask><g mask="url(#v)"><mask id="w" width="145" height="110" x="148" y="122" maskUnits="userSpaceOnUse" style="mask-type:luminance"><path fill="#fff" d="M292.11 122.267H148.156v109.716H292.11z"/></mask><g mask="url(#w)"><mask id="x" width="145" height="109" x="148" y="123" maskUnits="userSpaceOnUse" style="mask-type:luminance"><path fill="#fff" d="M148.156 123.045H292.08v108.813H148.156z"/></mask><g mask="url(#x)"><mask id="y" width="144" height="109" x="148" y="123" maskUnits="userSpaceOnUse" style="mask-type:luminance"><path fill="#fff" d="m148.156 199.549 123.917-76.524 19.924 32.262-123.916 76.524z"/></mask><g mask="url(#y)"><path fill="#000" d="m148.156 199.55 123.881-76.503 19.924 32.262-123.88 76.503z"/></g></g></g></g></g><mask id="z" width="18" height="16" x="286" y="140" maskUnits="userSpaceOnUse" style="mask-type:luminance"><path fill="#fff" d="M286.665 140.94h16.341v14.785h-16.341z"/></mask><g mask="url(#z)"><mask id="A" width="17" height="15" x="286" y="141" maskUnits="userSpaceOnUse" style="mask-type:luminance"><path fill="#fff" d="m286.854 148.156 11.459-6.879 4.197 6.991-11.462 6.879z"/></mask><g mask="url(#A)"><mask id="B" width="18" height="16" x="286" y="140" maskUnits="userSpaceOnUse" style="mask-type:luminance"><path fill="#fff" d="M303.004 140.94h-16.341v14.785h16.341z"/></mask><g mask="url(#B)"><mask id="C" width="17" height="15" x="286" y="141" maskUnits="userSpaceOnUse" style="mask-type:luminance"><path fill="#fff" d="M286.846 141.096h15.687v14.194h-15.687z"/></mask><g mask="url(#C)"><mask id="D" width="17" height="15" x="286" y="141" maskUnits="userSpaceOnUse" style="mask-type:luminance"><path fill="#fff" d="m286.85 148.157 11.459-6.878 4.197 6.991-11.462 6.878z"/></mask><g mask="url(#D)"><path fill="#000" d="m286.85 148.158 11.468-6.885 4.198 6.991-11.472 6.885z"/></g></g></g></g></g><mask id="E" width="16" height="14" x="291" y="137" maskUnits="userSpaceOnUse" style="mask-type:luminance"><path fill="#fff" d="M291.331 137.05h15.563v13.228h-15.563z"/></mask><g mask="url(#E)"><mask id="F" width="15" height="13" x="292" y="137" maskUnits="userSpaceOnUse" style="mask-type:luminance"><path fill="#fff" d="m292.004 142.337 2.97-4.635 11.292 7.231-2.97 4.636z"/></mask><g mask="url(#F)"><mask id="G" width="16" height="14" x="291" y="137" maskUnits="userSpaceOnUse" style="mask-type:luminance"><path fill="#fff" d="M306.894 137.05h-15.563v13.228h15.563z"/></mask><g mask="url(#G)"><mask id="H" width="16" height="13" x="291" y="137" maskUnits="userSpaceOnUse" style="mask-type:luminance"><path fill="#fff" d="M291.893 137.55h14.38v12.137h-14.38z"/></mask><g mask="url(#H)"><mask id="I" width="15" height="13" x="292" y="137" maskUnits="userSpaceOnUse" style="mask-type:luminance"><path fill="#fff" d="m292 142.337 2.97-4.635 11.292 7.231-2.97 4.636z"/></mask><g mask="url(#I)"><path fill="#000" d="m292 142.337 2.97-4.635 11.298 7.237-2.97 4.636z"/></g></g></g></g></g><mask id="J" width="22" height="20" x="278" y="132" maskUnits="userSpaceOnUse" style="mask-type:luminance"><path fill="#fff" d="M278.882 132.381h20.231v19.453h-20.231z"/></mask><g mask="url(#J)"><mask id="K" width="20" height="20" x="279" y="132" maskUnits="userSpaceOnUse" style="mask-type:luminance"><path fill="#fff" d="m279.384 143.268 6.705-10.471 12.623 8.082-6.708 10.474z"/></mask><g mask="url(#K)"><mask id="L" width="22" height="20" x="278" y="132" maskUnits="userSpaceOnUse" style="mask-type:luminance"><path fill="#fff" d="M299.116 132.38h-20.231v19.454h20.231z"/></mask><g mask="url(#L)"><mask id="M" width="20" height="20" x="279" y="132" maskUnits="userSpaceOnUse" style="mask-type:luminance"><path fill="#fff" d="M279.382 132.691h19.423v18.675h-19.423z"/></mask><g mask="url(#M)"><mask id="N" width="20" height="20" x="279" y="132" maskUnits="userSpaceOnUse" style="mask-type:luminance"><path fill="#fff" d="m279.386 143.269 6.705-10.472 12.623 8.083-6.708 10.474z"/></mask><g mask="url(#N)"><path fill="#000" d="m279.386 143.269 6.705-10.472 12.642 8.095-6.709 10.474z"/></g></g></g></g></g><mask id="O" width="16" height="13" x="30" y="151" maskUnits="userSpaceOnUse" style="mask-type:luminance"><path fill="#fff" d="M30.66 151.057h14.785v12.45H30.66z"/></mask><g mask="url(#O)"><mask id="P" width="15" height="12" x="30" y="151" maskUnits="userSpaceOnUse" style="mask-type:luminance"><path fill="#fff" d="m30.856 156.224 2.917-4.87 11.207 6.715-2.915 4.869z"/></mask><g mask="url(#P)"><mask id="Q" width="16" height="13" x="30" y="151" maskUnits="userSpaceOnUse" style="mask-type:luminance"><path fill="#fff" d="M45.449 151.057H30.664v12.45H45.45z"/></mask><g mask="url(#Q)"><mask id="R" width="16" height="12" x="30" y="151" maskUnits="userSpaceOnUse" style="mask-type:luminance"><path fill="#fff" d="M30.818 151.18h14.195v11.766H30.818z"/></mask><g mask="url(#R)"><mask id="S" width="15" height="12" x="30" y="151" maskUnits="userSpaceOnUse" style="mask-type:luminance"><path fill="#fff" d="m30.86 156.223 2.918-4.869 11.207 6.714-2.915 4.869z"/></mask><g mask="url(#S)"><path fill="#000" d="m30.86 156.223 2.918-4.869 11.201 6.711-2.915 4.866z"/></g></g></g></g></g><mask id="T" width="15" height="14" x="36" y="147" maskUnits="userSpaceOnUse" style="mask-type:luminance"><path fill="#fff" d="M36.107 147.943h14.785v12.45H36.107z"/></mask><g mask="url(#T)"><mask id="U" width="15" height="13" x="36" y="148" maskUnits="userSpaceOnUse" style="mask-type:luminance"><path fill="#fff" d="m36.51 153.323 2.916-4.866 11.21 6.711-2.918 4.87z"/></mask><g mask="url(#U)"><mask id="V" width="15" height="14" x="36" y="147" maskUnits="userSpaceOnUse" style="mask-type:luminance"><path fill="#fff" d="M50.892 147.943H36.107v12.45h14.785z"/></mask><g mask="url(#V)"><mask id="W" width="15" height="13" x="36" y="148" maskUnits="userSpaceOnUse" style="mask-type:luminance"><path fill="#fff" d="M36.417 148.379h14.38v11.766h-14.38z"/></mask><g mask="url(#W)"><mask id="X" width="15" height="13" x="36" y="148" maskUnits="userSpaceOnUse" style="mask-type:luminance"><path fill="#fff" d="m36.51 153.323 2.916-4.866 11.21 6.711-2.918 4.87z"/></mask><g mask="url(#X)"><path fill="#000" d="m36.51 153.323 2.916-4.866 11.203 6.708-2.917 4.87z"/></g></g></g></g></g><mask id="Y" width="156" height="97" x="27" y="140" maskUnits="userSpaceOnUse" style="mask-type:luminance"><path fill="#fff" d="M27.64 140.162h154.753v95.99H27.64z"/></mask><g mask="url(#Y)"><path stroke="#000" stroke-width="2.739" d="m29.603 156.198 136.579 77.928"/></g><mask id="Z" width="163" height="108" x="148" y="129" maskUnits="userSpaceOnUse" style="mask-type:luminance"><path fill="#fff" d="M148.936 129.27h161.257v106.883H148.936z"/></mask><g mask="url(#Z)"><path stroke="#000" stroke-width="2.739" d="m164.94 233.638 143.087-88.311"/></g><mask id="aa" width="163" height="107" x="27" y="65" maskUnits="userSpaceOnUse" style="mask-type:luminance"><path fill="#fff" d="M27.64 65.277h161.757v106.011H27.641z"/></mask><g mask="url(#aa)"><path stroke="#000" stroke-width="2.739" d="M30.32 155.712 173.407 67.4"/></g><mask id="ab" width="156" height="97" x="155" y="65" maskUnits="userSpaceOnUse" style="mask-type:luminance"><path fill="#fff" d="M155.938 65.277h154.255v96.674H155.938z"/></mask><g mask="url(#ab)"><path stroke="#000" stroke-width="2.739" d="m171.454 67.91 136.58 77.928"/></g></g></g></g></g><mask id="ac" width="26" height="28" x="278" y="99" maskUnits="userSpaceOnUse" style="mask-type:luminance"><path fill="#fff" d="M278.882 99.7h24.122v26.457h-24.122z"/></mask><g mask="url(#ac)"><mask id="ad" width="24" height="26" x="279" y="100" maskUnits="userSpaceOnUse" style="mask-type:luminance"><path fill="#fff" d="m279.38 107.458 12.037-7.265 10.899 18.067-12.036 7.262z"/></mask><g mask="url(#ad)"><mask id="ae" width="26" height="28" x="278" y="99" maskUnits="userSpaceOnUse" style="mask-type:luminance"><path fill="#fff" d="M303.006 99.7h-24.122v26.457h24.122z"/></mask><g mask="url(#ae)"><mask id="af" width="24" height="26" x="279" y="100" maskUnits="userSpaceOnUse" style="mask-type:luminance"><path fill="#fff" d="M279.381 100.01h22.97v25.588h-22.97z"/></mask><g mask="url(#af)"><mask id="ag" width="24" height="26" x="279" y="100" maskUnits="userSpaceOnUse" style="mask-type:luminance"><path fill="#fff" d="m279.381 107.458 12.037-7.265 10.899 18.067-12.036 7.262z"/></mask><g mask="url(#ag)"><path fill="#fff" d="m279.381 107.458 12.037-7.265 10.893 18.055-12.036 7.265z"/></g></g></g></g></g><mask id="ah" width="152" height="102" x="142" y="108" maskUnits="userSpaceOnUse" style="mask-type:luminance"><path fill="#fff" d="M142.712 108.26h150.957v101.157H142.712z"/></mask><g mask="url(#ah)"><mask id="ai" width="151" height="101" x="143" y="108" maskUnits="userSpaceOnUse" style="mask-type:luminance"><path fill="#fff" d="m143.475 192.93 140.054-84.43 9.65 16.007-140.054 84.43z"/></mask><g mask="url(#ai)"><mask id="aj" width="152" height="102" x="142" y="108" maskUnits="userSpaceOnUse" style="mask-type:luminance"><path fill="#fff" d="M293.67 108.258H142.713v101.157H293.67z"/></mask><g mask="url(#aj)"><mask id="ak" width="151" height="102" x="143" y="108" maskUnits="userSpaceOnUse" style="mask-type:luminance"><path fill="#fff" d="M143.433 108.414h149.771v100.658H143.433z"/></mask><g mask="url(#ak)"><mask id="al" width="151" height="101" x="143" y="108" maskUnits="userSpaceOnUse" style="mask-type:luminance"><path fill="#fff" d="m143.477 192.929 140.054-84.43 9.65 16.007-140.054 84.43z"/></mask><g mask="url(#al)"><path fill="#fff" d="m143.477 192.929 140.072-84.442 9.65 16.009-140.072 84.44z"/></g></g></g></g></g><mask id="am" width="139" height="90" x="21" y="123" maskUnits="userSpaceOnUse" style="mask-type:luminance"><path fill="#fff" d="M21.323 123.822H159.83v88.707H21.323z"/></mask><g mask="url(#am)"><mask id="an" width="139" height="88" x="21" y="124" maskUnits="userSpaceOnUse" style="mask-type:luminance"><path fill="#fff" d="m29.333 124.385 130.091 73.995-7.627 13.407-130.09-73.995z"/></mask><g mask="url(#an)"><mask id="ao" width="139" height="90" x="21" y="123" maskUnits="userSpaceOnUse" style="mask-type:luminance"><path fill="#fff" d="M159.831 123.82H21.324v88.707h138.507z"/></mask><g mask="url(#ao)"><mask id="ap" width="139" height="88" x="21" y="124" maskUnits="userSpaceOnUse" style="mask-type:luminance"><path fill="#fff" d="M21.665 124.288h137.82v87.585H21.665z"/></mask><g mask="url(#ap)"><mask id="aq" width="139" height="88" x="21" y="124" maskUnits="userSpaceOnUse" style="mask-type:luminance"><path fill="#fff" d="m29.332 124.382 130.091 73.995-7.627 13.408-130.09-73.995z"/></mask><g mask="url(#aq)"><path fill="#fff" d="m29.332 124.382 130.112 74.005-7.626 13.41L21.706 137.79z"/></g></g></g></g></g><path stroke="#000" stroke-width="2.334" d="M22.047 137.401 176.04 42.284M22.626 137.278l129.175 74.509m-.89-.693 153.996-95.114M175.488 42.13l128.835 74.385"/><mask id="ar" width="82" height="86" x="189" y="59" maskUnits="userSpaceOnUse" style="mask-type:luminance"><path fill="#fff" d="M189.399 59.237h80.926v85.594h-80.926z"/></mask><g mask="url(#ar)"><mask id="as" width="82" height="86" x="189" y="59" maskUnits="userSpaceOnUse" style="mask-type:luminance"><path fill="#fff" d="m222.092 59.952 48.174 26.903-32.119 57.521-48.174-26.903z"/></mask><g mask="url(#as)"><mask id="at" width="82" height="86" x="189" y="59" maskUnits="userSpaceOnUse" style="mask-type:luminance"><path fill="#fff" d="M270.325 59.237h-80.926v85.594h80.926z"/></mask><g mask="url(#at)"><mask id="au" width="82" height="86" x="189" y="59" maskUnits="userSpaceOnUse" style="mask-type:luminance"><path fill="#fff" d="M189.929 59.861h80.396v84.597h-80.396z"/></mask><g mask="url(#au)"><mask id="av" width="82" height="86" x="189" y="59" maskUnits="userSpaceOnUse" style="mask-type:luminance"><path fill="#fff" d="m222.094 59.952 48.174 26.903-32.119 57.521-48.174-26.903z"/></mask><g mask="url(#av)"><path fill="#fff" d="m222.093 59.952 48.174 26.903-32.155 57.585-48.174-26.903z"/></g></g></g></g></g><mask id="aw" width="157" height="126" x="120" y="75" maskUnits="userSpaceOnUse" style="mask-type:luminance"><path fill="#fff" d="M120.923 75.58h155.625v124.5H120.923z"/></mask><g mask="url(#aw)"><mask id="ax" width="156" height="125" x="121" y="75" maskUnits="userSpaceOnUse" style="mask-type:luminance"><path fill="#fff" d="m247.507 75.784 28.709 47.119-125.92 76.719-28.709-47.122z"/></mask><g mask="url(#ax)"><mask id="ay" width="157" height="126" x="120" y="75" maskUnits="userSpaceOnUse" style="mask-type:luminance"><path fill="#fff" d="M276.548 75.58H120.923v124.5h155.625z"/></mask><g mask="url(#ay)"><mask id="az" width="156" height="125" x="121" y="75" maskUnits="userSpaceOnUse" style="mask-type:luminance"><path fill="#fff" d="M121.575 75.734h154.817v124.002H121.575z"/></mask><g mask="url(#az)"><mask id="aA" width="156" height="125" x="121" y="75" maskUnits="userSpaceOnUse" style="mask-type:luminance"><path fill="#fff" d="m247.507 75.784 28.709 47.119-125.92 76.719-28.709-47.122z"/></mask><g mask="url(#aA)"><path fill="#fff" d="m247.509 75.784 28.709 47.119-125.902 76.71-28.709-47.122z"/></g></g></g></g></g><mask id="aB" width="119" height="151" x="106" y="32" maskUnits="userSpaceOnUse" style="mask-type:luminance"><path fill="#fff" d="M106.14 32.781h118.275V182.96H106.14z"/></mask><g mask="url(#aB)"><mask id="aC" width="118" height="150" x="106" y="33" maskUnits="userSpaceOnUse" style="mask-type:luminance"><path fill="#fff" d="m175.746 33.14 48.037 27.15-68.986 122.063-48.037-27.147z"/></mask><g mask="url(#aC)"><mask id="aD" width="119" height="151" x="106" y="32" maskUnits="userSpaceOnUse" style="mask-type:luminance"><path fill="#fff" d="M224.413 32.778H106.138v150.179h118.275z"/></mask><g mask="url(#aD)"><mask id="aE" width="118" height="151" x="106" y="32" maskUnits="userSpaceOnUse" style="mask-type:luminance"><path fill="#fff" d="M106.633 32.965h117.278v149.401H106.633z"/></mask><g mask="url(#aE)"><mask id="aF" width="118" height="150" x="106" y="33" maskUnits="userSpaceOnUse" style="mask-type:luminance"><path fill="#fff" d="m175.743 33.14 48.037 27.15-68.986 122.063-48.037-27.146z"/></mask><g mask="url(#aF)"><path fill="#fff" d="m175.744 33.14 48.037 27.15-69.038 122.157-48.037-27.149z"/></g></g></g></g></g><mask id="aG" width="149" height="123" x="57" y="31" maskUnits="userSpaceOnUse" style="mask-type:luminance"><path fill="#fff" d="M57.116 31.225H205.74V153.39H57.116z"/></mask><g mask="url(#aG)"><mask id="aH" width="149" height="122" x="57" y="31" maskUnits="userSpaceOnUse" style="mask-type:luminance"><path fill="#fff" d="m176.367 31.652 29.188 46.825L86.572 152.65l-29.19-46.827z"/></mask><g mask="url(#aH)"><mask id="aI" width="149" height="123" x="57" y="31" maskUnits="userSpaceOnUse" style="mask-type:luminance"><path fill="#fff" d="M205.74 31.225H57.117V153.39H205.74z"/></mask><g mask="url(#aI)"><mask id="aJ" width="149" height="122" x="57" y="31" maskUnits="userSpaceOnUse" style="mask-type:luminance"><path fill="#fff" d="M57.338 31.474h148.279v121.199H57.337z"/></mask><g mask="url(#aJ)"><mask id="aK" width="149" height="122" x="57" y="31" maskUnits="userSpaceOnUse" style="mask-type:luminance"><path fill="#fff" d="m176.367 31.652 29.188 46.825L86.572 152.65l-29.19-46.827z"/></mask><g mask="url(#aK)"><path fill="#fff" d="m176.367 31.653 29.189 46.824-119.075 74.229-29.189-46.824z"/></g></g></g></g></g><mask id="aL" width="117" height="100" x="63" y="101" maskUnits="userSpaceOnUse" style="mask-type:luminance"><path fill="#fff" d="M63.342 101.257h115.941v99.6H63.342z"/></mask><g mask="url(#aL)"><mask id="aM" width="116" height="100" x="63" y="101" maskUnits="userSpaceOnUse" style="mask-type:luminance"><path fill="#fff" d="m178.579 152.65-27.992 47.551-87.162-51.314 27.994-47.548z"/></mask><g mask="url(#aM)"><mask id="aN" width="117" height="100" x="63" y="101" maskUnits="userSpaceOnUse" style="mask-type:luminance"><path fill="#fff" d="M179.284 101.257H63.343v99.6h115.941z"/></mask><g mask="url(#aN)"><mask id="aO" width="116" height="100" x="63" y="101" maskUnits="userSpaceOnUse" style="mask-type:luminance"><path fill="#fff" d="M63.343 101.318h115.382v98.98H63.343z"/></mask><g mask="url(#aO)"><mask id="aP" width="116" height="100" x="63" y="101" maskUnits="userSpaceOnUse" style="mask-type:luminance"><path fill="#fff" d="m178.579 152.65-27.992 47.551-87.162-51.314 27.994-47.548z"/></mask><g mask="url(#aP)"><path fill="#fff" d="m178.578 152.651-27.991 47.551-87.114-51.284 27.991-47.551z"/></g></g></g></g></g><mask id="aQ" width="62" height="43" x="28" y="116" maskUnits="userSpaceOnUse" style="mask-type:luminance"><path fill="#fff" d="M28.324 116.041h61.472v42.797H28.324z"/></mask><g mask="url(#aQ)"><mask id="aR" width="62" height="43" x="28" y="116" maskUnits="userSpaceOnUse" style="mask-type:luminance"><path fill="#fff" d="m89.184 144.689-7.608 14.073-52.661-28.465 7.611-14.076z"/></mask><g mask="url(#aR)"><mask id="aS" width="62" height="43" x="28" y="116" maskUnits="userSpaceOnUse" style="mask-type:luminance"><path fill="#fff" d="M89.795 116.041H28.323v42.797h61.472z"/></mask><g mask="url(#aS)"><mask id="aT" width="62" height="43" x="28" y="116" maskUnits="userSpaceOnUse" style="mask-type:luminance"><path fill="#fff" d="M28.758 116.07h60.508v42.767H28.758z"/></mask><g mask="url(#aT)"><mask id="aU" width="62" height="43" x="28" y="116" maskUnits="userSpaceOnUse" style="mask-type:luminance"><path fill="#fff" d="m89.183 144.689-7.609 14.073-52.66-28.465 7.611-14.076z"/></mask><g mask="url(#aU)"><path fill="#fff" d="m89.18 144.688-7.607 14.073-52.67-28.472 7.608-14.076z"/></g></g></g></g></g><mask id="aV" width="64" height="51" x="36" y="87" maskUnits="userSpaceOnUse" style="mask-type:luminance"><path fill="#fff" d="M36.107 87.25h63.029v50.578H36.107z"/></mask><g mask="url(#aV)"><mask id="aW" width="64" height="51" x="36" y="87" maskUnits="userSpaceOnUse" style="mask-type:luminance"><path fill="#fff" d="M87.818 87.887 99.1 106.662l-51.311 30.83-11.283-18.775z"/></mask><g mask="url(#aW)"><mask id="aX" width="64" height="51" x="36" y="87" maskUnits="userSpaceOnUse" style="mask-type:luminance"><path fill="#fff" d="M99.134 87.25H36.106v50.578h63.028z"/></mask><g mask="url(#aX)"><mask id="aY" width="64" height="51" x="36" y="87" maskUnits="userSpaceOnUse" style="mask-type:luminance"><path fill="#fff" d="M36.413 87.874h62.718v49.676H36.413z"/></mask><g mask="url(#aY)"><mask id="aZ" width="64" height="51" x="36" y="87" maskUnits="userSpaceOnUse" style="mask-type:luminance"><path fill="#fff" d="M87.817 87.887 99.1 106.662l-51.311 30.83-11.283-18.775z"/></mask><g mask="url(#aZ)"><path fill="#fff" d="m87.815 87.887 11.283 18.775-51.339 30.849-11.282-18.776z"/></g></g></g></g></g><mask id="ba" width="18" height="13" x="24" y="121" maskUnits="userSpaceOnUse" style="mask-type:luminance"><path fill="#fff" d="M24.435 121.488h17.118v12.45H24.435z"/></mask><g mask="url(#ba)"><mask id="bb" width="17" height="13" x="24" y="121" maskUnits="userSpaceOnUse" style="mask-type:luminance"><path fill="#fff" d="m27.517 121.522 13.42 6.14-2.638 5.766-13.42-6.139z"/></mask><g mask="url(#bb)"><mask id="bc" width="18" height="13" x="24" y="121" maskUnits="userSpaceOnUse" style="mask-type:luminance"><path fill="#fff" d="M41.553 121.488H24.435v12.45h17.118z"/></mask><g mask="url(#bc)"><mask id="bd" width="18" height="13" x="24" y="121" maskUnits="userSpaceOnUse" style="mask-type:luminance"><path fill="#fff" d="M24.838 121.488h16.246v11.952H24.838z"/></mask><g mask="url(#bd)"><mask id="be" width="17" height="13" x="24" y="121" maskUnits="userSpaceOnUse" style="mask-type:luminance"><path fill="#fff" d="m27.517 121.522 13.42 6.14-2.638 5.766-13.42-6.139z"/></mask><g mask="url(#be)"><path fill="#fff" d="m27.517 121.522 13.423 6.14-2.638 5.766-13.423-6.139z"/></g></g></g></g></g><mask id="bf" width="18" height="13" x="28" y="119" maskUnits="userSpaceOnUse" style="mask-type:luminance"><path fill="#fff" d="M28.324 119.152h17.119v12.45H28.324z"/></mask><g mask="url(#bf)"><mask id="bg" width="17" height="13" x="28" y="119" maskUnits="userSpaceOnUse" style="mask-type:luminance"><path fill="#fff" d="m31.561 119.572 13.42 6.14-2.639 5.766-13.42-6.14z"/></mask><g mask="url(#bg)"><mask id="bh" width="18" height="13" x="28" y="119" maskUnits="userSpaceOnUse" style="mask-type:luminance"><path fill="#fff" d="M45.443 119.152H28.324v12.45h17.119z"/></mask><g mask="url(#bh)"><mask id="bi" width="18" height="13" x="28" y="119" maskUnits="userSpaceOnUse" style="mask-type:luminance"><path fill="#fff" d="M28.76 119.432h16.25v12.14H28.76z"/></mask><g mask="url(#bi)"><mask id="bj" width="17" height="13" x="28" y="119" maskUnits="userSpaceOnUse" style="mask-type:luminance"><path fill="#fff" d="m31.558 119.571 13.42 6.14-2.638 5.766-13.42-6.14z"/></mask><g mask="url(#bj)"><path fill="#fff" d="m31.558 119.571 13.423 6.14-2.638 5.766-13.423-6.14z"/></g></g></g></g></g><mask id="bk" width="35" height="29" x="264" y="98" maskUnits="userSpaceOnUse" style="mask-type:luminance"><path fill="#fff" d="M264.098 98.145h34.237v28.012h-34.237z"/></mask><g mask="url(#bk)"><mask id="bl" width="35" height="28" x="264" y="98" maskUnits="userSpaceOnUse" style="mask-type:luminance"><path fill="#fff" d="m264.316 115.233 27.77-16.873 6.231 10.256-27.769 16.872z"/></mask><g mask="url(#bl)"><mask id="bm" width="35" height="29" x="264" y="98" maskUnits="userSpaceOnUse" style="mask-type:luminance"><path fill="#fff" d="M298.333 98.145h-34.237v28.012h34.237z"/></mask><g mask="url(#bm)"><mask id="bn" width="35" height="28" x="264" y="98" maskUnits="userSpaceOnUse" style="mask-type:luminance"><path fill="#fff" d="M264.251 98.33h34.083v27.268h-34.083z"/></mask><g mask="url(#bn)"><mask id="bo" width="35" height="28" x="264" y="98" maskUnits="userSpaceOnUse" style="mask-type:luminance"><path fill="#fff" d="m264.315 115.233 27.77-16.873 6.231 10.256-27.769 16.872z"/></mask><g mask="url(#bo)"><path fill="#fff" d="m264.315 115.232 27.761-16.866 6.231 10.255-27.76 16.867z"/></g></g></g></g></g><mask id="bp" width="37" height="29" x="260" y="85" maskUnits="userSpaceOnUse" style="mask-type:luminance"><path fill="#fff" d="M260.986 85.695h35.016v28.013h-35.016z"/></mask><g mask="url(#bp)"><mask id="bq" width="35" height="28" x="261" y="86" maskUnits="userSpaceOnUse" style="mask-type:luminance"><path fill="#fff" d="m267.816 86.001 27.84 16.754-6.186 10.283-27.839-16.757z"/></mask><g mask="url(#bq)"><mask id="br" width="37" height="29" x="260" y="85" maskUnits="userSpaceOnUse" style="mask-type:luminance"><path fill="#fff" d="M296.002 85.695h-35.016v28.013h35.016z"/></mask><g mask="url(#br)"><mask id="bs" width="35" height="29" x="261" y="85" maskUnits="userSpaceOnUse" style="mask-type:luminance"><path fill="#fff" d="M261.456 85.818h34.362v27.265h-34.362z"/></mask><g mask="url(#bs)"><mask id="bt" width="35" height="28" x="261" y="86" maskUnits="userSpaceOnUse" style="mask-type:luminance"><path fill="#fff" d="m267.82 86.001 27.84 16.754-6.186 10.283-27.839-16.757z"/></mask><g mask="url(#bt)"><path fill="#fff" d="m267.82 86.001 27.831 16.748-6.189 10.283-27.827-16.751z"/></g></g></g></g></g><mask id="bu" width="12" height="13" x="292" y="100" maskUnits="userSpaceOnUse" style="mask-type:luminance"><path fill="#fff" d="M292.889 100.479h10.893v11.671h-10.893z"/></mask><g mask="url(#bu)"><mask id="bv" width="12" height="12" x="292" y="100" maskUnits="userSpaceOnUse" style="mask-type:luminance"><path fill="#fff" d="m297.21 100.864 6.489 4.924-4.243 5.593-6.489-4.924z"/></mask><g mask="url(#bv)"><mask id="bw" width="12" height="13" x="292" y="100" maskUnits="userSpaceOnUse" style="mask-type:luminance"><path fill="#fff" d="M303.783 100.479H292.89v11.671h10.893z"/></mask><g mask="url(#bw)"><mask id="bx" width="12" height="12" x="292" y="100" maskUnits="userSpaceOnUse" style="mask-type:luminance"><path fill="#fff" d="M292.889 100.757h10.893v10.644h-10.893z"/></mask><g mask="url(#bx)"><mask id="by" width="12" height="12" x="292" y="100" maskUnits="userSpaceOnUse" style="mask-type:luminance"><path fill="#fff" d="m297.21 100.864 6.489 4.924-4.243 5.593-6.489-4.924z"/></mask><g mask="url(#by)"><path fill="#fff" d="m297.21 100.864 6.486 4.924-4.24 5.593-6.489-4.924z"/></g></g></g></g></g><path stroke="#000" stroke-width="2.334" d="m22.048 126.93 153.993-95.114m-151.677 94.95 128.832 74.381m-1.317.102 151.82-95.46m-128.21-73.544 128.835 74.382"/><mask id="bz" width="64" height="51" x="54" y="94" maskUnits="userSpaceOnUse" style="mask-type:luminance"><path fill="#fff" d="M54.001 94.254h63.028v50.578H54.001z"/></mask><g mask="url(#bz)"><mask id="bA" width="63" height="51" x="54" y="94" maskUnits="userSpaceOnUse" style="mask-type:luminance"><path fill="#fff" d="m105.563 94.767 11.283 18.775-51.311 30.83-11.283-18.775z"/></mask><g mask="url(#bA)"><mask id="bB" width="64" height="51" x="54" y="94" maskUnits="userSpaceOnUse" style="mask-type:luminance"><path fill="#fff" d="M117.029 94.254H54.001v50.578h63.028z"/></mask><g mask="url(#bB)"><mask id="bC" width="63" height="51" x="54" y="94" maskUnits="userSpaceOnUse" style="mask-type:luminance"><path fill="#fff" d="M54.157 94.597h62.749v49.861H54.157z"/></mask><g mask="url(#bC)"><mask id="bD" width="63" height="51" x="54" y="94" maskUnits="userSpaceOnUse" style="mask-type:luminance"><path fill="#fff" d="m105.563 94.767 11.283 18.775-51.311 30.83-11.283-18.775z"/></mask><g mask="url(#bD)"><path fill="#fff" d="m105.562 94.767 11.283 18.775-51.338 30.849-11.283-18.776z"/></g></g></g></g></g><mask id="bE" width="36" height="29" x="248" y="88" maskUnits="userSpaceOnUse" style="mask-type:luminance"><path fill="#fff" d="M248.535 88.807h35.016v28.012h-35.016z"/></mask><g mask="url(#bE)"><mask id="bF" width="35" height="28" x="248" y="89" maskUnits="userSpaceOnUse" style="mask-type:luminance"><path fill="#fff" d="m254.686 89.548 28.113 16.292-6.015 10.383-28.113-16.295z"/></mask><g mask="url(#bF)"><mask id="bG" width="36" height="29" x="248" y="88" maskUnits="userSpaceOnUse" style="mask-type:luminance"><path fill="#fff" d="M283.553 88.804h-35.016v28.012h35.016z"/></mask><g mask="url(#bG)"><mask id="bH" width="35" height="28" x="248" y="89" maskUnits="userSpaceOnUse" style="mask-type:luminance"><path fill="#fff" d="M248.566 89.365h34.363v26.894h-34.363z"/></mask><g mask="url(#bH)"><mask id="bI" width="35" height="28" x="248" y="89" maskUnits="userSpaceOnUse" style="mask-type:luminance"><path fill="#fff" d="m254.687 89.546 28.113 16.292-6.015 10.383-28.113-16.295z"/></mask><g mask="url(#bI)"><path fill="#fff" d="m254.687 89.546 28.104 16.286-6.018 10.383-28.101-16.29z"/></g></g></g></g></g><path stroke="#000" stroke-width="2.334" d="m46.022 118.55 116.406 66.417m-1.198-1.411 121.495-74.582M45.592 119.162l121.956-75.269m-.621-.59 116.406 66.417M22.282 138.116l.292-12.593"/><mask id="bJ" width="10" height="9" x="90" y="152" maskUnits="userSpaceOnUse" style="mask-type:luminance"><path fill="#fff" d="M90.823 152.654H99.1v8.28h-8.277z"/></mask><g mask="url(#bJ)"><mask id="bK" width="10" height="9" x="90" y="152" maskUnits="userSpaceOnUse" style="mask-type:luminance"><path fill="#fff" d="M94.962 152.654a4.14 4.14 0 0 0 0 8.28 4.14 4.14 0 0 0 4.137-4.14 4.14 4.14 0 0 0-4.137-4.14"/></mask><g mask="url(#bK)"><mask id="bL" width="10" height="10" x="90" y="152" maskUnits="userSpaceOnUse" style="mask-type:luminance"><path fill="#fff" d="M99.134 152.613h-8.56v8.56h8.56z"/></mask><g mask="url(#bL)"><mask id="bM" width="10" height="9" x="90" y="152" maskUnits="userSpaceOnUse" style="mask-type:luminance"><path fill="#fff" d="M90.822 152.654H99.1v8.28h-8.277z"/></mask><g mask="url(#bM)"><mask id="bN" width="10" height="9" x="90" y="152" maskUnits="userSpaceOnUse" style="mask-type:luminance"><path fill="#fff" d="M94.961 152.654a4.14 4.14 0 0 0 0 8.28 4.14 4.14 0 0 0 4.137-4.14 4.14 4.14 0 0 0-4.137-4.14"/></mask><g mask="url(#bN)"><path fill="#fff" d="M90.821 152.654h8.277v8.28h-8.277z"/></g></g></g></g></g><mask id="bO" width="9" height="9" x="90" y="152" maskUnits="userSpaceOnUse" style="mask-type:luminance"><path fill="#fff" d="M90.823 152.654h8.17v8.171h-8.17z"/></mask><g mask="url(#bO)"><mask id="bP" width="10" height="9" x="90" y="152" maskUnits="userSpaceOnUse" style="mask-type:luminance"><path fill="#fff" d="M94.956 152.654a4.135 4.135 0 0 0-4.134 4.137 4.135 4.135 0 1 0 4.134-4.137"/></mask><g mask="url(#bP)"><path stroke="#000" stroke-width="2.334" d="M94.956 152.654a4.135 4.135 0 0 0-4.134 4.137 4.135 4.135 0 1 0 4.134-4.137Z"/></g></g><mask id="bQ" width="758" height="757" x="-216" y="-255" maskUnits="userSpaceOnUse" style="mask-type:luminance"><path fill="#000" fill-opacity=".13" d="M541.11-254.35h-756.34v756.341h756.34z"/></mask><g mask="url(#bQ)"><mask id="bR" width="53" height="40" x="113" y="37" maskUnits="userSpaceOnUse" style="mask-type:luminance"><path fill="#fff" d="M165.276 37.45H113.92v38.907h51.356z"/></mask><g mask="url(#bR)"><mask id="bS" width="49" height="36" x="115" y="39" maskUnits="userSpaceOnUse" style="mask-type:luminance"><path fill="#fff" d="M115.475 39.784h48.244v34.238h-48.244z"/></mask><g mask="url(#bS)"><mask id="bT" width="51" height="38" x="114" y="38" maskUnits="userSpaceOnUse" style="mask-type:luminance"><path fill="#fff" d="m117.104 38.015 47.687 4.146-2.924 33.63-47.687-4.143z"/></mask><g mask="url(#bT)"><mask id="bU" width="49" height="35" x="115" y="39" maskUnits="userSpaceOnUse" style="mask-type:luminance"><path fill="#fff" d="M140.899 40.084c-13.143-1.143-24.45 5.46-25.256 14.745-.808 9.29 9.192 17.742 22.332 18.885s24.447-5.459 25.256-14.748c.808-9.286-9.192-17.742-22.332-18.882"/></mask><g mask="url(#bU)"><mask id="bV" width="49" height="36" x="115" y="39" maskUnits="userSpaceOnUse" style="mask-type:luminance"><path fill="#fff" d="M163.719 39.784h-48.244v34.238h48.244z"/></mask><g mask="url(#bV)"><mask id="bW" width="49" height="36" x="115" y="39" maskUnits="userSpaceOnUse" style="mask-type:luminance"><path fill="#fff" d="M115.475 39.784h48.244v34.238h-48.244z"/></mask><g mask="url(#bW)"><mask id="bX" width="51" height="38" x="114" y="38" maskUnits="userSpaceOnUse" style="mask-type:luminance"><path fill="#fff" d="m117.106 38.015 47.687 4.146-2.924 33.63-47.687-4.143z"/></mask><g mask="url(#bX)"><mask id="bY" width="49" height="35" x="115" y="39" maskUnits="userSpaceOnUse" style="mask-type:luminance"><path fill="#fff" d="M140.897 40.084c-13.143-1.143-24.45 5.46-25.256 14.745-.808 9.29 9.192 17.742 22.332 18.885s24.447-5.459 25.256-14.748c.808-9.286-9.192-17.742-22.332-18.882"/></mask><g mask="url(#bY)"><path fill="#000" d="m117.106 38.015 47.554 4.134-2.924 33.633-47.554-4.134z"/></g></g></g></g></g></g></g></g></g><mask id="bZ" width="49" height="35" x="113" y="37" maskUnits="userSpaceOnUse" style="mask-type:luminance"><path fill="#fff" d="M113.141 37.45h48.244v34.238h-48.244z"/></mask><g mask="url(#bZ)"><mask id="ca" width="53" height="41" x="111" y="34" maskUnits="userSpaceOnUse" style="mask-type:luminance"><path fill="#fff" d="m111.646 68.305 4.231-33.414 47.511 6.018-4.231 33.414z"/></mask><g mask="url(#ca)"><mask id="cb" width="49" height="35" x="113" y="37" maskUnits="userSpaceOnUse" style="mask-type:luminance"><path fill="#fff" d="M113.76 51.6c-1.17 9.225 8.49 18.049 21.575 19.709 13.085 1.656 24.639-4.48 25.809-13.709 1.167-9.228-8.493-18.052-21.575-19.708-13.085-1.657-24.642 4.48-25.809 13.708"/></mask><g mask="url(#cb)"><mask id="cc" width="49" height="35" x="113" y="37" maskUnits="userSpaceOnUse" style="mask-type:luminance"><path fill="#fff" d="M161.384 37.45H113.14v34.238h48.244z"/></mask><g mask="url(#cc)"><mask id="cd" width="49" height="35" x="113" y="37" maskUnits="userSpaceOnUse" style="mask-type:luminance"><path fill="#fff" d="M113.14 37.45h48.244v34.238H113.14z"/></mask><g mask="url(#cd)"><mask id="ce" width="53" height="41" x="111" y="34" maskUnits="userSpaceOnUse" style="mask-type:luminance"><path fill="#fff" d="m111.645 68.305 4.231-33.414 47.511 6.018-4.231 33.414z"/></mask><g mask="url(#ce)"><mask id="cf" width="49" height="35" x="113" y="37" maskUnits="userSpaceOnUse" style="mask-type:luminance"><path fill="#fff" d="M113.76 51.6c-1.17 9.226 8.49 18.05 21.575 19.709 13.085 1.657 24.639-4.48 25.809-13.708 1.167-9.228-8.493-18.052-21.575-19.709-13.085-1.657-24.642 4.48-25.809 13.708"/></mask><g mask="url(#cf)"><path fill="#fff" d="m111.646 68.305 4.231-33.414 47.38 6-4.231 33.417z"/></g></g></g></g></g></g></g><mask id="cg" width="49" height="35" x="113" y="37" maskUnits="userSpaceOnUse" style="mask-type:luminance"><path fill="#fff" d="M113.141 37.45h48.244v34.238h-48.244z"/></mask><g mask="url(#cg)"><mask id="ch" width="53" height="41" x="111" y="34" maskUnits="userSpaceOnUse" style="mask-type:luminance"><path fill="#fff" d="m111.646 68.304 4.253-33.578 47.475 6.012-4.253 33.58z"/></mask><g mask="url(#ch)"><mask id="ci" width="53" height="41" x="111" y="34" maskUnits="userSpaceOnUse" style="mask-type:luminance"><path fill="#fff" d="m111.646 68.305 4.234-33.442 47.712 6.043-4.234 33.441z"/></mask><g mask="url(#ci)"><mask id="cj" width="49" height="35" x="113" y="37" maskUnits="userSpaceOnUse" style="mask-type:luminance"><path fill="#fff" d="M113.76 51.6c-1.168 9.226 8.489 18.047 21.571 19.703 13.083 1.657 24.636-4.477 25.803-13.702s-8.489-18.049-21.571-19.705c-13.083-1.657-24.636 4.48-25.803 13.705"/></mask><g mask="url(#cj)"><path stroke="#000" stroke-width="3.502" d="M113.761 51.602c-1.167 9.225 8.489 18.046 21.572 19.702s24.635-4.477 25.803-13.702-8.49-18.049-21.572-19.705c-13.082-1.657-24.636 4.48-25.803 13.705Z"/></g></g></g></g><mask id="ck" width="50" height="36" x="113" y="32" maskUnits="userSpaceOnUse" style="mask-type:luminance"><path fill="#fff" d="M113.919 32.003h48.244v35.016h-48.244z"/></mask><g mask="url(#ck)"><mask id="cl" width="53" height="41" x="112" y="29" maskUnits="userSpaceOnUse" style="mask-type:luminance"><path fill="#fff" d="m112.371 63.249 4.234-33.414 47.512 6.015-4.234 33.417z"/></mask><g mask="url(#cl)"><mask id="cm" width="48" height="35" x="114" y="32" maskUnits="userSpaceOnUse" style="mask-type:luminance"><path fill="#fff" d="M114.488 46.54c-1.167 9.229 8.493 18.052 21.578 19.709s24.639-4.48 25.806-13.705c1.17-9.228-8.49-18.052-21.575-19.709s-24.639 4.477-25.809 13.706"/></mask><g mask="url(#cm)"><mask id="cn" width="50" height="36" x="113" y="32" maskUnits="userSpaceOnUse" style="mask-type:luminance"><path fill="#fff" d="M162.161 32.002h-48.244v35.016h48.244z"/></mask><g mask="url(#cn)"><mask id="co" width="50" height="36" x="113" y="32" maskUnits="userSpaceOnUse" style="mask-type:luminance"><path fill="#fff" d="M113.916 32.002h48.244v35.016h-48.244z"/></mask><g mask="url(#co)"><mask id="cp" width="53" height="41" x="112" y="29" maskUnits="userSpaceOnUse" style="mask-type:luminance"><path fill="#fff" d="m112.37 63.248 4.234-33.413 47.512 6.015-4.234 33.417z"/></mask><g mask="url(#cp)"><mask id="cq" width="48" height="35" x="114" y="32" maskUnits="userSpaceOnUse" style="mask-type:luminance"><path fill="#fff" d="M114.483 46.54c-1.167 9.228 8.493 18.052 21.578 19.709 13.085 1.656 24.639-4.48 25.806-13.706 1.17-9.228-8.489-18.052-21.575-19.708-13.085-1.657-24.639 4.477-25.809 13.705"/></mask><g mask="url(#cq)"><path fill="#fff" d="m112.37 63.248 4.234-33.413 47.381 6-4.234 33.414z"/></g></g></g></g></g></g></g><mask id="cr" width="50" height="36" x="113" y="32" maskUnits="userSpaceOnUse" style="mask-type:luminance"><path fill="#fff" d="M113.919 32.003h48.244v35.016h-48.244z"/></mask><g mask="url(#cr)"><mask id="cs" width="53" height="41" x="112" y="29" maskUnits="userSpaceOnUse" style="mask-type:luminance"><path fill="#fff" d="m112.371 63.248 4.255-33.581 47.475 6.012-4.255 33.581z"/></mask><g mask="url(#cs)"><mask id="ct" width="53" height="41" x="112" y="29" maskUnits="userSpaceOnUse" style="mask-type:luminance"><path fill="#fff" d="m112.371 63.25 4.237-33.442 47.712 6.043-4.237 33.441z"/></mask><g mask="url(#ct)"><mask id="cu" width="48" height="35" x="114" y="32" maskUnits="userSpaceOnUse" style="mask-type:luminance"><path fill="#fff" d="M114.49 46.545c-1.171 9.225 8.489 18.05 21.568 19.706 13.083 1.656 24.636-4.478 25.806-13.706 1.167-9.225-8.489-18.046-21.572-19.702s-24.635 4.477-25.802 13.702"/></mask><g mask="url(#cu)"><path stroke="#000" stroke-width="3.502" d="M114.489 46.543c-1.17 9.225 8.489 18.049 21.569 19.705 13.082 1.657 24.635-4.477 25.806-13.705 1.167-9.225-8.49-18.046-21.572-19.702s-24.636 4.477-25.803 13.702Z"/></g></g></g></g><mask id="cv" width="36" height="27" x="120" y="37" maskUnits="userSpaceOnUse" style="mask-type:luminance"><path fill="#fff" d="M120.146 37.45h35.793v25.678h-35.793z"/></mask><g mask="url(#cv)"><mask id="cw" width="39" height="30" x="118" y="35" maskUnits="userSpaceOnUse" style="mask-type:luminance"><path fill="#fff" d="m118.872 60.189 3.107-24.53 34.875 4.42-3.106 24.526z"/></mask><g mask="url(#cw)"><mask id="cx" width="36" height="26" x="120" y="37" maskUnits="userSpaceOnUse" style="mask-type:luminance"><path fill="#fff" d="M120.429 47.924c-.858 6.775 6.234 13.253 15.839 14.468 9.605 1.216 18.085-3.288 18.942-10.06.861-6.776-6.231-13.253-15.836-14.469s-18.088 3.289-18.945 10.061"/></mask><g mask="url(#cx)"><mask id="cy" width="36" height="27" x="120" y="37" maskUnits="userSpaceOnUse" style="mask-type:luminance"><path fill="#fff" d="M155.938 37.45h-35.793v25.68h35.793z"/></mask><g mask="url(#cy)"><mask id="cz" width="36" height="27" x="120" y="37" maskUnits="userSpaceOnUse" style="mask-type:luminance"><path fill="#fff" d="M120.145 37.45h35.793v25.68h-35.793z"/></mask><g mask="url(#cz)"><mask id="cA" width="39" height="30" x="118" y="35" maskUnits="userSpaceOnUse" style="mask-type:luminance"><path fill="#fff" d="m118.871 60.188 3.107-24.53 34.875 4.42-3.106 24.526z"/></mask><g mask="url(#cA)"><mask id="cB" width="36" height="26" x="120" y="37" maskUnits="userSpaceOnUse" style="mask-type:luminance"><path fill="#fff" d="M120.428 47.923c-.858 6.776 6.234 13.253 15.839 14.469s18.085-3.29 18.942-10.061c.861-6.775-6.231-13.253-15.836-14.469s-18.088 3.29-18.945 10.061"/></mask><g mask="url(#cB)"><path fill="#000" d="m118.872 60.188 3.107-24.53 34.781 4.408-3.106 24.526z"/></g></g></g></g></g></g></g><mask id="cC" width="36" height="27" x="120" y="37" maskUnits="userSpaceOnUse" style="mask-type:luminance"><path fill="#fff" d="M120.146 37.45h35.793v25.678h-35.793z"/></mask><g mask="url(#cC)"><mask id="cD" width="39" height="30" x="118" y="35" maskUnits="userSpaceOnUse" style="mask-type:luminance"><path fill="#fff" d="m118.872 60.189 3.079-24.317 34.739 4.401-3.079 24.317z"/></mask><g mask="url(#cD)"><mask id="cE" width="40" height="30" x="118" y="35" maskUnits="userSpaceOnUse" style="mask-type:luminance"><path fill="#fff" d="m118.872 60.19 3.11-24.548 35.021 4.435-3.109 24.547z"/></mask><g mask="url(#cE)"><mask id="cF" width="36" height="26" x="120" y="37" maskUnits="userSpaceOnUse" style="mask-type:luminance"><path fill="#fff" d="M120.428 47.927c-.858 6.772 6.231 13.246 15.833 14.462s18.082-3.286 18.939-10.058c.86-6.772-6.231-13.246-15.833-14.465-9.602-1.216-18.082 3.289-18.939 10.06"/></mask><g mask="url(#cF)"><path stroke="#000" stroke-width="3.502" d="M120.43 47.928c-.857 6.772 6.231 13.247 15.833 14.462 9.602 1.216 18.082-3.285 18.939-10.058.861-6.772-6.231-13.246-15.833-14.465-9.602-1.216-18.082 3.289-18.939 10.061Z"/></g></g></g></g><path stroke="#000" stroke-width="1.167" d="m117.022 61.157.982-4.577m4.249 9.826 2.174-4.147m5.539 6.884 1.523-4.429m7.192 6.43.212-4.678m7.611 3.541-.453-4.662m8.179 1.582-.453-4.66"/><mask id="cG" width="34" height="24" x="122" y="39" maskUnits="userSpaceOnUse" style="mask-type:luminance"><path fill="#fff" d="M122.479 39.006h32.682V62.35h-32.682z"/></mask><g mask="url(#cG)"><mask id="cH" width="36" height="27" x="121" y="37" maskUnits="userSpaceOnUse" style="mask-type:luminance"><path fill="#fff" d="m121.798 59.775 2.854-22.536 31.429 3.979-2.854 22.538z"/></mask><g mask="url(#cH)"><mask id="cI" width="32" height="23" x="123" y="39" maskUnits="userSpaceOnUse" style="mask-type:luminance"><path fill="#fff" d="M123.224 48.508c-.787 6.225 5.59 12.159 14.246 13.253 8.654 1.097 16.311-3.058 17.098-9.283.787-6.222-5.59-12.158-14.243-13.253-8.657-1.097-16.314 3.058-17.101 9.283"/></mask><g mask="url(#cI)"><mask id="cJ" width="34" height="24" x="122" y="39" maskUnits="userSpaceOnUse" style="mask-type:luminance"><path fill="#fff" d="M155.163 39.008h-32.682v23.344h32.682z"/></mask><g mask="url(#cJ)"><mask id="cK" width="34" height="24" x="122" y="39" maskUnits="userSpaceOnUse" style="mask-type:luminance"><path fill="#fff" d="M122.482 39.008h32.682v23.344h-32.682z"/></mask><g mask="url(#cK)"><mask id="cL" width="36" height="27" x="121" y="37" maskUnits="userSpaceOnUse" style="mask-type:luminance"><path fill="#fff" d="m121.801 59.778 2.854-22.536 31.429 3.979-2.854 22.538z"/></mask><g mask="url(#cL)"><mask id="cM" width="32" height="23" x="123" y="39" maskUnits="userSpaceOnUse" style="mask-type:luminance"><path fill="#fff" d="M123.226 48.51c-.787 6.225 5.59 12.159 14.246 13.253 8.654 1.097 16.311-3.058 17.098-9.283.787-6.222-5.59-12.158-14.244-13.252-8.656-1.098-16.313 3.057-17.1 9.282"/></mask><g mask="url(#cM)"><path fill="#a9c5e7" d="m121.801 59.778 2.854-22.535 31.341 3.97-2.854 22.535z"/></g></g></g></g></g></g></g><mask id="cN" width="15" height="13" x="132" y="44" maskUnits="userSpaceOnUse" style="mask-type:luminance"><path fill="#fff" d="M132.594 44.453H146.6v12.45h-14.006z"/></mask><g mask="url(#cN)"><mask id="cO" width="18" height="15" x="130" y="43" maskUnits="userSpaceOnUse" style="mask-type:luminance"><path fill="#fff" d="m130.771 52.043 4.128-9.019 12.736 5.827-4.128 9.022z"/></mask><g mask="url(#cO)"><mask id="cP" width="18" height="15" x="130" y="43" maskUnits="userSpaceOnUse" style="mask-type:luminance"><path fill="#fff" d="m130.771 52.043 4.128-9.019 12.736 5.827-4.128 9.022z"/></mask><g mask="url(#cP)"><path fill="#fff" d="M140.656 47.153c-.706.331-1.441.951-2.186 1.918l-2.164-.988a4.5 4.5 0 0 1 1.492-1.28c.079-.063.158-.13.155-.23a.25.25 0 0 0-.03-.265l-.933-1.587c-.064-.079-.128-.158-.231-.155-.082-.04-.204.006-.265.03a7.26 7.26 0 0 0-2.474 2.438l-.459-.21a.36.36 0 0 0-.483.183l-.438.955a.36.36 0 0 0 .18.486l.456.21c-.317.911-.326 1.811-.052 2.64.28.934.915 1.627 1.872 2.065s1.797.47 2.563.115c.705-.331 1.38-.927 2.106-1.85l2.246 1.027c-.489.629-1.17 1.124-2.054 1.522-.083.064-.162.128-.198.213a.25.25 0 0 0 .027.265l.797 1.671c.067.183.295.234.474.167a7.63 7.63 0 0 0 3.283-2.772l.79.362a.36.36 0 0 0 .486-.182l.438-.955a.36.36 0 0 0-.182-.486l-.791-.362c.356-.994.365-1.896.11-2.766-.277-.933-.897-1.668-1.851-2.106-1.019-.416-1.9-.468-2.684-.073m1.623 2.605a.84.84 0 0 1 .492.577c.049.225.037.471.006.757l-1.872-.857c.337-.298.556-.447.678-.492.222-.152.447-.098.696.015m-6.268 1.055c-.249-.113-.377-.274-.447-.557a1 1 0 0 1-.021-.614l1.745.8c-.277.276-.477.386-.599.431-.243.089-.429.055-.678-.06"/></g></g></g><mask id="cQ" width="49" height="36" x="140" y="168" maskUnits="userSpaceOnUse" style="mask-type:luminance"><path fill="#fff" d="M140.376 168.175h48.244v35.016h-48.244z"/></mask><g mask="url(#cQ)"><mask id="cR" width="53" height="41" x="138" y="165" maskUnits="userSpaceOnUse" style="mask-type:luminance"><path fill="#fff" d="m138.753 199.395 4.231-33.414L190.498 172l-4.234 33.414z"/></mask><g mask="url(#cR)"><mask id="cS" width="49" height="35" x="140" y="168" maskUnits="userSpaceOnUse" style="mask-type:luminance"><path fill="#fff" d="M140.868 182.685c-1.167 9.228 8.493 18.052 21.578 19.708 13.082 1.66 24.639-4.477 25.806-13.705 1.17-9.228-8.49-18.052-21.575-19.709-13.085-1.656-24.639 4.481-25.809 13.706"/></mask><g mask="url(#cS)"><mask id="cT" width="49" height="36" x="140" y="168" maskUnits="userSpaceOnUse" style="mask-type:luminance"><path fill="#fff" d="M188.62 168.175h-48.244v35.015h48.244z"/></mask><g mask="url(#cT)"><mask id="cU" width="49" height="36" x="140" y="168" maskUnits="userSpaceOnUse" style="mask-type:luminance"><path fill="#fff" d="M140.376 168.175h48.244v35.015h-48.244z"/></mask><g mask="url(#cU)"><mask id="cV" width="53" height="41" x="138" y="165" maskUnits="userSpaceOnUse" style="mask-type:luminance"><path fill="#fff" d="m138.753 199.395 4.231-33.414L190.498 172l-4.234 33.413z"/></mask><g mask="url(#cV)"><mask id="cW" width="49" height="35" x="140" y="168" maskUnits="userSpaceOnUse" style="mask-type:luminance"><path fill="#fff" d="M140.868 182.685c-1.167 9.228 8.493 18.052 21.578 19.708 13.082 1.66 24.639-4.477 25.806-13.705 1.17-9.228-8.49-18.052-21.575-19.709-13.085-1.656-24.639 4.481-25.809 13.706"/></mask><g mask="url(#cW)"><path fill="#fff" d="m138.753 199.395 4.231-33.414 47.384 6-4.234 33.417z"/></g></g></g></g></g></g></g><mask id="cX" width="49" height="36" x="140" y="168" maskUnits="userSpaceOnUse" style="mask-type:luminance"><path fill="#fff" d="M140.376 168.175h48.244v35.016h-48.244z"/></mask><g mask="url(#cX)"><mask id="cY" width="53" height="41" x="138" y="165" maskUnits="userSpaceOnUse" style="mask-type:luminance"><path fill="#fff" d="m138.75 199.394 4.252-33.582 47.478 6.016-4.255 33.578z"/></mask><g mask="url(#cY)"><mask id="cZ" width="53" height="41" x="138" y="165" maskUnits="userSpaceOnUse" style="mask-type:luminance"><path fill="#fff" d="m138.751 199.394 4.237-33.441 47.709 6.043-4.234 33.441z"/></mask><g mask="url(#cZ)"><mask id="da" width="49" height="35" x="140" y="168" maskUnits="userSpaceOnUse" style="mask-type:luminance"><path fill="#fff" d="M140.867 182.69c-1.167 9.225 8.49 18.046 21.572 19.703 13.082 1.656 24.636-4.477 25.803-13.703 1.17-9.225-8.49-18.048-21.572-19.705s-24.633 4.477-25.803 13.705"/></mask><g mask="url(#da)"><path stroke="#000" stroke-width="3.502" d="M140.866 182.692c-1.167 9.225 8.49 18.046 21.572 19.703 13.083 1.656 24.636-4.478 25.803-13.703 1.17-9.225-8.489-18.049-21.572-19.705-13.082-1.657-24.632 4.477-25.803 13.705Z"/></g></g></g></g><mask id="db" width="49" height="35" x="141" y="163" maskUnits="userSpaceOnUse" style="mask-type:luminance"><path fill="#fff" d="M141.153 163.507h48.244v34.238h-48.244z"/></mask><g mask="url(#db)"><mask id="dc" width="53" height="41" x="139" y="160" maskUnits="userSpaceOnUse" style="mask-type:luminance"><path fill="#fff" d="m139.479 194.34 4.232-33.417 47.511 6.018-4.231 33.417z"/></mask><g mask="url(#dc)"><mask id="dd" width="49" height="35" x="141" y="163" maskUnits="userSpaceOnUse" style="mask-type:luminance"><path fill="#fff" d="M141.6 177.634c-1.17 9.228 8.489 18.052 21.575 19.708 13.085 1.657 24.638-4.48 25.809-13.705 1.167-9.228-8.493-18.052-21.578-19.709-13.082-1.659-24.639 4.478-25.806 13.706"/></mask><g mask="url(#dd)"><mask id="de" width="49" height="35" x="141" y="163" maskUnits="userSpaceOnUse" style="mask-type:luminance"><path fill="#fff" d="M189.398 163.507h-48.244v34.238h48.244z"/></mask><g mask="url(#de)"><mask id="df" width="49" height="35" x="141" y="163" maskUnits="userSpaceOnUse" style="mask-type:luminance"><path fill="#fff" d="M141.154 163.507h48.244v34.238h-48.244z"/></mask><g mask="url(#df)"><mask id="dg" width="53" height="41" x="139" y="160" maskUnits="userSpaceOnUse" style="mask-type:luminance"><path fill="#fff" d="m139.482 194.34 4.231-33.417 47.512 6.018-4.231 33.417z"/></mask><g mask="url(#dg)"><mask id="dh" width="49" height="35" x="141" y="163" maskUnits="userSpaceOnUse" style="mask-type:luminance"><path fill="#fff" d="M141.597 177.634c-1.17 9.228 8.49 18.052 21.575 19.708 13.085 1.657 24.639-4.48 25.809-13.705 1.167-9.228-8.493-18.052-21.578-19.709-13.082-1.659-24.639 4.478-25.806 13.706"/></mask><g mask="url(#dh)"><path fill="#fff" d="m139.482 194.34 4.231-33.417 47.381 6.003-4.231 33.414z"/></g></g></g></g></g></g></g><mask id="di" width="49" height="35" x="141" y="163" maskUnits="userSpaceOnUse" style="mask-type:luminance"><path fill="#fff" d="M141.153 163.507h48.244v34.238h-48.244z"/></mask><g mask="url(#di)"><mask id="dj" width="53" height="41" x="139" y="160" maskUnits="userSpaceOnUse" style="mask-type:luminance"><path fill="#fff" d="m139.48 194.341 4.253-33.581 47.475 6.012-4.253 33.581z"/></mask><g mask="url(#dj)"><mask id="dk" width="53" height="41" x="139" y="160" maskUnits="userSpaceOnUse" style="mask-type:luminance"><path fill="#fff" d="m139.48 194.341 4.235-33.444 47.712 6.045-4.238 33.442z"/></mask><g mask="url(#dk)"><mask id="dl" width="49" height="35" x="141" y="163" maskUnits="userSpaceOnUse" style="mask-type:luminance"><path fill="#fff" d="M141.6 177.636c-1.17 9.225 8.489 18.049 21.572 19.705 13.082 1.657 24.632-4.48 25.803-13.705 1.167-9.225-8.49-18.046-21.572-19.703-13.082-1.659-24.636 4.478-25.803 13.703"/></mask><g mask="url(#dl)"><path stroke="#000" stroke-width="3.502" d="M141.598 177.636c-1.17 9.225 8.49 18.049 21.572 19.705 13.082 1.657 24.633-4.48 25.803-13.705 1.167-9.225-8.49-18.046-21.572-19.703-13.082-1.659-24.636 4.478-25.803 13.703Z"/></g></g></g></g><mask id="dm" width="36" height="26" x="147" y="168" maskUnits="userSpaceOnUse" style="mask-type:luminance"><path fill="#fff" d="M147.38 168.175h35.016v25.678H147.38z"/></mask><g mask="url(#dm)"><mask id="dn" width="39" height="30" x="145" y="166" maskUnits="userSpaceOnUse" style="mask-type:luminance"><path fill="#fff" d="m145.981 191.278 3.107-24.529 34.879 4.416-3.107 24.53z"/></mask><g mask="url(#dn)"><mask id="do" width="36" height="26" x="147" y="168" maskUnits="userSpaceOnUse" style="mask-type:luminance"><path fill="#fff" d="M147.537 179.015c-.857 6.772 6.234 13.249 15.839 14.468 9.605 1.216 18.089-3.289 18.946-10.064.857-6.772-6.234-13.25-15.839-14.465-9.605-1.219-18.086 3.288-18.946 10.061"/></mask><g mask="url(#do)"><mask id="dp" width="36" height="26" x="147" y="168" maskUnits="userSpaceOnUse" style="mask-type:luminance"><path fill="#fff" d="M182.398 168.174h-35.016v25.679h35.016z"/></mask><g mask="url(#dp)"><mask id="dq" width="36" height="26" x="147" y="168" maskUnits="userSpaceOnUse" style="mask-type:luminance"><path fill="#fff" d="M147.382 168.174h35.016v25.679h-35.016z"/></mask><g mask="url(#dq)"><mask id="dr" width="39" height="30" x="145" y="166" maskUnits="userSpaceOnUse" style="mask-type:luminance"><path fill="#fff" d="m145.984 191.278 3.107-24.529 34.879 4.416-3.107 24.529z"/></mask><g mask="url(#dr)"><mask id="ds" width="36" height="26" x="147" y="168" maskUnits="userSpaceOnUse" style="mask-type:luminance"><path fill="#fff" d="M147.539 179.014c-.857 6.772 6.234 13.25 15.839 14.469 9.605 1.215 18.089-3.289 18.946-10.064.857-6.773-6.234-13.25-15.839-14.466-9.605-1.219-18.086 3.289-18.946 10.061"/></mask><g mask="url(#ds)"><path fill="#000" d="m145.986 191.278 3.107-24.529 34.781 4.404-3.106 24.529z"/></g></g></g></g></g></g></g><mask id="dt" width="36" height="26" x="147" y="168" maskUnits="userSpaceOnUse" style="mask-type:luminance"><path fill="#fff" d="M147.38 168.175h35.016v25.678H147.38z"/></mask><g mask="url(#dt)"><mask id="du" width="39" height="30" x="145" y="166" maskUnits="userSpaceOnUse" style="mask-type:luminance"><path fill="#fff" d="m145.982 191.278 3.079-24.316 34.74 4.398-3.079 24.316z"/></mask><g mask="url(#du)"><mask id="dv" width="40" height="30" x="145" y="166" maskUnits="userSpaceOnUse" style="mask-type:luminance"><path fill="#fff" d="m145.983 191.278 3.11-24.547 35.022 4.435-3.11 24.547z"/></mask><g mask="url(#dv)"><mask id="dw" width="36" height="26" x="147" y="168" maskUnits="userSpaceOnUse" style="mask-type:luminance"><path fill="#fff" d="M147.539 179.017c-.857 6.772 6.231 13.247 15.836 14.462 9.602 1.216 18.082-3.285 18.94-10.057.857-6.773-6.231-13.25-15.837-14.466-9.601-1.216-18.082 3.289-18.939 10.061"/></mask><g mask="url(#dw)"><path stroke="#000" stroke-width="3.502" d="M147.538 179.016c-.857 6.772 6.231 13.246 15.836 14.462 9.602 1.216 18.083-3.286 18.94-10.058s-6.231-13.249-15.836-14.465c-9.602-1.216-18.083 3.289-18.94 10.061Z"/></g></g></g></g><path stroke="#000" stroke-width="1.167" d="m144.133 192.247.982-4.578m4.244 9.825 2.177-4.146m5.535 6.883 1.526-4.426m7.19 6.427.213-4.677m7.61 3.538-.45-4.66m8.177 1.585-.45-4.66"/><mask id="dx" width="34" height="25" x="149" y="169" maskUnits="userSpaceOnUse" style="mask-type:luminance"><path fill="#fff" d="M149.714 169.731h32.681v23.344h-32.681z"/></mask><g mask="url(#dx)"><mask id="dy" width="36" height="27" x="148" y="168" maskUnits="userSpaceOnUse" style="mask-type:luminance"><path fill="#fff" d="m148.905 190.865 2.854-22.539 31.43 3.982-2.855 22.538z"/></mask><g mask="url(#dy)"><mask id="dz" width="32" height="24" x="150" y="170" maskUnits="userSpaceOnUse" style="mask-type:luminance"><path fill="#fff" d="M150.332 179.596c-.787 6.222 5.59 12.159 14.247 13.253 8.653 1.097 16.31-3.061 17.097-9.283.791-6.225-5.586-12.158-14.243-13.255-8.657-1.095-16.31 3.06-17.101 9.285"/></mask><g mask="url(#dz)"><mask id="dA" width="34" height="25" x="149" y="169" maskUnits="userSpaceOnUse" style="mask-type:luminance"><path fill="#fff" d="M182.396 169.731h-32.681v23.344h32.681z"/></mask><g mask="url(#dA)"><mask id="dB" width="34" height="25" x="149" y="169" maskUnits="userSpaceOnUse" style="mask-type:luminance"><path fill="#fff" d="M149.715 169.731h32.681v23.344h-32.681z"/></mask><g mask="url(#dB)"><mask id="dC" width="36" height="27" x="148" y="168" maskUnits="userSpaceOnUse" style="mask-type:luminance"><path fill="#fff" d="m148.906 190.865 2.854-22.539 31.429 3.982-2.854 22.538z"/></mask><g mask="url(#dC)"><mask id="dD" width="32" height="24" x="150" y="170" maskUnits="userSpaceOnUse" style="mask-type:luminance"><path fill="#fff" d="M150.333 179.596c-.787 6.222 5.59 12.159 14.247 13.253 8.653 1.097 16.31-3.061 17.097-9.283.791-6.225-5.586-12.158-14.243-13.255-8.657-1.095-16.31 3.06-17.101 9.285"/></mask><g mask="url(#dD)"><path fill="#a9c5e7" d="m148.906 190.865 2.854-22.539 31.341 3.97-2.854 22.538z"/></g></g></g></g></g></g></g><mask id="dE" width="15" height="13" x="159" y="175" maskUnits="userSpaceOnUse" style="mask-type:luminance"><path fill="#fff" d="M159.052 175.178h14.784v12.45h-14.784z"/></mask><g mask="url(#dE)"><mask id="dF" width="18" height="15" x="157" y="174" maskUnits="userSpaceOnUse" style="mask-type:luminance"><path fill="#fff" d="m157.879 183.133 4.131-9.022 12.735 5.83-4.13 9.022z"/></mask><g mask="url(#dF)"><mask id="dG" width="18" height="15" x="157" y="174" maskUnits="userSpaceOnUse" style="mask-type:luminance"><path fill="#fff" d="m157.879 183.133 4.131-9.022 12.735 5.83-4.13 9.022z"/></mask><g mask="url(#dG)"><path fill="#fff" d="M167.764 178.242c-.705.331-1.441.951-2.185 1.918l-2.162-.991a4.6 4.6 0 0 1 1.49-1.28c.079-.064.161-.127.155-.228a.26.26 0 0 0-.027-.267l-.937-1.584c-.064-.079-.127-.158-.231-.155-.082-.039-.203.006-.264.031a7.3 7.3 0 0 0-2.474 2.437l-.456-.209a.363.363 0 0 0-.487.179l-.437.957a.364.364 0 0 0 .179.487l.459.209c-.316.909-.328 1.812-.052 2.642.277.93.915 1.626 1.873 2.064.954.437 1.796.471 2.562.115.702-.331 1.38-.927 2.103-1.851l2.247 1.027c-.49.63-1.168 1.125-2.055 1.523-.079.064-.161.128-.198.213a.25.25 0 0 0 .031.264l.793 1.672c.067.183.295.234.477.167a7.65 7.65 0 0 0 3.28-2.772l.79.359c.167.079.392.03.487-.179l.437-.958a.36.36 0 0 0-.179-.483l-.79-.362c.352-.994.364-1.896.109-2.766-.28-.933-.897-1.669-1.854-2.106-1.018-.417-1.9-.468-2.684-.073m1.626 2.605c.249.115.42.295.49.577.048.225.036.468.006.757l-1.873-.857c.338-.298.56-.447.681-.492.219-.152.447-.098.696.015m-6.267 1.054c-.25-.112-.38-.273-.45-.556a1.05 1.05 0 0 1-.022-.614l1.748.8c-.279.276-.48.386-.602.431-.24.088-.425.055-.674-.061"/></g></g></g><path stroke="#000" stroke-width="2.334" d="m99.746 123.025 74.661-49.332m-42.292 77.664 74.66-49.336m-64.625 56.698 48.749-32.22m-83.16 5.28 48.749-32.219"/><mask id="dH" width="15" height="14" x="78" y="119" maskUnits="userSpaceOnUse" style="mask-type:luminance"><path fill="#fff" d="M78.127 119.152h14.784v13.229H78.127z"/></mask><g mask="url(#dH)"><mask id="dI" width="17" height="16" x="77" y="118" maskUnits="userSpaceOnUse" style="mask-type:luminance"><path fill="#fff" d="m80.795 118.174 12.832 3.93-3.419 11.161-12.833-3.93z"/></mask><g mask="url(#dI)"><mask id="dJ" width="17" height="16" x="77" y="118" maskUnits="userSpaceOnUse" style="mask-type:luminance"><path fill="#fff" d="m80.792 118.174 13.043 3.994-3.453 11.283-13.043-3.994z"/></mask><g mask="url(#dJ)"><mask id="dK" width="15" height="13" x="78" y="119" maskUnits="userSpaceOnUse" style="mask-type:luminance"><path fill="#fff" d="M87.277 120.159c-3.581-1.094-7.256.541-8.21 3.657s1.176 6.529 4.757 7.626c3.577 1.094 7.255-.541 8.21-3.657.95-3.115-1.177-6.529-4.757-7.626"/></mask><g mask="url(#dK)"><path stroke="#000" stroke-width="2.334" d="M87.275 120.159c-3.58-1.094-7.256.541-8.21 3.657s1.176 6.529 4.757 7.626c3.578 1.094 7.255-.541 8.21-3.657.951-3.115-1.176-6.529-4.757-7.626Z"/></g></g></g></g><mask id="dL" width="10" height="9" x="94" y="126" maskUnits="userSpaceOnUse" style="mask-type:luminance"><path fill="#fff" d="M94.465 126.155h9.337v8.56h-9.337z"/></mask><g mask="url(#dL)"><mask id="dM" width="12" height="12" x="93" y="125" maskUnits="userSpaceOnUse" style="mask-type:luminance"><path fill="#fff" d="m95.928 125.49 8.927 2.733-2.392 7.815-8.927-2.736z"/></mask><g mask="url(#dM)"><mask id="dN" width="12" height="11" x="93" y="125" maskUnits="userSpaceOnUse" style="mask-type:luminance"><path fill="#fff" d="m95.926 125.49 8.709 2.666-2.308 7.535-8.708-2.669z"/></mask><g mask="url(#dN)"><mask id="dO" width="10" height="9" x="94" y="126" maskUnits="userSpaceOnUse" style="mask-type:luminance"><path fill="#fff" d="M100.254 126.816c-2.392-.733-4.845.361-5.483 2.44-.636 2.079.784 4.359 3.176 5.092 2.389.732 4.845-.359 5.483-2.441.636-2.079-.787-4.359-3.176-5.091"/></mask><g mask="url(#dO)"><path stroke="#000" stroke-width="1.167" d="M100.255 126.814c-2.393-.733-4.846.362-5.484 2.441-.635 2.079.784 4.358 3.177 5.091 2.389.732 4.845-.359 5.483-2.441.635-2.079-.787-4.359-3.176-5.091Z"/></g></g></g></g><mask id="dP" width="8" height="7" x="82" y="122" maskUnits="userSpaceOnUse" style="mask-type:luminance"><path fill="#fff" d="M82.796 122.267h6.225v6.225h-6.225z"/></mask><g mask="url(#dP)"><mask id="dQ" width="8" height="7" x="82" y="122" maskUnits="userSpaceOnUse" style="mask-type:luminance"><path fill="#fff" d="m82.022 125.948 1.841-3.647 5.21 2.632-1.842 3.644z"/></mask><g mask="url(#dQ)"><mask id="dR" width="8" height="7" x="82" y="122" maskUnits="userSpaceOnUse" style="mask-type:luminance"><path fill="#fff" d="m82.023 125.949 1.841-3.648 5.21 2.633-1.842 3.644z"/></mask><g mask="url(#dR)"><mask id="dS" width="8" height="7" x="82" y="122" maskUnits="userSpaceOnUse" style="mask-type:luminance"><path fill="#fff" d="m82.025 125.949 1.842-3.647 5.21 2.632-1.842 3.644z"/></mask><g mask="url(#dS)"><path fill="#000" d="M86.195 124c-.298.131-.614.383-.94.781l-.869-.437a2 2 0 0 1 .642-.523c.033-.024.067-.052.067-.094a.11.11 0 0 0-.006-.113l-.35-.675c-.024-.033-.049-.066-.091-.066-.034-.019-.085 0-.11.009a3.1 3.1 0 0 0-1.07.997l-.185-.092a.15.15 0 0 0-.2.07l-.201.399a.15.15 0 0 0 .064.206l.182.091a1.76 1.76 0 0 0-.079 1.11c.094.395.343.693.726.887.383.192.73.216 1.052.076.298-.133.587-.376.906-.756l.903.452c-.216.262-.505.462-.879.621-.033.027-.07.051-.085.085a.11.11 0 0 0 .006.112l.289.711c.024.076.119.101.195.076a3.3 3.3 0 0 0 1.407-1.13l.319.158c.067.036.158.018.204-.07l.2-.398a.15.15 0 0 0-.064-.204l-.319-.161c.167-.414.192-.793.104-1.161a1.32 1.32 0 0 0-.718-.903c-.407-.185-.769-.216-1.1-.058m.61 1.11a.34.34 0 0 1 .192.249 1 1 0 0 1-.015.316l-.75-.377c.145-.125.24-.185.288-.2.094-.064.186-.037.286.012m-2.598.38c-.1-.052-.149-.122-.173-.241a.44.44 0 0 1 .006-.258l.699.356a.7.7 0 0 1-.255.173c-.1.036-.177.018-.277-.03"/></g></g></g></g><mask id="dT" width="7" height="7" x="95" y="127" maskUnits="userSpaceOnUse" style="mask-type:luminance"><path fill="#fff" d="M95.245 127.714h6.225v5.447h-6.225z"/></mask><g mask="url(#dT)"><mask id="dU" width="8" height="7" x="94" y="127" maskUnits="userSpaceOnUse" style="mask-type:luminance"><path fill="#fff" d="m94.93 131.093 1.839-3.648 5.209 2.63-1.839 3.647z"/></mask><g mask="url(#dU)"><mask id="dV" width="8" height="7" x="94" y="127" maskUnits="userSpaceOnUse" style="mask-type:luminance"><path fill="#fff" d="m94.929 131.092 1.839-3.647 5.209 2.629-1.838 3.648z"/></mask><g mask="url(#dV)"><mask id="dW" width="8" height="7" x="94" y="127" maskUnits="userSpaceOnUse" style="mask-type:luminance"><path fill="#fff" d="m94.928 131.092 1.839-3.648 5.209 2.63-1.838 3.647z"/></mask><g mask="url(#dW)"><path fill="#000" d="M99.095 129.142c-.294.134-.61.386-.939.784l-.866-.438q.255-.328.638-.522c.037-.028.07-.052.07-.095a.11.11 0 0 0-.006-.112l-.35-.675c-.027-.033-.051-.07-.094-.07-.033-.015-.082.003-.11.012-.44.253-.799.59-1.07.997l-.182-.091a.15.15 0 0 0-.203.07l-.2.398a.15.15 0 0 0 .063.204l.185.094c-.152.38-.173.757-.079 1.109.095.393.34.69.727.885.383.195.726.216 1.052.076.294-.131.586-.374.905-.757l.9.456c-.216.261-.505.462-.878.62a.3.3 0 0 0-.085.085.11.11 0 0 0 .006.113l.291.711c.025.076.116.1.192.073a3.27 3.27 0 0 0 1.41-1.131l.316.161a.15.15 0 0 0 .204-.07l.201-.398c.036-.07.021-.164-.064-.206l-.316-.159c.167-.413.188-.793.103-1.161a1.32 1.32 0 0 0-.717-.902c-.41-.186-.772-.219-1.104-.061m.614 1.112a.33.33 0 0 1 .189.247c.015.094.006.197-.012.319l-.754-.38c.146-.122.24-.183.292-.201.094-.061.185-.036.285.015m-2.602.377c-.1-.048-.148-.118-.17-.237a.44.44 0 0 1 .003-.258l.702.352a.8.8 0 0 1-.255.177c-.103.033-.18.018-.28-.034"/></g></g></g></g></g><defs><clipPath id="a"><path fill="#fff" d="M.599 0h322.29v238.829H.6z"/></clipPath></defs></svg>