<svg xmlns="http://www.w3.org/2000/svg" width="126" height="153" fill="none" viewBox="0 0 126 153"><g clip-path="url(#a)"><mask id="b" width="467" height="467" x="-171" y="-159" maskUnits="userSpaceOnUse" style="mask-type:luminance"><path fill="#000" fill-opacity=".15" d="M295.058-158.232h-465.821v465.82h465.821z"/></mask><g mask="url(#b)"><mask id="c" width="95" height="96" x="45" y="37" maskUnits="userSpaceOnUse" style="mask-type:luminance"><path fill="#fff" d="M139.308 37.776H45.377v94.411h93.931z"/></mask><g mask="url(#c)"><mask id="d" width="95" height="94" x="45" y="38" maskUnits="userSpaceOnUse" style="mask-type:luminance"><path fill="#fff" d="M45.53 38.16h93.74v93.738H45.53z"/></mask><g mask="url(#d)"><mask id="e" width="95" height="96" x="45" y="37" maskUnits="userSpaceOnUse" style="mask-type:luminance"><path fill="#fff" d="M139.308 37.776H45.377v94.411h93.931z"/></mask><g mask="url(#e)"><mask id="f" width="41" height="40" x="58" y="69" maskUnits="userSpaceOnUse" style="mask-type:luminance"><path fill="#fff" d="M58.315 69.406H98.57v39.298H58.315z"/></mask><g mask="url(#f)"><mask id="g" width="41" height="41" x="58" y="69" maskUnits="userSpaceOnUse" style="mask-type:luminance"><path fill="#fff" d="m78.586 69.59 19.787 19.788-20.199 20.201-19.79-19.789z"/></mask><g mask="url(#g)"><mask id="h" width="57" height="56" x="53" y="54" maskUnits="userSpaceOnUse" style="mask-type:luminance"><path fill="#fff" d="m85.282 54.244 24.324 24.323L78.274 109.9 53.95 85.576z"/></mask><g mask="url(#h)"><mask id="i" width="57" height="56" x="53" y="54" maskUnits="userSpaceOnUse" style="mask-type:luminance"><path fill="#fff" d="m85.282 54.244 24.324 24.323L78.274 109.9 53.95 85.576z"/></mask><g mask="url(#i)"><path fill="#000" d="m94.893 88.069 2.57-2.57c5.259-5.259 5.249-13.825-.018-19.093s-13.835-5.28-19.093-.019l-2.57 2.57c-1.483-1.404-3.816-1.39-5.265.06L56.625 82.91a3.7 3.7 0 0 0-.47.573 3.8 3.8 0 0 0-.635 2.097 3.8 3.8 0 0 0 .289 1.447 3.8 3.8 0 0 0 .82 1.226l18.969 18.97q.261.262.573.469a3.7 3.7 0 0 0 1.36.566 3.8 3.8 0 0 0 1.476.002q.365-.073.708-.216.344-.14.653-.348.309-.205.573-.47l13.892-13.892a3.77 3.77 0 0 0 .06-5.264m-15.057.32a6 6 0 0 1-.348.223c-.728.4-1.582.475-2.37.25l-2.795 4.51a.7.7 0 0 1-.52.384.72.72 0 0 1-.618-.19l-2.844-2.843a.717.717 0 0 1 .195-1.138l4.452-2.853a3.12 3.12 0 0 1 .25-2.37c.01-.018.152-.252.223-.348q.131-.176.285-.33a3.1 3.1 0 0 1 1.013-.677q.282-.118.586-.176.301-.06.608-.06a3.2 3.2 0 0 1 1.196.238q.284.118.54.29a3.1 3.1 0 0 1 .862.861 3.1 3.1 0 0 1 .468 1.127 3.2 3.2 0 0 1 0 1.219q-.06.301-.176.586-.118.283-.288.539-.17.255-.39.472a3 3 0 0 1-.329.286m11.802-3.59L79.05 72.212l2.565-2.563c3.463-3.465 9.103-3.461 12.576.011 3.47 3.47 3.474 9.11.01 12.575z"/></g></g></g></g><mask id="j" width="79" height="79" x="47" y="51" maskUnits="userSpaceOnUse" style="mask-type:luminance"><path fill="#fff" d="M47.775 51.675h77.637v77.637H47.775z"/></mask><g mask="url(#j)"><mask id="k" width="95" height="94" x="45" y="38" maskUnits="userSpaceOnUse" style="mask-type:luminance"><path fill="#fff" d="m98.375 38.27 40.814 40.815-52.77 52.768-40.813-40.814z"/></mask><g mask="url(#k)"><mask id="l" width="95" height="94" x="45" y="38" maskUnits="userSpaceOnUse" style="mask-type:luminance"><path fill="#fff" d="m98.377 38.27 40.814 40.815-52.77 52.768-40.813-40.814z"/></mask><g mask="url(#l)"><mask id="m" width="95" height="94" x="45" y="38" maskUnits="userSpaceOnUse" style="mask-type:luminance"><path fill="#fff" d="m98.38 38.27 40.813 40.815-52.77 52.768L45.61 91.039z"/></mask><g mask="url(#m)"><path fill="#000" d="m114.423 95.098 4.329-4.328c8.856-8.856 8.871-23.256.035-32.092-8.838-8.838-23.24-8.827-32.096.03l-4.33 4.33a6.34 6.34 0 0 0-8.845.118l-23.4 23.398a6.5 6.5 0 0 0-.79.965 6.3 6.3 0 0 0-.588 1.098 6.3 6.3 0 0 0-.487 2.43q0 .626.12 1.24.123.612.361 1.19a6.3 6.3 0 0 0 1.374 2.058l31.82 31.82a6.25 6.25 0 0 0 2.058 1.374q.58.24 1.19.362.615.121 1.24.119.626 0 1.24-.123a6.33 6.33 0 0 0 3.253-1.741l23.399-23.399a6.34 6.34 0 0 0 .117-8.849m-25.31.588c-.159.12-.555.36-.585.376-1.227.678-2.66.804-3.986.43l-4.712 7.59a1.2 1.2 0 0 1-.36.429 1.21 1.21 0 0 1-1.553-.097l-4.772-4.77a1.22 1.22 0 0 1-.236-1.31 1.3 1.3 0 0 1 .334-.45q.106-.09.234-.155l7.493-4.81c-.374-1.325-.249-2.759.429-3.983a9 9 0 0 1 .376-.588q.22-.295.48-.556a5.2 5.2 0 0 1 .797-.654 5 5 0 0 1 .908-.486 5 5 0 0 1 .985-.3q.507-.1 1.024-.103.516 0 1.024.101a5.2 5.2 0 0 1 1.89.781 5.2 5.2 0 0 1 2.23 3.338q.1.508.1 1.024-.001.517-.104 1.024a5.2 5.2 0 0 1-.786 1.894 5.2 5.2 0 0 1-1.21 1.275m19.85-6.073L87.848 68.5l4.317-4.317c5.835-5.835 15.315-5.846 21.139-.023s5.809 15.302-.024 21.137z"/></g></g></g></g><mask id="n" width="68" height="68" x="54" y="56" maskUnits="userSpaceOnUse" style="mask-type:luminance"><path fill="#fff" d="M54.482 56.467h67.094v67.093H54.482z"/></mask><g mask="url(#n)"><mask id="o" width="82" height="81" x="52" y="45" maskUnits="userSpaceOnUse" style="mask-type:luminance"><path fill="#fff" d="m97.983 45.009 35.454 35.454-45.35 45.348-35.454-35.454z"/></mask><g mask="url(#o)"><mask id="p" width="82" height="81" x="52" y="45" maskUnits="userSpaceOnUse" style="mask-type:luminance"><path fill="#fff" d="m97.983 45.009 35.454 35.454-45.35 45.348-35.454-35.454z"/></mask><g mask="url(#p)"><mask id="q" width="82" height="81" x="52" y="45" maskUnits="userSpaceOnUse" style="mask-type:luminance"><path fill="#fff" d="m97.983 45.009 35.454 35.454-45.35 45.348-35.454-35.454z"/></mask><g mask="url(#q)"><path fill="#000" d="m112.113 94.186 3.72-3.72c7.61-7.61 7.555-20.053-.122-27.73s-20.122-7.737-27.732-.126l-3.722 3.722c-2.158-2.046-5.547-2.039-7.643.06l-20.11 20.11q-.379.377-.677.827-.3.449-.504.947t-.307 1.028q-.105.529-.1 1.069.002.54.108 1.07a5.5 5.5 0 0 0 .829 1.983q.3.45.685.835l27.646 27.644a5.6 5.6 0 0 0 1.786 1.198q.5.209 1.03.316a5.4 5.4 0 0 0 2.141.01 5.4 5.4 0 0 0 1.975-.811 5.4 5.4 0 0 0 .828-.678l20.109-20.109c2.099-2.098 2.106-5.487.06-7.645m-21.867.39c-.137.1-.48.306-.505.321-1.056.579-2.296.682-3.441.352l-4.036 6.537a1.06 1.06 0 0 1-.52.487 1.04 1.04 0 0 1-.713.036 1 1 0 0 1-.226-.098 1.3 1.3 0 0 1-.194-.148l-4.145-4.144a1.2 1.2 0 0 1-.148-.195 1.1 1.1 0 0 1-.142-.463 1 1 0 0 1 .013-.243 1 1 0 0 1 .187-.444q.073-.096.165-.175.094-.079.202-.133l6.453-4.12c-.33-1.148-.228-2.388.352-3.442.015-.028.219-.368.322-.505q.189-.256.412-.477a4.5 4.5 0 0 1 2.317-1.232q.437-.087.884-.084.446.002.885.09.439.09.852.262.416.173.786.423a4.57 4.57 0 0 1 1.68 2.042q.174.414.262.854a4.53 4.53 0 0 1-.247 2.619 4.4 4.4 0 0 1-.978 1.465q-.225.224-.477.414m17.121-5.156L89.023 71.076l3.71-3.709c5.014-5.015 13.206-4.98 18.266.08 5.06 5.059 5.092 13.249.079 18.264z"/></g></g></g></g><mask id="r" width="74" height="74" x="50" y="54" maskUnits="userSpaceOnUse" style="mask-type:luminance"><path fill="#fff" d="M50.168 54.071h73.324v73.324H50.168z"/></mask><g mask="url(#r)"><mask id="s" width="90" height="89" x="47" y="41" maskUnits="userSpaceOnUse" style="mask-type:luminance"><path fill="#fff" d="m97.661 41.042 38.753 38.753-49.884 49.884-38.753-38.753z"/></mask><g mask="url(#s)"><mask id="t" width="90" height="89" x="47" y="41" maskUnits="userSpaceOnUse" style="mask-type:luminance"><path fill="#fff" d="m97.664 41.042 38.753 38.753-49.884 49.884L47.78 90.926z"/></mask><g mask="url(#t)"><mask id="u" width="90" height="89" x="47" y="41" maskUnits="userSpaceOnUse" style="mask-type:luminance"><path fill="#fff" d="m97.665 41.042 38.753 38.753-49.884 49.884-38.753-38.753z"/></mask><g mask="url(#u)"><path fill="#000" d="m112.983 94.918 4.092-4.095c8.372-8.37 8.357-22.013-.034-30.403s-22.034-8.41-30.407-.038l-4.093 4.093c-2.358-2.236-6.072-2.213-8.38.093l-22.12 22.12a6 6 0 0 0-.747.912 6 6 0 0 0-.554 1.039 6 6 0 0 0-.341 1.129 6 6 0 0 0 .902 4.515q.33.494.749.913l30.213 30.213a6.04 6.04 0 0 0 5.429 1.653 6 6 0 0 0 2.168-.897 6 6 0 0 0 .911-.747l22.12-22.119c2.308-2.307 2.329-6.023.092-8.382m-23.977.503c-.15.112-.525.339-.555.356-1.158.638-2.517.754-3.773.397l-4.448 7.183a1.2 1.2 0 0 1-.341.404 1.17 1.17 0 0 1-.753.221 1.2 1.2 0 0 1-.507-.155 1.2 1.2 0 0 1-.213-.161l-4.53-4.53a1 1 0 0 1-.16-.212 1.1 1.1 0 0 1-.155-.508 1.1 1.1 0 0 1 .09-.52q.05-.123.13-.232.082-.108.184-.193.102-.087.221-.148l7.09-4.54c-.358-1.258-.242-2.617.398-3.774a8 8 0 0 1 .354-.556q.208-.279.455-.526a4.97 4.97 0 0 1 2.544-1.359q.48-.095.97-.093a4.96 4.96 0 0 1 2.765.84 4.97 4.97 0 0 1 1.832 2.234 4.9 4.9 0 0 1 .382 1.903 5 5 0 0 1-.378 1.902 4.97 4.97 0 0 1-1.602 2.067m18.791-5.713L87.751 69.66l4.08-4.079c5.516-5.517 14.498-5.507 20.028.022 5.528 5.53 5.536 14.509.019 20.024z"/></g></g></g></g></g></g></g></g><mask id="v" width="43" height="45" x="28" y="69" maskUnits="userSpaceOnUse" style="mask-type:luminance"><path fill="#fff" d="M28.602 69.887h42.173v43.131H28.602z"/></mask><g mask="url(#v)"><mask id="w" width="44" height="44" x="28" y="70" maskUnits="userSpaceOnUse" style="mask-type:luminance"><path fill="#fff" d="m35.862 70.027 35.995 6.957-7.024 36.349-35.995-6.956z"/></mask><g mask="url(#w)"><mask id="x" width="56" height="66" x="20" y="48" maskUnits="userSpaceOnUse" style="mask-type:luminance"><path fill="#fff" d="m31.906 48.679 43.76 8.456-10.91 56.464-43.76-8.456z"/></mask><g mask="url(#x)"><path fill="#a9c5e7" d="m66.67 77.971.892-4.62c1.826-9.45-4.38-18.629-13.83-20.454-9.45-1.827-18.63 4.377-20.458 13.829l-.893 4.62a4.877 4.877 0 0 0-5.591 3.883L21.964 100.2a4.9 4.9 0 0 0 .01 1.905q.096.472.284.916.185.444.454.842a4.9 4.9 0 0 0 1.356 1.341q.4.264.848.447.444.18.917.273l34.03 6.575q.474.093.955.09.48-.004.952-.099.472-.097.916-.283a5 5 0 0 0 1.578-1.069 4.87 4.87 0 0 0 1.323-2.509l4.826-24.97c.504-2.606-1.17-5.117-3.743-5.688M50.78 89.235c-.05.146-.2.468-.212.493-.488.958-1.35 1.656-2.357 1.988l.272 6.863a.9.9 0 0 1-.047.426 1 1 0 0 1-.094.195 1 1 0 0 1-.31.298.9.9 0 0 1-.412.125 1 1 0 0 1-.216-.01l-5.103-.986a1 1 0 0 1-.204-.07.9.9 0 0 1-.335-.27.9.9 0 0 1-.193-.608.95.95 0 0 1 .118-.415l2.705-6.286c-.812-.683-1.351-1.651-1.447-2.724a3.8 3.8 0 0 1 .052-1.095q.077-.39.225-.76a4 4 0 0 1 .371-.7 4 4 0 0 1 1.106-1.12 4.05 4.05 0 0 1 2.241-.694q.398 0 .788.073.39.076.76.227.368.15.7.368a4 4 0 0 1 1.12 1.11 4.1 4.1 0 0 1 .61 1.453 4 4 0 0 1 .008 1.575 4 4 0 0 1-.146.544m10.038-12.408-22.58-4.363.89-4.607c1.204-6.227 7.245-10.313 13.473-9.11s10.311 7.247 9.108 13.473z"/></g></g></g><mask id="y" width="83" height="102" x="17" y="28" maskUnits="userSpaceOnUse" style="mask-type:luminance"><path fill="#fff" d="M17.1 28.192h82.43v101.599H17.1z"/></mask><g mask="url(#y)"><mask id="z" width="92" height="109" x="16" y="22" maskUnits="userSpaceOnUse" style="mask-type:luminance"><path fill="#fff" d="m34.37 22.014 73.404 14.184-18.277 94.577-73.402-14.185z"/></mask><g mask="url(#z)"><mask id="A" width="92" height="109" x="16" y="22" maskUnits="userSpaceOnUse" style="mask-type:luminance"><path fill="#fff" d="m34.37 22.014 73.405 14.184-18.277 94.577-73.402-14.185z"/></mask><g mask="url(#A)"><mask id="B" width="92" height="109" x="16" y="22" maskUnits="userSpaceOnUse" style="mask-type:luminance"><path fill="#fff" d="m34.372 22.014 73.405 14.184L89.5 130.775 16.098 116.59z"/></mask><g mask="url(#B)"><path fill="#000" d="m92.845 71.225 1.5-7.76c3.067-15.87-7.373-31.288-23.268-34.358-15.894-3.072-31.332 7.342-34.4 23.217l-1.5 7.76c-4.375-.725-8.557 2.14-9.401 6.516l-8.105 41.937q-.078.396-.114.797a8.23 8.23 0 0 0 3.005 7.133 8.6 8.6 0 0 0 1.344.887q.357.188.73.339a8 8 0 0 0 1.544.46l57.236 11.06q.397.075.8.115a8.3 8.3 0 0 0 3.946-.607q.371-.154.726-.348.354-.19.689-.418.334-.223.646-.483a8.3 8.3 0 0 0 1.132-1.142 8.3 8.3 0 0 0 1.228-2.072q.153-.373.266-.76a8 8 0 0 0 .193-.782l8.104-41.938c.846-4.376-1.97-8.594-6.301-9.553M66.127 90.137c-.084.243-.333.786-.356.827-.822 1.608-2.269 2.78-3.963 3.336l.46 11.526a1.57 1.57 0 0 1-.467 1.326 1.6 1.6 0 0 1-.624.365 1.55 1.55 0 0 1-.72.046l-8.582-1.658a1.57 1.57 0 0 1-.908-.571 1.6 1.6 0 0 1-.297-.659 1.57 1.57 0 0 1 .17-1.058l4.545-10.558c-1.364-1.148-2.272-2.774-2.433-4.573a12 12 0 0 1-.025-.899 6.7 6.7 0 0 1 1.112-3.392 6.76 6.76 0 0 1 4.304-2.91 6.9 6.9 0 0 1 2.65-.012 6.8 6.8 0 0 1 2.455 1q.559.369 1.035.838.475.47.85 1.024.374.554.635 1.17a6.8 6.8 0 0 1 .53 2.593q.005.668-.124 1.323-.09.468-.247.916M83.005 69.3l-37.978-7.338 1.496-7.738c2.02-10.457 12.18-17.318 22.655-15.294C79.654 40.957 86.521 51.107 84.5 61.564z"/></g></g></g></g><mask id="C" width="73" height="89" x="23" y="34" maskUnits="userSpaceOnUse" style="mask-type:luminance"><path fill="#fff" d="M23.812 34.901h71.406v87.701H23.811z"/></mask><g mask="url(#C)"><mask id="D" width="80" height="95" x="23" y="29" maskUnits="userSpaceOnUse" style="mask-type:luminance"><path fill="#fff" d="m38.842 29.534 63.524 12.275-15.823 81.873-63.521-12.275z"/></mask><g mask="url(#D)"><mask id="E" width="80" height="95" x="23" y="29" maskUnits="userSpaceOnUse" style="mask-type:luminance"><path fill="#fff" d="m38.842 29.534 63.523 12.275-15.822 81.873-63.522-12.275z"/></mask><g mask="url(#E)"><mask id="F" width="80" height="95" x="23" y="29" maskUnits="userSpaceOnUse" style="mask-type:luminance"><path fill="#fff" d="m38.841 29.534 63.524 12.275-15.823 81.873-63.521-12.275z"/></mask><g mask="url(#F)"><path fill="#000" d="m89.441 72.132 1.3-6.716c2.654-13.74-6.38-27.085-20.134-29.743-13.756-2.659-27.117 6.357-29.771 20.1l-1.3 6.717c-3.784-.626-7.403 1.855-8.135 5.642l-7.016 36.304a7 7 0 0 0-.13 1.385q.005.701.145 1.386.141.685.411 1.331.273.645.665 1.224a7.1 7.1 0 0 0 3.207 2.6q.646.264 1.334.397l49.53 9.572q.689.132 1.39.129a7 7 0 0 0 1.385-.144 7 7 0 0 0 2.557-1.075 7 7 0 0 0 1.073-.889q.494-.496.878-1.08.387-.583.651-1.232.265-.646.397-1.335l7.015-36.304c.732-3.789-1.704-7.44-5.452-8.269M66.32 88.505c-.073.21-.29.68-.309.715-.711 1.393-1.964 2.408-3.43 2.889l.397 9.978q.021.157.004.314a1.3 1.3 0 0 1-.208.59 1.36 1.36 0 0 1-1.363.599l-7.426-1.434a1.3 1.3 0 0 1-.3-.103 1.35 1.35 0 0 1-.595-1.878l3.933-9.14c-1.18-.993-1.965-2.4-2.106-3.958a11 11 0 0 1-.02-.779 5.84 5.84 0 0 1 .962-2.937q.318-.483.724-.893.408-.412.888-.736a5.9 5.9 0 0 1 2.114-.89 5.9 5.9 0 0 1 2.293-.01 5.9 5.9 0 0 1 2.124.865 6 6 0 0 1 1.63 1.611q.325.48.55 1.013.223.534.34 1.101a5.87 5.87 0 0 1-.202 3.083m14.606-18.037-32.864-6.352 1.294-6.698c1.748-9.053 10.541-14.99 19.607-13.24C78.028 45.93 83.97 54.716 82.221 63.77z"/></g></g></g></g><mask id="G" width="79" height="97" x="19" y="31" maskUnits="userSpaceOnUse" style="mask-type:luminance"><path fill="#fff" d="M19.497 31.547h78.116v96.327H19.497z"/></mask><g mask="url(#G)"><mask id="H" width="88" height="104" x="18" y="25" maskUnits="userSpaceOnUse" style="mask-type:luminance"><path fill="#fff" d="m35.62 25.508 69.873 13.503-17.39 89.988-69.872-13.501z"/></mask><g mask="url(#H)"><mask id="I" width="88" height="104" x="18" y="25" maskUnits="userSpaceOnUse" style="mask-type:luminance"><path fill="#fff" d="m35.62 25.508 69.873 13.503-17.39 89.988-69.872-13.501z"/></mask><g mask="url(#I)"><path fill="#fff" d="m91.137 72.293 1.427-7.38C95.48 49.82 85.57 35.16 70.476 32.243s-29.758 6.99-32.677 22.088l-1.424 7.38c-4.156-.688-8.128 2.038-8.932 6.2l-7.707 39.883a8 8 0 0 0-.108.758 8 8 0 0 0 .124 2.286q.078.376.19.743a7.6 7.6 0 0 0 .594 1.41q.18.338.396.655a7.5 7.5 0 0 0 .978 1.176q.271.27.569.513a8 8 0 0 0 1.277.842 7.7 7.7 0 0 0 1.417.577q.365.11.743.183l54.352 10.502q.377.072.758.109.382.036.766.033a7.8 7.8 0 0 0 2.263-.348 8 8 0 0 0 1.41-.593q.338-.183.655-.397.318-.215.612-.461a7.7 7.7 0 0 0 1.92-2.362 8 8 0 0 0 .578-1.417 8 8 0 0 0 .181-.743l7.707-39.886c.805-4.161-1.868-8.171-5.98-9.081m-25.379 17.99c-.078.23-.316.747-.337.786-.78 1.532-2.156 2.646-3.764 3.175l.434 10.961a1.52 1.52 0 0 1-.227.992 1.4 1.4 0 0 1-.494.476 1.5 1.5 0 0 1-.657.202q-.174.011-.344-.017l-8.15-1.576a1.45 1.45 0 0 1-.619-.296 1.5 1.5 0 0 1-.42-.545 1.5 1.5 0 0 1-.131-.674 1.5 1.5 0 0 1 .188-.66l4.319-10.042c-1.296-1.09-2.157-2.638-2.31-4.349-.004-.043-.034-.61-.021-.855a6.3 6.3 0 0 1 .466-2.108q.24-.587.59-1.118a6.4 6.4 0 0 1 1.769-1.79q.524-.355 1.112-.602a6.44 6.44 0 0 1 7.037 1.359 6.46 6.46 0 0 1 1.795 5.81 6 6 0 0 1-.236.871m16.034-19.817-36.064-6.97 1.422-7.359c1.92-9.946 11.571-16.472 21.52-14.55 9.947 1.923 16.466 11.574 14.545 21.52z"/></g></g></g></g><defs><clipPath id="a"><path fill="#fff" d="M0 0h125.74v155H0z"/></clipPath></defs></svg>