<svg width="1440" height="34" viewBox="0 0 1406 34" fill="none" xmlns="http://www.w3.org/2000/svg">
<path d="M1 33L33 1" stroke="#A7C6ED" stroke-width="2"/>
<path d="M15 33L47 1" stroke="#A7C6ED" stroke-width="2"/>
<path d="M29 33L61 1" stroke="#A7C6ED" stroke-width="2"/>
<path d="M43 33L75 1" stroke="#A7C6ED" stroke-width="2"/>
<path d="M57 33L89 1" stroke="#A7C6ED" stroke-width="2"/>
<path d="M71 33L103 1" stroke="#A7C6ED" stroke-width="2"/>
<path d="M85 33L117 1" stroke="#A7C6ED" stroke-width="2"/>
<path d="M99 33L131 1" stroke="#A7C6ED" stroke-width="2"/>
<path d="M113 33L145 1" stroke="#A7C6ED" stroke-width="2"/>
<path d="M127 33L159 1" stroke="#A7C6ED" stroke-width="2"/>
<path d="M141 33L173 1" stroke="#A7C6ED" stroke-width="2"/>
<path d="M155 33L187 1" stroke="#A7C6ED" stroke-width="2"/>
<path d="M169 33L201 1" stroke="#A7C6ED" stroke-width="2"/>
<path d="M183 33L215 1" stroke="#A7C6ED" stroke-width="2"/>
<path d="M197 33L229 1" stroke="#A7C6ED" stroke-width="2"/>
<path d="M211 33L243 1" stroke="#A7C6ED" stroke-width="2"/>
<path d="M225 33L257 1" stroke="#A7C6ED" stroke-width="2"/>
<path d="M239 33L271 1" stroke="#A7C6ED" stroke-width="2"/>
<path d="M253 33L285 1" stroke="#A7C6ED" stroke-width="2"/>
<path d="M267 33L299 1" stroke="#A7C6ED" stroke-width="2"/>
<path d="M281 33L313 1" stroke="#A7C6ED" stroke-width="2"/>
<path d="M295 33L327 1" stroke="#A7C6ED" stroke-width="2"/>
<path d="M309 33L341 1" stroke="#A7C6ED" stroke-width="2"/>
<path d="M323 33L355 1" stroke="#A7C6ED" stroke-width="2"/>
<path d="M337 33L369 1" stroke="#A7C6ED" stroke-width="2"/>
<path d="M351 33L383 1" stroke="#A7C6ED" stroke-width="2"/>
<path d="M365 33L397 1" stroke="#A7C6ED" stroke-width="2"/>
<path d="M379 33L411 1" stroke="#A7C6ED" stroke-width="2"/>
<path d="M393 33L425 1" stroke="#A7C6ED" stroke-width="2"/>
<path d="M407 33L439 1" stroke="#A7C6ED" stroke-width="2"/>
<path d="M421 33L453 1" stroke="#A7C6ED" stroke-width="2"/>
<path d="M435 33L467 1" stroke="#A7C6ED" stroke-width="2"/>
<path d="M449 33L481 1" stroke="#A7C6ED" stroke-width="2"/>
<path d="M463 33L495 1" stroke="#A7C6ED" stroke-width="2"/>
<path d="M477 33L509 1" stroke="#A7C6ED" stroke-width="2"/>
<path d="M491 33L523 1" stroke="#A7C6ED" stroke-width="2"/>
<path d="M505 33L537 1" stroke="#A7C6ED" stroke-width="2"/>
<path d="M519 33L551 1" stroke="#A7C6ED" stroke-width="2"/>
<path d="M533 33L565 1" stroke="#A7C6ED" stroke-width="2"/>
<path d="M547 33L579 1" stroke="#A7C6ED" stroke-width="2"/>
<path d="M561 33L593 1" stroke="#A7C6ED" stroke-width="2"/>
<path d="M575 33L607 1" stroke="#A7C6ED" stroke-width="2"/>
<path d="M589 33L621 1" stroke="#A7C6ED" stroke-width="2"/>
<path d="M603 33L635 1" stroke="#A7C6ED" stroke-width="2"/>
<path d="M617 33L649 1" stroke="#A7C6ED" stroke-width="2"/>
<path d="M631 33L663 1" stroke="#A7C6ED" stroke-width="2"/>
<path d="M645 33L677 1" stroke="#A7C6ED" stroke-width="2"/>
<path d="M659 33L691 1" stroke="#A7C6ED" stroke-width="2"/>
<path d="M673 33L705 1" stroke="#A7C6ED" stroke-width="2"/>
<path d="M687 33L719 1" stroke="#A7C6ED" stroke-width="2"/>
<path d="M701 33L733 1" stroke="#A7C6ED" stroke-width="2"/>
<path d="M715 33L747 1" stroke="#A7C6ED" stroke-width="2"/>
<path d="M729 33L761 1" stroke="#A7C6ED" stroke-width="2"/>
<path d="M743 33L775 1" stroke="#A7C6ED" stroke-width="2"/>
<path d="M757 33L789 1" stroke="#A7C6ED" stroke-width="2"/>
<path d="M771 33L803 1" stroke="#A7C6ED" stroke-width="2"/>
<path d="M785 33L817 1" stroke="#A7C6ED" stroke-width="2"/>
<path d="M799 33L831 1" stroke="#A7C6ED" stroke-width="2"/>
<path d="M813 33L845 1" stroke="#A7C6ED" stroke-width="2"/>
<path d="M827 33L859 1" stroke="#A7C6ED" stroke-width="2"/>
<path d="M841 33L873 1" stroke="#A7C6ED" stroke-width="2"/>
<path d="M855 33L887 1" stroke="#A7C6ED" stroke-width="2"/>
<path d="M869 33L901 1" stroke="#A7C6ED" stroke-width="2"/>
<path d="M883 33L915 1" stroke="#A7C6ED" stroke-width="2"/>
<path d="M897 33L929 1" stroke="#A7C6ED" stroke-width="2"/>
<path d="M911 33L943 1" stroke="#A7C6ED" stroke-width="2"/>
<path d="M925 33L957 1" stroke="#A7C6ED" stroke-width="2"/>
<path d="M939 33L971 1" stroke="#A7C6ED" stroke-width="2"/>
<path d="M953 33L985 1" stroke="#A7C6ED" stroke-width="2"/>
<path d="M967 33L999 1" stroke="#A7C6ED" stroke-width="2"/>
<path d="M981 33L1013 1" stroke="#A7C6ED" stroke-width="2"/>
<path d="M995 33L1027 1" stroke="#A7C6ED" stroke-width="2"/>
<path d="M1009 33L1041 1" stroke="#A7C6ED" stroke-width="2"/>
<path d="M1023 33L1055 1" stroke="#A7C6ED" stroke-width="2"/>
<path d="M1037 33L1069 1" stroke="#A7C6ED" stroke-width="2"/>
<path d="M1051 33L1083 1" stroke="#A7C6ED" stroke-width="2"/>
<path d="M1065 33L1097 1" stroke="#A7C6ED" stroke-width="2"/>
<path d="M1079 33L1111 1" stroke="#A7C6ED" stroke-width="2"/>
<path d="M1093 33L1125 1" stroke="#A7C6ED" stroke-width="2"/>
<path d="M1107 33L1139 1" stroke="#A7C6ED" stroke-width="2"/>
<path d="M1121 33L1153 1" stroke="#A7C6ED" stroke-width="2"/>
<path d="M1135 33L1167 1" stroke="#A7C6ED" stroke-width="2"/>
<path d="M1149 33L1181 1" stroke="#A7C6ED" stroke-width="2"/>
<path d="M1163 33L1195 1" stroke="#A7C6ED" stroke-width="2"/>
<path d="M1177 33L1209 1" stroke="#A7C6ED" stroke-width="2"/>
<path d="M1191 33L1223 1" stroke="#A7C6ED" stroke-width="2"/>
<path d="M1205 33L1237 1" stroke="#A7C6ED" stroke-width="2"/>
<path d="M1219 33L1251 1" stroke="#A7C6ED" stroke-width="2"/>
<path d="M1233 33L1265 1" stroke="#A7C6ED" stroke-width="2"/>
<path d="M1247 33L1279 1" stroke="#A7C6ED" stroke-width="2"/>
<path d="M1261 33L1293 1" stroke="#A7C6ED" stroke-width="2"/>
<path d="M1275 33L1307 1" stroke="#A7C6ED" stroke-width="2"/>
<path d="M1289 33L1321 1" stroke="#A7C6ED" stroke-width="2"/>
<path d="M1303 33L1335 1" stroke="#A7C6ED" stroke-width="2"/>
<path d="M1317 33L1349 1" stroke="#A7C6ED" stroke-width="2"/>
<path d="M1331 33L1363 1" stroke="#A7C6ED" stroke-width="2"/>
<path d="M1345 33L1377 1" stroke="#A7C6ED" stroke-width="2"/>
<path d="M1359 33L1391 1" stroke="#A7C6ED" stroke-width="2"/>
<path d="M1373 33L1405 1" stroke="#A7C6ED" stroke-width="2"/>
</svg>
