<svg xmlns="http://www.w3.org/2000/svg" width="334" height="242" fill="none" viewBox="0 0 334 242"><g clip-path="url(#a)"><mask id="b" width="690" height="690" x="-183" y="-201" maskUnits="userSpaceOnUse" style="mask-type:luminance"><path fill="#000" fill-opacity=".13" d="M506.514-200.172h-688.633v688.634h688.633z"/></mask><g mask="url(#b)"><mask id="c" width="108" height="80" x="111" y="143" maskUnits="userSpaceOnUse" style="mask-type:luminance"><path fill="#fff" d="M218.169 143.437H111.898v79.348h106.271z"/></mask><g mask="url(#c)"><mask id="d" width="101" height="72" x="114" y="147" maskUnits="userSpaceOnUse" style="mask-type:luminance"><path fill="#fff" d="M114.732 147.687h99.895v70.847h-99.895z"/></mask><g mask="url(#d)"><mask id="e" width="106" height="80" x="112" y="143" maskUnits="userSpaceOnUse" style="mask-type:luminance"><path fill="#fff" d="m118.357 143.939 99.255 8.629-6.085 70.001-99.256-8.629z"/></mask><g mask="url(#e)"><mask id="f" width="100" height="72" x="115" y="147" maskUnits="userSpaceOnUse" style="mask-type:luminance"><path fill="#fff" d="M167.883 148.247c-27.351-2.377-50.888 11.366-52.568 30.694-1.68 19.33 19.131 36.929 46.482 39.306 27.354 2.377 50.888-11.366 52.568-30.694 1.68-19.331-19.129-36.929-46.482-39.306"/></mask><g mask="url(#f)"><mask id="g" width="101" height="72" x="114" y="147" maskUnits="userSpaceOnUse" style="mask-type:luminance"><path fill="#fff" d="M214.627 147.687h-99.895v70.847h99.895z"/></mask><g mask="url(#g)"><mask id="h" width="101" height="72" x="114" y="147" maskUnits="userSpaceOnUse" style="mask-type:luminance"><path fill="#fff" d="M114.732 147.687h99.895v70.847h-99.895z"/></mask><g mask="url(#h)"><mask id="i" width="106" height="80" x="112" y="143" maskUnits="userSpaceOnUse" style="mask-type:luminance"><path fill="#fff" d="m118.357 143.939 99.255 8.629-6.085 70.001-99.256-8.629z"/></mask><g mask="url(#i)"><mask id="j" width="100" height="72" x="115" y="147" maskUnits="userSpaceOnUse" style="mask-type:luminance"><path fill="#fff" d="M167.883 148.247c-27.351-2.377-50.888 11.366-52.568 30.694-1.68 19.33 19.131 36.929 46.482 39.306 27.354 2.377 50.888-11.366 52.568-30.694 1.68-19.331-19.129-36.929-46.482-39.306"/></mask><g mask="url(#j)"><path fill="#000" d="m118.358 143.939 98.981 8.607-6.083 69.998-98.984-8.604z"/></g></g></g></g></g></g></g></g></g><mask id="k" width="101" height="73" x="110" y="142" maskUnits="userSpaceOnUse" style="mask-type:luminance"><path fill="#fff" d="M110.482 142.729h99.895v71.555h-99.895z"/></mask><g mask="url(#k)"><mask id="l" width="109" height="83" x="106" y="137" maskUnits="userSpaceOnUse" style="mask-type:luminance"><path fill="#fff" d="m106.63 206.995 8.809-69.549 98.889 12.526-8.808 69.549z"/></mask><g mask="url(#l)"><mask id="m" width="100" height="71" x="110" y="143" maskUnits="userSpaceOnUse" style="mask-type:luminance"><path fill="#fff" d="M111.033 172.219c-2.432 19.206 17.673 37.571 44.908 41.022 27.235 3.448 51.284-9.324 53.716-28.53s-17.673-37.571-44.907-41.022c-27.235-3.448-51.284 9.324-53.717 28.53"/></mask><g mask="url(#m)"><mask id="n" width="101" height="73" x="110" y="142" maskUnits="userSpaceOnUse" style="mask-type:luminance"><path fill="#fff" d="M210.377 142.729h-99.895v71.555h99.895z"/></mask><g mask="url(#n)"><mask id="o" width="101" height="73" x="110" y="142" maskUnits="userSpaceOnUse" style="mask-type:luminance"><path fill="#fff" d="M110.482 142.729h99.894v71.555h-99.894z"/></mask><g mask="url(#o)"><mask id="p" width="109" height="83" x="106" y="137" maskUnits="userSpaceOnUse" style="mask-type:luminance"><path fill="#fff" d="m106.63 206.993 8.809-69.549 98.889 12.526-8.808 69.549z"/></mask><g mask="url(#p)"><mask id="q" width="100" height="71" x="110" y="143" maskUnits="userSpaceOnUse" style="mask-type:luminance"><path fill="#fff" d="M111.033 172.217c-2.432 19.206 17.673 37.571 44.908 41.022 27.235 3.448 51.284-9.324 53.716-28.53s-17.673-37.571-44.907-41.022c-27.235-3.448-51.284 9.324-53.717 28.53"/></mask><g mask="url(#q)"><path fill="#fff" d="m106.63 206.993 8.809-69.549 98.618 12.489-8.809 69.55z"/></g></g></g></g></g></g></g><mask id="r" width="101" height="73" x="110" y="142" maskUnits="userSpaceOnUse" style="mask-type:luminance"><path fill="#fff" d="M110.482 142.729h99.895v71.555h-99.895z"/></mask><g mask="url(#r)"><mask id="s" width="109" height="83" x="106" y="137" maskUnits="userSpaceOnUse" style="mask-type:luminance"><path fill="#fff" d="m106.63 206.995 8.814-69.582 98.575 12.484-8.812 69.582z"/></mask><g mask="url(#s)"><mask id="t" width="109" height="83" x="106" y="137" maskUnits="userSpaceOnUse" style="mask-type:luminance"><path fill="#fff" d="m106.631 206.996 8.817-69.613 99.313 12.578-8.817 69.613z"/></mask><g mask="url(#t)"><mask id="u" width="100" height="71" x="110" y="143" maskUnits="userSpaceOnUse" style="mask-type:luminance"><path fill="#fff" d="M111.038 172.225c-2.433 19.204 17.67 37.566 44.902 41.014 27.232 3.451 51.278-9.321 53.711-28.524s-17.67-37.568-44.902-41.017c-27.232-3.448-51.279 9.324-53.711 28.527"/></mask><g mask="url(#u)"><path stroke="#000" stroke-width="3.188" d="M111.036 172.224c-2.433 19.204 17.67 37.566 44.902 41.014 27.232 3.451 51.278-9.321 53.711-28.524s-17.671-37.568-44.902-41.017c-27.232-3.448-51.279 9.324-53.711 28.527Z"/></g></g></g></g><mask id="v" width="100" height="72" x="112" y="132" maskUnits="userSpaceOnUse" style="mask-type:luminance"><path fill="#fff" d="M112.605 132.101h99.186v71.555h-99.186z"/></mask><g mask="url(#v)"><mask id="w" width="109" height="83" x="108" y="126" maskUnits="userSpaceOnUse" style="mask-type:luminance"><path fill="#fff" d="m108.513 196.469 8.809-69.549 98.889 12.525-8.809 69.55z"/></mask><g mask="url(#w)"><mask id="x" width="100" height="72" x="112" y="132" maskUnits="userSpaceOnUse" style="mask-type:luminance"><path fill="#fff" d="M112.916 161.695c-2.432 19.204 17.673 37.569 44.908 41.02 27.234 3.448 51.284-9.324 53.716-28.53s-17.673-37.571-44.907-41.02c-27.235-3.451-51.284 9.324-53.717 28.53"/></mask><g mask="url(#x)"><mask id="y" width="100" height="72" x="112" y="132" maskUnits="userSpaceOnUse" style="mask-type:luminance"><path fill="#fff" d="M211.791 132.101h-99.186v71.555h99.186z"/></mask><g mask="url(#y)"><mask id="z" width="100" height="72" x="112" y="132" maskUnits="userSpaceOnUse" style="mask-type:luminance"><path fill="#fff" d="M112.603 132.101h99.185v71.555h-99.185z"/></mask><g mask="url(#z)"><mask id="A" width="109" height="83" x="108" y="126" maskUnits="userSpaceOnUse" style="mask-type:luminance"><path fill="#fff" d="m108.51 196.469 8.809-69.549 98.89 12.525-8.809 69.55z"/></mask><g mask="url(#A)"><mask id="B" width="100" height="72" x="112" y="132" maskUnits="userSpaceOnUse" style="mask-type:luminance"><path fill="#fff" d="M112.913 161.695c-2.433 19.204 17.673 37.569 44.907 41.02 27.235 3.448 51.284-9.324 53.717-28.53s-17.673-37.571-44.908-41.02c-27.234-3.451-51.284 9.324-53.716 28.53"/></mask><g mask="url(#B)"><path fill="#fff" d="m108.51 196.469 8.809-69.549 98.619 12.489-8.809 69.552z"/></g></g></g></g></g></g></g><mask id="C" width="100" height="72" x="112" y="132" maskUnits="userSpaceOnUse" style="mask-type:luminance"><path fill="#fff" d="M112.605 132.101h99.186v71.555h-99.186z"/></mask><g mask="url(#C)"><mask id="D" width="108" height="83" x="108" y="126" maskUnits="userSpaceOnUse" style="mask-type:luminance"><path fill="#fff" d="m108.513 196.468 8.814-69.582 98.574 12.484-8.811 69.585z"/></mask><g mask="url(#D)"><mask id="E" width="109" height="84" x="108" y="126" maskUnits="userSpaceOnUse" style="mask-type:luminance"><path fill="#fff" d="m108.513 196.468 8.817-69.613 99.313 12.581-8.817 69.61z"/></mask><g mask="url(#E)"><mask id="F" width="100" height="72" x="112" y="132" maskUnits="userSpaceOnUse" style="mask-type:luminance"><path fill="#fff" d="M112.912 161.698c-2.432 19.204 17.671 37.566 44.902 41.017 27.232 3.448 51.279-9.324 53.711-28.527 2.433-19.204-17.67-37.566-44.902-41.017-27.232-3.448-51.278 9.324-53.711 28.527"/></mask><g mask="url(#F)"><path stroke="#000" stroke-width="3.188" d="M112.913 161.698c-2.433 19.204 17.67 37.566 44.902 41.017 27.232 3.448 51.278-9.324 53.711-28.527s-17.67-37.566-44.902-41.017c-27.232-3.448-51.279 9.324-53.711 28.527Z"/></g></g></g></g><mask id="G" width="75" height="54" x="124" y="142" maskUnits="userSpaceOnUse" style="mask-type:luminance"><path fill="#fff" d="M124.649 142.729h73.681v52.426h-73.681z"/></mask><g mask="url(#G)"><mask id="H" width="80" height="61" x="122" y="139" maskUnits="userSpaceOnUse" style="mask-type:luminance"><path fill="#fff" d="m122.032 190.102 6.468-51.054 72.593 9.193-6.467 51.055z"/></mask><g mask="url(#H)"><mask id="I" width="73" height="53" x="125" y="143" maskUnits="userSpaceOnUse" style="mask-type:luminance"><path fill="#fff" d="M125.273 164.575c-1.788 14.097 12.971 27.581 32.963 30.113s37.649-6.844 39.434-20.944c1.785-14.098-12.974-27.578-32.966-30.11s-37.646 6.844-39.431 20.941"/></mask><g mask="url(#I)"><mask id="J" width="75" height="54" x="124" y="142" maskUnits="userSpaceOnUse" style="mask-type:luminance"><path fill="#fff" d="M198.326 142.729h-73.68v52.426h73.68z"/></mask><g mask="url(#J)"><mask id="K" width="75" height="54" x="124" y="142" maskUnits="userSpaceOnUse" style="mask-type:luminance"><path fill="#fff" d="M124.644 142.729h73.681v52.426h-73.681z"/></mask><g mask="url(#K)"><mask id="L" width="80" height="61" x="122" y="139" maskUnits="userSpaceOnUse" style="mask-type:luminance"><path fill="#fff" d="m122.026 190.102 6.468-51.054 72.593 9.193-6.467 51.055z"/></mask><g mask="url(#L)"><mask id="M" width="73" height="53" x="125" y="143" maskUnits="userSpaceOnUse" style="mask-type:luminance"><path fill="#fff" d="M125.268 164.575c-1.788 14.097 12.971 27.581 32.963 30.113s37.649-6.844 39.434-20.944c1.785-14.098-12.974-27.578-32.966-30.11s-37.646 6.844-39.431 20.941"/></mask><g mask="url(#M)"><path fill="#000" d="m122.029 190.102 6.468-51.054 72.394 9.168-6.468 51.055z"/></g></g></g></g></g></g></g><mask id="N" width="75" height="54" x="124" y="142" maskUnits="userSpaceOnUse" style="mask-type:luminance"><path fill="#fff" d="M124.649 142.729h73.681v52.426h-73.681z"/></mask><g mask="url(#N)"><mask id="O" width="79" height="62" x="122" y="138" maskUnits="userSpaceOnUse" style="mask-type:luminance"><path fill="#fff" d="m122.032 190.101 6.476-51.131 72.22 9.146-6.476 51.132z"/></mask><g mask="url(#O)"><mask id="P" width="80" height="61" x="122" y="139" maskUnits="userSpaceOnUse" style="mask-type:luminance"><path fill="#fff" d="m122.03 190.102 6.473-51.101 72.906 9.232-6.473 51.101z"/></mask><g mask="url(#P)"><mask id="Q" width="73" height="53" x="125" y="143" maskUnits="userSpaceOnUse" style="mask-type:luminance"><path fill="#fff" d="M125.263 164.578c-1.785 14.095 12.974 27.578 32.964 30.107 19.992 2.532 37.643-6.841 39.428-20.938 1.788-14.098-12.971-27.578-32.961-30.11-19.992-2.533-37.643 6.843-39.431 20.941"/></mask><g mask="url(#Q)"><path stroke="#000" stroke-width="3.188" d="M125.263 164.577c-1.785 14.095 12.974 27.578 32.963 30.108 19.992 2.532 37.643-6.842 39.428-20.939 1.788-14.098-12.971-27.578-32.96-30.11-19.992-2.532-37.643 6.844-39.431 20.941Z"/></g></g></g></g><path stroke="#000" stroke-width="2.125" d="m118.118 192.609 2.352-9.457m8.604 19.876 4.531-8.629m10.202 16.207 4.497-11.089m14.962 13.381.44-9.736m15.952 8.938-1.412-11.274m16.857 4.333-.91-9.725"/><mask id="R" width="67" height="49" x="130" y="145" maskUnits="userSpaceOnUse" style="mask-type:luminance"><path fill="#fff" d="M130.32 145.562h66.597v48.177H130.32z"/></mask><g mask="url(#R)"><mask id="S" width="72" height="56" x="128" y="142" maskUnits="userSpaceOnUse" style="mask-type:luminance"><path fill="#fff" d="m128.119 189.241 5.942-46.909 65.417 8.286-5.942 46.908z"/></mask><g mask="url(#S)"><mask id="T" width="67" height="48" x="130" y="146" maskUnits="userSpaceOnUse" style="mask-type:luminance"><path fill="#fff" d="M131.087 165.787c-1.638 12.954 11.634 25.305 29.651 27.586 18.013 2.283 33.948-6.371 35.589-19.323 1.641-12.954-11.634-25.305-29.648-27.586-18.016-2.283-33.951 6.368-35.592 19.323"/></mask><g mask="url(#T)"><mask id="U" width="67" height="49" x="130" y="145" maskUnits="userSpaceOnUse" style="mask-type:luminance"><path fill="#fff" d="M196.918 145.562h-66.597v48.177h66.597z"/></mask><g mask="url(#U)"><mask id="V" width="67" height="49" x="130" y="145" maskUnits="userSpaceOnUse" style="mask-type:luminance"><path fill="#fff" d="M130.323 145.562h66.596v48.177h-66.596z"/></mask><g mask="url(#V)"><mask id="W" width="72" height="56" x="128" y="142" maskUnits="userSpaceOnUse" style="mask-type:luminance"><path fill="#fff" d="m128.129 189.241 5.942-46.909 65.417 8.286-5.942 46.908z"/></mask><g mask="url(#W)"><mask id="X" width="67" height="48" x="130" y="146" maskUnits="userSpaceOnUse" style="mask-type:luminance"><path fill="#fff" d="M131.103 165.787c-1.639 12.954 11.634 25.305 29.65 27.586 18.014 2.283 33.949-6.371 35.59-19.323 1.641-12.954-11.635-25.305-29.648-27.586-18.016-2.283-33.951 6.368-35.592 19.323"/></mask><g mask="url(#X)"><path fill="#a9c5e7" d="m128.131 189.241 5.942-46.909 65.235 8.261-5.942 46.911z"/></g></g></g></g></g></g></g><mask id="Y" width="30" height="28" x="150" y="156" maskUnits="userSpaceOnUse" style="mask-type:luminance"><path fill="#fff" d="M150.154 156.897h29.048v26.214h-29.048z"/></mask><g mask="url(#Y)"><mask id="Z" width="37" height="32" x="146" y="154" maskUnits="userSpaceOnUse" style="mask-type:luminance"><path fill="#fff" d="m146.803 173.146 8.405-18.359 27.054 12.385-8.402 18.359z"/></mask><g mask="url(#Z)"><mask id="aa" width="37" height="32" x="146" y="154" maskUnits="userSpaceOnUse" style="mask-type:luminance"><path fill="#fff" d="m146.803 173.146 8.405-18.359 27.054 12.385-8.402 18.359z"/></mask><g mask="url(#aa)"><path fill="#fff" d="M167.38 162.962c-1.47.692-3 1.978-4.55 3.993l-4.503-2.062q1.22-1.64 3.106-2.662c.163-.136.329-.268.323-.481a.53.53 0 0 0-.061-.551l-1.945-3.299c-.136-.166-.269-.332-.482-.324-.171-.08-.426.014-.55.061-2.17 1.309-3.902 3.03-5.151 5.076l-.954-.435a.75.75 0 0 0-1.008.376l-.913 1.99a.754.754 0 0 0 .376 1.01l.952.435c-.658 1.898-.68 3.775-.108 5.502.579 1.94 1.904 3.384 3.897 4.295 1.99.913 3.739.979 5.333.243 1.467-.689 2.873-1.931 4.384-3.858l4.674 2.14c-1.019 1.314-2.433 2.344-4.279 3.174-.166.133-.332.266-.409.44a.52.52 0 0 0 .061.551l1.652 3.478c.141.38.614.49.993.352a15.95 15.95 0 0 0 6.83-5.776l1.647.753a.746.746 0 0 0 1.007-.374l.914-1.992a.754.754 0 0 0-.377-1.01l-1.644-.753c.737-2.07.759-3.947.227-5.759-.578-1.94-1.865-3.471-3.857-4.384-2.118-.863-3.952-.971-5.585-.149m3.382 5.424c.517.238.871.609 1.021 1.201.099.465.075.977.011 1.575l-3.897-1.783c.703-.622 1.163-.935 1.414-1.029.457-.313.93-.202 1.451.036m-13.049 2.195c-.517-.239-.786-.571-.933-1.16q-.213-.568-.044-1.279l3.637 1.666c-.579.573-.997.8-1.249.894-.506.188-.891.117-1.411-.121"/></g></g></g><mask id="ab" width="690" height="690" x="-183" y="-201" maskUnits="userSpaceOnUse" style="mask-type:luminance"><path fill="#000" fill-opacity=".13" d="M506.514-200.172h-688.633v688.634h688.633z"/></mask><g mask="url(#ab)"><mask id="ac" width="107" height="81" x="204" y="112" maskUnits="userSpaceOnUse" style="mask-type:luminance"><path fill="#fff" d="M310.974 112.972H204.703v79.348h106.271z"/></mask><g mask="url(#ac)"><mask id="ad" width="101" height="72" x="208" y="117" maskUnits="userSpaceOnUse" style="mask-type:luminance"><path fill="#fff" d="M208.246 117.223h99.894v70.847h-99.894z"/></mask><g mask="url(#ad)"><mask id="ae" width="106" height="79" x="205" y="113" maskUnits="userSpaceOnUse" style="mask-type:luminance"><path fill="#fff" d="m211.468 113.345 99.256 8.629-6.083 70-99.258-8.629z"/></mask><g mask="url(#ae)"><mask id="af" width="100" height="71" x="208" y="117" maskUnits="userSpaceOnUse" style="mask-type:luminance"><path fill="#fff" d="M260.992 117.652c-27.351-2.377-50.885 11.366-52.568 30.694-1.68 19.331 19.132 36.929 46.485 39.306 27.351 2.378 50.885-11.366 52.568-30.694 1.68-19.33-19.131-36.929-46.485-39.306"/></mask><g mask="url(#af)"><mask id="ag" width="101" height="72" x="208" y="117" maskUnits="userSpaceOnUse" style="mask-type:luminance"><path fill="#fff" d="M308.139 117.223h-99.894v70.847h99.894z"/></mask><g mask="url(#ag)"><mask id="ah" width="101" height="72" x="208" y="117" maskUnits="userSpaceOnUse" style="mask-type:luminance"><path fill="#fff" d="M208.248 117.223h99.894v70.847h-99.894z"/></mask><g mask="url(#ah)"><mask id="ai" width="106" height="79" x="205" y="113" maskUnits="userSpaceOnUse" style="mask-type:luminance"><path fill="#fff" d="m211.47 113.345 99.255 8.629-6.082 70-99.258-8.629z"/></mask><g mask="url(#ai)"><mask id="aj" width="100" height="71" x="208" y="117" maskUnits="userSpaceOnUse" style="mask-type:luminance"><path fill="#fff" d="M260.995 117.652c-27.351-2.377-50.885 11.366-52.568 30.694-1.68 19.331 19.131 36.929 46.485 39.306 27.351 2.378 50.885-11.366 52.568-30.694 1.68-19.33-19.131-36.929-46.485-39.306"/></mask><g mask="url(#aj)"><path fill="#000" d="m211.47 113.345 98.984 8.607-6.085 69.997-98.984-8.604z"/></g></g></g></g></g></g></g></g></g><mask id="ak" width="100" height="72" x="204" y="112" maskUnits="userSpaceOnUse" style="mask-type:luminance"><path fill="#fff" d="M204.003 112.264h99.894v71.556h-99.894z"/></mask><g mask="url(#ak)"><mask id="al" width="108" height="83" x="200" y="106" maskUnits="userSpaceOnUse" style="mask-type:luminance"><path fill="#fff" d="m200.115 176.401 8.809-69.549 98.89 12.525-8.809 69.549z"/></mask><g mask="url(#al)"><mask id="am" width="100" height="72" x="204" y="112" maskUnits="userSpaceOnUse" style="mask-type:luminance"><path fill="#fff" d="M204.524 141.624c-2.433 19.207 17.673 37.571 44.907 41.023 27.235 3.448 51.284-9.324 53.717-28.53s-17.673-37.571-44.908-41.022c-27.235-3.449-51.284 9.323-53.716 28.529"/></mask><g mask="url(#am)"><mask id="an" width="100" height="72" x="204" y="112" maskUnits="userSpaceOnUse" style="mask-type:luminance"><path fill="#fff" d="M303.898 112.264h-99.894v71.556h99.894z"/></mask><g mask="url(#an)"><mask id="ao" width="100" height="72" x="204" y="112" maskUnits="userSpaceOnUse" style="mask-type:luminance"><path fill="#fff" d="M204.004 112.264h99.894v71.556h-99.894z"/></mask><g mask="url(#ao)"><mask id="ap" width="108" height="83" x="200" y="106" maskUnits="userSpaceOnUse" style="mask-type:luminance"><path fill="#fff" d="m200.122 176.401 8.809-69.549 98.89 12.526-8.809 69.549z"/></mask><g mask="url(#ap)"><mask id="aq" width="100" height="72" x="204" y="112" maskUnits="userSpaceOnUse" style="mask-type:luminance"><path fill="#fff" d="M204.529 141.625c-2.433 19.206 17.673 37.571 44.907 41.022 27.235 3.448 51.284-9.324 53.717-28.53s-17.673-37.571-44.908-41.022c-27.235-3.448-51.284 9.323-53.716 28.53"/></mask><g mask="url(#aq)"><path fill="#fff" d="m200.125 176.401 8.809-69.549 98.619 12.49-8.809 69.549z"/></g></g></g></g></g></g></g><mask id="ar" width="100" height="72" x="204" y="112" maskUnits="userSpaceOnUse" style="mask-type:luminance"><path fill="#fff" d="M204.003 112.264h99.894v71.556h-99.894z"/></mask><g mask="url(#ar)"><mask id="as" width="108" height="83" x="200" y="106" maskUnits="userSpaceOnUse" style="mask-type:luminance"><path fill="#fff" d="m200.115 176.401 8.812-69.582 98.577 12.484-8.814 69.582z"/></mask><g mask="url(#as)"><mask id="at" width="109" height="83" x="200" y="106" maskUnits="userSpaceOnUse" style="mask-type:luminance"><path fill="#fff" d="m200.115 176.4 8.817-69.613 99.314 12.578-8.818 69.613z"/></mask><g mask="url(#at)"><mask id="au" width="100" height="72" x="204" y="112" maskUnits="userSpaceOnUse" style="mask-type:luminance"><path fill="#fff" d="M204.522 141.629c-2.433 19.204 17.67 37.566 44.902 41.014 27.232 3.451 51.278-9.321 53.711-28.524s-17.673-37.568-44.902-41.017c-27.232-3.448-51.279 9.324-53.711 28.527"/></mask><g mask="url(#au)"><path stroke="#000" stroke-width="3.188" d="M204.522 141.629c-2.432 19.203 17.671 37.565 44.903 41.014 27.231 3.451 51.278-9.321 53.71-28.525 2.433-19.203-17.673-37.568-44.902-41.016-27.231-3.448-51.278 9.323-53.711 28.527Z"/></g></g></g></g><mask id="av" width="101" height="73" x="205" y="101" maskUnits="userSpaceOnUse" style="mask-type:luminance"><path fill="#fff" d="M205.416 101.637h99.894v71.555h-99.894z"/></mask><g mask="url(#av)"><mask id="aw" width="109" height="83" x="201" y="96" maskUnits="userSpaceOnUse" style="mask-type:luminance"><path fill="#fff" d="m201.628 165.875 8.809-69.549 98.892 12.526-8.809 69.549z"/></mask><g mask="url(#aw)"><mask id="ax" width="100" height="71" x="205" y="102" maskUnits="userSpaceOnUse" style="mask-type:luminance"><path fill="#fff" d="M206.033 131.099c-2.432 19.206 17.673 37.571 44.908 41.022 27.235 3.448 51.284-9.324 53.716-28.53s-17.673-37.571-44.907-41.019c-27.235-3.451-51.284 9.323-53.717 28.527"/></mask><g mask="url(#ax)"><mask id="ay" width="101" height="73" x="205" y="101" maskUnits="userSpaceOnUse" style="mask-type:luminance"><path fill="#fff" d="M305.31 101.637h-99.894v71.555h99.894z"/></mask><g mask="url(#ay)"><mask id="az" width="101" height="73" x="205" y="101" maskUnits="userSpaceOnUse" style="mask-type:luminance"><path fill="#fff" d="M205.416 101.637h99.894v71.555h-99.894z"/></mask><g mask="url(#az)"><mask id="aA" width="109" height="83" x="201" y="96" maskUnits="userSpaceOnUse" style="mask-type:luminance"><path fill="#fff" d="m201.626 165.874 8.809-69.549 98.892 12.526-8.808 69.549z"/></mask><g mask="url(#aA)"><mask id="aB" width="100" height="71" x="205" y="102" maskUnits="userSpaceOnUse" style="mask-type:luminance"><path fill="#fff" d="M206.036 131.098c-2.432 19.206 17.673 37.571 44.908 41.022 27.235 3.449 51.284-9.323 53.716-28.529 2.433-19.207-17.673-37.572-44.907-41.02-27.235-3.45-51.284 9.324-53.717 28.527"/></mask><g mask="url(#aB)"><path fill="#fff" d="m201.628 165.875 8.809-69.55 98.618 12.49-8.809 69.549z"/></g></g></g></g></g></g></g><mask id="aC" width="101" height="73" x="205" y="101" maskUnits="userSpaceOnUse" style="mask-type:luminance"><path fill="#fff" d="M205.416 101.637h99.894v71.555h-99.894z"/></mask><g mask="url(#aC)"><mask id="aD" width="109" height="83" x="201" y="96" maskUnits="userSpaceOnUse" style="mask-type:luminance"><path fill="#fff" d="m201.628 165.875 8.814-69.582 98.575 12.484-8.812 69.585z"/></mask><g mask="url(#aD)"><mask id="aE" width="109" height="83" x="201" y="96" maskUnits="userSpaceOnUse" style="mask-type:luminance"><path fill="#fff" d="m201.631 165.874 8.817-69.612 99.313 12.581-8.817 69.61z"/></mask><g mask="url(#aE)"><mask id="aF" width="100" height="71" x="205" y="102" maskUnits="userSpaceOnUse" style="mask-type:luminance"><path fill="#fff" d="M206.031 131.104c-2.432 19.203 17.673 37.565 44.905 41.016 27.229 3.449 51.279-9.323 53.708-28.527 2.433-19.203-17.67-37.565-44.902-41.016-27.231-3.448-51.278 9.323-53.711 28.527"/></mask><g mask="url(#aF)"><path stroke="#000" stroke-width="3.188" d="M206.032 131.104c-2.433 19.203 17.673 37.565 44.905 41.016 27.229 3.449 51.278-9.323 53.708-28.527 2.433-19.203-17.67-37.565-44.902-41.016-27.232-3.448-51.278 9.323-53.711 28.527Z"/></g></g></g></g><mask id="aG" width="74" height="53" x="218" y="112" maskUnits="userSpaceOnUse" style="mask-type:luminance"><path fill="#fff" d="M218.17 112.264h72.973v52.427H218.17z"/></mask><g mask="url(#aG)"><mask id="aH" width="80" height="61" x="215" y="108" maskUnits="userSpaceOnUse" style="mask-type:luminance"><path fill="#fff" d="m215.16 159.508 6.465-51.055 72.593 9.194-6.467 51.054z"/></mask><g mask="url(#aH)"><mask id="aI" width="73" height="53" x="218" y="112" maskUnits="userSpaceOnUse" style="mask-type:luminance"><path fill="#fff" d="M218.389 133.98c-1.785 14.097 12.974 27.58 32.966 30.112s37.646-6.844 39.431-20.944c1.785-14.097-12.974-27.578-32.966-30.11s-37.646 6.844-39.431 20.942"/></mask><g mask="url(#aI)"><mask id="aJ" width="74" height="53" x="218" y="112" maskUnits="userSpaceOnUse" style="mask-type:luminance"><path fill="#fff" d="M291.143 112.265h-72.972v52.426h72.972z"/></mask><g mask="url(#aJ)"><mask id="aK" width="74" height="53" x="218" y="112" maskUnits="userSpaceOnUse" style="mask-type:luminance"><path fill="#fff" d="M218.171 112.265h72.973v52.427h-72.973z"/></mask><g mask="url(#aK)"><mask id="aL" width="80" height="61" x="215" y="108" maskUnits="userSpaceOnUse" style="mask-type:luminance"><path fill="#fff" d="m215.159 159.507 6.465-51.054 72.593 9.194-6.467 51.054z"/></mask><g mask="url(#aL)"><mask id="aM" width="73" height="53" x="218" y="112" maskUnits="userSpaceOnUse" style="mask-type:luminance"><path fill="#fff" d="M218.392 133.981c-1.785 14.097 12.974 27.58 32.966 30.113 19.993 2.532 37.646-6.844 39.431-20.945 1.785-14.097-12.974-27.577-32.966-30.11s-37.646 6.844-39.431 20.942"/></mask><g mask="url(#aM)"><path fill="#000" d="m215.159 159.507 6.465-51.054 72.394 9.169-6.468 51.054z"/></g></g></g></g></g></g></g><mask id="aN" width="74" height="53" x="218" y="112" maskUnits="userSpaceOnUse" style="mask-type:luminance"><path fill="#fff" d="M218.17 112.264h72.973v52.427H218.17z"/></mask><g mask="url(#aN)"><mask id="aO" width="79" height="61" x="215" y="108" maskUnits="userSpaceOnUse" style="mask-type:luminance"><path fill="#fff" d="m215.16 159.507 6.476-51.132 72.217 9.147-6.476 51.131z"/></mask><g mask="url(#aO)"><mask id="aP" width="80" height="61" x="215" y="108" maskUnits="userSpaceOnUse" style="mask-type:luminance"><path fill="#fff" d="m215.16 159.508 6.47-51.102 72.907 9.233-6.474 51.101z"/></mask><g mask="url(#aP)"><mask id="aQ" width="73" height="53" x="218" y="112" maskUnits="userSpaceOnUse" style="mask-type:luminance"><path fill="#fff" d="M218.389 133.983c-1.785 14.095 12.972 27.578 32.964 30.108 19.989 2.532 37.643-6.841 39.428-20.939s-12.974-27.578-32.963-30.11-37.644 6.844-39.429 20.941"/></mask><g mask="url(#aQ)"><path stroke="#000" stroke-width="3.188" d="M218.391 133.983c-1.785 14.095 12.971 27.578 32.963 30.108 19.99 2.532 37.643-6.842 39.428-20.939s-12.974-27.578-32.963-30.11-37.643 6.844-39.428 20.941Z"/></g></g></g></g><path stroke="#000" stroke-width="2.125" d="m211.315 161.52 2.042-9.531m8.839 20.445 4.527-8.629m10.393 16.151 4.307-11.034m14.964 13.38.443-9.735m15.84 7.365-.938-9.7m16.746 4.402-.938-9.722"/><mask id="aR" width="67" height="49" x="223" y="115" maskUnits="userSpaceOnUse" style="mask-type:luminance"><path fill="#fff" d="M223.841 115.097h65.888v48.176h-65.888z"/></mask><g mask="url(#aR)"><mask id="aS" width="72" height="56" x="221" y="111" maskUnits="userSpaceOnUse" style="mask-type:luminance"><path fill="#fff" d="m221.244 158.646 5.942-46.909 65.417 8.286-5.942 46.908z"/></mask><g mask="url(#aS)"><mask id="aT" width="66" height="49" x="224" y="115" maskUnits="userSpaceOnUse" style="mask-type:luminance"><path fill="#fff" d="M224.219 135.192c-1.641 12.954 11.632 25.305 29.648 27.586 18.016 2.283 33.949-6.371 35.59-19.323 1.641-12.954-11.632-25.305-29.648-27.586-18.016-2.283-33.949 6.368-35.59 19.323"/></mask><g mask="url(#aT)"><mask id="aU" width="67" height="49" x="223" y="115" maskUnits="userSpaceOnUse" style="mask-type:luminance"><path fill="#fff" d="M289.73 115.097h-65.888v48.176h65.888z"/></mask><g mask="url(#aU)"><mask id="aV" width="67" height="49" x="223" y="115" maskUnits="userSpaceOnUse" style="mask-type:luminance"><path fill="#fff" d="M223.842 115.097h65.888v48.176h-65.888z"/></mask><g mask="url(#aV)"><mask id="aW" width="72" height="56" x="221" y="111" maskUnits="userSpaceOnUse" style="mask-type:luminance"><path fill="#fff" d="m221.246 158.646 5.941-46.908 65.418 8.285-5.942 46.909z"/></mask><g mask="url(#aW)"><mask id="aX" width="66" height="49" x="224" y="115" maskUnits="userSpaceOnUse" style="mask-type:luminance"><path fill="#fff" d="M224.222 135.192c-1.641 12.954 11.632 25.306 29.648 27.586 18.016 2.283 33.948-6.371 35.59-19.323 1.641-12.954-11.632-25.305-29.648-27.586-18.016-2.283-33.949 6.368-35.59 19.323"/></mask><g mask="url(#aX)"><path fill="#a9c5e7" d="m221.249 158.646 5.942-46.908 65.234 8.261-5.941 46.911z"/></g></g></g></g></g></g></g><mask id="aY" width="30" height="26" x="243" y="126" maskUnits="userSpaceOnUse" style="mask-type:luminance"><path fill="#fff" d="M243.675 126.434h28.339v25.505h-28.339z"/></mask><g mask="url(#aY)"><mask id="aZ" width="37" height="31" x="239" y="124" maskUnits="userSpaceOnUse" style="mask-type:luminance"><path fill="#fff" d="m239.93 142.551 8.402-18.36 27.057 12.382-8.405 18.362z"/></mask><g mask="url(#aZ)"><mask id="ba" width="37" height="31" x="239" y="124" maskUnits="userSpaceOnUse" style="mask-type:luminance"><path fill="#fff" d="m239.932 142.551 8.402-18.359 27.058 12.382-8.405 18.362z"/></mask><g mask="url(#ba)"><path fill="#fff" d="M260.507 132.366c-1.467.692-3 1.979-4.549 3.994l-4.503-2.062a9.4 9.4 0 0 1 3.105-2.662c.166-.136.332-.269.324-.482a.52.52 0 0 0-.061-.55l-1.946-3.299c-.132-.166-.268-.332-.481-.324-.172-.08-.424.014-.551.061-2.17 1.309-3.899 3.03-5.15 5.075l-.952-.434c-.346-.158-.814-.058-1.01.376l-.911 1.99a.75.75 0 0 0 .374 1.01l.952.435c-.659 1.898-.678 3.775-.108 5.501.578 1.94 1.907 3.385 3.896 4.296 1.993.913 3.742.979 5.336.243 1.467-.689 2.873-1.932 4.381-3.858l4.677 2.139c-1.021 1.315-2.435 2.344-4.281 3.175-.163.133-.33.265-.41.44a.52.52 0 0 0 .061.55l1.655 3.479c.141.379.612.49.991.349a15.94 15.94 0 0 0 6.83-5.773l1.647.753c.345.16.81.058 1.01-.374l.91-1.992a.753.753 0 0 0-.376-1.011l-1.644-.752c.739-2.07.758-3.947.227-5.759-.579-1.94-1.865-3.474-3.858-4.384-2.117-.864-3.952-.971-5.585-.15m3.382 5.425c.52.238.872.609 1.021 1.198.1.468.075.98.011 1.577l-3.896-1.782c.703-.622 1.162-.935 1.414-1.029.457-.313.93-.202 1.45.036m-13.046 2.194c-.52-.238-.788-.57-.935-1.159q-.211-.569-.044-1.279l3.636 1.666c-.578.573-.996.8-1.248.894-.504.188-.891.116-1.409-.122"/></g></g></g><mask id="bb" width="690" height="690" x="-183" y="-201" maskUnits="userSpaceOnUse" style="mask-type:luminance"><path fill="#000" fill-opacity=".13" d="M506.514-200.172h-688.633v688.634h688.633z"/></mask><g mask="url(#bb)"><mask id="bc" width="107" height="81" x="23" y="95" maskUnits="userSpaceOnUse" style="mask-type:luminance"><path fill="#fff" d="M129.612 95.969H23.342v79.348h106.27z"/></mask><g mask="url(#bc)"><mask id="bd" width="101" height="73" x="26" y="99" maskUnits="userSpaceOnUse" style="mask-type:luminance"><path fill="#fff" d="M26.179 99.512h99.894v71.555H26.179z"/></mask><g mask="url(#bd)"><mask id="be" width="106" height="79" x="23" y="96" maskUnits="userSpaceOnUse" style="mask-type:luminance"><path fill="#fff" d="m29.626 96.13 99.258 8.629-6.086 70-99.258-8.629z"/></mask><g mask="url(#be)"><mask id="bf" width="100" height="71" x="26" y="100" maskUnits="userSpaceOnUse" style="mask-type:luminance"><path fill="#fff" d="M79.152 100.436C51.8 98.059 28.266 111.8 26.587 131.13c-1.683 19.331 19.128 36.926 46.482 39.304 27.351 2.38 50.885-11.363 52.568-30.694 1.68-19.328-19.132-36.926-46.485-39.304"/></mask><g mask="url(#bf)"><mask id="bg" width="101" height="73" x="26" y="99" maskUnits="userSpaceOnUse" style="mask-type:luminance"><path fill="#fff" d="M126.076 99.513H26.182v71.555h99.894z"/></mask><g mask="url(#bg)"><mask id="bh" width="101" height="73" x="26" y="99" maskUnits="userSpaceOnUse" style="mask-type:luminance"><path fill="#fff" d="M26.184 99.513h99.894v71.555H26.184z"/></mask><g mask="url(#bh)"><mask id="bi" width="106" height="79" x="23" y="96" maskUnits="userSpaceOnUse" style="mask-type:luminance"><path fill="#fff" d="m29.63 96.13 99.258 8.63-6.085 70-99.258-8.629z"/></mask><g mask="url(#bi)"><mask id="bj" width="100" height="71" x="26" y="100" maskUnits="userSpaceOnUse" style="mask-type:luminance"><path fill="#fff" d="M79.157 100.437C51.805 98.06 28.27 111.8 26.59 131.131c-1.682 19.331 19.13 36.926 46.483 39.304 27.35 2.38 50.885-11.363 52.568-30.694 1.679-19.328-19.132-36.926-46.485-39.304"/></mask><g mask="url(#bj)"><path fill="#000" d="m29.63 96.13 98.984 8.605-6.085 70-98.984-8.604z"/></g></g></g></g></g></g></g></g></g><mask id="bk" width="101" height="72" x="21" y="95" maskUnits="userSpaceOnUse" style="mask-type:luminance"><path fill="#fff" d="M21.923 95.26h99.894v70.848H21.923z"/></mask><g mask="url(#bk)"><mask id="bl" width="108" height="83" x="18" y="89" maskUnits="userSpaceOnUse" style="mask-type:luminance"><path fill="#fff" d="m18.26 159.181 8.809-69.55 98.889 12.526-8.808 69.549z"/></mask><g mask="url(#bl)"><mask id="bm" width="100" height="71" x="22" y="95" maskUnits="userSpaceOnUse" style="mask-type:luminance"><path fill="#fff" d="M22.66 124.408c-2.432 19.207 17.673 37.571 44.908 41.02 27.235 3.451 51.284-9.324 53.716-28.53 2.433-19.204-17.673-37.568-44.907-41.02-27.232-3.448-51.284 9.324-53.717 28.53"/></mask><g mask="url(#bm)"><mask id="bn" width="101" height="72" x="21" y="95" maskUnits="userSpaceOnUse" style="mask-type:luminance"><path fill="#fff" d="M121.811 95.262H21.917v70.847h99.894z"/></mask><g mask="url(#bn)"><mask id="bo" width="101" height="72" x="21" y="95" maskUnits="userSpaceOnUse" style="mask-type:luminance"><path fill="#fff" d="M21.916 95.263h99.894v70.847H21.916z"/></mask><g mask="url(#bo)"><mask id="bp" width="108" height="83" x="18" y="89" maskUnits="userSpaceOnUse" style="mask-type:luminance"><path fill="#fff" d="m18.253 159.181 8.809-69.549 98.89 12.526-8.809 69.549z"/></mask><g mask="url(#bp)"><mask id="bq" width="100" height="71" x="22" y="95" maskUnits="userSpaceOnUse" style="mask-type:luminance"><path fill="#fff" d="M22.654 124.409c-2.433 19.206 17.673 37.571 44.907 41.019 27.235 3.451 51.284-9.323 53.717-28.53 2.432-19.203-17.673-37.568-44.908-41.019-27.232-3.448-51.284 9.324-53.716 28.53"/></mask><g mask="url(#bq)"><path fill="#fff" d="m18.25 159.181 8.809-69.549 98.618 12.493-8.808 69.549z"/></g></g></g></g></g></g></g><mask id="br" width="101" height="72" x="21" y="95" maskUnits="userSpaceOnUse" style="mask-type:luminance"><path fill="#fff" d="M21.923 95.26h99.894v70.848H21.923z"/></mask><g mask="url(#br)"><mask id="bs" width="108" height="83" x="18" y="89" maskUnits="userSpaceOnUse" style="mask-type:luminance"><path fill="#fff" d="M18.26 159.182 27.07 89.6l98.577 12.486-8.814 69.583z"/></mask><g mask="url(#bs)"><mask id="bt" width="109" height="83" x="18" y="89" maskUnits="userSpaceOnUse" style="mask-type:luminance"><path fill="#fff" d="m18.257 159.182 8.817-69.61 99.313 12.578-8.817 69.613z"/></mask><g mask="url(#bt)"><mask id="bu" width="100" height="71" x="22" y="95" maskUnits="userSpaceOnUse" style="mask-type:luminance"><path fill="#fff" d="M22.662 124.41c-2.432 19.204 17.67 37.569 44.902 41.017s51.279-9.324 53.711-28.527c2.433-19.201-17.673-37.565-44.902-41.014-27.232-3.45-51.278 9.321-53.71 28.524"/></mask><g mask="url(#bu)"><path stroke="#000" stroke-width="3.188" d="M22.66 124.411c-2.432 19.203 17.671 37.568 44.903 41.016s51.278-9.323 53.711-28.527c2.433-19.201-17.673-37.565-44.902-41.014-27.232-3.45-51.278 9.321-53.711 28.525Z"/></g></g></g></g><mask id="bv" width="101" height="72" x="23" y="84" maskUnits="userSpaceOnUse" style="mask-type:luminance"><path fill="#fff" d="M23.342 84.634h99.894v70.847H23.342z"/></mask><g mask="url(#bv)"><mask id="bw" width="109" height="83" x="19" y="79" maskUnits="userSpaceOnUse" style="mask-type:luminance"><path fill="#fff" d="m19.777 148.66 8.812-69.55 98.89 12.524-8.809 69.552z"/></mask><g mask="url(#bw)"><mask id="bx" width="101" height="72" x="23" y="84" maskUnits="userSpaceOnUse" style="mask-type:luminance"><path fill="#fff" d="M24.184 113.884c-2.433 19.206 17.673 37.571 44.907 41.02 27.235 3.451 51.284-9.321 53.717-28.527S105.135 88.805 77.9 85.354c-27.234-3.448-51.284 9.324-53.716 28.53"/></mask><g mask="url(#bx)"><mask id="by" width="101" height="72" x="23" y="84" maskUnits="userSpaceOnUse" style="mask-type:luminance"><path fill="#fff" d="M123.233 84.635H23.339v70.847h99.894z"/></mask><g mask="url(#by)"><mask id="bz" width="101" height="72" x="23" y="84" maskUnits="userSpaceOnUse" style="mask-type:luminance"><path fill="#fff" d="M23.338 84.635h99.894v70.847H23.338z"/></mask><g mask="url(#bz)"><mask id="bA" width="109" height="83" x="19" y="79" maskUnits="userSpaceOnUse" style="mask-type:luminance"><path fill="#fff" d="m19.777 148.661 8.812-69.55 98.89 12.524-8.809 69.551z"/></mask><g mask="url(#bA)"><mask id="bB" width="101" height="72" x="23" y="84" maskUnits="userSpaceOnUse" style="mask-type:luminance"><path fill="#fff" d="M24.18 113.885c-2.433 19.206 17.673 37.571 44.908 41.019 27.234 3.452 51.283-9.32 53.716-28.527 2.433-19.206-17.673-37.57-44.908-41.022-27.234-3.448-51.283 9.324-53.716 28.53"/></mask><g mask="url(#bB)"><path fill="#fff" d="m19.775 148.661 8.812-69.549 98.619 12.49-8.809 69.549z"/></g></g></g></g></g></g></g><mask id="bC" width="101" height="72" x="23" y="84" maskUnits="userSpaceOnUse" style="mask-type:luminance"><path fill="#fff" d="M23.342 84.634h99.894v70.847H23.342z"/></mask><g mask="url(#bC)"><mask id="bD" width="109" height="83" x="19" y="79" maskUnits="userSpaceOnUse" style="mask-type:luminance"><path fill="#fff" d="m19.776 148.659 8.815-69.582 98.574 12.484-8.812 69.583z"/></mask><g mask="url(#bD)"><mask id="bE" width="109" height="83" x="19" y="79" maskUnits="userSpaceOnUse" style="mask-type:luminance"><path fill="#fff" d="M19.783 148.66 28.6 79.047l99.314 12.578-8.818 69.613z"/></mask><g mask="url(#bE)"><mask id="bF" width="101" height="72" x="23" y="84" maskUnits="userSpaceOnUse" style="mask-type:luminance"><path fill="#fff" d="M24.186 113.889c-2.43 19.203 17.673 37.566 44.905 41.014 27.23 3.451 51.278-9.321 53.711-28.524 2.43-19.204-17.673-37.569-44.905-41.017-27.229-3.448-51.278 9.324-53.71 28.527"/></mask><g mask="url(#bF)"><path stroke="#000" stroke-width="3.188" d="M24.184 113.889c-2.43 19.203 17.673 37.565 44.905 41.014 27.229 3.451 51.278-9.321 53.708-28.525 2.433-19.203-17.67-37.568-44.902-41.016-27.23-3.449-51.278 9.323-53.711 28.527Z"/></g></g></g></g><mask id="bG" width="74" height="53" x="36" y="95" maskUnits="userSpaceOnUse" style="mask-type:luminance"><path fill="#fff" d="M36.093 95.26h73.681v52.428H36.093z"/></mask><g mask="url(#bG)"><mask id="bH" width="80" height="61" x="33" y="91" maskUnits="userSpaceOnUse" style="mask-type:luminance"><path fill="#fff" d="m33.31 142.291 6.465-51.057 72.594 9.197-6.468 51.054z"/></mask><g mask="url(#bH)"><mask id="bI" width="74" height="53" x="36" y="95" maskUnits="userSpaceOnUse" style="mask-type:luminance"><path fill="#fff" d="M36.54 116.762c-1.784 14.1 12.975 27.58 32.967 30.112s37.646-6.844 39.431-20.941c1.785-14.098-12.974-27.58-32.966-30.113-19.992-2.532-37.646 6.844-39.431 20.942"/></mask><g mask="url(#bI)"><mask id="bJ" width="74" height="53" x="36" y="95" maskUnits="userSpaceOnUse" style="mask-type:luminance"><path fill="#fff" d="M109.771 95.26H36.09v52.428h73.681z"/></mask><g mask="url(#bJ)"><mask id="bK" width="74" height="53" x="36" y="95" maskUnits="userSpaceOnUse" style="mask-type:luminance"><path fill="#fff" d="M36.088 95.26h73.681v52.428H36.088z"/></mask><g mask="url(#bK)"><mask id="bL" width="80" height="61" x="33" y="91" maskUnits="userSpaceOnUse" style="mask-type:luminance"><path fill="#fff" d="m33.306 142.291 6.465-51.057 72.593 9.197-6.468 51.054z"/></mask><g mask="url(#bL)"><mask id="bM" width="74" height="53" x="36" y="95" maskUnits="userSpaceOnUse" style="mask-type:luminance"><path fill="#fff" d="M36.537 116.762c-1.785 14.1 12.974 27.58 32.966 30.112s37.646-6.844 39.431-20.941c1.785-14.098-12.974-27.58-32.966-30.113-19.992-2.532-37.646 6.844-39.431 20.942"/></mask><g mask="url(#bM)"><path fill="#000" d="m33.305 142.291 6.465-51.057 72.394 9.172-6.468 51.054z"/></g></g></g></g></g></g></g><mask id="bN" width="74" height="53" x="36" y="95" maskUnits="userSpaceOnUse" style="mask-type:luminance"><path fill="#fff" d="M36.093 95.26h73.681v52.428H36.093z"/></mask><g mask="url(#bN)"><mask id="bO" width="80" height="61" x="33" y="91" maskUnits="userSpaceOnUse" style="mask-type:luminance"><path fill="#fff" d="m33.309 142.291 6.476-51.135L112 100.303l-6.475 51.134z"/></mask><g mask="url(#bO)"><mask id="bP" width="80" height="61" x="33" y="91" maskUnits="userSpaceOnUse" style="mask-type:luminance"><path fill="#fff" d="m33.31 142.289 6.47-51.101 72.907 9.235-6.473 51.101z"/></mask><g mask="url(#bP)"><mask id="bQ" width="74" height="53" x="36" y="95" maskUnits="userSpaceOnUse" style="mask-type:luminance"><path fill="#fff" d="M36.54 116.765c-1.785 14.097 12.971 27.578 32.963 30.11 19.99 2.532 37.643-6.844 39.428-20.942S95.957 98.356 75.968 95.826c-19.99-2.532-37.643 6.841-39.428 20.939"/></mask><g mask="url(#bQ)"><path stroke="#000" stroke-width="3.188" d="M36.542 116.764c-1.785 14.097 12.97 27.577 32.963 30.11 19.99 2.532 37.643-6.844 39.428-20.942S95.959 98.354 75.97 95.825c-19.99-2.532-37.643 6.841-39.428 20.939Z"/></g></g></g></g><path stroke="#000" stroke-width="2.125" d="m29.463 144.3 2.042-9.529m8.839 20.448 4.528-8.629m11.52 14.959 3.177-9.213m14.964 12.748.443-9.736m15.841 7.898-.938-9.703m16.506 3.955-.936-9.7"/><mask id="bR" width="68" height="49" x="41" y="98" maskUnits="userSpaceOnUse" style="mask-type:luminance"><path fill="#fff" d="M41.76 98.095h66.596v48.176H41.76z"/></mask><g mask="url(#bR)"><mask id="bS" width="72" height="56" x="39" y="94" maskUnits="userSpaceOnUse" style="mask-type:luminance"><path fill="#fff" d="m39.389 141.43 5.941-46.911 65.418 8.285-5.942 46.912z"/></mask><g mask="url(#bS)"><mask id="bT" width="66" height="48" x="42" y="98" maskUnits="userSpaceOnUse" style="mask-type:luminance"><path fill="#fff" d="M42.359 117.976c-1.641 12.952 11.631 25.303 29.648 27.586 18.016 2.28 33.948-6.371 35.589-19.325 1.641-12.952-11.631-25.303-29.648-27.586-18.016-2.28-33.948 6.371-35.59 19.325"/></mask><g mask="url(#bT)"><mask id="bU" width="68" height="49" x="41" y="98" maskUnits="userSpaceOnUse" style="mask-type:luminance"><path fill="#fff" d="M108.359 98.095H41.763v48.176h66.596z"/></mask><g mask="url(#bU)"><mask id="bV" width="68" height="49" x="41" y="98" maskUnits="userSpaceOnUse" style="mask-type:luminance"><path fill="#fff" d="M41.765 98.095h66.596v48.176H41.765z"/></mask><g mask="url(#bV)"><mask id="bW" width="72" height="56" x="39" y="94" maskUnits="userSpaceOnUse" style="mask-type:luminance"><path fill="#fff" d="m39.39 141.43 5.942-46.911 65.418 8.286-5.942 46.911z"/></mask><g mask="url(#bW)"><mask id="bX" width="66" height="48" x="42" y="98" maskUnits="userSpaceOnUse" style="mask-type:luminance"><path fill="#fff" d="M42.368 117.976c-1.642 12.952 11.631 25.303 29.648 27.586 18.016 2.281 33.948-6.37 35.589-19.325 1.641-12.952-11.632-25.303-29.648-27.586-18.016-2.28-33.948 6.371-35.59 19.325"/></mask><g mask="url(#bX)"><path fill="#a9c5e7" d="m39.393 141.43 5.941-46.911 65.235 8.263-5.942 46.909z"/></g></g></g></g></g></g></g><mask id="bY" width="30" height="26" x="61" y="109" maskUnits="userSpaceOnUse" style="mask-type:luminance"><path fill="#fff" d="M61.597 109.431h29.047v25.505H61.597z"/></mask><g mask="url(#bY)"><mask id="bZ" width="36" height="32" x="58" y="106" maskUnits="userSpaceOnUse" style="mask-type:luminance"><path fill="#fff" d="m58.072 125.331 8.402-18.359 27.058 12.384-8.405 18.359z"/></mask><g mask="url(#bZ)"><mask id="ca" width="36" height="32" x="58" y="106" maskUnits="userSpaceOnUse" style="mask-type:luminance"><path fill="#fff" d="m58.072 125.331 8.402-18.359 27.058 12.384-8.405 18.359z"/></mask><g mask="url(#ca)"><path fill="#fff" d="M78.65 115.15c-1.467.689-3 1.979-4.55 3.991l-4.503-2.059a9.5 9.5 0 0 1 3.105-2.665c.166-.133.332-.266.324-.479a.52.52 0 0 0-.061-.551l-1.946-3.298c-.132-.167-.268-.333-.478-.327-.175-.078-.426.017-.554.064-2.17 1.309-3.9 3.03-5.15 5.075l-.952-.434a.75.75 0 0 0-1.01.373l-.91 1.993a.75.75 0 0 0 .373 1.01l.952.434c-.659 1.899-.678 3.773-.108 5.499.578 1.94 1.907 3.388 3.897 4.298 1.992.911 3.741.98 5.335.244 1.467-.692 2.873-1.932 4.384-3.858l4.674 2.139c-1.021 1.315-2.432 2.341-4.278 3.172-.166.133-.332.268-.413.44a.53.53 0 0 0 .061.553l1.655 3.479c.141.379.612.49.99.349 2.896-1.293 5.17-3.288 6.834-5.773l1.644.752a.75.75 0 0 0 1.01-.376l.91-1.99a.75.75 0 0 0-.376-1.01l-1.644-.753c.739-2.07.758-3.946.227-5.759-.576-1.94-1.865-3.473-3.855-4.383-2.12-.867-3.955-.972-5.588-.15m3.381 5.422c.52.238.872.609 1.021 1.201.103.465.078.977.011 1.577l-3.896-1.785c.703-.62 1.162-.932 1.414-1.027.46-.315.93-.204 1.45.034m-13.046 2.197c-.52-.238-.788-.57-.935-1.162q-.211-.567-.044-1.276l3.636 1.663c-.575.576-.996.803-1.248.897-.504.188-.891.116-1.409-.122"/></g></g></g><mask id="cb" width="690" height="690" x="-183" y="-201" maskUnits="userSpaceOnUse" style="mask-type:luminance"><path fill="#000" fill-opacity=".13" d="M506.514-200.172h-688.633v688.634h688.633z"/></mask><g mask="url(#cb)"><mask id="cc" width="91" height="68" x="118" y="68" maskUnits="userSpaceOnUse" style="mask-type:luminance"><path fill="#fff" d="M208.255 68.338h-89.976v67.305h89.976z"/></mask><g mask="url(#cc)"><mask id="cd" width="85" height="62" x="121" y="71" maskUnits="userSpaceOnUse" style="mask-type:luminance"><path fill="#fff" d="M121.115 71.88h84.308v60.22h-84.308z"/></mask><g mask="url(#cd)"><mask id="ce" width="90" height="67" x="118" y="68" maskUnits="userSpaceOnUse" style="mask-type:luminance"><path fill="#fff" d="m124.024 68.602 83.711 7.275-5.131 59.036-83.71-7.276z"/></mask><g mask="url(#ce)"><mask id="cf" width="85" height="60" x="121" y="72" maskUnits="userSpaceOnUse" style="mask-type:luminance"><path fill="#fff" d="M165.793 72.233c-23.067-2.007-42.918 9.583-44.335 25.886-1.417 16.301 16.134 31.143 39.204 33.149 23.067 2.004 42.915-9.586 44.332-25.887 1.417-16.303-16.134-31.145-39.201-33.148"/></mask><g mask="url(#cf)"><mask id="cg" width="85" height="62" x="121" y="71" maskUnits="userSpaceOnUse" style="mask-type:luminance"><path fill="#fff" d="M205.429 71.882h-84.308v60.22h84.308z"/></mask><g mask="url(#cg)"><mask id="ch" width="85" height="62" x="121" y="71" maskUnits="userSpaceOnUse" style="mask-type:luminance"><path fill="#fff" d="M121.124 71.882h84.308v60.22h-84.308z"/></mask><g mask="url(#ch)"><mask id="ci" width="90" height="67" x="118" y="68" maskUnits="userSpaceOnUse" style="mask-type:luminance"><path fill="#fff" d="m124.033 68.603 83.71 7.275-5.13 59.036-83.711-7.276z"/></mask><g mask="url(#ci)"><mask id="cj" width="85" height="60" x="121" y="72" maskUnits="userSpaceOnUse" style="mask-type:luminance"><path fill="#fff" d="M165.802 72.234c-23.067-2.007-42.918 9.583-44.335 25.886-1.417 16.301 16.134 31.143 39.204 33.149 23.067 2.004 42.915-9.586 44.332-25.887 1.417-16.303-16.135-31.145-39.201-33.148"/></mask><g mask="url(#cj)"><path fill="#000" d="m124.033 68.603 83.481 7.256-5.131 59.035-83.481-7.256z"/></g></g></g></g></g></g></g></g></g><mask id="ck" width="85" height="61" x="117" y="67" maskUnits="userSpaceOnUse" style="mask-type:luminance"><path fill="#fff" d="M117.569 67.63h84.308v60.22h-84.308z"/></mask><g mask="url(#ck)"><mask id="cl" width="92" height="70" x="114" y="63" maskUnits="userSpaceOnUse" style="mask-type:luminance"><path fill="#fff" d="m114.435 121.779 7.427-58.654 83.401 10.563-7.428 58.654z"/></mask><g mask="url(#cl)"><mask id="cm" width="85" height="61" x="117" y="67" maskUnits="userSpaceOnUse" style="mask-type:luminance"><path fill="#fff" d="M118.145 92.45c-2.053 16.199 14.906 31.688 37.873 34.597 22.97 2.908 43.252-7.863 45.303-24.061s-14.905-31.687-37.873-34.596c-22.97-2.908-43.252 7.863-45.303 24.06"/></mask><g mask="url(#cm)"><mask id="cn" width="85" height="61" x="117" y="67" maskUnits="userSpaceOnUse" style="mask-type:luminance"><path fill="#fff" d="M201.877 67.63h-84.308v60.22h84.308z"/></mask><g mask="url(#cn)"><mask id="co" width="85" height="61" x="117" y="67" maskUnits="userSpaceOnUse" style="mask-type:luminance"><path fill="#fff" d="M117.57 67.63h84.308v60.22H117.57z"/></mask><g mask="url(#co)"><mask id="cp" width="92" height="70" x="114" y="63" maskUnits="userSpaceOnUse" style="mask-type:luminance"><path fill="#fff" d="m114.438 121.779 7.428-58.654 83.401 10.563-7.428 58.654z"/></mask><g mask="url(#cp)"><mask id="cq" width="85" height="61" x="117" y="67" maskUnits="userSpaceOnUse" style="mask-type:luminance"><path fill="#fff" d="M118.152 92.453c-2.054 16.198 14.905 31.687 37.873 34.596 22.97 2.908 43.252-7.863 45.303-24.061s-14.906-31.687-37.873-34.596c-22.97-2.908-43.252 7.863-45.303 24.06"/></mask><g mask="url(#cq)"><path fill="#fff" d="m114.438 121.779 7.428-58.654 83.174 10.533-7.431 58.656z"/></g></g></g></g></g></g></g><mask id="cr" width="85" height="61" x="117" y="67" maskUnits="userSpaceOnUse" style="mask-type:luminance"><path fill="#fff" d="M117.569 67.63h84.308v60.22h-84.308z"/></mask><g mask="url(#cr)"><mask id="cs" width="92" height="70" x="114" y="63" maskUnits="userSpaceOnUse" style="mask-type:luminance"><path fill="#fff" d="m114.435 121.778 7.408-58.512 83.29 10.55-7.412 58.512z"/></mask><g mask="url(#cs)"><mask id="ct" width="92" height="70" x="114" y="63" maskUnits="userSpaceOnUse" style="mask-type:luminance"><path fill="#fff" d="m114.435 121.777 7.436-58.712 83.763 10.61-7.437 58.713z"/></mask><g mask="url(#ct)"><mask id="cu" width="85" height="61" x="117" y="67" maskUnits="userSpaceOnUse" style="mask-type:luminance"><path fill="#fff" d="M118.149 92.454c-2.051 16.195 14.902 31.684 37.87 34.593 22.969 2.908 43.249-7.863 45.3-24.061 2.054-16.195-14.903-31.684-37.87-34.593-22.967-2.908-43.25 7.863-45.3 24.06"/></mask><g mask="url(#cu)"><path stroke="#000" stroke-width="3.188" d="M118.149 92.454c-2.051 16.195 14.903 31.685 37.87 34.593 22.97 2.909 43.25-7.862 45.301-24.06 2.053-16.195-14.903-31.685-37.87-34.593-22.968-2.909-43.25 7.862-45.301 24.06Z"/></g></g></g></g><mask id="cv" width="86" height="62" x="118" y="58" maskUnits="userSpaceOnUse" style="mask-type:luminance"><path fill="#fff" d="M118.981 58.42h84.308v60.928h-84.308z"/></mask><g mask="url(#cv)"><mask id="cw" width="92" height="70" x="115" y="54" maskUnits="userSpaceOnUse" style="mask-type:luminance"><path fill="#fff" d="m115.705 112.903 7.431-58.654 83.4 10.563-7.428 58.654z"/></mask><g mask="url(#cw)"><mask id="cx" width="84" height="60" x="119" y="59" maskUnits="userSpaceOnUse" style="mask-type:luminance"><path fill="#fff" d="M119.426 83.577c-2.053 16.198 14.903 31.687 37.873 34.596s43.253-7.865 45.303-24.06c2.051-16.199-14.905-31.688-37.875-34.597-22.967-2.908-43.25 7.863-45.301 24.06"/></mask><g mask="url(#cx)"><mask id="cy" width="86" height="62" x="118" y="58" maskUnits="userSpaceOnUse" style="mask-type:luminance"><path fill="#fff" d="M203.287 58.42h-84.308v60.929h84.308z"/></mask><g mask="url(#cy)"><mask id="cz" width="86" height="62" x="118" y="58" maskUnits="userSpaceOnUse" style="mask-type:luminance"><path fill="#fff" d="M118.977 58.42h84.308v60.929h-84.308z"/></mask><g mask="url(#cz)"><mask id="cA" width="92" height="70" x="115" y="54" maskUnits="userSpaceOnUse" style="mask-type:luminance"><path fill="#fff" d="m115.699 112.904 7.431-58.654 83.4 10.563-7.428 58.654z"/></mask><g mask="url(#cA)"><mask id="cB" width="84" height="60" x="119" y="59" maskUnits="userSpaceOnUse" style="mask-type:luminance"><path fill="#fff" d="M119.421 83.577c-2.053 16.198 14.903 31.687 37.873 34.596s43.253-7.865 45.304-24.06c2.05-16.199-14.906-31.688-37.876-34.597-22.967-2.908-43.25 7.863-45.301 24.06"/></mask><g mask="url(#cB)"><path fill="#fff" d="m115.702 112.903 7.431-58.654 83.17 10.533-7.428 58.656z"/></g></g></g></g></g></g></g><mask id="cC" width="86" height="62" x="118" y="58" maskUnits="userSpaceOnUse" style="mask-type:luminance"><path fill="#fff" d="M118.981 58.42h84.308v60.928h-84.308z"/></mask><g mask="url(#cC)"><mask id="cD" width="92" height="70" x="115" y="54" maskUnits="userSpaceOnUse" style="mask-type:luminance"><path fill="#fff" d="m115.706 112.904 7.411-58.512 83.29 10.55-7.411 58.512z"/></mask><g mask="url(#cD)"><mask id="cE" width="92" height="70" x="115" y="54" maskUnits="userSpaceOnUse" style="mask-type:luminance"><path fill="#fff" d="m115.704 112.904 7.439-58.712 83.76 10.61-7.437 58.712z"/></mask><g mask="url(#cE)"><mask id="cF" width="84" height="60" x="119" y="59" maskUnits="userSpaceOnUse" style="mask-type:luminance"><path fill="#fff" d="M119.425 83.579c-2.054 16.195 14.903 31.685 37.87 34.593s43.25-7.862 45.3-24.06c2.054-16.195-14.902-31.685-37.87-34.593s-43.249 7.862-45.3 24.06"/></mask><g mask="url(#cF)"><path stroke="#000" stroke-width="3.188" d="M119.424 83.579c-2.054 16.195 14.903 31.684 37.87 34.593 22.967 2.908 43.25-7.863 45.301-24.06 2.053-16.196-14.903-31.685-37.87-34.594-22.968-2.909-43.25 7.862-45.301 24.06Z"/></g></g></g></g><mask id="cG" width="63" height="46" x="129" y="67" maskUnits="userSpaceOnUse" style="mask-type:luminance"><path fill="#fff" d="M129.611 67.63h61.637v44.634h-61.637z"/></mask><g mask="url(#cG)"><mask id="cH" width="67" height="52" x="127" y="64" maskUnits="userSpaceOnUse" style="mask-type:luminance"><path fill="#fff" d="m127.115 107.532 5.452-43.056 61.225 7.754-5.455 43.056z"/></mask><g mask="url(#cH)"><mask id="cI" width="63" height="45" x="129" y="67" maskUnits="userSpaceOnUse" style="mask-type:luminance"><path fill="#fff" d="M129.846 86.004c-1.505 11.889 10.943 23.26 27.802 25.394 16.862 2.136 31.751-5.77 33.257-17.662 1.505-11.89-10.943-23.26-27.802-25.394-16.863-2.137-31.751 5.77-33.257 17.662"/></mask><g mask="url(#cI)"><mask id="cJ" width="63" height="46" x="129" y="67" maskUnits="userSpaceOnUse" style="mask-type:luminance"><path fill="#fff" d="M191.244 67.63h-61.637v44.634h61.637z"/></mask><g mask="url(#cJ)"><mask id="cK" width="63" height="46" x="129" y="67" maskUnits="userSpaceOnUse" style="mask-type:luminance"><path fill="#fff" d="M129.604 67.63h61.637v44.634h-61.637z"/></mask><g mask="url(#cK)"><mask id="cL" width="67" height="52" x="127" y="64" maskUnits="userSpaceOnUse" style="mask-type:luminance"><path fill="#fff" d="m127.109 107.532 5.452-43.056 61.224 7.754-5.454 43.056z"/></mask><g mask="url(#cL)"><mask id="cM" width="63" height="45" x="129" y="67" maskUnits="userSpaceOnUse" style="mask-type:luminance"><path fill="#fff" d="M129.84 86.004c-1.506 11.889 10.942 23.26 27.802 25.394 16.862 2.136 31.751-5.77 33.256-17.662 1.506-11.89-10.942-23.26-27.802-25.394-16.862-2.137-31.751 5.77-33.256 17.662"/></mask><g mask="url(#cM)"><path fill="#000" d="m127.111 107.532 5.452-43.056 61.056 7.732-5.455 43.056z"/></g></g></g></g></g></g></g><mask id="cN" width="63" height="46" x="129" y="67" maskUnits="userSpaceOnUse" style="mask-type:luminance"><path fill="#fff" d="M129.611 67.63h61.637v44.634h-61.637z"/></mask><g mask="url(#cN)"><mask id="cO" width="67" height="52" x="127" y="64" maskUnits="userSpaceOnUse" style="mask-type:luminance"><path fill="#fff" d="m127.115 107.532 5.474-43.225 61.147 7.743-5.474 43.228z"/></mask><g mask="url(#cO)"><mask id="cP" width="68" height="52" x="127" y="64" maskUnits="userSpaceOnUse" style="mask-type:luminance"><path fill="#fff" d="m127.12 107.531 5.458-43.095 61.484 7.788-5.457 43.095z"/></mask><g mask="url(#cP)"><mask id="cQ" width="63" height="45" x="129" y="67" maskUnits="userSpaceOnUse" style="mask-type:luminance"><path fill="#fff" d="M129.846 86.007c-1.505 11.889 10.94 23.258 27.799 25.391 16.86 2.137 31.746-5.77 33.251-17.659 1.506-11.889-10.939-23.258-27.799-25.391-16.857-2.137-31.745 5.77-33.251 17.659"/></mask><g mask="url(#cQ)"><path stroke="#000" stroke-width="3.188" d="M129.846 86.006c-1.505 11.89 10.94 23.258 27.8 25.392 16.859 2.136 31.745-5.771 33.251-17.66s-10.94-23.257-27.799-25.391c-16.857-2.137-31.746 5.77-33.252 17.66Z"/></g></g></g></g><path stroke="#000" stroke-width="2.125" d="m123.88 109.23 1.724-8.036m7.454 17.241 3.819-7.276m9.718 12.745 2.676-7.771m12.624 10.625.373-8.211m13.362 6.212-.792-8.18m14.35 3.444-.788-8.18"/><mask id="cR" width="57" height="42" x="134" y="69" maskUnits="userSpaceOnUse" style="mask-type:luminance"><path fill="#fff" d="M134.571 69.756h55.969v41.091h-55.969z"/></mask><g mask="url(#cR)"><mask id="cS" width="61" height="47" x="132" y="67" maskUnits="userSpaceOnUse" style="mask-type:luminance"><path fill="#fff" d="m132.245 106.806 5.012-39.56 55.172 6.987-5.012 39.561z"/></mask><g mask="url(#cS)"><mask id="cT" width="56" height="41" x="134" y="70" maskUnits="userSpaceOnUse" style="mask-type:luminance"><path fill="#fff" d="M134.751 87.024c-1.383 10.926 9.811 21.343 25.004 23.266 15.194 1.926 28.633-5.371 30.016-16.295 1.384-10.926-9.81-21.342-25.004-23.266-15.193-1.926-28.632 5.372-30.016 16.295"/></mask><g mask="url(#cT)"><mask id="cU" width="57" height="42" x="134" y="69" maskUnits="userSpaceOnUse" style="mask-type:luminance"><path fill="#fff" d="M190.537 69.756h-55.97v41.091h55.97z"/></mask><g mask="url(#cU)"><mask id="cV" width="57" height="42" x="134" y="69" maskUnits="userSpaceOnUse" style="mask-type:luminance"><path fill="#fff" d="M134.567 69.756h55.97v41.091h-55.97z"/></mask><g mask="url(#cV)"><mask id="cW" width="61" height="47" x="132" y="67" maskUnits="userSpaceOnUse" style="mask-type:luminance"><path fill="#fff" d="m132.249 106.806 5.012-39.56 55.172 6.987-5.012 39.561z"/></mask><g mask="url(#cW)"><mask id="cX" width="56" height="41" x="134" y="70" maskUnits="userSpaceOnUse" style="mask-type:luminance"><path fill="#fff" d="M134.757 87.024c-1.383 10.926 9.811 21.343 25.004 23.266 15.194 1.926 28.632-5.371 30.016-16.295 1.384-10.926-9.81-21.342-25.004-23.266-15.193-1.926-28.632 5.372-30.016 16.295"/></mask><g mask="url(#cX)"><path fill="#a9c5e7" d="m132.251 106.806 5.012-39.56 55.017 6.968-5.012 39.56z"/></g></g></g></g></g></g></g><mask id="cY" width="25" height="23" x="150" y="79" maskUnits="userSpaceOnUse" style="mask-type:luminance"><path fill="#fff" d="M150.865 79.675h24.088v21.962h-24.088z"/></mask><g mask="url(#cY)"><mask id="cZ" width="30" height="27" x="148" y="77" maskUnits="userSpaceOnUse" style="mask-type:luminance"><path fill="#fff" d="m148.005 93.23 7.076-15.462 22.71 10.394-7.076 15.462z"/></mask><g mask="url(#cZ)"><mask id="da" width="30" height="27" x="148" y="77" maskUnits="userSpaceOnUse" style="mask-type:luminance"><path fill="#fff" d="m148.005 93.23 7.076-15.462 22.71 10.394-7.076 15.462z"/></mask><g mask="url(#da)"><path fill="#fff" d="M165.359 84.643c-1.239.584-2.532 1.669-3.838 3.368l-3.797-1.738a7.9 7.9 0 0 1 2.618-2.247c.138-.114.28-.224.274-.404a.44.44 0 0 0-.053-.465l-1.641-2.784c-.113-.139-.224-.28-.404-.274-.146-.067-.36.013-.465.052-1.832 1.107-3.29 2.557-4.345 4.284l-.805-.368a.63.63 0 0 0-.85.316l-.769 1.68a.634.634 0 0 0 .316.852l.805.368c-.556 1.6-.576 3.18-.094 4.638.49 1.636 1.608 2.856 3.288 3.626 1.679.766 3.154.824 4.499.202 1.238-.581 2.425-1.628 3.698-3.252l3.943 1.804c-.86 1.107-2.053 1.976-3.608 2.676-.141.111-.283.225-.349.371a.44.44 0 0 0 .053.465l1.394 2.936c.119.319.518.413.836.294a13.4 13.4 0 0 0 5.762-4.87l1.389.636a.633.633 0 0 0 .85-.319l.769-1.68a.63.63 0 0 0-.315-.85l-1.39-.636c.623-1.746.643-3.326.194-4.856-.487-1.636-1.574-2.928-3.254-3.698-1.785-.73-3.335-.819-4.711-.127m2.851 4.575c.44.201.736.514.863 1.012.083.393.064.825.009 1.329l-3.285-1.503c.592-.523.977-.789 1.19-.869.387-.263.786-.169 1.223.03m-11.004 1.85c-.44-.198-.664-.478-.788-.976q-.178-.48-.036-1.08l3.066 1.406c-.487.485-.838.676-1.052.753-.426.16-.752.1-1.19-.102"/></g></g></g><path stroke="#000" stroke-width="5.314" d="M280.929 72.397v22.18"/><path stroke="#000" stroke-linecap="round" stroke-linejoin="round" stroke-width="5.314" d="m288.898 83.023-7.97-10.627-7.97 10.627"/><path stroke="#000" stroke-width="5.314" d="M184.199 32.073v22.182"/><path stroke="#000" stroke-linecap="round" stroke-linejoin="round" stroke-width="5.314" d="m192.171 42.7-7.97-10.627L176.23 42.7"/></g><defs><clipPath id="a"><path fill="#fff" d="M.599 0h333.188v242H.599z"/></clipPath></defs></svg>