<svg width="372" height="374" viewBox="0 0 372 374" fill="none" xmlns="http://www.w3.org/2000/svg">
<mask id="mask0_176_6956" style="mask-type:luminance" maskUnits="userSpaceOnUse" x="69" y="-115" width="222" height="267">
<path d="M69.582 -114.8H290.672V151.49H69.582V-114.8Z" fill="white"/>
</mask>
<g mask="url(#mask0_176_6956)">
<mask id="mask1_176_6956" style="mask-type:luminance" maskUnits="userSpaceOnUse" x="69" y="-115" width="223" height="267">
<path d="M151.772 -114.8H208.816C254.209 -114.8 291.006 -78.0026 291.006 -32.6099V69.3052C291.006 114.694 254.209 151.491 208.816 151.491H151.772C106.379 151.491 69.582 114.694 69.582 69.3052V-32.6099C69.582 -78.0026 106.379 -114.8 151.772 -114.8Z" fill="white"/>
</mask>
<g mask="url(#mask1_176_6956)">
<path d="M151.772 -114.8H208.816C254.209 -114.8 291.006 -78.0026 291.006 -32.6099V69.3052C291.006 114.694 254.209 151.491 208.816 151.491H151.772C106.379 151.491 69.582 114.694 69.582 69.3052V-32.6099C69.582 -78.0026 106.379 -114.8 151.772 -114.8Z" stroke="black" stroke-opacity="0.81" stroke-width="14.7941"/>
</g>
</g>
<mask id="mask2_176_6956" style="mask-type:luminance" maskUnits="userSpaceOnUse" x="99" y="-82" width="166" height="242">
<path d="M99.4023 -81.4753H264.604V159.841H99.4023V-81.4753Z" fill="white"/>
</mask>
<g mask="url(#mask2_176_6956)">
<mask id="mask3_176_6956" style="mask-type:luminance" maskUnits="userSpaceOnUse" x="99" y="-82" width="166" height="242">
<path d="M181.588 -81.4753H182.572C227.961 -81.4753 264.758 -44.6784 264.758 0.710014V77.6387C264.758 123.027 227.961 159.824 182.572 159.824H181.588C136.195 159.824 99.4023 123.027 99.4023 77.6387V0.710014C99.4023 -44.6784 136.195 -81.4753 181.588 -81.4753Z" fill="white"/>
</mask>
<g mask="url(#mask3_176_6956)">
<path d="M181.588 -81.4753H182.572C227.961 -81.4753 264.758 -44.6784 264.758 0.710013V77.6386C264.758 123.027 227.961 159.824 182.572 159.824H181.588C136.195 159.824 99.4023 123.027 99.4023 77.6386V0.710013C99.4023 -44.6784 136.195 -81.4753 181.588 -81.4753Z" stroke="black" stroke-opacity="0.81" stroke-width="14.7941"/>
</g>
</g>
<mask id="mask4_176_6956" style="mask-type:luminance" maskUnits="userSpaceOnUse" x="23" y="19" width="325" height="326">
<path d="M23.042 19.7295H347.546V344.229H23.042V19.7295Z" fill="white"/>
</mask>
<g mask="url(#mask4_176_6956)">
<mask id="mask5_176_6956" style="mask-type:luminance" maskUnits="userSpaceOnUse" x="23" y="19" width="325" height="326">
<path d="M185.294 19.7295C95.6856 19.7295 23.042 92.3689 23.042 181.977C23.042 271.585 95.6856 344.229 185.294 344.229C274.902 344.229 347.546 271.585 347.546 181.977C347.546 92.3689 274.902 19.7295 185.294 19.7295Z" fill="white"/>
</mask>
<g mask="url(#mask5_176_6956)">
<mask id="mask6_176_6956" style="mask-type:luminance" maskUnits="userSpaceOnUse" x="22" y="18" width="327" height="327">
<path d="M348.578 18.9292H22.0107V344.4H348.578V18.9292Z" fill="white"/>
</mask>
<g mask="url(#mask6_176_6956)">
<mask id="mask7_176_6956" style="mask-type:luminance" maskUnits="userSpaceOnUse" x="23" y="19" width="325" height="326">
<path d="M23.042 19.7297H347.546V344.229H23.042V19.7297Z" fill="white"/>
</mask>
<g mask="url(#mask7_176_6956)">
<mask id="mask8_176_6956" style="mask-type:luminance" maskUnits="userSpaceOnUse" x="23" y="19" width="325" height="326">
<path d="M185.294 19.7297C95.6856 19.7297 23.042 92.3691 23.042 181.977C23.042 271.585 95.6856 344.229 185.294 344.229C274.902 344.229 347.546 271.585 347.546 181.977C347.546 92.3691 274.902 19.7297 185.294 19.7297Z" fill="white"/>
</mask>
<g mask="url(#mask8_176_6956)">
<path d="M23.042 19.7297H347.546V344.229H23.042V19.7297Z" fill="white"/>
</g>
</g>
</g>
</g>
</g>
<mask id="mask9_176_6956" style="mask-type:luminance" maskUnits="userSpaceOnUse" x="23" y="19" width="325" height="326">
<path d="M23.042 19.7295H347.537V344.224H23.042V19.7295Z" fill="white"/>
</mask>
<g mask="url(#mask9_176_6956)">
<mask id="mask10_176_6956" style="mask-type:luminance" maskUnits="userSpaceOnUse" x="23" y="19" width="325" height="326">
<path d="M185.289 19.7295C95.6856 19.7295 23.042 92.3689 23.042 181.977C23.042 271.581 95.6856 344.224 185.289 344.224C274.898 344.224 347.537 271.581 347.537 181.977C347.537 92.3689 274.898 19.7295 185.289 19.7295Z" fill="white"/>
</mask>
<g mask="url(#mask10_176_6956)">
<path d="M185.289 19.7295C95.6856 19.7295 23.042 92.3689 23.042 181.977C23.042 271.581 95.6856 344.224 185.289 344.224C274.898 344.224 347.537 271.581 347.537 181.977C347.537 92.3689 274.898 19.7295 185.289 19.7295Z" stroke="black" stroke-opacity="0.81" stroke-width="13.1503"/>
</g>
</g>
<mask id="mask11_176_6956" style="mask-type:luminance" maskUnits="userSpaceOnUse" x="39" y="33" width="302" height="302">
<path d="M39.3174 33.6499H340.123V334.46H39.3174V33.6499Z" fill="white"/>
</mask>
<g mask="url(#mask11_176_6956)">
<mask id="mask12_176_6956" style="mask-type:luminance" maskUnits="userSpaceOnUse" x="39" y="33" width="302" height="302">
<path d="M189.72 33.6497C106.653 33.6497 39.3174 100.99 39.3174 184.052C39.3174 267.12 106.653 334.459 189.72 334.459C272.787 334.459 340.123 267.12 340.123 184.052C340.123 100.99 272.787 33.6497 189.72 33.6497Z" fill="white"/>
</mask>
<g mask="url(#mask12_176_6956)">
<mask id="mask13_176_6956" style="mask-type:luminance" maskUnits="userSpaceOnUse" x="38" y="33" width="303" height="302">
<path d="M340.906 33.1748H38.4482V334.537H340.906V33.1748Z" fill="white"/>
</mask>
<g mask="url(#mask13_176_6956)">
<mask id="mask14_176_6956" style="mask-type:luminance" maskUnits="userSpaceOnUse" x="39" y="33" width="302" height="302">
<path d="M39.3174 33.6492H340.123V334.459H39.3174V33.6492Z" fill="white"/>
</mask>
<g mask="url(#mask14_176_6956)">
<mask id="mask15_176_6956" style="mask-type:luminance" maskUnits="userSpaceOnUse" x="39" y="33" width="302" height="302">
<path d="M189.72 33.6489C106.653 33.6489 39.3174 100.989 39.3174 184.052C39.3174 267.119 106.653 334.459 189.72 334.459C272.787 334.459 340.123 267.119 340.123 184.052C340.123 100.989 272.787 33.6489 189.72 33.6489Z" fill="white"/>
</mask>
<g mask="url(#mask15_176_6956)">
<path d="M39.3174 33.6489H340.123V334.459H39.3174V33.6489Z" fill="#ABC7E9" fill-opacity="0.84"/>
</g>
</g>
</g>
</g>
</g>
<mask id="mask16_176_6956" style="mask-type:luminance" maskUnits="userSpaceOnUse" x="62" y="58" width="245" height="245">
<path d="M62.7451 58.6072H306.198V302.06H62.7451V58.6072Z" fill="white"/>
</mask>
<g mask="url(#mask16_176_6956)">
<mask id="mask17_176_6956" style="mask-type:luminance" maskUnits="userSpaceOnUse" x="62" y="58" width="245" height="245">
<path d="M184.471 58.6072C117.243 58.6072 62.7451 113.105 62.7451 180.333C62.7451 247.562 117.243 302.06 184.471 302.06C251.7 302.06 306.198 247.562 306.198 180.333C306.198 113.105 251.7 58.6072 184.471 58.6072Z" fill="white"/>
</mask>
<g mask="url(#mask17_176_6956)">
<mask id="mask18_176_6956" style="mask-type:luminance" maskUnits="userSpaceOnUse" x="62" y="58" width="245" height="245">
<path d="M306.934 58.3796H62.5566V302.757H306.934V58.3796Z" fill="white"/>
</mask>
<g mask="url(#mask18_176_6956)">
<mask id="mask19_176_6956" style="mask-type:luminance" maskUnits="userSpaceOnUse" x="62" y="58" width="245" height="245">
<path d="M62.7451 58.6064H306.198V302.059H62.7451V58.6064Z" fill="white"/>
</mask>
<g mask="url(#mask19_176_6956)">
<mask id="mask20_176_6956" style="mask-type:luminance" maskUnits="userSpaceOnUse" x="62" y="58" width="245" height="245">
<path d="M184.471 58.6064C117.243 58.6064 62.7451 113.104 62.7451 180.333C62.7451 247.561 117.243 302.059 184.471 302.059C251.7 302.059 306.198 247.561 306.198 180.333C306.198 113.104 251.7 58.6064 184.471 58.6064Z" fill="white"/>
</mask>
<g mask="url(#mask20_176_6956)">
<path d="M62.7451 58.6064H306.198V302.059H62.7451V58.6064Z" fill="white"/>
</g>
</g>
</g>
</g>
</g>
<mask id="mask21_176_6956" style="mask-type:luminance" maskUnits="userSpaceOnUse" x="62" y="58" width="245" height="244">
<path d="M62.7451 58.6072H306.026V301.888H62.7451V58.6072Z" fill="white"/>
</mask>
<g mask="url(#mask21_176_6956)">
<mask id="mask22_176_6956" style="mask-type:luminance" maskUnits="userSpaceOnUse" x="62" y="58" width="245" height="245">
<path d="M184.471 58.6072C117.243 58.6072 62.7451 113.105 62.7451 180.333C62.7451 247.558 117.243 302.055 184.471 302.055C251.696 302.055 306.193 247.558 306.193 180.333C306.193 113.105 251.696 58.6072 184.471 58.6072Z" fill="white"/>
</mask>
<g mask="url(#mask22_176_6956)">
<path d="M184.471 58.6072C117.243 58.6072 62.7451 113.105 62.7451 180.333C62.7451 247.558 117.243 302.055 184.471 302.055C251.696 302.055 306.193 247.558 306.193 180.333C306.193 113.105 251.696 58.6072 184.471 58.6072Z" stroke="black" stroke-opacity="0.81" stroke-width="13.1503"/>
</g>
</g>
<mask id="mask23_176_6956" style="mask-type:luminance" maskUnits="userSpaceOnUse" x="80" y="73" width="212" height="213">
<path d="M80.0918 73.7219H291.593V285.223H80.0918V73.7219Z" fill="white"/>
</mask>
<g mask="url(#mask23_176_6956)">
<mask id="mask24_176_6956" style="mask-type:luminance" maskUnits="userSpaceOnUse" x="74" y="67" width="225" height="225">
<path d="M88.4041 67.4558L298.326 81.6763L284.11 291.598L74.1836 277.382L88.4041 67.4558Z" fill="white"/>
</mask>
<g mask="url(#mask24_176_6956)">
<mask id="mask25_176_6956" style="mask-type:luminance" maskUnits="userSpaceOnUse" x="74" y="67" width="225" height="225">
<path d="M88.4042 67.4561L298.005 81.6552L283.81 291.256L74.2051 277.061L88.4042 67.4561Z" fill="white"/>
</mask>
<g mask="url(#mask25_176_6956)">
<mask id="mask26_176_6956" style="mask-type:luminance" maskUnits="userSpaceOnUse" x="81" y="74" width="211" height="211">
<path d="M193.205 74.5527C135.326 70.6358 85.2245 114.376 81.3034 172.26C77.3865 230.139 121.127 280.236 179.011 284.158C236.89 288.079 286.987 244.334 290.908 186.455C294.829 128.575 251.085 78.4738 193.205 74.5527Z" fill="white"/>
</mask>
<g mask="url(#mask26_176_6956)">
<path d="M186.587 77.6007C185.529 77.5922 184.472 77.605 183.419 77.6307L183.252 71.0598C184.374 71.0298 185.499 71.017 186.625 71.0256L186.587 77.6007ZM180.226 77.7591C179.164 77.8233 178.102 77.8961 177.045 77.9903L176.467 71.4408C177.593 71.3423 178.723 71.261 179.857 71.1968L180.226 77.7591ZM173.886 78.3199C172.833 78.444 171.78 78.5896 170.731 78.748L169.742 72.2456C170.859 72.0786 171.981 71.9245 173.103 71.7918L173.886 78.3199ZM167.585 79.2788C166.54 79.4671 165.5 79.6769 164.464 79.9037L163.073 73.4784C164.173 73.2387 165.282 73.0161 166.39 72.8106L167.585 79.2788ZM161.369 80.6272C160.337 80.884 159.31 81.158 158.287 81.4491L156.489 75.1265C157.576 74.814 158.672 74.5229 159.772 74.2489L161.369 80.6272ZM155.239 82.3694C154.229 82.6905 153.223 83.0287 152.226 83.3797L150.034 77.1812C151.1 76.8045 152.17 76.4449 153.244 76.1025L155.239 82.3694ZM149.233 84.4927C148.244 84.8779 147.264 85.276 146.284 85.6913L143.707 79.6426C144.747 79.2017 145.796 78.7736 146.849 78.3627L149.233 84.4927ZM143.382 86.984C142.414 87.4335 141.46 87.8958 140.509 88.371L137.556 82.4979C138.57 81.9885 139.589 81.4962 140.616 81.021L143.382 86.984ZM137.684 89.8478C136.751 90.353 135.826 90.8709 134.91 91.406L131.597 85.7255C132.573 85.1562 133.557 84.604 134.55 84.0646L137.684 89.8478ZM132.183 93.0584C131.284 93.6191 130.39 94.197 129.508 94.7878L125.848 89.3256C126.785 88.6963 127.736 88.0842 128.694 87.4849L132.183 93.0584ZM126.892 96.6028C126.028 97.2192 125.176 97.8528 124.332 98.4992L120.339 93.2767C121.233 92.5875 122.145 91.9154 123.061 91.2562L126.892 96.6028ZM121.828 100.473C121.006 101.145 120.193 101.83 119.392 102.523L115.082 97.5574C115.934 96.8168 116.798 96.0891 117.676 95.3785L121.828 100.473ZM117.021 104.651C116.242 105.37 115.471 106.106 114.714 106.851L110.103 102.163C110.908 101.367 111.726 100.588 112.556 99.8219L117.021 104.651ZM112.479 109.12C111.743 109.886 111.024 110.665 110.313 111.457L105.42 107.065C106.174 106.226 106.94 105.395 107.723 104.578L112.479 109.12ZM108.224 113.858C107.539 114.672 106.867 115.498 106.208 116.328L101.05 112.253C101.752 111.367 102.467 110.489 103.194 109.625L108.224 113.858ZM104.273 118.858C103.644 119.71 103.023 120.575 102.419 121.444L97.0172 117.698C97.6593 116.769 98.3185 115.853 98.9906 114.946L104.273 118.858ZM100.643 124.094C100.065 124.984 99.5043 125.883 98.9564 126.79L93.3272 123.391C93.9094 122.424 94.5087 121.465 95.1251 120.519L100.643 124.094ZM97.3511 129.543C96.8288 130.467 96.3237 131.405 95.8314 132.347L90.0011 129.307C90.5276 128.301 91.067 127.304 91.6192 126.319L97.3511 129.543ZM94.406 135.189C93.9436 136.144 93.4985 137.107 93.0704 138.074L87.0603 135.407C87.5183 134.376 87.9935 133.353 88.4815 132.334L94.406 135.189ZM91.8204 141.011C91.4223 141.995 91.037 142.984 90.6689 143.982L84.5047 141.696C84.8942 140.638 85.3052 139.585 85.7332 138.537L91.8204 141.011ZM89.6158 146.978C89.2777 147.984 88.9566 148.999 88.6484 150.017L82.3515 148.125C82.6768 147.042 83.0193 145.964 83.3789 144.889L89.6158 146.978ZM87.7794 153.087C87.5097 154.11 87.2529 155.133 87.0132 156.165L80.6092 154.675C80.8661 153.575 81.1358 152.483 81.4268 151.396L87.7794 153.087ZM86.3411 159.281C86.1313 160.325 85.9387 161.374 85.7632 162.427L79.2779 161.344C79.4663 160.223 79.6718 159.105 79.8901 157.992L86.3411 159.281ZM85.288 165.556C85.1425 166.61 85.0184 167.663 84.9071 168.72L78.3661 168.039C78.486 166.913 78.6187 165.792 78.7728 164.675L85.288 165.556ZM84.6245 171.909L84.5817 172.491C84.5261 173.364 84.4747 174.246 84.4405 175.128L77.8696 174.85C77.9081 173.912 77.9595 172.971 78.0237 172.029L78.0665 171.447L84.6245 171.909ZM84.3549 178.317C84.342 179.375 84.3463 180.432 84.3677 181.489L77.7925 181.622C77.7711 180.496 77.7668 179.37 77.7797 178.244L84.3549 178.317ZM84.479 184.674C84.5346 185.74 84.6074 186.802 84.693 187.863L78.1393 188.403C78.0451 187.273 77.9723 186.142 77.9124 185.008L84.479 184.674ZM85.0055 191.027C85.1254 192.08 85.2624 193.129 85.4165 194.177L78.9098 195.128C78.7471 194.01 78.6016 192.893 78.4732 191.772L85.0055 191.027ZM85.9259 197.328C86.1142 198.372 86.3154 199.417 86.5337 200.453L80.0998 201.81C79.8687 200.705 79.6504 199.597 79.4534 198.488L85.9259 197.328ZM87.2401 203.548C87.4926 204.584 87.7623 205.611 88.0491 206.638L81.7137 208.402C81.4097 207.306 81.1229 206.21 80.8532 205.11L87.2401 203.548ZM88.9481 209.691C89.2648 210.701 89.5944 211.707 89.9455 212.708L83.7342 214.866C83.3617 213.8 83.0107 212.73 82.6725 211.651L88.9481 209.691ZM91.037 215.705C91.418 216.698 91.8119 217.683 92.2228 218.663L86.1613 221.206C85.7247 220.165 85.3052 219.117 84.8985 218.059L91.037 215.705ZM93.4985 221.574C93.9436 222.541 94.3974 223.5 94.8726 224.455L88.9823 227.374C88.4772 226.36 87.9892 225.337 87.5183 224.305L93.4985 221.574ZM96.3323 227.289C96.8331 228.222 97.3468 229.146 97.8776 230.067L92.18 233.35C91.6149 232.37 91.067 231.385 90.5319 230.388L96.3323 227.289ZM99.5086 232.806C100.069 233.71 100.643 234.604 101.229 235.49L95.7458 239.12C95.1208 238.179 94.513 237.224 93.918 236.265L99.5086 232.806ZM103.027 238.115C103.639 238.984 104.269 239.84 104.911 240.687L99.6627 244.651C98.982 243.752 98.3142 242.836 97.6593 241.916L103.027 238.115ZM106.871 243.2C107.535 244.026 108.216 244.84 108.909 245.649L103.918 249.929C103.181 249.073 102.462 248.204 101.752 247.327L106.871 243.2ZM111.019 248.033C111.739 248.816 112.466 249.587 113.207 250.349L108.494 254.933C107.706 254.124 106.931 253.302 106.169 252.468L111.019 248.033ZM115.463 252.596C116.229 253.337 117.004 254.06 117.791 254.775L113.374 259.642C112.535 258.885 111.709 258.114 110.9 257.326L115.463 252.596ZM120.18 256.877C120.989 257.566 121.811 258.242 122.642 258.906L118.536 264.043C117.65 263.336 116.781 262.617 115.917 261.881L120.18 256.877ZM125.159 260.854C126.006 261.491 126.867 262.116 127.736 262.724L123.96 268.105C123.035 267.459 122.119 266.795 121.216 266.115L125.159 260.854ZM130.372 264.514C131.263 265.096 132.158 265.665 133.065 266.217L129.632 271.825C128.669 271.239 127.714 270.631 126.768 270.014L130.372 264.514ZM135.805 267.835C136.725 268.362 137.658 268.871 138.6 269.368L135.526 275.181C134.525 274.655 133.532 274.111 132.551 273.55L135.805 267.835ZM141.438 270.815C142.388 271.281 143.347 271.731 144.315 272.163L141.614 278.161C140.586 277.698 139.563 277.219 138.549 276.722L141.438 270.815ZM147.243 273.426C148.223 273.833 149.212 274.222 150.209 274.599L147.893 280.75C146.832 280.352 145.779 279.937 144.734 279.505L147.243 273.426ZM153.197 275.669C154.203 276.012 155.213 276.341 156.228 276.649L154.306 282.938C153.223 282.608 152.144 282.257 151.074 281.893L153.197 275.669ZM159.297 277.54C160.32 277.814 161.343 278.075 162.371 278.323L160.843 284.719C159.751 284.457 158.659 284.179 157.572 283.884L159.297 277.54ZM165.479 279.012C166.523 279.226 167.576 279.423 168.629 279.607L167.508 286.088C166.386 285.892 165.269 285.682 164.156 285.451L165.479 279.012ZM171.754 280.1C172.803 280.25 173.856 280.378 174.913 280.498L174.194 287.03C173.073 286.906 171.951 286.769 170.834 286.611L171.754 280.1ZM178.085 280.793L179.25 280.879C179.93 280.926 180.619 280.964 181.313 280.999L181 287.565C180.264 287.531 179.519 287.488 178.766 287.437L177.606 287.351L178.085 280.793ZM184.506 281.101C185.568 281.119 186.625 281.119 187.683 281.106L187.777 287.681C186.651 287.694 185.525 287.694 184.399 287.677L184.506 281.101ZM190.863 281.012C191.925 280.96 192.991 280.896 194.052 280.815L194.557 287.368C193.427 287.458 192.293 287.527 191.159 287.578L190.863 281.012ZM197.22 280.519C198.273 280.408 199.322 280.275 200.371 280.13L201.282 286.641C200.169 286.795 199.052 286.936 197.931 287.056L197.22 280.519ZM203.526 279.633C204.574 279.453 205.615 279.256 206.655 279.042L207.977 285.485C206.873 285.712 205.76 285.921 204.647 286.114L203.526 279.633ZM209.75 278.353C210.786 278.109 211.822 277.844 212.849 277.566L214.574 283.91C213.478 284.205 212.382 284.487 211.278 284.753L209.75 278.353ZM215.91 276.679C216.92 276.371 217.926 276.042 218.928 275.699L221.051 281.923C219.985 282.287 218.91 282.634 217.836 282.968L215.91 276.679ZM221.933 274.625C222.926 274.248 223.915 273.858 224.895 273.452L227.408 279.53C226.359 279.963 225.31 280.378 224.248 280.776L221.933 274.625ZM227.814 272.193C228.786 271.757 229.745 271.307 230.699 270.841L233.589 276.748C232.57 277.244 231.547 277.724 230.515 278.191L227.814 272.193ZM233.542 269.394C234.479 268.901 235.408 268.388 236.333 267.865L239.582 273.58C238.602 274.141 237.613 274.68 236.611 275.211L233.542 269.394ZM239.077 266.247C239.984 265.691 240.883 265.126 241.769 264.544L245.374 270.044C244.428 270.665 243.469 271.269 242.506 271.859L239.077 266.247ZM244.406 262.759C245.28 262.151 246.14 261.526 246.988 260.892L250.926 266.157C250.018 266.834 249.102 267.497 248.178 268.144L244.406 262.759ZM249.513 258.944C250.344 258.281 251.161 257.605 251.97 256.92L256.23 261.932C255.365 262.66 254.492 263.379 253.61 264.086L249.513 258.944ZM254.368 254.818C255.155 254.107 255.93 253.384 256.696 252.648L261.255 257.382C260.442 258.165 259.616 258.936 258.777 259.698L254.368 254.818ZM258.956 250.4C259.701 249.638 260.429 248.868 261.148 248.089L265.994 252.532C265.228 253.362 264.453 254.184 263.661 254.993L258.956 250.4ZM263.263 245.704C263.956 244.899 264.637 244.086 265.305 243.26L270.416 247.391C269.705 248.273 268.982 249.142 268.246 249.998L263.263 245.704ZM267.27 240.751C267.907 239.904 268.537 239.048 269.149 238.183L274.513 241.989C273.858 242.913 273.19 243.821 272.509 244.724L267.27 240.751ZM270.955 235.559C271.542 234.673 272.115 233.778 272.676 232.875L278.267 236.338C277.667 237.297 277.06 238.251 276.435 239.193L270.955 235.559ZM274.307 230.144C274.838 229.223 275.356 228.295 275.857 227.361L281.653 230.465C281.118 231.462 280.57 232.451 280.005 233.431L274.307 230.144ZM277.316 224.528C277.787 223.577 278.241 222.618 278.682 221.659L284.662 224.391C284.196 225.418 283.708 226.437 283.207 227.447L277.316 224.528ZM279.962 218.74C280.373 217.755 280.771 216.771 281.152 215.773L287.29 218.128C286.884 219.185 286.464 220.238 286.023 221.283L279.962 218.74ZM282.239 212.794C282.586 211.792 282.92 210.782 283.237 209.772L289.512 211.728C289.174 212.807 288.819 213.881 288.451 214.952L282.239 212.794ZM284.14 206.703C284.422 205.684 284.688 204.661 284.94 203.638L291.327 205.196C291.062 206.287 290.775 207.379 290.475 208.462L284.14 206.703ZM285.647 200.534C285.869 199.49 286.07 198.441 286.259 197.392L292.731 198.548C292.53 199.665 292.316 200.782 292.081 201.891L285.647 200.534ZM286.768 194.259C286.922 193.21 287.059 192.161 287.183 191.108L293.716 191.861C293.583 192.983 293.438 194.1 293.275 195.213L286.768 194.259ZM287.496 187.949L287.629 186.207L287.723 184.691L294.285 185.085L294.187 186.703L294.054 188.45L287.496 187.949ZM287.838 181.515C287.864 180.453 287.868 179.396 287.86 178.334L294.435 178.279C294.448 179.405 294.439 180.53 294.414 181.66L287.838 181.515ZM287.783 175.167C287.74 174.096 287.68 173.031 287.607 171.969L294.165 171.498C294.247 172.632 294.307 173.767 294.354 174.901L287.783 175.167ZM287.329 168.797C287.222 167.748 287.094 166.699 286.957 165.651L293.472 164.773C293.622 165.886 293.754 167.003 293.87 168.125L287.329 168.797ZM286.477 162.487C286.302 161.438 286.109 160.394 285.904 159.354L292.35 158.065C292.573 159.174 292.774 160.287 292.962 161.404L286.477 162.487ZM285.231 156.254C284.992 155.219 284.735 154.187 284.461 153.155L290.813 151.464C291.105 152.56 291.379 153.66 291.635 154.765L285.231 156.254ZM283.592 150.09C283.288 149.076 282.967 148.065 282.629 147.064L288.861 144.975C289.221 146.045 289.564 147.119 289.889 148.198L283.592 150.09ZM281.567 144.054C281.199 143.061 280.814 142.068 280.416 141.084L286.507 138.609C286.931 139.658 287.342 140.711 287.736 141.773L281.567 144.054ZM279.17 138.156C278.738 137.188 278.292 136.225 277.834 135.266L283.755 132.411C284.247 133.43 284.722 134.457 285.18 135.489L279.17 138.156ZM276.405 132.415C275.912 131.473 275.407 130.54 274.889 129.616L280.621 126.397C281.173 127.381 281.713 128.374 282.235 129.376L276.405 132.415ZM273.288 126.863C272.736 125.956 272.175 125.052 271.597 124.162L277.119 120.592C277.732 121.542 278.331 122.501 278.917 123.469L273.288 126.863ZM269.825 121.517C269.222 120.643 268.605 119.779 267.972 118.922L273.263 115.014C273.935 115.926 274.59 116.846 275.232 117.775L269.825 121.517ZM266.041 116.393C265.382 115.558 264.714 114.732 264.029 113.918L269.063 109.689C269.791 110.558 270.506 111.431 271.204 112.322L266.041 116.393ZM261.944 111.513C261.234 110.721 260.515 109.941 259.783 109.171L264.543 104.638C265.322 105.455 266.088 106.286 266.842 107.129L261.944 111.513ZM257.548 106.898C256.795 106.153 256.024 105.417 255.245 104.698L259.718 99.8733C260.545 100.644 261.362 101.423 262.167 102.219L257.548 106.898ZM252.878 102.566C252.077 101.868 251.264 101.183 250.442 100.511L254.603 95.4213C255.48 96.1362 256.345 96.8639 257.197 97.6088L252.878 102.566ZM247.942 98.5334C247.103 97.887 246.251 97.2577 245.391 96.637L249.226 91.2947C250.142 91.9539 251.05 92.6303 251.945 93.3152L247.942 98.5334ZM242.771 94.8177C241.889 94.227 240.999 93.6491 240.096 93.0841L243.589 87.5148C244.548 88.1141 245.498 88.7306 246.44 89.3598L242.771 94.8177ZM237.377 91.436C236.461 90.9009 235.537 90.3786 234.603 89.8735L237.737 84.0946C238.734 84.6339 239.719 85.1904 240.695 85.7598L237.377 91.436ZM231.774 88.3967C230.828 87.9215 229.873 87.4592 228.914 87.014L231.68 81.051C232.703 81.5219 233.717 82.0141 234.728 82.5193L231.774 88.3967ZM226.004 85.7212C225.023 85.3017 224.039 84.8993 223.046 84.5141L225.43 78.3841C226.487 78.7993 227.536 79.2274 228.581 79.6683L226.004 85.7212ZM220.07 83.4096C219.069 83.0543 218.063 82.7205 217.053 82.3951L219.047 76.1324C220.126 76.4749 221.196 76.8345 222.262 77.2112L220.07 83.4096ZM213.992 81.4748C212.973 81.188 211.954 80.914 210.927 80.6572L212.524 74.2789C213.615 74.5529 214.702 74.8439 215.79 75.1522L213.992 81.4748ZM207.828 79.9337C206.787 79.7068 205.743 79.4971 204.694 79.3044L205.888 72.8406C207.006 73.046 208.114 73.2686 209.223 73.5084L207.828 79.9337ZM201.556 78.7779C200.512 78.6153 199.463 78.474 198.414 78.3456L199.202 71.8175C200.319 71.9545 201.437 72.1086 202.55 72.2755L201.556 78.7779ZM195.234 78.0117C194.485 77.9432 193.736 77.8875 192.982 77.8362C191.912 77.7634 190.842 77.7077 189.776 77.6692L190.016 71.0983C191.154 71.1369 192.289 71.1968 193.427 71.2738C194.228 71.3295 195.024 71.3937 195.82 71.4622L195.234 78.0117Z" fill="black" fill-opacity="0.81"/>
</g>
</g>
</g>
</g>
<mask id="mask27_176_6956" style="mask-type:luminance" maskUnits="userSpaceOnUse" x="174" y="32" width="23" height="21">
<path d="M174.079 32.8159H196.463V52.3745H174.079V32.8159Z" fill="white"/>
</mask>
<g mask="url(#mask27_176_6956)">
<mask id="mask28_176_6956" style="mask-type:luminance" maskUnits="userSpaceOnUse" x="174" y="32" width="23" height="21">
<path d="M185.29 52.3745L174.113 32.8159H196.463L185.29 52.3745Z" fill="white"/>
</mask>
<g mask="url(#mask28_176_6956)">
<mask id="mask29_176_6956" style="mask-type:luminance" maskUnits="userSpaceOnUse" x="173" y="32" width="25" height="21">
<path d="M197.349 32.0791H173.24V52.9005H197.349V32.0791Z" fill="white"/>
</mask>
<g mask="url(#mask29_176_6956)">
<mask id="mask30_176_6956" style="mask-type:luminance" maskUnits="userSpaceOnUse" x="174" y="32" width="23" height="21">
<path d="M174.079 32.8159H196.463V52.3745H174.079V32.8159Z" fill="white"/>
</mask>
<g mask="url(#mask30_176_6956)">
<mask id="mask31_176_6956" style="mask-type:luminance" maskUnits="userSpaceOnUse" x="174" y="32" width="23" height="21">
<path d="M185.29 52.3745L174.113 32.8159H196.463L185.29 52.3745Z" fill="white"/>
</mask>
<g mask="url(#mask31_176_6956)">
<path d="M196.463 52.3745H174.079V32.8159H196.463V52.3745Z" fill="black" fill-opacity="0.81"/>
</g>
</g>
</g>
</g>
</g>
<path d="M184.604 88.1397L185.006 74.313" stroke="black" stroke-opacity="0.81" stroke-width="2.46569"/>
<path d="M185.704 284.813L186.107 270.99" stroke="black" stroke-opacity="0.81" stroke-width="2.46569"/>
<path d="M123.579 265.408L132.025 254.454" stroke="black" stroke-opacity="0.81" stroke-width="2.46569"/>
<path d="M86.0325 212.113L99.4012 208.56" stroke="black" stroke-opacity="0.81" stroke-width="2.46569"/>
<path d="M84.8936 147.141L97.9026 151.841" stroke="black" stroke-opacity="0.81" stroke-width="2.46569"/>
<path d="M248.456 265.853L240.837 254.313" stroke="black" stroke-opacity="0.81" stroke-width="2.46569"/>
<path d="M286.108 212.481L273.082 207.841" stroke="black" stroke-opacity="0.81" stroke-width="2.46569"/>
<path d="M286.589 147.102L273.473 151.494" stroke="black" stroke-opacity="0.81" stroke-width="2.46569"/>
<path d="M248.31 95.5837L240.561 107.043" stroke="black" stroke-opacity="0.81" stroke-width="2.46569"/>
<path d="M122.954 95.956L131.519 106.82" stroke="white" stroke-width="2.46569"/>
<mask id="mask32_176_6956" style="mask-type:luminance" maskUnits="userSpaceOnUse" x="128" y="126" width="113" height="113">
<path d="M128.31 126.324H240.087V238.102H128.31V126.324Z" fill="white"/>
</mask>
<g mask="url(#mask32_176_6956)">
<mask id="mask33_176_6956" style="mask-type:luminance" maskUnits="userSpaceOnUse" x="128" y="125" width="113" height="114">
<path d="M128.197 128.138L238.301 125.702L240.741 235.811L130.633 238.247L128.197 128.138Z" fill="white"/>
</mask>
<g mask="url(#mask33_176_6956)">
<mask id="mask34_176_6956" style="mask-type:luminance" maskUnits="userSpaceOnUse" x="128" y="125" width="113" height="114">
<path d="M128.197 128.138L238.301 125.702L240.741 235.81L130.633 238.246L128.197 128.138Z" fill="white"/>
</mask>
<g mask="url(#mask34_176_6956)">
<mask id="mask35_176_6956" style="mask-type:luminance" maskUnits="userSpaceOnUse" x="129" y="126" width="111" height="112">
<path d="M183.253 126.922C152.847 127.594 128.742 152.786 129.414 183.192C130.09 213.598 155.282 237.703 185.688 237.026C216.094 236.354 240.195 211.162 239.523 180.756C238.85 150.35 213.654 126.246 183.253 126.922Z" fill="white"/>
</mask>
<g mask="url(#mask35_176_6956)">
<path d="M167.645 140C165.141 141.006 162.74 142.23 160.445 143.672L149.944 126.973C153.241 124.901 156.695 123.138 160.304 121.691L167.645 140ZM154.003 148.578C151.999 150.406 150.176 152.396 148.532 154.554L132.856 142.577C135.215 139.486 137.83 136.635 140.702 134.011L154.003 148.578ZM144.208 161.395C142.975 163.805 141.97 166.3 141.186 168.882L122.304 163.175C123.43 159.455 124.881 155.864 126.657 152.396L144.208 161.395ZM139.555 176.792C139.324 178.838 139.23 180.897 139.277 182.974C139.29 183.646 139.32 184.313 139.363 184.977L119.68 186.27C119.62 185.319 119.577 184.365 119.556 183.41C119.492 180.444 119.624 177.494 119.958 174.562L139.555 176.792ZM140.608 192.961C141.263 195.585 142.145 198.127 143.262 200.589L125.288 208.722C123.682 205.173 122.411 201.509 121.469 197.733L140.608 192.961ZM147.248 207.635C148.789 209.865 150.518 211.941 152.432 213.863L138.455 227.784C135.707 225.027 133.228 222.048 131.019 218.85L147.248 207.635ZM158.639 219.077C160.86 220.627 163.202 221.967 165.659 223.092L157.44 241.024C153.908 239.406 150.544 237.48 147.35 235.254L158.639 219.077ZM173.27 225.785C175.881 226.449 178.54 226.877 181.241 227.065L179.862 246.743C175.98 246.469 172.157 245.857 168.399 244.898L173.27 225.785ZM189.451 226.907C192.144 226.611 194.781 226.08 197.366 225.314L202.974 244.226C199.258 245.326 195.466 246.093 191.596 246.516L189.451 226.907ZM204.866 222.33C207.276 221.11 209.562 219.681 211.724 218.041L223.633 233.769C220.529 236.119 217.246 238.173 213.778 239.928L204.866 222.33ZM217.725 212.592C219.562 210.597 221.21 208.452 222.661 206.166L239.313 216.74C237.232 220.023 234.869 223.092 232.233 225.956L217.725 212.592ZM226.372 198.971C227.391 196.466 228.174 193.894 228.727 191.248L248.037 195.272C247.241 199.082 246.111 202.793 244.647 206.398L226.372 198.971ZM229.66 183.222C229.677 182.473 229.681 181.724 229.664 180.975C229.617 178.98 229.446 177.002 229.146 175.046L248.645 172.054C249.073 174.857 249.321 177.687 249.385 180.538C249.407 181.608 249.407 182.678 249.377 183.748L229.66 183.222ZM227.211 167.208C226.329 164.656 225.225 162.199 223.898 159.841L241.089 150.171C242.999 153.561 244.587 157.097 245.854 160.77L227.211 167.208ZM219.313 153.176C217.584 151.087 215.688 149.169 213.611 147.418L226.338 132.346C229.309 134.85 232.031 137.602 234.51 140.595L219.313 153.176ZM206.985 142.765C204.635 141.412 202.191 140.286 199.644 139.379L206.266 120.796C209.93 122.102 213.449 123.729 216.826 125.672L206.985 142.765ZM191.814 137.358C189.143 136.926 186.446 136.729 183.715 136.776L183.385 117.055C187.289 116.986 191.159 117.269 194.99 117.894L191.814 137.358ZM183.471 136.78C180.736 136.84 178.043 137.14 175.393 137.679L171.459 118.352C175.265 117.577 179.122 117.145 183.034 117.059L183.471 136.78Z" fill="black" fill-opacity="0.81"/>
</g>
</g>
</g>
</g>
<mask id="mask36_176_6956" style="mask-type:luminance" maskUnits="userSpaceOnUse" x="143" y="139" width="83" height="84">
<path d="M143.262 139.657H225.944V222.339H143.262V139.657Z" fill="white"/>
</mask>
<g mask="url(#mask36_176_6956)">
<mask id="mask37_176_6956" style="mask-type:luminance" maskUnits="userSpaceOnUse" x="143" y="139" width="83" height="84">
<path d="M184.605 139.657C161.772 139.657 143.262 158.167 143.262 181C143.262 203.829 161.772 222.339 184.605 222.339C207.434 222.339 225.944 203.829 225.944 181C225.944 158.167 207.434 139.657 184.605 139.657Z" fill="white"/>
</mask>
<g mask="url(#mask37_176_6956)">
<mask id="mask38_176_6956" style="mask-type:luminance" maskUnits="userSpaceOnUse" x="142" y="139" width="85" height="84">
<path d="M226.936 139.473H142.555V222.758H226.936V139.473Z" fill="white"/>
</mask>
<g mask="url(#mask38_176_6956)">
<mask id="mask39_176_6956" style="mask-type:luminance" maskUnits="userSpaceOnUse" x="143" y="139" width="83" height="84">
<path d="M143.262 139.656H225.944V222.338H143.262V139.656Z" fill="white"/>
</mask>
<g mask="url(#mask39_176_6956)">
<mask id="mask40_176_6956" style="mask-type:luminance" maskUnits="userSpaceOnUse" x="143" y="139" width="83" height="84">
<path d="M184.605 139.656C161.772 139.656 143.262 158.166 143.262 180.999C143.262 203.828 161.772 222.338 184.605 222.338C207.434 222.338 225.944 203.828 225.944 180.999C225.944 158.166 207.434 139.656 184.605 139.656Z" fill="white"/>
</mask>
<g mask="url(#mask40_176_6956)">
<path d="M143.262 139.656H225.944V222.338H143.262V139.656Z" fill="#ABC7E9" fill-opacity="0.84"/>
</g>
</g>
</g>
</g>
</g>
<mask id="mask41_176_6956" style="mask-type:luminance" maskUnits="userSpaceOnUse" x="179" y="86" width="12" height="25">
<path d="M190.773 86.8723H179.814V110.981H190.773V86.8723Z" fill="white"/>
</mask>
<g mask="url(#mask41_176_6956)">
<mask id="mask42_176_6956" style="mask-type:luminance" maskUnits="userSpaceOnUse" x="180" y="92" width="10" height="13">
<path d="M180.165 92.3525H189.677V104.407H180.165V92.3525Z" fill="white"/>
</mask>
<g mask="url(#mask42_176_6956)">
<path d="M185.141 92.9014C186.066 92.9014 186.854 93.1368 187.504 93.6034C188.164 94.0614 188.673 94.695 189.028 95.504C189.379 96.3174 189.559 97.2591 189.559 98.3293C189.559 99.4038 189.379 100.35 189.028 101.172C188.686 101.994 188.181 102.64 187.521 103.107C186.858 103.577 186.066 103.809 185.141 103.809C184.217 103.809 183.42 103.577 182.761 103.107C182.098 102.64 181.588 101.994 181.237 101.172C180.895 100.35 180.724 99.4038 180.724 98.3293C180.724 97.2591 180.899 96.3174 181.254 95.504C181.605 94.695 182.115 94.0614 182.778 93.6034C183.438 93.1368 184.225 92.9014 185.141 92.9014ZM185.141 94.0315C184.444 94.0315 183.861 94.2198 183.395 94.5965C182.924 94.9647 182.573 95.4698 182.333 96.1205C182.093 96.7711 181.974 97.5074 181.974 98.3293C181.974 99.1512 182.085 99.896 182.316 100.555C182.556 101.206 182.907 101.728 183.378 102.113C183.844 102.49 184.431 102.679 185.141 102.679C185.835 102.679 186.417 102.49 186.888 102.113C187.354 101.728 187.701 101.206 187.932 100.555C188.172 99.896 188.292 99.1512 188.292 98.3293C188.292 97.5074 188.172 96.7711 187.932 96.1205C187.693 95.4698 187.337 94.9647 186.871 94.5965C186.4 94.2198 185.826 94.0315 185.141 94.0315Z" fill="black" fill-opacity="0.81"/>
</g>
</g>
<mask id="mask43_176_6956" style="mask-type:luminance" maskUnits="userSpaceOnUse" x="219" y="101" width="29" height="29">
<path d="M247.758 101.118H219.266V129.611H247.758V101.118Z" fill="white"/>
</mask>
<g mask="url(#mask43_176_6956)">
<path d="M224.445 114.366L225.182 113.459L227.373 115.24L232.459 108.939C232.048 108.814 231.611 108.677 231.157 108.528C230.712 108.382 230.276 108.232 229.856 108.082L230.181 107.004L233.623 108.237L234.188 108.699L228.315 115.993L229.959 117.312L229.223 118.219L224.445 114.366Z" fill="black" fill-opacity="0.81"/>
<path d="M239.957 113.125C240.676 113.698 241.143 114.37 241.361 115.145C241.588 115.924 241.584 116.738 241.344 117.594C241.113 118.437 240.663 119.276 239.991 120.111C239.315 120.954 238.587 121.583 237.8 121.994C237.021 122.414 236.224 122.598 235.402 122.542C234.589 122.495 233.827 122.187 233.108 121.618C232.389 121.035 231.918 120.35 231.704 119.563C231.486 118.784 231.498 117.97 231.738 117.114C231.978 116.258 232.432 115.411 233.108 114.563C233.78 113.733 234.512 113.116 235.3 112.714C236.087 112.303 236.879 112.127 237.68 112.183C238.489 112.23 239.247 112.542 239.957 113.125ZM239.238 113.998C238.699 113.553 238.134 113.33 237.543 113.33C236.948 113.33 236.348 113.51 235.745 113.861C235.15 114.216 234.598 114.713 234.084 115.351C233.57 116.001 233.198 116.652 232.971 117.303C232.74 117.953 232.688 118.574 232.817 119.169C232.941 119.76 233.279 120.282 233.827 120.727C234.375 121.16 234.949 121.369 235.557 121.361C236.16 121.361 236.759 121.177 237.354 120.813C237.945 120.458 238.502 119.957 239.015 119.306C239.529 118.664 239.893 118.022 240.111 117.371C240.338 116.72 240.385 116.104 240.248 115.522C240.111 114.931 239.773 114.422 239.238 113.998Z" fill="black" fill-opacity="0.81"/>
</g>
<mask id="mask44_176_6956" style="mask-type:luminance" maskUnits="userSpaceOnUse" x="248" y="141" width="31" height="29">
<path d="M278.442 141.667H248.854V169.063H278.442V141.667Z" fill="white"/>
</mask>
<g mask="url(#mask44_176_6956)">
<path d="M266.232 150.024C265.933 149.19 265.427 148.62 264.708 148.312C263.998 148.004 263.005 148.034 261.729 148.398L261.421 147.199C262.893 146.814 264.13 146.818 265.136 147.216C266.138 147.606 266.857 148.411 267.294 149.631C267.692 150.701 267.748 151.638 267.465 152.439C267.191 153.235 266.592 153.8 265.667 154.134C265.038 154.361 264.46 154.399 263.938 154.254C263.424 154.117 262.919 153.826 262.431 153.38C261.939 152.935 261.455 152.37 260.976 151.685C260.449 151.035 259.991 150.538 259.606 150.196C259.229 149.853 258.844 149.652 258.458 149.596C258.082 149.549 257.641 149.613 257.14 149.785C257.286 150.17 257.457 150.615 257.654 151.12C257.846 151.634 258.022 152.105 258.185 152.541L259.623 156.514L258.544 156.908L255.685 149.048C255.787 148.98 255.899 148.92 256.027 148.877C256.164 148.83 256.292 148.783 256.421 148.74C257.196 148.458 257.868 148.355 258.441 148.432C259.011 148.5 259.554 148.732 260.068 149.134C260.582 149.545 261.113 150.114 261.66 150.846C262.367 151.814 262.987 152.456 263.527 152.764C264.062 153.081 264.631 153.132 265.239 152.918C265.753 152.721 266.117 152.379 266.335 151.891C266.549 151.411 266.515 150.786 266.232 150.024Z" fill="black" fill-opacity="0.81"/>
<path d="M270.375 158.051C270.692 158.915 270.744 159.737 270.53 160.516C270.324 161.291 269.9 161.98 269.262 162.588C268.633 163.205 267.811 163.693 266.797 164.061C265.791 164.425 264.845 164.583 263.954 164.54C263.064 164.506 262.281 164.253 261.609 163.787C260.945 163.329 260.453 162.665 260.136 161.8C259.815 160.931 259.759 160.105 259.965 159.318C260.179 158.539 260.615 157.845 261.266 157.229C261.925 156.612 262.76 156.124 263.766 155.756C264.781 155.392 265.727 155.238 266.608 155.294C267.486 155.354 268.256 155.615 268.92 156.081C269.579 156.539 270.067 157.194 270.375 158.051ZM269.314 158.444C269.074 157.794 268.697 157.314 268.184 157.006C267.679 156.689 267.079 156.527 266.386 156.527C265.701 156.518 264.969 156.655 264.194 156.938C263.428 157.22 262.777 157.588 262.242 158.033C261.703 158.479 261.335 158.984 261.129 159.557C260.932 160.127 260.958 160.743 261.198 161.407C261.437 162.057 261.814 162.537 262.328 162.845C262.85 163.153 263.462 163.307 264.16 163.307C264.853 163.307 265.585 163.162 266.352 162.879C267.126 162.592 267.777 162.22 268.304 161.766C268.839 161.321 269.198 160.812 269.382 160.242C269.575 159.682 269.554 159.082 269.314 158.444Z" fill="black" fill-opacity="0.81"/>
</g>
<mask id="mask45_176_6956" style="mask-type:luminance" maskUnits="userSpaceOnUse" x="249" y="194" width="29" height="24">
<path d="M277.347 194.267H249.95V217.28H277.347V194.267Z" fill="white"/>
</mask>
<g mask="url(#mask45_176_6956)">
<path d="M259.132 200.537C259.384 199.155 259.911 198.166 260.707 197.575C261.503 196.98 262.522 196.719 263.755 196.787L263.652 198.037C262.702 197.969 261.944 198.14 261.375 198.551C260.801 198.97 260.416 199.715 260.21 200.777C260.073 201.573 260.138 202.232 260.399 202.746C260.66 203.26 261.101 203.572 261.717 203.688C262.334 203.799 262.817 203.713 263.173 203.431C263.536 203.144 263.81 202.498 263.994 201.496L264.32 199.767L265.313 199.938L265.005 201.599C264.889 202.202 264.94 202.746 265.159 203.225C265.386 203.705 265.827 204 266.477 204.116C267.136 204.24 267.646 204.133 268.001 203.791C268.365 203.457 268.618 202.939 268.755 202.232C268.913 201.363 268.81 200.678 268.446 200.178C268.078 199.685 267.522 199.309 266.768 199.047L267.128 197.866C268.13 198.208 268.892 198.744 269.405 199.476C269.927 200.203 270.077 201.179 269.85 202.404C269.645 203.508 269.26 204.321 268.703 204.835C268.142 205.357 267.402 205.537 266.477 205.366C265.814 205.237 265.313 204.963 264.97 204.544C264.628 204.133 264.427 203.594 264.371 202.934H264.337C264.037 203.859 263.656 204.458 263.19 204.732C262.732 205.006 262.132 205.075 261.392 204.938C260.501 204.775 259.846 204.33 259.423 203.602C258.99 202.87 258.892 201.847 259.132 200.537Z" fill="black" fill-opacity="0.81"/>
<path d="M268.214 211.41C268.043 212.322 267.666 213.058 267.084 213.619C266.51 214.175 265.791 214.552 264.927 214.749C264.07 214.955 263.116 214.959 262.067 214.766C261.005 214.569 260.102 214.227 259.362 213.739C258.617 213.247 258.077 212.63 257.735 211.89C257.393 211.158 257.307 210.336 257.478 209.424C257.641 208.521 258.009 207.784 258.591 207.215C259.173 206.654 259.897 206.278 260.766 206.085C261.63 205.888 262.598 205.888 263.66 206.085C264.708 206.278 265.599 206.62 266.331 207.112C267.071 207.613 267.606 208.23 267.94 208.962C268.283 209.702 268.373 210.52 268.214 211.41ZM267.101 211.205C267.225 210.52 267.144 209.912 266.862 209.39C266.588 208.863 266.147 208.418 265.543 208.054C264.948 207.699 264.246 207.446 263.437 207.301C262.624 207.151 261.879 207.134 261.194 207.249C260.509 207.361 259.931 207.613 259.464 208.003C259.006 208.388 258.715 208.932 258.591 209.629C258.467 210.314 258.544 210.918 258.831 211.444C259.126 211.979 259.571 212.42 260.166 212.763C260.77 213.114 261.476 213.366 262.29 213.516C263.099 213.662 263.848 213.679 264.533 213.568C265.218 213.452 265.783 213.195 266.228 212.797C266.682 212.408 266.973 211.877 267.101 211.205Z" fill="black" fill-opacity="0.81"/>
</g>
<mask id="mask46_176_6956" style="mask-type:luminance" maskUnits="userSpaceOnUse" x="219" y="231" width="31" height="33">
<path d="M249.95 231.526H219.266V263.306H249.95V231.526Z" fill="white"/>
</mask>
<g mask="url(#mask46_176_6956)">
<path d="M233.573 242.097L235.148 244.169L240.233 240.282L240.901 241.139L240.131 250.351L239.001 251.224L234.84 245.779L233.521 246.789L232.854 245.933L234.172 244.923L232.597 242.851L233.573 242.097ZM235.816 245.025L239.12 249.34L239.155 249.323L239.703 241.995C239.369 242.269 239.043 242.534 238.71 242.8C238.367 243.073 238.05 243.322 237.751 243.553L235.816 245.025Z" fill="black" fill-opacity="0.81"/>
<path d="M234.267 255.055C233.535 255.611 232.764 255.911 231.955 255.945C231.159 255.979 230.375 255.778 229.609 255.346C228.834 254.922 228.119 254.284 227.469 253.428C226.818 252.58 226.386 251.724 226.167 250.859C225.941 249.99 225.945 249.169 226.185 248.394C226.424 247.615 226.912 246.947 227.64 246.39C228.385 245.83 229.16 245.534 229.969 245.5C230.782 245.466 231.574 245.671 232.349 246.116C233.124 246.562 233.839 247.204 234.489 248.051C235.14 248.907 235.568 249.764 235.773 250.62C235.987 251.484 235.97 252.302 235.722 253.068C235.482 253.83 234.994 254.494 234.267 255.055ZM233.582 254.164C234.138 253.74 234.493 253.24 234.643 252.657C234.789 252.075 234.755 251.45 234.541 250.791C234.335 250.14 233.984 249.481 233.496 248.822C232.991 248.171 232.452 247.649 231.869 247.264C231.287 246.887 230.696 246.686 230.089 246.664C229.472 246.652 228.886 246.861 228.325 247.298C227.777 247.717 227.435 248.223 227.298 248.805C227.161 249.395 227.203 250.025 227.417 250.688C227.623 251.347 227.978 252.007 228.479 252.657C228.971 253.317 229.515 253.83 230.106 254.198C230.688 254.562 231.279 254.751 231.869 254.763C232.473 254.772 233.042 254.575 233.582 254.164Z" fill="black" fill-opacity="0.81"/>
</g>
<mask id="mask47_176_6956" style="mask-type:luminance" maskUnits="userSpaceOnUse" x="175" y="250" width="22" height="26">
<path d="M196.253 250.156H175.432V275.361H196.253V250.156Z" fill="white"/>
</mask>
<g mask="url(#mask47_176_6956)">
<path d="M190.09 258.58C189.268 258.554 188.617 258.721 188.138 259.076C187.658 259.44 187.41 260.026 187.385 260.84C187.363 261.491 187.569 262.004 188.001 262.381C188.425 262.758 189.088 262.955 189.987 262.98C190.527 262.989 191.032 262.929 191.511 262.792C191.991 262.663 192.363 262.509 192.624 262.33L193.754 262.758L193.6 268.271L186.494 268.083L186.528 266.918L192.419 267.073L192.521 263.391C192.205 263.562 191.802 263.704 191.323 263.819C190.843 263.943 190.308 263.999 189.713 263.99C188.515 263.956 187.607 263.657 186.991 263.1C186.366 262.539 186.066 261.769 186.1 260.788C186.126 260.001 186.319 259.354 186.682 258.854C187.051 258.361 187.534 258.002 188.138 257.775C188.733 257.548 189.396 257.445 190.124 257.467C191.301 257.501 192.277 257.792 193.052 258.34C193.831 258.888 194.371 259.765 194.679 260.977L193.429 261.251C193.189 260.437 192.808 259.795 192.282 259.316C191.747 258.845 191.015 258.601 190.09 258.58Z" fill="black" fill-opacity="0.81"/>
<mask id="mask48_176_6956" style="mask-type:luminance" maskUnits="userSpaceOnUse" x="175" y="256" width="12" height="13">
<path d="M175.692 256.731H186.39V268.786H175.692V256.731Z" fill="white"/>
</mask>
<g mask="url(#mask48_176_6956)">
<path d="M180.775 268.103C179.851 268.078 179.071 267.829 178.429 267.35C177.779 266.87 177.291 266.22 176.957 265.398C176.627 264.576 176.477 263.626 176.512 262.556C176.537 261.481 176.734 260.539 177.111 259.73C177.479 258.917 177.997 258.283 178.669 257.83C179.345 257.384 180.142 257.175 181.066 257.196C181.991 257.23 182.779 257.487 183.429 257.967C184.08 258.455 184.572 259.114 184.902 259.936C185.223 260.766 185.373 261.721 185.347 262.795C185.313 263.865 185.107 264.803 184.731 265.603C184.354 266.412 183.832 267.033 183.155 267.47C182.483 267.915 181.691 268.125 180.775 268.103ZM180.809 266.973C181.507 266.995 182.094 266.823 182.573 266.46C183.053 266.104 183.425 265.603 183.686 264.953C183.939 264.311 184.076 263.583 184.097 262.761C184.123 261.939 184.024 261.194 183.806 260.535C183.592 259.872 183.254 259.341 182.796 258.943C182.342 258.553 181.76 258.348 181.049 258.326C180.356 258.313 179.765 258.489 179.286 258.857C178.806 259.221 178.442 259.73 178.19 260.381C177.941 261.032 177.804 261.768 177.779 262.59C177.757 263.412 177.86 264.148 178.087 264.799C178.305 265.458 178.643 265.984 179.097 266.374C179.555 266.759 180.125 266.96 180.809 266.973Z" fill="black" fill-opacity="0.81"/>
</g>
</g>
<mask id="mask49_176_6956" style="mask-type:luminance" maskUnits="userSpaceOnUse" x="121" y="231" width="32" height="33">
<path d="M152.419 231.526H121.734V263.306H152.419V231.526Z" fill="white"/>
</mask>
<g mask="url(#mask49_176_6956)">
<path d="M143.905 251.286L143.837 251.235C143.143 251.872 142.411 252.176 141.645 252.142C140.883 252.108 140.1 251.787 139.299 251.183C138.777 250.781 138.366 250.336 138.066 249.848C137.758 249.355 137.621 248.833 137.655 248.272C137.69 247.716 137.929 247.142 138.375 246.56C139.025 245.704 139.813 245.225 140.738 245.122C141.662 245.019 142.672 245.387 143.768 246.218C144.453 246.744 144.958 247.343 145.275 248.016C145.583 248.692 145.648 249.445 145.463 250.293C145.271 251.149 144.779 252.091 143.991 253.118C143.34 253.974 142.651 254.642 141.919 255.122C141.178 255.61 140.404 255.849 139.59 255.841C138.781 255.828 137.947 255.498 137.09 254.848C136.397 254.308 135.922 253.769 135.669 253.221C135.421 252.673 135.344 252.091 135.447 251.474C135.549 250.858 135.806 250.177 136.217 249.437L137.262 250.036C136.851 250.892 136.662 251.62 136.697 252.228C136.722 252.844 137.082 253.418 137.775 253.957C138.679 254.642 139.569 254.835 140.446 254.539C141.315 254.253 142.219 253.499 143.152 252.279L143.905 251.286ZM140.087 250.618C140.669 251.063 141.226 251.342 141.748 251.457C142.261 251.569 142.72 251.56 143.118 251.423C143.507 251.286 143.815 251.068 144.042 250.772C144.432 250.259 144.564 249.668 144.436 249.009C144.299 248.337 143.832 247.699 143.032 247.091C142.223 246.466 141.517 246.201 140.909 246.303C140.305 246.406 139.779 246.748 139.333 247.331C138.888 247.913 138.743 248.478 138.888 249.026C139.025 249.574 139.428 250.105 140.087 250.618Z" fill="black" fill-opacity="0.81"/>
<path d="M129.765 249.243C129.037 248.683 128.549 248.019 128.309 247.257C128.061 246.491 128.044 245.682 128.258 244.826C128.463 243.97 128.892 243.122 129.542 242.274C130.193 241.418 130.912 240.768 131.7 240.322C132.479 239.877 133.271 239.672 134.08 239.706C134.893 239.732 135.664 240.023 136.391 240.579C137.123 241.14 137.616 241.808 137.864 242.583C138.104 243.362 138.112 244.179 137.881 245.048C137.654 245.913 137.213 246.778 136.563 247.634C135.912 248.477 135.206 249.111 134.439 249.535C133.665 249.967 132.877 250.168 132.076 250.134C131.267 250.1 130.497 249.8 129.765 249.243ZM130.45 248.353C131.011 248.773 131.593 248.978 132.196 248.97C132.791 248.957 133.378 248.768 133.96 248.404C134.542 248.036 135.081 247.531 135.569 246.881C136.075 246.217 136.434 245.554 136.648 244.894C136.867 244.231 136.905 243.61 136.768 243.028C136.623 242.437 136.267 241.923 135.706 241.487C135.159 241.067 134.585 240.866 133.977 240.888C133.361 240.9 132.761 241.102 132.179 241.487C131.597 241.864 131.058 242.386 130.552 243.045C130.064 243.696 129.713 244.346 129.508 244.997C129.303 245.656 129.277 246.281 129.422 246.863C129.559 247.446 129.902 247.942 130.45 248.353Z" fill="black" fill-opacity="0.81"/>
</g>
<mask id="mask50_176_6956" style="mask-type:luminance" maskUnits="userSpaceOnUse" x="92" y="194" width="30" height="26">
<path d="M121.735 194.267H92.1465V219.472H121.735V194.267Z" fill="white"/>
</mask>
<g mask="url(#mask50_176_6956)">
<path d="M104.119 212.125L105.455 216.303L104.342 216.646L101.739 208.478L102.852 208.136C104.543 209.005 106.251 209.523 107.972 209.694C109.697 209.857 111.397 209.745 113.075 209.369L113.486 210.67C112.381 210.91 111.238 211.038 110.061 211.047C108.875 211.047 107.694 210.918 106.517 210.653C105.344 210.379 104.231 209.964 103.178 209.403C103.34 209.839 103.503 210.289 103.674 210.756C103.837 211.214 103.982 211.672 104.119 212.125Z" fill="black" fill-opacity="0.81"/>
<path d="M100.205 204.303C99.9315 203.426 99.923 202.604 100.171 201.838C100.411 201.076 100.865 200.399 101.524 199.817C102.187 199.226 103.031 198.768 104.058 198.447C105.077 198.118 106.027 197.998 106.918 198.088C107.799 198.182 108.561 198.473 109.212 198.961C109.863 199.44 110.325 200.121 110.599 200.999C110.886 201.889 110.907 202.724 110.668 203.499C110.419 204.265 109.957 204.937 109.281 205.519C108.596 206.088 107.748 206.538 106.729 206.872C105.702 207.189 104.756 207.304 103.887 207.214C103.009 207.12 102.243 206.829 101.592 206.341C100.942 205.862 100.479 205.185 100.205 204.303ZM101.284 203.961C101.503 204.624 101.862 205.125 102.363 205.468C102.855 205.797 103.45 205.981 104.144 206.016C104.829 206.05 105.565 205.939 106.353 205.69C107.132 205.442 107.799 205.104 108.356 204.68C108.917 204.261 109.311 203.768 109.537 203.207C109.756 202.638 109.756 202.017 109.537 201.341C109.332 200.682 108.981 200.185 108.476 199.851C107.962 199.522 107.359 199.346 106.661 199.321C105.954 199.299 105.214 199.415 104.435 199.663C103.647 199.916 102.979 200.254 102.431 200.673C101.884 201.097 101.507 201.589 101.301 202.146C101.087 202.707 101.079 203.31 101.284 203.961Z" fill="black" fill-opacity="0.81"/>
</g>
<mask id="mask51_176_6956" style="mask-type:luminance" maskUnits="userSpaceOnUse" x="92" y="141" width="31" height="29">
<path d="M122.831 141.667H92.1465V169.063H122.831V141.667Z" fill="white"/>
</mask>
<g mask="url(#mask51_176_6956)">
<path d="M110.445 162.052C109.885 163.482 109.247 164.406 108.528 164.826C107.8 165.237 107.029 165.288 106.216 164.98C105.634 164.753 105.189 164.364 104.881 163.816C104.572 163.268 104.521 162.523 104.726 161.573L104.709 161.555C104.298 162.129 103.827 162.51 103.288 162.703C102.753 162.887 102.167 162.857 101.524 162.617C100.762 162.309 100.249 161.787 99.9834 161.042C99.7094 160.288 99.8079 159.312 100.274 158.114C100.745 156.907 101.332 156.11 102.038 155.734C102.736 155.357 103.468 155.318 104.23 155.614C104.872 155.854 105.326 156.226 105.6 156.727C105.874 157.232 105.968 157.831 105.874 158.525L105.891 158.542C106.383 157.711 106.931 157.189 107.535 156.984C108.13 156.778 108.716 156.791 109.298 157.018C110.107 157.326 110.638 157.887 110.891 158.696C111.139 159.496 110.993 160.614 110.445 162.052ZM105.771 160.237C105.476 160.982 105.343 161.59 105.377 162.069C105.411 162.549 105.54 162.921 105.754 163.182C105.972 163.435 106.229 163.619 106.524 163.73C107.098 163.948 107.629 163.893 108.117 163.559C108.609 163.229 109.033 162.591 109.401 161.641C109.765 160.682 109.88 159.92 109.743 159.347C109.606 158.764 109.251 158.366 108.682 158.148C108.386 158.037 108.074 158.002 107.74 158.045C107.41 158.092 107.072 158.281 106.73 158.61C106.379 158.944 106.058 159.484 105.771 160.237ZM101.336 158.525C101.019 159.359 100.951 160.023 101.131 160.511C101.315 161.003 101.67 161.35 102.192 161.555C102.834 161.795 103.382 161.752 103.836 161.418C104.294 161.089 104.654 160.588 104.915 159.912C105.18 159.227 105.253 158.606 105.137 158.045C105.026 157.489 104.649 157.086 104.007 156.847C103.485 156.641 102.993 156.658 102.535 156.898C102.068 157.129 101.67 157.669 101.336 158.525Z" fill="black" fill-opacity="0.81"/>
<path d="M103.662 149.348C103.996 148.492 104.496 147.841 105.168 147.396C105.845 146.942 106.62 146.694 107.497 146.66C108.379 146.625 109.321 146.805 110.322 147.19C111.328 147.58 112.146 148.081 112.788 148.697C113.426 149.314 113.841 150.024 114.038 150.82C114.231 151.608 114.162 152.43 113.833 153.286C113.499 154.155 112.998 154.81 112.326 155.255C111.654 155.7 110.87 155.94 109.98 155.974C109.09 156 108.144 155.816 107.138 155.427C106.136 155.041 105.318 154.536 104.689 153.92C104.064 153.295 103.653 152.593 103.456 151.814C103.264 151.026 103.332 150.204 103.662 149.348ZM104.723 149.759C104.475 150.41 104.441 151.022 104.621 151.591C104.792 152.152 105.143 152.665 105.665 153.132C106.179 153.59 106.821 153.967 107.583 154.262C108.349 154.562 109.081 154.72 109.775 154.742C110.472 154.754 111.089 154.613 111.624 154.314C112.146 154.018 112.536 153.539 112.788 152.875C113.036 152.225 113.066 151.617 112.874 151.043C112.69 150.474 112.334 149.96 111.812 149.502C111.29 149.048 110.644 148.672 109.877 148.372C109.115 148.077 108.383 147.922 107.686 147.91C106.992 147.901 106.384 148.047 105.871 148.355C105.357 148.654 104.976 149.121 104.723 149.759Z" fill="black" fill-opacity="0.81"/>
</g>
<mask id="mask52_176_6956" style="mask-type:luminance" maskUnits="userSpaceOnUse" x="121" y="97" width="32" height="33">
<path d="M152.419 97.8301H121.734V129.61H152.419V97.8301Z" fill="white"/>
</mask>
<g mask="url(#mask52_176_6956)">
<path d="M134.583 113.117L134.515 113.168C134.891 113.99 134.947 114.756 134.686 115.463C134.421 116.16 133.873 116.798 133.042 117.38C132.503 117.757 131.959 118.023 131.398 118.168C130.842 118.305 130.303 118.284 129.789 118.1C129.267 117.907 128.791 117.513 128.368 116.918C127.751 116.041 127.542 115.15 127.734 114.247C127.931 113.335 128.573 112.492 129.669 111.713C130.38 111.212 131.103 110.908 131.844 110.805C132.584 110.703 133.333 110.869 134.087 111.302C134.84 111.726 135.594 112.466 136.347 113.528C136.963 114.397 137.391 115.257 137.631 116.113C137.879 116.969 137.888 117.783 137.648 118.545C137.409 119.298 136.865 119.979 136.022 120.582C134.96 121.327 133.971 121.653 133.059 121.558C132.143 121.456 131.24 120.989 130.337 120.154L131.193 119.247C131.891 119.889 132.571 120.249 133.248 120.326C133.92 120.407 134.626 120.184 135.371 119.658C136.236 119.041 136.659 118.279 136.638 117.363C136.625 116.452 136.176 115.368 135.285 114.11L134.583 113.117ZM132.717 116.473C133.32 116.053 133.761 115.612 134.035 115.154C134.309 114.701 134.438 114.264 134.429 113.853C134.416 113.442 134.309 113.095 134.104 112.809C133.736 112.286 133.213 111.987 132.529 111.918C131.844 111.841 131.099 112.085 130.285 112.655C129.455 113.25 128.997 113.845 128.916 114.435C128.839 115.03 129.01 115.63 129.429 116.233C129.84 116.815 130.333 117.119 130.902 117.141C131.463 117.166 132.066 116.944 132.717 116.473Z" fill="black" fill-opacity="0.81"/>
<path d="M137.432 106.229C138.186 105.694 138.965 105.433 139.761 105.441C140.57 105.441 141.353 105.672 142.107 106.126C142.869 106.584 143.562 107.248 144.179 108.112C144.795 108.994 145.193 109.872 145.377 110.749C145.57 111.618 145.531 112.436 145.257 113.198C144.984 113.964 144.47 114.615 143.716 115.15C142.963 115.689 142.18 115.955 141.371 115.955C140.557 115.946 139.778 115.706 139.025 115.235C138.263 114.769 137.569 114.097 136.953 113.215C136.336 112.35 135.943 111.481 135.771 110.612C135.592 109.748 135.634 108.93 135.908 108.164C136.182 107.402 136.692 106.755 137.432 106.229ZM138.083 107.153C137.514 107.556 137.15 108.04 136.987 108.609C136.816 109.182 136.824 109.807 137.004 110.492C137.176 111.169 137.501 111.837 137.98 112.496C138.451 113.172 138.973 113.707 139.556 114.105C140.125 114.508 140.707 114.73 141.302 114.773C141.906 114.82 142.492 114.636 143.066 114.225C143.635 113.827 143.999 113.335 144.162 112.753C144.333 112.162 144.32 111.533 144.127 110.869C143.943 110.197 143.618 109.525 143.151 108.849C142.672 108.189 142.145 107.659 141.576 107.256C141.002 106.858 140.416 106.64 139.812 106.605C139.222 106.571 138.644 106.755 138.083 107.153Z" fill="black" fill-opacity="0.81"/>
</g>
</svg>
